<svg xmlns="http://www.w3.org/2000/svg" fill="none" viewBox="0 0 92 87">
  <path fill="#1E76E2" d="M88.2 43.1V44.5c-.2.2-.3.3-.5.3a.5.5 0 0 1-.5-.5V43c0-13.3-8-25.5-21-32a44.7 44.7 0 0 0-42.5 1.5A36 36 0 0 0 5.3 45v.8l.2 1.6c0 .2-.2.5-.4.5H5l-.4-.1v-.3a23.8 23.8 0 0 1-.2-1.7v-.5l-.1-1a35.8 35.8 0 0 1 10.7-26l.2-.3a45.7 45.7 0 0 1 61-1.2l.2.1a35.7 35.7 0 0 1 11.8 25.4v1-.1Z"/>
  <path fill="#1E76E2" d="M88.2 40.8a36 36 0 0 0-13-26.5A44 44 0 0 0 45.1 4a44.1 44.1 0 0 0-29.4 12A35.9 35.9 0 0 0 4.2 43v1.3l.1.7v.1l.1.8.2 1.8a34.7 34.7 0 0 0 3.2 9.9 42.3 42.3 0 0 0 21.6 19.3 45.6 45.6 0 0 0 47.2-9 36.3 36.3 0 0 0 11.5-23.4v-1.4l.1-.1v-2.2ZM76 67.3a44.5 44.5 0 0 1-58 1.6 37 37 0 0 1-9-11.3l-.4-1A33.6 33.6 0 0 1 5.3 45V43A34.6 34.6 0 0 1 15 18.2l.2-.3 1.3-1.2A43 43 0 0 1 46.5 5a43 43 0 0 1 29.8 11.7l.1.1a33.8 33.8 0 0 1 10.8 25.5v1c-.4 9-4.4 17.4-11.3 24Z"/>
  <path fill="#1E76E2" d="M91.7 40.7C91 18.1 70.2.3 45 1a47.7 47.7 0 0 0-31.8 13A38.9 38.9 0 0 0 .8 44.6v.5l.2 1.5a35.3 35.3 0 0 0 3 10.5 43.2 43.2 0 0 0 25.4 23 49.3 49.3 0 0 0 18 2.8c20-.6 36.8-13 42.3-29.5.7-1.9 1.2-3.8 1.5-5.9v-.4l.1-.4.2-2v-.2l.1-1.5v-2.4ZM47.3 82a48.3 48.3 0 0 1-18.9-3.3A42.3 42.3 0 0 1 5.1 57.3l-.5-1A37.4 37.4 0 0 1 2 45.2v-.6a37 37 0 0 1 12.1-30A46.7 46.7 0 0 1 46.5 1.8C70.4 2 90 19.1 90.6 40.8v3.8C88.8 65 70.2 81.4 47.2 82Zm43.2-37.3C89 65 70.3 81.3 47.3 82a48.3 48.3 0 0 1-18.9-3.3A42.3 42.3 0 0 1 5.1 57.3l-.5-1A37.4 37.4 0 0 1 2 45.2v1.3l.2 2v.3a39.6 39.6 0 0 0 1.4 7.4l.4 1a43.2 43.2 0 0 0 25.5 23 49.3 49.3 0 0 0 18 2.8c20-.6 36.9-13 42.4-29.5l.1-.7.2-.8a29 29 0 0 0 .4-4V44.7Zm0 0C89 65 70.3 81.3 47.3 82a48.3 48.3 0 0 1-18.9-3.3A42.3 42.3 0 0 1 5.1 57.3l-.5-1A37.4 37.4 0 0 1 2 45.2v1.3l.2 2v.3a39.6 39.6 0 0 0 1.4 7.4l.4 1a43.2 43.2 0 0 0 25.5 23 49.3 49.3 0 0 0 18 2.8c20-.6 36.9-13 42.4-29.5l.1-.7.2-.8a29 29 0 0 0 .4-4V44.7Zm0 0C89 65 70.3 81.3 47.3 82a48.3 48.3 0 0 1-18.9-3.3A42.3 42.3 0 0 1 5.1 57.3l-.5-1A37.4 37.4 0 0 1 2 45.2v1.3l.2 2v.3a39.6 39.6 0 0 0 1.4 7.4l.4 1a43.2 43.2 0 0 0 25.5 23 49.3 49.3 0 0 0 18 2.8c20-.6 36.9-13 42.4-29.5l.1-.7.2-.8a29 29 0 0 0 .4-4V44.7Zm0 0C89 65 70.3 81.3 47.3 82a48.3 48.3 0 0 1-18.9-3.3A42.3 42.3 0 0 1 5.1 57.3l-.5-1A37.4 37.4 0 0 1 2 45.2v1.3l.2 2v.3a39.6 39.6 0 0 0 1.4 7.4l.4 1a43.2 43.2 0 0 0 25.5 23 49.3 49.3 0 0 0 18 2.8c20-.6 36.9-13 42.4-29.5l.1-.7.2-.8a29 29 0 0 0 .4-4V44.7Zm0 0C89 65 70.3 81.3 47.3 82a48.3 48.3 0 0 1-18.9-3.3A42.3 42.3 0 0 1 5.1 57.3l-.5-1A37.4 37.4 0 0 1 2 45.2v1.3l.2 2v.3a39.6 39.6 0 0 0 1.4 7.4l.4 1a43.2 43.2 0 0 0 25.5 23 49.3 49.3 0 0 0 18 2.8c20-.6 36.9-13 42.4-29.5l.1-.7.2-.8a29 29 0 0 0 .4-4V44.7Zm0 0C89 65 70.3 81.3 47.3 82a48.3 48.3 0 0 1-18.9-3.3A42.3 42.3 0 0 1 5.1 57.3l-.5-1A37.4 37.4 0 0 1 2 45.2v1.3l.2 2v.3a39.6 39.6 0 0 0 1.4 7.4l.4 1a43.2 43.2 0 0 0 25.5 23 49.3 49.3 0 0 0 18 2.8c20-.6 36.9-13 42.4-29.5l.1-.7.2-.8a29 29 0 0 0 .4-4V44.7Zm0 0C89 65 70.3 81.3 47.3 82a48.3 48.3 0 0 1-18.9-3.3A42.3 42.3 0 0 1 5.1 57.3l-.5-1A37.4 37.4 0 0 1 2 45.2v1.3l.2 2v.3a39.6 39.6 0 0 0 1.4 7.4l.4 1a43.2 43.2 0 0 0 25.5 23 49.3 49.3 0 0 0 18 2.8c20-.6 36.9-13 42.4-29.5l.1-.7.2-.8a29 29 0 0 0 .4-4V44.7Zm0 0C89 65 70.3 81.3 47.3 82a48.3 48.3 0 0 1-18.9-3.3A42.3 42.3 0 0 1 5.1 57.3l-.5-1A37.4 37.4 0 0 1 2 45.2v1.3l.2 2v.3a39.6 39.6 0 0 0 1.4 7.4l.4 1a43.2 43.2 0 0 0 25.5 23 49.3 49.3 0 0 0 18 2.8c20-.6 36.9-13 42.4-29.5l.1-.7.2-.8a29 29 0 0 0 .4-4V44.7Zm0 0C89 65 70.3 81.3 47.3 82a48.3 48.3 0 0 1-18.9-3.3A42.3 42.3 0 0 1 5.1 57.3l-.5-1A37.4 37.4 0 0 1 2 45.2v1.3l.2 2v.3a39.6 39.6 0 0 0 1.4 7.4l.4 1a43.2 43.2 0 0 0 25.5 23 49.3 49.3 0 0 0 18 2.8c20-.6 36.9-13 42.4-29.5l.1-.7.2-.8a29 29 0 0 0 .4-4V44.7Zm0 0C89 65 70.3 81.3 47.3 82a48.3 48.3 0 0 1-18.9-3.3A42.3 42.3 0 0 1 5.1 57.3l-.5-1A37.4 37.4 0 0 1 2 45.2v1.3l.2 2v.3a39.6 39.6 0 0 0 1.4 7.4l.4 1a43.2 43.2 0 0 0 25.5 23 49.3 49.3 0 0 0 18 2.8c20-.6 36.9-13 42.4-29.5l.1-.7.2-.8a29 29 0 0 0 .4-4V44.7Zm0 0C89 65 70.3 81.3 47.3 82a48.3 48.3 0 0 1-18.9-3.3A42.3 42.3 0 0 1 5.1 57.3l-.5-1A37.4 37.4 0 0 1 2 45.2v1.3l.2 2v.3a39.6 39.6 0 0 0 1.4 7.4l.4 1a43.2 43.2 0 0 0 25.5 23 49.3 49.3 0 0 0 18 2.8c20-.6 36.9-13 42.4-29.5l.1-.7.2-.8a29 29 0 0 0 .4-4V44.7Zm0 0C89 65 70.3 81.3 47.3 82a48.3 48.3 0 0 1-18.9-3.3A42.3 42.3 0 0 1 5.1 57.3l-.5-1A37.4 37.4 0 0 1 2 45.2v1.3l.2 2v.3a39.6 39.6 0 0 0 1.4 7.4l.4 1a43.2 43.2 0 0 0 25.5 23 49.3 49.3 0 0 0 18 2.8c20-.6 36.9-13 42.4-29.5l.1-.7.2-.8a29 29 0 0 0 .4-4V44.7Zm0 0C89 65 70.3 81.3 47.3 82a48.3 48.3 0 0 1-18.9-3.3A42.3 42.3 0 0 1 5.1 57.3l-.5-1A37.4 37.4 0 0 1 2 45.2v1.3l.2 2v.3a39.6 39.6 0 0 0 1.4 7.4l.4 1a43.2 43.2 0 0 0 25.5 23 49.3 49.3 0 0 0 18 2.8c20-.6 36.9-13 42.4-29.5l.1-.7.2-.8a29 29 0 0 0 .4-4V44.7Zm0 0C89 65 70.3 81.3 47.3 82a48.3 48.3 0 0 1-18.9-3.3A42.3 42.3 0 0 1 5.1 57.3l-.5-1A37.4 37.4 0 0 1 2 45.2v1.3l.2 2v.3a39.6 39.6 0 0 0 1.4 7.4l.4 1a43.2 43.2 0 0 0 25.5 23 49.3 49.3 0 0 0 18 2.8c20-.6 36.9-13 42.4-29.5l.1-.7.2-.8a29 29 0 0 0 .4-4V44.7Zm0 0C89 65 70.3 81.3 47.3 82a48.3 48.3 0 0 1-18.9-3.3A42.3 42.3 0 0 1 5.1 57.3l-.5-1A37.4 37.4 0 0 1 2 45.2v1.3l.2 2v.3a39.6 39.6 0 0 0 1.4 7.4l.4 1a43.2 43.2 0 0 0 25.5 23 49.3 49.3 0 0 0 18 2.8c20-.6 36.9-13 42.4-29.5l.1-.7.2-.8a29 29 0 0 0 .4-4V44.7Z"/>
  <path fill="#EDF8FF" d="M90.7 40.8C90 19 70.4 1.9 46.5 1.9H45c-11.8.4-22.9 4.8-31 12.6A37.8 37.8 0 0 0 1.8 44.6v.6l.1 1.5a36.3 36.3 0 0 0 3 10.6 42.3 42.3 0 0 0 23.4 21.4l1 .4c5.6 2 11.6 3 18 2.9 23-.7 41.5-17 43.1-37.3v-.1l.1-1.5v-2.3Zm-2.5 1.5v2a8.4 8.4 0 0 1 0 1l-.2.2C87.1 54 83.1 61.7 76.6 68a44.1 44.1 0 0 1-29.4 12H46a45.5 45.5 0 0 1-17.6-3.5c-4-1.7-7.8-4-11.1-6.9A37.8 37.8 0 0 1 4.5 47.3l-.1-1.5V44.9l-.1-.6V43A35.9 35.9 0 0 1 15.7 16 44 44 0 0 1 45.2 4a44 44 0 0 1 30 10.3 36 36 0 0 1 13 26.5v1.5Z"/>
  <path fill="#1E76E2" d="M76.2 16.6a45.7 45.7 0 0 0-59.8 0A43 43 0 0 1 46.5 5a43 43 0 0 1 29.8 11.6Z"/>
  <path fill="#EDF8FF" d="M87.2 43c0-13.3-8-25.5-21-32a44.7 44.7 0 0 0-42.5 1.6A36 36 0 0 0 5.3 44.8v.1A33.6 33.6 0 0 0 9 57.7a37 37 0 0 0 9 11.2 41.3 41.3 0 0 0 11.4 6.9A44.5 44.5 0 0 0 76 67.2c7-6.6 10.9-15 11.3-24v-.1Z"/>
  <path fill="#1E76E2" d="M89.8 53.6C85.8 72 67.5 86 46 86h-.2A43.6 43.6 0 0 1 3.3 55.6a45.1 45.1 0 0 0 44 27.4c20.2-.5 37-12.9 42.5-29.4Z"/>
</svg>
