<svg width="92" height="87" viewBox="0 0 92 87" fill="none" xmlns="http://www.w3.org/2000/svg">
<path d="M88.1954 43.1031C88.1954 43.1826 88.1954 43.2621 88.1881 43.3343C88.1954 43.5126 88.1881 43.6981 88.1808 43.8787V43.886C88.1808 44.0185 88.1808 44.1582 88.1735 44.2907V44.3172C88.1735 44.3967 88.1541 44.4689 88.1129 44.5364V44.5436C88.0256 44.6954 87.8583 44.7965 87.6595 44.8014C87.3855 44.7869 87.1721 44.5629 87.1721 44.2979V44.2835C87.1842 43.9655 87.1915 43.6475 87.1842 43.3295C87.1915 43.3102 87.1915 43.2837 87.1915 43.2621C87.1915 43.2091 87.1988 43.1633 87.1915 43.1103C87.1915 29.76 79.2673 17.5564 66.2704 11.0572C52.8782 4.35314 36.5836 4.94814 23.7468 12.6085C11.6761 19.8184 4.77518 32.0196 5.32076 44.9001C5.32076 44.9266 5.32804 44.9604 5.32804 44.9869V45.0278C5.32804 45.141 5.3353 45.2542 5.34257 45.3723L5.36199 45.6782V45.7047C5.39594 46.2226 5.442 46.7454 5.50262 47.2705C5.52929 47.5427 5.33532 47.7884 5.06132 47.8149C5.04192 47.8222 5.0201 47.8222 5.0007 47.8222C4.86006 47.8222 4.7267 47.7619 4.63455 47.6559C4.56666 47.5837 4.52058 47.4897 4.50846 47.3765C4.44784 46.8586 4.40176 46.3479 4.37508 45.83C4.36781 45.8035 4.36055 45.7698 4.36055 45.736L4.34113 45.418C4.34113 45.3386 4.33388 45.2591 4.33388 45.1868C4.33388 45.1796 4.3266 45.1723 4.3266 45.1675V45.1483C4.31205 44.8303 4.29992 44.5123 4.29265 44.1991V44.1847C4.09139 34.5345 7.95166 25.2963 14.9593 18.2141C15.0466 18.1201 15.1339 18.0214 15.2333 17.9298C17.5708 15.6149 20.2478 13.5335 23.2303 11.7558C36.3557 3.92435 53.0165 3.31248 66.7238 10.1707C70.2883 11.9557 73.4866 14.1623 76.2508 16.6965L76.2848 16.7302C76.326 16.7639 76.3575 16.8025 76.3987 16.8362C76.4181 16.8506 76.4327 16.8627 76.4521 16.882C83.6828 23.5932 87.9335 32.5809 88.1735 42.2094V42.2166C88.1881 42.5153 88.1929 42.8068 88.1929 43.1055L88.1954 43.1031Z" fill="#1E76E2"/>
<path d="M88.2122 40.8219C87.9334 30.6947 83.2923 21.2903 75.1498 14.3406C67.0171 7.39564 56.3698 3.73407 45.177 4.04723C33.972 4.34594 23.5478 8.5712 15.803 15.9377C8.05094 23.3186 3.93366 32.9615 4.21251 43.0887C4.22706 43.5078 4.23918 43.9173 4.27313 44.3365V44.3702L4.3119 44.9797L4.32647 45.1459V45.1651C4.32647 45.1651 4.33375 45.1796 4.33375 45.1844C4.34587 45.4253 4.37252 45.6638 4.39919 45.8999V45.9143C4.46466 46.4997 4.5447 47.0778 4.63199 47.6536C5.12665 50.7201 6.03109 53.6951 7.31866 56.5208C7.47627 56.8677 7.63873 57.2098 7.80847 57.5518C10.0199 62.03 13.2061 66.1083 17.2676 69.5723C20.609 72.4245 24.3795 74.7226 28.4362 76.4161C28.4362 76.4161 28.4362 76.4185 28.4386 76.4185C28.7684 76.5582 29.103 76.6931 29.4376 76.8208C34.5976 78.8274 40.194 79.8777 45.9602 79.8777C46.3869 79.8777 46.8137 79.8729 47.2405 79.8657C58.443 79.5597 68.8696 75.3345 76.6144 67.9656C83.1444 61.753 87.0944 53.9336 88.011 45.5698C88.0498 45.2254 88.0837 44.8857 88.1104 44.5412V44.5364C88.1249 44.4015 88.137 44.2714 88.1443 44.1365C88.1516 44.0763 88.1516 44.0233 88.1516 43.9583V43.951C88.171 43.7463 88.1758 43.5415 88.1855 43.3368C88.1904 43.2621 88.1904 43.1826 88.1904 43.1055C88.1953 43.067 88.1977 43.0332 88.2025 42.9995V42.9008L88.2098 42.6864L88.2171 42.4166V42.3828C88.2219 42.1757 88.2219 41.9781 88.2219 41.7734C88.2219 41.453 88.2171 41.1422 88.2074 40.8243L88.2122 40.8219ZM75.9234 67.2501C68.3677 74.4456 58.1715 78.5721 47.2187 78.8708C40.9991 79.0442 34.954 77.9626 29.44 75.7537C29.103 75.6236 28.7684 75.4839 28.4386 75.3417C24.622 73.7012 21.0794 71.5139 17.9247 68.8184C14.1202 65.5711 11.1013 61.7795 8.9651 57.6241C8.9651 57.6241 8.96268 57.6241 8.9651 57.6217C8.78809 57.2844 8.62076 56.9424 8.4583 56.6027C6.73427 52.9628 5.67223 49.0676 5.32791 45.0278V44.9893C5.32791 44.9628 5.32063 44.9291 5.32063 44.9026C5.26728 44.2931 5.23575 43.6837 5.21635 43.0646C4.95932 33.9179 8.40739 25.1735 14.9616 18.2141C15.0489 18.1202 15.1362 18.0238 15.238 17.9299C15.6381 17.4987 16.0576 17.0747 16.4989 16.6628C24.0619 9.46009 34.2557 5.33601 45.2036 5.04212C45.6256 5.02767 46.0451 5.02285 46.4597 5.02285C56.9494 5.02285 66.8619 8.57842 74.4976 15.0946C75.0989 15.6125 75.693 16.1424 76.2531 16.6941L76.2871 16.7278C76.3283 16.7615 76.3623 16.8025 76.401 16.8338C76.4204 16.8483 76.435 16.8579 76.4568 16.8796C79.4999 19.845 81.9441 23.2006 83.7336 26.8212C85.8844 31.1789 87.0774 35.9245 87.2181 40.8459C87.2302 41.3663 87.2302 41.8818 87.2229 42.3901L87.2181 42.6575L87.2132 42.8815C87.2084 42.9562 87.2011 43.0284 87.1962 43.1055C87.2035 43.1609 87.1962 43.2067 87.1962 43.2597C87.1962 43.279 87.1962 43.3055 87.1914 43.3247C86.784 52.2522 82.8389 60.669 75.9282 67.2477L75.9234 67.2501Z" fill="#1E76E2"/>
<path d="M91.6531 40.7244C91.03 18.1142 70.1501 0.266514 45.0947 0.94583C32.978 1.27103 21.6906 5.83835 13.3177 13.8119C4.93281 21.7975 0.473612 32.2281 0.771861 43.1791C0.78641 43.6777 0.813068 44.1739 0.847015 44.663V44.6967L0.888247 45.2483C0.927044 45.7518 0.982822 46.2504 1.04829 46.7467V46.7515C1.14771 47.6067 1.28835 48.4546 1.44839 49.2929C1.8703 51.4489 2.47892 53.5374 3.2597 55.5585C3.2597 55.5585 3.26132 55.5633 3.26456 55.573C3.34457 55.7801 3.4246 55.9849 3.50946 56.1921C3.6501 56.5389 3.79314 56.8834 3.94348 57.2255H3.94591C8.42208 67.4176 17.3138 75.5598 28.4388 79.7923C28.7685 79.9175 29.1031 80.0404 29.4378 80.1584C34.5638 81.9796 40.1384 82.9793 45.9555 82.9793C46.4162 82.9793 46.8745 82.9745 47.3303 82.96C67.4585 82.4156 84.2478 70.0867 89.7497 53.5326C89.7497 53.5326 89.7545 53.5278 89.7545 53.5206C90.3874 51.6175 90.8699 49.6542 91.19 47.6476C91.2167 47.5031 91.2458 47.3585 91.2579 47.2092V47.2044C91.2821 47.0502 91.304 46.9057 91.3234 46.7539C91.4179 46.0794 91.4883 45.3953 91.544 44.7063V44.6461C91.5901 44.1209 91.624 43.5982 91.6386 43.061L91.6531 42.5841V42.5696C91.6725 41.9601 91.6725 41.341 91.6531 40.7268V40.7244ZM47.3061 81.9603C40.9919 82.1338 34.9445 81.1027 29.4402 79.0985C29.1031 78.9756 28.771 78.8504 28.4412 78.7179H28.4388C17.9127 74.6131 9.47202 66.919 5.0783 57.3098C5.07587 57.3074 5.07587 57.305 5.07587 57.305C4.91826 56.9629 4.77035 56.6208 4.62486 56.274C3.347 53.2411 2.46922 50.03 2.04973 46.6889C2.04973 46.6768 2.0473 46.6696 2.04488 46.66C1.98426 46.1661 1.93091 45.6699 1.88969 45.1688L1.85088 44.6292C1.81694 44.1402 1.79028 43.6464 1.77573 43.1502C1.4896 32.481 5.82755 22.3178 14.0112 14.5346C22.2046 6.73446 33.252 2.25869 45.1213 1.94071C45.5675 1.92625 46.0161 1.91903 46.4671 1.91903C70.3586 1.91903 90.0552 19.0971 90.6493 40.7509C90.6638 41.3531 90.6687 41.9481 90.6493 42.5383V42.56L90.6347 43.102C90.6153 43.5934 90.5959 44.0704 90.5499 44.5546C90.5426 44.5955 90.5426 44.6365 90.5426 44.675C88.901 64.963 70.3416 81.3364 47.3061 81.9603ZM90.5426 44.6774C88.901 64.9654 70.3416 81.3388 47.3061 81.9627C40.9919 82.1362 34.9445 81.1051 29.4402 79.1009C29.1031 78.9781 28.771 78.8528 28.4412 78.7203H28.4388C17.9127 74.6155 9.47202 66.9214 5.0783 57.3122C5.07587 57.3098 5.07587 57.3074 5.07587 57.3074C4.91826 56.9653 4.77035 56.6233 4.62486 56.2764C3.347 53.2435 2.46922 50.0324 2.04973 46.6913C2.04973 46.6792 2.0473 46.672 2.04488 46.6624C1.98426 46.1685 1.93091 45.6723 1.88969 45.1712L1.97698 46.4889V46.4961L2.1176 48.5245L2.13702 48.7943V48.828C2.17824 49.4061 2.2316 49.977 2.29707 50.5455C2.31889 50.7407 2.34313 50.9358 2.37707 51.1309C2.42314 51.5091 2.47891 51.8921 2.55408 52.2703C2.61227 52.6485 2.68016 53.0243 2.76018 53.3977C2.80625 53.6482 2.85961 53.9012 2.92023 54.1469C2.9663 54.3709 3.01965 54.5974 3.07542 54.8166C3.13361 55.0623 3.19424 55.3152 3.26213 55.5585C3.26213 55.5585 3.26375 55.5633 3.26698 55.573C3.347 55.7801 3.42699 55.9849 3.51186 56.1921C3.6525 56.5389 3.79557 56.8834 3.94591 57.2255H3.94834C8.42451 67.4176 17.3162 75.5598 28.4412 79.7923C28.771 79.9175 29.1056 80.0404 29.4402 80.1584C34.5662 81.9796 40.1408 82.9793 45.9579 82.9793C46.4186 82.9793 46.8769 82.9745 47.3328 82.96C67.461 82.4156 84.2502 70.0867 89.7521 53.5326C89.7521 53.5326 89.757 53.5278 89.757 53.5206C89.8103 53.2652 89.8636 53.0147 89.9121 52.7569C89.9655 52.4968 90.0116 52.2318 90.0576 51.974C90.1522 51.4489 90.2249 50.9189 90.2904 50.389C90.3171 50.2155 90.3365 50.0373 90.351 49.859C90.4044 49.4013 90.4504 48.9436 90.4771 48.4811C90.4917 48.3197 90.5038 48.1559 90.5111 47.9897C90.5305 47.7247 90.5377 47.4525 90.5523 47.1803V47.1562C90.5571 47.0309 90.5571 46.896 90.5571 46.7659V46.6985L90.5644 46.2986C90.5717 45.759 90.5644 45.2194 90.5426 44.6822V44.6774ZM90.5426 44.6774C88.901 64.9654 70.3416 81.3388 47.3061 81.9627C40.9919 82.1362 34.9445 81.1051 29.4402 79.1009C29.1031 78.9781 28.771 78.8528 28.4412 78.7203H28.4388C17.9127 74.6155 9.47202 66.9214 5.0783 57.3122C5.07587 57.3098 5.07587 57.3074 5.07587 57.3074C4.91826 56.9653 4.77035 56.6233 4.62486 56.2764C3.347 53.2435 2.46922 50.0324 2.04973 46.6913C2.04973 46.6792 2.0473 46.672 2.04488 46.6624C1.98426 46.1685 1.93091 45.6723 1.88969 45.1712L1.97698 46.4889V46.4961L2.1176 48.5245L2.13702 48.7943V48.828C2.17824 49.4061 2.2316 49.977 2.29707 50.5455C2.31889 50.7407 2.34313 50.9358 2.37707 51.1309C2.42314 51.5091 2.47891 51.8921 2.55408 52.2703C2.61227 52.6485 2.68016 53.0243 2.76018 53.3977C2.80625 53.6482 2.85961 53.9012 2.92023 54.1469C2.9663 54.3709 3.01965 54.5974 3.07542 54.8166C3.13361 55.0623 3.19424 55.3152 3.26213 55.5585C3.26213 55.5585 3.26375 55.5633 3.26698 55.573C3.347 55.7801 3.42699 55.9849 3.51186 56.1921C3.6525 56.5389 3.79557 56.8834 3.94591 57.2255H3.94834C8.42451 67.4176 17.3162 75.5598 28.4412 79.7923C28.771 79.9175 29.1056 80.0404 29.4402 80.1584C34.5662 81.9796 40.1408 82.9793 45.9579 82.9793C46.4186 82.9793 46.8769 82.9745 47.3328 82.96C67.461 82.4156 84.2502 70.0867 89.7521 53.5326C89.7521 53.5326 89.757 53.5278 89.757 53.5206C89.8103 53.2652 89.8636 53.0147 89.9121 52.7569C89.9655 52.4968 90.0116 52.2318 90.0576 51.974C90.1522 51.4489 90.2249 50.9189 90.2904 50.389C90.3171 50.2155 90.3365 50.0373 90.351 49.859C90.4044 49.4013 90.4504 48.9436 90.4771 48.4811C90.4917 48.3197 90.5038 48.1559 90.5111 47.9897C90.5305 47.7247 90.5377 47.4525 90.5523 47.1803V47.1562C90.5571 47.0309 90.5571 46.896 90.5571 46.7659V46.6985L90.5644 46.2986C90.5717 45.759 90.5644 45.2194 90.5426 44.6822V44.6774ZM90.5426 44.6774C88.901 64.9654 70.3416 81.3388 47.3061 81.9627C40.9919 82.1362 34.9445 81.1051 29.4402 79.1009C29.1031 78.9781 28.771 78.8528 28.4412 78.7203H28.4388C17.9127 74.6155 9.47202 66.9214 5.0783 57.3122C5.07587 57.3098 5.07587 57.3074 5.07587 57.3074C4.91826 56.9653 4.77035 56.6233 4.62486 56.2764C3.347 53.2435 2.46922 50.0324 2.04973 46.6913C2.04973 46.6792 2.0473 46.672 2.04488 46.6624C1.98426 46.1685 1.93091 45.6723 1.88969 45.1712L1.97698 46.4889V46.4961L2.1176 48.5245L2.13702 48.7943V48.828C2.17824 49.4061 2.2316 49.977 2.29707 50.5455C2.31889 50.7407 2.34313 50.9358 2.37707 51.1309C2.42314 51.5091 2.47891 51.8921 2.55408 52.2703C2.61227 52.6485 2.68016 53.0243 2.76018 53.3977C2.80625 53.6482 2.85961 53.9012 2.92023 54.1469C2.9663 54.3709 3.01965 54.5974 3.07542 54.8166C3.13361 55.0623 3.19424 55.3152 3.26213 55.5585C3.26213 55.5585 3.26375 55.5633 3.26698 55.573C3.347 55.7801 3.42699 55.9849 3.51186 56.1921C3.6525 56.5389 3.79557 56.8834 3.94591 57.2255H3.94834C8.42451 67.4176 17.3162 75.5598 28.4412 79.7923C28.771 79.9175 29.1056 80.0404 29.4402 80.1584C34.5662 81.9796 40.1408 82.9793 45.9579 82.9793C46.4186 82.9793 46.8769 82.9745 47.3328 82.96C67.461 82.4156 84.2502 70.0867 89.7521 53.5326C89.7521 53.5326 89.757 53.5278 89.757 53.5206C89.8103 53.2652 89.8636 53.0147 89.9121 52.7569C89.9655 52.4968 90.0116 52.2318 90.0576 51.974C90.1522 51.4489 90.2249 50.9189 90.2904 50.389C90.3171 50.2155 90.3365 50.0373 90.351 49.859C90.4044 49.4013 90.4504 48.9436 90.4771 48.4811C90.4917 48.3197 90.5038 48.1559 90.5111 47.9897C90.5305 47.7247 90.5377 47.4525 90.5523 47.1803V47.1562C90.5571 47.0309 90.5571 46.896 90.5571 46.7659V46.6985L90.5644 46.2986C90.5717 45.759 90.5644 45.2194 90.5426 44.6822V44.6774ZM90.5426 44.6774C88.901 64.9654 70.3416 81.3388 47.3061 81.9627C40.9919 82.1362 34.9445 81.1051 29.4402 79.1009C29.1031 78.9781 28.771 78.8528 28.4412 78.7203H28.4388C17.9127 74.6155 9.47202 66.9214 5.0783 57.3122C5.07587 57.3098 5.07587 57.3074 5.07587 57.3074C4.91826 56.9653 4.77035 56.6233 4.62486 56.2764C3.347 53.2435 2.46922 50.0324 2.04973 46.6913C2.04973 46.6792 2.0473 46.672 2.04488 46.6624C1.98426 46.1685 1.93091 45.6723 1.88969 45.1712L1.97698 46.4889V46.4961L2.1176 48.5245L2.13702 48.7943V48.828C2.17824 49.4061 2.2316 49.977 2.29707 50.5455C2.31889 50.7407 2.34313 50.9358 2.37707 51.1309C2.42314 51.5091 2.47891 51.8921 2.55408 52.2703C2.61227 52.6485 2.68016 53.0243 2.76018 53.3977C2.80625 53.6482 2.85961 53.9012 2.92023 54.1469C2.9663 54.3709 3.01965 54.5974 3.07542 54.8166C3.13361 55.0623 3.19424 55.3152 3.26213 55.5585C3.26213 55.5585 3.26375 55.5633 3.26698 55.573C3.347 55.7801 3.42699 55.9849 3.51186 56.1921C3.6525 56.5389 3.79557 56.8834 3.94591 57.2255H3.94834C8.42451 67.4176 17.3162 75.5598 28.4412 79.7923C28.771 79.9175 29.1056 80.0404 29.4402 80.1584C34.5662 81.9796 40.1408 82.9793 45.9579 82.9793C46.4186 82.9793 46.8769 82.9745 47.3328 82.96C67.461 82.4156 84.2502 70.0867 89.7521 53.5326C89.7521 53.5326 89.757 53.5278 89.757 53.5206C89.8103 53.2652 89.8636 53.0147 89.9121 52.7569C89.9655 52.4968 90.0116 52.2318 90.0576 51.974C90.1522 51.4489 90.2249 50.9189 90.2904 50.389C90.3171 50.2155 90.3365 50.0373 90.351 49.859C90.4044 49.4013 90.4504 48.9436 90.4771 48.4811C90.4917 48.3197 90.5038 48.1559 90.5111 47.9897C90.5305 47.7247 90.5377 47.4525 90.5523 47.1803V47.1562C90.5571 47.0309 90.5571 46.896 90.5571 46.7659V46.6985L90.5644 46.2986C90.5717 45.759 90.5644 45.2194 90.5426 44.6822V44.6774ZM90.5426 44.6774C88.901 64.9654 70.3416 81.3388 47.3061 81.9627C40.9919 82.1362 34.9445 81.1051 29.4402 79.1009C29.1031 78.9781 28.771 78.8528 28.4412 78.7203H28.4388C17.9127 74.6155 9.47202 66.9214 5.0783 57.3122C5.07587 57.3098 5.07587 57.3074 5.07587 57.3074C4.91826 56.9653 4.77035 56.6233 4.62486 56.2764C3.347 53.2435 2.46922 50.0324 2.04973 46.6913C2.04973 46.6792 2.0473 46.672 2.04488 46.6624C1.98426 46.1685 1.93091 45.6723 1.88969 45.1712L1.97698 46.4889V46.4961L2.1176 48.5245L2.13702 48.7943V48.828C2.17824 49.4061 2.2316 49.977 2.29707 50.5455C2.31889 50.7407 2.34313 50.9358 2.37707 51.1309C2.42314 51.5091 2.47891 51.8921 2.55408 52.2703C2.61227 52.6485 2.68016 53.0243 2.76018 53.3977C2.80625 53.6482 2.85961 53.9012 2.92023 54.1469C2.9663 54.3709 3.01965 54.5974 3.07542 54.8166C3.13361 55.0623 3.19424 55.3152 3.26213 55.5585C3.26213 55.5585 3.26375 55.5633 3.26698 55.573C3.347 55.7801 3.42699 55.9849 3.51186 56.1921C3.6525 56.5389 3.79557 56.8834 3.94591 57.2255H3.94834C8.42451 67.4176 17.3162 75.5598 28.4412 79.7923C28.771 79.9175 29.1056 80.0404 29.4402 80.1584C34.5662 81.9796 40.1408 82.9793 45.9579 82.9793C46.4186 82.9793 46.8769 82.9745 47.3328 82.96C67.461 82.4156 84.2502 70.0867 89.7521 53.5326C89.7521 53.5326 89.757 53.5278 89.757 53.5206C89.8103 53.2652 89.8636 53.0147 89.9121 52.7569C89.9655 52.4968 90.0116 52.2318 90.0576 51.974C90.1522 51.4489 90.2249 50.9189 90.2904 50.389C90.3171 50.2155 90.3365 50.0373 90.351 49.859C90.4044 49.4013 90.4504 48.9436 90.4771 48.4811C90.4917 48.3197 90.5038 48.1559 90.5111 47.9897C90.5305 47.7247 90.5377 47.4525 90.5523 47.1803V47.1562C90.5571 47.0309 90.5571 46.896 90.5571 46.7659V46.6985L90.5644 46.2986C90.5717 45.759 90.5644 45.2194 90.5426 44.6822V44.6774ZM90.5426 44.6774C88.901 64.9654 70.3416 81.3388 47.3061 81.9627C40.9919 82.1362 34.9445 81.1051 29.4402 79.1009C29.1031 78.9781 28.771 78.8528 28.4412 78.7203H28.4388C17.9127 74.6155 9.47202 66.9214 5.0783 57.3122C5.07587 57.3098 5.07587 57.3074 5.07587 57.3074C4.91826 56.9653 4.77035 56.6233 4.62486 56.2764C3.347 53.2435 2.46922 50.0324 2.04973 46.6913C2.04973 46.6792 2.0473 46.672 2.04488 46.6624C1.98426 46.1685 1.93091 45.6723 1.88969 45.1712L1.97698 46.4889V46.4961L2.1176 48.5245L2.13702 48.7943V48.828C2.17824 49.4061 2.2316 49.977 2.29707 50.5455C2.31889 50.7407 2.34313 50.9358 2.37707 51.1309C2.42314 51.5091 2.47891 51.8921 2.55408 52.2703C2.61227 52.6485 2.68016 53.0243 2.76018 53.3977C2.80625 53.6482 2.85961 53.9012 2.92023 54.1469C2.9663 54.3709 3.01965 54.5974 3.07542 54.8166C3.13361 55.0623 3.19424 55.3152 3.26213 55.5585C3.26213 55.5585 3.26375 55.5633 3.26698 55.573C3.347 55.7801 3.42699 55.9849 3.51186 56.1921C3.6525 56.5389 3.79557 56.8834 3.94591 57.2255H3.94834C8.42451 67.4176 17.3162 75.5598 28.4412 79.7923C28.771 79.9175 29.1056 80.0404 29.4402 80.1584C34.5662 81.9796 40.1408 82.9793 45.9579 82.9793C46.4186 82.9793 46.8769 82.9745 47.3328 82.96C67.461 82.4156 84.2502 70.0867 89.7521 53.5326C89.7521 53.5326 89.757 53.5278 89.757 53.5206C89.8103 53.2652 89.8636 53.0147 89.9121 52.7569C89.9655 52.4968 90.0116 52.2318 90.0576 51.974C90.1522 51.4489 90.2249 50.9189 90.2904 50.389C90.3171 50.2155 90.3365 50.0373 90.351 49.859C90.4044 49.4013 90.4504 48.9436 90.4771 48.4811C90.4917 48.3197 90.5038 48.1559 90.5111 47.9897C90.5305 47.7247 90.5377 47.4525 90.5523 47.1803V47.1562C90.5571 47.0309 90.5571 46.896 90.5571 46.7659V46.6985L90.5644 46.2986C90.5717 45.759 90.5644 45.2194 90.5426 44.6822V44.6774ZM90.5426 44.6774C88.901 64.9654 70.3416 81.3388 47.3061 81.9627C40.9919 82.1362 34.9445 81.1051 29.4402 79.1009C29.1031 78.9781 28.771 78.8528 28.4412 78.7203H28.4388C17.9127 74.6155 9.47202 66.9214 5.0783 57.3122C5.07587 57.3098 5.07587 57.3074 5.07587 57.3074C4.91826 56.9653 4.77035 56.6233 4.62486 56.2764C3.347 53.2435 2.46922 50.0324 2.04973 46.6913C2.04973 46.6792 2.0473 46.672 2.04488 46.6624C1.98426 46.1685 1.93091 45.6723 1.88969 45.1712L1.97698 46.4889V46.4961L2.1176 48.5245L2.13702 48.7943V48.828C2.17824 49.4061 2.2316 49.977 2.29707 50.5455C2.31889 50.7407 2.34313 50.9358 2.37707 51.1309C2.42314 51.5091 2.47891 51.8921 2.55408 52.2703C2.61227 52.6485 2.68016 53.0243 2.76018 53.3977C2.80625 53.6482 2.85961 53.9012 2.92023 54.1469C2.9663 54.3709 3.01965 54.5974 3.07542 54.8166C3.13361 55.0623 3.19424 55.3152 3.26213 55.5585C3.26213 55.5585 3.26375 55.5633 3.26698 55.573C3.347 55.7801 3.42699 55.9849 3.51186 56.1921C3.6525 56.5389 3.79557 56.8834 3.94591 57.2255H3.94834C8.42451 67.4176 17.3162 75.5598 28.4412 79.7923C28.771 79.9175 29.1056 80.0404 29.4402 80.1584C34.5662 81.9796 40.1408 82.9793 45.9579 82.9793C46.4186 82.9793 46.8769 82.9745 47.3328 82.96C67.461 82.4156 84.2502 70.0867 89.7521 53.5326C89.7521 53.5326 89.757 53.5278 89.757 53.5206C89.8103 53.2652 89.8636 53.0147 89.9121 52.7569C89.9655 52.4968 90.0116 52.2318 90.0576 51.974C90.1522 51.4489 90.2249 50.9189 90.2904 50.389C90.3171 50.2155 90.3365 50.0373 90.351 49.859C90.4044 49.4013 90.4504 48.9436 90.4771 48.4811C90.4917 48.3197 90.5038 48.1559 90.5111 47.9897C90.5305 47.7247 90.5377 47.4525 90.5523 47.1803V47.1562C90.5571 47.0309 90.5571 46.896 90.5571 46.7659V46.6985L90.5644 46.2986C90.5717 45.759 90.5644 45.2194 90.5426 44.6822V44.6774ZM90.5426 44.6774C88.901 64.9654 70.3416 81.3388 47.3061 81.9627C40.9919 82.1362 34.9445 81.1051 29.4402 79.1009C29.1031 78.9781 28.771 78.8528 28.4412 78.7203H28.4388C17.9127 74.6155 9.47202 66.9214 5.0783 57.3122C5.07587 57.3098 5.07587 57.3074 5.07587 57.3074C4.91826 56.9653 4.77035 56.6233 4.62486 56.2764C3.347 53.2435 2.46922 50.0324 2.04973 46.6913C2.04973 46.6792 2.0473 46.672 2.04488 46.6624C1.98426 46.1685 1.93091 45.6723 1.88969 45.1712L1.97698 46.4889V46.4961L2.1176 48.5245L2.13702 48.7943V48.828C2.17824 49.4061 2.2316 49.977 2.29707 50.5455C2.31889 50.7407 2.34313 50.9358 2.37707 51.1309C2.42314 51.5091 2.47891 51.8921 2.55408 52.2703C2.61227 52.6485 2.68016 53.0243 2.76018 53.3977C2.80625 53.6482 2.85961 53.9012 2.92023 54.1469C2.9663 54.3709 3.01965 54.5974 3.07542 54.8166C3.13361 55.0623 3.19424 55.3152 3.26213 55.5585C3.26213 55.5585 3.26375 55.5633 3.26698 55.573C3.347 55.7801 3.42699 55.9849 3.51186 56.1921C3.6525 56.5389 3.79557 56.8834 3.94591 57.2255H3.94834C8.42451 67.4176 17.3162 75.5598 28.4412 79.7923C28.771 79.9175 29.1056 80.0404 29.4402 80.1584C34.5662 81.9796 40.1408 82.9793 45.9579 82.9793C46.4186 82.9793 46.8769 82.9745 47.3328 82.96C67.461 82.4156 84.2502 70.0867 89.7521 53.5326C89.7521 53.5326 89.757 53.5278 89.757 53.5206C89.8103 53.2652 89.8636 53.0147 89.9121 52.7569C89.9655 52.4968 90.0116 52.2318 90.0576 51.974C90.1522 51.4489 90.2249 50.9189 90.2904 50.389C90.3171 50.2155 90.3365 50.0373 90.351 49.859C90.4044 49.4013 90.4504 48.9436 90.4771 48.4811C90.4917 48.3197 90.5038 48.1559 90.5111 47.9897C90.5305 47.7247 90.5377 47.4525 90.5523 47.1803V47.1562C90.5571 47.0309 90.5571 46.896 90.5571 46.7659V46.6985L90.5644 46.2986C90.5717 45.759 90.5644 45.2194 90.5426 44.6822V44.6774ZM90.5426 44.6774C88.901 64.9654 70.3416 81.3388 47.3061 81.9627C40.9919 82.1362 34.9445 81.1051 29.4402 79.1009C29.1031 78.9781 28.771 78.8528 28.4412 78.7203H28.4388C17.9127 74.6155 9.47202 66.9214 5.0783 57.3122C5.07587 57.3098 5.07587 57.3074 5.07587 57.3074C4.91826 56.9653 4.77035 56.6233 4.62486 56.2764C3.347 53.2435 2.46922 50.0324 2.04973 46.6913C2.04973 46.6792 2.0473 46.672 2.04488 46.6624C1.98426 46.1685 1.93091 45.6723 1.88969 45.1712L1.97698 46.4889V46.4961L2.1176 48.5245L2.13702 48.7943V48.828C2.17824 49.4061 2.2316 49.977 2.29707 50.5455C2.31889 50.7407 2.34313 50.9358 2.37707 51.1309C2.42314 51.5091 2.47891 51.8921 2.55408 52.2703C2.61227 52.6485 2.68016 53.0243 2.76018 53.3977C2.80625 53.6482 2.85961 53.9012 2.92023 54.1469C2.9663 54.3709 3.01965 54.5974 3.07542 54.8166C3.13361 55.0623 3.19424 55.3152 3.26213 55.5585C3.26213 55.5585 3.26375 55.5633 3.26698 55.573C3.347 55.7801 3.42699 55.9849 3.51186 56.1921C3.6525 56.5389 3.79557 56.8834 3.94591 57.2255H3.94834C8.42451 67.4176 17.3162 75.5598 28.4412 79.7923C28.771 79.9175 29.1056 80.0404 29.4402 80.1584C34.5662 81.9796 40.1408 82.9793 45.9579 82.9793C46.4186 82.9793 46.8769 82.9745 47.3328 82.96C67.461 82.4156 84.2502 70.0867 89.7521 53.5326C89.7521 53.5326 89.757 53.5278 89.757 53.5206C89.8103 53.2652 89.8636 53.0147 89.9121 52.7569C89.9655 52.4968 90.0116 52.2318 90.0576 51.974C90.1522 51.4489 90.2249 50.9189 90.2904 50.389C90.3171 50.2155 90.3365 50.0373 90.351 49.859C90.4044 49.4013 90.4504 48.9436 90.4771 48.4811C90.4917 48.3197 90.5038 48.1559 90.5111 47.9897C90.5305 47.7247 90.5377 47.4525 90.5523 47.1803V47.1562C90.5571 47.0309 90.5571 46.896 90.5571 46.7659V46.6985L90.5644 46.2986C90.5717 45.759 90.5644 45.2194 90.5426 44.6822V44.6774ZM90.5426 44.6774C88.901 64.9654 70.3416 81.3388 47.3061 81.9627C40.9919 82.1362 34.9445 81.1051 29.4402 79.1009C29.1031 78.9781 28.771 78.8528 28.4412 78.7203H28.4388C17.9127 74.6155 9.47202 66.9214 5.0783 57.3122C5.07587 57.3098 5.07587 57.3074 5.07587 57.3074C4.91826 56.9653 4.77035 56.6233 4.62486 56.2764C3.347 53.2435 2.46922 50.0324 2.04973 46.6913C2.04973 46.6792 2.0473 46.672 2.04488 46.6624C1.98426 46.1685 1.93091 45.6723 1.88969 45.1712L1.97698 46.4889V46.4961L2.1176 48.5245L2.13702 48.7943V48.828C2.17824 49.4061 2.2316 49.977 2.29707 50.5455C2.31889 50.7407 2.34313 50.9358 2.37707 51.1309C2.42314 51.5091 2.47891 51.8921 2.55408 52.2703C2.61227 52.6485 2.68016 53.0243 2.76018 53.3977C2.80625 53.6482 2.85961 53.9012 2.92023 54.1469C2.9663 54.3709 3.01965 54.5974 3.07542 54.8166C3.13361 55.0623 3.19424 55.3152 3.26213 55.5585C3.26213 55.5585 3.26375 55.5633 3.26698 55.573C3.347 55.7801 3.42699 55.9849 3.51186 56.1921C3.6525 56.5389 3.79557 56.8834 3.94591 57.2255H3.94834C8.42451 67.4176 17.3162 75.5598 28.4412 79.7923C28.771 79.9175 29.1056 80.0404 29.4402 80.1584C34.5662 81.9796 40.1408 82.9793 45.9579 82.9793C46.4186 82.9793 46.8769 82.9745 47.3328 82.96C67.461 82.4156 84.2502 70.0867 89.7521 53.5326C89.7521 53.5326 89.757 53.5278 89.757 53.5206C89.8103 53.2652 89.8636 53.0147 89.9121 52.7569C89.9655 52.4968 90.0116 52.2318 90.0576 51.974C90.1522 51.4489 90.2249 50.9189 90.2904 50.389C90.3171 50.2155 90.3365 50.0373 90.351 49.859C90.4044 49.4013 90.4504 48.9436 90.4771 48.4811C90.4917 48.3197 90.5038 48.1559 90.5111 47.9897C90.5305 47.7247 90.5377 47.4525 90.5523 47.1803V47.1562C90.5571 47.0309 90.5571 46.896 90.5571 46.7659V46.6985L90.5644 46.2986C90.5717 45.759 90.5644 45.2194 90.5426 44.6822V44.6774ZM90.5426 44.6774C88.901 64.9654 70.3416 81.3388 47.3061 81.9627C40.9919 82.1362 34.9445 81.1051 29.4402 79.1009C29.1031 78.9781 28.771 78.8528 28.4412 78.7203H28.4388C17.9127 74.6155 9.47202 66.9214 5.0783 57.3122C5.07587 57.3098 5.07587 57.3074 5.07587 57.3074C4.91826 56.9653 4.77035 56.6233 4.62486 56.2764C3.347 53.2435 2.46922 50.0324 2.04973 46.6913C2.04973 46.6792 2.0473 46.672 2.04488 46.6624C1.98426 46.1685 1.93091 45.6723 1.88969 45.1712L1.97698 46.4889V46.4961L2.1176 48.5245L2.13702 48.7943V48.828C2.17824 49.4061 2.2316 49.977 2.29707 50.5455C2.31889 50.7407 2.34313 50.9358 2.37707 51.1309C2.42314 51.5091 2.47891 51.8921 2.55408 52.2703C2.61227 52.6485 2.68016 53.0243 2.76018 53.3977C2.80625 53.6482 2.85961 53.9012 2.92023 54.1469C2.9663 54.3709 3.01965 54.5974 3.07542 54.8166C3.13361 55.0623 3.19424 55.3152 3.26213 55.5585C3.26213 55.5585 3.26375 55.5633 3.26698 55.573C3.347 55.7801 3.42699 55.9849 3.51186 56.1921C3.6525 56.5389 3.79557 56.8834 3.94591 57.2255H3.94834C8.42451 67.4176 17.3162 75.5598 28.4412 79.7923C28.771 79.9175 29.1056 80.0404 29.4402 80.1584C34.5662 81.9796 40.1408 82.9793 45.9579 82.9793C46.4186 82.9793 46.8769 82.9745 47.3328 82.96C67.461 82.4156 84.2502 70.0867 89.7521 53.5326C89.7521 53.5326 89.757 53.5278 89.757 53.5206C89.8103 53.2652 89.8636 53.0147 89.9121 52.7569C89.9655 52.4968 90.0116 52.2318 90.0576 51.974C90.1522 51.4489 90.2249 50.9189 90.2904 50.389C90.3171 50.2155 90.3365 50.0373 90.351 49.859C90.4044 49.4013 90.4504 48.9436 90.4771 48.4811C90.4917 48.3197 90.5038 48.1559 90.5111 47.9897C90.5305 47.7247 90.5377 47.4525 90.5523 47.1803V47.1562C90.5571 47.0309 90.5571 46.896 90.5571 46.7659V46.6985L90.5644 46.2986C90.5717 45.759 90.5644 45.2194 90.5426 44.6822V44.6774ZM90.5426 44.6774C88.901 64.9654 70.3416 81.3388 47.3061 81.9627C40.9919 82.1362 34.9445 81.1051 29.4402 79.1009C29.1031 78.9781 28.771 78.8528 28.4412 78.7203H28.4388C17.9127 74.6155 9.47202 66.9214 5.0783 57.3122C5.07587 57.3098 5.07587 57.3074 5.07587 57.3074C4.91826 56.9653 4.77035 56.6233 4.62486 56.2764C3.347 53.2435 2.46922 50.0324 2.04973 46.6913C2.04973 46.6792 2.0473 46.672 2.04488 46.6624C1.98426 46.1685 1.93091 45.6723 1.88969 45.1712L1.97698 46.4889V46.4961L2.1176 48.5245L2.13702 48.7943V48.828C2.17824 49.4061 2.2316 49.977 2.29707 50.5455C2.31889 50.7407 2.34313 50.9358 2.37707 51.1309C2.42314 51.5091 2.47891 51.8921 2.55408 52.2703C2.61227 52.6485 2.68016 53.0243 2.76018 53.3977C2.80625 53.6482 2.85961 53.9012 2.92023 54.1469C2.9663 54.3709 3.01965 54.5974 3.07542 54.8166C3.13361 55.0623 3.19424 55.3152 3.26213 55.5585C3.26213 55.5585 3.26375 55.5633 3.26698 55.573C3.347 55.7801 3.42699 55.9849 3.51186 56.1921C3.6525 56.5389 3.79557 56.8834 3.94591 57.2255H3.94834C8.42451 67.4176 17.3162 75.5598 28.4412 79.7923C28.771 79.9175 29.1056 80.0404 29.4402 80.1584C34.5662 81.9796 40.1408 82.9793 45.9579 82.9793C46.4186 82.9793 46.8769 82.9745 47.3328 82.96C67.461 82.4156 84.2502 70.0867 89.7521 53.5326C89.7521 53.5326 89.757 53.5278 89.757 53.5206C89.8103 53.2652 89.8636 53.0147 89.9121 52.7569C89.9655 52.4968 90.0116 52.2318 90.0576 51.974C90.1522 51.4489 90.2249 50.9189 90.2904 50.389C90.3171 50.2155 90.3365 50.0373 90.351 49.859C90.4044 49.4013 90.4504 48.9436 90.4771 48.4811C90.4917 48.3197 90.5038 48.1559 90.5111 47.9897C90.5305 47.7247 90.5377 47.4525 90.5523 47.1803V47.1562C90.5571 47.0309 90.5571 46.896 90.5571 46.7659V46.6985L90.5644 46.2986C90.5717 45.759 90.5644 45.2194 90.5426 44.6822V44.6774ZM90.5426 44.6774C88.901 64.9654 70.3416 81.3388 47.3061 81.9627C40.9919 82.1362 34.9445 81.1051 29.4402 79.1009C29.1031 78.9781 28.771 78.8528 28.4412 78.7203H28.4388C17.9127 74.6155 9.47202 66.9214 5.0783 57.3122C5.07587 57.3098 5.07587 57.3074 5.07587 57.3074C4.91826 56.9653 4.77035 56.6233 4.62486 56.2764C3.347 53.2435 2.46922 50.0324 2.04973 46.6913C2.04973 46.6792 2.0473 46.672 2.04488 46.6624C1.98426 46.1685 1.93091 45.6723 1.88969 45.1712L1.97698 46.4889V46.4961L2.1176 48.5245L2.13702 48.7943V48.828C2.17824 49.4061 2.2316 49.977 2.29707 50.5455C2.31889 50.7407 2.34313 50.9358 2.37707 51.1309C2.42314 51.5091 2.47891 51.8921 2.55408 52.2703C2.61227 52.6485 2.68016 53.0243 2.76018 53.3977C2.80625 53.6482 2.85961 53.9012 2.92023 54.1469C2.9663 54.3709 3.01965 54.5974 3.07542 54.8166C3.13361 55.0623 3.19424 55.3152 3.26213 55.5585C3.26213 55.5585 3.26375 55.5633 3.26698 55.573C3.347 55.7801 3.42699 55.9849 3.51186 56.1921C3.6525 56.5389 3.79557 56.8834 3.94591 57.2255H3.94834C8.42451 67.4176 17.3162 75.5598 28.4412 79.7923C28.771 79.9175 29.1056 80.0404 29.4402 80.1584C34.5662 81.9796 40.1408 82.9793 45.9579 82.9793C46.4186 82.9793 46.8769 82.9745 47.3328 82.96C67.461 82.4156 84.2502 70.0867 89.7521 53.5326C89.7521 53.5326 89.757 53.5278 89.757 53.5206C89.8103 53.2652 89.8636 53.0147 89.9121 52.7569C89.9655 52.4968 90.0116 52.2318 90.0576 51.974C90.1522 51.4489 90.2249 50.9189 90.2904 50.389C90.3171 50.2155 90.3365 50.0373 90.351 49.859C90.4044 49.4013 90.4504 48.9436 90.4771 48.4811C90.4917 48.3197 90.5038 48.1559 90.5111 47.9897C90.5305 47.7247 90.5377 47.4525 90.5523 47.1803V47.1562C90.5571 47.0309 90.5571 46.896 90.5571 46.7659V46.6985L90.5644 46.2986C90.5717 45.759 90.5644 45.2194 90.5426 44.6822V44.6774ZM90.5426 44.6774C88.901 64.9654 70.3416 81.3388 47.3061 81.9627C40.9919 82.1362 34.9445 81.1051 29.4402 79.1009C29.1031 78.9781 28.771 78.8528 28.4412 78.7203H28.4388C17.9127 74.6155 9.47202 66.9214 5.0783 57.3122C5.07587 57.3098 5.07587 57.3074 5.07587 57.3074C4.91826 56.9653 4.77035 56.6233 4.62486 56.2764C3.347 53.2435 2.46922 50.0324 2.04973 46.6913C2.04973 46.6792 2.0473 46.672 2.04488 46.6624C1.98426 46.1685 1.93091 45.6723 1.88969 45.1712L1.97698 46.4889V46.4961L2.1176 48.5245L2.13702 48.7943V48.828C2.17824 49.4061 2.2316 49.977 2.29707 50.5455C2.31889 50.7407 2.34313 50.9358 2.37707 51.1309C2.42314 51.5091 2.47891 51.8921 2.55408 52.2703C2.61227 52.6485 2.68016 53.0243 2.76018 53.3977C2.80625 53.6482 2.85961 53.9012 2.92023 54.1469C2.9663 54.3709 3.01965 54.5974 3.07542 54.8166C3.13361 55.0623 3.19424 55.3152 3.26213 55.5585C3.26213 55.5585 3.26375 55.5633 3.26698 55.573C3.347 55.7801 3.42699 55.9849 3.51186 56.1921C3.6525 56.5389 3.79557 56.8834 3.94591 57.2255H3.94834C8.42451 67.4176 17.3162 75.5598 28.4412 79.7923C28.771 79.9175 29.1056 80.0404 29.4402 80.1584C34.5662 81.9796 40.1408 82.9793 45.9579 82.9793C46.4186 82.9793 46.8769 82.9745 47.3328 82.96C67.461 82.4156 84.2502 70.0867 89.7521 53.5326C89.7521 53.5326 89.757 53.5278 89.757 53.5206C89.8103 53.2652 89.8636 53.0147 89.9121 52.7569C89.9655 52.4968 90.0116 52.2318 90.0576 51.974C90.1522 51.4489 90.2249 50.9189 90.2904 50.389C90.3171 50.2155 90.3365 50.0373 90.351 49.859C90.4044 49.4013 90.4504 48.9436 90.4771 48.4811C90.4917 48.3197 90.5038 48.1559 90.5111 47.9897C90.5305 47.7247 90.5377 47.4525 90.5523 47.1803V47.1562C90.5571 47.0309 90.5571 46.896 90.5571 46.7659V46.6985L90.5644 46.2986C90.5717 45.759 90.5644 45.2194 90.5426 44.6822V44.6774ZM90.5426 44.6774C88.901 64.9654 70.3416 81.3388 47.3061 81.9627C40.9919 82.1362 34.9445 81.1051 29.4402 79.1009C29.1031 78.9781 28.771 78.8528 28.4412 78.7203H28.4388C17.9127 74.6155 9.47202 66.9214 5.0783 57.3122C5.07587 57.3098 5.07587 57.3074 5.07587 57.3074C4.91826 56.9653 4.77035 56.6233 4.62486 56.2764C3.347 53.2435 2.46922 50.0324 2.04973 46.6913C2.04973 46.6792 2.0473 46.672 2.04488 46.6624C1.98426 46.1685 1.93091 45.6723 1.88969 45.1712L1.97698 46.4889V46.4961L2.1176 48.5245L2.13702 48.7943V48.828C2.17824 49.4061 2.2316 49.977 2.29707 50.5455C2.31889 50.7407 2.34313 50.9358 2.37707 51.1309C2.42314 51.5091 2.47891 51.8921 2.55408 52.2703C2.61227 52.6485 2.68016 53.0243 2.76018 53.3977C2.80625 53.6482 2.85961 53.9012 2.92023 54.1469C2.9663 54.3709 3.01965 54.5974 3.07542 54.8166C3.13361 55.0623 3.19424 55.3152 3.26213 55.5585C3.26213 55.5585 3.26375 55.5633 3.26698 55.573C3.347 55.7801 3.42699 55.9849 3.51186 56.1921C3.6525 56.5389 3.79557 56.8834 3.94591 57.2255H3.94834C8.42451 67.4176 17.3162 75.5598 28.4412 79.7923C28.771 79.9175 29.1056 80.0404 29.4402 80.1584C34.5662 81.9796 40.1408 82.9793 45.9579 82.9793C46.4186 82.9793 46.8769 82.9745 47.3328 82.96C67.461 82.4156 84.2502 70.0867 89.7521 53.5326C89.7521 53.5326 89.757 53.5278 89.757 53.5206C89.8103 53.2652 89.8636 53.0147 89.9121 52.7569C89.9655 52.4968 90.0116 52.2318 90.0576 51.974C90.1522 51.4489 90.2249 50.9189 90.2904 50.389C90.3171 50.2155 90.3365 50.0373 90.351 49.859C90.4044 49.4013 90.4504 48.9436 90.4771 48.4811C90.4917 48.3197 90.5038 48.1559 90.5111 47.9897C90.5305 47.7247 90.5377 47.4525 90.5523 47.1803V47.1562C90.5571 47.0309 90.5571 46.896 90.5571 46.7659V46.6985L90.5644 46.2986C90.5717 45.759 90.5644 45.2194 90.5426 44.6822V44.6774Z" fill="#1E76E2"/>
<path d="M90.6527 40.7518C90.0586 19.098 70.3644 1.91998 46.4705 1.91998C46.0195 1.91998 45.5709 1.92721 45.1248 1.94166C33.2554 2.25964 22.2056 6.73542 14.0146 14.5355C5.83096 22.3187 1.49059 32.482 1.77914 43.1511C1.79369 43.6497 1.82035 44.1412 1.85429 44.6302L1.8931 45.1698C1.93432 45.6708 1.98767 46.1647 2.04829 46.6609C2.05071 46.673 2.05314 46.6802 2.05314 46.6898C2.47263 50.031 3.35041 53.2421 4.62827 56.2749C4.77376 56.6218 4.92167 56.9639 5.07928 57.3059C5.07928 57.3059 5.07928 57.3083 5.08171 57.3107C9.47543 66.9223 17.9161 74.614 28.4422 78.7188H28.4446C28.7744 78.8489 29.109 78.9766 29.4436 79.097C34.9503 81.1013 40.9953 82.1323 47.3095 81.9613C70.345 81.3373 88.9068 64.9639 90.546 44.676C90.546 44.6374 90.546 44.5965 90.5533 44.5555C90.5993 44.0713 90.6187 43.5968 90.6381 43.1029L90.6527 42.5609V42.5392C90.6721 41.949 90.6672 41.3516 90.6527 40.7518ZM88.2182 42.3297V42.3634L88.2109 42.6332L88.206 42.8476V42.9463L88.1915 43.7365C88.1915 43.7702 88.1867 43.7967 88.1769 43.8304V43.8352C88.1769 43.9701 88.1769 44.1099 88.1721 44.2399V44.2664C88.1721 44.2857 88.1721 44.305 88.1697 44.3242C88.1672 44.4688 88.1624 44.6109 88.1527 44.753C88.1454 44.9144 88.1357 45.0758 88.126 45.2348C88.1188 45.3408 88.08 45.4396 88.0121 45.5191C87.0955 53.8829 83.1455 61.7022 76.6155 67.9148C68.8708 75.2837 58.4441 79.509 47.2416 79.8149C46.8148 79.8197 46.3881 79.827 45.9613 79.827C40.1951 79.827 34.5963 78.7767 29.4387 76.77C29.1017 76.6424 28.7695 76.5075 28.4397 76.3677H28.4373C24.3806 74.6719 20.6101 72.3737 17.2687 69.5216C13.2072 66.06 10.021 61.9792 7.8096 57.5035C7.63986 57.159 7.4774 56.8169 7.31979 56.47C6.03222 53.6444 5.12778 50.6694 4.63313 47.6028C4.56523 47.5281 4.51673 47.4366 4.50703 47.3234C4.44641 46.8054 4.40033 46.2947 4.37123 45.7792C4.36638 45.7527 4.3567 45.719 4.3567 45.6853L4.33728 45.3649L4.32275 45.1144V45.0951L4.30818 44.9289L4.26941 44.3194V44.2857C4.23546 43.8666 4.22334 43.457 4.20879 43.0379C3.92751 32.9108 8.04722 23.2679 15.7993 15.8869C23.5441 8.51802 33.9683 4.29277 45.1732 3.99647C56.3661 3.68572 67.0158 7.34729 75.1461 14.2898C83.2886 21.2395 87.9296 30.644 88.2085 40.7711C88.2158 41.0891 88.223 41.3998 88.223 41.7202C88.223 41.925 88.223 42.1225 88.2182 42.3297Z" fill="#EDF8FF"/>
<path d="M76.2441 16.6414C73.4798 14.1072 70.2815 11.9007 66.7171 10.1157C53.0121 3.25745 36.3489 3.86932 23.2235 11.7007C20.2386 13.4785 17.5616 15.5598 15.2266 17.8748C15.6267 17.4436 16.0486 17.0196 16.4874 16.6077C24.0504 9.40503 34.2442 5.28095 45.1922 4.98947C45.6116 4.97501 46.0336 4.9702 46.4482 4.9702C56.9354 4.9702 66.8504 8.52577 74.4861 15.0443C75.0875 15.5622 75.6815 16.0922 76.2416 16.6414H76.2441Z" fill="#1E76E2"/>
<path d="M87.1896 43.056C87.1896 29.7082 79.2678 17.5046 66.2685 11.0029C52.8788 4.29885 36.5842 4.89626 23.7449 12.5566C11.6767 19.7665 4.77574 31.9701 5.3189 44.8482C5.3189 44.8747 5.32618 44.9085 5.32618 44.935V44.9735C5.6705 49.0133 6.73254 52.9085 8.45657 56.5484C8.61903 56.8905 8.78636 57.2325 8.96337 57.5674C8.96094 57.5698 8.96337 57.5698 8.96337 57.5698C11.0996 61.7252 14.1185 65.5168 17.923 68.764C21.0776 71.4572 24.6202 73.6469 28.4369 75.2874C28.7666 75.4295 29.1037 75.5692 29.4383 75.6993C34.9523 77.9083 40.9973 78.9899 47.2169 78.8165C58.1697 78.5178 68.366 74.3913 75.9216 67.1958C82.8323 60.6195 86.7774 52.2003 87.1848 43.2728C87.1896 43.2535 87.1896 43.227 87.1896 43.2078C87.1896 43.1548 87.1969 43.109 87.1896 43.0536V43.056Z" fill="#EDF8FF"/>
<path d="M89.7586 53.5818C85.7528 72.0245 67.4893 86.0782 46.0856 86.0782H45.8577C25.3172 85.9794 7.91934 72.9543 3.27344 55.6245C9.42757 71.6342 26.3041 83.0284 45.9644 83.0284C46.4251 83.0284 46.8858 83.0212 47.3392 83.0092C67.4674 82.4648 84.2567 70.1359 89.7561 53.5818H89.7586Z" fill="#1E76E2"/>
</svg>
