<svg width="94" height="53" viewBox="0 0 94 53" fill="none" xmlns="http://www.w3.org/2000/svg">
<path d="M87.0904 11.082V11.0889C87.0904 11.2539 87.0078 11.4051 86.8564 11.4922C86.7372 11.561 86.5973 11.5747 86.478 11.5426C86.3702 11.5037 86.2761 11.4349 86.2119 11.3272C86.1936 11.2951 86.1729 11.2699 86.1546 11.2379C81.9298 4.37903 62.6956 3.6159 42.2504 9.52828C21.8166 15.4338 5.89669 26.335 5.89211 34.4176V34.5436C5.89211 34.688 5.82789 34.8209 5.72238 34.8966C5.63981 34.9722 5.5389 35.0157 5.42651 35.0157H5.41962C5.28659 35.0157 5.1742 34.9653 5.08475 34.8759C5.08475 34.8759 5.07329 34.8691 5.07329 34.8622C5.03429 34.8118 5.00448 34.7545 4.97925 34.6972C4.97237 34.6789 4.96548 34.6582 4.95401 34.633V34.6193C4.94713 34.594 4.94714 34.5688 4.94714 34.5436V34.5299C4.93338 33.9547 4.9976 33.368 5.13063 32.7768V32.7699C5.13751 32.7333 5.14897 32.7012 5.15585 32.6691C7.08248 24.3482 22.2295 14.3224 41.9889 8.61163C61.7483 2.90091 79.8563 3.318 85.8633 9.34268L85.939 9.41829C86.3679 9.86057 86.7349 10.3327 87.0307 10.8322C87.0743 10.9079 87.095 10.9903 87.095 11.0728L87.0904 11.082Z" fill="#1E76E2"/>
<path d="M5.21712 32.95L5.55199 34.0981C5.62768 34.1165 5.69189 34.1554 5.74694 34.2058C5.52675 33.8094 5.34326 33.3923 5.21712 32.95ZM5.21712 32.95L5.55199 34.0981C5.62768 34.1165 5.69189 34.1554 5.74694 34.2058C5.52675 33.8094 5.34326 33.3923 5.21712 32.95ZM5.21712 32.95L5.55199 34.0981C5.62768 34.1165 5.69189 34.1554 5.74694 34.2058C5.52675 33.8094 5.34326 33.3923 5.21712 32.95ZM5.21712 32.95L5.55199 34.0981C5.62768 34.1165 5.69189 34.1554 5.74694 34.2058C5.52675 33.8094 5.34326 33.3923 5.21712 32.95ZM5.21712 32.95L5.55199 34.0981C5.62768 34.1165 5.69189 34.1554 5.74694 34.2058C5.52675 33.8094 5.34326 33.3923 5.21712 32.95ZM5.21712 32.95L5.55199 34.0981C5.62768 34.1165 5.69189 34.1554 5.74694 34.2058C5.52675 33.8094 5.34326 33.3923 5.21712 32.95ZM5.21712 32.95L5.55199 34.0981C5.62768 34.1165 5.69189 34.1554 5.74694 34.2058C5.52675 33.8094 5.34326 33.3923 5.21712 32.95ZM5.21712 32.95L5.55199 34.0981C5.62768 34.1165 5.69189 34.1554 5.74694 34.2058C5.52675 33.8094 5.34326 33.3923 5.21712 32.95ZM5.21712 32.95L5.55199 34.0981C5.62768 34.1165 5.69189 34.1554 5.74694 34.2058C5.52675 33.8094 5.34326 33.3923 5.21712 32.95ZM86.8535 9.37382C86.8535 9.37382 86.8535 9.36693 86.8466 9.36006C86.8466 9.34172 86.8397 9.3211 86.8351 9.30277C85.6035 5.05639 80.1034 2.36374 71.3464 1.71292C62.7454 1.08272 51.9861 2.47603 41.0433 5.64305C18.2976 12.2361 1.82257 24.5948 4.31114 33.2021V33.2158C4.46252 33.7269 4.67124 34.2058 4.94877 34.6665C4.94877 34.6802 4.96023 34.6916 4.97399 34.7054C4.99922 34.7627 5.03133 34.82 5.06803 34.8704C5.06803 34.8773 5.0795 34.8841 5.0795 34.8841C5.15519 35.0102 5.23776 35.1293 5.3318 35.2508C5.55886 35.5716 5.82492 35.881 6.1208 36.172C9.26533 39.2955 15.7769 40.9157 24.1302 40.9157C31.6624 40.9157 40.6923 39.598 50.103 36.871C70.7134 30.8967 86.1723 20.1903 87.0507 11.8304C87.076 11.5852 87.0897 11.3377 87.0897 11.0925V11.0857C87.0897 10.499 87.014 9.93069 86.8558 9.37611L86.8535 9.37382ZM49.8369 35.9612C29.0179 41.9928 10.1552 41.1976 5.88684 34.4281V34.4212C5.87308 34.4075 5.86161 34.3892 5.85473 34.3708C5.82262 34.3273 5.79052 34.2769 5.76529 34.2265L5.74694 34.2081C5.52675 33.8117 5.34326 33.3946 5.21712 32.9523C5.19189 32.863 5.16666 32.7759 5.14831 32.6819C3.22856 24.5879 19.2999 12.935 41.3047 6.562C50.4356 3.91288 59.4334 2.5104 67.1124 2.5104C68.5528 2.5104 69.9358 2.56082 71.273 2.66165C79.4451 3.26206 84.6103 5.63846 85.8535 9.35547C85.8787 9.42422 85.9039 9.49986 85.9223 9.5709C86.0805 10.114 86.1562 10.6686 86.1493 11.2438C86.0851 19.2301 70.6033 29.9434 49.8347 35.9635L49.8369 35.9612ZM5.21712 32.95L5.55199 34.0981C5.62768 34.1165 5.69189 34.1554 5.74694 34.2058C5.52675 33.8094 5.34326 33.3923 5.21712 32.95ZM5.21712 32.95L5.55199 34.0981C5.62768 34.1165 5.69189 34.1554 5.74694 34.2058C5.52675 33.8094 5.34326 33.3923 5.21712 32.95ZM5.21712 32.95L5.55199 34.0981C5.62768 34.1165 5.69189 34.1554 5.74694 34.2058C5.52675 33.8094 5.34326 33.3923 5.21712 32.95ZM5.21712 32.95L5.55199 34.0981C5.62768 34.1165 5.69189 34.1554 5.74694 34.2058C5.52675 33.8094 5.34326 33.3923 5.21712 32.95ZM5.21712 32.95L5.55199 34.0981C5.62768 34.1165 5.69189 34.1554 5.74694 34.2058C5.52675 33.8094 5.34326 33.3923 5.21712 32.95ZM5.21712 32.95L5.55199 34.0981C5.62768 34.1165 5.69189 34.1554 5.74694 34.2058C5.52675 33.8094 5.34326 33.3923 5.21712 32.95ZM5.21712 32.95L5.55199 34.0981C5.62768 34.1165 5.69189 34.1554 5.74694 34.2058C5.52675 33.8094 5.34326 33.3923 5.21712 32.95ZM5.21712 32.95L5.55199 34.0981C5.62768 34.1165 5.69189 34.1554 5.74694 34.2058C5.52675 33.8094 5.34326 33.3923 5.21712 32.95Z" fill="#1E76E2"/>
<path d="M90.2565 8.50366L90.2428 8.46013C90.2359 8.43492 90.229 8.40284 90.2244 8.37764C87.5226 -0.921768 65.2998 -2.68174 40.6871 4.4475C16.0721 11.5767 -1.75383 24.9392 0.936575 34.2386V34.2523C1.27832 35.4142 1.92053 36.4615 2.8311 37.3827C6.20958 40.7903 13.2693 42.5617 22.3566 42.5617C30.5081 42.5617 40.2903 41.1364 50.4762 38.1825C62.3227 34.7496 72.9742 29.8043 80.4697 24.2448C86.0959 20.0741 89.4606 15.9102 90.2955 12.1703C90.5799 10.8961 90.5731 9.66551 90.2565 8.50366ZM79.8986 23.4886C72.4925 28.977 61.9465 33.8742 50.2078 37.275C26.0997 44.2598 4.40222 42.7818 1.84485 33.9888C-0.705643 25.1867 16.8359 12.3421 40.944 5.35726C51.1918 2.38503 61.0062 0.948186 69.0934 0.948186C74.5683 0.948186 79.2541 1.60359 82.7587 2.89836C86.2565 4.19083 88.5799 6.11579 89.3139 8.64574C89.3207 8.67095 89.3276 8.68929 89.3322 8.7145C90.4813 12.8784 87.1418 18.1285 79.8986 23.4909V23.4886Z" fill="#1E76E2"/>
<path d="M89.3318 8.71205C89.3249 8.68684 89.318 8.6685 89.3134 8.64329C88.5818 6.11334 86.2561 4.18839 82.7583 2.89591C79.2537 1.60344 74.5678 0.94574 69.093 0.94574C61.0034 0.94574 51.1914 2.38488 40.9436 5.35482C16.8355 12.3397 -0.708343 25.1842 1.84444 33.9864C4.40181 42.7816 26.0993 44.2574 50.2074 37.2725C61.9461 33.8718 72.4921 28.9769 79.8982 23.4861C87.1414 18.1237 90.4809 12.8736 89.3318 8.70976V8.71205ZM87.0841 11.0908C87.0841 11.336 87.0703 11.5834 87.0451 11.8287C86.1666 20.1885 70.71 30.895 50.0973 36.8692C40.689 39.594 31.659 40.9139 24.1245 40.9139C15.7712 40.9139 9.25967 39.2915 6.11514 36.1703C5.81926 35.8792 5.5532 35.5699 5.32614 35.2491C5.2321 35.1299 5.14953 35.0084 5.07384 34.8824C5.07384 34.8824 5.06237 34.8755 5.06237 34.8686C5.02337 34.8182 4.99356 34.7609 4.96833 34.7036C4.95457 34.6899 4.94311 34.6784 4.94311 34.6647C4.66558 34.2041 4.45686 33.7251 4.30548 33.2141V33.2003C1.81691 24.5953 18.2919 12.2343 41.0376 5.64127C51.9804 2.47425 62.7397 1.07865 71.3407 1.71113C80.1 2.36195 85.6001 5.05461 86.8295 9.30099C86.8363 9.31932 86.8409 9.33994 86.8409 9.35828C86.8409 9.35828 86.8432 9.36287 86.8478 9.37204C87.0061 9.92661 87.0818 10.4949 87.0818 11.0816V11.0885L87.0841 11.0908Z" fill="#C9EBFF"/>
<path d="M85.8552 9.35551C79.8505 3.33084 61.7402 2.91377 41.9807 8.6245C22.2213 14.3352 7.07434 24.3588 5.14771 32.6819C3.22796 24.5879 19.2993 12.935 41.3041 6.56204C50.435 3.91292 59.4328 2.51044 67.1118 2.51044C68.5522 2.51044 69.9352 2.56086 71.2724 2.66169C79.4445 3.2621 84.6097 5.6385 85.8529 9.35551H85.8552Z" fill="#1E76E2"/>
<path d="M42.2489 9.53289C21.8151 15.4384 5.89521 26.3396 5.89062 34.4222V34.4291C10.159 41.1985 29.0217 41.9937 49.8407 35.9622C70.6093 29.9444 86.0935 19.231 86.1554 11.2425C81.9306 4.38363 62.6964 3.6205 42.2512 9.53289H42.2489Z" fill="#C9EBFF"/>
<path d="M83.0239 33.7766C75.5353 39.3475 64.9021 44.2997 53.0809 47.7142C43.2183 50.565 33.5003 52.0729 25.1631 52.0729C23.5025 52.0729 21.8993 52.0087 20.358 51.8896C10.9817 51.1585 5.0573 48.2298 3.67426 43.6489C3.66738 43.6237 3.65591 43.5985 3.64903 43.5733C3.57334 43.3212 3.71785 43.0553 3.97014 42.9866C4.21556 42.911 4.48162 43.0553 4.5573 43.3074C7.13991 52.1852 28.787 53.7481 52.8125 46.8021C76.8449 39.8562 94.3887 26.9544 91.9185 18.0446C91.8428 17.7925 91.9942 17.5335 92.2465 17.4648C92.4988 17.396 92.758 17.5404 92.8268 17.7925C94.1158 22.4353 90.6295 28.1071 83.0193 33.7743L83.0239 33.7766Z" fill="#1E76E2"/>
<path d="M92.5049 18.3817C92.4613 18.3886 92.4155 18.3955 92.3788 18.3955C92.17 18.3955 91.982 18.2557 91.9246 18.0494L90.2962 12.1691L89.3374 8.71109C89.2686 8.45901 89.4131 8.20005 89.6654 8.1313C89.9108 8.06255 90.1769 8.20694 90.2457 8.45901L90.2595 8.50254L92.8352 17.7951C92.904 18.0472 92.7595 18.3061 92.5072 18.3817H92.5049Z" fill="#1E76E2"/>
<path d="M52.8205 46.8055C28.7927 53.7514 7.14793 52.1862 4.56533 43.3108L4.51486 43.1274C4.48275 43.0083 4.45752 42.8822 4.43229 42.7608L4.40018 42.5706C4.38642 42.4766 4.34285 42.3941 4.28092 42.33L2.83594 37.3778C6.21442 40.7854 13.2741 42.5568 22.3614 42.5568C30.5129 42.5568 40.2951 41.1314 50.481 38.1775C62.3275 34.7447 72.979 29.7994 80.4745 24.2399C86.1008 20.0692 89.4655 15.9053 90.3004 12.1653L91.9288 18.0457C94.3967 26.9532 76.8552 39.8573 52.8228 46.8032L52.8205 46.8055Z" fill="#1E76E2"/>
<path d="M4.24207 43.8978C4.19849 43.9092 4.15261 43.9161 4.10903 43.9161C4.05857 43.9161 4.00812 43.9092 3.95766 43.8909C3.86362 43.8588 3.78106 43.7969 3.71684 43.7144C3.70307 43.6961 3.6916 43.6709 3.67783 43.6503C3.67095 43.6251 3.65949 43.5999 3.65261 43.5747L0.936985 34.25V34.2363C0.872764 33.9911 1.01955 33.7321 1.25808 33.6611C1.51038 33.5855 1.77644 33.7299 1.84524 33.9819L2.83149 37.3758L4.27648 42.328L4.51041 43.1232L4.56088 43.3065C4.62969 43.5586 4.49207 43.8176 4.23977 43.8932L4.24207 43.8978Z" fill="#1E76E2"/>
</svg>
