<svg width="128" height="98" viewBox="0 0 128 98" fill="none" xmlns="http://www.w3.org/2000/svg">
<path d="M121.645 58.1535V58.1597C121.547 58.8594 121.422 59.5592 121.265 60.2526C120.928 61.7999 120.45 63.3201 119.848 64.8111V64.8236C119.848 64.8236 119.842 64.8341 119.842 64.8403C119.842 64.8403 119.84 64.8445 119.835 64.8528C118.608 67.8578 116.863 70.7295 114.614 73.3951C114.529 73.4929 114.408 73.5492 114.281 73.5492C114.183 73.5492 114.085 73.5138 114.006 73.445C113.822 73.2909 113.799 73.0202 113.954 72.837C117.701 68.393 120.031 63.3492 120.782 58.1139C120.851 57.6433 120.903 57.1685 120.942 56.6916L120.965 56.4001V56.3876C121.001 56.0439 121.017 55.6941 121.028 55.3442C121.034 55.1089 121.234 54.9152 121.47 54.9319C121.482 54.9319 121.492 54.9319 121.503 54.9382C121.543 55.3109 121.572 55.6837 121.595 56.0564C121.64 56.7562 121.653 57.4496 121.64 58.1556L121.645 58.1535Z" fill="#1E76E2"/>
<path d="M114.617 73.3933C104.977 84.8198 87.2232 91.2921 68.1875 91.2921C61.0385 91.2921 53.7102 90.38 46.5591 88.4704C33.8263 85.076 22.74 78.7931 15.3305 70.784C10.224 65.2634 7.01631 59.0826 5.91373 52.8102V52.804C5.63236 51.215 5.48854 49.622 5.48438 48.0289V48.0226C5.48438 47.3396 5.5073 46.6628 5.55316 45.9818C5.55316 45.9756 5.55941 45.9652 5.55941 45.9589V45.9464C5.59901 45.3675 5.66362 44.7823 5.74282 44.2034C5.74908 44.1576 5.76575 44.1117 5.78242 44.0722C5.79493 44.043 5.81786 44.016 5.83453 43.991L5.85121 43.9743C5.88039 43.9389 5.90748 43.916 5.94917 43.8931C5.9846 43.8702 6.0242 43.8535 6.0638 43.841C6.11591 43.8285 6.17218 43.8286 6.23054 43.8348C6.46607 43.8702 6.62655 44.0868 6.59737 44.3221C6.52234 44.8677 6.46607 45.4175 6.42438 45.961C6.41813 45.9672 6.41813 45.9735 6.41813 45.9776V45.9901C5.10504 63.6307 21.75 80.9631 46.7759 87.6374C72.65 94.5408 100.898 88.3204 113.954 72.8331C114.108 72.6561 114.379 72.627 114.563 72.7811C114.74 72.9352 114.769 73.2059 114.615 73.3891L114.617 73.3933Z" fill="#1E76E2"/>
<path d="M121.605 56.0539C121.582 55.6811 121.553 55.3084 121.513 54.9356C120.642 46.2725 115.746 37.851 107.334 30.7519C97.1316 22.1409 82.9815 16.5058 67.4871 14.8877C37.7466 11.7869 11.5515 24.5253 6.06987 43.8402C5.86978 44.5337 5.70304 45.2334 5.56548 45.9435V45.956C5.56548 45.956 5.55923 45.9727 5.55923 45.9789C5.44459 46.5287 5.35288 47.0847 5.27159 47.6532V47.6699C5.23199 47.9448 5.19656 48.2259 5.16738 48.507C4.05438 59.1255 9.09206 69.744 19.3404 78.3946C29.5429 87.0056 43.693 92.6428 59.1875 94.2588C62.1888 94.5691 65.1548 94.7232 68.0644 94.7232C82.1687 94.7232 95.0119 91.1622 104.583 85.1209C114.16 79.0776 120.467 70.5583 121.505 60.6395C121.534 60.3812 121.557 60.1293 121.574 59.871L121.591 59.6357C121.626 59.1422 121.643 58.6486 121.649 58.1572V58.1509C121.661 57.445 121.649 56.7515 121.603 56.0518L121.605 56.0539ZM119.854 64.8211C119.854 64.8211 119.848 64.8315 119.848 64.8377C119.848 64.8377 119.846 64.8419 119.842 64.8502C114.625 83.8965 88.7174 96.4808 59.2813 93.4029C43.9536 91.8098 29.9702 86.2413 19.899 77.7407C11.2284 70.4312 6.38043 61.7161 5.9198 52.8115V52.8052C5.83852 51.4058 5.87395 50.0022 6.02402 48.5966C6.0532 48.3092 6.08654 48.028 6.12823 47.7427C6.12823 47.7303 6.13448 47.7261 6.13448 47.7136L6.17408 47.4387C6.24287 46.9452 6.32415 46.4766 6.42628 45.9935V45.981C6.42628 45.981 6.42628 45.9685 6.43253 45.9643C10.1509 27.9614 32.1003 15.2854 58.5935 15.2854C61.4802 15.2854 64.4169 15.4354 67.3954 15.7498C82.7168 17.3429 96.7064 22.9114 106.778 31.4141C116.011 39.2109 120.921 48.6091 120.79 58.1134C120.79 58.5716 120.774 59.0256 120.738 59.4899L120.715 59.8107V59.8565C120.698 60.0855 120.676 60.3209 120.653 60.5562C120.498 62.0014 120.227 63.4279 119.854 64.8107V64.8231V64.8211Z" fill="#1E76E2"/>
<path d="M126.035 52.9352V52.929C122.632 32.4667 98.5544 14.6991 67.8323 11.4942C37.1956 8.29966 10.0355 20.632 2.37578 39.8449L2.36953 39.8615C1.49831 42.0523 0.877193 44.3326 0.539542 46.6899L0.522867 46.7982C0.516614 46.8211 0.516614 46.8378 0.516614 46.8607C0.464508 47.1939 0.424906 47.5312 0.389474 47.8644C-0.808981 59.3534 4.63513 70.8382 15.7214 80.201C26.768 89.5242 42.0832 95.6175 58.8553 97.3667C62.1026 97.7041 65.3103 97.8707 68.4617 97.8707C98.9838 97.8707 124.049 82.4542 126.292 61.0006C126.321 60.7257 126.344 60.4446 126.361 60.1697C126.367 60.1468 126.371 60.1177 126.371 60.0885C126.548 57.6812 126.429 55.2905 126.033 52.9332L126.035 52.9352ZM58.9429 96.515C42.3417 94.7845 27.1932 88.7578 16.2799 79.545C5.41673 70.3717 0.0747493 59.1514 1.24611 47.954C1.27946 47.6104 1.3274 47.2668 1.37325 46.9211C4.25996 26.4421 28.6188 11.8503 58.205 11.8503C61.3314 11.8503 64.5162 12.0106 67.7427 12.3501C101.983 15.9215 127.868 37.7083 125.441 60.9111C123.013 84.1139 93.1874 100.086 58.947 96.515H58.9429Z" fill="#1E76E2"/>
<path d="M67.7412 12.3508C64.5168 12.0135 61.332 11.851 58.2035 11.851C28.6173 11.851 4.25847 26.4429 1.37175 46.9218C1.3259 47.2654 1.28005 47.609 1.24461 47.9547C0.0732529 59.1521 5.41732 70.3725 16.2785 79.5457C27.1917 88.7586 42.3423 94.7852 58.9414 96.5158C93.1818 100.087 123.01 84.1147 125.436 60.9118C127.864 37.709 101.977 15.9222 67.737 12.3508H67.7412ZM121.647 58.1588C121.64 58.6524 121.624 59.1459 121.588 59.6374L121.572 59.8727C121.555 60.1309 121.532 60.3829 121.503 60.6411C120.465 70.5599 114.158 79.0793 104.581 85.1226C95.0097 91.1659 82.1664 94.7248 68.0621 94.7248C65.1525 94.7248 62.1866 94.5707 59.1852 94.2604C43.6929 92.6444 29.5407 87.0072 19.3382 78.3962C9.08981 69.7457 4.05213 59.1272 5.16513 48.5087C5.19431 48.2275 5.22765 47.9464 5.26934 47.6715V47.6549C5.26934 47.632 5.26934 47.6153 5.27559 47.5924L5.74664 44.2042C5.75289 44.1584 5.76956 44.1126 5.78624 44.073C5.79874 44.0438 5.82167 44.0168 5.83834 43.9918L5.85502 43.9751C5.8842 43.9397 5.91129 43.9168 5.95298 43.8939C5.98841 43.871 6.02801 43.8543 6.06762 43.8419C11.5472 24.527 37.7423 11.7865 67.4848 14.8893C82.9772 16.5053 97.1294 22.1426 107.332 30.7536C115.744 37.8506 120.64 46.2742 121.511 54.9372C121.551 55.31 121.58 55.6828 121.603 56.0555C121.649 56.7552 121.661 57.4487 121.649 58.1546V58.1609L121.647 58.1588Z" fill="#EDF8FF"/>
<path d="M119.84 64.8494C114.623 83.8956 88.7156 96.4799 59.2794 93.4021C43.9517 91.809 29.9684 86.2405 19.8972 77.7398C11.2266 70.4304 6.37859 61.7153 5.91797 52.8106C7.02055 59.083 10.2282 65.2638 15.3347 70.7844C22.7422 78.7936 33.8284 85.0785 46.5633 88.4708C53.7124 90.3804 61.0407 91.2925 68.1918 91.2925C87.2253 91.2925 104.979 84.8202 114.621 73.3937C116.87 70.7282 118.614 67.8544 119.842 64.8514L119.84 64.8494Z" fill="#1E76E2"/>
<path d="M106.775 31.4125C96.7042 22.9098 82.7146 17.3433 67.3931 15.7482C64.4147 15.4337 61.478 15.2838 58.5912 15.2838C32.0981 15.2838 10.1486 27.9597 6.4303 45.9627C6.42405 45.9689 6.42405 45.9751 6.42405 45.9793V45.9918C5.11096 63.6324 21.7559 80.9648 46.7818 87.6391C72.6559 94.5424 100.904 88.3221 113.96 72.8348C117.707 68.3908 120.038 63.3471 120.788 58.1118C120.919 48.6053 116.009 39.2092 106.775 31.4125Z" fill="#EDF8FF"/>
<path d="M127.136 49.6609V49.6734C127.13 49.7484 127.123 49.8275 127.119 49.9087C127.096 50.1669 127.073 50.4314 127.044 50.6938C127.021 50.9125 126.838 51.077 126.619 51.077H126.573C126.377 51.0541 126.236 50.9041 126.194 50.7271V50.7209C126.188 50.6813 126.181 50.6397 126.188 50.6001C126.217 50.3481 126.24 50.0899 126.256 49.8317C127.438 35.1086 117.15 20.2586 99.2172 10.9083C80.9069 1.3685 57.1795 -1.10963 37.2894 4.44639C17.9911 9.83581 4.91438 22.0641 2.83636 36.5414C2.83636 36.558 2.83011 36.5768 2.83011 36.5934L2.77175 37.0058C2.74257 37.2348 2.71339 37.4701 2.69046 37.7055C2.68421 37.7513 2.67379 37.7971 2.65086 37.8429C2.58208 38.0033 2.40909 38.1115 2.2215 38.0886C1.98598 38.0657 1.81507 37.8533 1.838 37.618C1.8776 37.2161 1.92971 36.8162 1.98807 36.4206C1.98807 36.4081 1.99432 36.4039 1.99432 36.3977C4.12236 21.5893 17.4367 9.09654 37.0601 3.61549C57.1504 -1.99259 81.1174 0.508457 99.6132 10.1461C117.757 19.6068 128.214 34.6609 127.134 49.6609H127.136Z" fill="#1E76E2"/>
<path d="M2.83959 36.5444C2.83959 36.561 2.83333 36.5798 2.83333 36.5964L2.79373 36.8879L2.77706 37.0087L2.66868 37.748L2.65617 37.8459L2.64992 37.8688L2.52903 38.7226L2.37479 39.8472L2.36854 39.8638L1.37018 46.9213C1.341 47.1399 1.15758 47.2941 0.944984 47.2941C0.922057 47.2941 0.905382 47.294 0.882455 47.2878C0.66986 47.2586 0.515625 47.0754 0.515625 46.863C0.515625 46.8401 0.515625 46.8234 0.521878 46.8005L0.538552 46.6922L1.66823 38.6768L1.78911 37.823L1.80579 37.7022L1.92668 36.8484L1.97878 36.4756C1.97878 36.459 1.98503 36.4423 1.99129 36.4236C1.99129 36.4111 1.99754 36.4069 1.99754 36.4007C2.06632 36.2049 2.26224 36.08 2.46859 36.1133C2.68743 36.1424 2.84167 36.3257 2.84167 36.5423L2.83959 36.5444Z" fill="#1E76E2"/>
<path d="M126.258 49.8339C126.241 50.0921 126.218 50.3503 126.189 50.6023C126.183 50.6419 126.189 50.6835 126.195 50.7231V50.7294L126.035 52.9305C122.631 32.4682 98.5536 14.7006 67.8315 11.4957C37.1948 8.30118 10.0347 20.6335 2.375 39.8464L2.65638 37.8451C2.6793 37.7993 2.69181 37.7535 2.69598 37.7077C2.7189 37.4724 2.74808 37.237 2.77726 37.008L2.83562 36.5957C2.83562 36.579 2.84188 36.5623 2.84188 36.5436C4.91989 22.0663 17.9966 9.83804 37.2949 4.44861C57.183 -1.10741 80.9124 1.37072 99.2227 10.9105C117.156 20.2608 127.444 35.1108 126.262 49.8339H126.258Z" fill="#1E76E2"/>
<path d="M127.134 49.6613V49.7009L127.117 49.907L126.371 60.0903C126.371 60.1194 126.365 60.1465 126.361 60.1715C126.309 60.3548 126.142 60.4922 125.948 60.4922C125.936 60.4922 125.925 60.486 125.913 60.486C125.677 60.4693 125.5 60.2631 125.517 60.0278L126.034 52.9349V52.9287L126.194 50.7275V50.7213L126.257 49.8321L126.273 49.6363C126.29 49.401 126.503 49.2344 126.738 49.2406C126.957 49.2573 127.128 49.4406 127.134 49.6592V49.6613Z" fill="#1E76E2"/>
</svg>
