<svg xmlns="http://www.w3.org/2000/svg" fill="none" viewBox="0 0 484 92">
  <path fill="#fff" d="m389.2 52 1.1.7c0-.5.2-1 .4-1.5 3-6.6 6.7-10 11.4-10 5.6 0 11 2 16.1 5.6 5.4 3.7 8.1 7.8 8.1 12.5 0 2.2-.3 5.3-1 9.2 0 1.7.7 3.3 2.1 4.7 1.5 1.5 3 2.2 4.8 2.2 2.5 0 4.2-.5 5.2-1.4 1-1.2 2.5-1.9 4.8-1.9 1.4 0 4.1 1.7 8 5.2a27 27 0 0 0 7.4 5.1c2.2-2 5.4-3 9.6-3 4 0 7.6 1.3 11 3.7 3.5 2.2 5.2 4.6 5.2 7v1.1c-129-3.3-238-4.7-327-4-.3-.9-.4-2-.4-3.3 0-7.3 3.8-11 11.4-11 4.9.2 8.3 1 10.3 2.5h2.5a6.5 6.5 0 0 1-.3-3.6c.5-2 2.5-3 6.2-3s6.5.5 8.5 1.5v-4.4c-.2-2 .5-3 2.2-3 .5 0 1.3.3 2.6.7h.7c-.2-.5-.4-1.8-.4-3.6 0-11.3 5.2-17 15.5-17 12.7 0 19.8 4.4 21.3 13 1.5 8.2 3 12.4 4.8 12.4 1.5 0 3.2-.4 5.2-1.1 2-1 3-1.5 3.3-1.5.7 0 2.5.9 5.5 2.6 3.2 1.5 5.3 2.2 6.3 2.2 1.7 0 3.1-1.5 4.4-4.4 1-3.2 3-4.8 5.9-4.8 2.6 0 4.7.3 6.2 1v.8l1.1.7a7 7 0 0 0-1-1.4 98.3 98.3 0 0 1-5.2-12.9c0-3.7.2-6.1.7-7.3 1.5-3.5 4.9-5.2 10.3-5.2h1.1c.3-8.2 2.6-15.7 7-22.4A32 32 0 0 1 320.8 0a48 48 0 0 1 30.9 10.3c9 7.1 13.6 16.3 13.6 27.6 0 4.6-.5 9.5-1.5 14.7h.4c.7-1.5 1.5-2.7 2.2-3.7a9 9 0 0 1 6.6-2.6c5.7 0 11 1.9 16.2 5.5M57 74.4c0-6.1.2-10 .7-11.4 1.7-4.2 6-6.3 12.5-6.3 10.8 0 17.2 2.4 19.2 7 1 2.5.8 5.7-.4 9.6h3.7c3.2-1.2 5.5-1.9 7-1.9 1.7 0 3.3 1.2 4.8 3.7 1.2 2.5 2.4 3.7 3.6 3.7 1.8 0 3.6-1 5.6-3 2-2.2 3.1-3.3 3.6-3.3.8 0 2.4.5 4.8 1.5 2.7 1 4.7 2 6 3.3 2.4 1.7 3.6 3.7 3.6 5.9 0 1.8.2 3.2.3 4-10.8.3-35.3 0-73.5-.7-1-3-1.5-7-1.5-12.1m-32-4c3 0 5.8 1 8.5 3.2a15 15 0 0 1 5.1 12.5l-37.5-1A16 16 0 0 1 0 80.5C0 76.2 2.3 74 7 74l10.3 1.8c1.7 0 3.2-.9 4.4-2.6 1-2 2.1-3 3.3-3v.1Z"/>
</svg>
