<svg width="241" height="67" viewBox="0 0 241 67" fill="none" xmlns="http://www.w3.org/2000/svg">
<path d="M105.626 40.4163C107.88 40.1937 110.164 40.1483 112.42 40.512C113.953 40.7584 114.697 41.809 114.562 43.3538C114.529 43.7204 114.372 43.759 114.083 43.7522C113.572 43.742 113.061 43.7454 112.548 43.7522C112.1 43.7556 111.695 43.8455 111.607 43.1438C111.545 42.6548 110.921 42.5771 110.483 42.5618C109.263 42.521 108.037 42.4921 106.82 42.5618C105.721 42.6263 105.352 43.0866 105.324 44.2082C105.306 44.9423 105.32 45.6764 105.33 46.4104C105.342 47.238 105.749 47.7077 106.597 47.8215C108.043 48.0135 109.483 48.0181 110.926 47.8108C111.09 47.787 111.254 47.7343 111.408 47.6731C111.878 47.4844 111.895 47.0649 111.842 46.6741C111.78 46.2239 111.388 46.4617 111.155 46.4534C110.333 46.4228 109.507 46.422 108.684 46.4475C108.263 46.4611 108.038 46.3728 108.096 45.8987C108.13 45.6202 108.12 45.3332 108.096 45.053C108.068 44.7064 108.162 44.5409 108.557 44.5442C110.432 44.5595 112.307 44.5578 114.184 44.5442C114.554 44.5408 114.676 44.672 114.671 45.0354C114.657 45.9956 114.69 46.9563 114.555 47.9114C114.396 49.0431 113.642 49.7241 112.295 49.9807C112.025 50.0316 111.719 49.9438 111.49 50.1731H105.858L105.859 50.175C105.624 49.9695 105.323 50.035 105.05 49.9875C103.358 49.6935 102.556 48.7794 102.441 47.0579C102.37 45.9856 102.313 44.9197 102.415 43.844C102.649 41.3869 103.204 40.6559 105.626 40.4163ZM146.459 40.4592C146.929 40.4559 147.008 40.6213 147.015 41.0393C147.04 42.5973 147.055 42.5969 145.489 42.5969C143.726 42.5969 141.962 42.641 140.201 42.5764C139.447 42.5492 139.479 42.9138 139.471 43.4338C139.462 43.9502 139.484 44.2494 140.169 44.2307C142.073 44.178 143.981 44.2317 145.885 44.1995C146.45 44.1893 146.75 44.2971 146.646 44.9241C146.613 45.116 146.617 45.323 146.646 45.5149C146.734 46.1063 146.507 46.2817 145.901 46.2698C143.968 46.2307 142.032 46.2968 140.101 46.2356C139.308 46.2101 139.51 46.6738 139.482 47.0901C139.449 47.5557 139.461 47.8573 140.119 47.842C142.251 47.7911 144.385 47.8421 146.517 47.8098C147.046 47.8013 147.226 47.9385 147.175 48.4651C147.125 48.9697 147.154 49.4815 147.148 49.9895L147.146 49.9866C147.151 50.0488 147.158 50.1109 147.163 50.1731H136.581V50.175C136.569 47.0855 136.557 43.997 136.549 40.9075C136.549 40.7495 136.51 40.5594 136.732 40.4915L136.733 40.4934C139.975 40.4849 143.217 40.4881 146.459 40.4592ZM85.1036 40.3118C85.5394 40.3101 85.6802 40.4236 85.6905 40.8772C85.7315 42.5188 85.7518 42.5178 84.128 42.5178C82.3384 42.5178 80.5468 42.5616 78.7589 42.4954C78.0361 42.4682 78.0313 42.769 78.004 43.3196C77.9732 43.9551 78.154 44.12 78.795 44.1047C80.6683 44.0572 82.545 44.1101 84.42 44.0745C85.0114 44.0626 85.2716 44.1474 85.2442 44.8323C85.1913 46.1915 85.2371 46.1936 83.839 46.1936C82.1059 46.1936 80.3711 46.2352 78.6397 46.1741C77.8449 46.1469 78.0362 46.6203 78.0294 47.0383C78.0242 47.4426 77.8894 47.8486 78.6202 47.8284C80.7773 47.7706 82.9399 47.8282 85.0987 47.7942C85.6918 47.784 85.9386 47.9423 85.8497 48.5422C85.778 49.0333 85.9659 49.5468 85.7335 50.0276L85.7345 50.0286C82.2084 50.015 78.6824 50.0019 75.1563 49.9866C75.1495 46.9378 75.1495 43.8869 75.129 40.8381C75.1256 40.4424 75.2243 40.3085 75.6427 40.3118C78.7962 40.3288 81.9501 40.3288 85.1036 40.3118ZM98.0059 40.3166C98.7339 40.3845 99.6667 40.026 100.144 40.4504C100.588 40.8464 100.271 41.7798 100.273 42.4749C100.274 44.9848 100.247 47.4932 100.23 50.0032C98.8023 50.01 97.3746 50.0169 95.9473 50.0237C94.0979 47.6853 92.2509 45.3445 90.4015 43.0061L90.1632 43.0237V50.012C89.2505 50.0103 88.3376 50.0085 87.4249 50.0051C87.4078 46.9309 87.398 43.856 87.3673 40.7834C87.3639 40.3978 87.504 40.3125 87.8595 40.3176C89.0234 40.3363 90.1894 40.3516 91.3516 40.3108C91.8129 40.2956 91.9911 40.5642 92.2149 40.8547C93.7293 42.8259 95.2482 44.7942 96.7677 46.762C96.9163 46.9539 97.0756 47.1409 97.2345 47.3362C97.5113 47.1441 97.3988 46.898 97.4005 46.6975C97.4107 44.7789 97.4198 42.8583 97.3975 40.9397C97.3925 40.476 97.5001 40.2691 98.0059 40.3166ZM123.361 40.3147C125.348 39.9289 126.604 40.772 127.66 42.4221C128.768 44.1537 130.153 45.7104 131.419 47.3401C131.445 47.3722 131.503 47.379 131.624 47.4299C131.624 45.3142 131.645 43.2358 131.612 41.1575C131.602 40.5491 131.688 40.2091 132.414 40.3127C133.081 40.4077 133.962 40.0345 134.379 40.4592C134.791 40.8807 134.499 41.747 134.501 42.4182C134.511 44.9334 134.495 47.449 134.49 49.9641C133.027 49.976 131.564 49.9854 130.101 49.9973C128.262 47.654 126.423 45.3123 124.432 42.7737V49.9709L124.43 49.9719C123.479 49.977 122.531 49.9805 121.58 49.9856C121.573 46.9624 121.58 43.9375 121.551 40.9143C121.546 40.4232 121.697 40.2734 122.17 40.3176C122.565 40.355 122.979 40.3895 123.361 40.3147ZM117.165 40.3567C119.514 40.2785 119.515 40.2635 119.512 42.5471C119.507 45.0283 119.497 47.5083 119.488 49.9895V49.9875C118.538 49.9875 117.587 49.9878 116.637 49.9895C116.63 46.973 116.629 43.9564 116.607 40.9416C116.603 40.5168 116.705 40.372 117.165 40.3567Z" fill="#010102"/>
<path d="M92.0048 17.961C93.167 18.034 94.3362 18.0069 95.5018 17.9678C96.0265 17.9508 96.1822 18.0985 96.1737 18.625C96.1429 20.5743 96.162 22.5257 96.162 24.4766H96.1366L96.1346 24.4746C96.1346 26.2266 96.1529 27.9805 96.1307 29.7325C96.0897 32.8424 94.9926 34.3243 91.9227 34.8155C87.6974 35.4918 83.4274 35.5415 79.202 34.753C76.4657 34.2414 75.2553 32.8496 75.1835 30.0967C75.0843 26.2272 75.1544 22.3525 75.1356 18.4795C75.1339 18.0479 75.3085 17.9657 75.6913 17.9707C76.9425 17.9877 78.1957 18.0122 79.4452 17.9629C80.0809 17.9375 80.265 18.1122 80.2548 18.7578C80.2172 21.4141 80.2384 24.0726 80.2401 26.7305C80.2401 27.3234 80.2399 27.9179 80.2587 28.5108C80.3082 30.1626 80.8432 30.8902 82.4481 31.1162C84.5932 31.4187 86.764 31.4172 88.9091 31.1045C90.4748 30.8751 91.0016 30.2326 91.0272 28.6504C91.0785 25.4013 91.097 22.1503 91.0731 18.8995C91.068 18.1636 91.2323 17.9117 92.0048 17.961ZM178.643 17.961C180.262 18.0103 181.883 17.9846 183.504 17.9727C183.868 17.9693 184.141 18.0187 184.338 18.3838C187.281 23.8355 190.236 29.279 193.184 34.7256V34.7305C193.22 34.7984 193.223 34.8871 193.266 35.0703H188.165C187.977 35.0703 187.841 35.0063 187.771 34.8194C187.732 34.7142 187.671 34.619 187.618 34.5205C187.187 33.7031 186.951 32.5508 186.27 32.1582C185.542 31.7386 184.396 32.022 183.432 32.0186C181.073 32.0118 178.714 32.0353 176.355 32.003C175.819 31.9945 175.545 32.1685 175.326 32.6426C174.948 33.4548 174.689 34.5422 174.029 34.9434C173.364 35.3461 172.27 35.0607 171.364 35.0674C170.52 35.0725 169.677 35.0674 168.834 35.0674C168.791 34.6936 169.007 34.4826 169.137 34.2412C171.941 29.0411 174.757 23.8444 177.548 18.6358C177.802 18.1583 178.064 17.9424 178.643 17.961ZM106.758 17.9502C107.263 17.9434 107.447 18.2614 107.681 18.5655C110.631 22.401 113.576 26.239 116.524 30.0762C116.659 30.2512 116.807 30.419 117.093 30.7657L117.094 30.7647V19.1827C117.094 18.3693 117.518 17.9629 118.364 17.9629C119.388 17.9629 120.412 17.983 121.435 17.9541C121.899 17.9405 122.077 18.0475 122.075 18.5537C122.058 23.8679 122.059 29.184 122.073 34.4981C122.073 34.9433 121.943 35.0757 121.495 35.0723C119.333 35.0519 117.173 35.0401 115.011 35.0791C114.464 35.0893 114.274 34.7464 114.022 34.4219C111.048 30.6067 108.076 26.7877 105.103 22.9707C104.953 22.777 104.789 22.5931 104.505 22.2549V23.2276C104.505 26.9306 104.49 30.6339 104.52 34.337C104.525 34.9348 104.366 35.1009 103.768 35.0772C102.575 35.0279 101.379 35.0466 100.185 35.0703C99.7377 35.0805 99.5382 35.001 99.5399 34.4844C99.5587 29.1703 99.5548 23.8542 99.5428 18.5401C99.5429 18.1173 99.6319 17.9491 100.101 17.9541C102.32 17.9779 104.539 17.9825 106.758 17.9502ZM139.059 17.9629C140.227 17.9612 141.383 18.0733 142.53 18.2891C144.367 18.6324 145.316 19.5268 145.682 21.3536C145.948 22.6926 145.899 24.0553 145.709 25.3995C145.5 26.8763 144.596 27.8111 142.923 28.292C145.338 28.9208 145.749 29.4391 145.808 31.7198H145.809C145.833 32.6237 145.808 33.5294 145.843 34.4317C145.86 34.8786 145.774 35.0896 145.249 35.0743C143.971 35.0369 142.69 35.0417 141.412 35.0723C140.957 35.0825 140.831 34.9436 140.841 34.502C140.858 33.7697 140.908 33.0336 140.763 32.3047C140.527 31.1253 140.055 30.6949 138.863 30.4893C137.591 30.2701 136.313 30.3381 135.036 30.3262C133.787 30.3143 132.534 30.3589 131.284 30.3096C130.7 30.2859 130.582 30.4876 130.6 31.0176C130.638 32.146 130.587 33.2798 130.623 34.4082C130.638 34.9095 130.529 35.1003 129.976 35.0782C128.785 35.0306 127.587 35.0255 126.395 35.0782C125.765 35.1053 125.582 34.9435 125.586 34.293C125.615 29.5177 125.6 24.7402 125.6 19.9649C125.6 18.6314 126.277 17.9649 127.63 17.9649C131.44 17.9649 135.25 17.968 139.059 17.9629ZM149.774 17.9473C155.432 17.9728 161.088 17.9689 166.745 17.9502C167.295 17.9485 167.499 18.0815 167.465 18.6524C167.417 19.4407 167.408 20.2361 167.465 21.0245C167.513 21.6668 167.299 21.8303 166.66 21.8252C162.766 21.7963 158.87 21.8318 154.976 21.7911C154.247 21.7826 154.095 21.9887 154.112 22.6768C154.16 24.6107 154.127 24.6123 156.033 24.6123C159.33 24.6123 162.629 24.6346 165.927 24.5938C166.633 24.5853 166.812 24.8096 166.761 25.4571C166.709 26.1028 166.698 26.7603 166.765 27.4043C166.841 28.1504 166.528 28.2783 165.851 28.2715C162.212 28.2409 158.573 28.2767 154.935 28.2393C154.245 28.2326 154.105 28.4397 154.115 29.0801C154.151 31.1313 154.126 31.1319 156.19 31.1319C159.773 31.1319 163.354 31.1471 166.936 31.1182C167.555 31.1131 167.797 31.2402 167.744 31.8975C167.681 32.6843 167.689 33.4818 167.742 34.2686C167.785 34.894 167.603 35.0857 166.947 35.0772C164.077 35.0381 161.205 35.0606 158.334 35.0606V35.0586C155.491 35.0586 152.649 35.0417 149.807 35.0723C149.21 35.0791 149.044 34.9212 149.048 34.3233C149.072 29.1248 149.068 23.926 149.049 18.7276C149.047 18.1736 149.137 17.9439 149.774 17.9473ZM199.351 17.9629C200.045 17.9272 200.262 18.1086 200.255 18.8291C200.217 22.6733 200.238 26.5192 200.234 30.3633C200.234 30.7336 200.159 31.0565 200.762 31.0498C204.401 31.0125 208.042 31.0154 211.682 31.0069V35.0772C206.448 35.0721 201.215 35.0585 195.981 35.0772C195.346 35.0789 195.115 34.967 195.12 34.2637C195.154 29.0906 195.152 23.9172 195.121 18.7442C195.118 18.0831 195.323 17.9367 195.94 17.9639C197.075 18.0115 198.217 18.0207 199.351 17.9629ZM177.473 28.4229C179.72 28.4229 181.794 28.4282 183.867 28.418C184.091 28.4163 184.558 28.5651 184.284 28.0264C183.211 25.9073 182.127 23.7948 180.972 21.5313C179.777 23.8833 178.654 26.0964 177.473 28.4229ZM131.113 21.8086C130.783 21.8052 130.596 21.8426 130.602 22.252C130.626 23.5503 130.617 24.8504 130.605 26.1504C130.602 26.4563 130.657 26.6076 131.017 26.6026C133.46 26.5703 135.909 26.6402 138.347 26.5127H138.349C140.553 26.3972 140.764 26.0572 140.713 23.8428C140.679 22.3695 140.219 21.8917 138.703 21.8526C137.481 21.8203 136.258 21.8457 135.036 21.8457V21.8135C133.728 21.8135 132.421 21.8205 131.113 21.8086Z" fill="#010101"/>
<path d="M50.1267 13.3584C38.6267 13.3564 29.3348 22.552 29.3184 33.9535C29.302 45.3692 38.6308 54.6637 50.0981 54.6546C61.5541 54.6454 70.8593 45.3774 70.8542 33.983C70.848 22.5948 61.5674 13.3604 50.1267 13.3584ZM50.0571 53.7759C39.0458 53.7412 30.1812 44.9299 30.1648 34.0014C30.1484 23.0963 39.1011 14.1882 50.0827 14.1861C61.0653 14.1841 70.0098 23.0831 69.9996 34.0014C69.9883 44.9472 61.0499 53.8105 50.0581 53.7759H50.0571Z" fill="#010101"/>
<path d="M40.0484 41.5778C40.3526 41.6197 40.6455 41.6728 40.9414 41.6993C41.7956 41.7749 42.1804 41.4614 42.2263 40.6016C42.26 39.9746 42.2375 39.3456 42.2375 38.7166C42.2375 36.3047 42.2355 33.8928 42.2385 31.4808C42.2385 30.91 42.1008 30.4097 41.6201 30.0482C41.0108 29.5918 40.2311 29.6387 39.6259 30.1952C38.7932 30.9611 38.3543 31.9771 37.9032 32.9819C37.7736 33.2699 37.6726 33.5701 37.5471 33.8938C37.2062 29.6275 40.5465 22.8043 48.1078 21.5156C48.0118 21.7158 47.8118 21.775 47.6608 21.8894C46.582 22.7022 45.8003 23.7029 45.5778 25.0763C45.5023 25.5409 45.5584 25.9933 45.6911 26.4314C45.9146 27.1676 46.3463 27.3473 47.2138 27.0971C47.3036 27.2697 47.2556 27.4555 47.2556 27.6332C47.2587 31.4206 47.3107 35.21 47.225 38.9954C47.2005 40.0869 48.3455 41.0141 49.4814 40.7129C50.3673 40.478 51.1072 39.9808 51.8226 39.4334C51.9818 39.3119 51.9981 39.1618 51.9981 38.9872C51.9961 35.7094 52.0063 32.4315 51.9889 29.1527C51.9828 28.0243 51.395 27.1707 50.502 26.4242C51.3511 26.3047 52.092 26.4365 52.7707 26.851C52.9768 26.9766 53.0646 26.9501 53.2187 26.7796C55.0904 24.7097 57.3673 23.3312 60.1177 22.7686C60.2789 22.7359 60.435 22.6858 60.6585 22.7389C60.1044 23.2597 59.5921 23.7682 59.1369 24.3329C57.751 26.0525 56.9825 27.9671 57.0458 30.2228C57.1284 33.1422 57.1162 36.0647 57.1427 38.9862C57.1478 39.557 57.3142 39.752 57.8888 39.8511C58.4929 39.9542 59.0206 39.7459 59.5267 39.4487C60.3534 38.9627 61.0443 38.3102 61.7209 37.6424C61.9108 37.4545 62.0638 37.2288 62.2782 37.0593C62.3731 37.4534 62.222 37.7639 62.1139 38.0682C60.9565 41.3297 58.8328 43.7497 55.7599 45.3448C55.47 45.4949 55.317 45.4346 55.1251 45.2069C54.6434 44.6371 54.126 44.0959 53.6484 43.5231C53.4473 43.2821 53.335 43.2627 53.1054 43.5006C52.1614 44.4768 51.1929 45.4305 50.2366 46.3945C50.0795 46.5528 49.9386 46.6804 49.6784 46.6661C45.7319 46.4455 42.5253 44.8036 40.077 41.6932C40.0586 41.6707 40.0617 41.6319 40.0484 41.5768V41.5778Z" fill="#010101"/>
</svg>
