<svg width="145" height="45" viewBox="0 0 145 45" fill="none" xmlns="http://www.w3.org/2000/svg">
<path d="M44.5898 22.8398C44.5898 28.5127 41.5573 33.7551 36.6348 36.5918L22.5449 44.7109L8.45508 36.5918C3.53244 33.7551 0.500031 28.5127 0.5 22.8398V0.710938H44.5898V22.8398ZM12.6035 19.2422C13.5465 18.1795 15.2613 17.46 17.2217 17.46H19.3525V25.4609C19.3525 27.5895 18.7729 29.4528 17.9131 30.4775H27.1807C26.3226 29.4517 25.7442 27.5907 25.7441 25.4648V17.46H27.875C29.8354 17.46 31.5501 18.1794 32.4932 19.2422V12.3594H12.6035V19.2422Z" fill="#2A303E"/>
<path d="M72.1877 21.0759C74.4749 21.7236 75.5059 23.5118 75.5059 25.3001C75.5059 27.4323 74.2467 29.2205 72.225 29.9829C71.2343 30.3626 70.0511 30.4773 68.4502 30.4773H54.9863V12.3594H68.1832C69.8601 12.3594 71.0433 12.474 71.9579 12.7778C74.0557 13.4642 75.124 15.0619 75.124 17.0035C75.124 18.9823 73.8274 20.3522 72.1877 21.0759ZM67.458 19.5154C67.9922 19.5154 68.4114 19.4767 68.6785 19.3635C69.3648 19.0583 69.6707 18.5252 69.6707 17.9162C69.6707 17.3072 69.3648 16.7742 68.7158 16.5464C68.4114 16.4317 67.9922 16.3945 67.458 16.3945H60.2502V19.5154H67.458ZM67.649 26.2902C68.1832 26.2902 68.6024 26.2531 68.9068 26.1384C69.5931 25.8719 69.899 25.3388 69.899 24.6926C69.899 24.0821 69.5931 23.5877 68.9828 23.36C68.6785 23.2453 68.2593 23.2081 67.649 23.2081H60.2502V26.2902H67.649Z" fill="#2A303E"/>
<path d="M83.0882 27.8507L82.0588 30.4773H75.8027L83.2404 12.3594H91.3256L98.7633 30.4773H92.5461L91.4793 27.8507H83.0882ZM84.4609 23.8543H90.1439L87.512 16.5464H87.0928L84.4609 23.8543Z" fill="#2A303E"/>
<path d="M105.423 12.3594L114.995 22.2938V12.3594H120.259V30.4773H115.377L105.576 20.4669V30.4773H100.312V12.3594H105.423Z" fill="#2A303E"/>
<path d="M129.017 23.6265V30.4773H123.486V12.3594H129.017V19.1729H130.542L137.216 12.3594H144.158L135.309 21.0387L144.501 30.4773H137.14L130.542 23.6265H129.017Z" fill="#2A303E"/>
</svg>
