<svg width="241" height="67" viewBox="0 0 241 67" fill="none" xmlns="http://www.w3.org/2000/svg">
<path d="M141.342 26.9773C143.927 23.6822 149.395 24.1481 151.563 27.8837C151.674 27.8413 151.708 27.7397 151.767 27.655C152.805 26.2827 154.123 25.3256 155.824 24.9444C158.766 24.2837 161.768 25.4865 163.188 28.4428C163.741 29.5948 164.004 30.823 164.004 32.0936C164.013 35.9986 164.004 39.9036 164.004 43.8086C164.004 44.0796 164.004 44.0796 163.741 44.0881C162.729 44.0881 161.708 44.0881 160.696 44.0881C160.399 44.0881 160.399 44.0881 160.399 43.8086C160.399 43.4782 160.399 43.1479 160.399 42.8175C160.399 39.3699 160.399 35.9224 160.399 32.4833C160.399 31.7887 160.288 31.128 159.982 30.5011C159.259 29.0188 157.627 28.0108 155.756 28.3835C154.072 28.7223 152.771 30.264 152.686 31.992C152.677 32.2292 152.677 32.4663 152.677 32.695C152.677 36.3544 152.677 40.0137 152.677 43.6646C152.677 44.1389 152.72 44.0796 152.269 44.0881C151.317 44.0881 150.356 44.0881 149.403 44.0881C149.029 44.0881 149.063 44.0881 149.063 43.7408C149.063 40.4965 149.063 37.2523 149.063 33.9995C149.063 33.3981 149.08 32.7967 149.063 32.2037C148.995 30.5943 148.247 29.4084 146.801 28.6799C145.432 27.9938 143.689 28.2988 142.6 29.3576C141.75 30.1793 141.342 31.1788 141.342 32.3562C141.342 36.1087 141.342 39.8612 141.342 43.6138C141.342 43.6985 141.342 43.7832 141.342 43.8594C141.367 44.0458 141.274 44.0966 141.095 44.0966C140.058 44.0966 139.02 44.0966 137.983 44.0966C137.736 44.0966 137.736 44.0966 137.728 43.8425C137.728 43.7832 137.728 43.7239 137.728 43.6646C137.728 37.7012 137.728 31.7379 137.728 25.7745C137.728 25.2578 137.66 25.334 138.178 25.334C139.148 25.334 140.117 25.334 141.087 25.334C141.333 25.334 141.342 25.334 141.342 25.5797C141.342 26.0202 141.342 26.4691 141.342 26.9858V26.9773Z" fill="#000100"/>
<path d="M86.6721 30.1199C86.6721 25.5965 86.6721 21.0647 86.6721 16.5414C86.6721 16.084 86.6126 16.1094 87.1143 16.1094C91.8084 16.1094 96.5111 16.1094 101.205 16.1094C101.681 16.1094 101.622 16.0501 101.622 16.516C101.622 17.4562 101.622 18.3965 101.622 19.3367C101.622 19.7094 101.613 19.6586 101.29 19.6586C97.7951 19.6586 94.3001 19.6586 90.8135 19.6586C90.7625 19.6586 90.7199 19.6586 90.6689 19.6586C90.2522 19.6586 90.2862 19.6247 90.2862 20.0313C90.2862 22.3099 90.2862 24.597 90.2862 26.8756C90.2862 26.8841 90.2862 26.901 90.2862 26.9095C90.2862 27.2483 90.2352 27.2568 90.6264 27.2568C93.2796 27.2568 95.9413 27.2568 98.5945 27.2568C99.0537 27.2568 98.9857 27.206 98.9857 27.6549C98.9857 28.5697 98.9857 29.493 98.9857 30.4079C98.9857 30.8314 99.0452 30.7975 98.5775 30.7975C95.9583 30.7975 93.3391 30.7975 90.7199 30.7975C90.6349 30.7975 90.5584 30.7975 90.4733 30.7975C90.3458 30.7975 90.2692 30.8399 90.2862 30.9839C90.2862 31.0686 90.2862 31.1448 90.2862 31.2295C90.2862 35.3802 90.2862 39.5308 90.2862 43.6814C90.2862 44.1643 90.3373 44.0965 89.8781 44.0965C88.9086 44.0965 87.9392 44.0965 86.9783 44.0965C86.6721 44.0965 86.6721 44.0965 86.6721 43.7831C86.6721 41.8941 86.6721 39.9967 86.6721 38.1077C86.6721 35.4479 86.6721 32.7966 86.6721 30.1368V30.1199Z" fill="#010100"/>
<path d="M60.2158 28.2138C60.2158 28.2138 60.1733 28.1714 60.1562 28.146C60.3178 27.9766 60.5304 28.0274 60.726 28.0274C62.5628 28.0274 64.4082 28.0274 66.245 28.0274C66.7722 28.0274 66.7807 28.0274 66.7807 27.5022C66.7807 23.953 66.7807 20.4038 66.7807 16.8546C66.7807 16.7529 66.7807 16.6428 66.7722 16.5412C66.7637 16.3718 66.6702 16.287 66.5001 16.2786C66.3726 16.2786 66.2365 16.2701 66.1089 16.2701C64.5272 16.2701 62.9455 16.2701 61.3638 16.2701C61.1682 16.2701 60.9556 16.3125 60.794 16.1515C60.9046 16.0837 61.0236 16.1092 61.1427 16.1092C64.9269 16.1092 68.7111 16.1092 72.5038 16.1092C73.6349 16.1092 74.7404 16.2701 75.7523 16.8207C77.6317 17.8541 78.7117 19.4212 78.9583 21.5558C79.2474 24.1478 77.8017 26.5535 75.5652 27.6123C74.9189 27.9173 74.2471 28.1121 73.5328 28.1629C73.4478 28.1629 73.3627 28.1629 73.2947 28.2053C73.0906 28.4086 72.8355 28.3154 72.5974 28.3323C72.4443 28.3408 72.2912 28.3408 72.1467 28.3323C70.5565 28.3323 68.9662 28.3323 67.376 28.3323C67.2229 28.3323 67.0699 28.3323 66.9168 28.3239C64.8249 28.3408 62.7244 28.3239 60.6325 28.3239C60.4964 28.3239 60.3433 28.3239 60.2328 28.2138H60.2158Z" fill="#EE7163"/>
<path d="M60.2162 28.2139C62.3592 28.2139 64.5022 28.2139 66.6366 28.2139C66.7217 28.2139 66.7982 28.2139 66.8832 28.2223C67.0448 28.3833 67.0023 28.595 67.0108 28.7899C67.0108 30.2892 67.0108 31.78 67.0108 33.2793C67.0278 33.7622 67.0108 34.245 67.0108 34.7193C67.0108 34.8549 67.0108 35.0073 66.9002 35.1175C66.9002 36.693 66.9002 38.2601 66.8917 39.8356C66.8917 39.9881 66.8832 40.1406 66.8747 40.2931C66.7387 40.4201 66.5686 40.3947 66.407 40.3947C64.5192 40.3947 62.6313 40.3947 60.7434 40.3947C60.5819 40.3947 60.4118 40.4116 60.2757 40.2761C60.1227 40.1829 59.9526 40.2253 59.791 40.1914C57.2994 39.7255 55.4115 37.9467 54.8758 35.4139C54.289 32.6186 55.8452 29.8233 58.3199 28.739C58.8471 28.5103 59.3998 28.324 59.9781 28.2647C60.0631 28.2647 60.1397 28.2562 60.2162 28.2139Z" fill="#765EA5"/>
<path d="M60.7934 16.1351C60.9209 16.1351 61.0485 16.152 61.1845 16.152C62.9278 16.152 64.6796 16.152 66.4229 16.152C66.5165 16.152 66.61 16.152 66.7035 16.152C66.8141 16.152 66.8736 16.2198 66.8821 16.3299C66.8821 16.4146 66.8821 16.4909 66.8821 16.5756C66.8821 20.2857 66.8821 24.0044 66.8821 27.7145C66.8821 27.7738 66.8821 27.8331 66.8821 27.8924C66.8906 28.0533 66.8311 28.1381 66.661 28.1211C66.576 28.1211 66.4994 28.1211 66.4144 28.1211C64.382 28.1211 62.3581 28.1211 60.3256 28.1211C60.2661 28.1211 60.2066 28.1296 60.1471 28.1381C58.9565 28.0364 57.9021 27.5959 56.9921 26.842C55.7846 25.8679 55.0788 24.5973 54.8237 23.0556C54.3304 20.0909 56.2863 16.9059 59.6368 16.2452C60.0195 16.169 60.4022 16.1182 60.7934 16.1351Z" fill="#E94F26"/>
<path d="M60.2673 40.276C62.4697 40.276 64.6637 40.276 66.8662 40.2845C66.9088 40.3862 66.8918 40.4963 66.8918 40.5979C66.8918 42.47 66.8918 44.3335 66.8918 46.2055C66.8918 47.5778 66.5176 48.8314 65.6757 49.9241C64.6552 51.2625 63.3116 52.0503 61.6364 52.2875C59.9271 52.5246 58.4049 52.0926 57.0613 51.0507C55.7517 50.0343 55.0204 48.679 54.7993 47.0356C54.4251 44.2911 56.1344 41.4874 58.8216 40.5895C59.2978 40.4285 59.774 40.3269 60.2673 40.2676V40.276Z" fill="#4BB37D"/>
<path d="M66.892 35.1093C66.892 34.5079 66.892 33.915 66.892 33.3136C66.9685 32.2378 67.4107 31.2975 68.0655 30.4674C68.9669 29.3239 70.132 28.5615 71.5776 28.2735C71.7647 28.2396 71.9518 28.2989 72.1304 28.2142C72.5131 28.2142 72.8957 28.1973 73.2699 28.1973C74.3244 28.2735 75.3108 28.57 76.1952 29.146C77.4878 29.993 78.3637 31.1451 78.7804 32.6359C79.2056 34.1691 79.0525 35.6599 78.2957 37.0407C77.3347 38.811 75.8466 39.8953 73.8311 40.2087C72.445 40.4289 71.1269 40.1833 69.9109 39.4802C68.2951 38.54 67.3002 37.1423 66.943 35.3042C66.926 35.2364 66.9345 35.1602 66.875 35.1093H66.892Z" fill="#42B7EA"/>
<path d="M106.281 34.7025C106.281 31.7039 106.281 28.7053 106.281 25.7151C106.281 25.2747 106.23 25.317 106.672 25.317C107.642 25.317 108.611 25.317 109.572 25.317C109.912 25.317 109.895 25.2916 109.895 25.6474C109.895 29.4084 109.895 33.1693 109.895 36.9303C109.895 39.1835 109.895 41.4452 109.895 43.6984C109.895 44.1219 109.929 44.0796 109.521 44.0796C108.552 44.0796 107.582 44.0796 106.621 44.0796C106.256 44.0796 106.281 44.0965 106.281 43.7323C106.281 40.7252 106.281 37.7181 106.281 34.7025Z" fill="#010100"/>
<path d="M105.771 19.413C105.771 18.1424 106.834 17.1005 108.126 17.1089C109.427 17.1089 110.465 18.1593 110.473 19.4723C110.473 20.7429 109.427 21.7763 108.126 21.7932C106.893 21.8102 105.728 20.7598 105.771 19.413Z" fill="#010101"/>
<path d="M132.193 25.6728C132.193 25.622 132.193 25.5796 132.193 25.5288C132.218 25.3509 132.133 25.3086 131.963 25.3086C130.909 25.3086 129.863 25.3086 128.808 25.3086C128.604 25.3086 128.579 25.3933 128.579 25.5627C128.579 25.9354 128.579 26.3166 128.579 26.6893C128.579 26.757 128.63 26.8587 128.511 26.901C128.196 26.6215 127.898 26.3166 127.541 26.0794C125.228 24.5377 122.762 24.3598 120.22 25.3678C118.187 26.1641 116.809 27.6803 115.925 29.6455C115.211 31.238 114.99 32.9067 115.168 34.6432C115.338 36.2781 115.849 37.7859 116.826 39.1242C118.459 41.3605 120.67 42.504 123.459 42.4447C125.364 42.4024 127.023 41.7247 128.409 40.4033C128.443 40.3694 128.477 40.3017 128.545 40.3271C128.587 40.3609 128.57 40.4118 128.57 40.4541C128.57 41.2334 128.57 42.0043 128.57 42.7836C128.553 43.944 128.222 45.0029 127.567 45.9685C126.198 47.9761 123.664 48.8401 121.47 48.1879C120.857 48.0015 120.296 47.7135 119.726 47.3493C119.641 47.4848 119.582 47.578 119.522 47.6796C119.046 48.5013 118.561 49.3229 118.085 50.153C117.898 50.4834 117.813 50.4411 118.221 50.6698C120.432 51.9404 122.788 52.2877 125.254 51.6354C128.06 50.89 130.092 49.1705 131.334 46.553C131.938 45.2909 132.184 43.944 132.184 42.5549C132.184 36.9303 132.184 31.3143 132.184 25.6897L132.193 25.6728ZM126.733 37.7435C124.888 39.3614 122.175 39.2852 120.407 37.5741C118.238 35.4734 118.068 31.6277 120.662 29.4253C121.521 28.6968 122.516 28.3241 123.808 28.3072C125.254 28.3411 126.529 29.0272 127.482 30.2978C129.115 32.4663 128.961 35.7783 126.725 37.7435H126.733Z" fill="black"/>
<path d="M186.88 43.6814C186.88 39.9543 186.88 36.2272 186.88 32.5001C186.88 30.2045 186.88 27.9174 186.88 25.6219C186.88 25.2915 186.905 25.3169 186.573 25.3169C185.57 25.3169 184.567 25.3169 183.563 25.3169C183.24 25.3169 183.223 25.2661 183.231 25.6727C183.231 26.2233 183.231 26.7739 183.231 27.333C183.172 27.333 183.155 27.3414 183.155 27.333C183.087 27.2737 183.019 27.2059 182.951 27.1381C180.391 24.8511 177.44 24.2327 174.166 25.1814C172.593 25.6388 171.284 26.5537 170.204 27.7819C168.809 29.3744 168.044 31.2379 167.771 33.3133C167.635 34.3297 167.678 35.3547 167.831 36.3712C168.146 38.4211 168.945 40.2507 170.374 41.7755C172.474 44.0117 175.076 44.9011 178.112 44.5454C179.685 44.359 181.08 43.7322 182.33 42.775C182.628 42.5463 182.9 42.2922 183.172 42.0381C183.265 42.1228 183.231 42.2075 183.231 42.2837C183.231 42.7411 183.231 43.1985 183.231 43.656C183.231 44.1303 183.223 44.0626 183.623 44.0626C184.575 44.0626 185.536 44.0626 186.488 44.0626C186.931 44.0626 186.88 44.1049 186.88 43.6644V43.6814ZM179.192 40.759C177.755 41.3011 176.309 41.2503 174.932 40.5726C172.772 39.5053 171.615 37.718 171.36 35.3462C171.173 33.669 171.598 32.1443 172.585 30.789C173.554 29.4591 174.855 28.6036 176.505 28.3749C178.036 28.1546 179.439 28.5358 180.663 29.476C182.228 30.6789 183.053 32.2883 183.206 34.2366C183.223 34.3975 183.231 34.5669 183.24 34.694C183.24 37.286 181.752 39.8018 179.192 40.7675V40.759Z" fill="black"/>
</svg>
