<?xml version="1.0" encoding="utf-8"?>
<!-- Generator: Adobe Illustrator 19.2.1, SVG Export Plug-In . SVG Version: 6.00 Build 0)  -->
<svg version="1.1" id="Слой_1" xmlns="http://www.w3.org/2000/svg" xmlns:xlink="http://www.w3.org/1999/xlink" x="0px" y="0px"
	 viewBox="0 0 240 72" style="enable-background:new 0 0 240 72;" xml:space="preserve">
<style type="text/css">
	.st0{fill:#2D323E;}
</style>
<path class="st0" d="M89.2,62.7c-1.2-1.1-2.6-1.2-3.8-1.2h-2V58h5.8v-2.5h-8.7v15.2h5c1.3,0,3.2-0.2,4.3-1.8
	c0.5-0.8,0.8-1.7,0.8-2.7C90.7,64.6,90.1,63.5,89.2,62.7z M84.8,68.1h-1.4V64h1.5c2.2,0,2.8,1.1,2.8,2.1S87.2,68.1,84.8,68.1
	 M92.7,70.6h8.4v-2.6h-5.4v-4.1h4.2v-2.5h-4.2V58h5.4v-2.5h-8.4V70.6z M119.2,68.1h-4.9V55.5h-2.9v12.6h-4.9V55.5h-2.9v15.2h18.5
	V55.5h-2.9L119.2,68.1z M133.5,55.5h-9.7V58h3.4v12.7h2.9V58h3.4V55.5z M156.3,55.5l-3.3,7.7l-3.8-7.7h-3.5l5.6,10.9l-2.1,4.2h3.2
	l7-15.2L156.3,55.5z M138.9,55.5l-6.4,15.2h3.2l1.3-3.2h6.1l1.3,3.2h3.2l-6.2-15.2H138.9z M138,65.1l2.2-5.5l2.1,5.5H138z
	 M155.1,36.7l3.2-3.2l-3.2-3.2l-3.2,3.2l-3.2-3.2l3.2-3.2l-3.2-3.2l-3.2,3.2l-3.2-3.2l3.2-3.2l-3.2-3.2l-3.2,3.2l-3.2-3.2L139,14
	l-3.2-3.2l-3.2,3.2l-3.2-3.2l3.2-3.2l-3.2-3.2l-3.2,3.2L120,1.4l-6.4,6.4l-3.2-3.2l-3.2,3.2l3.2,3.2l-3.2,3.2L104,11l-3.2,3.2
	l3.2,3.2l-3.2,3.2l-3.2-3.2l-3.2,3.2l3.2,3.2l-3.2,3.2L91.1,24l-3.2,3.2l3.2,3.2l-3.2,3.2l-3.2-3.2l-3.2,3.2l3.2,3.2l-6.2,6.2
	l6.4,6.4h70.2l6.4-6.4L155.1,36.7z M132.8,43.1L120,30.3l-12.8,12.8l-9.6-9.7L120,11l22.3,22.5L132.8,43.1z"/>
</svg>
