<svg width="149" height="41" viewBox="0 0 149 41" fill="none" xmlns="http://www.w3.org/2000/svg">
<path d="M118.084 12.7343L123.595 8.69434H105.15V32.9603H123.595V28.9203H110.413V22.7083H121.657V18.6663H110.413V12.7343H118.084Z" fill="#2A303E"/>
<path d="M91.2253 18.1553H84.8209V12.7353H95.0458L100.557 8.69531H79.5566V32.9613H90.5476C96.7127 32.9613 100.248 30.1833 100.248 25.3393C100.248 20.7053 97.0445 18.1553 91.2253 18.1553ZM90.3023 28.9213H84.8129V22.1953H90.3023C93.6423 22.1953 95.1986 23.3193 95.1986 25.5573C95.1986 27.8433 93.5518 28.9213 90.3023 28.9213Z" fill="#2A303E"/>
<path d="M138.54 8.69531H128.486V32.9613H133.751V26.0873H138.53C144.939 26.0873 148.92 22.7353 148.92 17.3793C148.92 12.0233 144.939 8.69531 138.53 8.69531M138.418 22.0473H133.751V12.7353H138.418C141.79 12.7353 143.646 14.3893 143.646 17.3913C143.646 20.3933 141.788 22.0473 138.418 22.0473Z" fill="#2A303E"/>
<path d="M70.5197 27.7067C69.1238 28.4596 67.5592 28.8497 65.9713 28.8407C61.2258 28.8407 57.7813 25.4707 57.7813 20.8287C57.7813 16.1867 61.2258 12.8287 65.9713 12.8287C67.6862 12.8041 69.364 13.3263 70.759 14.3187L74.5353 11.5507L74.2859 11.3327C72.074 9.40667 69.1363 8.38867 65.7682 8.38867C62.1146 8.38867 58.7988 9.61267 56.4321 11.8387C54.0653 14.0647 52.7402 17.2267 52.7402 20.7047C52.7402 24.1827 54.0472 27.3967 56.418 29.7047C58.7887 32.0127 62.1065 33.2927 65.734 33.2927C69.5284 33.2927 72.8422 31.9767 75.0882 29.5827L71.6819 27.0847L70.5197 27.7067Z" fill="#2A303E"/>
<mask id="mask0_6151_71535" style="mask-type:luminance" maskUnits="userSpaceOnUse" x="0" y="0" width="41" height="41">
<path d="M40.222 20.7107C40.2224 19.5088 40.1148 18.3094 39.9002 17.1267L35.571 20.2987C35.571 20.4367 35.571 20.5727 35.571 20.7107C35.5746 24.1515 34.4195 27.4944 32.29 30.2061C30.1606 32.9178 27.1794 34.8421 23.8221 35.672C20.4648 36.5018 16.9248 36.1895 13.7668 34.7848C10.6088 33.38 8.0148 30.9638 6.39852 27.9216C4.78225 24.8794 4.23686 21.3864 4.84936 18C5.46186 14.6135 7.19697 11.5286 9.77789 9.23737C12.3588 6.94617 15.6368 5.58066 19.089 5.35868C22.5412 5.13671 25.9688 6.07105 28.8248 8.01267L32.7358 5.14667C29.1869 2.29818 24.7699 0.734134 20.2097 0.711193C15.6494 0.688253 11.2168 2.20778 7.63911 5.02042C4.06143 7.83306 1.55124 11.7718 0.520443 16.1902C-0.510357 20.6086 -0.000538858 25.2443 1.96624 29.3366C3.93302 33.4289 7.23995 36.7347 11.3444 38.7115C15.4488 40.6884 20.1068 41.2188 24.5543 40.2158C29.0017 39.2129 32.9743 36.7361 35.8201 33.1918C38.6659 29.6476 40.216 25.2465 40.2159 20.7107H40.222Z" fill="white"/>
</mask>
<g mask="url(#mask0_6151_71535)">
<mask id="mask1_6151_71535" style="mask-type:luminance" maskUnits="userSpaceOnUse" x="-2" y="-1" width="44" height="43">
<path d="M41.2248 -0.291016H-1.00391V41.711H41.2248V-0.291016Z" fill="white"/>
</mask>
<g mask="url(#mask1_6151_71535)">
<mask id="mask2_6151_71535" style="mask-type:luminance" maskUnits="userSpaceOnUse" x="-2" y="-1" width="44" height="43">
<path d="M41.2248 -0.291016H-1.00391V41.711H41.2248V-0.291016Z" fill="white"/>
</mask>
<g mask="url(#mask2_6151_71535)">
<rect x="-1.06836" y="-0.382812" width="42.3715" height="42.144" fill="#2A303E"/>
</g>
</g>
</g>
<path d="M36.0255 8.48047C36.9822 9.70816 37.792 11.0425 38.4384 12.4565L20.116 25.8885L12.4609 21.1145V15.3725L20.116 20.1465L36.0255 8.48047Z" fill="#2A303E"/>
</svg>
