<svg width="83" height="71" viewBox="0 0 83 71" fill="none" xmlns="http://www.w3.org/2000/svg">
<path d="M10.7192 62.0498C9.54721 60.9909 8.08309 60.8143 6.91224 60.8143H4.92024V57.3409H10.7192V54.8098H1.992V69.9976H6.97089C8.25905 69.9976 10.1913 69.8198 11.3046 68.1721C11.8453 67.3739 12.1313 66.4295 12.1246 65.4643C12.1833 63.9932 11.5979 62.8154 10.7192 62.0498ZM6.32571 67.4076H4.92024V63.3443H6.38436C8.61097 63.3443 9.13775 64.4621 9.13775 65.4043C9.13775 66.3465 8.66852 67.4054 6.32681 67.4054M14.2339 69.9976H22.6092V67.4076H17.1622V63.2854H21.321V60.7554H17.1622V57.3409H22.6092V54.8098H14.2339V69.9976ZM40.7098 67.4076H35.8471V54.8098H32.9189V67.4065H28.0573V54.8109H25.128V69.9987H43.6381V54.8098H40.7087L40.7098 67.4076ZM55.0013 54.8098H45.2782V57.3409H48.6756V69.9965H51.6039V57.3409H55.0013V54.8098ZM77.8452 54.8098L74.565 62.4621L70.7581 54.8098H67.3019L72.9249 65.7587L70.8167 69.9976H74.0371L81.0667 54.8087L77.8452 54.8098ZM60.3908 54.8098L54.0053 69.9976H57.2268L58.5748 66.8187H64.6659L66.0138 69.9965H69.1766L62.9682 54.8098H60.3908ZM59.4535 64.4054L61.6203 58.9298L63.7296 64.4054H59.4535ZM76.6145 36.0309L79.8371 32.7932L76.6156 29.5554L73.3941 32.7932L70.1726 29.5554L73.393 26.3176L70.1726 23.0809L66.9511 26.3176L63.7296 23.0809L66.95 19.8421L63.7296 16.6054L60.507 19.8421L57.2866 16.6054L60.507 13.3676L57.2866 10.1298L54.064 13.3676L50.8436 10.1298L54.064 6.89205L50.8436 3.65427L47.621 6.89205L41.5299 0.710938L35.1444 7.1276L31.924 3.88983L28.7014 7.1276L31.9229 10.3654L28.7025 13.6032L25.4799 10.3654L22.2584 13.6032L25.4799 16.8409L22.2584 20.0776L19.0369 16.8409L15.8154 20.0776L19.0358 23.3154L15.8154 26.5532L12.5939 23.3154L9.37236 26.5532L12.5928 29.7909L9.37236 33.0287L6.15085 29.7909L2.92824 33.0287L6.15085 36.2665L0 42.4476L6.38547 48.8643H76.6145L83 42.4476L76.6145 36.0309ZM54.2986 42.4476L41.5299 29.6143L28.7601 42.4476L19.1542 32.7932L41.5299 10.3065L63.8458 32.7932L54.2986 42.4476Z" fill="#2A303E"/>
</svg>
