<?xml version="1.0" encoding="utf-8"?>
<!-- Generator: Adobe Illustrator 19.2.1, SVG Export Plug-In . SVG Version: 6.00 Build 0)  -->
<svg version="1.1" id="Слой_1" xmlns="http://www.w3.org/2000/svg" xmlns:xlink="http://www.w3.org/1999/xlink" x="0px" y="0px"
	 viewBox="0 0 240 72" style="enable-background:new 0 0 240 72;" xml:space="preserve">
<style type="text/css">
	.st0{fill:#2D323E;}
</style>
<path class="st0" d="M192.4,47.8v-2.5c-6.8,0-12.1-3.2-12.1-10.5c0-7.4,5.3-10.5,12.1-10.5h6c6.8,0,12.1,3.2,12.1,10.5
	c0,7.4-5.3,10.5-12.1,10.5v2.5H192.4z M198.4,41.3c4.1,0,5.7-2.8,5.7-6.6c0-3.8-1.5-6.6-5.7-6.6V41.3z M192.4,28
	c-4.1,0-5.7,2.8-5.7,6.6c0,3.7,1.3,6.6,5.7,6.6V28z M137.9,24.2c5.3,0,10.7,2.2,10.7,8.4c0,6.2-5.4,8.4-10.7,8.4h-4.7v6.6h-6V28
	l-1.6-3.8H137.9z M133.2,28v9.1h4.7c3.1,0,4.4-1.6,4.4-4.6c0-3.1-1.5-4.6-4.4-4.6H133.2z M164.1,23.6c7.8,0,13.3,4.3,13.3,12.4
	c0,8.1-5.6,12.4-13.3,12.4c-7.8,0-13.3-4.3-13.3-12.4C150.8,27.7,156.4,23.6,164.1,23.6z M164.1,27.3c-5,0-6.9,4.1-6.9,8.7
	c0,4.6,1.9,8.7,6.9,8.7c5,0,6.9-4.3,6.9-8.7C171,31.4,169.1,27.3,164.1,27.3z M122,47.8h-6V28h-11.3v19.7h-6V24.2H122V47.8z M88,28
	v19.7h-6V28h-8.4v-3.8h21.4l1.6,3.8H88z M76.8,47.8h-6l-1.5-3.7h-8.1l-1.6-3.8h8.1l-4.6-11.1l-7.5,18.6h-6l8.2-20.3l-1.3-3.2h10.7
	L76.8,47.8z M44.1,28v19.7h-6V28h-8.5v-3.8h21.4l1.6,3.8H44.1z"/>
</svg>
