<svg width="40" height="40" viewBox="0 0 40 40" fill="none" xmlns="http://www.w3.org/2000/svg">
<rect width="40" height="40" rx="20" fill="#80BDE8" fill-opacity="0.6"/>
<path d="M5.82846 23.4314C5.75525 23.5293 5.7431 23.6518 5.75525 23.7993C5.76739 23.9461 5.80417 24.0686 5.90167 24.1543C5.92632 24.1421 5.93846 24.1054 5.9506 24.0318C5.96275 24.13 5.97489 24.2889 6.09703 24.2889C6.20703 24.2768 6.1581 24.0811 6.21917 24.0439C6.23132 24.0811 6.2681 24.2036 6.30489 24.1911C6.48775 23.9339 6.4756 23.4436 6.30489 23.3946C6.2681 23.4314 6.24346 23.6029 6.23132 23.7375C6.21917 23.5418 6.19489 23.4314 6.19489 23.3211C6.18239 23.26 6.08489 23.2354 5.97489 23.3089C5.91417 23.3825 5.93846 23.6396 5.90167 23.7868C5.88953 23.6764 5.87739 23.5661 5.8531 23.4439C5.8531 23.4189 5.8406 23.4189 5.82846 23.4314ZM5.91417 21.115C5.91417 21.2132 5.91417 21.3357 5.92632 21.4339C5.96275 21.4707 6.08489 21.4707 6.17025 21.4461C6.2681 21.4093 6.31667 21.3725 6.32917 21.2621C6.32917 21.1521 6.23132 21.1029 6.12167 21.0786C6.06937 21.0666 6.01505 21.0666 5.96275 21.0786C5.93846 21.0786 5.92632 21.0907 5.91417 21.115ZM6.65846 16.7893C6.65846 16.8871 6.65846 16.9975 6.67096 17.0957C6.60989 16.9607 6.51203 17.0221 6.49989 17.0957C6.49989 17.3775 6.48775 17.6714 6.48775 17.9536C6.4756 18.0514 6.45096 18.1129 6.42667 18.1739C6.42667 17.8921 6.43882 17.5982 6.41453 17.3407C6.38989 17.3286 6.35346 17.3407 6.32882 17.3407C6.0606 17.6229 5.79203 17.9168 5.52346 18.1986C5.49882 18.2232 5.46239 18.1986 5.46239 18.1618C5.46239 17.6839 5.46239 17.2182 5.47453 16.7404C5.57239 16.7404 5.65775 16.7404 5.75525 16.7279C5.76739 16.875 5.76739 17.01 5.77989 17.1568C5.79203 17.3282 5.87739 17.3775 5.93846 17.3161C6.0606 17.1325 6.18239 16.9607 6.30453 16.7768H6.5731C6.60989 16.7768 6.62203 16.7525 6.65882 16.7525L6.65846 16.7893ZM5.71882 19.0686C5.71882 19.2771 5.71882 19.4975 5.73096 19.7061L5.69417 19.7793V18.8725C5.69417 18.8357 5.71882 18.8114 5.75525 18.8114H5.93846C5.9506 18.8114 5.97489 18.8357 5.98739 18.8357H6.48739C6.49989 18.9582 6.49989 19.0929 6.51239 19.2279C6.4756 19.1421 6.42667 19.0686 6.38989 19.0686H6.08489C6.0606 19.0686 6.03596 19.0932 6.03596 19.1175C6.0481 19.4975 6.0606 19.8896 6.0606 20.2696C6.07275 20.2818 6.08489 20.3064 6.09703 20.3186H6.18275L6.20703 20.3432H5.71882C5.70667 20.3311 5.69417 20.3186 5.68203 20.3186C5.77989 20.2818 5.86525 20.2207 5.92632 20.1225C5.91217 19.8082 5.90395 19.4936 5.90167 19.1789C5.86525 19.1421 5.77989 19.0811 5.71882 19.0686ZM5.59667 21.0171C5.59667 20.9925 5.59667 20.9682 5.60882 20.9561C5.87739 20.9561 6.2681 20.9436 6.42667 20.9925C6.58525 21.0661 6.60989 21.2254 6.58525 21.385C6.54882 21.6789 6.29239 21.7771 5.96275 21.7893C5.9506 21.7893 5.93846 21.8014 5.93846 21.8261C5.92632 21.9854 5.91417 22.1568 5.91417 22.3161C5.90167 22.4018 5.75525 22.3775 5.75525 22.2918C5.75525 21.8871 5.76739 21.5196 5.76739 21.115C5.73096 21.0786 5.65775 21.0539 5.59667 21.0171ZM5.59667 23.7379C5.59667 23.3211 5.81632 22.9904 6.09703 22.9904C6.37775 22.9904 6.59739 23.3211 6.59739 23.7379C6.59739 24.1546 6.37775 24.4854 6.09739 24.4854C5.82846 24.4854 5.59667 24.1421 5.59667 23.7379ZM7.52525 24.3014V16.5443C7.52525 16.2379 7.26882 15.9804 6.95167 15.9804H5.2181C4.90096 15.9804 4.64453 16.2375 4.64453 16.5443V24.3014C4.64453 24.6079 4.90096 24.865 5.2181 24.865H6.95167C7.26882 24.865 7.52525 24.62 7.52525 24.3014ZM14.1777 19.0075C14.1899 18.9218 14.2267 18.8361 14.1899 18.7011L13.6774 16.7154C12.3224 16.4707 12.2738 17.9779 11.2602 18.9829C11.1506 18.0393 10.8699 17.4386 10.406 17.2918C10.4302 17.0954 10.406 16.9118 10.3327 16.7157C10.2838 16.7157 10.2227 16.7157 10.1742 16.7279C10.1742 16.5686 10.1863 16.3971 10.1863 16.2379H9.89346C9.89346 16.3236 9.89346 16.4214 9.9056 16.5075C9.95417 16.5075 9.97882 16.5075 10.0152 16.5196C9.97882 18.2475 9.50275 18.75 8.72132 18.4436C8.14775 19.9507 8.12346 21.7279 7.91596 23.3825C8.05025 23.3946 8.18453 23.4189 8.31882 23.4314C8.31882 24.0196 8.77025 24.51 9.0756 25C9.83239 24.5589 9.64917 21.7771 10.1131 20.3311C10.1863 20.3311 10.2595 20.3432 10.3327 20.3432L10.516 22.4754C10.8695 22.5861 11.2238 22.6839 11.5899 22.7939C12.0174 20.5514 12.4567 19.0196 13.4577 18.9461L13.531 21.6421C13.531 21.875 13.7631 21.8014 13.787 21.6421C13.8481 20.735 13.9213 19.8529 14.1777 19.0075ZM16.5456 19.7793C16.4117 19.8161 16.2774 19.865 16.1431 19.9021C16.192 19.5589 16.2163 18.8725 16.2774 18.8479C16.546 18.7746 16.7531 19.7182 16.5456 19.7793ZM18.2674 20.1839C18.3038 20.1839 18.3406 20.1714 18.3895 20.1714C17.9867 18.5418 18.182 16.6054 17.4374 15H16.2656C15.8506 17.1321 15.0449 19.0686 14.6906 21.1643C14.6177 21.2132 14.5442 21.25 14.471 21.2989C14.4588 20.8211 14.471 20.3311 14.4467 19.8529C14.3367 19.9636 14.1902 20.0736 14.0806 20.1839C13.8974 21.8018 13.9949 23.3457 14.1413 24.8896C14.6261 24.7818 15.122 24.7324 15.6185 24.7425C15.7285 22.8554 15.472 20.3675 16.8513 20.4532C17.0224 21.2746 17.1567 22.0832 17.3274 22.9043C17.5227 22.7818 17.706 22.6714 17.901 22.5489C17.8645 22.1811 17.8524 21.8136 17.8156 21.4461C17.8767 21.4829 17.9377 21.5075 17.9988 21.5439C18.0352 21.6911 18.0595 21.8382 18.0963 21.9854C18.1452 21.9486 18.1942 21.9118 18.2427 21.8629C18.2552 21.2989 18.2674 20.7354 18.2674 20.1839ZM23.0399 21.4214C23.2842 20.3064 23.4674 19.1054 23.3942 17.6346C23.2231 17.5489 22.9424 17.4632 22.8813 17.3775C22.7956 17.1204 22.7106 16.8504 22.6249 16.6054C22.5152 16.6421 22.3931 16.6668 22.2831 16.7036C21.9538 17.5982 21.9538 18.6764 21.9781 19.7793C21.9413 20.5636 21.5874 20.6864 21.136 20.3921C20.9527 20.3064 20.7331 20.1471 20.501 20.0121C20.2938 18.9093 20.721 18.2107 20.721 17.3286C20.6474 17.1321 20.5377 17.0343 20.2817 17.0221C20.1227 17.0096 19.9638 17.0221 19.8174 17.0221C19.7077 17.0221 19.6345 17.1325 19.6224 17.2425C19.5245 17.9532 19.5124 18.7011 19.366 19.4118C19.2195 19.7918 18.9388 20.1346 18.6945 20.4779C18.792 20.4657 18.8899 20.4536 18.9752 20.4411C19.0974 20.4043 19.1338 20.5146 19.1463 20.6375C19.1463 20.7354 19.1585 20.8332 19.1585 20.9189C19.0974 20.9189 19.0606 20.9314 18.9999 20.9314C18.9999 20.8579 18.9874 20.7843 18.9752 20.7107H18.8288C18.8652 21.1154 18.8652 21.385 18.8288 21.6911C18.7431 22.1689 18.6456 22.6714 18.5967 23.2232C18.5113 23.2843 18.426 23.3579 18.3406 23.4193C18.3406 23.2479 18.3527 23.0882 18.3406 22.9168H18.1942C18.2185 23.1864 18.2549 23.4561 18.2917 23.7254C18.4749 23.7621 18.6581 23.7989 18.841 23.8479C19.1706 25.0857 20.1227 25.1961 20.086 23.5661C20.0738 22.7082 20.1717 22.01 21.0502 21.9732C21.0138 21.7646 20.977 21.5318 20.9285 21.3232C21.2213 21.3725 21.551 21.5075 21.9535 21.8136C22.027 21.875 22.0635 21.985 22.0881 22.1446C22.1613 22.6593 22.2224 23.1739 22.3077 23.6886C22.4542 23.7379 22.6127 23.7743 22.7592 23.8236C22.7717 23.0761 22.796 22.3286 22.8081 21.5932C22.9056 21.5564 23.0156 21.495 23.0402 21.4218M29.3877 20.7968C29.7417 19.6818 29.8638 18.3825 29.6442 16.8507C29.0827 16.5811 28.7774 16.0543 28.8627 15.2211C28.0695 15.6132 28.277 16.7896 28.0206 18.7382C27.5202 21.6793 26.617 23.6646 25.1277 23.5054C24.9813 21.7775 25.042 20.1475 25.1399 18.5543C25.2006 18.5421 25.262 18.5421 25.3231 18.5296L25.2124 16.9607C25.0652 16.9464 24.9186 16.9261 24.7731 16.8996C24.5777 17.2918 24.3456 17.6593 23.9431 17.9411C23.9306 17.4632 23.9917 17.0957 24.1138 16.7157C24.1506 16.5318 24.2481 16.4336 24.3945 16.3604C24.5167 16.2621 24.5535 16.1275 24.5535 16.0171C24.4188 16.005 24.297 15.9804 24.1627 15.9682C23.1252 19.4118 23.5035 21.5196 24.1017 23.4436C24.1624 23.6029 24.236 23.7257 24.297 23.7989C24.712 24.1911 25.2002 24.5711 25.6642 24.9386C26.482 24.8775 26.9702 24.485 27.2267 23.86C27.1656 23.86 27.0924 23.8479 27.0313 23.8479V24.1175C26.8849 24.13 26.7138 24.1543 26.567 24.1668C27.0067 23.4561 27.2635 22.7082 27.6049 22.0464C27.7149 21.8382 27.971 21.6668 28.0931 21.5929C28.0931 21.875 28.081 22.1571 28.081 22.4386C27.971 22.5121 27.8856 22.5982 27.7756 22.6714C27.7635 22.9289 27.7149 23.2107 27.7027 23.4804H27.8613C27.8977 23.3457 27.9467 23.1864 27.9835 23.0393C28.081 23.0025 28.1785 22.9779 28.2885 22.9411C28.3006 23.125 28.3127 23.3089 28.3374 23.4925C28.4717 23.5171 28.6181 23.5418 28.7645 23.5661C28.6788 23.0025 28.6788 22.4511 28.8135 21.9239C28.8867 21.875 28.9477 21.8382 28.9963 21.8261C29.0085 21.9239 29.0331 22.0221 29.0452 22.1079H29.2163C29.2163 21.7157 29.2285 21.3236 29.2285 20.9314C29.2649 20.8946 29.326 20.8457 29.387 20.7964M33.2567 19.0929C33.2077 19.2157 33.1588 19.3261 33.1102 19.3871C33.0002 19.4364 32.8781 19.4486 32.7681 19.4239C31.6452 19.0686 31.4377 18.3579 31.5231 17.6225C31.7917 17.8675 32.036 18.1129 32.3045 18.3457V18.0636C32.2188 17.9779 32.1456 17.9043 32.0602 17.8307C32.0376 17.7743 32.0302 17.7129 32.0388 17.6527C32.0474 17.5926 32.0717 17.5357 32.1092 17.4879C32.4207 18.0703 32.8064 18.6099 33.2567 19.0932M35.112 16.5325C35.0142 16.5446 34.941 16.5568 34.831 16.5689L34.7945 17.2061C34.3552 17.2554 33.8424 16.7161 33.4395 16.1646C32.4752 15.0739 31.9992 15.1107 31.4377 16.3118C30.8395 16.385 30.6688 16.8018 30.5956 17.2061H30.4002C30.3756 17.4636 30.3513 17.7332 30.327 17.9907C30.4002 18.0029 30.4977 18.0271 30.571 18.0396C30.5956 18.5175 30.9985 18.9711 31.7674 19.4243V19.5468C30.8274 20.6743 29.8874 21.8018 28.9599 22.9293C28.9963 23.1743 29.0331 23.4071 29.082 23.6521C29.4606 23.775 29.7288 23.9586 29.9363 24.1793C30.8274 23.5054 31.6327 22.7332 32.3777 21.9C32.3652 21.8386 32.3288 21.7286 32.3167 21.6671C32.0238 21.9857 31.7552 22.3411 31.462 22.66L31.3524 22.5125C31.4867 22.3657 31.6331 22.2064 31.7674 22.0589C31.8038 21.9611 31.7306 21.8139 31.7674 21.7039C32.121 21.2993 32.4263 20.9439 32.8902 19.9389C32.9635 19.9514 33.0735 19.9639 33.1467 19.9757C33.1956 19.8411 33.2324 19.7064 33.281 19.5714C33.3542 19.5714 33.4152 19.5593 33.4881 19.5593C33.8302 20.3436 33.7813 22.2064 33.7935 23.6771C33.8424 23.6771 33.9035 23.6889 33.9524 23.6889C34.001 23.2354 34.0378 22.7946 34.0867 22.3411H34.2695C34.2574 22.8314 34.2331 23.3214 34.221 23.8239L34.9045 23.7871C35.3927 20.6868 35.527 18.3829 35.1117 16.5321" fill="white"/>
</svg>
