<svg width="984" height="535" viewBox="0 0 984 535" fill="none" xmlns="http://www.w3.org/2000/svg">
<g clip-path="url(#clip0_6159_69165)">
<g opacity="0.3" filter="url(#filter0_f_6159_69165)">
<ellipse cx="69.0397" cy="332.405" rx="307.179" ry="636.759" transform="rotate(-120 69.0397 332.405)" fill="#80BDE8"/>
</g>
<g opacity="0.8" filter="url(#filter1_f_6159_69165)">
<path d="M789.843 -299.658C683.165 -464.427 463.113 -511.52 298.343 -404.842C133.573 -298.164 86.4806 -78.112 193.159 86.6578C299.837 251.428 519.889 298.52 684.659 191.842C849.428 85.1642 896.521 -134.888 789.843 -299.658Z" fill="#0284D8"/>
</g>
<g opacity="0.4" filter="url(#filter2_f_6159_69165)">
<path d="M760.602 -280.726C664.38 -429.347 465.895 -471.824 317.274 -375.601C168.653 -279.379 126.176 -80.8937 222.398 67.7272C318.621 216.348 517.106 258.825 665.727 162.603C814.348 66.38 856.825 -132.105 760.602 -280.726Z" fill="#B0E0FF"/>
</g>
<path d="M737.354 -265.673C649.444 -401.454 468.107 -440.261 332.327 -352.352C196.546 -264.443 157.739 -83.106 245.648 52.6747C333.558 188.455 514.894 227.263 650.675 139.353C786.456 51.4439 825.263 -129.893 737.354 -265.673Z" fill="url(#paint0_radial_6159_69165)"/>
<path d="M646.433 46.7924C620.093 60.3861 587.701 50.0341 574.084 23.6706C560.467 -2.69291 570.781 -35.0847 597.121 -48.6784C623.462 -62.2721 655.853 -51.9201 669.47 -25.5566C683.087 0.806905 672.773 33.1986 646.433 46.7924Z" fill="#A0D5FF"/>
<path d="M645.556 -47.4086C616.955 -58.0507 584.881 -43.3589 573.903 -14.6474C568.132 0.444981 569.379 16.3537 575.945 29.6416C566.598 15.3562 563.974 -3.08404 570.609 -20.4354C581.6 -49.1796 613.694 -63.8265 642.263 -53.1965C655.846 -48.1422 666.165 -38.2448 672.091 -26.2044C665.935 -35.6003 656.893 -43.1906 645.556 -47.4086Z" fill="#3A99E4"/>
<path d="M308.542 7.07071C302.113 23.9661 283.341 32.5873 266.614 26.3267C249.887 20.0661 241.539 1.29436 247.968 -15.601C254.398 -32.4964 273.169 -41.1176 289.896 -34.857C306.623 -28.5964 314.971 -9.82469 308.542 7.07071Z" fill="#A0D5FF"/>
<path d="M292.179 -31.5303C275.403 -37.7726 256.599 -29.1751 250.152 -12.3147C246.773 -3.4753 247.51 5.88621 251.343 13.6699C245.868 5.3129 244.327 -5.54475 248.207 -15.6937C254.653 -32.5541 273.457 -41.1516 290.234 -34.9093C298.215 -31.9396 304.258 -26.1386 307.738 -19.0848C304.11 -24.5854 298.825 -29.0576 292.179 -31.5303Z" fill="#3A99E4"/>
<path d="M586.457 62.2776C588.33 57.3541 585.91 51.9106 581.035 50.0862C576.161 48.2618 570.717 50.7617 568.844 55.6853C566.97 60.6089 569.391 66.0523 574.265 67.8767C579.14 69.7012 584.583 67.2012 586.457 62.2776Z" fill="#A0D5FF"/>
<path d="M581.694 51.0654C576.808 49.2473 571.351 51.742 569.474 56.6528C568.498 59.2065 568.716 61.9431 569.83 64.1897C568.228 61.7612 567.796 58.6088 568.922 55.6623C570.8 50.7515 576.256 48.2567 581.142 50.0749C583.455 50.9355 585.222 52.64 586.235 54.6624C585.17 53.0693 583.661 51.76 581.706 51.0327L581.694 51.0654Z" fill="#3A99E4"/>
<path d="M329.217 14.5486C331.09 9.62506 328.669 4.18166 323.795 2.35721C318.92 0.532762 313.477 3.03271 311.603 7.95628C309.73 12.8799 312.151 18.3233 317.025 20.1477C321.9 21.9722 327.343 19.4722 329.217 14.5486Z" fill="#A0D5FF"/>
<path d="M324.485 3.3506C319.599 1.53241 314.142 4.02717 312.265 8.93801C311.289 11.4917 311.507 14.2282 312.621 16.4749C311.019 14.0464 310.587 10.8939 311.713 7.94744C313.591 3.0366 319.047 0.541867 323.933 2.36006C326.246 3.22067 328.013 4.92524 329.026 6.94758C327.961 5.35448 326.452 4.04513 324.498 3.31786L324.485 3.3506Z" fill="#3A99E4"/>
<path d="M365.163 89.0236C368.898 79.2092 364.037 68.2774 354.32 64.6407C344.604 61.0039 333.672 66.0246 329.937 75.8389C326.203 85.6532 331.064 96.585 340.781 100.222C350.497 103.858 361.429 98.8379 365.163 89.0236Z" fill="#A0D5FF"/>
<path d="M355.682 66.5796C345.942 62.9554 334.984 67.9655 331.241 77.7544C329.276 82.8944 329.694 88.3227 331.94 92.8609C328.737 88.004 327.873 81.6991 330.126 75.8061C333.868 66.0171 344.826 61.007 354.566 64.6312C359.192 66.3525 362.706 69.7168 364.739 73.839C362.653 70.6322 359.546 68.0548 355.702 66.6245L355.682 66.5796Z" fill="#3A99E4"/>
<path d="M638.257 116.413C641.992 106.598 637.13 95.6666 627.414 92.0299C617.697 88.3931 606.766 93.4137 603.031 103.228C599.296 113.042 604.158 123.974 613.874 127.611C623.591 131.248 634.523 126.227 638.257 116.413Z" fill="#A0D5FF"/>
<path d="M628.775 93.9697C619.035 90.3455 608.078 95.3556 604.335 105.145C602.37 110.285 602.788 115.713 605.034 120.251C601.83 115.394 600.967 109.089 603.22 103.196C606.962 93.4072 617.92 88.3971 627.66 92.0214C632.286 93.7426 635.799 97.1069 637.833 101.229C635.747 98.0223 632.639 95.4449 628.795 94.0146L628.775 93.9697Z" fill="#3A99E4"/>
<path d="M558.403 51.4504C552.367 67.3125 534.743 75.4064 519.039 69.5287C503.335 63.6509 495.498 46.0273 501.534 30.1652C507.57 14.3031 525.193 6.20919 540.897 12.0869C556.601 17.9647 564.439 35.5883 558.403 51.4504Z" fill="#A0D5FF"/>
<path d="M543.058 15.1946C527.324 9.34024 509.647 17.4223 503.601 33.2348C500.422 41.5504 501.099 50.291 504.732 57.626C499.588 49.7662 498.146 39.6191 501.801 30.0596C507.847 14.247 525.524 6.16496 541.258 12.0193C548.751 14.8071 554.412 20.242 557.679 26.8799C554.303 21.697 549.313 17.5218 543.058 15.1946Z" fill="#3A99E4"/>
<path opacity="0.1" d="M480.359 84.3965C406.91 105.755 332.123 102.401 264.911 79.2647C337.027 167.041 457.063 208.37 573.058 174.647C728.4 129.505 817.717 -33.0217 772.542 -188.354C764.456 -216.185 752.536 -241.853 737.653 -265.047C740.691 -107.734 638.663 38.3431 480.349 84.3638L480.359 84.3965Z" fill="#0D7CD8"/>
<path opacity="0.1" d="M518.79 128.183C449.228 148.392 378.486 146.471 314.105 126.546C385.433 180.782 480.619 201.722 573.258 174.761C726.238 130.282 815.098 -28.0254 774.612 -181.192C761.296 -39.678 663.554 86.0614 518.78 128.15L518.79 128.183Z" fill="#0D7CD8"/>
<path opacity="0.4" d="M553.432 278.855C552.675 280.329 544.442 289.605 540.421 294.058C539.947 293.674 538.575 292.676 536.872 291.755C534.743 290.603 533.323 292.676 532.377 294.058C531.431 295.44 532.14 295.671 533.323 295.901C534.27 296.085 534.664 296.899 534.743 297.283C532.771 297.283 527.977 297.514 524.57 298.435C520.312 299.587 509.902 306.728 511.085 307.189C512.268 307.649 526.463 304.424 528.828 303.503C530.721 302.766 537.345 303.196 540.421 303.503L549.41 313.178C550.751 312.563 553.574 310.966 554.142 309.492C554.71 308.018 557.06 301.814 558.164 298.896C554.931 299.664 548.322 300.969 547.754 300.048C547.045 298.896 552.249 295.21 556.744 290.142C561.239 285.075 577.563 265.034 577.09 264.343C576.617 263.652 576.38 263.882 573.305 266.186C570.229 268.489 554.379 277.012 553.432 278.855Z" fill="white"/>
<path opacity="0.2" d="M493.166 360.163C495.077 355.959 500.81 352.455 504.154 350.119C507.498 347.784 511.559 347.317 518.009 346.616C520.452 346.35 522.063 345.865 523.091 345.353C523.758 344.769 524.307 344.233 524.697 343.813C524.655 344.182 524.234 344.784 523.091 345.353C521.032 347.155 517.839 349.414 514.665 350.119C510.46 351.054 509.25 351.91 509.171 352.221C509.728 353.078 510.126 355.258 507.26 357.126C504.393 358.995 501.925 356.971 501.049 355.725C499.377 357.671 495.746 361.938 494.599 363.433C492.091 366.703 488.545 367.503 486.234 368.604C488.077 367.004 491.702 363.384 493.166 360.163Z" fill="white"/>
<path opacity="0.21" d="M258.29 261.288C258.29 262.153 257.767 262.675 256.72 262.854L255.828 262.632H247.044C245.878 262.426 245.294 261.87 245.294 260.98C245.294 258.712 247.465 257.89 251.796 258.515C253.443 258.755 254.936 259.157 256.283 259.722C257.629 260.287 258.298 260.809 258.298 261.288M295.732 237.76C295.732 234.867 296.195 232.436 297.122 230.468C298.975 226.556 302.423 224.648 307.484 224.742C311.069 224.836 314.509 226.086 317.795 228.499C319.742 229.903 321.191 231.469 322.143 233.198C324.176 231.289 326.939 230.382 330.438 230.468C332.892 230.493 335.611 231.332 338.596 232.975C338.836 233.121 339.059 233.275 339.265 233.421C339.805 231.247 340.697 229.167 341.958 227.198C345.458 221.918 351.222 219.358 359.269 219.504C364.321 219.624 369.27 221.267 374.108 224.425C379.667 228.063 382.48 232.359 382.54 237.306C383.767 236.741 385.294 236.476 387.112 236.502C391.032 236.587 394.455 238.368 397.38 241.825C399.147 243.879 400.562 246.028 401.643 248.27C402.93 245.857 404.706 244.718 406.979 244.872C409.252 244.992 411.208 246.481 412.854 249.349C414.407 252.002 415.05 254.552 414.785 257C416.311 256.701 418.79 257.12 422.23 258.25C425.67 259.379 427.343 261.245 427.248 263.839C418.996 263.779 407.939 263.599 394.069 263.299C380.233 263.034 363.129 263.017 342.773 263.257C322.444 263.522 306.377 263.573 294.574 263.394C282.771 263.214 272.323 263.051 263.231 262.897C261.738 260.244 262.364 258.421 265.118 257.437C267.871 256.427 269.69 256.127 270.59 256.546C271.431 256.932 271.86 257.128 271.894 257.128C272.014 257.128 272.1 257.111 272.16 257.086V256.992C272.28 255.442 272.581 254.099 273.061 252.969C273.962 250.735 275.737 249.648 278.396 249.699C280.163 249.725 281.579 250.187 282.66 251.086C282.925 249.212 283.44 247.568 284.186 246.165C286.099 242.587 289.445 240.841 294.231 240.935C294.832 240.901 295.415 240.935 295.981 241.021C295.835 240.096 295.758 239.009 295.758 237.751M235.696 262.272C235.49 262.067 235.378 261.733 235.378 261.288C235.378 260.304 236.262 259.739 238.02 259.585C239.787 259.439 240.662 260.004 240.662 261.288C240.662 261.648 240.585 261.93 240.439 262.135C240.053 262.615 239.247 262.854 238.02 262.854C236.794 262.854 236.073 262.657 235.687 262.272H235.696Z" fill="#EFF8FF"/>
<path d="M712.097 249.51C711.712 249.798 711.263 250.086 710.718 250.406C710.654 249.766 710.493 249.157 710.269 248.581C706.613 240.388 701.93 236.292 696.158 236.292C689.166 236.292 682.495 238.564 676.113 243.109C669.442 247.653 666.075 252.806 666.075 258.567C666.075 261.287 666.524 265.095 667.454 269.928C667.454 272.04 666.556 274.024 664.728 275.849C662.9 277.673 660.944 278.569 658.795 278.569C655.748 278.569 653.632 277.961 652.413 276.745C651.194 275.241 649.238 274.472 646.48 274.472C644.652 274.472 641.316 276.585 636.442 280.841C631.278 285.098 628.231 287.21 627.333 287.21C624.607 284.778 620.663 283.562 615.499 283.562C610.625 283.562 606.071 285.066 601.837 288.106C597.572 290.826 595.455 293.707 595.455 296.747V298.123C755.168 293.963 890.186 292.299 1000.54 293.131C1000.83 292.011 1000.99 290.666 1000.99 289.034C1000.99 279.945 996.276 275.401 986.88 275.401C980.818 275.689 976.553 276.777 974.115 278.569H970.94C971.55 276.745 971.71 275.241 971.389 274.024C970.78 271.592 968.214 270.376 963.628 270.376C959.042 270.376 955.578 270.984 953.141 272.2V266.728C953.43 264.295 952.532 263.079 950.415 263.079C949.806 263.079 948.747 263.367 947.24 263.975C946.951 264.039 946.631 264.039 946.342 263.975C946.631 263.271 946.791 261.735 946.791 259.431C946.791 245.477 940.409 238.5 927.645 238.5C911.834 238.5 903.046 243.813 901.218 254.406C899.39 264.711 897.434 269.864 895.285 269.864C893.457 269.864 891.341 269.416 888.903 268.488C886.466 267.272 885.119 266.664 884.798 266.664C883.9 266.664 881.623 267.72 877.967 269.832C874.022 271.656 871.425 272.552 870.206 272.552C868.089 272.552 866.261 270.728 864.722 267.08C863.503 263.143 861.066 261.159 857.442 261.159C854.106 261.159 851.541 261.607 849.681 262.535C849.777 262.887 849.777 263.175 849.681 263.431L848.302 264.327C848.686 263.655 849.135 263.047 849.681 262.503C853.946 252.774 856.063 247.461 856.063 246.597C856.063 242.053 855.774 239.012 855.165 237.508C853.337 233.252 849.103 231.139 842.401 231.139H841.021C840.701 220.962 837.814 211.713 832.362 203.392C824.473 191.263 812.607 185.214 796.828 185.214C781.947 185.214 769.183 189.47 758.535 197.951C747.31 206.752 741.666 218.114 741.666 232.067C741.666 237.828 742.275 243.877 743.494 250.246H743.045C742.147 248.421 741.217 246.917 740.319 245.701C738.202 243.589 735.444 242.533 732.109 242.533C725.117 242.533 718.447 244.805 712.065 249.349M1123.57 277.257C1123.57 269.672 1123.28 264.967 1122.67 263.175C1120.55 258.022 1115.39 255.43 1107.18 255.43C1093.8 255.43 1085.91 258.311 1083.48 264.071C1082.26 267.112 1082.42 271.048 1083.93 275.881H1079.37C1075.43 274.376 1072.54 273.608 1070.71 273.608C1068.6 273.608 1066.61 275.113 1064.78 278.153C1063.27 281.193 1061.73 282.697 1060.23 282.697C1058.11 282.697 1055.83 281.481 1053.39 279.049C1050.96 276.329 1049.45 274.953 1048.84 274.953C1047.94 274.953 1045.95 275.561 1042.91 276.777C1039.57 277.993 1037.13 279.369 1035.63 280.873C1032.58 282.985 1031.07 285.418 1031.07 288.138C1030.95 290.41 1030.78 292.075 1030.62 293.131C1044 293.483 1074.37 293.195 1121.77 292.235C1122.99 288.618 1123.6 283.594 1123.6 277.225M1163.21 272.232C1159.55 272.232 1156.05 273.608 1152.72 276.329C1148.29 280.169 1146.14 285.322 1146.34 291.787C1160.64 291.402 1176.13 290.954 1192.81 290.41C1193.7 287.85 1194.19 286.026 1194.19 284.938C1194.19 279.465 1191.3 276.745 1185.53 276.745C1177.32 278.249 1173.08 279.017 1172.76 279.017C1170.65 279.017 1168.82 277.961 1167.28 275.849C1166.06 273.416 1164.68 272.2 1163.17 272.2L1163.21 272.232Z" fill="#EFF8FF"/>
</g>
<defs>
<filter id="filter0_f_6159_69165" x="-853.545" y="-432.497" width="1845.17" height="1529.8" filterUnits="userSpaceOnUse" color-interpolation-filters="sRGB">
<feFlood flood-opacity="0" result="BackgroundImageFix"/>
<feBlend mode="normal" in="SourceGraphic" in2="BackgroundImageFix" result="shape"/>
<feGaussianBlur stdDeviation="175" result="effect1_foregroundBlur_6159_69165"/>
</filter>
<filter id="filter1_f_6159_69165" x="-117.553" y="-715.555" width="1218.11" height="1218.11" filterUnits="userSpaceOnUse" color-interpolation-filters="sRGB">
<feFlood flood-opacity="0" result="BackgroundImageFix"/>
<feBlend mode="normal" in="SourceGraphic" in2="BackgroundImageFix" result="shape"/>
<feGaussianBlur stdDeviation="126.8" result="effect1_foregroundBlur_6159_69165"/>
</filter>
<filter id="filter2_f_6159_69165" x="-82.7172" y="-680.716" width="1148.43" height="1148.43" filterUnits="userSpaceOnUse" color-interpolation-filters="sRGB">
<feFlood flood-opacity="0" result="BackgroundImageFix"/>
<feBlend mode="normal" in="SourceGraphic" in2="BackgroundImageFix" result="shape"/>
<feGaussianBlur stdDeviation="126.8" result="effect1_foregroundBlur_6159_69165"/>
</filter>
<radialGradient id="paint0_radial_6159_69165" cx="0" cy="0" r="1" gradientUnits="userSpaceOnUse" gradientTransform="translate(491.501 -106.499) rotate(-32.9205) scale(292.882)">
<stop offset="0.798077" stop-color="#BAE2FF"/>
<stop offset="1" stop-color="#59B5FF"/>
</radialGradient>
<clipPath id="clip0_6159_69165">
<rect width="984" height="535" fill="white"/>
</clipPath>
</defs>
</svg>
