<svg width="94" height="109" viewBox="0 0 94 109" fill="none" xmlns="http://www.w3.org/2000/svg">
<path d="M69.6549 16.1555C68.8762 17.6844 60.4077 27.3037 56.2708 31.9222C55.7841 31.524 54.3727 30.4889 52.6206 29.5333C50.4304 28.3389 48.9703 30.4889 47.997 31.9222C47.0236 33.3555 47.7536 33.5944 48.9703 33.8333C49.9437 34.0244 50.3493 34.8685 50.4304 35.2666C48.4025 35.2666 43.4707 35.5055 39.9665 36.4611C35.5862 37.6555 24.879 45.0611 26.0957 45.5389C27.3124 46.0167 41.9133 42.6722 44.3468 41.7167C46.2935 40.9522 53.1073 41.3981 56.2708 41.7167L65.518 51.75C66.8969 51.113 69.8009 49.4567 70.3849 47.9278C70.969 46.3989 73.3862 39.9648 74.5218 36.9389C71.1961 37.7352 64.3986 39.0889 63.8145 38.1333C63.0845 36.9389 68.4381 33.1166 73.0618 27.8611C77.6854 22.6055 94.4763 1.82215 93.9896 1.10548C93.5029 0.388813 93.2596 0.627702 90.0961 3.01659C86.9326 5.40549 70.6283 14.2444 69.6549 16.1555Z" fill="#B9E3FE"/>
<path d="M7.40741 99.7593C9.38272 95.3855 15.3086 91.7407 18.7654 89.3107C22.2222 86.8808 26.4198 86.3949 33.0864 85.6659C35.6115 85.3898 37.2768 84.8849 38.3393 84.3524C39.0297 83.7444 39.5968 83.1865 40 82.75C39.9567 83.1338 39.5208 83.7602 38.3393 84.3524C36.2109 86.2267 32.9109 88.5769 29.6296 89.3107C25.284 90.2827 24.0329 91.1737 23.9506 91.4977C24.5267 92.3886 24.9383 94.6565 21.9753 96.6005C19.0123 98.5444 16.4609 96.4385 15.5556 95.1425C13.8272 97.1674 10.0741 101.606 8.88889 103.161C6.2963 106.563 2.63042 107.396 0.241934 108.541C2.14701 106.877 5.89418 103.11 7.40741 99.7593Z" fill="#B9E3FE"/>
</svg>
