<svg xmlns="http://www.w3.org/2000/svg" fill="none" viewBox="0 0 137 105">
  <path fill="#50B6F9" d="m81 47.6-1.4-1.1c0-1.1-.3-7 .5-9.8.6-2.3 12-16 18.5-22.2 1.5-1.4 2.8-2.4 3.5-2.7 2-.8 5.2-.7 8.8-.6 3.2 0 6.5.1 9.4-.4.8-.1 1.6-.4 2.5-.7 6-2.2 14.2-8.2 14.2-8.2s-9.2-.6-20-1C108.6.5 99.4.3 92.5.4A52.1 52.1 0 0 0 64 9v2.3c0 2.8.2 7.5-1.4 10l-.5.5a28.9 28.9 0 0 1-10.5 5l-2.5-.7c-3.3-.8-6.9-1.2-9.5-.4a18 18 0 0 0-3 1.3c-2.8 1.5-3 3-3 3l-.2.3h-.2c-1.2.4-5 1.6-5.6 3-.6 1.5 0 1.7.3 1.2.2-.4.5-.5.8-.5l.4-.1h.2c.8-.3 3-1 4.5-1.8l.6.6 1.3 1c.6.4 1 .7 1 .9 0 .2.7 1.5 1.8 3.2-1 .7-4.6 2.5-10.4 2.9-7.2.5-11.8 1.7-14.4 6.2A198 198 0 0 0 2.5 86.1c0 3.7-.9 9.7-1.5 13.8l-.6 4.6v.1c.2 1.1 9.5-6.2 13.4-14.9a226.3 226.3 0 0 1 5-10.5c2.8-5.2 5.6-9.8 8-12.5 4-4.6 22-12.7 25-13.9a10 10 0 0 1 4.1-.5c4.7 2.1 9.8 3.9 13 4.5 4.2.9 6.1 1.5 7.4 2.3l.8 1.1a25.4 25.4 0 0 0 10 10l.8.4c.5.2.9.4 1 0 .3-.6-1-1.6-1.4-1.8.2.1.8.5 1.6.7 1 .2.5-.4-.3-1.3l-.2-.2-.1-.1-.8-.7c2.4-.5 6-1.9 8.1-2.9.4-.2.8-.4 1-.8 2-2 2.5-6.2 1.7-7.9l-.1-.3-.1-.2c-.6-.6-3.7-1.8-7.1-3.2-3.2-1.2-6.8-2.6-9-3.8v.1l-1.2-.6Z"/>
</svg>
