<svg xmlns="http://www.w3.org/2000/svg" fill="none" viewBox="0 0 144 166">
  <path fill="#50B6F9" d="M106.7 24A379.5 379.5 0 0 1 86 48.2c-.7-.6-2.9-2.2-5.6-3.6-3.3-1.9-5.6 1.4-7 3.6-1.6 2.2-.5 2.6 1.4 3a3 3 0 0 1 2.3 2.2c-3.2 0-10.7.3-16.1 1.8-6.7 1.8-23.1 13.2-21.3 14a154 154 0 0 0 28-6 67 67 0 0 1 18.3 0l14.2 15.4c2.1-1 6.6-3.5 7.5-5.8l6.3-16.9c-5 1.2-15.5 3.3-16.4 1.9-1.1-1.9 7-7.7 14.2-15.8 7-8 32.8-40 32-41-.7-1.2-1-.8-5.9 2.9-4.8 3.6-29.9 17.2-31.3 20.1ZM11.2 151.6c3-6.7 12-12.3 17.4-16 5.3-3.8 11.7-4.5 22-5.6 3.8-.5 6.4-1.2 8-2l2.6-2.5c-.1.6-.8 1.5-2.6 2.4a33.3 33.3 0 0 1-13.4 7.7c-6.6 1.4-8.5 2.8-8.7 3.3 1 1.4 1.5 4.9-3 7.8-4.5 3-8.5-.2-9.8-2.2l-10.3 12.3c-4 5.2-9.6 6.5-13.2 8.3 2.9-2.6 8.6-8.4 11-13.5Z"/>
</svg>
