<svg width="221" height="49" viewBox="0 0 221 49" fill="none" xmlns="http://www.w3.org/2000/svg">
<path d="M79.4985 11.4986C78.5758 9.40521 77.6532 7.29329 76.7305 5.19989C76.6552 5.21841 76.5987 5.23694 76.5234 5.25546C76.5234 5.5704 76.5234 5.90386 76.5234 6.2188C76.5234 11.5727 76.5046 16.9452 76.5422 22.2991C76.5422 23.1513 76.3163 23.4106 75.4501 23.3736C73.6049 23.2809 73.8685 23.5773 73.8685 21.7804C73.8496 15.5002 73.8496 9.20143 73.8685 2.92123C73.8685 2.55072 73.6049 2.01347 74.2639 1.84674C74.9794 1.86527 75.7138 1.9579 76.4293 1.86527C77.5214 1.71706 78.0109 2.19873 78.4252 3.16206C79.875 6.51521 81.419 9.81278 82.9254 13.1289C83.0007 13.3141 83.1137 13.4994 83.302 13.8514C84.0928 12.0729 84.8272 10.4612 85.5427 8.83092C86.4465 6.77457 87.3691 4.69969 88.2541 2.64335C88.4801 2.12463 88.7437 1.86527 89.365 1.90232C90.137 1.9579 90.9279 1.9579 91.7187 1.90232C92.453 1.84674 92.6037 2.14315 92.6037 2.81008C92.566 6.2929 92.566 9.77573 92.566 13.2771C92.566 16.2968 92.5284 19.335 92.566 22.3547C92.566 23.1327 92.4154 23.4477 91.5304 23.4106C89.704 23.355 89.704 23.3921 89.704 21.5951C89.704 16.3709 89.704 11.1652 89.704 5.94091C89.704 5.70008 89.7981 5.45925 89.6286 5.23694C89.4592 5.31104 89.4027 5.44072 89.3839 5.58893C89.3462 6.27438 89.1579 6.90425 88.8755 7.53412C88.1411 9.12733 87.4068 10.7205 86.7101 12.3323C86.5406 12.7398 86.3523 13.1289 85.9381 13.3327C85.618 13.6846 85.5992 14.1663 85.392 14.5553C85.1849 15.352 85.0908 16.1856 84.6577 16.9266C84.2999 17.538 83.7915 17.7788 83.1137 17.7603C82.4358 17.7603 81.9086 17.5195 81.5885 16.8896C80.8918 15.4446 80.2705 13.9625 79.6114 12.499C79.4231 12.1841 79.4985 11.8321 79.4985 11.4986Z" fill="#EFF8FF"/>
<path d="M143.593 20.9102C143.612 20.9287 143.631 20.9658 143.65 20.9843C144.064 21.2992 144.817 20.7435 145.024 21.3919C145.175 21.8365 145.081 22.3552 145.081 22.8554C145.081 24.0596 145.062 25.2452 145.099 26.4494C145.118 27.0607 144.911 27.283 144.29 27.2274C143.8 27.1904 143.292 27.246 142.802 27.246C142.746 27.2274 142.67 27.2274 142.614 27.2089C142.407 26.3197 142.576 25.4119 142.52 24.5042C142.501 24.1707 142.614 23.8372 142.426 23.5223L142.407 23.5038C141.785 23.1703 141.296 23.7446 140.693 23.7261C139.451 23.689 138.17 23.8743 136.965 23.6705C134.913 23.3185 132.879 23.4667 130.846 23.4112C130.695 23.4112 130.62 23.3556 130.582 23.2259C130.601 18.7797 130.62 14.3521 130.639 9.90595C130.639 9.66511 130.639 9.40575 130.639 9.16492C130.657 7.2012 130.657 7.23825 132.653 7.23825C133.312 7.23825 133.425 7.51614 133.425 8.07191C133.406 10.7211 133.425 13.3702 133.425 16.0194C133.425 17.4459 133.444 18.8538 133.406 20.2803C133.388 20.8917 133.614 21.0769 134.216 21.0769C136.137 21.0399 138.038 21.0399 139.959 21.0769C140.618 21.0954 140.806 20.8546 140.806 20.2247C140.788 16.2788 140.844 12.3328 140.769 8.38684C140.75 7.40498 141.07 7.14562 141.974 7.23825C142.501 7.29383 143.047 7.25678 143.574 7.25678L143.593 7.21973C143.819 8.03486 143.744 8.86851 143.687 9.68364C143.518 12.2402 144.007 14.7411 144.026 17.2792C143.97 18.5204 143.894 19.7246 143.593 20.9102Z" fill="#EFF8FF"/>
<path d="M109.663 23.3365C107.027 23.4661 107.027 23.4661 107.027 20.9096C107.027 17.8343 107.027 14.7591 106.839 11.6097C104.334 15.5186 101.83 19.4275 99.3069 23.3365C96.7461 23.4476 96.7461 23.4476 96.7461 21.0022C96.7461 16.6857 96.7649 12.3693 96.7461 8.05278C96.7461 7.51554 96.8779 7.29323 97.4804 7.2747C99.4952 7.21912 99.4952 7.18207 99.4952 9.14579C99.4952 12.3507 99.4952 15.5557 99.7023 18.8718C102.15 15.0184 104.598 11.1651 107.065 7.31175C107.95 6.94124 108.816 6.53367 109.757 7.16355C110.002 7.45996 109.964 7.79342 109.964 8.14541C110.002 12.4989 109.945 16.8525 109.983 21.1875C109.964 21.8729 109.814 22.6325 109.663 23.3365Z" fill="#EFF8FF"/>
<path d="M147.096 31.5439C147.152 36.9534 147.171 42.3629 147.077 47.7724C146.964 47.9762 146.757 48.0317 146.569 48.1244C146.361 48.1799 146.135 48.1985 145.928 48.217C144.61 48.3096 144.121 47.8835 144.121 46.6053C144.102 43.3818 144.121 40.1583 144.121 36.9349C143.085 38.5836 142.031 40.1954 140.995 41.8071C140.75 42.1776 140.487 42.5111 140.035 42.6408C138.867 44.3081 137.794 46.0124 136.758 47.7538C135.968 47.7724 135.177 47.7724 134.405 47.7909C134.141 47.6056 134.254 47.3463 134.254 47.1054C134.254 42.122 134.254 37.1572 134.254 32.1738C134.254 31.9515 134.104 31.6736 134.424 31.5068C135.271 31.5254 136.118 31.5439 136.966 31.5624C137.455 31.9144 137.361 32.4331 137.361 32.9148C137.361 36.2679 137.38 39.6211 137.342 43.0668C137.154 42.5667 137.342 42.2332 137.549 41.9183C138.528 40.3436 139.545 38.7874 140.543 37.2313C140.769 36.8793 141.033 36.6014 141.447 36.4717C141.711 36.0456 141.974 35.6195 142.238 35.1934C142.37 34.4339 142.596 33.7484 143.386 33.3965C143.631 33.0074 143.876 32.6184 144.121 32.2479C144.196 31.9329 144.177 31.5439 144.686 31.5439C145.495 31.5254 146.286 31.5439 147.096 31.5439Z" fill="#EFF8FF"/>
<path d="M151.821 21.0955C151.595 21.429 151.275 21.7254 151.143 22.0774C150.654 23.3557 149.656 23.4483 148.488 23.3557C147.999 23.3186 147.811 23.1519 147.829 22.6887C147.848 21.9107 147.829 21.1511 147.829 20.373C147.848 16.001 147.867 11.6104 147.886 7.23833C148.733 7.23833 149.599 7.23833 150.447 7.23833C150.503 7.25686 150.541 7.29391 150.597 7.31244C150.955 7.96083 150.729 8.68334 150.786 9.36879C150.823 9.75782 150.767 10.1654 150.861 10.5544C150.899 13.0183 150.88 15.4823 150.88 17.9276C152.951 14.6301 155.135 11.351 157.225 8.01641C157.508 7.5718 157.809 7.12718 158.374 6.97897C159.108 6.96045 159.843 6.86782 160.577 7.05308C160.991 7.33096 161.066 7.73853 161.066 8.18314C161.085 12.6849 161.085 17.1681 161.066 21.6698C161.066 22.2441 160.709 22.7073 160.709 23.2816C160.709 23.4668 160.483 23.578 160.294 23.615C159.654 23.7632 158.995 23.7818 158.355 23.5965C158.11 23.5224 157.847 23.3371 157.884 23.0778C157.997 22.0959 157.282 21.1141 157.903 20.1137C158.016 19.9284 157.941 19.6876 157.828 19.4838C157.752 19.3541 157.639 19.1874 157.677 19.0577C158.016 17.9091 157.583 16.7235 157.884 15.5934C157.978 15.2044 157.96 14.8153 157.847 14.5004C157.658 13.9261 157.658 13.3703 157.639 12.7405C157.188 13.2036 157.018 13.889 156.321 14.0373C155.7 14.7598 155.286 15.6119 154.834 16.4271C154.457 16.8902 154.457 17.5942 153.836 17.9091C153.045 18.928 152.461 20.021 151.821 21.0955Z" fill="#EFF8FF"/>
<path d="M115.687 7.23805C116.196 7.23805 116.459 7.38625 116.44 7.9976C116.403 9.66491 116.44 11.3322 116.421 12.981C116.403 13.5553 116.572 13.7961 117.193 13.7776C119.171 13.7406 121.148 13.7406 123.106 13.7776C123.727 13.7961 123.916 13.5924 123.897 12.981C123.859 11.3878 123.897 9.77606 123.84 8.18286C123.821 7.51593 123.991 7.25657 124.725 7.25657C126.608 7.25657 126.627 7.21952 126.627 9.09062C126.627 13.5553 126.608 18.02 126.646 22.5032C126.646 23.1886 126.458 23.4665 125.742 23.3739C125.365 23.3369 124.989 23.3369 124.612 23.3739C124.085 23.4295 123.878 23.1886 123.803 22.7255C123.351 22.4476 123.388 22.003 123.388 21.5769C123.369 20.2801 123.388 19.0018 123.37 17.7051C123.351 16.6306 123.257 16.5194 122.202 16.5009C120.828 16.4824 119.453 16.4824 118.078 16.5009C116.93 16.5009 116.836 16.612 116.817 17.7051C116.798 19.2056 116.817 20.7247 116.798 22.2253C116.798 22.6514 116.798 23.096 116.459 23.4295C115.442 23.6147 114.407 24.0964 113.428 23.2628C113.145 22.4847 113.126 21.6695 113.239 20.8544C113.277 20.521 113.239 20.206 113.183 19.8726C113.164 19.6873 113.202 19.502 113.22 19.3353C113.126 15.7969 113.183 12.24 113.183 8.70158C113.183 7.18247 113.22 7.14542 114.727 7.08984C115.085 7.08984 115.386 7.08984 115.687 7.23805Z" fill="#EFF8FF"/>
<path d="M116.063 31.6545C116.44 31.7842 116.816 31.9139 117.193 32.0436C117.72 32.2659 117.927 32.6364 117.814 33.2107C117.682 33.9332 118.078 34.7298 117.57 35.4338C116.609 34.6186 115.536 34.0258 114.293 33.7109C111.657 33.0439 109.416 34.2481 108.588 36.8788C107.985 38.7684 107.985 40.7136 108.607 42.6217C109.511 45.382 112.147 46.4751 115.065 45.3635C116.007 45.0115 116.835 44.4743 117.777 43.7333C117.777 44.7707 117.777 45.6043 117.777 46.4565C117.777 46.8456 117.532 46.9382 117.231 47.0864C115.574 47.883 113.841 48.2906 111.996 48.1609C111.506 48.2165 110.96 48.4944 110.603 47.8645C108.682 47.5495 107.364 46.3824 106.573 44.7707C104.897 41.4361 104.803 37.9903 106.592 34.6557C107.948 32.1177 110.942 30.8209 113.935 31.247C114.519 31.3396 115.103 31.4322 115.687 31.5248C115.837 31.4693 115.969 31.5434 116.063 31.6545Z" fill="#EFF8FF"/>
<path d="M127.68 48.1425C126.249 48.2166 124.818 48.124 123.482 47.5497C121.354 46.6234 120.055 44.9932 119.565 42.7516C118.887 39.5466 118.944 36.4528 121.053 33.6925C121.354 33.3035 121.73 32.97 122.069 32.618C124.988 30.6914 128.019 30.8581 131.107 32.1734C131.409 32.3031 131.653 32.4328 131.653 32.8218C131.635 33.674 131.653 34.5262 131.653 35.3784C131.239 35.4339 131.07 35.1746 130.844 35.0078C129.959 34.3965 129.036 33.9334 127.982 33.674C125.572 33.0997 123.425 34.1557 122.54 36.4528C121.825 38.3239 121.787 40.2691 122.295 42.1773C123.105 45.3081 125.948 46.6049 128.961 45.3081C129.846 44.9191 130.674 44.4189 131.597 43.6779C131.597 44.8635 131.748 45.8824 131.503 46.9013C130.279 47.4941 128.98 47.7906 127.68 48.1425Z" fill="#EFF8FF"/>
<path d="M218.365 7.23828C218.93 7.25681 219.495 7.31238 220.06 7.25681C220.832 7.1827 221.001 7.51617 221.001 8.22014C220.982 12.9627 220.982 17.7238 221.001 22.4664C221.001 23.1518 220.794 23.4112 220.098 23.3556C219.514 23.3 218.911 23.3371 218.309 23.3186C218.102 22.8739 218.026 22.3923 218.007 21.8921C217.951 17.8905 218.064 13.889 218.139 9.90598C218.158 9.03527 217.97 8.10899 218.365 7.23828Z" fill="#EFF8FF"/>
<path d="M164.099 37.9537C164.099 38.7689 164.099 39.584 164.099 40.3991C164.193 41.8627 164.212 43.3447 164.099 44.8082C164.08 45.4196 164.005 46.0309 164.08 46.6238C164.193 47.513 163.873 47.9205 162.95 47.7909C162.611 48.3466 162.065 48.217 161.613 48.0688C161.067 47.8835 161.086 47.3463 161.067 46.9016C161.048 43.9375 161.067 40.9919 161.048 38.0278C161.048 37.7314 161.067 37.4165 161.011 36.9534C159.73 39.0097 158.45 40.8993 157.245 42.8075C157.019 43.1595 156.831 43.5855 156.322 43.6782C155.644 44.3821 155.192 45.2343 154.759 46.105C154.835 46.9757 154.383 47.6241 153.667 47.9576C152.895 48.3281 152.048 48.2911 151.238 47.9205C151.069 47.8464 150.918 47.6982 150.88 47.513C150.673 46.5311 150.391 45.5493 151.088 44.6415C151.106 40.6955 151.106 36.7496 151.125 32.8036C151.125 31.5624 151.125 31.5624 152.387 31.5439C152.613 31.5439 152.82 31.5624 153.046 31.5253C153.724 31.4327 153.893 31.7291 153.874 32.359C153.856 35.8974 153.856 39.4358 153.856 42.9927C153.931 43.0298 154.006 43.0668 154.081 43.1039C155.512 40.8252 156.944 38.5651 158.375 36.2864C158.638 35.8789 158.921 35.4528 159.184 35.0452C159.711 33.7114 160.22 32.3775 161.5 31.5068C161.783 31.5068 162.084 31.4883 162.366 31.4883C162.743 31.5068 163.12 31.5253 163.496 31.5068C163.892 31.4883 164.08 31.655 164.099 32.0255C164.212 34.0263 164.212 35.99 164.099 37.9537Z" fill="#EFF8FF"/>
<path d="M57.1095 32.9883C57.1283 27.727 57.1471 22.4657 57.1471 17.1859C57.1471 12.2025 57.1095 7.21908 57.1095 2.21715C57.4484 1.56876 58.1262 1.88369 58.6346 1.73549C59.0301 1.62433 59.482 1.67991 59.8962 1.67991C60.2163 1.92074 60.0468 2.25421 60.0468 2.53209C60.0657 5.12568 60.028 7.71928 60.0657 10.3129C60.1033 13.3326 60.2351 16.3522 60.1786 19.3534C59.9904 28.6348 60.141 37.9161 60.0468 47.1789C60.0468 47.3827 60.141 47.6236 59.8774 47.7532C58.9547 47.7718 58.0321 47.7718 57.1283 47.7903C56.8082 47.6236 57.1095 47.4198 57.1095 47.2345C56.7894 46.3082 56.8835 45.382 57.1095 44.4557C57.1095 43.1589 57.1095 41.8806 57.1095 40.5838C56.7705 40.3244 56.7517 39.9725 56.7329 39.5834C56.714 38.0643 56.714 36.5267 56.7329 35.0076C56.7329 34.5444 56.8647 34.0998 57.1095 33.7108C57.1095 33.47 57.1095 33.2291 57.1095 32.9883Z" fill="#EFF8FF"/>
<path d="M87.7073 30.5983C87.5944 30.2093 87.4061 29.8573 87.0107 29.672C86.4646 28.7087 85.6738 27.9677 84.7888 27.3193C84.2992 27.097 83.7908 26.8746 83.3013 26.6523C83.2636 26.5782 83.1883 26.5412 83.113 26.5597C82.6234 26.4856 82.1339 26.393 81.6443 26.3189C79.0647 25.9669 76.4851 26.2077 73.9054 26.1336C73.7171 26.6153 73.8301 27.1155 73.8113 27.5971C73.7171 30.5427 73.8113 33.5068 73.6795 36.4524C73.5477 39.1942 73.8113 41.9545 73.8113 44.6963C73.8113 45.4929 73.8113 46.3081 73.8113 47.1047C73.8113 47.3826 73.7925 47.6975 74.2067 47.679C75.0352 47.6419 75.8825 47.8272 76.711 47.5678C76.711 45.1595 76.7298 42.7697 76.6922 40.3613C76.6922 39.8056 76.824 39.5647 77.4265 39.6203C77.7655 39.6574 78.1232 39.6203 78.4621 39.6388C81.3807 39.787 84.0545 39.2313 86.1445 37.0082C86.6152 36.9711 86.8412 36.6006 87.0295 36.2672C88.0463 34.4887 88.2722 32.5806 87.7073 30.5983ZM80.1568 37.2305C79.253 37.2861 78.3303 37.249 77.4265 37.2675C76.9181 37.2861 76.6922 37.1564 76.6922 36.6006C76.711 34.1923 76.711 31.784 76.6922 29.3941C76.6922 28.8754 76.8616 28.6716 77.3889 28.6902C77.8973 28.7272 78.3868 28.6902 78.8952 28.6902C79.9685 28.6531 81.0229 28.7272 82.0585 29.0422C83.3578 29.4497 84.1674 30.3204 84.4499 31.6543C85.1277 34.8036 83.4331 37.0082 80.1568 37.2305Z" fill="#EFF8FF"/>
<path d="M88.931 38.7313C88.931 38.7128 88.9121 38.6758 88.9121 38.6572C88.931 38.7499 88.9498 38.824 88.9687 38.9166C88.9498 38.8425 88.9498 38.7869 88.931 38.7313Z" fill="#EFF8FF"/>
<path d="M103.618 38.6762C103.467 36.3975 102.789 34.3597 100.982 32.8035C99.3249 31.5438 97.4231 31.0992 95.3519 31.2844C93.5443 31.5623 92.0379 32.396 90.814 33.7113C90.6634 33.9151 90.4939 34.1189 90.3433 34.3041C89.496 35.7306 89.1947 37.3053 88.9688 38.8985C89.0064 40.1582 89.0441 41.418 89.3265 42.6592C90.5316 47.939 96.5382 50.0139 100.907 46.6978C102.187 45.7159 102.752 44.3636 103.317 42.9556C103.618 41.5477 103.712 40.1212 103.618 38.6762ZM100.248 43.2335C99.6827 44.8267 98.4399 45.6418 96.7641 45.7715C94.9753 45.9197 93.5819 45.1972 92.7158 43.6411C92.0003 42.3628 91.8873 40.9363 91.925 39.4543C91.8873 38.4909 92.0191 37.4905 92.3204 36.5087C92.8853 34.6932 94.4669 33.526 96.3875 33.5075C98.2516 33.5075 99.8521 34.6005 100.398 36.416C101.076 38.6947 101.038 40.9919 100.248 43.2335Z" fill="#EFF8FF"/>
<path d="M200.383 10.2018C199.686 8.51594 198.424 7.23767 196.485 6.94126C194.997 6.71895 193.51 6.77453 192.173 7.62671C191.627 7.99722 191.081 8.34921 190.535 8.71972C190.158 8.64562 190.384 8.34921 190.328 8.14543C190.234 7.84901 190.497 7.49703 190.158 7.25619C189.65 7.25619 189.16 7.3303 188.652 7.27472C187.805 7.18209 187.541 7.45998 187.541 8.33068C187.579 12.8695 187.56 17.3897 187.56 21.9285C187.56 24.4295 187.598 26.9119 187.598 29.4129C188.464 29.6352 189.33 29.6352 190.196 29.4129C190.196 27.2083 190.196 25.0223 190.196 22.8178C191.778 23.2809 193.133 24.1145 194.734 23.744C195.261 23.9108 195.751 23.7255 196.221 23.5217C196.899 23.1512 197.69 22.9474 198.293 22.4102C198.688 22.1879 199.008 21.8729 199.234 21.5024C199.385 21.3172 199.516 21.1319 199.667 20.9467C201.757 17.4638 201.889 13.8513 200.383 10.2018ZM197.878 18.7236C196.975 20.9837 194.677 21.8174 191.966 21.0578C190.29 20.5761 190.29 20.5761 190.29 18.8533C190.29 17.7973 190.29 16.7599 190.29 15.7039C190.29 14.4442 190.29 13.1844 190.29 11.9061C190.29 11.5541 190.309 11.2392 190.629 10.9984C192.022 9.90536 193.548 9.21991 195.393 9.40517C196.485 9.51632 197.276 10.1277 197.709 11.0725C198.857 13.6105 198.876 16.1856 197.878 18.7236Z" fill="#EFF8FF"/>
<path d="M216.707 18.1128C216.537 16.6493 216.349 15.1116 214.635 14.4818C214.278 14.278 213.939 14.0927 213.581 13.8889C211.642 13.4814 209.683 13.4999 207.725 13.5369C207.066 13.5555 206.953 13.2776 206.953 12.7033C206.972 11.2027 206.915 9.68361 206.972 8.18303C207.01 7.38643 206.708 7.1456 205.955 7.2197C205.371 7.27527 204.769 7.23822 204.166 7.23822V7.20117C203.997 7.38643 204.053 7.60874 204.053 7.81252C204.053 12.7774 204.053 17.7238 204.053 22.6886C204.053 22.8924 203.997 23.1147 204.147 23.3C204.43 23.4852 204.75 23.3926 205.051 23.3926C206.934 23.4111 208.817 23.3926 210.681 23.4111C211.284 23.4111 211.849 23.3556 212.395 23.0962C212.922 22.7442 213.656 22.8554 214.127 22.3737C215.935 21.5771 216.914 20.0395 216.707 18.1128ZM213.543 18.6315C213.468 20.0024 212.489 20.9843 211.001 21.1139C209.89 21.2066 208.761 21.2066 207.631 21.2622C207.066 21.2992 206.84 21.0769 206.859 20.5211C206.897 19.8727 206.859 19.2243 206.859 18.5759H206.878C206.878 17.8349 206.878 17.0939 206.878 16.3714C206.878 16.0564 206.897 15.723 207.367 15.7415C208.704 15.7971 210.06 15.5748 211.378 15.8712C212.997 16.2232 213.637 17.0939 213.543 18.6315Z" fill="#EFF8FF"/>
<path d="M204.186 23.3373C204.167 23.3373 204.167 23.3188 204.186 23.3373V23.3373Z" fill="#EFF8FF"/>
<path d="M184.621 13.7589C184.471 11.4988 183.661 9.53504 181.967 7.96036C181.872 7.5528 181.571 7.34902 181.232 7.16376C180.987 7.08966 180.799 6.94145 180.573 6.8303C179.293 6.27453 178.012 6.45978 176.732 6.86735C176.167 7.05261 175.903 6.94145 175.941 6.31158C175.96 5.82991 175.922 5.32972 175.96 4.84805C176.016 3.97735 175.452 3.16222 175.809 2.23593C175.922 1.921 175.583 1.62459 175.263 1.45786C174.567 1.10587 173.38 1.29112 172.759 1.86542C172.759 3.60683 172.759 5.34824 172.778 7.08966C172.797 7.97889 172.439 7.71953 172.006 7.38607C171.686 6.62652 171.046 6.8303 170.462 6.88587C169.727 6.84882 169.031 6.9785 168.315 7.08966C167.713 7.03408 167.186 7.14523 166.922 7.75658C166.056 8.29382 165.434 9.0719 164.888 9.90556C164.361 10.0352 164.173 10.4984 164.022 10.9245C162.874 14.0183 162.874 17.1306 164.097 20.2058C164.361 20.8913 164.681 21.5767 165.491 21.8546C165.679 22.0399 165.867 22.2251 166.056 22.4104C166.206 23.207 166.884 23.2626 167.506 23.3552C168.089 23.7072 168.711 23.7628 169.37 23.7072C170.066 23.9295 170.782 23.8369 171.46 23.7257C172.382 23.596 172.872 24.0777 172.552 24.9484C172.401 25.3374 172.382 25.7265 172.382 26.1155C172.364 26.9306 172.627 27.7458 172.42 28.5794C172.326 28.9314 172.458 29.3575 172.797 29.5613C173.531 30.0244 174.378 29.9503 175.15 29.691C175.809 29.4872 175.809 28.8573 175.791 28.283C175.753 27.2085 175.922 26.1526 175.546 25.0781C175.32 24.4297 175.979 23.4663 176.431 23.6331C177.41 24.0036 178.408 23.8554 179.406 23.7813C179.707 23.7813 179.989 23.6145 180.272 23.5775C181.496 23.0217 182.55 22.2622 183.303 21.1321C183.416 21.0024 183.511 20.8542 183.586 20.706C183.812 20.3911 183.887 20.0206 183.868 19.6315C184.49 17.7234 184.753 15.7782 184.621 13.7589ZM172.797 20.0206C172.797 20.4652 172.627 20.669 172.232 20.8542C170.01 21.8731 167.995 21.1321 167.11 18.8905C166.206 16.5933 166.206 14.222 166.941 11.9063C167.656 9.66472 169.897 8.66434 172.043 9.49799C172.59 9.70178 172.853 10.0167 172.834 10.591C172.815 11.3876 172.834 12.2027 172.834 12.9993C172.834 13.7774 172.834 14.537 172.834 15.3151C172.815 15.3151 172.797 15.3151 172.778 15.3151C172.797 16.8712 172.778 18.4459 172.797 20.0206ZM181.119 19.0572C180.234 21.0951 178.05 21.8361 176.111 20.9098C175.64 20.6875 175.452 20.4281 175.47 19.9279C175.508 19.1313 175.47 18.3162 175.47 17.5196C175.47 16.723 175.47 15.9079 175.47 15.1113C175.47 13.5922 175.489 12.0916 175.47 10.5725C175.452 10.0352 175.64 9.75735 176.186 9.5721C178.747 8.64581 180.517 9.38684 181.364 11.9249C182.174 14.3147 182.136 16.7415 181.119 19.0572Z" fill="#EFF8FF"/>
<path d="M43.4773 19.9651C43.9669 19.3538 44.6824 18.9648 44.72 18.1496C44.5882 17.5753 44.174 17.6865 43.7786 17.7606C43.4208 17.7606 43.0631 17.7606 42.5735 17.7606C43.0442 17.2974 43.4585 16.9455 43.7033 16.4823C43.9292 16.0748 44.174 15.5746 43.8727 15.1855C43.6091 14.8521 43.1196 15.0558 42.743 15.167C42.63 15.204 42.4982 15.1855 42.2911 15.1855C43.1196 13.9628 43.7598 12.7587 42.9501 11.3322C42.1593 11.2025 41.8203 11.7953 41.3873 12.2585C42.0086 11.6101 42.1028 10.7949 42.0463 9.96129C42.0463 9.73898 42.0463 9.51667 42.0463 9.31289C41.9145 9.1091 42.0651 8.90532 42.0651 8.70154C42.0651 8.14577 41.5379 7.5159 41.086 7.53442C40.4646 7.57147 40.427 8.05314 40.3893 8.53481C39.9562 9.27584 39.5231 10.0169 39.1089 10.7579C38.6758 11.7212 38.1486 12.7587 37.3578 13.333C36.3975 14.0369 36.1339 15.3337 35.1547 15.7598C34.0061 16.26 33.3283 17.1863 32.4621 17.9273C31.9161 18.3905 31.4454 18.9277 30.9935 19.4835C30.3721 20.2616 30.4286 20.8914 31.1629 21.5954C31.7278 22.1326 31.9914 22.6884 31.37 23.3553C30.8052 23.9667 29.5624 24.1705 29.054 23.7444C28.7339 23.485 28.7904 23.2071 29.054 22.9663C29.3553 22.6699 29.6189 22.355 29.6001 21.9289C29.5813 21.5954 29.7695 20.8729 28.9411 21.3916C28.5833 21.6139 28.4327 21.0767 28.1126 20.9841C27.8678 20.91 28.1691 20.7062 28.2444 20.558C28.3385 20.3912 28.3762 20.2245 28.3009 20.0392C26.6439 20.0948 25.9284 19.1315 26.4368 17.5753C26.5686 17.1678 26.7569 16.7787 26.964 16.3897C27.4912 15.4819 28.9034 14.9262 29.9578 15.167C30.5792 15.3152 31.0123 15.6487 31.0499 16.3526C31.6525 16.0933 31.5395 15.6672 31.37 15.204C33.2153 16.0933 34.0438 15.871 34.3074 14.5001C32.9517 15.4634 31.8784 14.2037 30.5039 14.111C31.5018 13.7776 31.8219 13.722 32.5751 14.111C33.1023 14.3704 33.2718 14.111 33.3848 13.7405C33.6861 12.8328 33.253 11.9806 32.2738 11.7212C31.8219 11.6101 31.483 11.4248 31.2382 11.0172C31.6337 10.9246 31.9914 10.869 32.3492 10.7764C33.9685 10.2762 34.2886 9.6834 33.7802 8.10872C33.6484 7.70115 33.5166 7.29359 33.7237 6.83045C34.0438 6.96013 34.3639 7.07128 34.684 7.20096C35.4937 7.49737 35.8138 8.10872 35.3619 8.83122C34.7782 9.7575 34.684 10.5726 35.3995 11.4619C35.7008 11.8324 35.4937 12.277 35.4372 12.7031C36.4916 12.3511 36.6234 11.9806 36.1904 10.869C36.9247 10.7394 37.6214 10.9246 38.3181 11.1469C38.3181 10.7394 38.3369 10.3133 38.3369 9.90571C38.1863 9.70193 37.9603 9.72045 37.7532 9.70193C36.9624 9.59077 37.1883 9.27584 37.5837 8.90532C37.7344 8.29398 38.1109 7.62705 37.2071 7.23801C36.8682 6.60814 36.1715 6.75635 35.6443 6.55256C35.4184 6.05237 35.0041 5.71891 34.571 5.40397C33.9873 5.25577 32.3303 5.95974 32.0667 6.45993C31.9349 6.71929 31.9349 6.99718 32.0291 7.27506C32.142 7.59 32.2739 7.90494 32.4245 8.21987C33.1212 9.73898 32.5939 10.6097 30.8616 10.7208C30.7675 10.4244 30.9746 10.2021 31.1064 9.96129C31.6148 8.94237 31.4265 8.07167 30.2403 7.83083C29.826 7.75673 29.8072 7.46032 29.826 7.14538C29.8449 6.90455 29.8825 6.66372 29.8825 6.40436C29.9014 6.03384 29.7695 5.83006 29.3553 5.81154C28.8657 5.79301 28.7528 6.03384 28.7716 6.44141C28.7716 6.66372 28.7904 6.8675 28.8469 7.08981C28.9787 7.57147 28.9411 7.79378 28.3197 7.88641C27.1899 8.07167 26.9263 8.72007 27.3029 9.79455C27.4159 10.091 27.6983 10.3503 27.5853 10.7579C26.5686 10.443 25.7212 9.88718 24.9116 9.23878C24.3844 8.81269 24.309 8.34955 24.6103 7.77526C24.9681 7.12686 25.2693 6.45993 25.4388 5.71891C25.6083 4.94083 25.3447 4.34801 24.6291 4.0516C24.1207 3.84782 23.5935 3.44025 22.9722 3.79224C22.8027 3.88487 22.6897 3.71814 22.7274 3.66256C23.0098 3.18089 22.5202 2.6066 22.991 2.12493C23.2169 1.8841 23.2358 1.45801 22.9533 1.16159C22.6709 0.865184 22.2943 0.698453 21.8989 0.920761C21.6353 1.08749 21.2963 1.3839 21.5223 1.71736C21.9365 2.34724 21.5411 3.05121 21.9177 3.73666C20.8256 3.49583 20.0724 3.92192 19.3757 4.53327C18.905 5.64481 19.4699 6.57109 19.9783 7.47885C20.2419 7.97904 20.4867 8.51628 20.0348 8.92385C19.2063 9.66487 18.3025 10.3503 17.0597 10.6838C17.248 10.1836 17.3987 9.83161 17.5116 9.46109C17.6999 8.81269 17.5681 8.2384 16.8526 8.05314C15.9488 7.83083 15.7982 7.33064 15.9676 6.55256C16.0241 6.31173 16.0994 5.95974 15.704 5.86711C15.4404 5.79301 15.1203 5.75596 14.8944 5.94122C14.6119 6.16352 14.6496 6.45993 14.8002 6.77487C15.1015 7.38622 14.8567 7.70115 14.1977 7.90494C13.1432 8.2384 13.0114 8.57186 13.3504 9.64635C13.4257 9.90571 13.5387 10.1651 13.6328 10.4244C13.6705 10.5356 13.7269 10.6838 13.6893 10.7579C13.5951 10.8876 13.4257 10.869 13.2562 10.832C11.957 10.5171 11.5051 9.57225 12.0511 8.3866C12.2018 8.05314 12.3147 7.70115 12.4654 7.36769C12.7102 6.7934 12.4842 6.42288 11.9946 6.12647C11.7499 5.97827 11.4674 5.92269 11.2603 5.73743C10.5071 5.07051 9.88576 5.29282 9.3962 6.01532C9.01961 6.58961 8.6242 6.92308 7.87102 7.05276C6.8919 7.20096 6.5718 8.1643 7.11785 8.86827C7.73922 9.66487 7.73922 9.66487 6.76009 9.85013C6.28936 9.94276 6.04458 10.5356 6.32702 10.9431C6.3835 11.0172 6.45882 11.2396 6.59063 11.0914C7.13668 10.4985 7.87102 11.2581 8.56771 10.6097C7.83336 11.9806 7.984 12.4623 9.11376 12.7957C8.756 12.1658 8.92547 11.6471 9.30205 11.1469C9.69747 10.5912 9.69747 10.0169 9.37737 9.40552C8.6242 7.97904 8.86898 7.47885 10.4506 7.03423C10.8461 6.92308 10.9779 7.0157 10.9402 7.38622C10.9214 7.62705 10.8649 7.86789 10.7896 8.10872C10.3 9.86866 10.7519 10.6097 12.5784 10.9987C12.8231 11.0543 13.0679 11.0728 13.3504 11.1099C13.1244 11.5915 12.7478 11.7212 12.3147 11.8324C11.3733 12.0732 10.9402 12.7587 11.1285 13.6294C11.2415 14.1296 11.3733 14.5927 12.1076 14.1481C12.7855 13.7405 13.1809 13.7961 14.0659 14.2222C12.6913 14.2592 11.5992 15.5746 10.187 14.6112C10.6766 16.0377 11.2791 16.1489 13.3692 15.1299C13.1809 15.5931 12.9549 16.0377 13.5763 16.4082C13.6705 15.7042 14.1224 15.3523 14.7249 15.1855C15.4216 14.9817 17.0974 15.5375 17.4928 16.1489C17.7753 16.5935 18.02 17.0566 18.2083 17.5383C18.5096 18.2608 18.4343 18.9833 17.9635 19.6502C17.5493 20.243 16.9279 20.206 16.2501 20.0207C16.3254 20.2986 16.3819 20.4283 16.4007 20.5765C16.4384 20.7432 16.8338 21.0026 16.5702 21.0211C16.1748 21.0396 16.1183 21.7807 15.6664 21.4287C15.0262 20.91 15.1015 21.5213 15.045 21.8177C14.9509 22.2994 15.1015 22.744 15.5157 23.0404C15.7793 23.2442 15.8923 23.448 15.6287 23.7259C15.2145 24.1705 14.0659 24.0964 13.4445 23.5776C12.8608 23.096 12.6725 22.5587 13.1809 21.8918C14.2165 20.5394 14.2542 19.9466 12.9926 18.8351C11.8628 17.8347 11.0908 16.5008 9.528 15.871C8.45473 15.4449 7.984 14.0555 7.11785 13.1848C5.76214 11.7583 4.95247 10.0169 4.06749 8.3866C3.91686 8.10872 3.8792 7.59 3.46496 7.68263C3.06954 7.77526 2.80593 8.14577 2.67412 8.60891C2.31637 9.86866 2.73061 10.9617 3.27666 12.0547C3.16369 12.1658 3.52144 12.5178 3.06954 12.4437C2.88125 12.277 2.69295 12.1103 2.50466 11.9621C2.22222 11.7397 1.97744 11.2581 1.61968 11.3878C1.1866 11.5545 1.20543 12.0917 1.20543 12.5178C1.20543 12.6105 1.1866 12.7031 1.16778 12.7957C1.26192 13.7035 1.71383 14.4445 2.33519 15.1855C1.67617 15.2782 0.979482 14.6483 0.584066 15.1299C0.207479 15.5931 0.772359 16.1859 0.998311 16.7232C1.0548 16.8343 1.07363 16.964 1.22426 17.0196C1.43139 17.1863 1.695 17.2974 1.73266 17.668C1.46904 17.668 1.22426 17.6494 0.979482 17.668C0.640554 17.6865 0.16982 17.5383 0.0191856 17.8532C-0.131449 18.1682 0.16982 18.5016 0.376943 18.8166C0.772359 19.4094 1.39373 19.7243 2.03393 20.1875C1.52553 20.243 1.14895 20.2616 0.791189 20.3171C0.0945029 20.4283 0.000356304 20.7988 0.414602 21.336C0.885335 21.9289 1.46905 22.355 2.25988 22.5217C2.1469 22.5958 2.09041 22.6699 2.0151 22.7069C1.48787 22.9478 0.659383 23.096 0.734701 23.7073C0.828847 24.4113 1.67617 24.5595 2.35402 24.6707C2.42934 24.6892 2.50466 24.7262 2.86242 24.8559C1.58202 25.0412 1.88329 26.4121 0.904165 26.7085C0.866506 26.727 0.885335 27.0605 0.941823 27.2272C1.07363 27.6718 1.45022 27.9127 1.77031 28.1905C2.1469 28.5425 2.59881 28.7463 2.97539 29.1168C4.02984 30.1172 4.36876 31.4696 4.93364 32.6923C5.85628 34.7116 6.59063 36.7864 7.24965 38.8984C7.47561 39.4356 7.41912 39.9543 7.08019 40.436V40.399C6.68477 41.0103 7.26848 41.3808 7.45678 41.8625C8.1158 42.7147 9.26439 43.0852 9.7163 44.1597C9.86693 44.5117 10.3188 44.8822 10.6766 44.771C11.185 44.6228 11.0155 44.0485 10.9779 43.6409C10.959 43.3445 10.8461 43.0481 10.7896 42.7517C10.7331 42.4553 10.7707 42.27 11.0532 42.0477C12.5972 40.8806 14.2542 40.1396 16.2689 40.4175C16.476 40.4545 16.702 40.436 16.9279 40.4175C17.4552 40.3619 17.6811 40.1211 17.3798 39.6209C17.2669 39.4356 17.1539 39.2504 17.0033 39.0281C17.6435 38.8798 18.3025 38.8057 18.4531 38.0647C17.4363 38.0647 17.1539 37.9721 17.0409 37.5089C16.9091 36.9717 17.1162 36.5271 17.587 36.2492C18.3025 35.8231 19.2816 36.1566 19.8277 37.0088C20.3925 37.8795 20.2984 38.3611 19.4699 38.9725C18.9803 39.343 18.3778 39.6394 18.6037 40.436C18.6226 40.4916 18.5473 40.6213 18.4719 40.6398C17.474 40.9732 16.7396 41.7328 15.8358 42.233C15.4028 42.4738 14.932 42.3441 14.9509 41.8254C14.9697 41.1585 14.6684 41.3623 14.386 41.529C13.7834 41.881 13.614 42.3997 13.8964 43.0296C14.0094 43.2704 14.2542 43.4372 13.9341 43.7336C13.501 44.1411 13.2939 44.6599 13.501 45.2342C13.6893 45.7158 14.1035 46.1234 14.0847 46.6792C14.2353 46.6421 14.3671 46.5865 14.5178 46.5495C14.8379 46.4568 14.932 46.2345 14.9885 46.0122C15.0262 46.2901 15.3274 46.4939 15.4781 46.7533C15.8923 47.2534 16.5137 47.2905 17.0033 47.1238C17.7376 46.8644 18.133 47.1423 18.4908 47.661C18.9615 47.9018 19.3946 48.3465 19.9971 48.013L20.0724 47.9759L20.1666 47.9945C20.8444 47.661 21.0892 48.3279 21.5035 48.5873C22.0683 48.9949 22.5202 48.8467 22.9533 48.365C23.2169 48.0871 23.4805 47.6425 23.9513 47.8833C24.7045 48.2353 25.307 47.8833 25.7966 47.4943C26.3049 47.0682 26.7192 46.957 27.3594 47.1423C27.8678 47.2905 28.4138 47.1793 28.7716 46.6792C29.1858 46.1049 29.6189 46.1234 30.1085 46.7162C30.1273 46.3086 30.3344 46.0863 30.5227 45.827C31.0123 45.1045 31.2006 44.3449 30.4286 43.678C30.0896 43.4001 30.3156 43.2334 30.4286 42.9925C30.6922 42.3627 30.3533 41.5661 29.7319 41.4179C29.5624 41.3808 29.3741 41.2326 29.2988 41.6216C29.167 42.3256 28.6586 42.4738 28.0561 41.9736C27.3029 41.3623 26.5121 40.8621 25.6083 40.5286C25.5706 40.3619 25.42 40.3248 25.2882 40.2507C25.4011 40.2507 25.4953 40.3249 25.6083 40.2693C25.8154 39.6209 25.3635 39.3615 24.9304 39.0466C23.9889 38.3797 23.8571 37.898 24.3844 37.0458C24.9492 36.1195 25.7212 35.8602 26.6439 36.3048C27.2276 36.5827 27.4159 37.546 26.9451 37.935C26.625 38.1944 26.2108 37.935 25.853 38.1759C26.1167 38.954 26.8133 38.9354 27.4724 39.0095C27.4159 39.1763 27.3971 39.3059 27.3406 39.3986C26.9075 40.3434 26.9263 40.3619 27.9619 40.4916C29.1105 40.6583 30.2591 40.8621 31.4077 41.0474C32.3492 41.1956 33.366 41.3808 34.0062 42.0107C34.7593 42.7147 35.3619 42.5109 36.115 42.233L36.1339 42.2515C37.8662 42.2145 39.0148 41.3438 39.7303 39.8432C39.7303 39.3245 40.5211 39.0466 40.2198 38.4723C39.8997 37.8239 39.7491 37.0829 39.1466 36.5827C38.8829 35.8602 38.1486 35.3229 38.2239 34.4707C37.6402 33.6 37.1318 33.4333 36.4163 33.952C36.3598 34.1002 36.2657 34.2484 36.1527 34.3781C36.3786 34.6745 35.7384 35.2859 36.5669 35.4155C36.6987 35.4341 36.4351 35.8046 36.2092 35.8787C35.0418 36.2863 34.4769 37.1755 34.0626 38.2685C33.8743 38.7687 33.8743 39.1392 34.2133 39.5282C34.684 40.084 34.2886 40.399 33.8367 40.5842C32.8576 41.0103 29.9578 39.8988 29.4306 38.8984C29.939 38.7131 30.3533 39.0095 30.7863 39.1392C30.9935 38.7502 30.5416 38.4167 30.7487 38.0647C31.8596 38.3797 32.0291 38.3611 32.7069 37.7127C31.7466 37.6016 31.7466 37.0088 31.8596 36.2863C32.0667 35.0636 31.6525 34.3781 30.5039 33.8594C30.0708 33.6556 29.6566 33.4704 29.1293 33.4333C28.6586 33.3962 28.2444 33.2851 28.3573 32.4514C28.4515 31.8216 28.0372 31.0435 28.2067 30.3025C28.3009 29.9505 28.3009 29.265 28.7339 29.4132C29.2047 29.5614 30.1273 29.5244 29.9767 30.5248C29.9202 30.8768 30.0332 31.2658 30.0708 31.6178C30.1273 32.2847 30.711 32.5626 31.1817 32.5255C31.6901 32.47 32.2739 32.155 32.1985 31.414C32.1609 31.1361 32.1609 30.8768 32.142 30.4692C32.5186 30.9323 32.5375 31.377 32.6693 31.766C32.9329 32.5255 33.6672 33.0628 34.2509 32.859C34.8535 32.6552 35.0418 31.9513 34.7217 31.1546C34.6652 31.0064 34.5522 30.8768 34.7217 30.6359C34.9476 30.9879 35.1547 31.3029 35.343 31.6363C35.6631 32.155 36.1904 32.155 36.6799 32.0809C37.1318 32.0254 37.226 31.5622 37.226 31.2287C37.226 30.4692 37.5649 30.6545 38.0545 30.8212C38.9583 31.1361 39.5985 30.71 39.4855 29.8208C39.4102 29.2094 39.542 29.0983 40.1069 29.1539C40.4081 29.1724 40.7094 29.0242 41.0107 28.9686C41.0107 29.0612 41.0107 29.1353 41.0483 29.1909C41.086 29.1539 41.1425 29.1353 41.1801 29.0983C41.6885 28.2646 41.3308 27.6533 40.6717 27.1161C40.6152 27.079 40.7659 27.1716 40.6717 27.0975C41.4061 27.3569 42.3476 27.1716 42.5735 26.69C42.9124 25.9675 42.3475 25.5784 41.8768 25.1338C42.8371 25.2635 43.3643 24.8744 43.6091 23.8926C43.3832 23.3183 42.8936 23.096 42.3852 22.9292C43.1572 22.7625 43.7598 22.3179 44.2117 21.6695C44.3058 21.4657 44.4188 21.2619 44.4188 21.0396C44.5129 20.2986 43.8916 20.2245 43.4773 19.9651ZM4.89599 28.5796C4.61355 28.9316 4.34993 29.228 4.40642 29.8023C4.04867 28.8204 4.04867 28.8204 4.89599 28.5796ZM15.6852 31.4511C15.6287 31.803 15.0638 32.0995 15.6475 32.5811C15.817 32.7108 15.2333 32.9702 14.8944 33.0443C12.8608 33.4889 11.8252 34.0632 12.1829 36.1936C12.2959 36.842 12.0323 37.1755 11.3733 37.2866C11.9382 38.1018 12.5595 37.898 13.1997 37.5275C13.3692 37.935 13.2374 38.287 13.1621 38.602C13.5951 38.8243 13.7834 38.2685 14.16 38.4352C14.2918 38.4908 14.5178 38.2129 14.6119 38.5093C14.6684 38.6946 14.5931 38.8798 14.4048 38.9725C13.501 39.4727 12.5595 39.8988 11.5051 39.9173C11.1097 39.9173 10.7331 39.732 10.5824 39.38C10.3 38.7131 9.90459 38.3797 9.15142 38.6205C8.92546 38.6946 8.68068 38.639 8.6242 38.3797C8.32293 37.2125 7.51326 36.3048 6.96721 35.2488C6.17638 33.7112 5.44204 32.155 4.61355 30.4507C5.59267 30.6359 6.34585 30.4321 6.81658 29.5614C6.83541 30.0802 6.30819 30.4507 6.5718 30.9138C6.74126 31.2287 6.72243 31.7475 7.26848 31.7845C7.81453 31.8216 8.32293 31.7475 8.60537 31.1546C8.88781 30.5804 9.24556 30.0246 9.67864 29.2465C9.58449 30.0246 9.26439 30.4692 9.03844 30.9509C8.71834 31.6548 8.98195 32.2662 9.60332 32.4885C10.187 32.6923 10.8461 32.4514 11.072 31.7104C11.2603 31.0991 11.4486 30.5062 11.6557 29.8023C11.8628 30.2654 11.6934 30.5804 11.6369 30.9138C11.5427 31.5437 12.0323 32.2477 12.6348 32.2291C13.2186 32.1921 13.7269 31.9327 13.8023 31.2287C13.8211 31.0064 13.8588 30.7841 13.8211 30.5803C13.6705 29.7837 14.0094 29.3947 14.8002 29.1539C15.2333 29.0242 15.3839 29.0983 15.4969 29.4318C15.704 30.0987 15.7793 30.7656 15.6852 31.4511ZM27.2652 44.2708C27.5289 44.2523 27.5853 44.382 27.5665 44.5487C27.5289 44.8636 27.3029 45.0304 27.0016 45.0674C26.8133 45.1045 26.6815 44.9933 26.6815 44.8266C26.6439 44.382 27.1523 44.5116 27.2652 44.2708ZM26.0602 42.0107C26.3614 42.27 26.5121 42.6035 26.4744 42.9925C26.4556 43.1408 26.4368 43.326 26.2485 43.326C26.1543 43.326 26.0225 43.2149 25.966 43.1408C25.6083 42.3627 25.0434 41.7143 24.7045 40.8806C25.1564 41.2511 25.6083 41.6216 26.0602 42.0107ZM21.2963 9.36846C21.8801 9.035 22.8027 8.99795 23.4429 9.44257C24.2714 10.0169 25.1375 10.4615 26.1355 10.8505C25.5329 11.0543 25.0246 10.7764 24.4785 10.8135C24.6291 11.3878 25.2128 11.4619 25.5706 11.7768C25.3635 11.9991 25.081 11.7768 24.8739 11.925C24.8739 12.277 25.307 12.2399 25.3823 12.5364C24.7798 13.1106 24.0266 13.3515 22.8592 13.4256C24.2149 13.722 23.763 14.2592 23.4241 14.7965C22.8592 15.7228 22.6144 16.7787 22.2566 17.8162C21.8989 16.5379 21.4658 15.3152 20.7691 14.2037C20.2984 13.4441 21.4281 13.9443 21.2963 13.4071C20.8821 13.3515 20.3737 13.2959 19.9218 13.0551C19.3569 12.7772 18.905 12.4993 19.8653 11.925C19.4322 11.888 19.1875 11.8694 18.7732 11.8509C19.3381 11.5174 19.8465 11.3692 20.2042 10.8505C19.6017 10.6653 19.0745 11.0728 18.4343 10.8505C19.4699 10.3874 20.3737 9.88718 21.2963 9.36846ZM17.6058 45.0489C17.3045 45.0304 17.0974 44.8451 17.0221 44.5672C16.9844 44.419 17.0597 44.2708 17.2857 44.2893C17.4552 44.4931 17.9259 44.382 17.9071 44.8081C17.9259 44.9933 17.7941 45.0674 17.6058 45.0489ZM18.5849 43.1778C18.5284 43.3075 18.4343 43.4186 18.3025 43.3445C18.1895 43.2704 18.0577 43.1222 18.0577 42.9925C18.0389 42.622 18.1707 42.27 18.4719 42.0107C19.0745 41.492 19.677 40.9918 20.2607 40.4916C19.6958 41.3993 19.018 42.2145 18.5849 43.1778ZM20.7691 46.2345C20.1854 45.7343 20.1854 45.123 20.2984 44.4746C20.4867 43.3445 21.0704 42.3441 21.3905 41.2511C21.5411 40.6954 21.7294 40.1396 21.8801 39.5468C21.7859 41.8069 20.5997 43.9188 20.7691 46.2345ZM23.9136 46.216C23.9513 43.9003 22.8403 41.7884 22.7462 39.5097C22.8968 41.7884 24.9681 43.7336 23.9136 46.216ZM27.7548 29.265C27.0016 32.4885 25.4576 35.2859 22.991 37.5831C22.4638 38.0832 22.1625 38.1388 21.5788 37.6016C18.3778 34.656 16.9844 30.8582 16.2689 26.7455C16.1371 25.9675 16.0806 25.1523 15.9865 24.3557C16.0053 24.3557 16.0053 24.3557 16.0241 24.3557C16.0241 24.3001 16.0241 24.226 16.0241 24.1705C16.0241 22.0771 16.0618 22.003 18.133 21.5954C19.5076 21.3175 20.7691 20.7988 21.8424 19.9466C22.106 19.7428 22.2943 19.5576 22.6332 19.854C24.0266 21.0767 25.7212 21.5769 27.51 21.7621C28.0937 21.8177 28.282 22.0585 28.3762 22.5958C28.8093 24.893 28.2632 27.079 27.7548 29.265Z" fill="#EFF8FF"/>
<path d="M26.4366 23.7995C25.4763 23.7625 25.721 24.5035 25.7022 25.0407C25.7022 25.1704 25.7022 25.2816 25.7022 25.4112C25.7399 26.2634 25.3256 26.7266 24.3277 26.8192C24.7607 26.3931 24.6478 26.1337 24.2335 25.9114C24.0641 25.8188 23.7628 25.7632 23.8758 25.4668C23.9511 25.263 24.3653 25.1519 24.0452 24.874C23.7816 24.6517 23.5933 24.9666 23.405 25.0778C23.1791 25.1889 23.0473 25.0778 22.8966 24.874C23.2921 24.6146 23.6686 24.133 24.0452 24.133C25.0432 24.17 25.0055 23.3919 25.4009 22.8176C24.7607 22.8176 23.9134 22.688 23.8381 23.1696C23.6875 24.133 22.8778 24.2997 22.3318 24.5035C21.8045 24.6887 20.976 24.0589 20.8442 23.6328C20.5053 22.5768 19.771 23.1511 19.2249 22.9844C19.5262 23.5216 19.4885 24.2812 20.4488 24.2812C20.8066 24.2812 21.315 24.6702 21.5033 25.1148C21.2961 25.3001 21.1643 25.2445 21.0137 25.1704C20.8254 25.0592 20.6559 24.7443 20.3923 25.0407C20.1476 25.3001 20.43 25.4112 20.5806 25.5409C20.8254 25.7632 20.5806 25.8373 20.4488 25.9485C20.2605 26.1152 20.0534 26.2449 19.8651 26.4116C19.6956 26.5598 20.3923 26.8192 19.8275 26.9118C19.5074 26.9674 19.2249 26.7636 19.0366 26.5043C18.66 25.9485 18.6977 25.3186 18.8107 24.7073C18.9236 24.133 18.66 23.9662 18.1893 23.9477C17.7186 23.9292 17.342 24.0403 17.2667 24.6146C17.003 26.708 18.2834 27.8752 20.3547 27.3935C20.8819 27.2638 21.2585 27.3009 21.5974 27.764C21.0325 28.1716 20.4676 28.5791 19.8463 29.0423C20.3735 29.3757 20.7689 29.6721 21.202 29.913C21.6539 30.1723 21.6162 30.3761 21.202 30.6169C20.9572 30.7652 20.7124 31.0801 20.5053 31.0616C19.4509 30.9504 19.5638 31.8211 19.1496 32.451C19.7898 32.3028 20.4865 32.488 20.7501 32.062C21.6727 30.5428 23.0096 30.2464 23.744 31.6729C24.1959 32.5436 24.7607 32.1916 25.3445 32.3398C25.0997 31.8767 25.062 31.0801 24.5724 31.0801C23.8004 31.0801 23.4992 30.5799 22.972 30.265C23.5557 29.8203 24.4783 29.4498 24.4971 29.0237C24.5348 28.3939 23.4992 28.2642 23.0096 27.7084C23.631 27.2453 23.631 27.2453 24.29 27.3935C26.1729 27.8196 27.0956 27.1712 27.2839 25.263C27.3215 24.5405 27.4157 23.8366 26.4366 23.7995ZM22.1435 26.5413C22.3694 26.4487 22.5389 26.6339 22.6895 26.7821C22.6519 27.0044 22.4824 27.1156 22.3129 27.1526C22.0681 27.2268 21.8799 27.0415 21.8045 26.8562C21.7104 26.6154 21.9928 26.5969 22.1435 26.5413ZM23.3862 28.9682C21.9552 30.0427 22.4071 29.9686 21.0325 28.9682C22.1246 27.8752 22.3129 27.8752 23.3862 28.9682Z" fill="#EFF8FF"/>
</svg>
