<svg width="169" height="48" xmlns="http://www.w3.org/2000/svg" fill="none" viewBox="0 0 169 48">
  <path fill="#EFF8FF" d="M67.8 23c0-.3-.3-.5-.4-.7a3.4 3.4 0 0 0-1.7-1 5.6 5.6 0 0 0-2.2 0l-1 .3-.9.6-.8 1.1a6 6 0 0 0-.6 1.6c-.2.7-.2 1.4-.2 2.3 0 1 0 1.8.2 2.6s.5 1.4 1 2c.3.4.7.8 1.3 1 .5.4 1.1.5 1.8.5.8 0 1.4-.1 1.9-.3.5-.3.9-.6 1.1-1 .3-.3.6-.6.7-1l.3-1H72c-.2 1.1-.5 2-1 2.9a6.8 6.8 0 0 1-4 3.2c-.8.3-1.6.4-2.6.4-1.3 0-2.5-.2-3.5-.7-1-.4-1.8-1-2.5-1.8a8.5 8.5 0 0 1-1.6-3c-.4-1-.5-2.4-.5-3.8a12.2 12.2 0 0 1 1.1-5.3 7.4 7.4 0 0 1 4.9-3.7c.6-.2 1.3-.2 2-.2 1 0 1.8 0 2.5.3.8.2 1.4.4 2 .8.6.3 1 .7 1.4 1.1l1 1.4c.3.4.4.9.6 1.3l.2 1.3h-3.7l-.2-.6-.3-.6ZM81.8 23h4.5L81 28.4l5.6 7.7h-4.4l-3.8-5.6-1.4 1.4v4.2h-3.4V23H77v5l5-5Z"/>
  <path fill="#EFF8FF" d="M86.4 26.7a6 6 0 0 1 3.4-3.6c.9-.3 1.8-.5 2.8-.5 1 0 2 .2 2.8.5.9.3 1.6.8 2.1 1.4.6.6 1 1.4 1.3 2.2a8.3 8.3 0 0 1 0 5.6c-.3.9-.7 1.6-1.3 2.2a6 6 0 0 1-2 1.4c-.9.4-1.8.5-2.9.5a6.4 6.4 0 0 1-4.9-2 6 6 0 0 1-1.3-2.1 8.3 8.3 0 0 1 0-5.6Zm3.2 4.3c.1.5.3.9.6 1.3.2.4.5.7 1 .9.3.2.8.3 1.4.3.6 0 1.1 0 1.5-.3.4-.2.7-.5 1-1l.5-1.2a7.6 7.6 0 0 0 0-3l-.5-1.3a3 3 0 0 0-1-.9c-.4-.2-.9-.3-1.5-.3a3 3 0 0 0-1.5.3l-1 1-.5 1.2-.1 1.5.1 1.5ZM105.7 25.7v2.5l-.3 3.6c-.2 1-.4 1.9-.7 2.6-.3.6-.7 1.2-1.3 1.5-.5.4-1.2.5-2 .5h-1l-.7-.2v-2.9l.5.2h.6c.2 0 .5 0 .7-.2l.5-.8.3-1.8.2-2.8v-5h10.6v13.2h-3.4V25.7h-4ZM123.8 23h4.6l-5.5 5.4 5.7 7.7h-4.4l-3.9-5.6L119 32v4.2h-3.3V23h3.3v5l5-5Z"/>
  <path fill="#EFF8FF" d="M128.4 26.7a6 6 0 0 1 3.5-3.6c.8-.3 1.7-.5 2.7-.5 1 0 2 .2 2.9.5.8.3 1.5.8 2 1.4.6.6 1 1.4 1.4 2.2.3.9.4 1.8.4 2.8 0 1-.1 2-.4 2.8-.3.9-.8 1.6-1.4 2.2a6 6 0 0 1-2 1.4c-.9.4-1.8.5-2.9.5-1 0-2-.1-2.7-.5-.9-.3-1.6-.8-2.2-1.4-.6-.6-1-1.3-1.3-2.2a8.3 8.3 0 0 1 0-5.6Zm3.3 4.3c0 .5.2.9.5 1.3.2.4.6.7 1 .9.3.2.8.3 1.4.3.6 0 1.2 0 1.6-.3a3.5 3.5 0 0 0 1.5-2.2 7.6 7.6 0 0 0 0-3c-.2-.5-.3-1-.6-1.3a3 3 0 0 0-1-.9c-.3-.2-.9-.3-1.5-.3a3 3 0 0 0-1.4.3c-.4.3-.8.6-1 1-.3.3-.4.8-.5 1.2l-.2 1.5c0 .5 0 1 .2 1.5ZM151.4 23.1l1.5.6c.4.2.7.6 1 1 .2.5.4 1 .4 1.7a3 3 0 0 1-.5 1.8 3 3 0 0 1-1 .9c.6.2 1 .5 1.4 1 .3.6.5 1.2.5 1.9 0 .6 0 1.2-.3 1.6-.2.5-.5 1-.9 1.3a4 4 0 0 1-1.4.9c-.6.2-1.2.3-1.9.3H143V23h6.8l1.7.1Zm-1.5 5 .6-.4.3-.4v-1.1a1 1 0 0 0-.3-.4l-.6-.3-.9-.1h-2.7V28h3.6Zm.2 5.4.7-.4c.1-.2.3-.3.3-.5v-1.4a1 1 0 0 0-.4-.5l-.7-.2-1.1-.1h-2.6v3.2h2.6l1.2-.1ZM156.1 26.7a6 6 0 0 1 3.4-3.6c.9-.3 1.8-.5 2.8-.5 1 0 2 .2 2.8.5.9.3 1.6.8 2.1 1.4.6.6 1 1.4 1.4 2.2.3.9.4 1.8.4 2.8a6.7 6.7 0 0 1-1.8 5 6 6 0 0 1-2 1.4c-.9.4-1.8.5-2.9.5a6.4 6.4 0 0 1-4.9-2 6 6 0 0 1-1.3-2.1 8.3 8.3 0 0 1 0-5.6Zm3.2 4.3c.1.5.3.9.6 1.3.2.4.5.7 1 .9.3.2.8.3 1.4.3.6 0 1.1 0 1.5-.3.4-.2.8-.5 1-1l.5-1.2a7.6 7.6 0 0 0 0-3c0-.5-.3-1-.5-1.3a3 3 0 0 0-1-.9c-.4-.2-.9-.3-1.5-.3a3 3 0 0 0-1.5.3l-1 1-.5 1.2-.1 1.5.1 1.5Z"/>
  <path fill="#fff" d="M48 26.3V.8H11.7c-1 0-2.2.1-3.2.4l39.5 25Z"/>
  <path fill="#1984D2" d="M34.2 12.8h-3v-7h-2.5V4.6a5 5 0 0 0 1.9-.4l1.1-.7c.3-.4.6-.7.7-1.1h1.8v10.4ZM45.8 4.6h-7l-.5 3h.1l.9-.6a6 6 0 0 1 1-.5l1.3-.2c.9 0 1.6.2 2.2.4.7.3 1.2.6 1.6 1l1 1.5.2 1.8c0 .8-.1 1.5-.4 2.1a4.7 4.7 0 0 1-2.9 2.7 8.2 8.2 0 0 1-4.7 0c-.7 0-1.3-.4-1.8-.8s-1-.8-1.2-1.4c-.3-.5-.5-1.1-.5-1.8h3.1c0 .7.3 1.3.8 1.7a3 3 0 0 0 2 .6c.7 0 1.3-.2 1.8-.8.5-.5.8-1.2.8-2.2 0-.9-.3-1.5-.8-2a3 3 0 0 0-2.2-.8 3.4 3.4 0 0 0-2.2.8l-.8.7h-2.2l1.3-7.4h9.1v2.2Z"/>
  <path fill="#EFF8FF" d="M48 31.3v-5.5c-.3-3.6-2.8-6.3-5.5-9.2-1.3-1.4-3.5-2.4-7.1-4.1L24.9 7.2C18.8 4.4 12.8.8 11.7.8c-.4 0-3.2-.3-6.5 2A11.7 11.7 0 0 0 0 12.5V36c0 6.5 5.3 11.8 11.7 11.8h24.5C42.7 47.8 48 42.5 48 36v-4.7Z"/>
  <path fill="#1E76E2" d="M11.7.8s2 .2 9.9 4.6c5.6 3.2 8 4.5 11.8 5.9 7.8 2.9 10.1 6.5 10.1 6.5s-1.4-2.4-9.7-5c-5-1.6-20.3-4.4-20.3-4.4s2.3-3 1.4-5c-1-2-3.2-2.6-3.2-2.6Z"/>
  <path fill="#1984D2" d="M38.8 18.4h-5.6l-5.4 5.9V12.5h-4.3v2.9l-.5-.6a9 9 0 0 0-6.8-2.5A7.7 7.7 0 0 0 10 15a6.8 6.8 0 0 0-1.4 5.4c1 4.6 5.2 5.3 8.3 5.7 2.4.3 4.7.7 4.7 3 0 2.2-2.6 2.7-4.3 2.7-4.3 0-4.5-3.2-4.5-3.2H8.1c0 1.2.4 3.1 1.9 4.8 1.6 1.8 4 2.7 7.2 2.7 2.4 0 4.7-.7 6.3-2.2v2h4.3v-5.6l1.6-1.6 4.4 7.2h5l-6.4-10.6 6.4-7Zm-26 1.1c-.3-1.7 1.3-3.1 3.5-3.1 2 0 4 .4 4.7 3.1h2.5v4.2c-3.2-2.6-10-1-10.7-4.2Z"/>
</svg>
