<svg width="328" height="76" viewBox="0 0 328 76" fill="none" xmlns="http://www.w3.org/2000/svg">
<path opacity="0.4" d="M288.834 71.6284C288.834 73.11 289.728 74.0049 291.517 74.313L293.042 73.9315H308.058C310.052 73.5795 311.049 72.6259 311.049 71.1003C311.049 67.2128 307.339 65.8044 299.934 66.8753C297.119 67.2861 294.567 67.9756 292.265 68.9438C289.963 69.912 288.819 70.8069 288.819 71.6284M224.827 31.3009C224.827 26.3425 224.036 22.1762 222.452 18.8022C219.285 12.098 213.39 8.82665 204.738 8.98802C198.609 9.14939 192.729 11.2912 187.113 15.4281C183.784 17.834 181.306 20.5185 179.679 23.4818C176.203 20.2105 171.482 18.6555 165.499 18.8022C161.305 18.8462 156.657 20.2838 151.554 23.1004C151.143 23.3498 150.762 23.6139 150.41 23.8633C149.486 20.1371 147.961 16.5723 145.806 13.1983C139.823 4.14696 129.969 -0.239326 116.215 0.0100618C107.578 0.21544 99.1172 3.03206 90.8469 8.44524C81.345 14.6799 76.5354 22.0442 76.4327 30.5234C74.3358 29.5552 71.7257 29.1004 68.617 29.1444C61.9158 29.2911 56.0651 32.3425 51.0648 38.2691C48.0441 41.7899 45.6246 45.472 43.777 49.3155C41.5775 45.1786 38.5422 43.2275 34.6564 43.4916C30.7705 43.6969 27.4273 46.2495 24.6119 51.1639C21.9578 55.7116 20.858 60.0832 21.3125 64.2788C18.7024 63.7653 14.4647 64.4842 8.58463 66.4206C2.70456 68.357 -0.154839 71.555 0.00645976 76C14.1128 75.8973 33.014 75.5892 56.725 75.0758C80.3772 74.621 109.616 74.5917 144.413 75.0025C179.165 75.4572 206.63 75.5452 226.807 75.2372C246.984 74.9291 264.844 74.6504 280.388 74.3863C282.939 69.8387 281.869 66.714 277.162 65.0269C272.455 63.2959 269.346 62.7824 267.806 63.5013C266.369 64.1614 265.636 64.4988 265.577 64.4988C265.372 64.4988 265.225 64.4695 265.123 64.4255V64.2641C264.918 61.6089 264.404 59.3057 263.583 57.3693C262.044 53.5404 259.008 51.6773 254.462 51.7654C251.442 51.8094 249.022 52.6016 247.175 54.1419C246.72 50.9292 245.84 48.1126 244.565 45.7067C241.295 39.5747 235.576 36.5821 227.394 36.7434C226.367 36.6847 225.37 36.7434 224.402 36.8901C224.652 35.3058 224.783 33.4427 224.783 31.2862M327.457 73.3154C327.809 72.9633 328 72.3912 328 71.6284C328 69.9413 326.49 68.9731 323.484 68.7091C320.463 68.4597 318.967 69.4279 318.967 71.6284C318.967 72.2445 319.099 72.7286 319.349 73.0807C320.008 73.9022 321.387 74.313 323.484 74.313C325.581 74.313 326.812 73.9756 327.472 73.3154H327.457Z" fill="#94D1F5"/>
</svg>
