<svg width="291" height="48" viewBox="0 0 291 48" fill="none" xmlns="http://www.w3.org/2000/svg">
<path opacity="0.4" d="M143.35 0.655831C163.359 -0.638135 164.3 18.069 164.305 18.1734C164.332 18.1594 165.553 17.5314 167.601 16.9351C167.602 16.9153 167.604 16.8952 167.605 16.8756C169.335 16.3999 171.552 15.9602 174.11 15.8912C176.482 15.8105 179.15 16.0462 181.957 16.8765C191.485 19.6947 191.854 27.6973 191.862 27.9019C191.952 27.8995 192.088 27.8963 192.268 27.8922C194.953 27.8099 210.527 27.4322 224.629 29.2037C239.717 30.9729 235.775 39.0171 235.559 39.4371C237.389 39.2117 257.244 36.7384 267.172 34.2642C268.799 33.8384 270.662 33.6599 272.607 33.6754H272.734C283.237 33.7587 296.132 39.5033 287.238 42.5689C285.045 43.3242 271.223 44.0498 250.731 44.7105C250.625 44.714 250.517 44.7178 250.41 44.7213C248.804 44.7728 247.157 44.8238 245.472 44.8746C245.095 44.8859 244.716 44.8974 244.335 44.9088C242.744 44.956 241.12 45.0029 239.465 45.0494C239.149 45.0583 238.831 45.0669 238.513 45.0758C237.674 45.0991 236.828 45.121 235.974 45.1441C233.686 45.206 231.344 45.2673 228.952 45.3277C227.59 45.3621 226.212 45.3973 224.818 45.4312C222.429 45.4894 219.995 45.5465 217.522 45.6031C216.074 45.6362 214.613 45.6691 213.139 45.7017C210.419 45.7618 207.656 45.8213 204.855 45.8795C202.69 45.9245 200.502 45.9685 198.295 46.0123C197.646 46.0251 196.995 46.0376 196.342 46.0504C111.461 47.7127 -1.71239 48.4824 0.476588 47.2398C18.6282 37.1238 55.6829 36.8592 55.7207 36.859C55.7496 36.779 61.2148 21.6732 73.501 20.2496C85.8013 18.8248 87.719 32.925 87.7246 32.9664C87.7454 32.925 90.5428 27.3753 97.1221 24.4019C103.726 21.4175 109.949 21.9371 109.949 21.9371C109.949 21.9371 123.284 1.82368 143.35 0.655831Z" fill="#94D1F5"/>
</svg>
