<svg width="80" height="80" viewBox="0 0 80 80" fill="none" xmlns="http://www.w3.org/2000/svg">
<path d="M10.9473 20.3679C10.3731 20.0285 33.1899 33.7528 45.9561 41.4308C46.607 41.8223 46.5961 42.765 45.9403 43.1482L28.6021 53.2789C28.1427 53.5474 27.5535 53.4091 27.2616 52.9642L4.38754 18.113C3.89021 17.3553 4.5767 16.3798 5.45784 16.5922L73.4009 32.9652C74.4181 33.2104 74.4234 34.6554 73.408 34.9079L56.5444 39.1015C41.5939 33.0039 11.5438 20.7205 10.9473 20.3679Z" fill="#EFF8FF"/>
<path fill-rule="evenodd" clip-rule="evenodd" d="M3.96976 18.388C3.22376 17.2514 4.25352 15.7882 5.57523 16.1067L73.5186 32.4798L73.6573 32.5188C75.0429 32.9808 75.0041 35.0256 73.5293 35.3929L56.6651 39.5872C56.5809 39.6081 56.4932 39.6045 56.4102 39.5813L52.166 54.9554C51.7513 56.4573 49.8542 56.9289 48.7842 55.7962L40.4278 46.9475L28.8545 53.7112C28.1655 54.1136 27.2817 53.9056 26.8438 53.2386L3.96976 18.388ZM5.34085 17.0784C4.90035 16.9724 4.55707 17.4603 4.8057 17.8391L27.6797 52.6897C27.8257 52.912 28.121 52.9821 28.3506 52.8479L45.6885 42.7171C45.9999 42.5351 46.0186 42.1103 45.7549 41.8987L45.6983 41.8597C39.3153 38.0207 30.4195 32.6699 23.1914 28.3216C19.5775 26.1474 16.3799 24.2234 14.1221 22.8645C12.9934 22.1852 12.0988 21.6472 11.5049 21.2893C11.2085 21.1108 10.9866 20.9767 10.8477 20.8929C10.7785 20.8511 10.7287 20.8207 10.7012 20.804C10.6909 20.7977 10.6765 20.7889 10.668 20.7835C10.6652 20.7817 10.6565 20.7759 10.6504 20.7718C10.6149 20.7445 10.5214 20.0842 11.127 19.8997C11.1483 19.909 11.1746 19.9223 11.1797 19.9251C11.1821 19.9264 11.1875 19.929 11.1875 19.929C11.1923 19.9317 11.1981 19.9354 11.2022 19.9378C11.1919 19.9317 11.2105 19.9421 11.294 19.9798C11.3651 20.0119 11.4647 20.0557 11.5918 20.1106C11.846 20.2204 12.2049 20.3733 12.6582 20.5638C13.5648 20.9447 14.8453 21.4763 16.4121 22.1243C19.546 23.4204 23.8252 25.1791 28.5528 27.1175C37.9445 30.9683 49.1071 35.5277 56.5821 38.5764L73.2881 34.4231C73.7636 34.3045 73.7905 33.6625 73.3731 33.4817L73.2842 33.4514L5.34085 17.0784ZM10.6953 20.8001L10.7471 20.8245C10.7276 20.8146 10.7085 20.807 10.6934 20.7981C10.6889 20.7955 10.6895 20.7962 10.6895 20.7962C10.6895 20.7962 10.6935 20.7991 10.6953 20.8001Z" fill="#1E76E2"/>
</svg>
