<svg width="80" height="80" viewBox="0 0 81 80" fill="none" xmlns="http://www.w3.org/2000/svg">
<path fill-rule="evenodd" clip-rule="evenodd" d="M40.6719 15.6228C40.9846 15.5615 41.2727 15.6143 41.5537 15.6658C41.6486 15.6831 41.7428 15.701 41.8369 15.7136C44.4329 16.0654 47.0284 16.4203 49.624 16.7751H49.6279C52.7893 17.2074 55.9508 17.6394 59.1133 18.0662C59.4648 18.1142 59.654 18.2382 59.7812 18.6111C61.2198 22.8182 62.6658 27.0221 64.1123 31.2253C64.7451 33.0639 65.3786 34.9029 66.0107 36.7419C66.0232 36.778 66.0392 36.8142 66.0557 36.8503C66.1076 36.964 66.1595 37.0808 66.0986 37.2214L65.5879 40.6746C65.5924 40.6752 65.5971 40.6759 65.6016 40.6765C65.3744 40.9812 65.1548 41.2761 64.9404 41.5642C64.6128 42.0044 64.2959 42.4299 63.9785 42.8542C60.5256 47.4672 57.0708 52.0804 53.6172 56.6912C53.5896 56.7277 53.559 56.7621 53.5303 56.7976L53.3623 57.0408C53.3657 57.0676 53.372 57.0939 53.3828 57.1179L53.2773 57.1648L53.2188 57.2497L48.9336 59.3962C48.656 59.7668 48.3791 60.138 48.1016 60.5085L48.3242 60.9988L46.8125 61.6716L46.6094 61.6706C45.8478 61.6637 45.1033 61.5735 44.3965 61.4685L43.7031 61.3611L42.7461 61.2156C41.4362 61.034 40.1262 60.8524 38.8164 60.6706L38.8154 60.6697H38.8135L28.543 59.2478C28.2839 59.2121 28.0084 59.1654 27.7754 59.0788C27.5672 59.0015 27.1522 58.8057 26.9844 58.2976C26.8234 57.8092 27.0018 57.3646 27.1094 57.1462L26.3984 56.53C26.3841 56.5422 26.3714 56.5573 26.3564 56.5691C26.0621 56.801 25.6889 56.92 25.2842 56.8484L24.7666 56.7556L17.5137 35.6921L18.4551 35.7507C19.1694 34.8827 19.8469 33.9714 20.542 33.03L21.5059 31.7351L24.6318 27.5896C25.672 26.2066 26.7104 24.8218 27.75 23.4372L27.752 23.4363L30.3018 20.0408L30.5283 19.7585L30.6221 19.6462L31.1191 19.033L31.7783 19.3425C32.0424 19.4666 32.2091 19.6543 32.3154 19.8328L33.3379 19.3201L32.9629 18.2302L34.167 17.9939C34.6771 17.8938 35.129 17.9864 35.3887 18.0339L35.6299 18.074L35.6309 18.0749L35.7773 18.0945L37.4365 17.2624C37.4966 17.1831 37.5608 17.107 37.625 17.03C37.6592 16.989 37.6944 16.948 37.7285 16.906C37.7999 16.9396 37.8447 16.9876 37.876 17.0417L40.6758 15.6365C40.6743 15.6322 40.6733 15.627 40.6719 15.6228ZM27.8916 57.823C27.8892 58.0526 28.1511 58.1479 28.7285 58.2273C32.1524 58.6987 35.5759 59.1741 38.999 59.6492L39.002 59.6501C40.3117 59.8319 41.6218 60.0135 42.9316 60.1951C43.2561 60.2402 43.5805 60.2914 43.9043 60.3425C44.822 60.4875 45.741 60.6318 46.6787 60.6404L46.9941 60.4997C46.9867 60.4833 46.9814 60.4659 46.9775 60.448L46.9707 60.3923L46.9854 60.3718L46.7344 60.4988L28.0049 57.9216L27.8916 57.823ZM31.2373 20.4128L31.0449 20.6511C30.1947 21.7821 29.3447 22.9142 28.4951 24.0456L28.4941 24.0466L25.373 28.1999C24.3325 29.5834 23.2918 30.9667 22.248 32.3474L21.291 33.6326L20.7119 34.4148C20.1315 35.1943 19.542 35.9656 18.917 36.7058L18.9209 36.7029L18.959 36.8142L18.9658 36.8181L18.9551 36.8171L25.502 55.8318C25.5362 55.8379 25.5686 55.8391 25.5986 55.8376L25.5303 55.7781L28.7285 44.6824L28.0254 42.6257C27.8066 41.9845 27.8137 41.7695 28.208 41.7566L25.3438 33.4353L25.3535 33.4363L25.3477 33.4324L25.3086 33.321L25.3047 33.324C26.1382 32.3367 26.9085 31.293 27.6787 30.2497C27.9959 29.8201 28.314 29.3905 28.6357 28.9646C29.3344 28.0404 30.0305 27.1138 30.7275 26.1882L31.0342 22.3201L31.3291 20.3288L31.3721 20.3064C31.3617 20.3002 31.3506 20.2933 31.3389 20.2878C31.3048 20.3298 31.2714 20.3719 31.2373 20.4128Z" fill="#1E76E2"/>
<path d="M18.917 36.7058C19.7506 35.7185 20.5207 34.6758 21.291 33.6326C21.6083 33.2028 21.925 32.7731 22.2468 32.3471C24.3348 29.5851 26.4148 26.8158 28.4941 24.0466L28.4951 24.0456C29.3447 22.9142 30.1947 21.7821 31.0449 20.6511C31.1063 20.5697 31.1716 20.4917 31.2373 20.4128C31.2714 20.3719 31.3048 20.3298 31.3389 20.2878C31.4931 20.3602 31.5269 20.4973 31.5583 20.6263C31.5675 20.6644 31.5766 20.7019 31.5886 20.7368C31.8491 21.487 32.1075 22.2382 32.3659 22.9895C32.8342 24.3512 33.3027 25.7134 33.7836 27.0691C33.9208 27.4571 33.8633 27.7131 33.6156 28.0408C32.9463 28.9223 32.2853 29.8108 31.6243 30.6992C30.9061 31.6644 30.1879 32.6297 29.4591 33.5861C28.861 34.3697 28.821 34.6024 29.814 34.7188C32.35 35.0163 34.8744 35.3877 37.3997 35.7592L37.7105 35.805C38.2361 35.8824 38.5887 35.7113 38.9222 35.2591C40.1783 33.5524 41.4434 31.8536 42.7086 30.1548L42.7106 30.1521C43.2056 29.4875 43.7005 28.8228 44.195 28.1577C44.6338 27.5673 44.5852 27.419 43.8898 27.3207C41.6788 27.0092 39.4684 26.7026 37.2556 26.4035C36.987 26.3673 36.7895 26.3189 36.6798 25.9932C36.078 24.2077 35.4638 22.4277 34.8442 20.632L34.8436 20.6303C34.6573 20.0903 34.4705 19.5489 34.2834 19.0055C34.5961 18.9442 34.8837 18.9968 35.1648 19.0483C35.2597 19.0657 35.354 19.083 35.4482 19.0956C38.0443 19.4474 40.64 19.8023 43.2357 20.1572L43.2389 20.1576C46.4005 20.5899 49.5623 21.0222 52.7251 21.4489C53.0767 21.497 53.2648 21.6204 53.3921 21.9936C54.8307 26.2009 56.2772 30.404 57.7238 34.6074C58.3566 36.4462 58.9895 38.285 59.6217 40.1242C59.6342 40.1606 59.6506 40.1966 59.6673 40.233C59.7222 40.353 59.7788 40.4769 59.7005 40.6283C59.6981 40.6273 59.6957 40.6264 59.6933 40.6254C59.6941 40.6275 59.6949 40.6296 59.6957 40.6317C59.637 40.8372 59.5203 40.7923 59.4181 40.753C59.3861 40.7407 59.3556 40.729 59.3286 40.7256C58.3782 40.6008 57.4285 40.4722 56.4788 40.3435C55.2741 40.1803 54.0695 40.0172 52.8634 39.8619C52.5664 39.8242 52.4287 39.7028 52.3282 39.4039C51.6421 37.3736 50.9423 35.3483 50.2428 33.3237C50.1553 33.0706 50.0679 32.8175 49.9805 32.5645C49.7419 31.8715 49.5373 31.8416 49.0906 32.4408C48.5356 33.1855 47.9814 33.9308 47.4272 34.6763C46.2027 36.3231 44.9781 37.9701 43.7454 39.6104C43.4741 39.9718 43.4072 40.2886 43.5553 40.7117C44.2219 42.619 44.8793 44.5303 45.5366 46.4414C45.8479 47.3466 46.1592 48.2517 46.4715 49.1563C46.6959 49.808 46.8652 49.8343 47.278 49.2811C47.5038 48.9793 47.7297 48.6776 47.9555 48.3759C49.1939 46.7214 50.432 45.0673 51.66 43.4038C51.8595 43.1335 52.029 43.0439 52.35 43.0915C54.066 43.3471 55.7856 43.5847 57.5442 43.8277C58.0961 43.904 58.652 43.9808 59.2127 44.0588C58.9854 44.3636 58.7662 44.6581 58.5518 44.9463C58.2239 45.3868 57.9071 45.8124 57.5895 46.237C54.1366 50.85 50.6822 55.4624 47.2285 60.0731C47.1684 60.1527 47.1048 60.2292 47.041 60.3059C47.0175 60.3342 46.9939 60.3625 46.9705 60.391L46.9707 60.3923C46.9717 60.4305 46.9791 60.4666 46.9941 60.4997L46.6787 60.6404C45.741 60.6318 44.822 60.4875 43.9043 60.3425C43.5805 60.2914 43.2561 60.2402 42.9316 60.1951C41.6218 60.0135 40.3117 59.8319 39.002 59.6501L38.999 59.6492C35.5759 59.1741 32.1524 58.6987 28.7285 58.2273C27.7193 58.0885 27.6687 57.9011 28.3214 57.0327C28.6294 56.6228 28.9393 56.2143 29.2492 55.8059C30.1234 54.6535 30.9979 53.5008 31.8316 52.3144C32.3058 51.64 32.8159 51.4116 33.5716 51.5333C35.2135 51.7987 36.8647 52.0164 38.5157 52.234L38.5174 52.2343C38.8318 52.2757 39.1462 52.3172 39.4605 52.359C40.1387 52.4495 40.2509 52.303 40.0145 51.613C39.6629 50.5864 39.3095 49.5609 38.9561 48.5354C38.3965 46.9117 37.8369 45.288 37.2848 43.6605C37.1144 43.1586 36.8361 42.9041 36.3322 42.8402C34.7822 42.6438 33.2355 42.4268 31.6889 42.2097C30.6673 42.0663 29.6451 41.9228 28.6225 41.7854C27.8335 41.6798 27.7463 41.808 28.0254 42.6257C28.1622 43.0259 28.2991 43.4267 28.4355 43.827C28.9948 45.4681 29.554 47.109 30.1408 48.7368C30.3594 49.3434 30.3083 49.805 29.9003 50.3367C28.6108 52.0175 27.3453 53.7186 26.0817 55.4214C26.0603 55.4501 26.0393 55.4802 26.0182 55.5105C25.8932 55.6901 25.7618 55.8779 25.502 55.8318L18.9551 36.8171L18.9658 36.8181L18.959 36.8142L18.9209 36.7029L18.917 36.7058Z" fill="#EFF8FF"/>
</svg>
