<svg width="80" height="80" viewBox="0 0 81 80" fill="none" xmlns="http://www.w3.org/2000/svg">
<path fill-rule="evenodd" clip-rule="evenodd" d="M42.2222 14.3337C43.1506 14.1365 44.1665 14.4681 44.8424 15.1891L50.1021 20.8014L56.6705 19.4049C58.7638 18.96 60.9936 20.1947 61.7515 22.1823L61.8199 22.3776L63.2603 26.8112C63.5204 27.6117 63.6221 28.4168 63.5845 29.1921C63.5746 29.3942 63.4958 29.5781 63.3668 29.7233L63.399 29.7663L63.4547 29.737C63.7229 29.5907 64.0604 29.5786 64.3648 29.7057C64.6692 29.8331 64.9063 30.0843 65.0035 30.3835L71.3756 49.9967C71.8873 51.5724 70.9883 53.1289 69.3678 53.4733L68.942 53.5632L65.8023 58.237C65.5838 58.7443 65.1269 59.1375 64.5123 59.2682L24.0787 67.863C22.9983 68.0926 21.8449 67.427 21.5035 66.3766L15.0846 46.6208L15.1881 46.6276L14.9693 44.7341L14.9576 44.6716L14.9273 44.6706C14.5814 44.17 14.3038 43.6213 14.1138 43.0368L12.6724 38.6032C12.3046 37.4706 12.6686 36.3501 13.5025 35.6803L16.1383 31.6803C15.7101 29.7164 16.8898 27.8606 18.9185 27.4294L23.4635 26.4626L23.5738 25.9059L23.6256 25.7165C23.683 25.5567 23.7713 25.4123 23.8834 25.2887C24.3339 24.6339 25.5883 22.774 26.6637 21.1794L27.1129 18.8991L27.1265 18.8385L27.1783 18.6491L27.1988 18.5827C27.4546 17.8714 28.0695 17.3421 28.8619 17.1735L42.2222 14.3337ZM69.9527 52.0583C70.1383 51.8823 70.2799 51.6701 70.3717 51.4342L69.9527 52.0583ZM70.3795 51.4157C70.5175 51.0485 70.5346 50.6282 70.397 50.2048L64.0523 30.6774L70.3795 51.4157ZM19.2271 28.3805C18.2986 28.5781 17.6086 29.1741 17.2838 29.943L17.5054 29.6071L22.065 33.5563L22.0709 33.5553L23.2554 27.5231L19.2271 28.3805ZM64.0172 30.5944L64.0318 30.6149L64.025 30.5915L64.0172 30.5944ZM44.1031 15.7975C43.6977 15.3653 43.0887 15.1666 42.5318 15.2848L29.1705 18.1247C28.7288 18.2188 28.3808 18.5007 28.2105 18.8825C28.3338 18.6994 28.4073 18.5926 28.4127 18.5846C28.4212 18.5879 29.5547 19.027 29.8521 19.1325L43.0074 16.112C44.1215 16.9504 45.0995 19.5647 45.8121 21.8122L46.5289 22.5768L46.0787 22.6716C46.5442 24.2091 46.8605 25.4045 46.9742 25.4352C47.2683 25.5081 58.2628 26.7519 62.5621 28.6491C62.5484 28.1124 62.459 27.5645 62.2818 27.0192L60.8414 22.5856C60.3294 21.0099 58.6006 20.0117 56.9801 20.3561L49.8053 21.8805L44.1031 15.7975Z" fill="#1E76E2"/>
<path d="M40.2322 41.2777L41.6995 45.7934L48.4242 44.364L46.9718 39.8938L64.025 30.5915L70.397 50.2048C70.7384 51.2553 70.1397 52.2927 69.0593 52.5223L28.6257 61.1167C27.5452 61.3464 26.3927 60.681 26.0513 59.6304L19.6323 39.8747L40.2322 41.2777ZM42.5318 15.2848C43.0887 15.1666 43.6977 15.3653 44.1031 15.7975L49.8053 21.8805L56.9801 20.3561C58.6006 20.0117 60.3294 21.0099 60.8414 22.5856L62.2818 27.0192C62.5044 27.7043 62.5922 28.3934 62.56 29.0592L46.3284 37.9137L45.5996 35.6707L38.8749 37.1001L39.5879 39.2948L19.4745 37.9244C19.1285 37.4238 18.8509 36.8757 18.661 36.2912L17.2203 31.8573C16.7084 30.2815 17.6065 28.725 19.2271 28.3805L26.6182 26.8094L28.1216 19.1602L28.1733 18.9705C28.3267 18.5437 28.695 18.2258 29.1705 18.1247L42.5318 15.2848ZM29.9386 26.1037L46.5289 22.5768L42.5494 18.3315L30.9816 20.7903L29.9386 26.1037Z" fill="#EFF8FF"/>
</svg>
