<svg width="25" height="25" viewBox="0 0 25 25" fill="none" xmlns="http://www.w3.org/2000/svg">
<path fill-rule="evenodd" clip-rule="evenodd" d="M12.1621 3.71411C9.12454 3.71411 6.66211 6.17655 6.66211 9.21411C6.66211 12.2517 9.12454 14.7141 12.1621 14.7141C13.2373 14.7141 14.2405 14.4056 15.0879 13.8722C15.1204 13.8447 15.1566 13.8211 15.1959 13.8025C16.6821 12.8178 17.6621 11.1304 17.6621 9.21411C17.6621 6.17655 15.1997 3.71411 12.1621 3.71411ZM15.9475 14.4987C17.5913 13.3192 18.6621 11.3917 18.6621 9.21411C18.6621 5.62426 15.752 2.71411 12.1621 2.71411C8.57226 2.71411 5.66211 5.62426 5.66211 9.21411C5.66211 11.3921 6.73335 13.32 8.3777 14.4994L7.38075 22.0054C7.35547 22.1957 7.44141 22.3837 7.60188 22.4892C7.76235 22.5946 7.96901 22.5988 8.13364 22.5L12.1621 20.0829L16.1906 22.5C16.3552 22.5988 16.5618 22.5946 16.7223 22.4892C16.8828 22.3838 16.9687 22.1958 16.9435 22.0055L15.9475 14.4987ZM15.0129 15.0573C14.1521 15.478 13.1847 15.7141 12.1621 15.7141C11.1399 15.7141 10.1728 15.4782 9.31233 15.0577L8.50862 21.1088L11.9049 19.0711C12.0632 18.9761 12.261 18.9761 12.4194 19.0711L15.8158 21.1089L15.0129 15.0573Z"/>
</svg>
