<svg width="24" height="24" viewBox="0 0 24 24" fill="none" xmlns="http://www.w3.org/2000/svg">
<path d="M7.30559 8.92747H7.1354C7.1354 9.32648 7.1354 9.717 7.13463 10.1044C7.13424 10.3289 7.13347 10.5524 7.13231 10.7758L7.13598 10.7778C7.14847 10.7846 7.15661 10.789 7.1647 10.789L7.59952 10.7905C8.32404 10.7931 9.04837 10.7957 9.77289 10.789C10.1106 10.7864 10.3397 10.6302 10.4043 10.3336C10.4631 10.0741 10.4866 9.79868 10.4571 9.53652C10.419 9.19757 10.1929 8.91158 9.66419 8.92217C9.11063 8.93525 8.55572 8.93251 8.00043 8.92976C7.76894 8.92861 7.53727 8.92747 7.30559 8.92747Z"/>
<path d="M9.94019 14.3004C10.3369 14.258 10.6306 14.062 10.7274 13.7072C10.7921 13.4768 10.8039 13.2279 10.7861 12.9869C10.748 12.4255 10.3222 12.0839 9.69946 12.0839H7.1354V14.3268L7.82426 14.3274C8.27817 14.328 8.72823 14.3286 9.17963 14.3268C9.43501 14.3268 9.69059 14.3268 9.94019 14.3004Z"/>
<path d="M15.1508 12.0761H18.1819L18.1823 12.042C18.1828 12.0107 18.1834 11.9808 18.179 11.9517C18.088 11.3691 17.753 10.8554 16.9013 10.7998C15.9116 10.7362 15.283 11.3347 15.1508 12.0761Z"/>
<path fill-rule="evenodd" clip-rule="evenodd" d="M12 23C18.0751 23 23 18.0751 23 12C23 5.92487 18.0751 1 12 1C5.92487 1 1 5.92487 1 12C1 18.0751 5.92487 23 12 23ZM11.1445 11.2551C11.5294 11.2842 11.8464 11.3743 12.1109 11.5835C12.4485 11.8509 12.6249 12.1978 12.7101 12.5844C12.8568 13.2597 12.8481 13.9243 12.4985 14.5546C12.1548 15.1742 11.5615 15.5211 10.8391 15.6906C10.5101 15.7674 10.1665 15.815 9.8286 15.8177C8.69026 15.8273 7.55037 15.8257 6.40991 15.8242L6.40785 15.8242C5.98065 15.8236 5.55345 15.823 5.12625 15.823C5.0956 15.823 5.06495 15.8213 5.02833 15.8192L5 15.8177V7.43662L5.01985 7.43508C5.04568 7.43303 5.06746 7.43132 5.09097 7.43132C5.61876 7.43217 6.14694 7.43113 6.67511 7.4301C7.80748 7.42788 8.94082 7.42566 10.0724 7.44191C10.8449 7.4525 11.5234 7.70672 12.0081 8.27869C12.2988 8.62294 12.431 9.02015 12.4603 9.44384C12.4838 9.74307 12.4692 10.0396 12.3547 10.3283C12.1548 10.8314 11.7466 11.1174 11.1445 11.2551ZM18.5784 8.82167L18.5774 8.60629C18.5762 8.42755 18.5751 8.24912 18.5812 8.06962C18.5872 7.94781 18.5431 7.91603 18.4111 7.91603C17.5332 7.92 16.6555 7.9195 15.7779 7.91901L14.7366 7.91868V8.95671H18.5726C18.5726 8.93047 18.5741 8.9064 18.5757 8.88336L18.5758 8.88085C18.5771 8.86061 18.5784 8.84114 18.5784 8.82167ZM17.9469 9.71671C18.9926 10.0159 19.5771 10.6991 19.8474 11.626C19.8958 11.7898 19.9264 11.9562 19.957 12.1234V12.1247C19.9707 12.2002 19.9846 12.2759 20 12.3515V13.1433C19.9775 13.2202 19.9141 13.2179 19.852 13.2156L19.8208 13.2148H15.1801C15.1097 13.6491 15.3505 14.2714 15.9555 14.5097C16.5312 14.7348 17.1187 14.7215 17.6913 14.5123C18.0499 14.3826 18.2495 14.1284 18.2848 13.7682H19.9119C19.9355 14.0171 19.8913 14.2581 19.8092 14.4911C19.5683 15.1611 19.0278 15.553 18.317 15.7834C17.6356 16.0032 16.9337 16.0297 16.2228 15.9767C15.7618 15.9423 15.3183 15.8496 14.9012 15.6669C14.026 15.2829 13.5059 14.6394 13.2827 13.8C12.9803 12.6693 13.1947 11.6154 13.9554 10.6727C14.4723 10.0345 15.2096 9.71141 16.0642 9.60549C16.6987 9.52605 17.333 9.53929 17.9469 9.71671Z"/>
</svg>
