<svg width="24" height="24" viewBox="0 0 24 24" fill="none" xmlns="http://www.w3.org/2000/svg">
<path fill-rule="evenodd" clip-rule="evenodd" d="M11.4755 2.89638V5.05465C11.4755 7.00145 13.0537 8.57965 15.0005 8.57965H16.5241V19.7395H8.10645V14.7183H8.41587C10.3627 14.7183 11.9409 13.1401 11.9409 11.1933V9.38652H10.5815C9.38434 9.38652 8.3266 9.98326 7.68948 10.8955C7.09515 9.78809 5.92624 9.03503 4.58145 9.03503H2.00779V11.1933C2.00779 13.1401 3.58599 14.7183 5.53279 14.7183H7.05645V19.7395H1.47852V20.7895H22.4712V19.7395H17.5741V8.57965H17.8836C19.8304 8.57965 21.4086 7.00145 21.4086 5.05465V3.24786H20.0491C18.852 3.24786 17.7943 3.84461 17.1572 4.75686C16.5628 3.64943 15.3939 2.89638 14.0491 2.89638H11.4755ZM17.8836 7.52965H17.5741V6.77286C17.5741 5.40596 18.6822 4.29786 20.0491 4.29786H20.3586V5.05465C20.3586 6.42155 19.2505 7.52965 17.8836 7.52965ZM16.5241 6.42138V7.52965H15.0005C13.6336 7.52965 12.5255 6.42155 12.5255 5.05465V3.94638H14.0491C15.416 3.94638 16.5241 5.05447 16.5241 6.42138ZM8.41587 13.6683H8.10645V12.9115C8.10645 11.5446 9.21455 10.4365 10.5815 10.4365H10.8909V11.1933C10.8909 12.5602 9.78278 13.6683 8.41587 13.6683ZM7.05645 12.56V13.6683H5.53279C4.16589 13.6683 3.05779 12.5602 3.05779 11.1933V10.085H4.58145C5.94835 10.085 7.05645 11.1931 7.05645 12.56Z"/>
</svg>
