<svg width="24" height="24" viewBox="0 0 24 24" fill="none" xmlns="http://www.w3.org/2000/svg">
<path fill-rule="evenodd" clip-rule="evenodd" d="M4.86468 3.75746C5.00136 3.62147 5.20159 3.57134 5.38622 3.62689L20.4726 8.16559C20.6671 8.22411 20.8105 8.38963 20.8406 8.59054C20.8707 8.79145 20.7821 8.9917 20.6133 9.10467L16.7018 11.7217L21.2999 16.3197C21.5049 16.5248 21.5049 16.8572 21.2999 17.0622L18.2312 20.1309C18.0261 20.336 17.6937 20.336 17.4887 20.1309L12.8877 15.53L10.1444 19.5744C10.0305 19.7425 9.82983 19.8297 9.62921 19.7985C9.42859 19.7673 9.26397 19.6232 9.20645 19.4285L4.73148 4.27835C4.67686 4.09343 4.728 3.89346 4.86468 3.75746ZM9.89885 18.066L12.3753 14.4149C12.4632 14.2853 12.6043 14.2017 12.7602 14.1869C12.916 14.1721 13.0703 14.2277 13.181 14.3384L17.8599 19.0172L20.1862 16.691L15.5073 12.0121C15.3962 11.901 15.3407 11.7459 15.3561 11.5896C15.3714 11.4332 15.456 11.2919 15.5866 11.2045L19.1048 8.85058L6.01352 4.91209L9.89885 18.066Z"/>
</svg>
