<svg width="25" height="25" viewBox="0 0 25 25" fill="none" xmlns="http://www.w3.org/2000/svg">
<path d="M14.0807 9.57536C14.1698 9.31396 14.03 9.02989 13.7686 8.94088C13.5072 8.85188 13.2231 8.99163 13.1341 9.25304L10.3032 17.5671C10.2142 17.8285 10.3539 18.1126 10.6153 18.2016C10.8767 18.2906 11.1608 18.1508 11.2498 17.8894L14.0807 9.57536Z"/>
<path d="M9.5206 10.342C9.71586 10.5372 9.71586 10.8538 9.5206 11.0491L6.89419 13.6755L9.5206 16.3019C9.71586 16.4972 9.71586 16.8138 9.5206 17.009C9.32534 17.2043 9.00876 17.2043 8.81349 17.009L5.47998 13.6755L8.81349 10.342C9.00875 10.1467 9.32534 10.1467 9.5206 10.342Z"/>
<path d="M14.8036 10.342C14.6084 10.5372 14.6084 10.8538 14.8036 11.0491L17.43 13.6755L14.8036 16.3019C14.6084 16.4972 14.6084 16.8138 14.8036 17.009C14.9989 17.2043 15.3155 17.2043 15.5107 17.009L18.8442 13.6755L15.5107 10.342C15.3155 10.1467 14.9989 10.1467 14.8036 10.342Z"/>
<path fill-rule="evenodd" clip-rule="evenodd" d="M2.66211 19.6426C2.66211 21.0233 3.7814 22.1426 5.16211 22.1426H19.1621C20.5428 22.1426 21.6621 21.0233 21.6621 19.6426V5.64258C21.6621 4.26187 20.5428 3.14258 19.1621 3.14258L5.16211 3.14258C3.7814 3.14258 2.66211 4.26187 2.66211 5.64258L2.66211 19.6426ZM20.6621 5.64258C20.6621 4.81415 19.9905 4.14258 19.1621 4.14258L5.16211 4.14258C4.33368 4.14258 3.66211 4.81415 3.66211 5.64258L3.66211 6.2711L20.6621 6.2711V5.64258ZM20.6621 7.2711L3.66211 7.2711L3.66211 19.6426C3.66211 20.471 4.33368 21.1426 5.16211 21.1426H19.1621C19.9905 21.1426 20.6621 20.471 20.6621 19.6426V7.2711Z"/>
</svg>
