<svg width="25" height="25" viewBox="0 0 25 25" fill="none" xmlns="http://www.w3.org/2000/svg">
<path fill-rule="evenodd" clip-rule="evenodd" d="M6.05211 4.31262C6.50998 3.90479 7.10177 3.67944 7.71494 3.67944H9.1797C9.45584 3.67944 9.6797 3.9033 9.6797 4.17944C9.6797 4.45559 9.45584 4.67944 9.1797 4.67944H7.71494C7.34704 4.67944 6.99196 4.81465 6.71724 5.05935L3.88915 7.57841C3.79757 7.65997 3.67921 7.70504 3.55658 7.70504H2.55859C2.28245 7.70504 2.05859 7.9289 2.05859 8.20504V14.5683C2.05859 14.8444 2.28245 15.0683 2.55859 15.0683H3.55658C3.65806 15.0683 3.75714 15.0992 3.84065 15.1568L11.0082 20.1053C11.2623 20.2807 11.6097 20.2232 11.7938 19.9753C11.9834 19.72 11.9288 19.3593 11.6723 19.1714L8.19914 16.6282C7.97634 16.465 7.92798 16.1522 8.09112 15.9294C8.25427 15.7066 8.56714 15.6582 8.78993 15.8214L12.2631 18.3646C12.9673 18.8803 13.117 19.8707 12.5967 20.5715C12.0913 21.252 11.1376 21.4098 10.44 20.9282L3.40075 16.0683H2.55859C1.73017 16.0683 1.05859 15.3967 1.05859 14.5683V8.20504C1.05859 7.37661 1.73017 6.70504 2.55859 6.70504H3.36619L6.05211 4.31262ZM13.2151 4.67944C12.6943 4.67944 12.1934 4.87882 11.8151 5.23663L8.90465 7.98924C8.44254 8.42629 8.35425 9.12922 8.69391 9.66698C9.06623 10.2564 9.83036 10.4587 10.4455 10.1306L13.654 8.41939C13.872 8.3031 14.1423 8.36353 14.29 8.5616L18.5429 14.2627C19.2851 15.2577 19.2992 16.6184 18.5776 17.6286C18.4171 17.8533 18.1049 17.9053 17.8802 17.7448C17.6554 17.5843 17.6034 17.2721 17.7639 17.0474C18.2327 16.3911 18.2235 15.5071 17.7413 14.8606L13.7454 9.50395L10.9161 11.0129C9.83875 11.5876 8.5005 11.2334 7.84844 10.201C7.25357 9.2592 7.40821 8.02813 8.21751 7.26271L11.1279 4.5101C11.6919 3.97667 12.4388 3.67944 13.2151 3.67944H15.8677C16.9226 3.67944 17.9402 4.06938 18.7249 4.77429L20.8742 6.70504H21.7663C22.5947 6.70504 23.2663 7.37661 23.2663 8.20504V15.4246C23.2663 16.253 22.5947 16.9246 21.7663 16.9246H21.2249C20.9488 16.9246 20.7249 16.7007 20.7249 16.4246C20.7249 16.1484 20.9488 15.9246 21.2249 15.9246H21.7663C22.0424 15.9246 22.2663 15.7007 22.2663 15.4246V8.20504C22.2663 7.9289 22.0424 7.70504 21.7663 7.70504H20.6826C20.5592 7.70504 20.4402 7.65944 20.3485 7.577L18.0566 5.51821C17.4554 4.97818 16.6758 4.67944 15.8677 4.67944H13.2151ZM18.0847 8.81771C18.2811 8.62357 18.5976 8.62534 18.7918 8.82166C18.986 9.018 18.9842 9.33458 18.7879 9.52876L18.7861 9.53057L18.782 9.53455L18.7676 9.54857C18.7554 9.56046 18.738 9.57729 18.7163 9.59789C18.6731 9.63896 18.6126 9.69562 18.5427 9.75822C18.4096 9.87743 18.2185 10.0402 18.0444 10.1502C17.845 10.276 17.6078 10.3666 17.4415 10.4226C17.3543 10.4519 17.2777 10.4746 17.2225 10.4901C17.1948 10.4979 17.1722 10.5039 17.156 10.5081L17.1366 10.5131L17.1307 10.5146L17.1288 10.515L17.1278 10.5153C17.1277 10.5153 17.1276 10.5153 17.0091 10.0296L17.1278 10.5153C16.8595 10.5807 16.5888 10.4163 16.5234 10.148C16.458 9.87973 16.6224 9.60926 16.8906 9.54381M16.8906 9.54381L16.8924 9.54335L16.904 9.54039C16.9147 9.53759 16.9313 9.53318 16.9524 9.52725C16.995 9.51532 17.0548 9.49757 17.1226 9.47475C17.2664 9.42638 17.4134 9.36589 17.5106 9.30454C17.6089 9.24245 17.7473 9.12816 17.8755 9.01334C17.9362 8.95893 17.9893 8.90932 18.0271 8.87338C18.0459 8.85548 18.0607 8.84112 18.0707 8.83144L18.0818 8.82062L18.0847 8.81771C18.0847 8.81773 18.0848 8.8177 18.0847 8.81771M11.678 12.4513C11.8546 12.239 12.1698 12.21 12.3822 12.3866L16.5445 15.8476C17.3605 16.5262 17.5267 17.714 16.9282 18.5904C16.7724 18.8185 16.4613 18.8771 16.2333 18.7214C16.0052 18.5656 15.9466 18.2545 16.1024 18.0265C16.41 17.576 16.3246 16.9654 15.9051 16.6166L11.7428 13.1555C11.5305 12.9789 11.5015 12.6637 11.678 12.4513ZM9.75526 14.4052C9.92471 14.1871 10.2388 14.1477 10.4569 14.3172L14.3323 17.329C15.1676 17.9781 15.2956 19.1915 14.6142 20.0006C14.4364 20.2118 14.1209 20.2389 13.9097 20.061C13.6985 19.8831 13.6714 19.5677 13.8493 19.3565C14.165 18.9816 14.1057 18.4193 13.7187 18.1186L9.84324 15.1068C9.6252 14.9373 9.58581 14.6232 9.75526 14.4052Z"/>
</svg>
