<svg width="24" height="24" viewBox="0 0 24 24" fill="none" xmlns="http://www.w3.org/2000/svg">
<path d="M16.5 18H7.5V16.5H16.5V18Z"/>
<path d="M16.5 12V13.5H7.5V12H16.5Z"/>
<path fill-rule="evenodd" clip-rule="evenodd" d="M13.5 1.5C13.725 1.5 13.8744 1.57559 14.0244 1.72559L19.2744 6.97559C19.4244 7.12559 19.5 7.275 19.5 7.5V21C19.5 21.825 18.825 22.5 18 22.5H6C5.175 22.5 4.5 21.825 4.5 21V3C4.5 2.175 5.175 1.5 6 1.5H13.5ZM6 21H18V9H13.5C12.675 9 12 8.325 12 7.5V3H6V21ZM13.5 7.5H17.6997L13.5 3.30029V7.5Z"/>
</svg>
