<?xml version="1.0" encoding="utf-8"?>
<!-- Generator: Adobe Illustrator 19.2.1, SVG Export Plug-In . SVG Version: 6.00 Build 0)  -->
<svg version="1.1" id="Слой_1" xmlns="http://www.w3.org/2000/svg" xmlns:xlink="http://www.w3.org/1999/xlink" x="0px" y="0px"
	 viewBox="0 0 20 20" style="enable-background:new 0 0 20 20;" xml:space="preserve">
<style type="text/css">
	.st0{fill:#0D0F0F;}
</style>
<path d="M9.8,3.5c0.1-0.1,0.3-0.1,0.4,0l8.7,3.8C19.3,7.4,19.3,8,19,8.2l-0.1,0l-2.8,1.2v3.5c0,0.3-0.2,0.6-0.4,0.8l-0.1,0.1l-5.2,2.6c-0.2,0.1-0.5,0.1-0.8,0l-0.1,0l-5.2-2.6c-0.3-0.2-0.5-0.5-0.5-0.9V9.3L1.1,8.2C0.7,8,0.7,7.5,1.1,7.3L9.8,3.5z M4.7,12.9l5.2,2.6l5.2-2.6v-3L10.2,12C10.1,12,9.9,12,9.8,12L4.7,9.7V12.9z M2.6,7.7L10,11l7.4-3.2L10,4.5L2.6,7.7z"/>
</svg>
