<svg width="24" height="24" viewBox="0 0 24 24" fill="none" xmlns="http://www.w3.org/2000/svg">
<path fill-rule="evenodd" clip-rule="evenodd" d="M12.0002 1.2002C11.7237 1.2002 11.4497 1.21058 11.1785 1.23099C5.79521 1.63599 1.51298 5.98733 1.21658 11.4002C1.2057 11.5988 1.2002 11.7989 1.2002 12.0002C1.2002 12.2015 1.2057 12.4016 1.21658 12.6002C1.51298 18.0131 5.7952 22.3644 11.1785 22.7694C11.4497 22.7898 11.7237 22.8002 12.0002 22.8002C12.2767 22.8002 12.5507 22.7898 12.8219 22.7694C18.2052 22.3644 22.4874 18.0131 22.7838 12.6002C22.7947 12.4016 22.8002 12.2015 22.8002 12.0002C22.8002 11.7989 22.7947 11.5988 22.7838 11.4002C22.4874 5.98733 18.2052 1.63599 12.8219 1.23099C12.5507 1.21058 12.2767 1.2002 12.0002 1.2002ZM12.2054 2.40235C12.5073 2.82208 12.8847 3.41085 13.2635 4.16852C14.0767 5.79491 14.8988 8.20391 14.9915 11.4002H9.00885C9.10157 8.20391 9.92366 5.79491 10.7369 4.16852C11.1157 3.41085 11.4931 2.82208 11.795 2.40235C11.8632 2.40092 11.9316 2.4002 12.0002 2.4002C12.0688 2.4002 12.1372 2.40092 12.2054 2.40235ZM9.00885 12.6002H14.9915C14.8988 15.7965 14.0767 18.2055 13.2635 19.8319C12.8847 20.5895 12.5073 21.1783 12.2054 21.598C12.1372 21.5995 12.0688 21.6002 12.0002 21.6002C11.9316 21.6002 11.8632 21.5995 11.795 21.598C11.4931 21.1783 11.1157 20.5895 10.7369 19.8319C9.92366 18.2055 9.10157 15.7965 9.00885 12.6002ZM7.80837 11.4002C7.90167 7.9937 8.77813 5.40269 9.66354 3.63187C9.86347 3.232 10.0637 2.87417 10.2554 2.55837C5.97785 3.34379 2.69218 6.96449 2.41864 11.4002H7.80837ZM2.41864 12.6002H7.80837C7.90167 16.0067 8.77813 18.5977 9.66354 20.3685C9.86347 20.7684 10.0637 21.1262 10.2554 21.442C5.97785 20.6566 2.69218 17.0359 2.41864 12.6002ZM13.745 21.442C18.0225 20.6566 21.3082 17.0359 21.5817 12.6002H16.192C16.0987 16.0067 15.2223 18.5977 14.3369 20.3685C14.1369 20.7684 13.9366 21.1262 13.745 21.442ZM16.192 11.4002C16.0987 7.9937 15.2223 5.40269 14.3369 3.63187C14.1369 3.232 13.9366 2.87417 13.745 2.55837C18.0225 3.34379 21.3082 6.96449 21.5817 11.4002H16.192Z"/>
</svg>
