<svg width="16" height="16" viewBox="0 0 16 16" fill="none" xmlns="http://www.w3.org/2000/svg">
<path d="M6 9C6.26522 9 6.5195 9.10543 6.70703 9.29297C6.89457 9.4805 7 9.73478 7 10V13C7 13.2652 6.89457 13.5195 6.70703 13.707C6.5195 13.8946 6.26522 14 6 14H3C2.73478 14 2.48051 13.8946 2.29297 13.707C2.10543 13.5195 2 13.2652 2 13V10C2 9.73478 2.10543 9.4805 2.29297 9.29297C2.48051 9.10543 2.73478 9 3 9H6ZM13 9C13.2652 9 13.5195 9.10543 13.707 9.29297C13.8946 9.4805 14 9.73478 14 10V13C14 13.2652 13.8946 13.5195 13.707 13.707C13.5195 13.8946 13.2652 14 13 14H10C9.73478 14 9.4805 13.8946 9.29297 13.707C9.10543 13.5195 9 13.2652 9 13V10C9 9.73478 9.10543 9.4805 9.29297 9.29297C9.4805 9.10543 9.73478 9 10 9H13ZM3 13H6V10H3V13ZM10 10V13H13V10H10ZM6 2C6.26522 2 6.5195 2.10543 6.70703 2.29297C6.89457 2.48051 7 2.73478 7 3V6C7 6.26522 6.89457 6.5195 6.70703 6.70703C6.5195 6.89457 6.26522 7 6 7H3C2.73478 7 2.48051 6.89457 2.29297 6.70703C2.10543 6.5195 2 6.26522 2 6V3C2 2.73478 2.10543 2.48051 2.29297 2.29297C2.48051 2.10543 2.73478 2 3 2H6ZM13 2C13.2652 2 13.5195 2.10543 13.707 2.29297C13.8946 2.48051 14 2.73478 14 3V6C14 6.26522 13.8946 6.5195 13.707 6.70703C13.5195 6.89457 13.2652 7 13 7H10C9.73478 7 9.4805 6.89457 9.29297 6.70703C9.10543 6.5195 9 6.26522 9 6V3C9 2.73478 9.10543 2.48051 9.29297 2.29297C9.4805 2.10543 9.73478 2 10 2H13ZM3 6H6V3H3V6ZM10 6H13V3H10V6Z" fill="#2A303E"/>
</svg>
