<?xml version="1.0" encoding="utf-8"?>
<!-- Generator: Adobe Illustrator 19.2.1, SVG Export Plug-In . SVG Version: 6.00 Build 0)  -->
<svg version="1.1" id="Слой_1" xmlns="http://www.w3.org/2000/svg" xmlns:xlink="http://www.w3.org/1999/xlink" x="0px" y="0px"
	 viewBox="0 0 24 24" style="enable-background:new 0 0 24 24;" xml:space="preserve">
<style type="text/css">
	.st0{fill:#2D323E;}
</style>
<g>
	<path  d="M10.4,11.9H6.8v-1.1h3.6V11.9z"/>
	<path d="M6.8,17.8h1.6v1.7h1v-1.7h2v1.7h1.1v-1.7h2v1.7h1.1v-1.7h1.6v-1h-1.6v-1.7h-1.1v1.7h-2v-1.7h-1.1v1.7h-2v-1.7h-1v1.7H6.8V17.8z"/>
	<path d="M13.6,11.9h3.6v-1.1h-3.6V11.9z"/>
	<path d="M20.3,8.4h1c0.7,0,1.3,0.6,1.3,1.3v3.2c0,0.7-0.6,1.3-1.3,1.3h-1V18c0,2.5-2,4.5-4.5,4.5H8.3c-2.5,0-4.5-2-4.5-4.5v-3.9h-1c-0.7,0-1.3-0.6-1.3-1.3V9.7C1.5,9,2,8.4,2.7,8.4h1V1.5h16.5V8.4z M7.7,7.3c-0.2,0.1-0.3,0.1-0.5,0L4.8,6.1V18c0,1.9,1.5,3.5,3.4,3.5h7.5c1.9,0,3.5-1.5,3.5-3.5V7.2l-2.7-1.4l-2.7,1.5c-0.2,0.1-0.4,0.1-0.5,0l-2.8-1.5L7.7,7.3z M20.3,13.1V9.5h1c0.1,0,0.2,0.1,0.2,0.2v3.2c0,0.1-0.1,0.2-0.2,0.2H20.3z M3.8,9.5h-1c-0.1,0-0.2,0.1-0.2,0.2v3.2c0,0.1,0.1,0.2,0.2,0.2h1V9.5z M19.2,2.5V6l-2.5-1.3c-0.2-0.1-0.3-0.1-0.5,0l-2.7,1.5l-2.8-1.5c-0.2-0.1-0.3-0.1-0.5,0L7.4,6.3L4.8,4.9V2.5H19.2z"/>
</g>
</svg>
