<svg width="24" height="24" viewBox="0 0 24 24" fill="none" xmlns="http://www.w3.org/2000/svg">
<path fill-rule="evenodd" clip-rule="evenodd" d="M2 3.43267C2 2.64164 2.66169 2 3.47796 2H20.522C21.3383 2 22 2.64164 22 3.43267V20.5673C22 21.3586 21.3383 22 20.522 22H3.47796C2.66169 22 2 21.3586 2 20.5673V3.43267ZM8.06268 18.7422V9.71104H5.04185V18.7422H8.06268ZM6.55225 8.47799C7.60567 8.47799 8.26134 7.7845 8.26134 6.91784C8.24171 6.03167 7.60568 5.35742 6.57224 5.35742C5.5389 5.35742 4.86328 6.03167 4.86328 6.91784C4.86328 7.7845 5.51881 8.47799 6.53256 8.47799H6.55225ZM12.7552 18.7422H9.73446C9.73446 18.7422 9.7741 10.5585 9.73446 9.71104H12.7552V10.9897C12.7484 11.0001 12.7417 11.0105 12.7351 11.0208H12.7552V10.9897C13.1567 10.3743 13.8752 9.49912 15.4776 9.49912C17.4651 9.49912 18.9554 10.7899 18.9554 13.5638V18.7422H15.9349V13.9107C15.9349 12.6966 15.4976 11.8685 14.4045 11.8685C13.57 11.8685 13.0729 12.427 12.8546 12.9663C12.7748 13.1592 12.7552 13.4289 12.7552 13.6988V18.7422Z"/>
</svg>
