<svg width="24" height="24" viewBox="0 0 24 24" fill="none" xmlns="http://www.w3.org/2000/svg">
<path fill-rule="evenodd" clip-rule="evenodd" d="M10.7237 7.19265C10.7237 9.15872 9.12994 10.7525 7.16388 10.7525C5.19781 10.7525 3.604 9.15872 3.604 7.19265C3.604 5.22659 5.19781 3.63278 7.16388 3.63278C9.12994 3.63278 10.7237 5.22659 10.7237 7.19265ZM7.16388 9.70252C8.55004 9.70252 9.67375 8.57882 9.67375 7.19265C9.67375 5.80649 8.55004 4.68278 7.16388 4.68278C5.77771 4.68278 4.654 5.80649 4.654 7.19265C4.654 8.57882 5.77771 9.70252 7.16388 9.70252Z"/>
<path fill-rule="evenodd" clip-rule="evenodd" d="M18.1873 8.13113C18.1873 9.62397 16.9771 10.8342 15.4843 10.8342C13.9914 10.8342 12.7812 9.62397 12.7812 8.13113C12.7812 6.63829 13.9914 5.42811 15.4843 5.42811C16.9771 5.42811 18.1873 6.63829 18.1873 8.13113ZM15.4843 9.78416C16.3972 9.78416 17.1373 9.04407 17.1373 8.13113C17.1373 7.21819 16.3972 6.47811 15.4843 6.47811C14.5713 6.47811 13.8312 7.21819 13.8312 8.13113C13.8312 9.04407 14.5713 9.78416 15.4843 9.78416Z"/>
<path d="M17.6561 14.0302H13.3136C13.2192 14.0302 13.1257 14.034 13.0333 14.0414C12.642 13.7153 12.1945 13.4544 11.7075 13.2753C12.2063 13.0846 12.7478 12.9802 13.3136 12.9802H17.6561C20.1414 12.9802 22.1561 14.9949 22.1561 17.4802V20.4042H14.6541V19.3542H21.1061V17.4802C21.1061 15.5748 19.5615 14.0302 17.6561 14.0302Z"/>
<path fill-rule="evenodd" clip-rule="evenodd" d="M10.1535 12.9999C12.6388 12.9999 14.6535 15.0146 14.6535 17.4999V20.4239H2.57422V13.0002L2.62341 12.9999H10.1535ZM13.6035 17.4999C13.6035 15.5945 12.0589 14.0499 10.1535 14.0499H3.62422V19.374H13.6035V17.4999Z"/>
</svg>
