<svg width="24" height="24" viewBox="0 0 24 24" fill="none" xmlns="http://www.w3.org/2000/svg">
<path d="M2.93015 13.2073C2.93015 11.8357 3.22108 10.5473 3.80296 9.34201C4.38483 8.1367 5.17451 7.03529 6.17201 6.0378C7.21107 4.99874 8.39559 4.12593 9.72559 3.41937L10.8478 4.85327C9.80871 5.68452 8.91512 6.59889 8.167 7.59639C7.41888 8.55232 7.04482 9.52904 7.04482 10.5265C7.04482 11.1084 7.14872 11.5032 7.35654 11.7111C7.56435 11.9189 7.8345 12.1267 8.167 12.3345C8.62419 12.5839 9.03981 12.9371 9.41387 13.3943C9.78793 13.8515 9.97496 14.475 9.97496 15.2646C9.97496 16.1374 9.68403 16.8856 9.10216 17.509C8.52028 18.1324 7.77216 18.4442 6.85779 18.4442C5.77717 18.4442 4.84201 18.0078 4.05233 17.1349C3.30421 16.2621 2.93015 14.9529 2.93015 13.2073ZM12.4687 13.2073C12.4687 11.8357 12.7596 10.5473 13.3415 9.34201C13.9234 8.1367 14.7131 7.03529 15.7106 6.0378C16.7496 4.99874 17.9342 4.12593 19.2642 3.41937L20.3863 4.85327C19.3473 5.68452 18.4537 6.59889 17.7056 7.59639C16.9574 8.55232 16.5834 9.52904 16.5834 10.5265C16.5834 11.1084 16.6873 11.5032 16.8951 11.7111C17.1029 11.9189 17.3731 12.1267 17.7056 12.3345C18.1627 12.5839 18.5784 12.9371 18.9524 13.3943C19.3265 13.8515 19.5135 14.475 19.5135 15.2646C19.5135 16.1374 19.2226 16.8856 18.6407 17.509C18.0588 18.1324 17.3107 18.4442 16.3963 18.4442C15.3157 18.4442 14.3806 18.0078 13.5909 17.1349C12.8428 16.2621 12.4687 14.9529 12.4687 13.2073Z" fill="#1E76E2"/>
</svg>
