<svg width="24" height="25" viewBox="0 0 24 25" fill="none" xmlns="http://www.w3.org/2000/svg">
<path d="M15 1.87695C15.3978 1.87695 15.7792 2.0351 16.0605 2.31641C16.3419 2.59771 16.5 2.97913 16.5 3.37695V4.12695H18.75C19.1478 4.12695 19.5292 4.2851 19.8105 4.56641C20.0919 4.84771 20.25 5.22913 20.25 5.62695V21.377C20.25 21.7748 20.0919 22.1562 19.8105 22.4375C19.5292 22.7188 19.1478 22.877 18.75 22.877H5.25C4.85218 22.877 4.47076 22.7188 4.18945 22.4375C3.90815 22.1562 3.75 21.7748 3.75 21.377V5.62695C3.75 5.22913 3.90815 4.84771 4.18945 4.56641C4.47076 4.2851 4.85218 4.12695 5.25 4.12695H7.5V3.37695C7.5 2.97913 7.65815 2.59771 7.93945 2.31641C8.22076 2.0351 8.60218 1.87695 9 1.87695H15ZM5.25 5.62695V21.377H18.75V5.62695H16.5V7.87695H7.5V5.62695H5.25ZM11.25 19.127H7.5V17.627H11.25V19.127ZM13.5 15.377H7.5V13.877H13.5V15.377ZM16.5 11.627H7.5V10.127H16.5V11.627ZM9 3.37695V6.37695H15V3.37695H9Z" fill="white"/>
</svg>
