<svg width="24" height="24" viewBox="0 0 24 24" fill="none" xmlns="http://www.w3.org/2000/svg">
<path d="M15.4121 8.41309L21 9.22461L20.7871 10.7109L15.1963 9.89746L14.416 9.78418L14.0664 9.07617L12 4.88965L9.93457 9.07617L9.58496 9.78418L8.80469 9.89746L4.18359 10.5684L7.52734 13.8281L8.0918 14.3779L7.95898 15.1562L7.16992 19.7578L10.5 18.0068V19.7021L5.17676 22.5L6.48047 14.9023L0.960938 9.52148L8.58887 8.41309L12 1.5L15.4121 8.41309ZM19.501 21H13.501V19.5H19.501V21ZM22.501 18H13.501V16.5H22.501V18ZM22.501 15H13.501V13.5H22.501V15Z" fill="white"/>
</svg>
