<svg width="24" height="24" viewBox="0 0 24 24" fill="none" xmlns="http://www.w3.org/2000/svg">
<path fill-rule="evenodd" clip-rule="evenodd" d="M20.9773 11.4948C20.7255 6.94915 17.0972 3.3041 12.5587 3.02586V1.53951H11.5087V3.02198C6.93877 3.26808 3.27578 6.92668 3.02275 11.4948H1.55273V12.5448H3.02502C3.29692 17.0944 6.95195 20.7326 11.5087 20.978V22.5H12.5587V20.9741C17.084 20.6967 20.7044 17.072 20.975 12.5448H22.5143V11.4948H20.9773ZM11.5087 7.48059V4.07374C7.51886 4.31727 4.32499 7.50678 4.0746 11.4948L7.49382 11.4948V12.5448H4.07718C4.34611 16.5143 7.53204 19.6835 11.5087 19.9263V16.5589H12.5587V19.9219C16.5039 19.6477 19.6554 16.4918 19.9228 12.5448H16.5732V11.4948L19.9254 11.4948C19.6764 7.52925 16.517 4.35325 12.5587 4.07814V7.48059H11.5087Z"/>
</svg>
