<?xml version="1.0" encoding="utf-8"?>
<!-- Generator: Adobe Illustrator 19.2.1, SVG Export Plug-In . SVG Version: 6.00 Build 0)  -->
<svg version="1.1" id="Слой_1" xmlns="http://www.w3.org/2000/svg" xmlns:xlink="http://www.w3.org/1999/xlink" x="0px" y="0px"
	 viewBox="0 0 40 40" style="enable-background:new 0 0 40 40;" xml:space="preserve">
<style type="text/css">
	.st0{fill:none;}
</style>
<g>
	<path d="M5.9,0C6.5,0,7,0.5,7,1.1l0,0.2c0.1,0.6,0.6,1.1,1.2,1.1c0.6,0,1.1-0.5,1.2-1.1l0-0.2C9.4,0.5,9.9,0,10.5,0h4.8c0.6,0,1.1,0.5,1.2,1.1l0,0.2c0.1,0.6,0.6,1.1,1.2,1.1c0.6,0,1.1-0.5,1.2-1.1l0-0.2C19,0.5,19.5,0,20.1,0h4.7c0.6,0,1.1,0.5,1.2,1.1l0,0.2c0.1,0.6,0.6,1.1,1.2,1.1c0.6,0,1.1-0.5,1.2-1.1l0-0.2C28.3,0.5,28.8,0,29.5,0h4.7c0.6,0,1.2,0.5,1.2,1.2v9c-0.3,0.2-0.7,0.4-1,0.7L19.8,25.5L17,30.1c-0.1,0.2-0.1,0.3-0.2,0.5H8.2c-0.6,0-1.2,0.5-1.2,1.2C7,32.4,7.6,33,8.2,33h8.6c0.1,0.2,0.1,0.4,0.3,0.6c0.9,1.5,2.9,2.3,4.8,1.3l4.6-2.7l8.9-8.9v15.6c0,0.6-0.5,1.2-1.2,1.2h-33C0.5,40,0,39.5,0,38.8V1.2C0,0.5,0.5,0,1.2,0H5.9z M8.2,23.6c-0.6,0-1.2,0.5-1.2,1.2c0,0.6,0.5,1.2,1.2,1.2h9.5c0.6,0,1.2-0.5,1.2-1.2c0-0.6-0.5-1.2-1.2-1.2H8.2z M8.2,16.6c-0.6,0-1.2,0.5-1.2,1.2c0,0.6,0.5,1.2,1.2,1.2h16.6c0.6,0,1.2-0.5,1.2-1.2c0-0.6-0.5-1.2-1.2-1.2H8.2z M8.2,9.5C7.6,9.5,7,10.1,7,10.7c0,0.6,0.5,1.2,1.2,1.2h18.9c0.6,0,1.2-0.5,1.2-1.2c0-0.6-0.5-1.2-1.2-1.2H8.2z"/>
	<path d="M25.6,29.6L25,30.2l-4.3,2.6c-1,0.6-2.1-0.6-1.6-1.6l2.6-4.3l0.6-0.6L25.6,29.6z"/>
	<path d="M35.8,19.4l-8.6,8.6l-3.3-3.3l8.6-8.6L35.8,19.4z"/>
	<path d="M36,12.6c0.9-0.9,2.4-0.9,3.3,0c0.9,0.9,0.9,2.4,0,3.3l-1.8,1.8l-3.3-3.3L36,12.6z"/>
</g>
</svg>
