<svg width="40" height="40" viewBox="0 0 40 40" fill="none" xmlns="http://www.w3.org/2000/svg">
<path d="M11.7627 31.8626L5.46711 38.9476C4.2701 40.2942 2.18642 40.3557 0.912261 39.0819C-0.361958 37.8076 -0.300337 35.7232 1.04654 34.5262L7.99885 28.0988L11.7627 31.8626Z"/>
<path fill-rule="evenodd" clip-rule="evenodd" d="M24.9951 6.1709C29.8707 6.1709 33.8232 10.1234 33.8232 14.999C33.8231 19.8745 29.8706 23.8271 24.9951 23.8271C20.1196 23.8271 16.1671 19.8745 16.167 14.999C16.167 10.1234 20.1195 6.1709 24.9951 6.1709ZM23.7646 18.4878V20.8315H26.1084V18.4878H23.7646ZM24.9365 8.95085C22.9895 8.95085 21.4112 10.5294 21.4111 12.4762H23.7549C23.755 11.8237 24.284 11.2946 24.9365 11.2946C25.5891 11.2946 26.1181 11.8237 26.1182 12.4762C26.1181 13.1288 25.5891 13.6579 24.9365 13.6579H23.7646V16.7495H26.1084V15.8014C27.4792 15.3183 28.4619 14.0123 28.4619 12.4762C28.4618 10.5294 26.8835 8.95085 24.9365 8.95085Z"/>
<path fill-rule="evenodd" clip-rule="evenodd" d="M24.9951 -0.000976562C33.2794 -0.000946302 39.9951 6.71474 39.9951 14.999C39.9949 23.2832 33.2793 29.999 24.9951 29.999C21.7553 29.999 18.7558 28.9711 16.3037 27.2248L13.3708 30.1569L9.72085 26.507L12.7685 23.6896L12.7742 23.6953C11.0252 21.2424 9.99517 18.2414 9.99511 14.999C9.99511 6.71473 16.7108 -0.000976562 24.9951 -0.000976562ZM24.9951 3.82715C18.8251 3.82715 13.8232 8.829 13.8232 14.999C13.8234 21.1689 18.8252 26.1709 24.9951 26.1709C31.165 26.1709 36.1668 21.1689 36.167 14.999C36.167 8.82901 31.1651 3.82715 24.9951 3.82715Z"/>
</svg>
