<svg width="24" height="24" viewBox="0 0 24 24" fill="none" xmlns="http://www.w3.org/2000/svg">
<path d="M1.25391 10.9387L1.2652 10.8649C1.29387 10.6779 1.32251 10.4909 1.35096 10.3038C1.5047 9.2937 1.80849 8.32845 2.24645 7.40467C2.79187 6.25447 3.51877 5.22889 4.43382 4.33772C5.9349 2.87576 7.71277 1.91812 9.77611 1.48173C10.6922 1.28795 11.6183 1.21902 12.5497 1.27225C14.9624 1.40986 17.098 2.25295 18.9348 3.80911C20.7033 5.30714 21.8585 7.18709 22.4274 9.41904C22.6921 10.4569 22.7889 11.5151 22.7253 12.5814C22.5688 15.2127 21.5901 17.5065 19.7637 19.4286C18.256 21.0154 16.4147 22.0403 14.2665 22.5186C13.8055 22.6212 13.3383 22.6933 12.8654 22.7227C12.8576 22.7232 12.8494 22.7231 12.8411 22.723C12.8132 22.7226 12.7839 22.7222 12.7612 22.7455H11.1774C11.0769 22.7305 10.9758 22.727 10.8746 22.7234C10.7918 22.7205 10.709 22.7176 10.6265 22.7085C10.0509 22.6445 9.48817 22.5216 8.9331 22.3609C7.84746 22.0462 6.84253 21.5627 5.90965 20.9318C5.50065 20.6553 5.1169 20.3475 4.7485 20.0191C3.86934 19.2361 3.15606 18.3243 2.57153 17.3102C2.16921 16.6119 1.8684 15.8711 1.62998 15.1043C1.6275 15.0964 1.62503 15.0886 1.62354 15.0807C1.62151 15.07 1.61835 15.0589 1.61515 15.0477C1.60434 15.0097 1.59319 14.9705 1.62453 14.9409C1.66029 14.9072 1.70447 14.9269 1.74416 14.9447C1.75064 14.9475 1.757 14.9504 1.76318 14.9529C2.09832 15.0894 2.43296 15.2276 2.76761 15.3659L2.7686 15.3663C3.06496 15.4887 3.36122 15.6114 3.65747 15.7342C4.27792 15.9911 4.89836 16.2481 5.51971 16.503C5.5313 16.5077 5.54281 16.5127 5.55432 16.5177C5.58067 16.5291 5.60706 16.5405 5.63409 16.5493C5.73783 16.5832 5.78957 16.6506 5.81582 16.7578C5.94208 17.2722 6.18892 17.7263 6.55608 18.1099C7.03416 18.6096 7.61894 18.9182 8.31043 19.0131C9.17374 19.1318 9.95189 18.9164 10.6233 18.3726C11.2492 17.8658 11.6166 17.206 11.7171 16.4058C11.734 16.2717 11.7431 16.138 11.7392 16.0033C11.7367 15.913 11.7746 15.8505 11.8484 15.798C12.2941 15.4801 12.74 15.1625 13.1859 14.8449L13.1871 14.844C13.8922 14.3417 14.5972 13.8395 15.3016 13.3364C15.3675 13.2893 15.4358 13.2609 15.518 13.2592C16.0208 13.2489 16.5105 13.1674 16.9787 12.98C17.8673 12.6243 18.5501 12.0351 19.023 11.2095C19.306 10.7157 19.477 10.1834 19.5256 9.62019C19.5758 9.03761 19.5169 8.46214 19.3154 7.90728C19.0985 7.30998 18.7665 6.78284 18.303 6.344C17.6739 5.74818 16.9287 5.38122 16.0617 5.26396C15.2585 5.15554 14.4895 5.27647 13.7673 5.63289C12.9407 6.04082 12.321 6.66142 11.9147 7.48709C11.6486 8.02821 11.5163 8.59975 11.5072 9.20024C11.5059 9.27677 11.4839 9.34251 11.4403 9.4058C11.2332 9.70537 11.0252 10.0043 10.8172 10.3033C10.2512 11.1168 9.6847 11.9309 9.13735 12.7566C8.98236 12.9903 8.80114 13.0467 8.55281 13.0524C8.02745 13.0646 7.55358 13.2457 7.1114 13.5153C7.03341 13.5628 6.96483 13.5508 6.88908 13.5194C6.63699 13.4142 6.38425 13.3103 6.13149 13.2064C5.89298 13.1083 5.65446 13.0103 5.41647 12.9111C4.88665 12.6903 4.35587 12.4718 3.82502 12.2533C3.50309 12.1207 3.181 11.9881 2.85922 11.8551C2.65234 11.7695 2.44538 11.6843 2.23842 11.599C1.95843 11.4836 1.67773 11.3679 1.398 11.2519C1.34482 11.2284 1.292 11.205 1.25391 11.1589V10.9387Z"/>
<path d="M7.91911 13.9059L8.45323 14.1274C8.72588 14.2404 8.99426 14.3516 9.26255 14.4631C10.0635 14.7963 10.4789 15.6227 10.2625 16.452C10.0402 17.3039 9.16451 17.8394 8.296 17.652C8.07466 17.6043 7.86899 17.5144 7.66337 17.4246C7.56541 17.3818 7.46745 17.339 7.36782 17.3007C7.21022 17.2402 7.0546 17.1749 6.89499 17.1079C6.8217 17.0771 6.74743 17.0459 6.67188 17.0147C7.13559 18.0528 8.42053 18.6369 9.6104 18.147C10.798 17.6581 11.3524 16.2796 10.824 15.1012C10.2827 13.8932 8.9339 13.4953 7.91911 13.9059Z"/>
<path fill-rule="evenodd" clip-rule="evenodd" d="M15.5393 6.53174C17.0802 6.53885 18.2525 7.8153 18.2308 9.23699C18.2537 10.7072 17.0156 11.9543 15.5166 11.9445C14.0294 11.9346 12.8137 10.73 12.8125 9.2457C12.8113 7.74375 14.0308 6.52487 15.5393 6.53174ZM13.504 9.21332C13.5033 10.3351 14.4059 11.2566 15.5062 11.2569C16.644 11.2574 17.5539 10.3598 17.5546 9.23613C17.5554 8.12273 16.6478 7.21366 15.5351 7.21366C14.4233 7.21366 13.5047 8.11782 13.504 9.21332Z"/>
</svg>
