<svg width="25" height="25" viewBox="0 0 25 25" fill="none" xmlns="http://www.w3.org/2000/svg">
<path fill-rule="evenodd" clip-rule="evenodd" d="M9.59152 5.42822C7.97411 5.42822 6.66295 6.73939 6.66295 8.35679C6.66295 9.9742 7.97411 11.2854 9.59152 11.2854C11.2089 11.2854 12.5201 9.9742 12.5201 8.35679C12.5201 6.73939 11.2089 5.42822 9.59152 5.42822ZM5.66295 8.35679C5.66295 6.1871 7.42183 4.42822 9.59152 4.42822C11.7612 4.42822 13.5201 6.1871 13.5201 8.35679C13.5201 10.5265 11.7612 12.2854 9.59152 12.2854C7.42183 12.2854 5.66295 10.5265 5.66295 8.35679ZM15.1071 4.91563C15.1756 4.64812 15.448 4.48678 15.7155 4.55528C16.5606 4.77164 17.3096 5.26311 17.8445 5.95219C18.3793 6.64127 18.6697 7.48877 18.6697 8.36108C18.6697 9.23339 18.3793 10.0809 17.8445 10.77C17.3096 11.4591 16.5606 11.9505 15.7155 12.1669C15.448 12.2354 15.1756 12.074 15.1071 11.8065C15.0386 11.539 15.2 11.2666 15.4675 11.1981C16.0974 11.0368 16.6558 10.6705 17.0545 10.1568C17.4532 9.64312 17.6697 9.01135 17.6697 8.36108C17.6697 7.71081 17.4532 7.07904 17.0545 6.56536C16.6558 6.05168 16.0974 5.68532 15.4675 5.52403C15.2 5.45553 15.0386 5.18314 15.1071 4.91563ZM3.38503 15.8646C4.12178 15.1278 5.12102 14.7139 6.16295 14.7139H13.0201C14.062 14.7139 15.0613 15.1278 15.798 15.8646C16.5348 16.6013 16.9487 17.6006 16.9487 18.6425V20.3568C16.9487 20.6329 16.7248 20.8568 16.4487 20.8568C16.1725 20.8568 15.9487 20.6329 15.9487 20.3568V18.6425C15.9487 17.8658 15.6401 17.1209 15.0909 16.5717C14.5417 16.0225 13.7968 15.7139 13.0201 15.7139H6.16295C5.38624 15.7139 4.64135 16.0225 4.09213 16.5717C3.54292 17.1209 3.23438 17.8658 3.23438 18.6425V20.3568C3.23438 20.6329 3.01052 20.8568 2.73438 20.8568C2.45823 20.8568 2.23438 20.6329 2.23438 20.3568V18.6425C2.23438 17.6006 2.64828 16.6013 3.38503 15.8646ZM18.536 15.2004C18.605 14.933 18.8777 14.7722 19.1451 14.8412C19.9879 15.0589 20.7346 15.5502 21.2679 16.2382C21.8012 16.9261 22.0909 17.7717 22.0915 18.6421V20.3568C22.0915 20.6329 21.8677 20.8568 21.5915 20.8568C21.3154 20.8568 21.0915 20.6329 21.0915 20.3568V18.6429C21.091 17.994 20.8751 17.3637 20.4775 16.8508C20.08 16.338 19.5234 15.9717 18.8951 15.8095C18.6277 15.7405 18.4669 15.4677 18.536 15.2004Z" fill="#2A303E"/>
</svg>
