<?xml version="1.0" encoding="utf-8"?>
<!-- Generator: Adobe Illustrator 19.2.1, SVG Export Plug-In . SVG Version: 6.00 Build 0)  -->
<svg version="1.1" id="Слой_1" xmlns="http://www.w3.org/2000/svg" xmlns:xlink="http://www.w3.org/1999/xlink" x="0px" y="0px"
	 viewBox="0 0 24 24" style="enable-background:new 0 0 24 24;" xml:space="preserve">
<style type="text/css">
	.st0{fill:#0D0F0F;}
</style>
<path d="M4.2,11c4.8-2.1,8.1-3.5,9.7-4.2c4.6-1.9,5.6-2.2,6.2-2.3c0.1,0,0.4,0,0.6,0.2c0.2,0.1,0.2,0.3,0.2,0.4c0,0.1,0,0.4,0,0.7c-0.2,2.6-1.3,9-1.9,11.9c-0.2,1.2-0.7,1.7-1.1,1.7c-1,0.1-1.7-0.6-2.6-1.2c-1.5-1-2.3-1.6-3.7-2.5C10,14.6,11.1,14,12,13.1c0.2-0.3,4.5-4.1,4.6-4.5c0,0,0-0.2-0.1-0.3c-0.1-0.1-0.2-0.1-0.3,0c-0.1,0-2.5,1.6-7,4.6c-0.7,0.5-1.3,0.7-1.8,0.7c-0.6,0-1.7-0.3-2.6-0.6c-1-0.3-1.9-0.5-1.8-1.1C3,11.6,3.5,11.3,4.2,11z"/>
</svg>
