<svg width="24" height="24" viewBox="0 0 24 24" fill="none" xmlns="http://www.w3.org/2000/svg">
<path d="M15.0703 2C20.6732 2.00007 21.9999 3.32683 22 8.92969V15.0703C21.9999 20.6732 20.6732 21.9999 15.0703 22H8.92969C3.32683 21.9999 2.00007 20.6732 2 15.0703V8.92969C2.00007 3.32682 3.32682 2.00007 8.92969 2H15.0703ZM5.51855 8C5.07409 8.00012 5 8.19963 5 8.41309C5.00025 8.79807 5.51971 10.7334 7.41699 13.2949C8.67718 15.0457 10.4709 15.9852 12.0869 15.9854C13.0655 15.9854 13.1846 15.7719 13.1846 15.416V14.0928C13.1846 13.6657 13.2736 13.5947 13.585 13.5947C13.8074 13.5948 14.208 13.7081 15.1123 14.5479C16.1502 15.5443 16.328 16 16.9062 16H18.4336C18.8781 15.9999 19.0852 15.7866 18.9668 15.374C18.8334 14.9612 18.3291 14.3631 17.6768 13.6514C17.3209 13.2528 16.7871 12.8112 16.624 12.5977C16.402 12.3133 16.4612 12.1992 16.624 11.9434C16.6157 11.9347 18.4785 9.40731 18.6709 8.55469C18.7744 8.2418 18.6703 8.01466 18.2109 8.01465H16.6836C16.2983 8.01469 16.1204 8.21336 16.0166 8.42676C16.0166 8.42676 15.2309 10.2492 14.1338 11.4307C13.778 11.7722 13.6146 11.8857 13.4219 11.8857C13.3181 11.8857 13.1846 11.7722 13.1846 11.459V8.54102C13.1846 8.17091 13.0655 8 12.7393 8H10.3379C10.1007 8 9.95215 8.17098 9.95215 8.3418C9.95231 8.69753 10.5012 8.78304 10.5605 9.7793V11.9434C10.5605 12.4128 10.471 12.498 10.2783 12.498C9.7593 12.4978 8.49929 10.6617 7.74316 8.56934C7.59489 8.15653 7.44605 8 7.06055 8H5.51855Z" fill="white"/>
</svg>
