<?xml version="1.0" encoding="utf-8"?>
<!-- Generator: Adobe Illustrator 19.2.1, SVG Export Plug-In . SVG Version: 6.00 Build 0)  -->
<svg version="1.1" id="Слой_1" xmlns="http://www.w3.org/2000/svg" xmlns:xlink="http://www.w3.org/1999/xlink" x="0px" y="0px"
	 viewBox="0 0 24 24" style="enable-background:new 0 0 24 24;" xml:space="preserve">
<style type="text/css">
	.st0{fill:#0D0F0F;}
</style>
<path fill-rule="evenodd" clip-rule="evenodd" d="M22,12c0,5.5-4.5,10-10,10c-1.8,0-3.6-0.5-5-1.4L2,22l1.4-5C2.5,15.6,2,13.8,2,12C2,6.5,6.5,2,12,2C17.5,2,22,6.5,22,12z M9.2,7c0.2,0,0.4,0,0.6,0.5c0.1,0.3,0.4,0.9,0.5,1.3c0.1,0.3,0.2,0.6,0.3,0.7c0.1,0.1,0.1,0.3,0,0.5c0,0,0,0.1,0,0.1c-0.1,0.1-0.1,0.2-0.2,0.4c0,0.1-0.1,0.1-0.1,0.2c-0.1,0.1-0.2,0.2-0.3,0.3c-0.1,0.1-0.3,0.3-0.1,0.5c0.2,0.3,0.7,1.1,1.5,1.8c0.9,0.8,1.6,1.1,2,1.2c0.1,0,0.1,0.1,0.2,0.1c0.3,0.1,0.4,0.1,0.6-0.1c0.2-0.2,0.7-0.8,0.8-1c0.2-0.3,0.4-0.2,0.6-0.1c0.2,0.1,1.6,0.7,1.8,0.9c0.1,0,0.1,0,0.1,0.1c0.2,0.1,0.3,0.1,0.4,0.2c0.1,0.1,0.1,0.6-0.2,1.3c-0.2,0.6-1.3,1.2-1.8,1.3c0,0-0.1,0-0.1,0c-0.5,0.1-1,0.1-3.1-0.7c-2.5-1-4.2-3.4-4.5-3.9c0,0,0-0.1-0.1-0.1l0,0C7.9,12.1,7,10.8,7,9.5c0-1.2,0.6-1.9,0.9-2.2l0,0c0,0,0,0,0,0C8.2,7.1,8.5,7,8.6,7h0C8.8,7,9,7,9.2,7z"/>
</svg>
