<svg width="80" height="80" viewBox="0 0 80 80" fill="none" xmlns="http://www.w3.org/2000/svg">
<path fill-rule="evenodd" clip-rule="evenodd" d="M64.0224 11.7656L64.5097 11.7861C68.1935 12.0325 70.6795 14.3244 71.1171 17.4824C73.8575 19.0188 75.1023 22.1859 73.9951 25.8076L63.8906 58.8613C62.3466 63.9109 56.8147 67.9299 51.5351 67.8379L16.9765 67.2344C13.0243 67.1653 10.3344 64.8119 9.87887 61.5146C7.26034 60.0444 6.00767 57.0848 6.87203 53.6621L7.00289 53.1924L17.1084 20.1396C18.604 15.2476 23.8427 11.3227 28.9687 11.166L29.4638 11.1621L64.0224 11.7656ZM29.1718 12.1191C24.4444 12.0367 19.4909 15.6347 18.1084 20.1562L8.00289 53.21C7.12129 56.0942 7.9076 58.655 9.81832 60.1543C9.84987 59.4387 9.9782 58.6914 10.2129 57.9238L20.3173 24.8711C21.8612 19.8213 27.3931 15.8025 32.6728 15.8945L67.2314 16.4971C68.197 16.514 69.0869 16.6685 69.8877 16.9385C69.1536 14.4696 66.8953 12.7772 63.7304 12.7217L29.1718 12.1191Z" fill="#1E76E2"/>
<path fill-rule="evenodd" clip-rule="evenodd" d="M63.7304 12.7217C68.4576 12.8045 71.1684 16.5371 69.7861 21.0586L59.6806 54.1123C58.2979 58.6334 53.3461 62.2315 48.6191 62.1494L14.0605 61.5459C9.33313 61.4634 6.62087 57.7314 8.00289 53.21L18.1084 20.1562C19.4909 15.6347 24.4444 12.0367 29.1718 12.1191L63.7304 12.7217ZM60.0214 21.9648C59.4697 21.9529 58.8976 22.3733 58.7441 22.9033L50.3261 52.0439L50.3017 52.1426C50.2129 52.628 50.5304 53.0156 51.0478 53.0273C51.5652 53.0386 52.1007 52.6706 52.2919 52.1875L52.3251 52.0889L60.7441 22.9473C60.8967 22.4172 60.573 21.9773 60.0214 21.9648ZM47.2587 36.0381C46.7576 35.9035 46.2349 36.2248 46.0917 36.7549L42.0839 51.6377L42.0624 51.7363C41.9783 52.2332 42.2636 52.7158 42.7333 52.8428C43.2035 52.9692 43.6932 52.6948 43.87 52.2227L43.9003 52.127L47.9081 37.2441C48.0505 36.7138 47.7598 36.1732 47.2587 36.0381ZM43.0243 21.5869C42.4726 21.575 41.9005 21.9953 41.747 22.5254L33.329 51.667L33.3046 51.7656C33.2161 52.2509 33.5335 52.6376 34.0507 52.6494C34.5682 52.6607 35.1037 52.2928 35.2948 51.8096L35.328 51.7109L43.747 22.5693C43.8994 22.0394 43.5758 21.5994 43.0243 21.5869ZM35.5624 17.2314C35.0107 17.2195 34.4386 17.6399 34.2851 18.1699L24.664 51.4746L24.6405 51.5723C24.5516 52.0578 24.8684 52.4461 25.3857 52.458C25.9033 52.4693 26.4398 52.0996 26.6308 51.6162L26.663 51.5195L36.2851 18.2139C36.4377 17.6838 36.114 17.2439 35.5624 17.2314ZM24.5302 25.2354C23.9785 25.2234 23.4064 25.6438 23.2529 26.1738L16.037 51.1523C15.8841 51.6826 16.2079 52.1223 16.7597 52.1348C17.3116 52.1466 17.8838 51.7266 18.037 51.1963L25.2529 26.2178C25.4055 25.6877 25.0818 25.2478 24.5302 25.2354Z" fill="#EDF8FF"/>
<path d="M71.0937 19.7354C71.0272 20.1732 70.9259 20.6207 70.787 21.0752L60.6816 54.1289C60.6334 54.2864 60.5811 54.4433 60.5253 54.5986L60.6816 54.1289L70.7861 21.0762C70.9251 20.6213 71.0271 20.1736 71.0937 19.7354Z" fill="#EDF8FF"/>
<path d="M6.87203 53.6621C6.81156 53.9016 6.76358 54.1394 6.72356 54.374C6.76528 54.1294 6.8168 53.8818 6.88078 53.6318L6.87203 53.6621Z" fill="#EDF8FF"/>
<path d="M64.0224 11.7656C64.2109 11.7689 64.3964 11.7785 64.579 11.792C64.556 11.7903 64.5328 11.7877 64.5097 11.7861L64.0224 11.7656Z" fill="#EDF8FF"/>
</svg>
