<svg width="80" height="80" viewBox="0 0 80 80" fill="none" xmlns="http://www.w3.org/2000/svg">
<path fill-rule="evenodd" clip-rule="evenodd" d="M41.8883 14.3337C42.8166 14.1365 43.8325 14.4681 44.5084 15.1891L49.7681 20.8014L56.3365 19.4049C58.4298 18.96 60.6596 20.1947 61.4176 22.1823L61.4859 22.3776L62.9263 26.8112C63.1865 27.6117 63.2881 28.4168 63.2506 29.1921C63.2406 29.3942 63.1618 29.5781 63.0328 29.7233L63.065 29.7663L63.1207 29.737C63.3889 29.5907 63.7265 29.5786 64.0308 29.7057C64.3352 29.8331 64.5723 30.0843 64.6695 30.3835L71.0416 49.9967C71.5534 51.5724 70.6543 53.1289 69.0338 53.4733L68.608 53.5632L65.4683 58.237C65.2499 58.7443 64.7929 59.1375 64.1783 59.2682L23.7447 67.863C22.6644 68.0926 21.5109 67.427 21.1695 66.3766L14.7506 46.6208L14.8541 46.6276L14.6353 44.7341L14.6236 44.6716L14.5933 44.6706C14.2474 44.17 13.9698 43.6213 13.7799 43.0368L12.3385 38.6032C11.9706 37.4706 12.3346 36.3501 13.1685 35.6803L15.8043 31.6803C15.3761 29.7164 16.5558 27.8606 18.5846 27.4294L23.1295 26.4626L23.2398 25.9059L23.2916 25.7165C23.349 25.5567 23.4373 25.4123 23.5494 25.2887C23.9999 24.6339 25.2543 22.774 26.3297 21.1794L26.7789 18.8991L26.7926 18.8385L26.8443 18.6491L26.8648 18.5827C27.1206 17.8714 27.7355 17.3421 28.5279 17.1735L41.8883 14.3337ZM69.6187 52.0583C69.8043 51.8823 69.9459 51.6701 70.0377 51.4342L69.6187 52.0583ZM70.0455 51.4157C70.1835 51.0485 70.2006 50.6282 70.0631 50.2048L63.7183 30.6774L70.0455 51.4157ZM18.8931 28.3805C17.9646 28.5781 17.2747 29.1741 16.9498 29.943L17.1715 29.6071L21.731 33.5563L21.7369 33.5553L22.9215 27.5231L18.8931 28.3805ZM63.6832 30.5944L63.6978 30.6149L63.691 30.5915L63.6832 30.5944ZM43.7691 15.7975C43.3638 15.3653 42.7548 15.1666 42.1978 15.2848L28.8365 18.1247C28.3948 18.2188 28.0468 18.5007 27.8765 18.8825C27.9998 18.6994 28.0733 18.5926 28.0787 18.5846C28.0872 18.5879 29.2207 19.027 29.5181 19.1325L42.6734 16.112C43.7875 16.9504 44.7655 19.5647 45.4781 21.8122L46.1949 22.5768L45.7447 22.6716C46.2102 24.2091 46.5266 25.4045 46.6402 25.4352C46.9343 25.5081 57.9288 26.7519 62.2281 28.6491C62.2144 28.1124 62.125 27.5645 61.9478 27.0192L60.5074 22.5856C59.9954 21.0099 58.2667 20.0117 56.6461 20.3561L49.4713 21.8805L43.7691 15.7975Z" fill="#1E76E2"/>
<path d="M39.8983 41.2777L41.3655 45.7934L48.0902 44.364L46.6378 39.8938L63.691 30.5915L70.0631 50.2048C70.4044 51.2553 69.8057 52.2927 68.7253 52.5223L28.2917 61.1167C27.2112 61.3464 26.0587 60.681 25.7173 59.6304L19.2983 39.8747L39.8983 41.2777ZM42.1978 15.2848C42.7548 15.1666 43.3638 15.3653 43.7691 15.7975L49.4713 21.8805L56.6461 20.3561C58.2667 20.0117 59.9954 21.0099 60.5074 22.5856L61.9478 27.0192C62.1704 27.7043 62.2582 28.3934 62.226 29.0592L45.9944 37.9137L45.2656 35.6707L38.5409 37.1001L39.254 39.2948L19.1405 37.9244C18.7945 37.4238 18.5169 36.8757 18.327 36.2912L16.8863 31.8573C16.3744 30.2815 17.2725 28.725 18.8931 28.3805L26.2842 26.8094L27.7876 19.1602L27.8394 18.9705C27.9928 18.5437 28.3611 18.2258 28.8365 18.1247L42.1978 15.2848ZM29.6046 26.1037L46.1949 22.5768L42.2154 18.3315L30.6477 20.7903L29.6046 26.1037Z" fill="#EFF8FF"/>
</svg>
