<svg width="80" height="80" viewBox="0 0 80 80" fill="none" xmlns="http://www.w3.org/2000/svg">
<path d="M56.628 8.09564C56.6348 8.09657 56.6417 8.0966 56.6485 8.09759C56.7006 8.10537 56.7512 8.11695 56.8008 8.12884C56.8158 8.13242 56.831 8.13467 56.8457 8.13861C56.8889 8.15019 56.9306 8.16496 56.9717 8.17962C56.9906 8.18635 57.0099 8.1918 57.0284 8.19916C57.0673 8.2147 57.1048 8.2326 57.1416 8.25091C57.1608 8.2604 57.1797 8.27 57.1983 8.28021C57.2137 8.28869 57.2283 8.29853 57.2432 8.30755L57.2588 8.3056L61.752 11.6767L52.251 65.4882L20.9659 71.5312L16.4405 68.1454L16.4424 68.1327L16.4385 68.1298C16.4071 68.1009 16.3773 68.0706 16.3487 68.039C16.3211 68.0085 16.2935 67.9781 16.2686 67.9452C16.2572 67.9301 16.2472 67.914 16.2364 67.8984C16.2145 67.8668 16.1924 67.8352 16.1729 67.8017C16.1584 67.7768 16.146 67.7505 16.1329 67.7245C16.1187 67.6966 16.1043 67.6687 16.0918 67.6396C16.0805 67.6131 16.0706 67.5859 16.0606 67.5585C16.0499 67.5293 16.0394 67.4999 16.0303 67.4697C16.0204 67.4367 16.0119 67.4032 16.004 67.3691C15.9971 67.3399 15.9917 67.3102 15.9864 67.2802C15.981 67.25 15.9757 67.2195 15.9717 67.1884C15.9662 67.1449 15.9625 67.1007 15.96 67.0556C15.959 67.0371 15.9557 67.0187 15.9551 66.9999V66.9726C15.9547 66.9448 15.9574 66.9169 15.9581 66.8886C15.9609 66.7754 15.9698 66.658 15.9913 66.537L25.1221 15.1767C25.136 15.0988 25.1539 15.0213 25.1748 14.9443C25.1819 14.9184 25.1905 14.8929 25.1983 14.8671C25.214 14.8153 25.2293 14.7631 25.2481 14.7119C25.2615 14.6753 25.2772 14.6396 25.292 14.6035C25.307 14.567 25.3215 14.5301 25.3379 14.4941C25.356 14.4545 25.3768 14.416 25.3965 14.3769C25.4101 14.3501 25.4222 14.3224 25.4366 14.2958L25.4678 14.2392L25.5586 14.0878C25.5666 14.0753 25.575 14.0631 25.5831 14.0507C25.603 14.0201 25.6237 13.9899 25.6446 13.9599C25.6702 13.923 25.6966 13.8865 25.7237 13.8505C25.7512 13.8139 25.7797 13.7778 25.8086 13.7421C25.8306 13.7151 25.8533 13.6885 25.876 13.662C25.908 13.6248 25.9402 13.5877 25.9737 13.5517C25.9979 13.5256 26.0229 13.5 26.0479 13.4745C26.0808 13.441 26.1144 13.4082 26.1485 13.3759C26.1793 13.3468 26.2105 13.3181 26.2422 13.29C26.2718 13.2638 26.3018 13.238 26.3321 13.2128C26.3625 13.1875 26.3937 13.1629 26.4248 13.1386C26.4645 13.1077 26.5042 13.077 26.545 13.0478C26.569 13.0306 26.5938 13.0146 26.6182 12.998C26.661 12.9689 26.7033 12.9392 26.7471 12.912C26.7733 12.8958 26.8007 12.8816 26.8272 12.8661C26.8745 12.8385 26.9215 12.8103 26.9698 12.7851C26.9935 12.7727 27.0181 12.7617 27.042 12.7499C27.0878 12.7274 27.1333 12.7047 27.1797 12.6845C27.2238 12.6653 27.2689 12.6488 27.3135 12.6318C27.3423 12.6208 27.3705 12.6086 27.3995 12.5986L27.4141 12.5937C27.4883 12.5684 27.5635 12.5463 27.6387 12.5273L27.8799 12.4775L55.9961 8.10443L56.2334 8.07904C56.3057 8.07505 56.3765 8.07509 56.4454 8.07806C56.5077 8.08075 56.5686 8.08745 56.628 8.09564Z" fill="#1E76E2"/>
<path fill-rule="evenodd" clip-rule="evenodd" d="M60.2591 11.3007C61.5531 11.0994 62.417 11.982 62.1878 13.2714L53.057 64.6308C52.8278 65.92 51.593 67.1285 50.2992 67.33L22.1829 71.704C20.8891 71.9052 20.026 71.0226 20.2552 69.7333L29.3861 18.3739C29.6153 17.0846 30.8499 15.876 32.1439 15.6747L60.2591 11.3007ZM39.8285 62.1493C40.0576 60.8601 39.1945 59.9786 37.9007 60.1796C36.6069 60.3809 35.3723 61.5886 35.1429 62.8778C34.9139 64.167 35.7768 65.0498 37.0706 64.8485C38.3644 64.6471 39.5991 63.4384 39.8285 62.1493ZM49.8509 18.5956C49.9655 17.9511 49.5338 17.5099 48.887 17.6102L41.8577 18.704C41.2109 18.8048 40.5934 19.409 40.4788 20.0536C40.3646 20.6979 40.7961 21.1384 41.4427 21.038L48.472 19.9452C49.1187 19.8444 49.7361 19.24 49.8509 18.5956Z" fill="#EFF8FF"/>
<path d="M50.4741 66.3452L50.2992 67.33L22.1829 71.704L22.3581 70.7188L50.4741 66.3452ZM52.0689 64.7845L61.1995 13.4247C61.332 12.6793 60.8328 12.1693 60.0847 12.2856L31.9687 16.6592C31.2205 16.7756 30.5065 17.4743 30.3739 18.2198L21.2433 69.5796C21.1108 70.3251 21.6099 70.8351 22.3581 70.7188L22.1829 71.704L21.9458 71.729C20.863 71.7891 20.1421 71.0519 20.2252 69.9707L20.2552 69.7333L29.3861 18.3739C29.601 17.1651 30.6995 16.0276 31.9022 15.7243L32.1439 15.6747L60.2591 11.3007L60.4968 11.2763C61.657 11.2121 62.4027 12.0627 62.1878 13.2714L53.057 64.6308L53.0019 64.8721C52.6944 65.9881 51.6628 66.9979 50.5404 67.281L50.2992 67.33L50.4741 66.3452C51.2223 66.2287 51.9363 65.53 52.0689 64.7845Z" fill="#1E76E2"/>
</svg>
