<svg width="48" height="48" viewBox="0 0 48 48" fill="none" xmlns="http://www.w3.org/2000/svg">
<path fill-rule="evenodd" clip-rule="evenodd" d="M31.1934 7.18066C33.9546 7.18088 36.1934 9.41938 36.1934 12.1807V35.8193C36.1934 38.5806 33.9546 40.8191 31.1934 40.8193H15.2227C12.4612 40.8193 10.2227 38.5808 10.2227 35.8193V18.2256C10.2227 16.9168 10.7361 15.6602 11.6523 14.7256L17.5781 8.68066C18.5185 7.72139 19.8051 7.18067 21.1484 7.18066H31.1934ZM32.2412 26.6484C31.8507 26.2583 31.2175 26.258 30.8271 26.6484L26.0146 31.46L22.1816 27.627C21.9941 27.4396 21.7397 27.334 21.4746 27.334C21.2426 27.3341 21.0187 27.4147 20.8408 27.5605L20.7676 27.627L14.583 33.8115C14.1926 34.2019 14.1928 34.835 14.583 35.2256C14.9735 35.6161 15.6066 35.6161 15.9971 35.2256L21.4746 29.748L25.3086 33.582C25.496 33.7693 25.7506 33.8749 26.0156 33.875C26.2807 33.875 26.5352 33.7694 26.7227 33.582L32.2412 28.0625C32.6317 27.672 32.6317 27.039 32.2412 26.6484ZM23.9805 18.0195C23.4282 18.0195 22.9805 18.4672 22.9805 19.0195C22.9805 19.5718 23.4282 20.0195 23.9805 20.0195H32.5137L32.6162 20.0146C33.1202 19.9632 33.5137 19.5371 33.5137 19.0195C33.5137 18.5019 33.1202 18.0759 32.6162 18.0244L32.5137 18.0195H23.9805ZM23.9805 12.5381C23.4283 12.5381 22.9807 12.986 22.9805 13.5381C22.9805 14.0904 23.4282 14.5381 23.9805 14.5381H32.5137L32.6162 14.5332C33.1202 14.4817 33.5137 14.0557 33.5137 13.5381C33.5134 13.0207 33.1201 12.5944 32.6162 12.543L32.5137 12.5381H23.9805Z" fill="#E0F2FF"/>
<path fill-rule="evenodd" clip-rule="evenodd" d="M31.1934 7.18066C33.9546 7.18088 36.1934 9.41938 36.1934 12.1807V35.8193C36.1934 38.5806 33.9546 40.8191 31.1934 40.8193H15.2227C12.4612 40.8193 10.2227 38.5808 10.2227 35.8193V18.2256C10.2227 16.9168 10.7361 15.6602 11.6523 14.7256L17.5781 8.68066C18.5185 7.72139 19.8051 7.18067 21.1484 7.18066H31.1934ZM32.2412 26.6484C31.8507 26.2583 31.2175 26.258 30.8271 26.6484L26.0146 31.46L22.1816 27.627C21.9941 27.4396 21.7397 27.334 21.4746 27.334C21.2426 27.3341 21.0187 27.4147 20.8408 27.5605L20.7676 27.627L14.583 33.8115C14.1926 34.2019 14.1928 34.835 14.583 35.2256C14.9735 35.6161 15.6066 35.6161 15.9971 35.2256L21.4746 29.748L25.3086 33.582C25.496 33.7693 25.7506 33.8749 26.0156 33.875C26.2807 33.875 26.5352 33.7694 26.7227 33.582L32.2412 28.0625C32.6317 27.672 32.6317 27.039 32.2412 26.6484ZM23.9805 18.0195C23.4282 18.0195 22.9805 18.4672 22.9805 19.0195C22.9805 19.5718 23.4282 20.0195 23.9805 20.0195H32.5137L32.6162 20.0146C33.1202 19.9632 33.5137 19.5371 33.5137 19.0195C33.5137 18.5019 33.1202 18.0759 32.6162 18.0244L32.5137 18.0195H23.9805ZM23.9805 12.5381C23.4283 12.5381 22.9807 12.986 22.9805 13.5381C22.9805 14.0904 23.4282 14.5381 23.9805 14.5381H32.5137L32.6162 14.5332C33.1202 14.4817 33.5137 14.0557 33.5137 13.5381C33.5134 13.0207 33.1201 12.5944 32.6162 12.543L32.5137 12.5381H23.9805Z" fill="#1E76E2"/>
</svg>
