<svg width="48" height="48" viewBox="0 0 49 49" fill="none" xmlns="http://www.w3.org/2000/svg">
<path d="M24.1064 32.6338L36.9368 26.7644H37.0113V31.729H36.9945L37.0188 31.7399L24.1064 37.6469L11.194 31.7399L11.2183 31.729H11.1957V26.7644H11.2761L24.1064 32.6338Z" fill="#1E76E2"/>
<path d="M23.7524 11.5141C23.9775 11.412 24.2354 11.412 24.4605 11.5141L43.7705 20.2806C44.2684 20.5067 44.3961 21.0901 44.1539 21.5002V30.5956C44.1538 31.2367 43.634 31.7566 42.9929 31.7566C42.3517 31.7566 41.832 31.2367 41.8319 30.5956V22.7281L24.463 30.6743C24.2366 30.7779 23.9763 30.7779 23.7498 30.6743L4.43986 21.8409C3.77143 21.535 3.77304 20.5845 4.44237 20.2806L23.7524 11.5141Z" fill="#1E76E2"/>
</svg>
