<svg width="48" height="48" viewBox="0 0 49 49" fill="none" xmlns="http://www.w3.org/2000/svg">
<path d="M17.1178 33.6881C17.1836 33.7695 17.1984 33.8802 17.1652 33.9794C17.0302 34.3803 16.8678 35.133 16.9914 35.874C17.1342 36.7291 17.6011 37.3885 18.1447 37.6901C18.5645 37.9228 19.6307 38.2697 20.5408 37.7956C21.264 37.4187 21.6951 37.0053 21.8967 36.7479C21.9698 36.6545 22.0884 36.5993 22.2046 36.6231C22.3155 36.6458 22.401 36.7354 22.4089 36.8484C22.4588 37.5605 22.329 38.9442 21.4608 40.0173C20.508 41.1947 16.7618 42.5788 15.0075 43.124C14.6421 41.4357 14.0296 37.6477 14.5031 36.0003C14.9389 34.4851 16.154 33.7967 16.8424 33.5959C16.9441 33.5663 17.0511 33.6058 17.1178 33.6881Z" fill="#1E76E2"/>
<path fill-rule="evenodd" clip-rule="evenodd" d="M35.8018 7.25273C36.252 7.86274 37.0322 9.81391 36.9791 13.4369C36.9095 18.1812 35.4751 23.2475 33.9398 25.9667C32.7116 28.142 31.5491 29.6479 31.1211 30.129C31.9423 31.3891 33.0618 34.9898 29.9001 38.3694C28.089 40.3053 25.5938 41.6053 25.0282 41.4188C24.4637 41.2296 23.7822 35.0072 23.7802 34.9888L22.0063 35.2772L18.3912 33.1901L18.3402 33.1596L17.7026 31.4799C17.7026 31.4799 11.9571 34.0088 11.5101 33.6141C11.0657 33.2177 10.944 30.4068 11.715 27.8702C13.061 23.4423 16.739 22.6115 18.2409 22.6926C18.4435 22.0815 19.1667 20.3212 20.4366 18.1697C22.024 15.4804 25.6942 11.705 29.7681 9.27267C32.878 7.41595 34.9572 7.11588 35.7112 7.20042L35.7409 7.17407C35.7499 7.18453 35.7584 7.19624 35.7678 7.20793C35.7826 7.21018 35.797 7.21168 35.8105 7.21425L35.8018 7.25273ZM30.3331 16.7533C28.7494 15.8392 26.7247 16.3821 25.8104 17.9657C24.8962 19.5494 25.4383 21.5743 27.0218 22.4887C28.6055 23.4031 30.6308 22.8603 31.5452 21.2767C32.4596 19.6929 31.9169 17.6677 30.3331 16.7533Z" fill="#1E76E2"/>
</svg>
