<svg width="48" height="48" viewBox="0 0 49 48" fill="none" xmlns="http://www.w3.org/2000/svg">
<path d="M24.666 17.415C28.3024 17.4152 31.2508 20.3626 31.251 23.999C31.251 27.6356 28.3026 30.5839 24.666 30.584C21.0294 30.584 18.0811 27.6357 18.0811 23.999C18.0813 20.3626 21.0295 17.415 24.666 17.415Z" fill="#E0F2FF"/>
<path fill-rule="evenodd" clip-rule="evenodd" d="M27.0742 5.88379C27.4997 5.88379 27.8786 6.15296 28.0186 6.55469L29.0762 9.59277C29.1105 9.69156 29.1276 9.79493 29.1299 9.89941C29.9454 10.1573 30.73 10.4844 31.4775 10.873C31.5548 10.7977 31.644 10.7354 31.7412 10.6885L34.6309 9.29395C35.0139 9.10914 35.4727 9.1866 35.7734 9.4873L39.1426 12.8564C39.4394 13.1534 39.5188 13.6046 39.3418 13.9854L37.9795 16.918C37.9331 17.0178 37.8691 17.1081 37.793 17.1875C38.1815 17.9346 38.5077 18.7191 38.7656 19.5342C38.8733 19.5356 38.9803 19.5534 39.082 19.5889L42.1113 20.6465C42.5128 20.7866 42.7822 21.1656 42.7822 21.5908V26.3555C42.7822 26.7754 42.5194 27.1508 42.125 27.2949L39.0879 28.4053C38.9845 28.443 38.8756 28.4626 38.7656 28.4648C38.5077 29.28 38.1806 30.0643 37.792 30.8115C37.8674 30.8888 37.9306 30.977 37.9775 31.0742L39.3721 33.9648C39.5569 34.3478 39.4794 34.8057 39.1787 35.1064L35.8096 38.4756C35.5126 38.7725 35.0615 38.8528 34.6807 38.6758L31.748 37.3125C31.6478 37.2658 31.5562 37.2026 31.4766 37.126C30.7293 37.5144 29.945 37.8408 29.1299 38.0986C29.1284 38.2063 29.1117 38.3133 29.0762 38.415L28.0186 41.4443C27.8784 41.8458 27.4995 42.1152 27.0742 42.1152H22.3096C21.8897 42.1151 21.5142 41.8524 21.3701 41.458L20.2607 38.4209C20.223 38.3175 20.2025 38.2086 20.2002 38.0986C19.3853 37.8407 18.6015 37.5135 17.8545 37.125C17.7763 37.1991 17.6876 37.2611 17.5898 37.3066L14.6514 38.6748C14.2705 38.8521 13.8195 38.7727 13.5225 38.4756L10.1543 35.1074C9.85343 34.8066 9.77579 34.3479 9.96094 33.9648L11.3604 31.0684C11.4061 30.9739 11.4674 30.8882 11.54 30.8125C11.1511 30.0648 10.8245 29.2796 10.5664 28.4639C10.4595 28.4607 10.3535 28.442 10.2529 28.4053L7.20801 27.2949C6.81337 27.1509 6.55082 26.7756 6.55078 26.3555V21.5918C6.55078 21.1664 6.82001 20.7875 7.22168 20.6475L10.2598 19.5889C10.3585 19.5545 10.462 19.5365 10.5664 19.5342C10.8244 18.7189 11.1504 17.9339 11.5391 17.1865C11.4658 17.1088 11.4046 17.0207 11.3594 16.9238L9.99121 13.9854C9.81391 13.6045 9.8935 13.1536 10.1904 12.8564L13.5586 9.4873C13.8594 9.1865 14.3181 9.10893 14.7012 9.29395L17.5977 10.6934C17.6921 10.739 17.7778 10.8005 17.8535 10.873C18.601 10.4843 19.3857 10.1574 20.2012 9.89941C20.2043 9.79252 20.2241 9.68653 20.2607 9.58594L21.3711 6.54102C21.5151 6.14641 21.8905 5.88379 22.3105 5.88379H27.0742ZM24.667 14.7061C19.5343 14.7061 15.373 18.8673 15.373 24C15.3733 29.1324 19.5345 33.293 24.667 33.293C29.7993 33.2927 33.9597 29.1323 33.96 24C33.96 18.8675 29.7994 14.7063 24.667 14.7061Z" fill="#E0F2FF"/>
<path d="M24.666 17.208C28.4166 17.208 31.4578 20.2485 31.458 23.999C31.458 27.7498 28.4168 30.791 24.666 30.791C20.9153 30.7909 17.875 27.7497 17.875 23.999C17.8752 20.2485 20.9155 17.2081 24.666 17.208Z" fill="#1E76E2"/>
<path fill-rule="evenodd" clip-rule="evenodd" d="M27.0742 5.88379C27.4997 5.88379 27.8786 6.15296 28.0186 6.55469L29.0762 9.59277C29.1105 9.69156 29.1276 9.79493 29.1299 9.89941C29.9454 10.1573 30.73 10.4844 31.4775 10.873C31.5548 10.7977 31.644 10.7354 31.7412 10.6885L34.6309 9.29395C35.0139 9.10914 35.4727 9.1866 35.7734 9.4873L39.1426 12.8564C39.4394 13.1534 39.5188 13.6046 39.3418 13.9854L37.9795 16.918C37.9331 17.0178 37.8691 17.1081 37.793 17.1875C38.1815 17.9346 38.5077 18.7191 38.7656 19.5342C38.8733 19.5356 38.9803 19.5534 39.082 19.5889L42.1113 20.6465C42.5128 20.7866 42.7822 21.1656 42.7822 21.5908V26.3555C42.7822 26.7754 42.5194 27.1508 42.125 27.2949L39.0879 28.4053C38.9845 28.443 38.8756 28.4626 38.7656 28.4648C38.5077 29.28 38.1806 30.0643 37.792 30.8115C37.8674 30.8888 37.9306 30.977 37.9775 31.0742L39.3721 33.9648C39.5569 34.3478 39.4794 34.8057 39.1787 35.1064L35.8096 38.4756C35.5126 38.7725 35.0615 38.8528 34.6807 38.6758L31.748 37.3125C31.6478 37.2658 31.5562 37.2026 31.4766 37.126C30.7293 37.5144 29.945 37.8408 29.1299 38.0986C29.1284 38.2063 29.1117 38.3133 29.0762 38.415L28.0186 41.4443C27.8784 41.8458 27.4995 42.1152 27.0742 42.1152H22.3096C21.8897 42.1151 21.5142 41.8524 21.3701 41.458L20.2607 38.4209C20.223 38.3175 20.2025 38.2086 20.2002 38.0986C19.3853 37.8407 18.6015 37.5135 17.8545 37.125C17.7763 37.1991 17.6876 37.2611 17.5898 37.3066L14.6514 38.6748C14.2705 38.8521 13.8195 38.7727 13.5225 38.4756L10.1543 35.1074C9.85343 34.8066 9.77579 34.3479 9.96094 33.9648L11.3604 31.0684C11.4061 30.9739 11.4674 30.8882 11.54 30.8125C11.1511 30.0648 10.8245 29.2796 10.5664 28.4639C10.4595 28.4607 10.3535 28.442 10.2529 28.4053L7.20801 27.2949C6.81337 27.1509 6.55082 26.7756 6.55078 26.3555V21.5918C6.55078 21.1664 6.82001 20.7875 7.22168 20.6475L10.2598 19.5889C10.3585 19.5545 10.462 19.5365 10.5664 19.5342C10.8244 18.7189 11.1504 17.9339 11.5391 17.1865C11.4658 17.1088 11.4046 17.0207 11.3594 16.9238L9.99121 13.9854C9.81391 13.6045 9.8935 13.1536 10.1904 12.8564L13.5586 9.4873C13.8594 9.1865 14.3181 9.10893 14.7012 9.29395L17.5977 10.6934C17.6921 10.739 17.7778 10.8005 17.8535 10.873C18.601 10.4843 19.3857 10.1574 20.2012 9.89941C20.2043 9.79252 20.2241 9.68653 20.2607 9.58594L21.3711 6.54102C21.5151 6.14641 21.8905 5.88379 22.3105 5.88379H27.0742ZM24.667 14.7061C19.5343 14.7061 15.373 18.8673 15.373 24C15.3733 29.1324 19.5345 33.293 24.667 33.293C29.7993 33.2927 33.9597 29.1323 33.96 24C33.96 18.8675 29.7994 14.7063 24.667 14.7061Z" fill="#1E76E2"/>
</svg>
