<svg width="80" height="80" viewBox="0 0 80 80" fill="none" xmlns="http://www.w3.org/2000/svg">
<path d="M18.5319 27.3578C20.8912 19.0799 28.5026 13.6423 38.3259 14.2972C39.0755 14.3472 39.8214 14.4321 40.5622 14.5492C40.6175 14.5579 40.6729 14.5664 40.7282 14.5755C40.8508 14.5957 40.9731 14.618 41.0954 14.64C41.1653 14.6526 41.2355 14.6639 41.3054 14.6771C41.4329 14.7011 41.56 14.7273 41.6872 14.7533C41.7584 14.7678 41.8299 14.7811 41.9011 14.7962C41.9875 14.8146 42.0736 14.8346 42.1599 14.8538C42.2795 14.8806 42.399 14.9075 42.5183 14.9359C42.5672 14.9475 42.6159 14.9601 42.6647 14.972C42.8013 15.0054 42.9378 15.039 43.0739 15.0746C43.195 15.1062 43.3155 15.1399 43.4362 15.1732C43.5062 15.1925 43.5764 15.2109 43.6462 15.2308C43.779 15.2686 43.9114 15.3081 44.0436 15.348C44.1058 15.3667 44.1682 15.3845 44.2302 15.4037C44.3419 15.4382 44.4529 15.4751 44.5641 15.5111C44.6474 15.538 44.7311 15.5634 44.8141 15.5912C44.9305 15.63 45.0459 15.6718 45.1618 15.7122C45.2344 15.7376 45.3072 15.7625 45.3796 15.7884C45.4787 15.8239 45.5777 15.8602 45.6765 15.8968C45.7699 15.9315 45.8636 15.9656 45.9567 16.0013C46.0547 16.0388 46.1521 16.0779 46.2497 16.1165C46.338 16.1515 46.4264 16.1862 46.5143 16.222C46.6284 16.2685 46.7417 16.3166 46.8552 16.3646C46.9213 16.3925 46.9875 16.4201 47.0534 16.4486C47.1608 16.4949 47.2678 16.5425 47.3747 16.5902C47.461 16.6287 47.5475 16.667 47.6335 16.7064C47.7525 16.7609 47.8706 16.8173 47.989 16.8734C48.0364 16.8959 48.0842 16.918 48.1315 16.9408C48.2571 17.0011 48.3818 17.0631 48.5065 17.1253C48.5676 17.1558 48.6292 17.1853 48.6901 17.2162C48.8105 17.2772 48.9299 17.34 49.0495 17.4027C49.111 17.4349 49.1728 17.4667 49.2341 17.4994C49.3518 17.5621 49.4687 17.6264 49.5856 17.6908C49.6478 17.725 49.7102 17.7586 49.7722 17.7933C49.8873 17.8578 50.0016 17.9236 50.1159 17.9896C50.1801 18.0266 50.2444 18.0634 50.3083 18.1009C50.4173 18.1649 50.5252 18.2308 50.6335 18.2962C50.6966 18.3344 50.7601 18.3719 50.8229 18.4105C50.9357 18.4797 51.048 18.5497 51.1599 18.6205C51.2192 18.658 51.2785 18.6958 51.3376 18.7337C51.437 18.7975 51.5358 18.8621 51.6345 18.9271C51.7235 18.9857 51.8126 19.0443 51.9011 19.1038C51.9798 19.1568 52.0582 19.2103 52.1364 19.264C52.207 19.3125 52.2772 19.3614 52.3474 19.4105C52.4568 19.487 52.566 19.564 52.6745 19.6419C52.7385 19.6879 52.8023 19.7342 52.8659 19.7806C52.9582 19.848 53.0497 19.9163 53.1413 19.9847C53.2132 20.0384 53.2847 20.0925 53.3561 20.1468C53.4493 20.2176 53.5421 20.2888 53.6345 20.3607C53.7029 20.4139 53.7715 20.467 53.8395 20.5208C53.9229 20.5868 54.0059 20.6532 54.0886 20.7201C54.178 20.7923 54.2675 20.8646 54.3561 20.9378C54.4103 20.9826 54.4634 21.0285 54.5173 21.0736C54.6212 21.1606 54.725 21.2479 54.8278 21.3363C54.8864 21.3867 54.9444 21.4378 55.0026 21.4886C55.0866 21.5619 55.1704 21.6352 55.2536 21.7093C55.3281 21.7757 55.4024 21.8424 55.4763 21.9095C55.5576 21.9834 55.6389 22.0574 55.7194 22.1322C55.7986 22.2056 55.8773 22.2796 55.9558 22.3538C56.0009 22.3966 56.0456 22.4397 56.0905 22.4828C56.2029 22.5904 56.3147 22.6986 56.4255 22.808C56.4638 22.8458 56.5016 22.8842 56.5397 22.9222C56.6369 23.0191 56.7339 23.1161 56.8298 23.2142C56.8966 23.2825 56.9628 23.3513 57.029 23.4203C57.0921 23.4861 57.1549 23.5522 57.2175 23.6185C57.3004 23.7065 57.3826 23.7952 57.4645 23.8841C57.5122 23.9358 57.5599 23.9874 57.6071 24.0394C57.6896 24.1301 57.7718 24.2212 57.8532 24.3128C57.9272 24.3961 58.0008 24.4797 58.0739 24.5638C58.1391 24.6388 58.2029 24.7148 58.2673 24.7904C58.3196 24.8517 58.3717 24.9132 58.4235 24.9749C58.5014 25.0677 58.5792 25.1606 58.6559 25.2542C58.7095 25.3196 58.7631 25.3848 58.8161 25.4505C58.8837 25.5344 58.9506 25.6189 59.0173 25.7035C59.0888 25.7942 59.1596 25.8854 59.2302 25.9769C59.2829 26.0453 59.3352 26.1141 59.3874 26.183C59.4531 26.2697 59.5189 26.3563 59.5837 26.4437C59.6489 26.5316 59.7138 26.6197 59.778 26.7083C59.834 26.7856 59.8898 26.863 59.945 26.9408C60 27.0181 60.0539 27.0963 60.1081 27.1742C60.1723 27.2664 60.2363 27.3586 60.2995 27.4515C60.3696 27.5546 60.4387 27.6582 60.5075 27.7621C60.5384 27.8087 60.5697 27.8549 60.6003 27.9017C60.6745 28.0151 60.7474 28.1292 60.82 28.2435C60.8694 28.3212 60.9189 28.3988 60.9675 28.4769C61.0021 28.5326 61.0357 28.5889 61.07 28.6449C61.1428 28.7636 61.2148 28.8827 61.2858 29.0023C61.3206 29.0608 61.355 29.1194 61.3893 29.1781C61.4515 29.2844 61.5141 29.3904 61.5749 29.4974C61.6288 29.5923 61.6812 29.6881 61.7341 29.7835C61.778 29.863 61.8227 29.942 61.8659 30.0218C61.9105 30.1042 61.954 30.1871 61.9977 30.2699C62.1435 30.5455 62.2851 30.823 62.4216 31.1029C62.4652 31.1924 62.5078 31.2825 62.5505 31.3724C62.5923 31.4606 62.6346 31.5485 62.6755 31.6371C62.7215 31.7365 62.7655 31.8369 62.8102 31.9369C62.8515 32.0289 62.8931 32.1208 62.9333 32.2132C62.9597 32.2739 62.9854 32.3349 63.0114 32.3958C63.0623 32.515 63.1127 32.6344 63.1618 32.7542C63.2064 32.8629 63.2495 32.9722 63.2927 33.0814C63.3256 33.1647 63.3592 33.2478 63.3913 33.3314C63.4221 33.4115 63.4512 33.4922 63.4811 33.5726C63.5257 33.6919 63.5702 33.8111 63.613 33.931C63.6336 33.9888 63.6533 34.0469 63.6735 34.1048C63.7147 34.2225 63.7561 34.3401 63.7956 34.4583C63.8362 34.58 63.8749 34.7023 63.9138 34.8246C63.9373 34.8987 63.9612 34.9728 63.9841 35.0472C64.0181 35.1576 64.0502 35.2685 64.0827 35.3792C64.1061 35.459 64.1304 35.5385 64.153 35.6185C64.1591 35.64 64.1655 35.6614 64.1716 35.683C64.2209 35.8589 64.2685 36.0353 64.3142 36.2122C64.5461 37.1114 64.7278 38.0231 64.8591 38.9437C64.8696 39.0176 64.8814 39.0914 64.8913 39.1654C64.9396 39.5276 64.9782 39.8874 65.0095 40.2445C65.037 40.5587 65.0574 40.8709 65.072 41.181C65.0897 41.5573 65.0983 41.9304 65.0974 42.3001C65.0965 42.6218 65.0896 42.9408 65.0749 43.2572C65.0617 43.54 65.0424 43.8206 65.0183 44.099C65.011 44.1828 65.004 44.2665 64.9958 44.3499C64.9924 44.3842 64.9886 44.4183 64.9851 44.4525C64.9695 44.6026 64.952 44.752 64.9333 44.9007C64.93 44.9268 64.9269 44.9528 64.9235 44.9788C64.9044 45.1263 64.8842 45.2732 64.862 45.4193C64.846 45.5242 64.8278 45.6285 64.8102 45.7328C64.7969 45.8123 64.7845 45.8919 64.7702 45.971C64.7578 46.0396 64.7442 46.1079 64.7311 46.1761C64.7109 46.2819 64.6906 46.3875 64.6686 46.4925C64.6556 46.5552 64.6413 46.6176 64.6276 46.68C64.6021 46.7966 64.577 46.9131 64.5495 47.0287C64.5292 47.1137 64.5064 47.198 64.4851 47.2826C64.4645 47.3641 64.4451 47.4457 64.4235 47.5267C64.3952 47.6331 64.3647 47.7386 64.3347 47.8441C64.3181 47.9021 64.3019 47.9602 64.2849 48.0179C64.253 48.1257 64.2188 48.2324 64.1852 48.3392C64.164 48.4067 64.1437 48.4743 64.1218 48.5413C64.0895 48.6398 64.0559 48.7377 64.0222 48.8353C63.9997 48.9002 63.9779 48.9651 63.9548 49.0296C63.9227 49.1193 63.8895 49.2083 63.8561 49.2972C63.8273 49.374 63.798 49.4505 63.7683 49.5267C63.7307 49.6229 63.6921 49.7185 63.653 49.8138C63.6288 49.8729 63.6046 49.9319 63.5798 49.9906C63.5319 50.104 63.4824 50.2164 63.4323 50.3285C63.4154 50.3663 63.3987 50.4041 63.3815 50.4417C63.3332 50.5481 63.2844 50.654 63.2341 50.7591C63.207 50.8156 63.1796 50.8719 63.152 50.9281C63.1043 51.0251 63.0549 51.1212 63.0056 51.2171C62.9775 51.2718 62.9502 51.3269 62.9216 51.3812C62.8793 51.4614 62.8361 51.541 62.7927 51.6204C62.7498 51.6989 62.7068 51.7772 62.6628 51.8548C62.6257 51.9204 62.5874 51.9852 62.5495 52.0501C62.5016 52.1323 62.4532 52.214 62.404 52.2953C62.361 52.3663 62.3171 52.4368 62.2731 52.5072C62.2346 52.5689 62.1962 52.6306 62.1569 52.6917C62.1062 52.7707 62.0545 52.849 62.0026 52.9271C61.9528 53.0021 61.9022 53.0766 61.8513 53.1507C61.8099 53.2109 61.7683 53.2708 61.7263 53.3304C61.6789 53.3975 61.631 53.4642 61.5827 53.5306C61.5298 53.6033 61.4765 53.6756 61.4226 53.7474C61.3699 53.8174 61.317 53.8872 61.2634 53.9564C61.2182 54.0147 61.1725 54.0725 61.1267 54.1302C61.0672 54.2049 61.0076 54.2792 60.947 54.3529C60.9019 54.4077 60.856 54.4617 60.8102 54.516C60.7537 54.583 60.6969 54.65 60.6393 54.7162C60.5827 54.7812 60.526 54.8463 60.4684 54.9105C60.4217 54.9627 60.3742 55.0142 60.3268 55.0658C60.2497 55.1497 60.1712 55.2324 60.0925 55.3148C60.0564 55.3526 60.0205 55.3906 59.9841 55.4281C59.9207 55.4932 59.8571 55.5582 59.7927 55.6224C59.7263 55.6885 59.659 55.7537 59.5915 55.8187C59.5353 55.8729 59.4785 55.9264 59.4216 55.9798C59.3621 56.0356 59.3022 56.0909 59.2419 56.1458C59.1721 56.2095 59.1018 56.2727 59.0309 56.3353C58.9742 56.3854 58.9174 56.4354 58.8601 56.4847C58.8005 56.5359 58.7406 56.5866 58.6804 56.6371C58.6121 56.6942 58.5435 56.7509 58.4743 56.807C58.3993 56.8678 58.3238 56.928 58.2477 56.9876C58.2003 57.0249 58.1521 57.0612 58.1042 57.098C58.0277 57.1567 57.9512 57.2153 57.8737 57.2728C57.8005 57.3271 57.7262 57.3798 57.652 57.4329C57.5933 57.4751 57.5346 57.5174 57.4753 57.5589C57.3986 57.6125 57.3215 57.6656 57.2438 57.7181C57.1803 57.761 57.1166 57.8039 57.0524 57.846C56.9757 57.8964 56.8986 57.9462 56.821 57.9954C56.7516 58.0395 56.6821 58.0832 56.612 58.1263C56.5456 58.1672 56.4788 58.2073 56.4118 58.2474C56.3264 58.2985 56.2405 58.349 56.154 58.3988C56.1037 58.4277 56.0532 58.4562 56.0026 58.4847C55.9052 58.5395 55.8074 58.5937 55.7087 58.6468C55.6483 58.6793 55.5879 58.7116 55.527 58.7435C55.4432 58.7874 55.3589 58.8307 55.2741 58.8734C55.1784 58.9216 55.0818 58.9683 54.9851 59.015C54.9372 59.038 54.8896 59.0616 54.8415 59.0843C54.7424 59.131 54.6429 59.1769 54.5427 59.222C54.4742 59.2528 54.4056 59.2838 54.3366 59.3138C54.2499 59.3516 54.1624 59.3876 54.0749 59.4242C54.0064 59.4527 53.9378 59.4813 53.8688 59.5091C53.7779 59.5458 53.6862 59.5812 53.5944 59.6165C53.5132 59.6478 53.4322 59.68 53.3503 59.7103C53.2845 59.7346 53.2183 59.7579 53.152 59.7816C53.0554 59.8161 52.9585 59.8501 52.861 59.8831C52.7919 59.9066 52.7226 59.9298 52.653 59.9525C52.5493 59.9863 52.4452 60.0199 52.3405 60.0521C52.2828 60.0699 52.2247 60.0866 52.1667 60.1038C52.0561 60.1367 51.9453 60.1695 51.8337 60.2005C51.7539 60.2227 51.6737 60.2437 51.5934 60.265C51.511 60.2868 51.4284 60.3086 51.3454 60.3294C51.2285 60.3588 51.1108 60.3861 50.9929 60.4134C50.9307 60.4278 50.8688 60.4435 50.8063 60.4574C50.7014 60.4807 50.5958 60.5021 50.4899 60.5238C50.4162 60.5389 50.3424 60.5543 50.2683 60.5687C50.171 60.5875 50.0732 60.6049 49.9753 60.6224C49.8892 60.6378 49.8031 60.6539 49.7165 60.6683C49.615 60.6851 49.513 60.6998 49.4108 60.7152C49.3328 60.7269 49.2549 60.7394 49.1765 60.7503C49.0727 60.7648 48.9684 60.7774 48.864 60.7904C48.7798 60.8008 48.6956 60.8122 48.611 60.8216C48.4914 60.835 48.3712 60.8463 48.2507 60.8578C48.1876 60.8637 48.1245 60.8709 48.0612 60.8763C47.9196 60.8885 47.7773 60.898 47.6345 60.9076C47.586 60.9108 47.5375 60.9144 47.489 60.9173C47.3893 60.9233 47.2894 60.9273 47.1892 60.932C47.0911 60.9365 46.9928 60.9423 46.8942 60.9456C46.8452 60.9473 46.796 60.9473 46.7468 60.9486C46.6028 60.9524 46.4583 60.9562 46.3132 60.9574C46.0362 60.9596 45.7572 60.9554 45.4763 60.9476C45.1668 60.939 44.8548 60.9265 44.5407 60.9056C44.0665 60.874 43.5937 60.8266 43.1227 60.7679C42.8061 60.7284 42.4903 60.6836 42.1755 60.6322C42.0855 60.6175 41.9958 60.601 41.9059 60.5853C41.7825 60.5638 41.6589 60.5432 41.5358 60.5199C41.5042 60.5139 41.4727 60.5074 41.4411 60.5013C41.2879 60.4717 41.1348 60.4409 40.9821 60.4085C40.8944 60.3899 40.807 60.3695 40.7194 60.3499C40.609 60.3253 40.4984 60.3018 40.3884 60.2757C40.3159 60.2586 40.2439 60.2398 40.1716 60.222C40.0408 60.1899 39.9102 60.1575 39.78 60.1234C39.7357 60.1118 39.6914 60.1 39.6472 60.0882C39.503 60.0497 39.3591 60.01 39.2155 59.9691C39.1229 59.9427 39.0305 59.9154 38.9382 59.888C38.8564 59.8638 38.7746 59.8398 38.6931 59.8148C38.5834 59.7811 38.4742 59.7463 38.3649 59.7113C38.2658 59.6795 38.1668 59.6475 38.0681 59.6146C37.9921 59.5893 37.9163 59.5634 37.8405 59.5374C37.7385 59.5024 37.6365 59.4672 37.5349 59.431C37.4295 59.3935 37.3243 59.3555 37.2194 59.3167C37.1395 59.2872 37.0598 59.2572 36.9802 59.2269C36.8774 59.1878 36.7749 59.148 36.6725 59.1078C36.5766 59.07 36.481 59.0313 36.3854 58.9925C36.3052 58.9599 36.2251 58.9272 36.1452 58.8939C36.05 58.8542 35.9548 58.8145 35.86 58.7738C35.7572 58.7296 35.6548 58.6844 35.5524 58.639C35.466 58.6007 35.3797 58.562 35.2936 58.5228C35.2101 58.4848 35.1268 58.4464 35.0436 58.4076C34.9405 58.3594 34.8377 58.3104 34.735 58.2611C34.6525 58.2214 34.5702 58.1814 34.488 58.141C34.3985 58.0969 34.3094 58.0521 34.2204 58.0072C34.123 57.9579 34.0253 57.9091 33.9284 57.8587C33.8438 57.8148 33.7597 57.7697 33.6755 57.7249C33.5891 57.679 33.5027 57.6331 33.4167 57.5863C33.3086 57.5274 33.2009 57.4677 33.0934 57.4076C33.0384 57.3767 32.9833 57.346 32.9284 57.3148C32.8149 57.2503 32.7022 57.1845 32.5895 57.1185C32.5063 57.0697 32.4233 57.0206 32.3405 56.971C32.2695 56.9285 32.1983 56.8862 32.1276 56.8431C32.0372 56.7879 31.947 56.7322 31.8571 56.6761C31.7561 56.6131 31.6557 56.549 31.5554 56.4847C31.4778 56.435 31.4001 56.3857 31.3229 56.3353C31.2465 56.2853 31.1705 56.2346 31.0944 56.1839C31.0083 56.1266 30.9222 56.0693 30.8366 56.0111C30.7208 55.9322 30.6057 55.8522 30.4909 55.7718C30.4408 55.7367 30.3905 55.7018 30.3405 55.6663C30.2408 55.5956 30.1415 55.5244 30.0427 55.4525C29.9775 55.4051 29.9122 55.3578 29.8474 55.3099C29.7645 55.2487 29.6825 55.1864 29.6003 55.1244C29.3555 54.9397 29.1131 54.7518 28.8737 54.5599C28.8141 54.5121 28.7552 54.4636 28.696 54.4154C28.4429 54.2095 28.1926 54.0002 27.946 53.7865C27.8343 53.6896 27.7234 53.5919 27.613 53.4935C27.0397 52.9825 26.4854 52.4501 25.9509 51.8988C25.8839 51.8297 25.816 51.7614 25.7497 51.6917C25.683 51.6217 25.6175 51.5505 25.5515 51.4798C25.4767 51.3999 25.4017 51.3203 25.3278 51.2396C25.2621 51.1678 25.1975 51.0951 25.1325 51.0228C25.0627 50.9451 24.9925 50.8678 24.9235 50.7894C24.6973 50.5324 24.476 50.2712 24.2585 50.0072C24.2194 49.9597 24.1801 49.9123 24.1413 49.8646C24.071 49.7782 24.0017 49.691 23.9323 49.6038C23.8769 49.5342 23.8211 49.4649 23.7663 49.3949C23.7129 49.3266 23.6609 49.2575 23.6081 49.1888C23.5317 49.0894 23.4548 48.9903 23.3796 48.89C23.3137 48.802 23.2492 48.713 23.1843 48.6244C23.139 48.5625 23.0934 48.501 23.0485 48.4388C22.9708 48.331 22.8944 48.2224 22.8181 48.1136C22.7661 48.0395 22.7141 47.9655 22.6628 47.891C22.6272 47.8393 22.5916 47.7876 22.5563 47.7357C22.4812 47.625 22.4064 47.5142 22.3327 47.4027C22.2831 47.3275 22.2342 47.2517 22.1852 47.1761C22.1231 47.0801 22.0617 46.9837 22.0007 46.8871C21.9634 46.8279 21.9262 46.7687 21.8893 46.7093C21.824 46.6042 21.759 46.4988 21.695 46.3929C21.6515 46.3209 21.609 46.2484 21.5661 46.1761C21.5064 46.0754 21.4468 45.9747 21.3884 45.8734C21.3433 45.7952 21.2989 45.7166 21.2546 45.638C21.2043 45.549 21.1544 45.4599 21.1052 45.3705C21.0541 45.2777 21.0039 45.1844 20.9538 45.0912C20.913 45.015 20.8719 44.9391 20.8317 44.8626C20.7755 44.7555 20.7196 44.6482 20.6647 44.5404C20.6275 44.4673 20.5909 44.394 20.5544 44.3206C20.5064 44.2245 20.4586 44.1283 20.4118 44.0316C20.3655 43.9359 20.3203 43.8397 20.2751 43.7435C20.2374 43.6635 20.1997 43.5836 20.1628 43.5033C20.1169 43.4033 20.0718 43.303 20.027 43.2025C19.9876 43.1138 19.9484 43.025 19.9099 42.9359C19.867 42.8369 19.8255 42.7374 19.7839 42.638C19.7516 42.5609 19.7188 42.484 19.6872 42.4066C19.639 42.2885 19.5921 42.1698 19.5456 42.0511C19.5192 41.9837 19.4924 41.9165 19.4665 41.849C19.4237 41.7371 19.3828 41.6245 19.3415 41.5121C19.3094 41.4249 19.277 41.3378 19.2458 41.2503C19.2084 41.1455 19.1724 41.0402 19.1364 40.9349C19.1091 40.8551 19.0809 40.7757 19.0544 40.6956C19.0166 40.5818 18.9812 40.4672 18.945 40.3529C18.9197 40.2731 18.8933 40.1936 18.8688 40.1136C18.8335 39.9981 18.8001 39.882 18.7663 39.766C18.7479 39.7028 18.7286 39.6398 18.7106 39.5765C18.5583 39.0384 18.4242 38.4954 18.3073 37.9486C18.1723 37.3165 18.0599 36.6793 17.9743 36.0374C17.9085 35.5442 17.8612 35.0553 17.8268 34.5716C17.6445 32.0041 17.8988 29.579 18.5319 27.3578Z" fill="#1E76E2"/>
<path d="M42.5035 42.4544C43.6575 42.5344 44.8212 43.0621 45.7378 43.9183C46.654 44.7741 47.2489 45.8884 47.3941 47.0159C47.5392 48.1438 47.2229 49.1962 46.5123 49.9398C45.8014 50.6834 44.7541 51.0583 43.6001 50.9788L40.7105 50.7786L39.6138 42.2552L42.5035 42.4544Z" fill="#EFF8FF"/>
<path d="M31.0279 32.9808C31.7388 32.2371 32.7869 31.8621 33.941 31.9417L36.8296 32.1419L37.9263 40.6654L35.0376 40.4652C33.8834 40.3854 32.7191 39.8586 31.8023 39.0023C30.886 38.1463 30.2911 37.0313 30.146 35.9036C30.001 34.776 30.3174 33.7243 31.0279 32.9808Z" fill="#EFF8FF"/>
<path fill-rule="evenodd" clip-rule="evenodd" d="M14.6949 39.3177C12.9789 26.4472 22.0908 16.7138 35.0464 17.5775C48.0022 18.4412 59.8968 29.575 61.6128 42.4456C63.3289 55.3162 54.217 65.0495 41.2613 64.1859C28.3055 63.3221 16.411 52.1884 14.6949 39.3177ZM36.6509 24.9866C36.2377 24.9583 35.9458 25.2687 35.9986 25.679L36.6382 30.6556L33.7505 30.4554C32.2041 30.3485 30.7967 30.8506 29.8394 31.8519C28.8821 32.8535 28.4527 34.2734 28.649 35.8001C28.8454 37.3269 29.6508 38.8326 30.8853 39.9857C32.1197 41.1385 33.6825 41.8446 35.2291 41.9515L38.1167 42.1517L39.2134 50.6761L31.2339 50.1243C30.8205 50.0958 30.5278 50.4053 30.5806 50.8158C30.6336 51.2259 31.0112 51.582 31.4244 51.6107L39.4048 52.1624L40.0445 57.139C40.0975 57.5492 40.476 57.9053 40.8892 57.9339C41.3023 57.9624 41.594 57.6526 41.5416 57.2425L40.9019 52.2659L43.7906 52.4652C45.337 52.5719 46.7445 52.07 47.7017 51.0687C48.659 50.067 49.0875 48.6462 48.8912 47.1195C48.6946 45.5928 47.8893 44.0869 46.6548 42.9339C45.4206 41.7814 43.8583 41.0751 42.3121 40.9681L39.4234 40.7689L38.3267 32.2454L44.8521 32.6956L44.9283 32.6976C45.3008 32.6856 45.5549 32.389 45.5054 32.0042C45.4557 31.6196 45.1202 31.2831 44.7378 31.2191L44.6617 31.2093L38.1353 30.7591L37.4957 25.7816C37.4427 25.3713 37.0642 25.0152 36.6509 24.9866Z" fill="#EFF8FF"/>
<path d="M60.6145 42.3791C58.9715 30.056 47.5833 19.3956 35.1787 18.5686C22.774 17.7416 14.0499 27.0612 15.693 39.3844C17.3361 51.7075 28.7242 62.368 41.1288 63.1949L41.2613 64.1859L40.6549 64.1381C28.138 62.9927 16.7514 52.3336 14.7831 39.9195L14.6949 39.3177C12.9789 26.4472 22.0908 16.7138 35.0464 17.5775L35.6526 17.6254C48.3712 18.7894 59.9236 29.776 61.6128 42.4456L61.6847 43.0463C63.0427 55.6176 54.0146 65.036 41.2613 64.1859L41.1288 63.1949C53.5335 64.0219 62.2576 54.7022 60.6145 42.3791Z" fill="#1E76E2"/>
</svg>
