<svg width="48" height="48" viewBox="0 0 49 48" fill="none" xmlns="http://www.w3.org/2000/svg">
<path d="M24.2891 6.07324C32.7689 6.0735 39.6513 12.9042 39.7393 21.3633C40.9609 21.7429 41.8477 22.883 41.8477 24.2295V32.9941C41.8477 34.651 40.5045 35.9941 38.8477 35.9941H36.4736C36.1809 36.5304 35.8546 37.0418 35.4922 37.5234C33.4325 40.2607 30.3183 41.9267 26.2725 41.9268C25.8164 41.9268 24.7883 41.9054 23.7754 41.8643C22.8187 41.8254 21.6916 41.7627 21.1475 41.6562L21.7236 38.7129C21.9914 38.7653 22.8534 38.8238 23.8975 38.8662C24.8854 38.9064 25.8701 38.9268 26.2725 38.9268C29.4009 38.9267 31.6177 37.684 33.0957 35.7197C33.2838 35.4698 33.4605 35.2059 33.627 34.9297C33.1848 34.4071 32.917 33.7323 32.917 32.9941V27.1475C32.917 26.6096 33.0619 26.0819 33.3359 25.6191L35.0635 22.7012C35.4448 22.0573 36.0467 21.5897 36.7402 21.3701C36.656 14.5648 31.1143 9.0735 24.2891 9.07324C17.4731 9.07324 11.9361 14.5494 11.8369 21.3418C12.5696 21.5479 13.2082 22.0287 13.6064 22.7012L15.334 25.6191C15.608 26.0819 15.7529 26.6096 15.7529 27.1475V32.9941C15.7529 34.651 14.4098 35.9941 12.7529 35.9941H9.82227C8.16541 35.9941 6.82227 34.651 6.82227 32.9941V24.2295C6.82227 22.9184 7.66394 21.8056 8.83594 21.3975C8.90571 12.9225 15.7976 6.07324 24.2891 6.07324Z" fill="#1E76E2"/>
<path d="M24.335 12.1839C29.7587 12.1839 34.156 16.5806 34.1562 22.0042V22.2708L32.4756 25.1097C32.1104 25.7263 31.917 26.4303 31.917 27.1478V32.9945C31.917 33.1003 31.9224 33.2051 31.9307 33.3089C31.0372 34.322 29.9088 35.1393 28.6035 35.6683L28.0234 35.9036C25.6583 36.8619 23.0126 36.8619 20.6475 35.9036L20.0674 35.6683C18.7619 35.1393 17.6328 34.3222 16.7393 33.3089C16.7473 33.2051 16.7529 33.1003 16.7529 32.9945V27.1478L16.7441 26.8792C16.7081 26.3446 16.5646 25.8229 16.3232 25.345L16.1943 25.1097L14.5146 22.2718V22.0042C14.5149 16.5807 18.9114 12.1841 24.335 12.1839Z" fill="#1E76E2"/>
</svg>
