<svg xmlns="http://www.w3.org/2000/svg" fill="none" viewBox="0 0 1920 1174">
  <g filter="url(#a)" opacity=".3">
    <ellipse cx="802.5" cy="372.1" fill="#00A3FF" rx="802.5" ry="372.1" transform="scale(1 -1) rotate(34.1 1550.3 -943.8)"/>
  </g>
  <g filter="url(#b)" opacity=".3">
    <ellipse cx="1637.3" cy="294.8" fill="#00A3FF" rx="765.2" ry="372.1" transform="rotate(-145.9 1637.3 294.8)"/>
  </g>
  <g filter="url(#c)">
    <ellipse cx="959" cy="437.5" fill="#1E76E2" rx="643" ry="160" transform="rotate(180 959 437.5)"/>
  </g>
  <g filter="url(#d)" opacity=".8">
    <path fill="#0284D8" d="M2251.4-690.5A831.9 831.9 0 1 0 855 213.7a831.9 831.9 0 0 0 1396.5-904.2Z"/>
  </g>
  <g filter="url(#e)" opacity=".4">
    <path fill="#B0E0FF" d="M2183-646.2A750.3 750.3 0 1 0 923.3 169.4 750.3 750.3 0 0 0 2183-646.2Z"/>
  </g>
  <path fill="url(#f)" d="M2128.6-611A685.5 685.5 0 1 0 977.7 134.3 685.5 685.5 0 0 0 2128.6-611Z"/>
  <path fill="#A0D5FF" d="M1913.3 118c-63 33.2-138.9 11-169.4-49.3-30.5-60.4-4-136.2 59-169.4 63-33 138.8-11 169.3 49.4s4.1 136.2-59 169.3Z"/>
  <path fill="#3A99E4" d="M1915.2-102.8c-65.4-23.4-140.4 13.3-167.5 81.8a132.5 132.5 0 0 0 2 104.6 131.3 131.3 0 0 1-9.3-118c27.2-68.7 102.2-105.3 167.5-81.9 31 11.2 54.3 34 67.2 62a116.7 116.7 0 0 0-60-48.5Z"/>
  <path fill="#A0D5FF" d="M1123.4 26c-16 40.3-59.9 61.8-98.2 48C987 60.2 968.8 16.3 984.7-24c16-40.4 59.9-62 98.2-48.1 38.3 13.8 56.4 57.7 40.5 98.1Z"/>
  <path fill="#3A99E4" d="M1087.5-64.5c-38.4-13.7-82.3 7.7-98.3 48a78 78 0 0 0 1.2 61.4 77 77 0 0 1-5.4-69.3c15.9-40.3 59.9-61.7 98.2-48a68.8 68.8 0 0 1 39.4 36.4c-8-12.8-20-23-35.1-28.5Z"/>
  <path fill="#A0D5FF" d="M1775 156.2c4.6-11.8-.7-24.5-11.8-28.5-11.2-4-24 2.2-28.6 14-4.6 11.7.7 24.5 11.8 28.5 11.2 4 24-2.2 28.5-14Z"/>
  <path fill="#3A99E4" d="M1764.5 130c-11.2-4-24 2.2-28.6 13.9-2.4 6.1-2 12.6.4 17.8-3.6-5.6-4.4-13-1.6-20.1 4.7-11.7 17.4-18 28.6-14 5.3 2 9.3 5.9 11.5 10.6a20.2 20.2 0 0 0-10.3-8.3Z"/>
  <path fill="#A0D5FF" d="M1172.9 44.5c4.6-11.8-.7-24.5-11.8-28.5-11.2-4-23.9 2.2-28.5 14-4.7 11.7.6 24.5 11.7 28.5 11.2 4 24-2.2 28.6-14Z"/>
  <path fill="#3A99E4" d="M1162.5 18.3c-11.2-4-24 2.2-28.6 14-2.4 6-2 12.5.4 17.7-3.6-5.6-4.4-13-1.6-20 4.7-11.8 17.4-18 28.6-14 5.3 1.9 9.3 5.8 11.5 10.5a20.1 20.1 0 0 0-10.3-8.3Z"/>
  <path fill="#A0D5FF" d="M1256.5 218.4c9.3-23.5-1.3-49-23.5-57.1-22.2-8-47.8 4.5-57 28-9.3 23.4 1.2 49 23.5 57 22.2 8 47.8-4.5 57-28Z"/>
  <path fill="#3A99E4" d="M1235.8 165.8c-22.3-8-48 4.5-57.2 27.9a45.2 45.2 0 0 0 .7 35.7 44.6 44.6 0 0 1-3.1-40.2c9.2-23.4 34.8-36 57.1-28a40 40 0 0 1 23 21.2 39.7 39.7 0 0 0-20.5-16.5v-.1Z"/>
  <path fill="#A0D5FF" d="M1895.7 282.5c9.3-23.5-1.3-49-23.5-57-22.3-8.1-47.8 4.4-57 27.9-9.3 23.4 1.2 49 23.5 57 22.2 8 47.8-4.5 57-28Z"/>
  <path fill="#3A99E4" d="M1875 230c-22.3-8-48 4.4-57.2 27.8a45.1 45.1 0 0 0 .7 35.7 44.6 44.6 0 0 1-3.1-40.2c9.2-23.4 34.8-36 57-28a40 40 0 0 1 23 21.2A39.6 39.6 0 0 0 1875 230Z"/>
  <path fill="#A0D5FF" d="M1708.3 129.9c-15 37.9-56.2 58.1-92.2 45.2-36-13-53-54.3-38-92.2 15-37.9 56.2-58.1 92.2-45.1 35.9 13 53 54.2 38 92Z"/>
  <path fill="#3A99E4" d="M1674.6 45c-36-13-77.3 7.2-92.2 45a72.8 72.8 0 0 0 1 57.6 72.2 72.2 0 0 1-5-65c15-37.8 56.3-58 92.3-45a64.4 64.4 0 0 1 37 34.1 64 64 0 0 0-33-26.7Z"/>
  <path fill="#0D7CD8" d="M1527 208.4c-171.8 50-346.9 42.2-504.2-12a685.6 685.6 0 0 0 1106.5-805.9A835.7 835.7 0 0 1 1527 208.4Z" opacity=".1"/>
  <path fill="#0D7CD8" d="M1617 311a831 831 0 0 1-479-4 685.4 685.4 0 0 0 1077.8-720.3A835.6 835.6 0 0 1 1617 311v.1Z" opacity=".1"/>
  <path fill="#fff" d="M1452 589.6c-8.4 1.8 722.8-4.4 749.6-8 26.8-3.4-27.2-10.1-54-7.5-26.8 2.6-82 5.3-82 5.3s10.3-8-30.5-9.5c-40.8-1.6-86-.8-86-.8s-2.2-7.7-28-10.2c-25.8-2.6-46 1.4-46 1.4s-6.1-17.6-58.4-16.2c-52.3 1.4-83 20.3-83 20.3s-16.3-.4-33.1 2.5-22.8 8.2-22.8 8.2-8-13.3-39.7-11.8c-31.7 1.5-43 15.8-43 15.8s-97.7.9-143 10.5Z" opacity=".5"/>
  <path fill="#fff" d="M-172.5 266c-7.1 2.3 595.7.8 617.9-3.4 22.2-4.2-22-13.1-44.2-10-22.2 3-67.7 5.9-67.7 5.9s8.8-10-24.8-12.3c-33.6-2.4-70.8-1.7-70.8-1.7s-1.5-9.7-22.7-13.1c-21.2-3.4-38 1.4-38 1.4s-4.2-22.2-47.4-21c-43.2 1.4-69.2 25-69.2 25s-13.5-.6-27.4 2.9c-14 3.5-19.1 10-19.1 10s-6-16.7-32.2-15c-26.2 1.7-36.1 19.5-36.1 19.5s-80.5.2-118.3 11.9Z" opacity=".1"/>
  <path fill="#80BDE8" d="M-63 233.8c31.8-2 33.2 27.7 33.2 27.8 0 0 2-1 5.3-2a43.4 43.4 0 0 1 22.7 0C13.4 264 14 276.8 14 277h.7c4.4-.1 29-.7 51.3 2.1 24 2.8 17.7 15.6 17.3 16.2a573 573 0 0 0 50.2-8.2c2.6-.6 5.5-1 8.6-.9h.2c16.7.1 37.1 9.2 23 14.1-3.5 1.2-25.3 2.4-57.7 3.4a374.1 374.1 0 0 1-10.3.3c-128.2 3.8-391 6.1-386.8 3.7 28.8-16 87.6-16.4 87.6-16.4s8.7-24.1 28.2-26.4c19.6-2.3 22.6 20.2 22.6 20.2s4.4-8.9 14.9-13.6c10.4-4.7 20.3-4 20.3-4s21.2-31.8 53-33.7Z"/>
  <path fill="#fff" d="M1509.7 352c-1.6 3.2-19 23.3-27.4 32.9-1-.8-4-3-7.5-5-4.5-2.5-7.5 2-9.5 5s-.5 3.5 2 4a4 4 0 0 1 3 3c-4.2 0-14.3.5-21.5 2.5-9 2.5-30.9 18-28.4 19s32.4-6 37.4-8c4-1.6 18-.7 24.5 0l19 20.9c2.8-1.3 8.7-4.8 10-8l8.4-23c-6.8 1.7-20.8 4.6-22 2.6-1.5-2.5 9.5-10.5 19-21.5s43.9-54.4 42.9-55.9c-1-1.4-1.5-1-8 4s-39.9 23.5-41.9 27.5ZM1319.3 502.1c4-9.2 16.3-16.8 23.5-22 7.1-5 15.8-6 29.6-7.6 5.2-.5 8.6-1.6 10.8-2.7 1.5-1.3 2.6-2.5 3.5-3.4-.1.8-1 2.1-3.5 3.4-4.4 4-11.2 8.8-18 10.4-9 2-11.5 3.9-11.7 4.6 1.2 1.8 2 6.6-4 10.7-6.2 4-11.5-.3-13.3-3a649.6 649.6 0 0 0-13.8 16.8c-5.4 7.1-13 8.9-17.9 11.3 4-3.5 11.7-11.4 14.8-18.5Z"/>
  <path fill="#A9DAF5" d="m80.9 789.4 1.1.7c0-.5.2-1 .4-1.4 3-6.5 6.7-9.7 11.4-9.7 5.6 0 11 1.8 16.1 5.3 5.4 3.6 8.1 7.7 8.1 12.2 0 2.2-.3 5.2-1 9 0 1.7.6 3.2 2.1 4.7 1.5 1.4 3 2.1 4.8 2.1 2.5 0 4.2-.5 5.2-1.4 1-1.2 2.5-1.8 4.7-1.8 1.5 0 4.2 1.6 8.1 5a27 27 0 0 0 7.4 5c2.2-2 5.4-2.9 9.5-2.9 4 0 7.6 1.2 11 3.6 3.5 2.2 5.2 4.4 5.2 6.8v1.1a10215 10215 0 0 0-326.8-4c-.2-.8-.3-1.9-.3-3.2 0-7.1 3.8-10.7 11.3-10.7 5 .2 8.4 1 10.3 2.5h2.6a6.2 6.2 0 0 1-.4-3.6c.5-1.9 2.6-2.9 6.3-2.9 3.7 0 6.5.5 8.5 1.5V803c-.3-2 .4-3 2.2-3 .4 0 1.3.3 2.5.8h.7c-.2-.6-.3-1.8-.3-3.6 0-11 5.1-16.5 15.4-16.5 12.8 0 19.9 4.2 21.3 12.6 1.5 8 3 12.1 4.8 12.1a15 15 0 0 0 5.2-1c2-1 3-1.5 3.3-1.5.7 0 2.5.8 5.5 2.5 3.2 1.4 5.3 2.2 6.3 2.2 1.7 0 3.1-1.5 4.4-4.4 1-3 3-4.6 5.9-4.6 2.6 0 4.7.3 6.2 1v.8l1.1.7-1-1.5a94.6 94.6 0 0 1-5.2-12.5c0-3.6.2-6 .7-7.2 1.5-3.3 4.9-5 10.3-5h1.1c.3-8 2.6-15.3 7-21.9 6.3-9.5 16-14.3 28.7-14.3 12 0 22.3 3.4 30.8 10 9.1 7 13.7 16 13.7 27 0 4.5-.5 9.3-1.5 14.3h.3c.8-1.5 1.5-2.7 2.2-3.6 1.7-1.7 4-2.5 6.7-2.5 5.6 0 11 1.8 16.1 5.4m-332 22c0-6 .3-9.7.8-11.1 1.7-4.1 5.9-6.1 12.5-6.1 10.8 0 17.1 2.2 19.1 6.8 1 2.4.9 5.5-.4 9.3h3.7c3.2-1.2 5.5-1.8 7-1.8 1.7 0 3.3 1.2 4.8 3.6 1.2 2.4 2.4 3.6 3.7 3.6 1.7 0 3.5-1 5.5-3s3.2-3.2 3.7-3.2c.7 0 2.3.5 4.7 1.5 2.7 1 4.7 2 6 3.2 2.4 1.7 3.6 3.6 3.6 5.7 0 1.8.2 3.1.3 4-10.7.3-35.2 0-73.5-.7-1-2.9-1.5-6.8-1.5-11.9m-32-3.9c3 0 5.9 1 8.6 3.2 3.5 3 5.3 7.1 5.1 12.2l-37.5-1c-.7-2-1.1-3.5-1.1-4.4 0-4.3 2.3-6.4 7-6.4a371 371 0 0 0 10.3 1.8c1.7 0 3.2-.9 4.4-2.5 1-2 2.1-3 3.3-3v.1Z" opacity=".5"/>
  <path fill="#fff" fill-rule="evenodd" d="M992.6 711.1s4.1-2.9 4.4-5.5a28 28 0 0 0-1.8-5.9l-.6-1.6.1-.6-.1-.5c-.2-1 4.4-7.4 12.8-10.2 8.4-2.7 24-5.7 24-5.7l-.7 1.3 3.8-.8s-3.7 7.2-6.7 9c-1.4.8-3.3 1.3-5.1 1.8-1.3.3-2.4.6-3.3 1 .1-.9.3-1.5.5-2-2 .5-3.6 1-4.4 1.7a78 78 0 0 0-5.1 19.8c.2 1.5 1.4 4.5 2 5.9 1.5.2 3.8.2 5.9.2 2.3 0 4.3.1 4.8.3.7.3 1.2 2 1 3.5l-.1 1a3 3 0 0 1-.9 1.9c-1 1-3 2.4-4.3 3.2a4 4 0 0 1 .8.2l.1.1c.7.3 1.1.6.5.6h-1.2c.3 0 1.3.3 1.2.7 0 .3-.3.3-.6.2a15.7 15.7 0 0 1-5.3-1.5c-.7-.3-2-1.2-3.1-2l-1.7-1.2a44.8 44.8 0 0 1-11.8.6c-.8.3-1.6.6-2.2 1.1a101.2 101.2 0 0 0-12.7 12.7 54.9 54.9 0 0 0-3.3 12l1-1-.8 5c-.8 5.6-5.3 11.7-5.6 11.1l-.1-.6c-.4.4-.6.5-.7.4a21 21 0 0 1-.4-2.7c-.4-2.5-.9-6.1-1.6-8.2a103.3 103.3 0 0 1 .3-24.8c1-3 3.6-4.5 7.7-6.2 2.5-1 4.1-2.3 5-3l-.8-.8-1.1-1-.8-.2c-.6-.2-1.5-.4-1.8-.9l-1.6 1.2-.2.1-.2.1c-.1.1-.3.2-.4.5 0 .3-.5.4-.4-.6 0-.9 2-2.2 2.8-2.7v-.2s0-.8 1.3-2.2v-.1l1.6-1.4c1.5-1 3.7-1.5 5.8-1.7h.1l2-.1a2 2 0 0 0-.3.8h3.2l-1-.6 1.2-1-1.1-.5Zm18.6 15.2c1 .6 1.7 1.2 2.3 1.4l1.8.4h.4a43.6 43.6 0 0 1-3.9-1.7l-.5-.1ZM996.5 713l1.7.8-2.2-.5c.2 0 .4-.2.5-.3Z" clip-rule="evenodd" opacity=".2"/>
  <path fill="#fff" d="M1091.7 570.6c31.7-2 33.2 27.7 33.2 27.8 0 0 2-1 5.2-2a43.3 43.3 0 0 1 22.8 0c15.1 4.4 15.7 17.1 15.7 17.4h.7c4.3-.1 29-.7 51.3 2.1 24 2.8 17.7 15.6 17.3 16.2 3-.3 34.4-4.3 50.1-8.2 2.6-.6 5.6-1 8.7-1h.2c16.6.2 37 9.3 23 14.2-3.5 1.2-25.4 2.3-57.8 3.4a396.6 396.6 0 0 1-8.4.3h-1.9c-128.1 3.8-391 6-386.8 3.7 28.8-16 87.6-16.5 87.7-16.5 0 0 8.6-24 28.2-26.3 19.5-2.3 22.5 20.2 22.5 20.2s4.5-8.9 15-13.6c10.4-4.7 20.2-4 20.3-4 0 0 21.1-31.8 53-33.7Z" opacity=".1"/>
  <defs>
    <filter id="a" width="2093.1" height="1791" x="-853.5" y="-621.6" color-interpolation-filters="sRGB" filterUnits="userSpaceOnUse">
      <feFlood flood-opacity="0" result="BackgroundImageFix"/>
      <feBlend in="SourceGraphic" in2="BackgroundImageFix" result="shape"/>
      <feGaussianBlur result="effect1_foregroundBlur_7838_38531" stdDeviation="175"/>
    </filter>
    <filter id="b" width="2034.4" height="1756.8" x="620" y="-583.6" color-interpolation-filters="sRGB" filterUnits="userSpaceOnUse">
      <feFlood flood-opacity="0" result="BackgroundImageFix"/>
      <feBlend in="SourceGraphic" in2="BackgroundImageFix" result="shape"/>
      <feGaussianBlur result="effect1_foregroundBlur_7838_38531" stdDeviation="175"/>
    </filter>
    <filter id="c" width="1986" height="1020" x="-34" y="-72.5" color-interpolation-filters="sRGB" filterUnits="userSpaceOnUse">
      <feFlood flood-opacity="0" result="BackgroundImageFix"/>
      <feBlend in="SourceGraphic" in2="BackgroundImageFix" result="shape"/>
      <feGaussianBlur result="effect1_foregroundBlur_7838_38531" stdDeviation="175"/>
    </filter>
    <filter id="d" width="2171.1" height="2171.1" x="467.6" y="-1323.9" color-interpolation-filters="sRGB" filterUnits="userSpaceOnUse">
      <feFlood flood-opacity="0" result="BackgroundImageFix"/>
      <feBlend in="SourceGraphic" in2="BackgroundImageFix" result="shape"/>
      <feGaussianBlur result="effect1_foregroundBlur_7838_38531" stdDeviation="126.8"/>
    </filter>
    <filter id="e" width="2008" height="2008" x="549.1" y="-1242.4" color-interpolation-filters="sRGB" filterUnits="userSpaceOnUse">
      <feFlood flood-opacity="0" result="BackgroundImageFix"/>
      <feBlend in="SourceGraphic" in2="BackgroundImageFix" result="shape"/>
      <feGaussianBlur result="effect1_foregroundBlur_7838_38531" stdDeviation="126.8"/>
    </filter>
    <radialGradient id="f" cx="0" cy="0" r="1" gradientTransform="rotate(-32.9 373.2 -2747.6) scale(685.5)" gradientUnits="userSpaceOnUse">
      <stop offset=".8" stop-color="#BAE2FF"/>
      <stop offset="1" stop-color="#59B5FF"/>
    </radialGradient>
  </defs>
</svg>
