<svg width="1920" height="1080" viewBox="0 0 1920 1080" fill="none" xmlns="http://www.w3.org/2000/svg">
<g opacity="0.3" filter="url(#filter0_f_6159_67070)">
<ellipse cx="802.479" cy="372.11" rx="802.479" ry="372.11" transform="matrix(0.827871 -0.560919 -0.560919 -0.827871 -262.553 775.603)" fill="#00A3FF"/>
</g>
<g opacity="0.3" filter="url(#filter1_f_6159_67070)">
<ellipse cx="1637.25" cy="38.3007" rx="765.249" ry="372.11" transform="rotate(-145.881 1637.25 38.3007)" fill="#00A3FF"/>
</g>
<g filter="url(#filter2_f_6159_67070)">
<ellipse cx="959" cy="180.999" rx="643" ry="160" transform="rotate(180 959 180.999)" fill="#1E76E2"/>
</g>
<g opacity="0.8" filter="url(#filter3_f_6159_67070)">
<path d="M1652.95 -716.085C1403.26 -1101.73 888.223 -1211.96 502.574 -962.273C116.925 -712.589 6.703 -197.55 256.387 188.099C506.07 573.748 1021.11 683.97 1406.76 434.287C1792.41 184.603 1902.63 -330.436 1652.95 -716.085Z" fill="#0284D8"/>
</g>
<g opacity="0.4" filter="url(#filter4_f_6159_67070)">
<path d="M1584.51 -671.776C1359.3 -1019.63 894.736 -1119.05 546.884 -893.835C199.032 -668.623 99.6124 -204.062 324.825 143.79C550.037 491.642 1014.6 591.061 1362.45 365.849C1710.3 140.637 1809.72 -323.924 1584.51 -671.776Z" fill="#B0E0FF"/>
</g>
<path d="M1530.1 -636.545C1324.34 -954.345 899.916 -1045.17 582.117 -839.42C264.318 -633.665 173.488 -209.24 379.243 108.559C584.998 426.358 1009.42 517.188 1327.22 311.433C1645.02 105.678 1735.85 -318.746 1530.1 -636.545Z" fill="url(#paint0_radial_6159_67070)"/>
<path d="M1315.68 93.2011C1253.14 125.895 1177.32 103.089 1146.35 42.2614C1115.37 -18.5658 1140.95 -94.3798 1203.5 -127.074C1266.04 -159.768 1341.85 -136.961 1372.83 -76.134C1403.81 -15.3068 1378.22 60.5071 1315.68 93.2011Z" fill="#A0D5FF"/>
<path d="M1316.18 -127.5C1250.24 -151.429 1175.23 -115.514 1148.6 -47.4061C1134.61 -11.605 1136.86 25.8375 1151.57 56.8895C1130.45 23.5986 1125.1 -19.7547 1141.19 -60.9142C1167.85 -129.099 1242.9 -164.91 1308.77 -141.008C1340.09 -129.643 1363.63 -106.733 1376.9 -78.5952C1362.99 -100.491 1342.31 -118.015 1316.18 -127.5Z" fill="#3A99E4"/>
<path d="M525.435 0.806378C509.828 40.9122 465.892 62.001 427.301 47.9093C388.711 33.8177 370.079 -10.1181 385.686 -50.2239C401.293 -90.3297 445.229 -111.418 483.819 -97.3268C522.41 -83.2352 541.042 -39.2995 525.435 0.806378Z" fill="#A0D5FF"/>
<path d="M488.7 -89.5875C450.023 -103.624 406.046 -82.6047 390.412 -42.6097C382.215 -21.6414 383.55 0.391668 392.133 18.5816C379.765 -0.893419 376.622 -26.4201 386.033 -50.4948C401.667 -90.4899 445.644 -111.509 484.322 -97.4726C502.722 -90.7951 516.511 -77.3668 524.303 -60.8827C516.107 -73.7003 504.021 -84.0275 488.7 -89.5875Z" fill="#3A99E4"/>
<path d="M1176.62 130.739C1181.17 119.052 1175.77 106.311 1164.52 102.205C1153.28 98.0983 1140.54 104.214 1135.99 115.901C1131.44 127.588 1136.84 140.329 1148.09 144.435C1159.33 148.542 1172.08 142.427 1176.62 130.739Z" fill="#A0D5FF"/>
<path d="M1165.93 104.484C1154.67 100.396 1141.9 106.495 1137.35 118.144C1134.98 124.202 1135.38 130.642 1137.87 135.892C1134.25 130.234 1133.38 122.822 1136.11 115.832C1140.66 104.183 1153.43 98.0836 1164.69 102.172C1170.02 104.107 1174.05 108.053 1176.32 112.779C1173.92 109.067 1170.47 106.042 1165.96 104.407L1165.93 104.484Z" fill="#3A99E4"/>
<path d="M574.545 19.0284C579.093 7.341 573.69 -5.39945 562.444 -9.50598C551.199 -13.6125 538.458 -7.49725 533.91 4.19018C529.362 15.8776 534.765 28.6181 546.011 32.7247C557.257 36.8312 569.997 30.7159 574.545 19.0284Z" fill="#A0D5FF"/>
<path d="M563.925 -7.19429C552.659 -11.2826 539.899 -5.18349 535.345 6.46573C532.977 12.5233 533.376 18.9639 535.868 24.2139C532.249 18.5551 531.373 11.1429 534.105 4.15339C538.659 -7.49583 551.419 -13.5949 562.685 -9.50657C568.017 -7.57141 572.049 -3.62526 574.318 1.10012C571.91 -2.61156 568.461 -5.63663 563.955 -7.27197L563.925 -7.19429Z" fill="#3A99E4"/>
<path d="M658.385 193.043C667.451 169.746 656.601 144.16 634.184 135.974C611.767 127.789 586.181 140.07 577.115 163.367C568.049 186.664 578.899 212.25 601.316 220.436C623.733 228.621 649.319 216.34 658.385 193.043Z" fill="#A0D5FF"/>
<path d="M637.101 140.488C614.645 132.338 589.018 144.587 579.942 167.808C575.176 180.001 575.927 192.777 580.958 203.382C573.719 192.064 571.967 177.24 577.431 163.261C586.508 140.04 612.135 127.792 634.59 135.941C645.255 139.811 653.273 147.599 657.826 157.232C653.115 149.758 646.007 143.809 637.145 140.593L637.101 140.488Z" fill="#3A99E4"/>
<path d="M1297.57 257.148C1306.64 233.851 1295.79 208.265 1273.37 200.08C1250.95 191.894 1225.37 204.175 1216.3 227.472C1207.23 250.769 1218.09 276.355 1240.5 284.541C1262.92 292.726 1288.5 280.445 1297.57 257.148Z" fill="#A0D5FF"/>
<path d="M1276.29 204.593C1253.83 196.444 1228.2 208.693 1219.13 231.913C1214.36 244.106 1215.11 256.883 1220.14 267.487C1212.9 256.17 1211.15 241.346 1216.62 227.367C1225.69 204.146 1251.32 191.897 1273.78 200.047C1284.44 203.917 1292.46 211.704 1297.01 221.338C1292.3 213.864 1285.19 207.915 1276.33 204.698L1276.29 204.593Z" fill="#3A99E4"/>
<path d="M1110.3 104.739C1095.65 142.392 1054.4 162.191 1018.17 148.961C981.942 135.731 964.45 94.4828 979.102 56.8298C993.755 19.1768 1035 -0.622115 1071.23 12.6077C1107.46 25.8375 1124.96 67.0861 1110.3 104.739Z" fill="#A0D5FF"/>
<path d="M1075.86 19.8393C1039.58 6.67538 998.241 26.4341 983.578 63.9436C975.868 83.6691 977.088 104.241 985.223 121.382C973.602 103.065 970.665 79.2093 979.529 56.5327C994.192 19.0232 1035.53 -0.735479 1071.81 12.4285C1089.08 18.697 1102 31.2777 1109.31 46.79C1101.69 34.7111 1090.28 25.0722 1075.86 19.8393Z" fill="#3A99E4"/>
<path opacity="0.1" d="M928.592 182.805C756.684 232.795 581.642 224.946 424.33 170.794C593.12 376.238 874.068 472.969 1145.56 394.039C1509.14 288.382 1718.19 -92.0161 1612.46 -455.576C1593.53 -520.716 1565.63 -580.792 1530.8 -635.078C1537.91 -266.883 1299.11 75.0155 928.57 182.729L928.592 182.805Z" fill="#0D7CD8"/>
<path opacity="0.1" d="M1018.54 285.289C855.729 332.59 690.155 328.092 539.471 281.457C706.416 408.4 929.202 457.409 1146.02 394.307C1504.08 290.201 1712.06 -80.3218 1617.3 -438.814C1586.13 -107.595 1357.37 186.702 1018.52 285.213L1018.54 285.289Z" fill="#0D7CD8"/>
<g opacity="0.3">
<path opacity="0.5" d="M-86.1272 414.255C-93.2272 416.455 509.573 414.955 531.773 410.755C553.973 406.555 509.773 397.655 487.573 400.755C465.373 403.855 419.873 406.655 419.873 406.655C419.873 406.655 428.673 396.755 395.073 394.355C361.473 391.955 324.273 392.655 324.273 392.655C324.273 392.655 322.773 382.955 301.573 379.555C280.373 376.155 263.673 380.955 263.673 380.955C263.673 380.955 259.373 358.755 216.173 360.055C172.973 361.355 146.973 384.955 146.973 384.955C146.973 384.955 133.473 384.355 119.573 387.855C105.673 391.355 100.473 397.955 100.473 397.955C100.473 397.955 94.4728 381.155 68.2728 382.855C42.0728 384.555 32.1728 402.355 32.1728 402.355C32.1728 402.355 -48.3272 402.555 -86.1272 414.255Z" fill="white"/>
<path opacity="0.5" d="M1452.07 765.579C1443.57 767.379 2174.77 761.179 2201.57 757.679C2228.37 754.179 2174.37 747.479 2147.57 750.079C2120.77 752.679 2065.67 755.379 2065.67 755.379C2065.67 755.379 2075.87 747.479 2035.07 745.879C1994.27 744.279 1949.17 745.079 1949.17 745.079C1949.17 745.079 1946.87 737.379 1921.07 734.879C1895.27 732.279 1875.17 736.279 1875.17 736.279C1875.17 736.279 1868.97 718.679 1816.67 720.079C1764.37 721.479 1733.77 740.379 1733.77 740.379C1733.77 740.379 1717.37 739.979 1700.57 742.879C1683.77 745.779 1677.77 751.079 1677.77 751.079C1677.77 751.079 1669.77 737.779 1638.07 739.279C1606.37 740.779 1595.07 755.079 1595.07 755.079C1595.07 755.079 1497.37 755.979 1452.07 765.579Z" fill="white"/>
</g>
<path d="M94.6561 381.102C126.431 379.047 127.888 408.791 127.892 408.886C127.925 408.869 129.865 407.871 133.121 406.922C133.123 406.89 133.126 406.859 133.128 406.827C135.765 406.102 139.116 405.43 142.977 405.281C146.855 405.105 151.252 405.457 155.89 406.828C171.02 411.303 171.59 424.02 171.601 424.317C171.749 424.313 171.975 424.307 172.276 424.3C176.627 424.167 201.26 423.577 223.57 426.38C247.506 429.187 241.247 441.95 240.906 442.612C243.808 442.254 275.3 438.331 291.048 434.406C293.628 433.731 296.583 433.447 299.668 433.472H299.87C316.527 433.604 336.981 442.716 322.875 447.578C319.405 448.774 297.555 449.923 265.15 450.97C264.788 450.982 264.424 450.993 264.058 451.005C261.673 451.081 259.233 451.157 256.739 451.233C256.108 451.252 255.473 451.27 254.835 451.289C126.664 455.096 -136.144 457.368 -131.95 454.988C-103.155 438.939 -44.366 438.523 -44.3293 438.523C-44.3293 438.523 -35.6677 414.443 -16.1291 412.179C3.40924 409.915 6.43047 432.349 6.43047 432.349C6.43047 432.349 10.8624 423.498 21.3367 418.765C31.7851 414.043 41.6322 414.851 41.6805 414.855C41.6805 414.855 62.8305 382.954 94.6561 381.102Z" fill="#80BDE8"/>
<path opacity="0.4" d="M1622.67 892.355C1622.67 893.59 1623.41 894.337 1624.91 894.593L1626.18 894.275H1638.72C1640.38 893.982 1641.22 893.187 1641.22 891.915C1641.22 888.674 1638.12 887.499 1631.93 888.392C1629.58 888.735 1627.45 889.31 1625.53 890.117C1623.61 890.924 1622.65 891.67 1622.65 892.355M1569.22 858.733C1569.22 854.599 1568.56 851.125 1567.24 848.312C1564.59 842.722 1559.67 839.995 1552.44 840.129C1547.33 840.264 1542.42 842.05 1537.73 845.499C1534.95 847.505 1532.88 849.743 1531.52 852.213C1528.62 849.486 1524.67 848.19 1519.68 848.312C1516.18 848.349 1512.3 849.547 1508.03 851.895C1507.69 852.103 1507.37 852.324 1507.08 852.531C1506.31 849.425 1505.03 846.453 1503.23 843.64C1498.24 836.093 1490.01 832.436 1478.53 832.644C1471.31 832.815 1464.25 835.164 1457.34 839.677C1449.41 844.875 1445.39 851.015 1445.31 858.084C1443.56 857.277 1441.38 856.898 1438.78 856.935C1433.19 857.057 1428.3 859.601 1424.12 864.542C1421.6 867.478 1419.58 870.548 1418.04 873.752C1416.2 870.303 1413.67 868.676 1410.42 868.896C1407.18 869.068 1404.39 871.196 1402.04 875.293C1399.82 879.085 1398.9 882.729 1399.28 886.228C1397.1 885.799 1393.56 886.399 1388.65 888.013C1383.74 889.628 1381.36 892.294 1381.49 896C1393.27 895.914 1409.05 895.657 1428.85 895.229C1448.6 894.85 1473.02 894.826 1502.07 895.168C1531.09 895.547 1554.02 895.621 1570.87 895.364C1587.72 895.107 1602.63 894.875 1615.61 894.655C1617.74 890.863 1616.85 888.258 1612.92 886.851C1608.99 885.408 1606.39 884.98 1605.11 885.579C1603.91 886.13 1603.3 886.411 1603.25 886.411C1603.07 886.411 1602.95 886.386 1602.87 886.35V886.215C1602.7 884.001 1602.27 882.081 1601.58 880.467C1600.3 877.275 1597.76 875.721 1593.96 875.795C1591.44 875.831 1589.42 876.492 1587.88 877.776C1587.5 875.097 1586.77 872.749 1585.7 870.743C1582.97 865.631 1578.19 863.136 1571.36 863.27C1570.5 863.221 1569.67 863.27 1568.86 863.392C1569.07 862.072 1569.18 860.518 1569.18 858.72M1654.92 893.762C1655.21 893.468 1655.37 892.991 1655.37 892.355C1655.37 890.949 1654.11 890.141 1651.6 889.921C1649.08 889.713 1647.83 890.521 1647.83 892.355C1647.83 892.869 1647.94 893.272 1648.15 893.566C1648.7 894.251 1649.85 894.593 1651.6 894.593C1653.35 894.593 1654.38 894.312 1654.93 893.762H1654.92Z" fill="white"/>
<path opacity="0.4" d="M1832.66 221.102C1864.43 219.047 1865.89 248.791 1865.89 248.886C1865.93 248.869 1867.86 247.871 1871.12 246.922C1871.12 246.89 1871.13 246.859 1871.13 246.827C1873.76 246.102 1877.12 245.43 1880.98 245.281C1884.85 245.105 1889.25 245.457 1893.89 246.828C1909.02 251.303 1909.59 264.02 1909.6 264.317C1909.75 264.313 1909.98 264.307 1910.28 264.3C1914.63 264.167 1939.26 263.577 1961.57 266.38C1985.51 269.187 1979.25 281.95 1978.91 282.612C1981.81 282.254 2013.3 278.331 2029.05 274.406C2031.63 273.731 2034.58 273.447 2037.67 273.472H2037.87C2054.53 273.604 2074.98 282.716 2060.87 287.578C2057.41 288.774 2035.55 289.923 2003.15 290.97C2002.79 290.982 2002.42 290.993 2002.06 291.005C1999.67 291.081 1997.23 291.157 1994.74 291.233C1994.11 291.252 1993.47 291.27 1992.83 291.289C1864.66 295.096 1601.86 297.368 1606.05 294.988C1634.84 278.939 1693.63 278.523 1693.67 278.523C1693.67 278.523 1702.33 254.443 1721.87 252.179C1741.41 249.915 1744.43 272.349 1744.43 272.349C1744.43 272.349 1748.86 263.498 1759.34 258.765C1769.79 254.043 1779.63 254.851 1779.68 254.855C1779.68 254.855 1800.83 222.954 1832.66 221.102Z" fill="white"/>
<path opacity="0.4" d="M275.716 212.543C274.615 214.745 262.646 228.595 256.798 235.245C256.11 234.671 254.115 233.181 251.639 231.805C248.543 230.085 246.479 233.181 245.104 235.245C243.728 237.308 244.76 237.652 246.479 237.996C247.855 238.272 248.428 239.487 248.543 240.06C245.677 240.06 238.706 240.404 233.753 241.78C227.561 243.5 212.427 254.163 214.147 254.851C215.867 255.538 236.504 250.723 239.944 249.347C242.696 248.246 252.327 248.889 256.798 249.347L269.869 263.794C271.818 262.876 275.923 260.491 276.748 258.29C277.574 256.089 280.99 246.825 282.595 242.468C277.895 243.614 268.287 245.564 267.461 244.188C266.429 242.468 273.996 236.965 280.532 229.397C287.067 221.83 310.8 191.906 310.112 190.874C309.424 189.842 309.08 190.186 304.609 193.625C300.137 197.065 277.092 209.792 275.716 212.543Z" fill="white"/>
<path opacity="0.2" d="M144.427 316.079C147.241 309.746 155.686 304.468 160.612 300.95C165.538 297.431 171.519 296.727 181.019 295.672C184.617 295.272 186.991 294.541 188.505 293.77C189.488 292.89 190.297 292.082 190.871 291.45C190.809 292.006 190.188 292.912 188.505 293.77C185.472 296.484 180.769 299.887 176.093 300.95C169.901 302.357 168.118 303.647 168.001 304.116C168.822 305.406 169.408 308.69 165.186 311.505C160.964 314.32 157.328 311.271 156.038 309.394C153.575 312.326 148.227 318.753 146.538 321.005C142.843 325.931 137.619 327.137 134.216 328.796C136.931 326.385 142.27 320.931 144.427 316.079Z" fill="white"/>
<path opacity="0.4" fill-rule="evenodd" clip-rule="evenodd" d="M1482.77 512.94C1482.77 512.94 1486.29 509.258 1486.1 506.629C1486.1 506.617 1486.09 506.604 1486.09 506.591C1485.48 504.802 1484.1 502.663 1483.17 501.225L1483.17 501.224C1482.7 500.509 1482.35 499.967 1482.27 499.728C1482.23 499.623 1482.25 499.416 1482.32 499.125C1482.18 498.899 1482.09 498.727 1482.05 498.622C1481.75 497.796 1485.04 490.577 1492.77 486.271C1500.51 481.965 1515.26 476.118 1515.26 476.118C1515.26 476.118 1515.1 476.66 1514.81 477.496C1517.01 476.573 1518.43 476 1518.43 476C1518.43 476 1516.16 483.821 1513.53 486.083C1512.27 487.197 1510.46 488.043 1508.78 488.828C1507.66 489.35 1506.6 489.845 1505.79 490.373C1505.73 489.594 1505.76 488.967 1505.85 488.431C1504.12 489.236 1502.54 489.989 1501.9 490.922C1500.84 492.501 1500.12 505.748 1500.47 510.58C1500.51 510.887 1500.55 511.123 1500.61 511.274C1501.14 512.764 1502.85 515.451 1503.68 516.717C1505.23 516.59 1507.46 516.204 1509.48 515.852C1511.76 515.456 1513.78 515.105 1514.3 515.219C1515.02 515.376 1515.86 516.941 1515.99 518.461C1516.03 518.799 1516.04 519.137 1516.01 519.459C1516.04 520.197 1515.91 520.91 1515.51 521.434C1514.61 522.6 1513.1 524.346 1511.91 525.376C1512.2 525.403 1512.44 525.437 1512.59 525.481C1512.63 525.492 1512.67 525.504 1512.71 525.515L1512.82 525.548C1513.55 525.757 1514.02 525.892 1513.39 526.094C1512.84 526.271 1512.42 526.279 1512.27 526.275C1512.53 526.29 1513.58 526.371 1513.6 526.731C1513.63 527.019 1513.34 527.043 1513.01 527.072C1512.83 527.088 1512.63 527.105 1512.46 527.17C1512 527.349 1508.81 527.059 1507.49 526.613C1506.79 526.397 1505.38 525.765 1504.1 525.192C1503.39 524.872 1502.71 524.569 1502.23 524.369C1501.4 524.521 1500.29 524.833 1498.64 525.424C1496.75 526.096 1493.75 526.738 1490.77 527.163C1490.04 527.547 1489.28 528.041 1488.76 528.649C1487.63 529.985 1481.41 537.843 1479.25 542.177C1479.02 542.672 1478.84 543.114 1478.74 543.488C1477.98 546.309 1477.74 551.213 1477.77 555.975C1478.05 555.579 1478.32 555.172 1478.58 554.762C1478.59 556.428 1478.62 558.131 1478.68 559.716C1478.92 565.452 1475.7 572.286 1475.3 571.759C1475.24 571.684 1475.15 571.478 1475.04 571.172C1474.77 571.623 1474.56 571.832 1474.48 571.722C1474.33 571.531 1473.98 570.508 1473.51 569.138C1472.68 566.75 1471.5 563.31 1470.42 561.383C1468.71 558.35 1465.83 540.884 1466.01 537.637C1466.02 537.405 1466.05 537.18 1466.08 536.96C1466.42 533.93 1468.69 531.909 1472.41 529.42C1474.65 527.917 1476.04 526.438 1476.81 525.464C1476.45 525.28 1476.13 525.105 1475.85 524.947L1475.87 524.949C1475.12 524.539 1474.62 524.23 1474.54 524.174C1474.49 524.09 1474.19 524.068 1473.78 524.039C1473.13 523.992 1472.23 523.927 1471.8 523.55C1471.25 524.183 1470.67 524.792 1470.43 525.046C1470.38 525.101 1470.34 525.14 1470.32 525.158C1470.27 525.216 1470.21 525.265 1470.14 525.314C1469.99 525.436 1469.83 525.556 1469.84 525.821C1469.84 526.191 1469.4 526.311 1469.31 525.337C1469.23 524.487 1470.9 522.778 1471.54 522.137C1471.54 522.085 1471.54 522.03 1471.55 521.971C1471.55 521.971 1471.28 521.172 1472.35 519.564C1472.34 519.523 1472.34 519.481 1472.34 519.44C1472.64 518.982 1473.09 518.433 1473.69 517.793C1474.92 516.55 1477 515.647 1479.07 514.987C1479.11 515.001 1479.14 515.017 1479.18 515.035C1479.83 514.834 1480.47 514.659 1481.08 514.508C1480.98 514.772 1480.89 515.085 1480.93 515.375C1482.18 515.054 1483.31 514.835 1484.08 514.694L1483 514.414C1483 514.414 1483.43 513.959 1483.99 513.252L1482.77 512.94ZM1503.97 524.262C1504.94 524.736 1505.87 525.178 1506.4 525.22C1506.82 525.242 1507.5 525.25 1508.27 525.259L1508.27 525.259L1508.27 525.259L1508.71 525.264C1508.1 525.135 1507.44 524.968 1506.81 524.811C1505.91 524.583 1505.08 524.375 1504.6 524.327C1504.38 524.302 1504.18 524.278 1503.97 524.262ZM1486.91 513.996L1488.7 514.454C1487.89 514.437 1487.14 514.434 1486.5 514.446C1486.63 514.311 1486.77 514.161 1486.91 513.996Z" fill="white"/>
<path d="M468.962 774.018C469.272 774.251 469.635 774.484 470.075 774.743C470.127 774.225 470.256 773.734 470.437 773.268C473.389 766.648 477.169 763.337 481.829 763.337C487.474 763.337 492.859 765.173 498.011 768.846C503.397 772.518 506.115 776.682 506.115 781.338C506.115 783.536 505.753 786.613 505.002 790.519C505.002 792.226 505.727 793.829 507.202 795.303C508.678 796.777 510.258 797.502 511.992 797.502C514.452 797.502 516.161 797.01 517.145 796.027C518.128 794.812 519.708 794.191 521.934 794.191C523.41 794.191 526.103 795.898 530.038 799.338C534.207 802.778 536.666 804.485 537.391 804.485C539.592 802.519 542.777 801.536 546.945 801.536C550.881 801.536 554.557 802.752 557.975 805.209C561.418 807.407 563.127 809.735 563.127 812.192V813.304C434.19 809.941 325.189 808.597 236.098 809.269C235.865 808.364 235.736 807.278 235.736 805.959C235.736 798.614 239.542 794.941 247.128 794.941C252.021 795.174 255.465 796.053 257.432 797.502H259.996C259.504 796.027 259.374 794.812 259.633 793.829C260.125 791.864 262.196 790.881 265.899 790.881C269.601 790.881 272.397 791.372 274.365 792.355V787.932C274.132 785.967 274.857 784.984 276.566 784.984C277.058 784.984 277.912 785.217 279.129 785.708C279.362 785.76 279.621 785.76 279.854 785.708C279.621 785.139 279.491 783.898 279.491 782.036C279.491 770.76 284.644 765.122 294.948 765.122C307.713 765.122 314.807 769.415 316.283 777.975C317.758 786.303 319.338 790.467 321.072 790.467C322.548 790.467 324.257 790.105 326.225 789.355C328.192 788.372 329.28 787.881 329.539 787.881C330.264 787.881 332.102 788.734 335.053 790.441C338.238 791.915 340.335 792.639 341.319 792.639C343.028 792.639 344.504 791.165 345.746 788.217C346.73 785.036 348.698 783.432 351.624 783.432C354.316 783.432 356.388 783.794 357.889 784.544C357.812 784.829 357.812 785.062 357.889 785.269L359.003 785.993C358.692 785.45 358.329 784.958 357.889 784.519C354.446 776.656 352.737 772.363 352.737 771.665C352.737 767.992 352.97 765.536 353.462 764.32C354.938 760.88 358.355 759.173 363.767 759.173H364.88C365.139 750.949 367.469 743.475 371.87 736.75C378.24 726.949 387.819 722.061 400.558 722.061C412.571 722.061 422.876 725.5 431.471 732.354C440.533 739.466 445.09 748.647 445.09 759.923C445.09 764.579 444.598 769.467 443.614 774.613H443.977C444.702 773.139 445.453 771.924 446.177 770.941C447.886 769.234 450.113 768.38 452.806 768.38C458.45 768.38 463.835 770.217 468.987 773.889M136.78 796.441C136.78 790.312 137.013 786.51 137.505 785.062C139.214 780.898 143.383 778.803 150.011 778.803C160.807 778.803 167.176 781.131 169.144 785.786C170.128 788.243 169.999 791.424 168.782 795.329H172.458C175.643 794.114 177.973 793.493 179.449 793.493C181.158 793.493 182.763 794.708 184.239 797.165C185.456 799.622 186.698 800.838 187.915 800.838C189.624 800.838 191.462 799.855 193.43 797.89C195.398 795.691 196.614 794.579 197.106 794.579C197.831 794.579 199.437 795.071 201.896 796.053C204.589 797.036 206.557 798.148 207.773 799.364C210.233 801.071 211.45 803.036 211.45 805.235C211.554 807.071 211.683 808.416 211.812 809.269C201.016 809.554 176.497 809.321 138.23 808.545C137.246 805.622 136.755 801.562 136.755 796.415M104.779 792.381C107.731 792.381 110.553 793.493 113.246 795.691C116.819 798.795 118.553 802.959 118.398 808.183C106.85 807.872 94.3452 807.51 80.8819 807.071C80.157 805.002 79.7686 803.528 79.7686 802.648C79.7686 798.226 82.0987 796.027 86.7591 796.027C93.3872 797.243 96.8048 797.864 97.0638 797.864C98.7726 797.864 100.248 797.01 101.491 795.303C102.475 793.338 103.588 792.355 104.805 792.355L104.779 792.381Z" fill="#A9DAF5"/>
<defs>
<filter id="filter0_f_6159_67070" x="-853.479" y="-878.082" width="2093.1" height="1791" filterUnits="userSpaceOnUse" color-interpolation-filters="sRGB">
<feFlood flood-opacity="0" result="BackgroundImageFix"/>
<feBlend mode="normal" in="SourceGraphic" in2="BackgroundImageFix" result="shape"/>
<feGaussianBlur stdDeviation="175" result="effect1_foregroundBlur_6159_67070"/>
</filter>
<filter id="filter1_f_6159_67070" x="620.045" y="-840.086" width="2034.41" height="1756.77" filterUnits="userSpaceOnUse" color-interpolation-filters="sRGB">
<feFlood flood-opacity="0" result="BackgroundImageFix"/>
<feBlend mode="normal" in="SourceGraphic" in2="BackgroundImageFix" result="shape"/>
<feGaussianBlur stdDeviation="175" result="effect1_foregroundBlur_6159_67070"/>
</filter>
<filter id="filter2_f_6159_67070" x="-34" y="-329.001" width="1986" height="1020" filterUnits="userSpaceOnUse" color-interpolation-filters="sRGB">
<feFlood flood-opacity="0" result="BackgroundImageFix"/>
<feBlend mode="normal" in="SourceGraphic" in2="BackgroundImageFix" result="shape"/>
<feGaussianBlur stdDeviation="175" result="effect1_foregroundBlur_6159_67070"/>
</filter>
<filter id="filter3_f_6159_67070" x="-130.887" y="-1349.55" width="2171.11" height="2171.11" filterUnits="userSpaceOnUse" color-interpolation-filters="sRGB">
<feFlood flood-opacity="0" result="BackgroundImageFix"/>
<feBlend mode="normal" in="SourceGraphic" in2="BackgroundImageFix" result="shape"/>
<feGaussianBlur stdDeviation="126.8" result="effect1_foregroundBlur_6159_67070"/>
</filter>
<filter id="filter4_f_6159_67070" x="-49.3481" y="-1268.01" width="2008.03" height="2008.03" filterUnits="userSpaceOnUse" color-interpolation-filters="sRGB">
<feFlood flood-opacity="0" result="BackgroundImageFix"/>
<feBlend mode="normal" in="SourceGraphic" in2="BackgroundImageFix" result="shape"/>
<feGaussianBlur stdDeviation="126.8" result="effect1_foregroundBlur_6159_67070"/>
</filter>
<radialGradient id="paint0_radial_6159_67070" cx="0" cy="0" r="1" gradientUnits="userSpaceOnUse" gradientTransform="translate(954.669 -263.993) rotate(-32.9205) scale(685.5)">
<stop offset="0.798077" stop-color="#BAE2FF"/>
<stop offset="1" stop-color="#59B5FF"/>
</radialGradient>
</defs>
</svg>
