<svg width="360" height="640" viewBox="0 0 360 640" fill="none" xmlns="http://www.w3.org/2000/svg">
<g clip-path="url(#clip0_6159_68910)">
<g opacity="0.8" filter="url(#filter0_f_6159_68910)">
<path d="M475.62 -186.008C369.782 -349.48 151.463 -396.202 -12.0088 -290.364C-175.481 -184.526 -222.202 33.7926 -116.365 197.264C-10.527 360.736 207.792 407.458 371.264 301.62C534.736 195.783 581.457 -22.536 475.62 -186.008Z" fill="#0284D8"/>
</g>
<g opacity="0.4" filter="url(#filter1_f_6159_68910)">
<path d="M446.61 -167.226C351.146 -314.676 154.224 -356.818 6.77399 -261.354C-140.676 -165.889 -182.819 31.0323 -87.3541 178.482C8.11059 325.933 205.032 368.075 352.482 272.611C499.932 177.146 542.075 -19.7756 446.61 -167.226Z" fill="#B0E0FF"/>
</g>
<path d="M423.545 -152.292C336.328 -287.003 156.419 -325.505 21.7084 -238.288C-113.003 -151.071 -151.504 28.8373 -64.2874 163.548C22.9295 298.259 202.838 336.761 337.549 249.544C472.26 162.327 510.762 -17.581 423.545 -152.292Z" fill="url(#paint0_radial_6159_68910)"/>
<path d="M333.342 157.712C307.21 171.199 275.073 160.928 261.563 134.772C248.053 108.616 258.286 76.4799 284.419 62.9933C310.552 49.5066 342.688 59.7771 356.198 85.9329C369.708 112.089 359.475 144.225 333.342 157.712Z" fill="#A0D5FF"/>
<path d="M332.472 64.2533C304.096 53.6951 272.275 68.2711 261.383 96.7565C255.658 111.73 256.895 127.513 263.41 140.697C254.136 126.524 251.533 108.229 258.115 91.0141C269.019 62.4963 300.861 47.9648 329.204 58.511C342.681 63.5256 352.918 73.345 358.798 85.2905C352.69 75.9686 343.719 68.4382 332.472 64.2533Z" fill="#3A99E4"/>
<path d="M-1.88858 118.305C-8.26708 135.067 -26.8909 143.62 -43.486 137.409C-60.0811 131.198 -68.3633 112.574 -61.9848 95.8115C-55.6063 79.0492 -36.9825 70.4959 -20.3874 76.7072C-3.79229 82.9185 4.48992 101.542 -1.88858 118.305Z" fill="#A0D5FF"/>
<path d="M-18.1222 80.007C-34.7666 73.8139 -53.4224 82.3437 -59.818 99.0713C-63.171 107.841 -62.4397 117.129 -58.6365 124.851C-64.0681 116.56 -65.5978 105.788 -61.748 95.7189C-55.3524 78.9913 -36.6967 70.4615 -20.0522 76.6547C-12.134 79.6009 -6.13886 85.3563 -2.68633 92.3545C-6.28503 86.8972 -11.529 82.4602 -18.1222 80.007Z" fill="#3A99E4"/>
<path d="M273.837 173.076C275.696 168.191 273.294 162.79 268.458 160.98C263.622 159.17 258.221 161.651 256.362 166.535C254.504 171.42 256.905 176.821 261.741 178.631C266.578 180.441 271.978 177.961 273.837 173.076Z" fill="#A0D5FF"/>
<path d="M269.112 161.952C264.264 160.148 258.851 162.623 256.988 167.495C256.02 170.029 256.237 172.744 257.341 174.973C255.752 172.563 255.324 169.436 256.441 166.513C258.304 161.64 263.717 159.165 268.565 160.969C270.86 161.823 272.613 163.514 273.618 165.52C272.561 163.94 271.064 162.641 269.125 161.919L269.112 161.952Z" fill="#3A99E4"/>
<path d="M18.624 125.723C20.4828 120.838 18.0811 115.438 13.245 113.628C8.40893 111.817 3.0084 114.298 1.14961 119.182C-0.709171 124.067 1.69252 129.468 6.5286 131.278C11.3647 133.088 16.7652 130.608 18.624 125.723Z" fill="#A0D5FF"/>
<path d="M13.9287 114.613C9.08083 112.809 3.66759 115.284 1.80481 120.156C0.83617 122.69 1.0533 125.405 2.1577 127.634C0.568519 125.224 0.139969 122.097 1.25763 119.173C3.12041 114.301 8.53364 111.826 13.3815 113.63C15.6761 114.484 17.4292 116.175 18.4341 118.181C17.3771 116.601 15.8802 115.302 13.9411 114.58L13.9287 114.613Z" fill="#3A99E4"/>
<path d="M54.287 199.611C57.9922 189.874 53.169 179.028 43.529 175.42C33.8891 171.812 23.0434 176.793 19.3383 186.53C15.6331 196.267 20.4563 207.113 30.0962 210.721C39.7361 214.329 50.5818 209.348 54.287 199.611Z" fill="#A0D5FF"/>
<path d="M44.8795 177.344C35.2161 173.749 24.3449 178.719 20.6318 188.431C18.6821 193.531 19.0964 198.916 21.3251 203.419C18.1468 198.6 17.2897 192.345 19.525 186.498C23.2381 176.786 34.1094 171.816 43.7727 175.411C48.362 177.119 51.8481 180.457 53.8654 184.547C51.7962 181.365 48.713 178.808 44.8994 177.389L44.8795 177.344Z" fill="#3A99E4"/>
<path d="M325.23 226.784C328.936 217.047 324.112 206.202 314.472 202.594C304.833 198.986 293.987 203.967 290.282 213.704C286.576 223.441 291.4 234.286 301.04 237.894C310.68 241.503 321.525 236.521 325.23 226.784Z" fill="#A0D5FF"/>
<path d="M315.823 204.518C306.16 200.922 295.288 205.893 291.575 215.605C289.625 220.704 290.04 226.09 292.268 230.592C289.09 225.774 288.233 219.518 290.468 213.672C294.182 203.96 305.053 198.989 314.716 202.585C319.305 204.293 322.791 207.631 324.809 211.72C322.74 208.539 319.656 205.982 315.843 204.563L315.823 204.518Z" fill="#3A99E4"/>
<path d="M246.004 162.334C240.015 178.071 222.531 186.101 206.95 180.27C191.37 174.438 183.594 156.954 189.583 141.217C195.571 125.479 213.056 117.449 228.636 123.281C244.216 129.112 251.992 146.597 246.004 162.334Z" fill="#A0D5FF"/>
<path d="M230.78 126.364C215.17 120.556 197.633 128.574 191.634 144.262C188.48 152.512 189.151 161.184 192.756 168.461C187.652 160.663 186.222 150.596 189.848 141.112C195.847 125.424 213.384 117.405 228.995 123.214C236.428 125.979 242.045 131.371 245.286 137.957C241.936 132.815 236.986 128.673 230.78 126.364Z" fill="#3A99E4"/>
<path d="M392.291 28.0089C386.302 43.746 368.818 51.7762 353.237 45.9447C337.657 40.1133 329.882 22.6285 335.87 6.89135C341.858 -8.84579 359.343 -16.876 374.923 -11.0445C390.504 -5.21307 398.279 12.2717 392.291 28.0089Z" fill="#A0D5FF"/>
<path d="M377.054 -7.93082C361.443 -13.7391 343.906 -5.72073 337.908 9.96729C334.753 18.2173 335.425 26.8891 339.029 34.1664C333.926 26.3684 332.496 16.3013 336.122 6.81706C342.12 -8.87096 359.658 -16.8893 375.268 -11.0811C382.701 -8.31521 388.319 -2.92317 391.56 3.66244C388.21 -1.47965 383.259 -5.62194 377.054 -7.93082Z" fill="#3A99E4"/>
<path opacity="0.1" d="M168.575 195.02C95.7054 216.21 21.507 212.883 -45.1756 189.929C26.3726 277.014 145.463 318.017 260.544 284.56C414.662 239.773 503.276 78.5272 458.457 -75.5813C450.435 -103.193 438.608 -128.659 423.843 -151.67C426.857 4.40336 325.632 149.33 168.565 194.988L168.575 195.02Z" fill="#0D7CD8"/>
<path opacity="0.1" d="M206.702 238.462C137.689 258.512 67.5039 256.606 3.63057 236.838C74.3965 290.647 168.833 311.422 260.741 284.674C412.517 240.544 500.677 83.4843 460.509 -68.4761C447.298 71.9234 350.326 196.672 206.693 238.43L206.702 238.462Z" fill="#0D7CD8"/>
<rect width="360" height="192" fill="url(#paint1_linear_6159_68910)"/>
<path opacity="0.4" d="M68.8748 241.832C68.3869 242.808 63.0811 248.947 60.4892 251.895C60.1842 251.641 59.2999 250.98 58.2022 250.37C56.83 249.608 55.9152 250.98 55.3053 251.895C54.6955 252.81 55.1529 252.962 55.9152 253.115C56.525 253.237 56.7792 253.775 56.83 254.03C55.5594 254.03 52.4695 254.182 50.274 254.792C47.5296 255.554 40.8211 260.281 41.5834 260.586C42.3457 260.89 51.4937 258.756 53.0183 258.146C54.2381 257.658 58.5071 257.943 60.4892 258.146L66.2829 264.55C67.1469 264.143 68.9663 263.086 69.3322 262.11C69.6981 261.134 71.2126 257.028 71.9241 255.097C69.8404 255.605 65.5815 256.469 65.2156 255.859C64.7582 255.097 68.1125 252.657 71.0093 249.303C73.9062 245.949 84.4263 232.684 84.1214 232.227C83.8165 231.769 83.664 231.922 81.6819 233.447C79.6999 234.971 69.4847 240.613 68.8748 241.832Z" fill="white"/>
<path opacity="0.2" d="M10.6789 287.726C11.9266 284.919 15.6697 282.579 17.8532 281.02C20.0367 279.46 22.6881 279.148 26.8991 278.68C28.4941 278.503 29.546 278.179 30.2171 277.837C30.6532 277.447 31.0114 277.089 31.2661 276.809C31.2387 277.055 30.9634 277.457 30.2171 277.837C28.8727 279.04 26.7882 280.549 24.7156 281.02C21.9706 281.644 21.1804 282.215 21.1284 282.423C21.4924 282.995 21.7523 284.451 19.8807 285.699C18.0092 286.946 16.3976 285.595 15.8257 284.763C14.7339 286.062 12.3633 288.911 11.6147 289.91C9.97707 292.093 7.66151 292.628 6.15282 293.363C7.35616 292.294 9.72307 289.877 10.6789 287.726Z" fill="white"/>
<path opacity="0.1" d="M-209.971 337.525C-213.316 338.56 70.6814 337.855 81.1404 335.879C91.5995 333.903 70.7756 329.715 60.3165 331.174C49.8575 332.632 28.421 333.95 28.421 333.95C28.421 333.95 32.567 329.292 16.737 328.163C0.907043 327.034 -16.619 327.363 -16.619 327.363C-16.619 327.363 -17.3257 322.8 -27.3136 321.2C-37.3016 319.6 -45.1695 321.859 -45.1695 321.859C-45.1695 321.859 -47.1953 311.414 -67.5481 312.026C-87.9009 312.637 -100.15 323.741 -100.15 323.741C-100.15 323.741 -106.511 323.458 -113.059 325.105C-119.608 326.752 -122.058 329.857 -122.058 329.857C-122.058 329.857 -124.885 321.953 -137.228 322.753C-149.572 323.552 -154.236 331.927 -154.236 331.927C-154.236 331.927 -192.162 332.021 -209.971 337.525Z" fill="white"/>
<path opacity="0.4" d="M402.432 358.389C402.432 358.935 402.765 359.265 403.43 359.378L403.997 359.238H409.582C410.324 359.108 410.695 358.757 410.695 358.195C410.695 356.763 409.315 356.244 406.561 356.638C405.514 356.79 404.565 357.044 403.708 357.4C402.852 357.757 402.427 358.087 402.427 358.389M378.625 343.532C378.625 341.705 378.33 340.17 377.741 338.927C376.563 336.457 374.371 335.252 371.153 335.311C368.873 335.371 366.686 336.16 364.597 337.684C363.359 338.57 362.437 339.559 361.832 340.651C360.539 339.446 358.783 338.873 356.558 338.927C354.998 338.943 353.269 339.473 351.371 340.511C351.218 340.603 351.076 340.7 350.945 340.792C350.602 339.419 350.034 338.106 349.233 336.863C347.007 333.528 343.342 331.912 338.226 332.004C335.014 332.079 331.867 333.117 328.791 335.111C325.256 337.408 323.467 340.122 323.429 343.245C322.649 342.889 321.678 342.721 320.522 342.737C318.03 342.791 315.853 343.916 313.994 346.099C312.87 347.396 311.97 348.753 311.283 350.169C310.465 348.645 309.336 347.926 307.89 348.023C306.445 348.099 305.202 349.039 304.154 350.85C303.167 352.525 302.758 354.136 302.927 355.682C301.956 355.492 300.38 355.757 298.193 356.471C296.006 357.184 294.942 358.362 295.002 360C300.249 359.962 307.28 359.849 316.099 359.66C324.896 359.492 335.772 359.481 348.714 359.632C361.641 359.8 371.856 359.832 379.361 359.719C386.866 359.605 393.509 359.503 399.29 359.405C400.24 357.73 399.841 356.579 398.091 355.957C396.34 355.32 395.184 355.13 394.611 355.395C394.076 355.638 393.804 355.763 393.782 355.763C393.705 355.763 393.651 355.752 393.613 355.736V355.676C393.536 354.698 393.346 353.849 393.04 353.136C392.467 351.725 391.338 351.039 389.648 351.071C388.524 351.088 387.624 351.38 386.937 351.947C386.768 350.763 386.441 349.726 385.966 348.839C384.75 346.58 382.623 345.478 379.579 345.537C379.198 345.515 378.827 345.537 378.467 345.591C378.559 345.007 378.608 344.321 378.608 343.527M416.798 359.011C416.929 358.881 417 358.67 417 358.389C417 357.768 416.438 357.411 415.32 357.314C414.197 357.222 413.64 357.579 413.64 358.389C413.64 358.616 413.689 358.795 413.782 358.924C414.028 359.227 414.54 359.378 415.32 359.378C416.1 359.378 416.558 359.254 416.804 359.011H416.798Z" fill="white"/>
</g>
<defs>
<filter id="filter0_f_6159_68910" x="-426.627" y="-600.626" width="1212.51" height="1212.51" filterUnits="userSpaceOnUse" color-interpolation-filters="sRGB">
<feFlood flood-opacity="0" result="BackgroundImageFix"/>
<feBlend mode="normal" in="SourceGraphic" in2="BackgroundImageFix" result="shape"/>
<feGaussianBlur stdDeviation="126.8" result="effect1_foregroundBlur_6159_68910"/>
</filter>
<filter id="filter1_f_6159_68910" x="-392.063" y="-566.063" width="1143.38" height="1143.38" filterUnits="userSpaceOnUse" color-interpolation-filters="sRGB">
<feFlood flood-opacity="0" result="BackgroundImageFix"/>
<feBlend mode="normal" in="SourceGraphic" in2="BackgroundImageFix" result="shape"/>
<feGaussianBlur stdDeviation="126.8" result="effect1_foregroundBlur_6159_68910"/>
</filter>
<radialGradient id="paint0_radial_6159_68910" cx="0" cy="0" r="1" gradientUnits="userSpaceOnUse" gradientTransform="translate(179.629 5.62817) rotate(-32.9205) scale(290.575)">
<stop offset="0.798077" stop-color="#BAE2FF"/>
<stop offset="1" stop-color="#59B5FF"/>
</radialGradient>
<linearGradient id="paint1_linear_6159_68910" x1="180" y1="0" x2="180" y2="192" gradientUnits="userSpaceOnUse">
<stop stop-color="#227FC8" stop-opacity="0.74"/>
<stop offset="1" stop-color="#227FC8" stop-opacity="0"/>
</linearGradient>
<clipPath id="clip0_6159_68910">
<rect width="360" height="640" fill="white"/>
</clipPath>
</defs>
</svg>
