<svg xmlns="http://www.w3.org/2000/svg" fill="none" viewBox="0 0 1920 1080">
  <path fill="url(#a)" d="M0 0h1920v1080H0z"/>
  <g filter="url(#b)" opacity=".3">
    <ellipse cx="802.5" cy="372.1" fill="#00A3FF" rx="802.5" ry="372.1" transform="scale(1 -1) rotate(34.1 1132.5 -815.6)"/>
  </g>
  <g filter="url(#c)" opacity=".3">
    <ellipse cx="1637.3" cy="38.3" fill="#00A3FF" rx="765.2" ry="372.1" transform="rotate(-145.9 1637.3 38.3)"/>
  </g>
  <g filter="url(#d)">
    <ellipse cx="959" cy="181" fill="#1E76E2" rx="643" ry="160" transform="rotate(180 959 181)"/>
  </g>
  <g filter="url(#e)" opacity=".8">
    <path fill="#0284D8" d="M1653-716A831.9 831.9 0 1 0 256.4 188 831.9 831.9 0 0 0 1653-716Z"/>
  </g>
  <g filter="url(#f)" opacity=".4">
    <path fill="#B0E0FF" d="M1584.5-671.8A750.3 750.3 0 1 0 324.8 143.8a750.3 750.3 0 0 0 1259.7-815.6Z"/>
  </g>
  <path fill="url(#g)" d="M1530.1-636.5a685.5 685.5 0 1 0-1150.9 745 685.5 685.5 0 0 0 1150.9-745Z"/>
  <path fill="#A0D5FF" d="M1315.7 93.2c-62.6 32.7-138.4 9.9-169.4-51-31-60.8-5.3-136.6 57.2-169.3 62.5-32.7 138.3-9.9 169.3 51 31 60.8 5.4 136.6-57.1 169.3Z"/>
  <path fill="#3A99E4" d="M1316.2-127.5c-66-24-141 12-167.6 80a131.2 131.2 0 0 0 3 104.4A130.5 130.5 0 0 1 1141.2-61c26.6-68.2 101.7-104 167.6-80.1a120.4 120.4 0 0 1 68.1 62.4 120.1 120.1 0 0 0-60.7-48.9Z"/>
  <path fill="#A0D5FF" d="M525.4.8C509.8 41 466 62 427.3 48c-38.6-14-57.2-58-41.6-98.1 15.6-40.1 59.5-61.2 98.1-47.1 38.6 14 57.2 58 41.6 98.1Z"/>
  <path fill="#3A99E4" d="M488.7-89.6c-38.7-14-82.7 7-98.3 47-8.2 21-6.8 43 1.7 61.2a76.6 76.6 0 0 1-6-69c15.6-40 59.5-61.1 98.2-47a70.7 70.7 0 0 1 40 36.5 70.8 70.8 0 0 0-35.6-28.7Z"/>
  <path fill="#A0D5FF" d="M1176.6 130.7a21.6 21.6 0 0 0-12-28.5c-11.3-4.1-24 2-28.6 13.7a21.6 21.6 0 0 0 12 28.5c11.3 4.1 24-2 28.6-13.7Z"/>
  <path fill="#3A99E4" d="M1166 104.5c-11.3-4.1-24.1 2-28.7 13.6-2.3 6.1-2 12.5.6 17.8-3.7-5.7-4.5-13-1.8-20a22.8 22.8 0 0 1 28.6-13.7c5.3 2 9.3 5.9 11.6 10.6a20.6 20.6 0 0 0-10.3-8.4Z"/>
  <path fill="#A0D5FF" d="M574.5 19a21.6 21.6 0 0 0-12-28.5c-11.3-4.1-24 2-28.6 13.7A21.6 21.6 0 0 0 546 32.7c11.3 4.1 24-2 28.5-13.7Z"/>
  <path fill="#3A99E4" d="M564-7.2c-11.3-4-24.1 2-28.7 13.7-2.3 6-2 12.5.6 17.7-3.7-5.6-4.5-13-1.8-20a22.8 22.8 0 0 1 28.6-13.7c5.3 2 9.3 5.9 11.6 10.6A20.7 20.7 0 0 0 564-7.3v.1Z"/>
  <path fill="#A0D5FF" d="M658.4 193c9-23.3-1.8-48.8-24.2-57a45.5 45.5 0 0 0-57 27.4 43.2 43.2 0 0 0 24.1 57c22.4 8.2 48-4 57-27.4Z"/>
  <path fill="#3A99E4" d="M637.1 140.5a45.6 45.6 0 0 0-57.2 27.3c-4.7 12.2-4 25 1 35.6a44.3 44.3 0 0 1-3.5-40.1 45.6 45.6 0 0 1 57.2-27.4 41 41 0 0 1 23.2 21.3 40.8 40.8 0 0 0-20.7-16.6v-.1Z"/>
  <path fill="#A0D5FF" d="M1297.6 257.1c9-23.2-1.8-48.8-24.2-57-22.5-8.2-48 4-57.1 27.4a43.3 43.3 0 0 0 24.2 57c22.4 8.2 48-4 57-27.4Z"/>
  <path fill="#3A99E4" d="M1276.3 204.6a45.6 45.6 0 0 0-57.2 27.3c-4.7 12.2-4 25 1 35.6a44.3 44.3 0 0 1-3.5-40.1 45.6 45.6 0 0 1 57.2-27.4 41 41 0 0 1 23.2 21.3 40.8 40.8 0 0 0-20.7-16.6v-.1Z"/>
  <path fill="#A0D5FF" d="M1110.3 104.7c-14.6 37.7-55.9 57.5-92.1 44.3-36.3-13.3-53.8-54.5-39.1-92.2 14.7-37.6 55.9-57.4 92.1-44.2 36.3 13.2 53.8 54.5 39.1 92.1Z"/>
  <path fill="#3A99E4" d="M1075.9 19.8c-36.3-13.1-77.7 6.6-92.3 44.1a72.1 72.1 0 0 0 1.6 57.5 71.8 71.8 0 0 1-5.7-64.9c14.7-37.5 56-57.2 92.3-44a66.2 66.2 0 0 1 37.5 34.3c-7.6-12-19-21.7-33.4-27Z"/>
  <path fill="#0D7CD8" d="M928.6 182.8c-172 50-347 42.1-504.3-12a685.6 685.6 0 0 0 1106.5-805.9 835.7 835.7 0 0 1-602.2 817.8v.1Z" opacity=".1"/>
  <path fill="#0D7CD8" d="M1018.5 285.3a831 831 0 0 1-479-3.8 685.4 685.4 0 0 0 1077.8-720.3 835.6 835.6 0 0 1-598.8 724Z" opacity=".1"/>
  <g fill="#fff" opacity=".3">
    <path d="M-86.1 414.3c-7.1 2.2 595.7.7 617.9-3.5 22.2-4.2-22-13.1-44.2-10-22.2 3-67.7 5.9-67.7 5.9s8.8-10-24.8-12.3c-33.6-2.4-70.8-1.7-70.8-1.7s-1.5-9.7-22.7-13.1a96 96 0 0 0-38 1.4s-4.2-22.2-47.4-21c-43.2 1.4-69.2 25-69.2 25s-13.5-.6-27.4 2.9c-14 3.5-19.1 10-19.1 10s-6-16.7-32.2-15c-26.2 1.7-36.1 19.5-36.1 19.5s-80.5.2-118.3 11.9ZM1452 765.6c-8.4 1.8 722.8-4.4 749.6-8 26.8-3.4-27.2-10.1-54-7.5-26.8 2.6-82 5.3-82 5.3s10.3-8-30.5-9.5c-40.8-1.6-86-.8-86-.8s-2.2-7.7-28-10.2c-25.8-2.6-46 1.4-46 1.4s-6.1-17.6-58.4-16.2c-52.3 1.4-83 20.3-83 20.3s-16.3-.4-33.1 2.5-22.8 8.2-22.8 8.2-8-13.3-39.7-11.8c-31.7 1.5-43 15.8-43 15.8s-97.7.9-143 10.5Z" opacity=".5"/>
  </g>
  <path fill="#80BDE8" d="M94.7 381.1c31.7-2 33.2 27.7 33.2 27.8 0 0 2-1 5.2-2a43.5 43.5 0 0 1 22.8 0c15.1 4.4 15.7 17.1 15.7 17.4h.7c4.3-.1 29-.7 51.3 2 24 2.9 17.6 15.6 17.3 16.3 3-.3 34.4-4.3 50.1-8.2 2.6-.7 5.6-1 8.7-1h.2c16.6.2 37 9.3 23 14.2-3.5 1.2-25.3 2.3-57.8 3.4h-1l-7.4.2h-1.9c-128.1 3.9-391 6.2-386.8 3.8 28.8-16 87.6-16.5 87.7-16.5 0 0 8.6-24 28.2-26.3 19.5-2.3 22.5 20.1 22.5 20.1s4.5-8.8 15-13.5c10.4-4.8 20.2-4 20.3-4 0 0 21.1-31.8 53-33.7Z"/>
  <path fill="#fff" d="M1622.7 892.4c0 1.2.7 2 2.2 2.2l1.3-.3h12.5c1.7-.3 2.5-1.1 2.5-2.4 0-3.2-3-4.4-9.3-3.5-2.3.3-4.5 1-6.4 1.7-1.9.8-2.8 1.6-2.8 2.3m-53.5-33.7c0-4.1-.6-7.6-2-10.4-2.6-5.6-7.5-8.3-14.8-8.2-5 .2-10 2-14.7 5.4-2.8 2-4.8 4.2-6.2 6.7a16 16 0 0 0-11.8-3.9 25.2 25.2 0 0 0-12.6 4.2c-.8-3-2-6-3.9-8.9-5-7.5-13.2-11.2-24.7-11-7.2.2-14.3 2.6-21.2 7-7.9 5.3-12 11.4-12 18.5a15 15 0 0 0-6.5-1.2c-5.6.2-10.5 2.7-14.7 7.6-2.5 3-4.5 6-6 9.3-1.9-3.5-4.4-5.1-7.7-4.9-3.2.2-6 2.3-8.4 6.4a17.7 17.7 0 0 0-2.7 11 24 24 0 0 0-10.6 1.7c-5 1.6-7.3 4.3-7.2 8 11.8 0 27.5-.3 47.3-.8 19.8-.4 44.2-.4 73.3 0a2577.8 2577.8 0 0 0 113.5-.5c2.1-3.8 1.3-6.4-2.7-7.8-4-1.5-6.5-2-7.8-1.3l-1.8.8a1 1 0 0 1-.4 0v-.2c-.2-2.2-.6-4.1-1.3-5.7-1.3-3.2-3.8-4.8-7.6-4.7-2.6 0-4.6.7-6.1 2-.4-2.7-1.1-5-2.2-7-2.7-5.2-7.5-7.7-14.3-7.5h-2.5c.2-1.2.3-2.8.3-4.6m85.7 35c.3-.2.5-.7.5-1.3 0-1.5-1.3-2.3-3.8-2.5-2.5-.2-3.8.6-3.8 2.5 0 .5.1.9.4 1.2.5.7 1.6 1 3.4 1 1.8 0 2.8-.3 3.3-.8ZM1832.7 221.1c31.7-2 33.2 27.7 33.2 27.8 0 0 2-1 5.2-2a43.4 43.4 0 0 1 22.8 0c15.1 4.4 15.7 17.1 15.7 17.4h.7c4.3-.1 29-.7 51.3 2 24 2.9 17.7 15.6 17.3 16.3a573 573 0 0 0 50.1-8.2c2.6-.7 5.6-1 8.7-1h.2c16.6.2 37 9.3 23 14.2-3.5 1.2-25.4 2.3-57.8 3.4h-1l-7.4.2h-1.9c-128.1 3.9-391 6.2-386.8 3.8 28.8-16 87.6-16.5 87.7-16.5 0 0 8.6-24 28.2-26.3 19.5-2.3 22.5 20.1 22.5 20.1s4.5-8.8 15-13.5c10.4-4.8 20.2-4 20.3-4 0 0 21.1-31.8 53-33.7ZM275.7 212.5c-1 2.2-13 16-18.9 22.7-.7-.5-2.7-2-5.2-3.4-3-1.7-5.1 1.4-6.5 3.4-1.4 2.1-.3 2.5 1.4 2.8 1.4.3 2 1.5 2 2a65 65 0 0 0-14.7 1.8c-6.2 1.7-21.4 12.4-19.7 13 1.8.7 22.4-4 25.8-5.5 2.8-1 12.4-.4 16.9 0l13 14.5c2-1 6.1-3.3 7-5.5l5.8-15.8c-4.7 1.1-14.3 3-15.1 1.7-1-1.7 6.5-7.2 13-14.8 6.6-7.6 30.3-37.5 29.6-38.5-.7-1-1-.7-5.5 2.7-4.5 3.5-27.5 16.2-28.9 19Z" opacity=".4"/>
  <path fill="#fff" d="M144.4 316c2.8-6.3 11.3-11.5 16.2-15 5-3.6 11-4.3 20.4-5.3 3.6-.4 6-1.2 7.5-2 1-.8 1.8-1.6 2.4-2.3 0 .6-.7 1.5-2.4 2.4-3 2.7-7.7 6-12.4 7.1-6.2 1.5-8 2.7-8.1 3.2.8 1.3 1.4 4.6-2.8 7.4-4.2 2.8-7.9-.2-9.2-2.1l-9.5 11.6c-3.7 5-8.9 6.1-12.3 7.8 2.7-2.4 8-7.9 10.2-12.7Z" opacity=".2"/>
  <path fill="#fff" fill-rule="evenodd" d="M1482.8 513s3.5-3.7 3.3-6.4c-.6-1.8-2-4-3-5.4-.4-.7-.8-1.2-.8-1.5v-.6l-.3-.5c-.3-.8 3-8 10.8-12.3 7.7-4.3 22.5-10.2 22.5-10.2l-.5 1.4 3.6-1.5s-2.2 7.8-4.9 10c-1.2 1.2-3 2-4.7 2.8-1.1.6-2.2 1-3 1.6a8 8 0 0 1 0-2c-1.7.8-3.3 1.6-3.9 2.5a78 78 0 0 0-1.3 20.4c.5 1.5 2.3 4.2 3 5.4 1.6-.1 3.9-.5 5.9-.8 2.3-.4 4.3-.8 4.8-.7.7.2 1.6 1.7 1.7 3.3v1a3 3 0 0 1-.5 2c-.9 1.1-2.4 2.8-3.6 3.9h.7l.1.1h.1c.8.3 1.2.4.6.6l-1.1.2c.2 0 1.3 0 1.3.4 0 .3-.3.3-.6.4h-.5c-.5.2-3.7 0-5-.5l-3.4-1.4-1.9-.8c-.8.1-2 .4-3.6 1-1.8.7-4.8 1.3-7.8 1.8-.8.3-1.5.8-2 1.4a101.6 101.6 0 0 0-10 14.9c-.8 2.8-1 7.7-1 12.5l.8-1.2v5c.3 5.7-2.9 12.5-3.3 12l-.3-.6c-.2.4-.4.6-.5.5-.2-.2-.5-1.2-1-2.6-.8-2.4-2-5.8-3-7.7a102.8 102.8 0 0 1-4.4-24.4c.3-3 2.6-5 6.3-7.6 2.3-1.5 3.6-3 4.4-4l-1-.5-1.3-.7-.7-.2c-.7 0-1.6 0-2-.5-.5.7-1.1 1.3-1.4 1.5a1.7 1.7 0 0 1-.3.3c-.1.1-.3.3-.3.5 0 .4-.4.5-.5-.5 0-.8 1.6-2.5 2.2-3.2v-.1s-.2-.8.8-2.4v-.2l1.4-1.6c1.2-1.3 3.3-2.2 5.4-2.8l2-.5-.2.9 3.2-.7-1.1-.3 1-1.1-1.2-.4Zm21.2 11.3c1 .4 1.9.9 2.4 1h2.3l-1.9-.5-2.2-.5h-.6Zm-17-10.3 1.7.5h-2.2l.4-.5Z" clip-rule="evenodd" opacity=".4"/>
  <path fill="#A9DAF5" d="m469 774 1 .7.4-1.4c3-6.7 6.8-10 11.4-10 5.7 0 11 1.9 16.2 5.5 5.4 3.7 8.1 7.9 8.1 12.5 0 2.2-.3 5.3-1.1 9.2 0 1.7.7 3.3 2.2 4.8 1.5 1.5 3 2.2 4.8 2.2 2.5 0 4.2-.5 5.1-1.5 1-1.2 2.6-1.8 4.8-1.8 1.5 0 4.2 1.7 8.1 5.1a27 27 0 0 0 7.4 5.2c2.2-2 5.4-3 9.5-3 4 0 7.7 1.3 11 3.7 3.5 2.2 5.2 4.5 5.2 7v1.1c-129-3.4-238-4.7-327-4-.2-1-.4-2-.4-3.3 0-7.4 3.8-11 11.4-11 5 .2 8.4 1 10.3 2.5h2.6a6.5 6.5 0 0 1-.4-3.7c.5-2 2.6-3 6.3-3 3.7 0 6.5.6 8.5 1.6v-4.5c-.3-2 .5-3 2.2-3 .5 0 1.3.3 2.5.8h.8c-.3-.6-.4-1.8-.4-3.7 0-11.2 5.1-16.9 15.4-16.9 12.8 0 20 4.3 21.4 12.9 1.5 8.3 3 12.5 4.8 12.5 1.4 0 3.2-.4 5.1-1.1 2-1 3-1.5 3.3-1.5.8 0 2.6.8 5.6 2.5 3.1 1.5 5.2 2.2 6.2 2.2 1.7 0 3.2-1.4 4.4-4.4 1-3.2 3-4.8 6-4.8 2.6 0 4.7.4 6.2 1.1v.8l1.1.7-1.1-1.5a98.5 98.5 0 0 1-5.2-12.8c0-3.7.3-6.2.8-7.4 1.4-3.4 4.9-5.1 10.3-5.1h1c.3-8.3 2.7-15.7 7-22.5a32 32 0 0 1 28.8-14.6 48 48 0 0 1 30.9 10.3c9 7 13.6 16.2 13.6 27.5 0 4.7-.5 9.6-1.5 14.7h.4c.7-1.5 1.5-2.7 2.2-3.7a9 9 0 0 1 6.6-2.5c5.6 0 11 1.8 16.2 5.5m-332.2 22.5c0-6 .2-9.9.7-11.3 1.7-4.2 5.9-6.3 12.5-6.3 10.8 0 17.2 2.3 19.1 7 1 2.4.9 5.6-.3 9.5h3.7c3.1-1.2 5.5-1.8 7-1.8 1.7 0 3.3 1.2 4.7 3.7 1.3 2.4 2.5 3.6 3.7 3.6 1.7 0 3.6-1 5.5-3 2-2.1 3.2-3.2 3.7-3.2.7 0 2.3.5 4.8 1.5 2.7 1 4.7 2 5.9 3.3 2.4 1.7 3.6 3.6 3.6 5.8l.4 4c-10.8.4-35.3.1-73.6-.7-1-2.9-1.4-7-1.4-12m-32-4.1c3 0 5.8 1 8.4 3.3a15 15 0 0 1 5.2 12.5L80.9 807a16 16 0 0 1-1.1-4.5c0-4.4 2.3-6.6 7-6.6A361 361 0 0 0 97 798c1.7 0 3.1-.9 4.4-2.6 1-2 2-3 3.3-3Z"/>
  <defs>
    <filter id="b" width="2093.1" height="1791" x="-853.5" y="-878.1" color-interpolation-filters="sRGB" filterUnits="userSpaceOnUse">
      <feFlood flood-opacity="0" result="BackgroundImageFix"/>
      <feBlend in="SourceGraphic" in2="BackgroundImageFix" result="shape"/>
      <feGaussianBlur result="effect1_foregroundBlur_6159_67070" stdDeviation="175"/>
    </filter>
    <filter id="c" width="2034.4" height="1756.8" x="620" y="-840.1" color-interpolation-filters="sRGB" filterUnits="userSpaceOnUse">
      <feFlood flood-opacity="0" result="BackgroundImageFix"/>
      <feBlend in="SourceGraphic" in2="BackgroundImageFix" result="shape"/>
      <feGaussianBlur result="effect1_foregroundBlur_6159_67070" stdDeviation="175"/>
    </filter>
    <filter id="d" width="1986" height="1020" x="-34" y="-329" color-interpolation-filters="sRGB" filterUnits="userSpaceOnUse">
      <feFlood flood-opacity="0" result="BackgroundImageFix"/>
      <feBlend in="SourceGraphic" in2="BackgroundImageFix" result="shape"/>
      <feGaussianBlur result="effect1_foregroundBlur_6159_67070" stdDeviation="175"/>
    </filter>
    <filter id="e" width="2171.1" height="2171.1" x="-130.9" y="-1349.5" color-interpolation-filters="sRGB" filterUnits="userSpaceOnUse">
      <feFlood flood-opacity="0" result="BackgroundImageFix"/>
      <feBlend in="SourceGraphic" in2="BackgroundImageFix" result="shape"/>
      <feGaussianBlur result="effect1_foregroundBlur_6159_67070" stdDeviation="126.8"/>
    </filter>
    <filter id="f" width="2008" height="2008" x="-49.3" y="-1268" color-interpolation-filters="sRGB" filterUnits="userSpaceOnUse">
      <feFlood flood-opacity="0" result="BackgroundImageFix"/>
      <feBlend in="SourceGraphic" in2="BackgroundImageFix" result="shape"/>
      <feGaussianBlur result="effect1_foregroundBlur_6159_67070" stdDeviation="126.8"/>
    </filter>
    <radialGradient id="g" cx="0" cy="0" r="1" gradientTransform="rotate(-32.9 30.6 -1747.6) scale(685.5)" gradientUnits="userSpaceOnUse">
      <stop offset=".8" stop-color="#BAE2FF"/>
      <stop offset="1" stop-color="#59B5FF"/>
    </radialGradient>
    <linearGradient id="a" x1="976.6" x2="967.6" y1="0" y2="1079.9" gradientUnits="userSpaceOnUse">
      <stop stop-color="#0045A2"/>
      <stop offset=".6" stop-color="#2FA5E6"/>
      <stop offset=".8" stop-color="#BCE2F9"/>
      <stop offset="1" stop-color="#EFF8FF"/>
    </linearGradient>
  </defs>
</svg>
