<svg width="170" height="347" viewBox="0 0 170 347" fill="none" xmlns="http://www.w3.org/2000/svg">
<path fill-rule="evenodd" clip-rule="evenodd" d="M53.5181 109.804L52.2021 110.555L48.815 112.498C47.8549 113.064 46.6036 112.34 46.636 111.216L46.9272 101.644C34.3495 106.001 7.21996 90.0908 1.52437 66.4589C-5.0989 38.9691 22.2895 26.6971 31.0594 27.0435C32.9795 27.1201 34.8349 27.3661 36.6364 27.76C36.9384 26.0836 37.3483 24.4177 37.8661 22.773C46.3771 -4.21709 76.3221 -1.1709 83.7112 3.50152C91.2514 8.28236 95.782 15.607 98.0365 23.2701C112.286 20.2159 126.363 28.1937 129.945 33.0407C141.821 49.0781 134.68 71.7025 125.91 80.5872C116.094 90.5323 95.2965 96.3048 85.7284 93.8879L86.4619 101.797C86.4943 102.151 86.4296 102.508 86.2785 102.833L86.1167 103.132C85.9765 103.331 85.8039 103.508 85.6097 103.653C85.3185 103.865 84.9841 104.002 84.6173 104.052C84.2614 104.103 83.8946 104.06 83.5602 103.933L80.1083 102.606C78.9433 107.81 76.6888 123.932 84.3692 152.26C84.9625 151.845 85.4803 151.856 85.7931 152.228C86.6561 153.27 97.9825 208.25 99.7732 209.725C106.752 199.807 114.551 196.665 121.876 200.658C126.288 203.054 128.737 207.258 129.373 211.92C129.373 211.92 131.671 219.451 133.051 221.619C134.421 223.782 137.15 232.165 137.15 232.165C137.15 232.165 134.713 230.803 132.48 229.378C135.317 234.703 147.862 245.97 147.862 245.97C147.862 245.97 143.558 244.016 138.51 241.449C134.249 239.286 129.448 236.686 126.234 234.46C127.14 235.885 129.039 237.591 130.916 239.082C133.494 241.126 136.061 242.773 136.061 242.773C136.061 242.773 123.969 239.505 117.335 234.108C127.162 245.092 153.04 274.248 152.468 276.009C151.799 278.141 144.345 274.439 141.109 270.983C137.873 267.505 140.214 266.876 140.214 266.876L115.199 247.226C115.468 248.128 116.159 249.466 116.871 250.838C118.187 253.385 119.567 256.05 118.392 256.233L113.591 257.018C113.591 257.018 117.464 271.739 134.13 287.871C128.985 293.327 127.679 293.522 127.679 293.522C127.679 293.522 144.184 299.734 148.38 305.599C149.34 306.937 150.429 308.486 151.54 310.081L155.111 315.245C157.441 318.656 159.253 321.353 159.253 321.353C159.253 321.353 160.828 321.065 162.425 321.046C163.848 321.031 165.294 321.232 165.65 322.046C166.416 323.773 166.642 327.602 168.465 331.613C169.544 334.001 169.749 337.089 169.22 339.419C169.091 340.006 168.908 340.543 168.692 341.011C168.314 341.809 167.807 342.399 167.193 342.663C167.031 342.732 166.858 342.743 166.675 342.703C165.553 342.454 164.086 340.191 162.284 337.414C160.17 334.154 157.592 330.185 154.572 327.943C154.884 330.143 155.24 332.205 155.586 334.101L156.179 337.221C157.182 342.491 157.851 345.995 156.664 346.931C155.747 347.632 152.565 342.878 148.844 337.306C145.208 331.869 141.055 325.653 137.97 322.956C131.735 317.524 121.304 309.396 121.304 309.396L119.977 308.703L118.208 307.82C117.399 307.423 116.526 307.008 115.706 306.643C115.199 306.416 114.713 306.207 114.271 306.035C111.833 305.088 109.6 302.346 107.961 299.784C106.235 297.087 105.145 294.588 105.145 294.588L97.4432 291.1C97.4432 291.1 74.0136 254.006 85.7931 227.297L90.8091 220.207C90.8091 220.207 83.9054 186.379 83.7436 176.175C83.6788 171.928 83.6788 169.178 83.6896 167.414C83.7112 164.942 83.7759 164.408 83.7759 164.408C83.7759 164.408 82.8159 164.225 82.0176 163.371C81.2302 162.528 80.6045 161.031 81.2194 158.416L81.3381 157.932L81.4783 157.416L81.7372 156.581L81.0037 155.182L53.5181 109.804ZM60.012 88.8744C57.6604 93.2612 54.942 96.8336 52.2668 98.8168L59.0519 103.151C59.1922 103.238 59.3108 103.341 59.4187 103.455C59.5589 103.595 59.6776 103.754 59.7639 103.928C59.9365 104.243 60.012 104.595 60.012 104.949C60.012 105.084 59.9904 105.219 59.958 105.348C59.9041 105.562 59.8286 105.766 59.7099 105.956C59.5266 106.263 59.2569 106.517 58.9441 106.694L56.0747 108.336L69.4183 130.358C60.7671 108.979 59.4834 96.0641 60.012 88.8744ZM76.2897 101.141L77.3037 101.533C76.1279 106.297 73.8302 120.674 79.7847 146.226C62.0615 110.052 62.137 92.6451 63.3775 86.0609L66.5382 86.0741C66.8941 86.0715 67.2501 85.9789 67.5629 85.807C67.6816 85.7436 67.7895 85.6695 67.8866 85.5876L68.1347 85.3654L68.3396 85.0852C68.4151 84.9662 68.4798 84.8392 68.5338 84.707C68.6093 84.5087 68.6524 84.2998 68.6632 84.0883C68.6848 83.7366 68.6093 83.3822 68.4583 83.0649L65.0172 76.2348L65.1251 75.9069C66.1175 75.7747 67.1854 75.5261 68.3073 75.1718C69.1379 74.9127 70.0008 74.5953 70.8746 74.2278C71.4787 77.5728 72.4063 80.6507 73.6145 83.3029C74.8011 85.9102 76.2465 88.1102 77.9078 89.747C78.6197 90.4504 79.3748 91.0506 80.1623 91.5345L72.2985 97.2488C72.0827 97.3995 71.9101 97.6058 71.813 97.8411L71.7375 98.0236L71.716 98.1981C71.6944 98.3276 71.6944 98.4599 71.716 98.5921C71.7483 98.8459 71.8562 99.0865 72.018 99.2875C72.1798 99.4858 72.4063 99.6392 72.6437 99.7265L76.2897 101.141Z" fill="white"/>
</svg>
