<svg width="200" height="53" viewBox="0 0 200 53" fill="none" xmlns="http://www.w3.org/2000/svg">
<path d="M2.39174 39.8151C3.36207 39.6885 4.3324 39.5831 5.30273 39.4987C6.27306 39.3721 7.2434 39.2456 8.21373 39.119C7.53872 35.8283 7.36996 32.7697 7.70747 29.943C8.08716 27.1164 8.71999 24.3742 9.60594 21.7163C10.3231 19.6069 11.1036 17.5608 11.9474 15.5779C12.8334 13.5951 13.6982 11.57 14.542 9.50279C14.6685 9.24965 14.8162 8.99652 14.985 8.74339C15.1537 8.44808 15.3857 8.25823 15.6811 8.17385C16.0186 8.08948 16.3772 8.08948 16.7569 8.17385C17.1366 8.25823 17.5163 8.32151 17.896 8.3637C17.9381 8.70121 18.0225 9.05981 18.1491 9.4395C18.2756 9.81919 18.2967 10.1567 18.2124 10.452C17.6217 11.7177 16.9889 12.9622 16.3139 14.1857C15.6811 15.367 15.1115 16.6115 14.6053 17.9194C13.4662 20.8725 12.4958 23.889 11.6943 26.9688C10.8927 30.0485 10.3442 33.2759 10.0489 36.651C10.0489 36.8619 10.07 37.1151 10.1122 37.4104C10.1544 37.7057 10.1966 38.0432 10.2388 38.4229C11.5466 38.4229 13.1076 38.1276 14.9217 37.5369C16.7358 36.9463 18.6343 36.1447 20.6171 35.1322C22.6421 34.0775 24.6461 32.854 26.6289 31.4618C28.654 30.0274 30.4892 28.5086 32.1345 26.9055C33.8221 25.2601 35.2354 23.5515 36.3744 21.7796C37.5135 20.0077 38.2307 18.2358 38.5261 16.4639C38.8214 14.6498 38.5893 12.8989 37.8299 11.2114C37.0706 9.48169 35.6151 7.87853 33.4635 6.40194C31.1009 4.79878 28.7805 3.72298 26.5024 3.17453C24.2242 2.5839 21.946 2.41514 19.6679 2.66827C16.5459 3.00578 13.8037 3.84955 11.4411 5.19957C9.12078 6.50741 6.99027 8.08948 5.0496 9.94576C4.75428 10.2411 4.50115 10.5575 4.29021 10.895C4.07927 11.2325 3.84724 11.5489 3.59411 11.8442C2.79253 12.3927 1.88548 12.2661 0.872957 11.4645C0.408885 10.9583 0.197944 10.5153 0.240132 10.1356C0.28232 9.75591 0.429979 9.39731 0.683109 9.05981C2.41283 7.03477 4.37459 5.34723 6.56838 3.99721C8.76218 2.60499 11.3146 1.61357 14.2256 1.02293C16.2084 0.643233 18.2124 0.453385 20.2374 0.453385C22.2624 0.411195 24.4351 0.833078 26.7555 1.71903C27.9368 2.18311 29.1181 2.68937 30.2993 3.23781C31.4806 3.78626 32.5986 4.44018 33.6533 5.19957C34.7502 5.91678 35.7416 6.76054 36.6276 7.73088C37.5557 8.65902 38.3573 9.73482 39.0323 10.9583C40.087 12.8568 40.6144 14.6709 40.6144 16.4006C40.6566 18.0881 40.4034 19.6913 39.855 21.2101C39.1378 23.2773 38.1253 25.1336 36.8174 26.7789C35.5096 28.3821 34.0963 29.8587 32.5775 31.2087C31.1431 32.4321 29.329 33.6978 27.1352 35.0056C24.9414 36.3135 22.6 37.4948 20.1108 38.5495C17.6639 39.562 15.217 40.3636 12.7701 40.9542C10.3231 41.5448 8.15045 41.7136 6.25197 41.4605C5.87228 41.3761 5.49258 41.3128 5.11289 41.2706C4.77538 41.2284 4.43787 41.1651 4.10037 41.0808C3.76286 40.9542 3.42535 40.8065 3.08785 40.6378C2.79253 40.469 2.5183 40.3003 2.26517 40.1315C2.30736 40.0893 2.32845 40.0471 2.32845 40.005C2.32845 39.9628 2.34955 39.8995 2.39174 39.8151ZM42.8218 26.7789C43.2859 26.4836 43.75 26.1672 44.2141 25.8297C44.7203 25.4922 45.2477 25.2179 45.7961 25.007C46.3024 24.7117 46.8086 24.564 47.3149 24.564C47.8212 24.564 48.2852 24.6695 48.7071 24.8804C49.129 25.0914 49.4665 25.4078 49.7196 25.8297C49.9728 26.2094 50.0782 26.6734 50.0361 27.2219C50.0361 27.3906 49.8673 27.686 49.5298 28.1078C49.2345 28.5297 49.0024 28.825 48.8337 28.9938C48.0321 27.9813 47.2938 27.3695 46.6188 27.1586C45.9438 26.9477 45.311 27.0109 44.7203 27.3485C44.1719 27.686 43.6656 28.2555 43.2015 29.0571C42.7375 29.8165 42.3367 30.6602 41.9992 31.5884C41.6617 32.4743 41.3874 33.3814 41.1765 34.3095C41.0077 35.2377 40.9023 36.0393 40.8601 36.7143C40.8601 36.8408 40.839 36.9252 40.7968 36.9674C39.953 37.1783 39.4046 37.1783 39.1515 36.9674C38.8561 36.7143 38.7507 36.1869 38.835 35.3853C39.1726 33.74 39.489 32.1157 39.7843 30.5126C40.0796 28.9094 40.3538 27.2852 40.607 25.6398C40.6913 25.3445 40.7546 25.0281 40.7968 24.6906C40.839 24.3531 41.1765 24.1843 41.8093 24.1843C42.2734 24.1843 42.632 24.2898 42.8851 24.5007C43.1383 24.6695 43.2015 24.9859 43.075 25.45C42.9906 25.7031 42.9273 25.9351 42.8851 26.1461C42.8851 26.357 42.864 26.568 42.8218 26.7789ZM53.432 31.3985C53.1367 32.7907 53.1367 33.7822 53.432 34.3728C53.7274 34.9213 54.1703 35.2166 54.761 35.2588C55.3516 35.301 56.0266 35.1322 56.786 34.7525C57.5876 34.3728 58.347 33.9087 59.0642 33.3603C59.7814 32.8118 60.3931 32.2423 60.8994 31.6517C61.4478 31.061 61.7853 30.5759 61.9119 30.1962C62.2072 30.5337 62.3338 30.8712 62.2916 31.2087C62.2916 31.5462 62.1861 31.9048 61.9752 32.2845C61.7642 32.6642 61.4689 33.0439 61.0892 33.4236C60.7517 33.8033 60.372 34.183 59.9501 34.5627C59.1064 35.3221 58.0939 35.9549 56.9126 36.4611C55.7735 36.9674 54.7188 37.1994 53.7485 37.1572C52.7781 37.0729 51.9976 36.6299 51.407 35.8283C50.8164 35.0267 50.6476 33.6978 50.9007 31.8415C51.1539 29.9852 51.7656 28.6352 52.7359 27.7914C53.7063 26.9055 54.8032 26.4203 56.0266 26.3359C57.2079 26.2937 58.0728 26.4414 58.6212 26.7789C59.2119 27.1164 59.5283 27.5383 59.5705 28.0446C59.6548 28.5508 59.5283 29.0993 59.1908 29.6899C58.8533 30.2384 58.3892 30.7235 57.7985 31.1454C57.2079 31.5251 56.5329 31.7782 55.7735 31.9048C55.0141 31.9892 54.2336 31.8204 53.432 31.3985ZM53.6852 30.0063C54.1071 30.1329 54.5922 30.1329 55.1407 30.0063C55.7313 29.8798 56.2376 29.6899 56.6595 29.4368C57.1235 29.1836 57.461 28.9305 57.672 28.6774C57.8829 28.3821 57.8618 28.1289 57.6087 27.918C56.6806 27.8336 55.9001 27.9813 55.2672 28.361C54.6766 28.7407 54.1493 29.2891 53.6852 30.0063ZM69.7026 36.7143C71.0104 35.8283 72.0862 34.8158 72.93 33.6767C73.7738 32.4954 74.6175 31.3353 75.4613 30.1962C75.5457 30.2384 75.6089 30.3016 75.6511 30.386C75.7355 30.4282 75.7566 30.4704 75.7144 30.5126C75.2503 31.4829 74.7652 32.4954 74.2589 33.5501C73.7948 34.5627 73.2886 35.5541 72.7401 36.5244C72.4026 37.1151 71.9386 37.558 71.3479 37.8534C70.7573 38.1065 70.1245 38.1487 69.4494 37.9799C68.7744 37.8534 68.2471 37.5369 67.8674 37.0307C67.4877 36.5244 67.2135 35.9127 67.0447 35.1955C66.7072 35.4064 66.3908 35.6174 66.0955 35.8283C65.8002 36.0393 65.4837 36.208 65.1462 36.3346C64.5134 36.5877 63.8806 36.6721 63.2478 36.5877C62.6149 36.5033 62.0454 36.208 61.5391 35.7017C61.0329 35.1111 60.7376 34.4783 60.6532 33.8033C60.5688 33.0861 60.6532 32.4111 60.9063 31.7782C61.2438 30.9345 61.6446 30.0907 62.1087 29.2469C62.6149 28.4032 63.1634 27.6016 63.754 26.8422C64.429 25.9562 65.2939 25.4711 66.3486 25.3867C67.4033 25.3023 68.3947 25.5554 69.3229 26.1461C70.1666 26.6945 70.6307 27.3063 70.7151 27.9813C70.7995 28.6563 70.6307 29.6266 70.2088 30.8923C69.9979 31.6095 69.8291 32.3478 69.7026 33.1072C69.6182 33.8666 69.5127 34.6259 69.3862 35.3853C69.344 35.5541 69.3651 35.7439 69.4494 35.9549C69.5338 36.1236 69.6182 36.3768 69.7026 36.7143ZM63.6907 34.3095C64.197 34.1408 64.7033 33.7822 65.2095 33.2337C65.758 32.6431 66.2431 32.0103 66.665 31.3353C67.0869 30.6181 67.4244 29.9008 67.6775 29.1836C67.9729 28.4664 68.0994 27.8336 68.0572 27.2852C67.4244 27.4117 66.8127 27.7281 66.222 28.2344C65.6314 28.6985 65.1251 29.268 64.7033 29.943C64.3236 30.6181 64.0282 31.3353 63.8173 32.0946C63.6064 32.854 63.5642 33.5923 63.6907 34.3095ZM76.717 36.9041C76.5061 36.9885 76.2108 37.094 75.8311 37.2205C75.4936 37.3049 75.2405 37.2838 75.0717 37.1572C74.8186 36.9463 74.5865 36.651 74.3756 36.2713C74.1225 35.8916 74.0381 35.5541 74.1225 35.2588C74.46 33.529 74.8397 31.8204 75.2615 30.1329C75.6834 28.4454 76.0842 26.7367 76.4639 25.007C76.8014 23.7835 77.7928 23.657 79.4382 24.6273C79.2694 25.2179 79.1218 25.8297 78.9952 26.4625C78.9108 27.0531 78.7843 27.7281 78.6155 28.4875C79.1218 27.8969 79.628 27.4117 80.1343 27.032C80.6827 26.6102 81.421 26.5891 82.3492 26.9688C83.0242 27.3063 83.5305 27.7492 83.868 28.2977C84.2477 28.804 84.4797 29.4157 84.5641 30.1329C84.986 29.5844 85.3867 29.0571 85.7664 28.5508C86.1883 28.0024 86.6102 27.475 87.0321 26.9688C87.6227 26.3781 88.2134 25.8086 88.804 25.2601C89.3946 24.7117 90.2384 24.5007 91.3353 24.6273C92.2213 24.7961 92.9385 25.2179 93.4869 25.893C94.0354 26.5258 94.2252 27.2219 94.0565 27.9813C93.8877 28.825 93.6346 29.8376 93.2971 31.0188C92.9596 32.2001 92.7486 33.2126 92.6642 34.0564C92.5799 34.647 92.6431 35.0056 92.8541 35.1322C93.065 35.2588 93.3603 35.2377 93.74 35.0689C94.1197 34.9002 94.5627 34.6048 95.069 34.183C95.5752 33.7611 96.0815 33.3181 96.5878 32.854C97.094 32.3478 97.5792 31.8626 98.0433 31.3985C98.5073 30.8923 98.887 30.4915 99.1823 30.1962C99.098 31.0399 98.8448 31.8837 98.4229 32.7275C98.0433 33.529 97.5792 34.2673 97.0307 34.9424C96.4823 35.5752 95.9127 36.1025 95.3221 36.5244C94.7315 36.9041 94.2252 37.0518 93.8033 36.9674C92.9596 36.8408 92.2845 36.5666 91.7783 36.1447C91.3142 35.6807 90.9556 35.1322 90.7025 34.4994C90.4915 33.8666 90.3861 33.1704 90.3861 32.4111C90.4283 31.6517 90.5548 30.8923 90.7658 30.1329C91.0189 29.1626 91.1666 28.3188 91.2087 27.6016C91.2931 26.8844 91.2509 26.3992 91.0822 26.1461C90.9134 25.893 90.597 25.9351 90.1329 26.2727C89.7111 26.568 89.1204 27.2852 88.361 28.4243C87.9391 29.0571 87.5594 29.6899 87.2219 30.3227C86.8844 30.9556 86.5469 31.6095 86.2094 32.2845C85.7875 33.2548 84.9016 33.529 83.5516 33.1072C82.8344 32.8962 82.4125 32.5587 82.2859 32.0946C82.1593 31.6306 82.0328 31.1665 81.9062 30.7024C81.6109 29.8587 81.3367 29.3946 81.0835 29.3102C80.8304 29.1836 80.5562 29.3102 80.2609 29.6899C80.0077 30.0696 79.7546 30.6181 79.5015 31.3353C79.2483 32.0103 78.9741 32.7275 78.6788 33.4869C78.3835 34.2041 78.0671 34.9002 77.7296 35.5752C77.4342 36.208 77.0967 36.651 76.717 36.9041ZM126.211 27.3485C126.675 27.9813 126.844 28.5086 126.718 28.9305C126.633 29.3524 126.401 29.7954 126.022 30.2594C123.279 33.4658 120.242 36.1658 116.909 38.3596C115.306 39.4565 113.639 40.4479 111.91 41.3339C110.222 42.1777 108.302 42.5363 106.151 42.4097C104.843 42.3253 103.725 41.9667 102.797 41.3339C101.869 40.7011 101.109 39.8362 100.519 38.7393C99.5062 37.0096 99.0843 34.9002 99.253 32.4111C99.4218 29.8798 99.9702 27.243 100.898 24.5007C101.869 21.7163 103.134 18.953 104.695 16.2107C106.298 13.4263 108.028 10.9161 109.885 8.68011C111.783 6.44413 113.724 4.60894 115.706 3.17453C117.689 1.69794 119.567 0.896361 121.339 0.769798C122.731 0.68542 124.081 0.854173 125.389 1.27606C126.697 1.69794 127.772 2.5839 128.616 3.93392C128.996 4.69331 129.207 5.49489 129.249 6.33866C129.333 7.14024 129.207 7.85744 128.869 8.49026C128.279 9.54497 127.604 10.5364 126.844 11.4645C126.085 12.3927 125.304 13.3419 124.503 14.3123C124.207 14.6919 123.849 14.8818 123.427 14.8818C123.047 14.8818 122.668 14.6919 122.288 14.3123C122.794 13.6372 123.321 12.9833 123.87 12.3505C124.418 11.6755 124.946 10.9794 125.452 10.2622C126.169 9.29184 126.528 8.23713 126.528 7.09805C126.57 5.95896 126.338 4.98863 125.832 4.18705C125.368 3.34328 124.672 2.79484 123.743 2.54171C122.815 2.24639 121.739 2.45733 120.516 3.17453C119.799 3.55423 119.103 3.95502 118.428 4.3769C117.753 4.7566 117.12 5.17848 116.529 5.64255C113.196 8.25823 110.433 11.4856 108.239 15.3248C107.522 16.5482 106.826 17.8139 106.151 19.1217C105.476 20.4296 104.843 21.7585 104.252 23.1085C103.324 24.9226 102.607 26.8 102.101 28.7407C101.637 30.6391 101.341 32.6009 101.215 34.6259C101.13 35.7228 101.299 36.7354 101.721 37.6635C102.185 38.5916 102.818 39.3932 103.62 40.0682C103.957 40.3214 104.379 40.5112 104.885 40.6378C105.391 40.7222 105.877 40.7222 106.341 40.6378C107.817 40.4268 109.231 40.005 110.581 39.3721C111.973 38.7393 113.281 37.9799 114.504 37.094C115.939 36.0393 117.352 34.9845 118.744 33.9298C120.136 32.8329 121.528 31.736 122.921 30.6391C123.511 30.1329 124.06 29.6055 124.566 29.0571C125.114 28.5086 125.663 27.9391 126.211 27.3485ZM131.009 26.7789C131.474 26.4836 131.938 26.1672 132.402 25.8297C132.908 25.4922 133.435 25.2179 133.984 25.007C134.49 24.7117 134.996 24.564 135.503 24.564C136.009 24.564 136.473 24.6695 136.895 24.8804C137.317 25.0914 137.654 25.4078 137.907 25.8297C138.16 26.2094 138.266 26.6734 138.224 27.2219C138.224 27.3906 138.055 27.686 137.717 28.1078C137.422 28.5297 137.19 28.825 137.021 28.9938C136.22 27.9813 135.481 27.3695 134.806 27.1586C134.131 26.9477 133.499 27.0109 132.908 27.3485C132.36 27.686 131.853 28.2555 131.389 29.0571C130.925 29.8165 130.524 30.6602 130.187 31.5884C129.849 32.4743 129.575 33.3814 129.364 34.3095C129.195 35.2377 129.09 36.0393 129.048 36.7143C129.048 36.8408 129.027 36.9252 128.984 36.9674C128.141 37.1783 127.592 37.1783 127.339 36.9674C127.044 36.7143 126.938 36.1869 127.023 35.3853C127.36 33.74 127.677 32.1157 127.972 30.5126C128.267 28.9094 128.541 27.2852 128.795 25.6398C128.879 25.3445 128.942 25.0281 128.984 24.6906C129.027 24.3531 129.364 24.1843 129.997 24.1843C130.461 24.1843 130.82 24.2898 131.073 24.5007C131.326 24.6695 131.389 24.9859 131.263 25.45C131.178 25.7031 131.115 25.9351 131.073 26.1461C131.073 26.357 131.052 26.568 131.009 26.7789ZM147.632 36.7143C148.939 35.8283 150.015 34.8158 150.859 33.6767C151.703 32.4954 152.546 31.3353 153.39 30.1962C153.475 30.2384 153.538 30.3016 153.58 30.386C153.664 30.4282 153.686 30.4704 153.643 30.5126C153.179 31.4829 152.694 32.4954 152.188 33.5501C151.724 34.5627 151.218 35.5541 150.669 36.5244C150.332 37.1151 149.868 37.558 149.277 37.8534C148.686 38.1065 148.053 38.1487 147.378 37.9799C146.703 37.8534 146.176 37.5369 145.796 37.0307C145.417 36.5244 145.142 35.9127 144.974 35.1955C144.636 35.4064 144.32 35.6174 144.024 35.8283C143.729 36.0393 143.413 36.208 143.075 36.3346C142.442 36.5877 141.81 36.6721 141.177 36.5877C140.544 36.5033 139.974 36.208 139.468 35.7017C138.962 35.1111 138.667 34.4783 138.582 33.8033C138.498 33.0861 138.582 32.4111 138.835 31.7782C139.173 30.9345 139.574 30.0907 140.038 29.2469C140.544 28.4032 141.092 27.6016 141.683 26.8422C142.358 25.9562 143.223 25.4711 144.278 25.3867C145.332 25.3023 146.324 25.5554 147.252 26.1461C148.096 26.6945 148.56 27.3063 148.644 27.9813C148.728 28.6563 148.56 29.6266 148.138 30.8923C147.927 31.6095 147.758 32.3478 147.632 33.1072C147.547 33.8666 147.442 34.6259 147.315 35.3853C147.273 35.5541 147.294 35.7439 147.378 35.9549C147.463 36.1236 147.547 36.3768 147.632 36.7143ZM141.62 34.3095C142.126 34.1408 142.632 33.7822 143.138 33.2337C143.687 32.6431 144.172 32.0103 144.594 31.3353C145.016 30.6181 145.353 29.9008 145.606 29.1836C145.902 28.4664 146.028 27.8336 145.986 27.2852C145.353 27.4117 144.742 27.7281 144.151 28.2344C143.56 28.6985 143.054 29.268 142.632 29.943C142.253 30.6181 141.957 31.3353 141.746 32.0946C141.535 32.854 141.493 33.5923 141.62 34.3095ZM155.469 30.6391C156.65 30.5126 157.81 30.4071 158.949 30.3227C160.088 30.2384 161.206 30.1329 162.303 30.0063C163.063 29.9219 163.548 29.9641 163.759 30.1329C164.012 30.3016 164.181 30.5548 164.265 30.8923C164.223 30.9767 164.159 31.1032 164.075 31.272C163.991 31.4407 163.906 31.5462 163.822 31.5884C162.852 31.7993 161.881 31.9681 160.911 32.0946C159.941 32.2212 158.97 32.39 158 32.6009C158.084 32.7275 158.169 32.8751 158.253 33.0439C158.337 33.1704 158.464 33.3181 158.633 33.4869C159.519 34.3306 160.215 35.2588 160.721 36.2713C161.27 37.2416 161.649 38.212 161.86 39.1823C162.071 40.0261 162.156 40.8487 162.113 41.6503C162.113 42.4097 162.156 43.1902 162.24 43.9918C162.24 45.173 162.156 46.3121 161.987 47.409C161.818 48.5481 161.481 49.6028 160.974 50.5731C160.51 51.4169 159.877 52.0075 159.076 52.345C158.316 52.6826 157.43 52.6826 156.418 52.345C155.321 52.0497 154.456 51.5435 153.823 50.8263C153.233 50.1091 152.769 49.1598 152.431 47.9786C151.925 46.2066 151.672 44.5191 151.672 42.916C151.672 41.2706 151.777 39.6464 151.988 38.0432C152.326 34.5416 152.748 31.1243 153.254 27.7914C153.802 24.4586 154.498 21.189 155.342 17.9826C155.553 17.392 155.869 16.8225 156.291 16.274C156.502 15.8099 156.777 15.6412 157.114 15.7678C157.494 15.8521 157.916 15.9998 158.38 16.2107C158.844 16.4639 159.034 16.717 158.949 16.9701C158.907 17.2233 158.844 17.4975 158.759 17.7928C158.295 19.1006 157.852 20.4296 157.43 21.7796C157.051 23.0874 156.671 24.4164 156.291 25.7664C156.038 26.5258 155.869 27.3274 155.785 28.1711C155.743 28.9727 155.637 29.7954 155.469 30.6391ZM158.19 49.6239C159.371 47.8942 160.025 45.9957 160.152 43.9285C160.32 41.8191 160.025 39.5831 159.266 37.2205C158.675 35.1533 157.283 33.5501 155.089 32.4111C154.836 34.5627 154.562 36.651 154.266 38.676C153.971 40.6589 153.929 42.7894 154.14 45.0676C154.098 45.5316 154.161 46.2066 154.33 47.0926C154.541 47.9786 154.815 48.7801 155.152 49.4973C155.532 50.2145 155.975 50.6575 156.481 50.8263C156.987 51.0372 157.557 50.6364 158.19 49.6239ZM154.337 14.8185C153.915 14.7763 153.493 14.6498 153.071 14.4388C152.649 14.2279 152.311 13.8693 152.058 13.363H159.336C160.137 13.363 160.96 13.3841 161.804 13.4263C162.648 13.4685 163.407 13.4896 164.082 13.4896C164.757 13.4474 165.327 13.3208 165.791 13.1099C166.297 12.8989 166.613 12.5403 166.74 12.0341C167.077 10.4309 167.436 8.84886 167.816 7.2879C168.195 5.68474 168.596 4.08158 169.018 2.47843C169.102 2.30967 169.166 2.11982 169.208 1.90888C169.25 1.69794 169.334 1.52919 169.461 1.40262C169.588 1.27606 169.756 1.21277 169.967 1.21277C170.178 1.17059 170.474 1.25496 170.853 1.4659C171.528 1.80341 171.971 2.16201 172.182 2.54171C172.393 2.9214 172.393 3.44876 172.182 4.12377C171.802 5.72693 171.381 7.33009 170.917 8.93324C170.495 10.4942 170.157 12.0763 169.904 13.6794L198.887 14.3755C199.014 14.6287 199.077 14.8818 199.077 15.1349C198.023 15.1349 196.968 15.1349 195.913 15.1349C194.901 15.0927 193.888 15.0927 192.876 15.1349C190.977 15.1349 189.1 15.1349 187.243 15.1349C185.429 15.1349 183.573 15.156 181.675 15.1982C179.903 15.2404 178.131 15.2826 176.359 15.3248C174.587 15.3248 172.815 15.3248 171.043 15.3248C170.452 15.3248 169.988 15.3459 169.651 15.3881C169.356 15.4302 169.102 15.5357 168.891 15.7045C168.723 15.831 168.596 16.042 168.512 16.3373C168.427 16.5904 168.343 16.949 168.259 17.4131C168.048 18.5944 167.773 19.8178 167.436 21.0835C167.141 22.3069 166.845 23.5515 166.55 24.8172C166.255 26.0406 166.044 27.2852 165.917 28.5508C165.791 29.7743 165.833 30.9977 166.044 32.2212C166.381 33.8666 166.93 34.9845 167.689 35.5752C168.449 36.1236 169.271 36.2502 170.157 35.9549C171.043 35.6596 171.908 35.0056 172.752 33.9931C173.638 32.9806 174.355 31.736 174.903 30.2594C175.114 30.6813 175.241 31.1665 175.283 31.7149C175.367 32.2212 175.388 32.7486 175.346 33.297C175.346 33.8033 175.283 34.2884 175.156 34.7525C175.03 35.1744 174.861 35.533 174.65 35.8283C173.427 37.6002 171.655 38.3596 169.334 38.1065C168.786 38.0643 168.216 37.8955 167.626 37.6002C167.077 37.3049 166.55 36.9463 166.044 36.5244C165.58 36.0603 165.137 35.533 164.715 34.9424C164.335 34.3517 164.04 33.74 163.829 33.1072C163.407 31.8837 163.196 30.7235 163.196 29.6266C163.154 28.5297 163.217 27.4328 163.386 26.3359C163.723 24.5218 164.061 22.7288 164.398 20.9569C164.736 19.1428 165.095 17.2654 165.474 15.3248H162.816C161.424 15.2826 160.032 15.2193 158.64 15.1349C157.247 15.0506 155.813 14.9451 154.337 14.8185Z" fill="white"/>
</svg>
