<svg width="80" height="80" viewBox="0 0 80 80" fill="none" xmlns="http://www.w3.org/2000/svg">
<path d="M69.387 17.7784C69.3939 17.8206 69.3973 17.8661 69.3909 17.9141L64.3392 55.8008C64.3024 56.0741 64.051 56.3257 63.7777 56.3624L46.097 58.7198C44.2191 58.9703 42.3188 59.9571 40.8138 61.462C39.3087 62.9671 38.3221 64.8681 38.0716 66.7462L38.0482 66.8467C37.972 67.0787 37.7485 67.2756 37.5091 67.3077C37.2699 67.3394 37.0927 67.196 37.0765 66.9766L37.0804 66.878L37.1185 66.5284C37.265 64.7899 36.7518 63.2266 35.6732 62.1475C34.5223 60.9968 32.8205 60.4901 30.9427 60.7403L13.262 63.0977C13.0136 63.1308 12.8326 62.9749 12.8284 62.7413L11.7689 54.1641L14.0013 53.9005L17.8841 19.5274L17.9066 19.4258C17.9828 19.1937 18.206 18.9969 18.4456 18.9649L33.6009 16.9444C36.4115 16.5699 38.9585 17.3274 40.681 19.0499C41.7323 20.1015 42.4221 21.4617 42.7161 23.0001C43.4386 21.3259 44.5235 19.7289 45.8987 18.3536C48.1513 16.1012 50.9962 14.6249 53.8069 14.2501L67.1361 12.4727L68.3079 9.10944L69.387 17.7784Z" fill="#1E76E2"/>
<path fill-rule="evenodd" clip-rule="evenodd" d="M62.7767 47.2745L45.096 49.6319C43.0866 49.9 41.0531 50.9552 39.4427 52.5655C37.8322 54.176 36.7771 56.2102 36.5091 58.2198C36.777 56.2102 36.2357 54.3889 35.0042 53.1573C33.7727 51.9257 31.9514 51.3845 29.9417 51.6524L12.2611 54.0098L17.3128 16.1231L32.4671 14.1026C35.1466 13.7453 37.575 14.4674 39.2171 16.1094C40.859 17.7515 41.5812 20.1791 41.2239 22.8585C41.5812 20.1789 42.9877 17.4667 45.1351 15.3194C47.2824 13.1721 49.9947 11.7655 52.6741 11.4083L67.8284 9.38776L62.7767 47.2745ZM33.7435 42.751L19.2181 44.4083C18.8005 44.4561 18.4559 44.8249 18.4495 45.2325C18.4433 45.64 18.7772 45.9321 19.1946 45.8848L33.721 44.2276L33.7991 44.2149C34.1809 44.1334 34.4827 43.7845 34.4886 43.4024C34.4943 43.0204 34.2022 42.7397 33.8216 42.7452L33.7435 42.751ZM59.3812 39.751L44.8558 41.4083C44.4382 41.4561 44.0936 41.8249 44.0872 42.2325C44.081 42.6401 44.4149 42.9321 44.8323 42.8848L59.3587 41.2276L59.4368 41.2149C59.8186 41.1334 60.1204 40.7845 60.1263 40.4024C60.132 40.0204 59.8398 39.7397 59.4593 39.7452L59.3812 39.751ZM34.306 35.0928L19.7806 36.7501C19.3629 36.7979 19.0183 37.1676 19.012 37.5753C19.0058 37.9828 19.3397 38.2749 19.7571 38.2276L34.2835 36.5704L34.3616 36.5567C34.7433 36.4751 35.0452 36.1273 35.0511 35.7452C35.057 35.363 34.7647 35.0825 34.3841 35.088L34.306 35.0928ZM59.9427 32.0928L45.4173 33.7501C44.9997 33.7979 44.655 34.1676 44.6487 34.5753C44.6425 34.9828 44.9764 35.2749 45.3939 35.2276L59.9202 33.5704L59.9984 33.5567C60.38 33.4751 60.6819 33.1272 60.6878 32.7452C60.6937 32.363 60.4014 32.0825 60.0208 32.088L59.9427 32.0928ZM34.8704 27.4356L20.345 29.0928C19.9274 29.1406 19.5828 29.5103 19.5765 29.918C19.5704 30.3255 19.9042 30.6167 20.3216 30.5694L34.848 28.9122L34.9261 28.8995C35.3077 28.8179 35.6095 28.47 35.6155 28.088C35.6214 27.7058 35.3292 27.4252 34.9486 27.4307L34.8704 27.4356ZM60.5071 24.4356L45.9818 26.0928C45.5641 26.1406 45.2195 26.5103 45.2132 26.918C45.2071 27.3255 45.5409 27.6167 45.9583 27.5694L60.4847 25.9122L60.5628 25.8995C60.9444 25.8179 61.2462 25.4699 61.2523 25.088C61.2581 24.7058 60.9659 24.4253 60.5853 24.4307L60.5071 24.4356ZM35.4349 19.7784L20.9095 21.4356C20.492 21.4834 20.1475 21.8523 20.1409 22.2598C20.1347 22.6674 20.4686 22.9595 20.8861 22.9122L35.4124 21.255L35.4905 21.2423C35.8721 21.1607 36.1738 20.8127 36.18 20.4307C36.1859 20.0486 35.8937 19.768 35.513 19.7735L35.4349 19.7784ZM61.0716 16.7784L46.5462 18.4356C46.1287 18.4834 45.7842 18.8523 45.7777 19.2598C45.7714 19.6674 46.1053 19.9595 46.5228 19.9122L61.0491 18.255L61.1273 18.2423C61.5088 18.1607 61.8106 17.8126 61.8167 17.4307C61.8226 17.0486 61.5303 16.768 61.1497 16.7735L61.0716 16.7784Z" fill="#EFF8FF"/>
<path d="M36.0138 58.2852L36.0518 57.9359C36.1984 56.197 35.6862 54.6335 34.607 53.5543C33.456 52.4034 31.7543 51.8971 29.8761 52.1476L12.1957 54.505C11.922 54.5414 11.7297 54.3491 11.7662 54.0754L16.8177 16.189L16.8407 16.088C16.9169 15.8559 17.1398 15.6593 17.3794 15.6273L32.5343 13.6067C35.3452 13.2319 37.892 13.9892 39.6146 15.7118C40.6663 16.7635 41.3562 18.1232 41.6503 19.6619C42.3728 17.9877 43.4569 16.3914 44.8321 15.0161C47.0848 12.7635 49.9294 11.2874 52.7403 10.9125L67.8952 8.89188C68.1689 8.85545 68.3612 9.04773 68.3247 9.32141L63.2732 47.2078C63.2367 47.4815 62.9852 47.733 62.7115 47.7695L45.0311 50.1269C43.153 50.3773 41.2522 51.364 39.7471 52.869C38.242 54.3741 37.2555 56.2749 37.005 58.153L36.982 58.254C36.9059 58.4862 36.683 58.6827 36.4433 58.7147C36.2036 58.7467 36.026 58.6035 36.0101 58.3836L36.0138 58.2852ZM12.8235 53.4476L30.0083 51.1563C32.1493 50.8709 34.0892 51.448 35.4013 52.76C35.8764 53.2352 36.2538 53.7937 36.53 54.4132L40.7285 22.9243L40.7804 22.4496C40.9792 20.0907 40.2843 17.97 38.8204 16.5061C37.2589 14.9446 34.9501 14.2582 32.4022 14.5979L17.7428 16.5525L12.8235 53.4476ZM37.5215 54.2791C37.9757 53.5628 38.5188 52.8824 39.1397 52.2616C40.8555 50.5459 43.0223 49.4211 45.1632 49.1357L62.3481 46.8444L67.2674 9.94919L52.6081 11.9038C50.0601 12.2435 47.4815 13.5816 45.4395 15.6235C43.3976 17.6655 42.0595 20.2441 41.7198 22.7921L37.5215 54.2791Z" fill="#1E76E2"/>
</svg>
