<svg width="48" height="48" viewBox="0 0 49 49" fill="none" xmlns="http://www.w3.org/2000/svg">
<path d="M22.4964 25.0397H20.4464L21.4953 21.067L22.4964 25.0397Z" fill="#1E76E2"/>
<path fill-rule="evenodd" clip-rule="evenodd" d="M24.1387 2.26929C24.8487 2.2694 25.4244 2.84499 25.4244 3.555V10.8985H28.9342V6.95762C28.9342 6.24754 29.5098 5.67191 30.2199 5.67191C30.9299 5.67191 31.5056 6.24754 31.5056 6.95762V11.2258C34.349 12.034 36.5885 14.2721 37.3993 17.1144H41.6708C42.3808 17.1144 42.9565 17.6901 42.9565 18.4001C42.9563 19.1101 42.3807 19.6859 41.6708 19.6859H37.7291V23.1956H45.0734C45.7834 23.1956 46.3589 23.7714 46.3591 24.4813C46.3591 25.1914 45.7835 25.7671 45.0734 25.7671H37.7299L37.7291 25.7662V29.2174H41.6708C42.3808 29.2174 42.9564 29.7931 42.9565 30.5031C42.9565 31.2132 42.3808 31.7888 41.6708 31.7888H37.3993C36.5885 34.631 34.3489 36.8684 31.5056 37.6767V42.0427C31.5056 42.7528 30.9299 43.3284 30.2199 43.3284C29.5098 43.3284 28.9342 42.7528 28.9342 42.0427V38.0048H25.4194C25.4217 38.0367 25.4244 38.0693 25.4244 38.1019V45.4454C25.4242 46.1552 24.8485 46.731 24.1387 46.7311C23.4287 46.7311 22.8532 46.1552 22.853 45.4454V38.1019C22.853 38.0693 22.8556 38.0367 22.858 38.0048H19.4026V42.0427C19.4026 42.7528 18.827 43.3284 18.1169 43.3284C17.4068 43.3284 16.8312 42.7528 16.8312 42.0427V37.6725C13.9952 36.8606 11.7628 34.6258 10.9534 31.7888H6.65513C5.94505 31.7888 5.36942 31.2132 5.36942 30.5031C5.36946 29.7931 5.94508 29.2174 6.65513 29.2174H10.6228V25.7654C10.6139 25.7656 10.6049 25.7671 10.596 25.7671H3.25251C2.54243 25.7671 1.9668 25.1914 1.9668 24.4813C1.96695 23.7714 2.54253 23.1956 3.25251 23.1956H10.596C10.6049 23.1956 10.6139 23.1963 10.6228 23.1965V19.6859H6.65513C5.94517 19.6859 5.36961 19.1101 5.36942 18.4001C5.36942 17.6901 5.94505 17.1144 6.65513 17.1144H10.9534C11.7628 14.2773 13.9951 12.0418 16.8312 11.2299V6.95679C16.8314 6.24688 17.407 5.67108 18.1169 5.67107C18.8269 5.67107 19.4024 6.24688 19.4026 6.95679V10.8985H22.853V3.555C22.853 2.84492 23.4286 2.26929 24.1387 2.26929ZM19.7634 18.0318L16.1557 29.3145H19.3181L19.9852 27.1055H22.9886L23.6724 29.3145H26.8189L23.2271 18.0318H19.7634ZM27.7564 29.3145H30.8552V18.0318H27.7564V29.3145Z" fill="#1E76E2"/>
</svg>
