<svg width="80" height="80" viewBox="0 0 80 80" fill="none" xmlns="http://www.w3.org/2000/svg">
<path d="M47.3256 3.62091C47.5975 3.45091 47.9719 3.45091 48.3118 3.62091L57.5351 8.23435L66.7084 12.9766C67.0464 13.1513 67.2972 13.4693 67.369 13.8141L69.3159 23.1698L71.1112 32.5255C71.1774 32.8702 71.0538 33.1882 70.7856 33.363L63.5093 38.1052L56.1313 42.7186C55.8595 42.8886 55.485 42.8886 55.1451 42.7186L45.9218 38.1052L36.7485 33.363C36.4105 33.1882 36.1597 32.8702 36.0879 32.5255L34.141 23.1698L32.3457 13.8141C32.2795 13.4693 32.4031 13.1513 32.6713 12.9766L39.9476 8.23435L47.3256 3.62091Z" fill="#1E76E2"/>
<path fill-rule="evenodd" clip-rule="evenodd" d="M44.5702 5.41095C44.8421 5.24101 45.2167 5.24097 45.5566 5.41095L54.7792 10.0242L63.953 14.7664C64.2908 14.9411 64.5413 15.2589 64.6132 15.6033L66.5605 24.9598L68.3554 34.3152C68.4215 34.66 68.2983 34.9784 68.0302 35.1531L60.7538 39.8953L53.3759 44.5086C53.1041 44.6786 52.7294 44.6785 52.3896 44.5086L43.1659 39.8953L33.9931 35.1531C33.655 34.9784 33.4037 34.66 33.3319 34.3152L31.3857 24.9598L29.5898 15.6033C29.5238 15.2588 29.6479 14.9411 29.9159 14.7664L37.1923 10.0242L44.5702 5.41095ZM47.3818 14.5506C46.9848 14.2254 46.4474 14.2253 46.1806 14.5506L41.8319 19.8543C41.5653 20.1798 41.6704 20.7086 42.0673 21.034C42.4641 21.3592 43.0025 21.3589 43.2694 21.034L46.4521 17.1512L50.0019 34.9012C50.0939 35.3615 50.549 35.7342 51.0185 35.7342C51.4878 35.7341 51.7931 35.3615 51.7011 34.9012L48.1513 17.1512L52.8866 21.034C53.2835 21.359 53.8219 21.3591 54.0888 21.034C54.3555 20.7086 54.2502 20.1798 53.8534 19.8543L47.3818 14.5506Z" fill="#EDF8FF"/>
<path d="M44.5702 5.41095C44.8421 5.24101 45.2167 5.24097 45.5566 5.41095L54.7792 10.0242L63.953 14.7664C64.2908 14.9411 64.5413 15.2589 64.6132 15.6033L66.5605 24.9598L68.3554 34.3152L68.3714 34.4429C68.3884 34.737 68.2646 35.0002 68.0302 35.1531L60.7528 39.8945L53.3759 44.5086L53.2686 44.5637C53.047 44.6594 52.7776 44.6595 52.5177 44.5637L52.3896 44.5086L43.1659 39.8953L33.9931 35.1531C33.6973 35.0002 33.4682 34.7371 33.3675 34.4429L33.3319 34.3152L31.3857 24.9598L29.5898 15.6033C29.5319 15.3016 29.619 15.0206 29.8215 14.838L29.9159 14.7664L37.1923 10.0242L44.5702 5.41095ZM37.8556 10.8773L30.5915 15.6117L32.3865 24.9674L34.3306 34.3069L43.4886 39.0422L52.7119 43.655L60.077 39.0499L67.354 34.3069L65.5613 24.9674L63.615 15.6117L54.441 10.8697L45.2336 6.26362L37.8556 10.8773Z" fill="#1E76E2"/>
<path d="M25.738 34.0735C26.0098 33.9035 26.3843 33.9035 26.7242 34.0735L35.9475 38.687L45.1208 43.4292C45.4588 43.604 45.7096 43.922 45.7813 44.2667L47.7283 53.6224L49.5236 62.9781C49.5898 63.3229 49.4662 63.6408 49.198 63.8156L41.9217 68.5578L34.5437 73.1713C34.2718 73.3413 33.8974 73.3413 33.5575 73.1713L24.3342 68.5578L15.1609 63.8156C14.8229 63.6408 14.5721 63.3229 14.5003 62.9781L12.5534 53.6224L10.7581 44.2667C10.6919 43.922 10.8155 43.604 11.0837 43.4292L18.36 38.687L25.738 34.0735Z" fill="#1E76E2"/>
<path fill-rule="evenodd" clip-rule="evenodd" d="M23.1132 35.7605C23.385 35.5907 23.7589 35.5907 24.0986 35.7605L33.3222 40.3738L42.496 45.1159C42.8339 45.2907 43.0845 45.6092 43.1562 45.9538L45.1035 55.3093L46.8984 64.6648C46.9645 65.0095 46.8413 65.3279 46.5732 65.5027L39.2968 70.2448L31.9189 74.8581C31.6471 75.0281 31.2724 75.0281 30.9326 74.8581L21.7089 70.2448L12.5361 65.5027C12.1981 65.3279 11.9467 65.0095 11.875 64.6648L9.92867 55.3093L8.13277 45.9538C8.06661 45.6091 8.19081 45.2907 8.45894 45.1159L15.7353 40.3738L23.1132 35.7605ZM25.2783 44.656C24.8088 44.656 24.5026 45.0296 24.5947 45.49L28.1455 63.24L23.4101 59.3572C23.0132 59.032 22.4749 59.0321 22.208 59.3572C21.9413 59.6825 22.0467 60.2104 22.4433 60.5359L28.914 65.8405C29.3109 66.1658 29.8483 66.1657 30.1152 65.8405L34.4648 60.5359C34.7312 60.2104 34.6262 59.6825 34.2294 59.3572C33.8326 59.0318 33.2943 59.0322 33.0273 59.3572L29.8447 63.24L26.2939 45.49C26.2018 45.0297 25.7477 44.6561 25.2783 44.656Z" fill="#EDF8FF"/>
<path d="M23.1132 35.7605C23.385 35.5907 23.7589 35.5907 24.0986 35.7605L33.3222 40.3738L42.496 45.1159C42.8339 45.2907 43.0845 45.6092 43.1562 45.9538L45.1035 55.3093L46.8984 64.6648L46.9148 64.7926C46.9318 65.0867 46.8076 65.3497 46.5732 65.5027L39.2968 70.2448L31.9189 74.8581L31.812 74.9134C31.5904 75.0091 31.3209 75.0092 31.061 74.9134L30.9326 74.8581L21.7089 70.2448L12.5361 65.5027C12.2403 65.3498 12.0116 65.0868 11.9109 64.7926L11.875 64.6648L9.92867 55.3093L8.13277 45.9538C8.07487 45.6521 8.16242 45.3703 8.36491 45.1877L8.45894 45.1159L15.7353 40.3738L23.1132 35.7605ZM16.399 41.2271L9.13489 45.9614L10.9299 55.3172L12.8739 64.6566L22.0319 69.3919L31.2553 74.0047L38.6204 69.3996L45.8974 64.6566L44.1047 55.3172L42.1583 45.9614L32.9843 41.2194L23.777 36.6133L16.399 41.2271Z" fill="#1E76E2"/>
</svg>
