<svg width="48" height="48" viewBox="0 0 48 48" fill="none" xmlns="http://www.w3.org/2000/svg">
<path fill-rule="evenodd" clip-rule="evenodd" d="M29.8154 9.58594C37.7757 9.58594 44.2295 16.0397 44.2295 24C44.2292 31.96 37.7755 38.4131 29.8154 38.4131C21.8554 38.413 15.4026 31.96 15.4023 24C15.4023 16.0398 21.8553 9.58607 29.8154 9.58594ZM29.9326 15.7988C29.3803 15.7988 28.9326 16.2465 28.9326 16.7988V24.7969L34.6611 30.5254L34.7373 30.5938C35.1301 30.9139 35.7091 30.8914 36.0752 30.5254C36.4413 30.1593 36.4638 29.5803 36.1436 29.1875L36.0752 29.1113L30.9326 23.9688V16.7988C30.9326 16.2465 30.4849 15.7988 29.9326 15.7988Z" fill="#E0F2FF"/>
<path fill-rule="evenodd" clip-rule="evenodd" d="M29.8154 9.58594C37.7757 9.58594 44.2295 16.0397 44.2295 24C44.2292 31.96 37.7755 38.4131 29.8154 38.4131C21.8554 38.413 15.4026 31.96 15.4023 24C15.4023 16.0398 21.8553 9.58607 29.8154 9.58594ZM29.9326 15.7988C29.3803 15.7988 28.9326 16.2465 28.9326 16.7988V24.7969L34.6611 30.5254L34.7373 30.5938C35.1301 30.9139 35.7091 30.8914 36.0752 30.5254C36.4413 30.1593 36.4638 29.5803 36.1436 29.1875L36.0752 29.1113L30.9326 23.9688V16.7988C30.9326 16.2465 30.4849 15.7988 29.9326 15.7988Z" fill="#1E76E2"/>
<path d="M17.0537 9.38574L17.207 9.39355C17.9635 9.47032 18.5537 10.1091 18.5537 10.8857C18.5537 11.6624 17.9635 12.3012 17.207 12.3779L17.0537 12.3857H12.5029C11.6745 12.3857 11.0029 11.7142 11.0029 10.8857C11.0029 10.0573 11.6745 9.38574 12.5029 9.38574H17.0537Z" fill="#1E76E2"/>
<path d="M11.5273 15.9023L11.6807 15.9102C12.4368 15.9872 13.0273 16.6258 13.0273 17.4023C13.0273 18.1788 12.4368 18.8175 11.6807 18.8945L11.5273 18.9023H3.77344C2.94501 18.9023 2.27344 18.2308 2.27344 17.4023C2.27344 16.5739 2.94501 15.9023 3.77344 15.9023H11.5273Z" fill="#1E76E2"/>
<path d="M17.5107 36.2559L17.6641 36.2637C18.4202 36.3407 19.0107 36.9794 19.0107 37.7559C19.0107 38.5324 18.4202 39.171 17.6641 39.248L17.5107 39.2559H9.75684C8.92841 39.2559 8.25684 38.5843 8.25684 37.7559C8.25684 36.9274 8.92841 36.2559 9.75684 36.2559H17.5107Z" fill="#1E76E2"/>
<path d="M11.5264 26.1455L11.6797 26.1533C12.4362 26.23 13.0264 26.8688 13.0264 27.6455C13.0264 28.4223 12.4362 29.061 11.6797 29.1377L11.5264 29.1455H6.8916C6.06317 29.1455 5.3916 28.4739 5.3916 27.6455C5.3916 26.8171 6.06317 26.1455 6.8916 26.1455H11.5264Z" fill="#1E76E2"/>
</svg>
