<svg width="48" height="48" viewBox="0 0 49 49" fill="none" xmlns="http://www.w3.org/2000/svg">
<path d="M29.7955 36.5544C29.7955 38.1102 28.5346 39.372 26.9788 39.372H26.9897C26.9895 40.4158 26.1434 41.2618 25.0996 41.262H24.4986C23.4548 41.2618 22.6087 40.4158 22.6085 39.372H22.6194C21.0638 39.3718 19.8027 38.1101 19.8027 36.5544H29.7955Z" fill="#1E76E2"/>
<path d="M28.9701 32.7701C29.5666 32.7702 30.0498 33.2535 30.0499 33.8499C30.0499 34.4465 29.5667 34.9304 28.9701 34.9306H20.6281C20.0315 34.9306 19.5474 34.4465 19.5474 33.8499C19.5476 33.2535 20.0316 32.7701 20.6281 32.7701H28.9701Z" fill="#1E76E2"/>
<path fill-rule="evenodd" clip-rule="evenodd" d="M24.8276 7.73804C31.0262 7.73815 36.0516 12.7634 36.0516 18.9621C36.0516 22.245 34.6405 25.1974 32.3937 27.2498L29.8331 31.1454H19.6839L16.9953 26.9978C14.904 24.9592 13.6036 22.1132 13.6035 18.9621C13.6035 12.7633 18.6288 7.73804 24.8276 7.73804ZM24.1403 11.1951C23.9767 10.5041 23.2836 10.0764 22.5926 10.24C21.7951 10.4289 20.0682 11.1449 18.4927 12.6373C17.5953 13.4875 17.0292 14.5808 16.6789 15.5327C16.3267 16.4897 16.1558 17.4041 16.108 17.997C16.0512 18.7045 16.579 19.3244 17.2866 19.3815C17.9941 19.4383 18.6139 18.9104 18.671 18.2029C18.7003 17.8407 18.8214 17.1562 19.0921 16.4208C19.3648 15.6798 19.7532 14.9846 20.2606 14.5039C21.4947 13.3348 22.812 12.8312 23.1853 12.7428C23.8761 12.5792 24.3038 11.8859 24.1403 11.1951Z" fill="#1E76E2"/>
</svg>
