<svg width="80" height="80" viewBox="0 0 80 80" fill="none" xmlns="http://www.w3.org/2000/svg">
<path d="M43.6074 11.3662L53.1621 17.1074L64.8525 24.4141L63.3662 38.8291L61.6494 53.2432L48.335 60.5498L37.5049 66.291L39.0723 67.6572H34.9297L34.9277 67.6582L23.0996 60.5498L11.4092 53.2432L12.8955 38.8291L14.6123 24.4141L27.9268 17.1074L41.334 10H45.4785L43.6074 11.3662Z" fill="#1E76E2"/>
<path d="M50.2373 47.8115C50.2838 47.8955 50.3369 47.9759 50.3984 48.0498L52.623 50.7227H30.542L33.3623 48.0479C33.4393 47.9748 33.5088 47.8944 33.5732 47.8115H50.2373Z" fill="#EDF8FF"/>
<path d="M49.293 41.8477L49.9209 46.3203H34.2227L35.8447 41.8477H49.293Z" fill="#EDF8FF"/>
<path d="M46.9111 24.876L49.084 40.3574H36.3848L39.6611 31.3242C40.0704 30.1952 39.333 29.1017 38.1621 29.1016H35.8428L39.9658 24.876H46.9111Z" fill="#EDF8FF"/>
<path fill-rule="evenodd" clip-rule="evenodd" d="M57.3057 17.1084L68.9961 24.4141L67.5098 38.8291L65.793 53.2432L52.4785 60.5498L39.0723 67.6572L27.2432 60.5498L15.5527 53.2432L17.0391 38.8291L18.7559 24.4141L32.0703 17.1084L45.4785 10L57.3057 17.1084ZM39.5811 23.3848L39.5156 23.3916C39.4513 23.4053 39.39 23.4391 39.3418 23.4883L32.8896 30.1006C32.7254 30.2696 32.7848 30.519 32.9736 30.5791L33.0625 30.5928H37.9961L38.0664 30.6006C38.2196 30.6381 38.3057 30.7983 38.2461 30.9629L32.4678 46.8965L32.4326 46.9658C32.4181 46.9879 32.4013 47.0089 32.3818 47.0273L27.6885 51.4785L27.4443 51.7109C27.2688 51.8774 27.3234 52.1367 27.5156 52.1992L27.6064 52.2129H55.2285L55.3213 52.1992C55.5275 52.1369 55.6411 51.8775 55.5029 51.7109L51.6055 47.0293C51.575 46.9924 51.5548 46.9473 51.5479 46.8984L48.2793 23.6113C48.263 23.4953 48.1768 23.4084 48.0635 23.3887L48.0137 23.3848H39.5811Z" fill="#EDF8FF"/>
<path d="M57.3057 17.1084L68.9961 24.4141L67.5098 38.8291L65.793 53.2432L52.4785 60.5498L39.071 67.6579L27.2432 60.5498L15.5527 53.2432L17.0391 38.8291L18.7559 24.4141L32.0703 17.1084L45.4774 10L57.3057 17.1084ZM32.4675 17.9724L19.6874 24.9849L18.038 38.8362L16.6111 52.672L27.8319 59.6845L39.198 66.5145L52.0819 59.6845L64.8601 52.672L66.5087 38.8362L67.9364 24.9849L56.7166 17.9724L45.3505 11.1424L32.4675 17.9724Z" fill="#1E76E2"/>
</svg>
