<svg width="80" height="80" viewBox="0 0 80 80" fill="none" xmlns="http://www.w3.org/2000/svg">
<path d="M16.1761 16.459H23.1126C23.6646 16.4594 24.1423 16.9062 24.179 17.457L24.5599 23.1641C24.5679 23.2842 24.5977 23.3992 24.6438 23.5059C24.7614 23.7773 24.9896 23.9931 25.2669 24.0957C25.3187 24.1149 25.3722 24.1308 25.427 24.1416C25.4588 24.1479 25.4912 24.153 25.5237 24.1562L25.6263 24.1611H31.2718L31.3743 24.1562C31.4221 24.1513 31.4689 24.1423 31.514 24.1309C31.6391 24.099 31.7523 24.0421 31.8499 23.9668C31.9294 23.9054 31.9987 23.832 32.054 23.748C32.1463 23.6081 32.2021 23.4413 32.2073 23.2598L32.2054 23.1641L31.8245 17.457C31.8224 17.4249 31.8226 17.3927 31.8235 17.3613V17.3545C31.8239 17.344 31.8248 17.3336 31.8255 17.3232C31.8313 17.2369 31.8482 17.1541 31.8753 17.0762C31.8781 17.068 31.881 17.0598 31.8841 17.0518C31.9036 17.0002 31.9274 16.9508 31.9554 16.9043C31.9591 16.8981 31.9632 16.8919 31.9671 16.8857C31.978 16.8685 31.9893 16.8513 32.0013 16.835C32.0075 16.8264 32.0142 16.8179 32.0208 16.8096C32.0342 16.7926 32.0482 16.7758 32.0628 16.7598C32.0685 16.7535 32.0745 16.7473 32.0804 16.7412C32.0941 16.727 32.1087 16.7135 32.1233 16.7002C32.1314 16.6928 32.1394 16.6848 32.1478 16.6777C32.1622 16.6655 32.1775 16.6539 32.1927 16.6426C32.1954 16.6405 32.1977 16.6378 32.2005 16.6357L33.8548 14.8643L35.1399 14.7617L35.2728 16.459H43.5022L43.6058 16.4639C44.113 16.5154 44.5352 16.9407 44.5696 17.457L44.9495 23.1641C44.9541 23.2323 44.9653 23.2989 44.9827 23.3633C44.996 23.4123 45.0135 23.4598 45.0335 23.5059C45.1514 23.7782 45.381 23.9944 45.6595 24.0967C45.7101 24.1153 45.7623 24.131 45.8157 24.1416C45.8807 24.1545 45.9479 24.1611 46.0159 24.1611H51.6624C51.8853 24.161 52.0854 24.087 52.2435 23.9639C52.3187 23.9052 52.3843 23.8358 52.4378 23.7568C52.55 23.591 52.6107 23.3864 52.596 23.1641L52.2151 17.457C52.2093 17.369 52.2157 17.2834 52.2317 17.2021C52.2338 17.1917 52.2352 17.1812 52.2376 17.1709C52.2408 17.157 52.2455 17.1435 52.2493 17.1299C52.2542 17.1126 52.2582 17.095 52.264 17.0781C52.269 17.0635 52.2758 17.0494 52.2815 17.0352C52.2865 17.0228 52.2907 17.0101 52.2962 16.998C52.3031 16.9828 52.311 16.9679 52.3186 16.9531C52.3256 16.9397 52.3325 16.9261 52.3401 16.9131C52.3461 16.9029 52.3524 16.8927 52.3587 16.8828C52.37 16.8651 52.3824 16.8479 52.3948 16.8311C52.4017 16.8218 52.4091 16.8127 52.4163 16.8037C52.4245 16.7935 52.4331 16.7833 52.4417 16.7734C52.4526 16.761 52.4634 16.7481 52.4749 16.7363C52.4859 16.725 52.4975 16.7138 52.5091 16.7031C52.5204 16.6927 52.5324 16.6827 52.5442 16.6729C52.5538 16.6649 52.5637 16.657 52.5735 16.6494C52.5833 16.642 52.5928 16.6341 52.6028 16.627L54.2122 14.9033L55.4974 14.8008L55.6272 16.459H62.6185C62.7909 16.4591 62.9571 16.5023 63.1038 16.5791L63.1888 16.6289C63.4667 16.8082 63.6619 17.1126 63.6849 17.457L64.5315 30.1689L66.3899 30.1064L66.4847 34.751L64.7591 36.5996C64.7561 36.6041 64.7534 36.6089 64.7503 36.6133C64.7384 36.6299 64.7261 36.6464 64.7132 36.6621C64.7047 36.6724 64.6957 36.6825 64.6868 36.6924C64.679 36.7011 64.6705 36.7094 64.6624 36.7178C64.649 36.7316 64.6357 36.7458 64.6214 36.7588C64.6132 36.7662 64.6044 36.7732 64.596 36.7803C64.5821 36.792 64.5677 36.8036 64.553 36.8145C64.5419 36.8227 64.5304 36.8311 64.5188 36.8389C64.5068 36.847 64.4942 36.8547 64.4817 36.8623C64.469 36.87 64.4558 36.8776 64.4427 36.8848C64.4287 36.8923 64.4141 36.8994 64.3997 36.9062C64.3863 36.9126 64.3725 36.919 64.3587 36.9248C64.3412 36.9321 64.3231 36.939 64.305 36.9453C64.296 36.9484 64.2868 36.9522 64.2776 36.9551C64.2592 36.9608 64.2399 36.9651 64.221 36.9697C64.2068 36.9732 64.1925 36.9776 64.178 36.9805C64.1172 36.9924 64.0537 36.9989 63.9886 36.999H58.1243L59.6224 59.4824L61.5374 59.418L61.6321 64.0635L59.8333 65.9902H59.8226C59.8184 65.9952 59.815 66.0009 59.8108 66.0059C59.7985 66.0204 59.786 66.035 59.7728 66.0488C59.7637 66.0582 59.7539 66.0672 59.7444 66.0762C59.7333 66.0868 59.7219 66.0974 59.7103 66.1074C59.7002 66.1161 59.6895 66.1245 59.679 66.1328C59.6649 66.1439 59.6508 66.1557 59.636 66.166C59.6281 66.1716 59.6198 66.1773 59.6116 66.1826C59.5906 66.1963 59.5684 66.2086 59.5462 66.2207C59.5408 66.2236 59.5351 66.2267 59.5296 66.2295C59.5125 66.2383 59.4946 66.246 59.4769 66.2539C59.4639 66.2596 59.451 66.2663 59.4378 66.2715C59.4229 66.2773 59.4072 66.282 59.3919 66.2871C59.3774 66.292 59.3628 66.2975 59.3479 66.3018C59.2862 66.3195 59.2215 66.3328 59.1546 66.3389L59.0569 66.3428H23.8528L23.7483 66.3379C23.6925 66.3326 23.6377 66.3219 23.5843 66.3086C23.5773 66.3068 23.5698 66.3056 23.5628 66.3037C23.5126 66.2901 23.4635 66.273 23.4163 66.2529C23.4058 66.2485 23.3954 66.2431 23.3851 66.2383C23.342 66.2184 23.2999 66.1967 23.2601 66.1719C23.2482 66.1645 23.2365 66.1563 23.2249 66.1484C23.1409 66.0915 23.0647 66.0245 23.0003 65.9482C22.9951 65.9421 22.9897 65.9359 22.9847 65.9297C22.9545 65.8923 22.9273 65.8525 22.9026 65.8115C22.8971 65.8023 22.8922 65.7926 22.887 65.7832C22.8637 65.7413 22.8426 65.6982 22.8255 65.6533C22.8041 65.5971 22.7871 65.5385 22.7767 65.4785L22.7649 65.3809L20.8724 36.999H15.013C14.9784 36.999 14.9433 36.9976 14.9095 36.9941C14.879 36.9911 14.8485 36.9862 14.8186 36.9805C14.8083 36.9785 14.7977 36.9759 14.7874 36.9736C14.7648 36.9686 14.7421 36.9626 14.72 36.9561C14.676 36.943 14.6329 36.9267 14.5911 36.9082C14.5793 36.903 14.5675 36.8972 14.556 36.8916C14.5119 36.8701 14.4687 36.8465 14.428 36.8193C14.418 36.8127 14.4085 36.8049 14.3987 36.7979C14.3641 36.7731 14.3306 36.7464 14.2991 36.7178C14.2906 36.7101 14.282 36.7023 14.2737 36.6943C14.1971 36.6203 14.1308 36.5356 14.0784 36.4424C14.075 36.4363 14.0719 36.4299 14.0686 36.4238C14.0441 36.3781 14.0228 36.3305 14.0052 36.2812C13.9846 36.224 13.9676 36.1646 13.9573 36.1035L13.9456 36.001L12.7093 17.457C12.6876 17.1322 12.8243 16.8444 13.053 16.6621L14.7561 14.8389L16.0413 14.7354L16.1761 16.459Z" fill="#1E76E2"/>
<path d="M24.9017 14.5449C25.4538 14.5449 25.9311 14.9912 25.9681 15.542L26.3489 21.25C26.3859 21.8009 26.8632 22.2471 27.4154 22.2471H33.0618C33.6138 22.2469 34.031 21.8008 33.9945 21.25L33.6146 15.542C33.5781 14.9911 33.996 14.5449 34.5482 14.5449H45.2913C45.8435 14.5449 46.3218 14.9911 46.3587 15.542L46.7386 21.25C46.7755 21.8008 47.2529 22.2469 47.805 22.2471H53.4515C54.0036 22.2471 54.4216 21.8009 54.3851 21.25L54.0042 15.542C53.9678 14.9912 54.3858 14.545 54.9378 14.5449H64.4075C64.9596 14.545 65.437 14.9912 65.4739 15.542L66.7103 34.0879C66.7468 34.6388 66.3288 35.085 65.7767 35.085H59.9153L61.8069 63.4658C61.8424 63.9977 61.4131 64.4287 60.848 64.4287H25.6439C25.0787 64.4287 24.5915 63.9977 24.556 63.4658L22.6634 35.085H16.8021C16.2499 35.085 15.7716 34.6388 15.7347 34.0879L14.4984 15.542C14.4619 14.9912 14.88 14.5451 15.432 14.5449H24.9017Z" fill="#EDF8FF"/>
<path fill-rule="evenodd" clip-rule="evenodd" d="M61.8069 63.4658L61.8089 63.5645C61.7888 64.05 61.3778 64.4287 60.848 64.4287H25.6439L25.5384 64.4238C25.0539 64.3776 24.6468 64.0175 24.5677 63.5645L24.556 63.4658L22.6634 35.085H16.8021L16.7347 34.0869H65.7103L64.4739 15.542H55.0042L55.3851 21.25C55.4583 22.3519 54.6223 23.2451 53.5179 23.2451H47.8714C46.7671 23.2449 45.8123 22.3518 45.7386 21.25L45.3577 15.542H34.6136L34.9945 21.25C35.0677 22.3519 34.2317 23.2451 33.1273 23.2451H27.4818C26.3774 23.245 25.4227 22.3518 25.3489 21.25L24.9681 15.542H15.4984L16.8021 35.085L16.6986 35.0801C16.2249 35.0322 15.8255 34.6589 15.7464 34.1895L15.7347 34.0879L14.4984 15.542C14.4619 14.9912 14.88 14.5451 15.432 14.5449H24.9017C25.4538 14.5449 25.9311 14.9912 25.9681 15.542L26.3489 21.25L26.3607 21.3516C26.4399 21.8211 26.8391 22.1945 27.3128 22.2422L27.4154 22.2471H33.0618L33.1634 22.2422C33.6308 22.1945 33.9798 21.821 33.9964 21.3516L33.9945 21.25L33.6146 15.542C33.5804 15.0255 33.9458 14.6008 34.4466 14.5498L34.5482 14.5449H45.2913C45.8435 14.5449 46.3218 14.9911 46.3587 15.542L46.7386 21.25L46.7503 21.3516C46.8295 21.8209 47.2289 22.1943 47.7025 22.2422L47.805 22.2471H53.4515L53.554 22.2422C54.0211 22.1943 54.3705 21.8209 54.387 21.3516L54.3851 21.25L54.0042 15.542C53.97 15.0257 54.3357 14.601 54.8363 14.5498L54.9378 14.5449H64.4075C64.9596 14.545 65.437 14.9912 65.4739 15.542L66.7103 34.0879L66.7113 34.1895C66.6935 34.6924 66.2942 35.0848 65.7767 35.085H59.9153L61.8069 63.4658ZM25.553 63.4238C25.559 63.4257 25.567 63.4306 25.5775 63.4307H34.6976L34.013 53.1611C33.7164 48.7099 37.3048 45.1506 41.9612 45.1504C46.6178 45.1505 50.681 48.7099 50.9779 53.1611L51.6624 63.4307H60.7816C60.7917 63.4306 60.7984 63.4258 60.804 63.4238L58.9144 35.085H23.6634L25.553 63.4238ZM42.0277 46.1484C37.8675 46.1486 34.7567 49.3152 35.013 53.1611L35.6976 63.4307H50.6624L49.9779 53.1611C49.7213 49.3151 46.1879 46.1485 42.0277 46.1484Z" fill="#1E76E2"/>
</svg>
