<svg width="983" height="385" viewBox="0 0 983 385" fill="none" xmlns="http://www.w3.org/2000/svg">
<g clip-path="url(#clip0_6159_41519)">
<path opacity="0.21" d="M599.911 297.79C599.911 298.654 599.388 299.177 598.342 299.356L597.45 299.134H588.666C587.499 298.928 586.916 298.372 586.916 297.482C586.916 295.214 589.086 294.392 593.418 295.017C595.065 295.257 596.557 295.659 597.904 296.224C599.251 296.789 599.92 297.311 599.92 297.79M637.354 274.262C637.354 271.369 637.817 268.938 638.743 266.97C640.596 263.058 644.045 261.15 649.105 261.244C652.691 261.338 656.131 262.588 659.416 265.001C661.363 266.405 662.813 267.971 663.765 269.7C665.798 267.791 668.56 266.884 672.06 266.97C674.513 266.995 677.232 267.834 680.217 269.477C680.458 269.623 680.681 269.777 680.887 269.923C681.427 267.749 682.319 265.669 683.58 263.7C687.08 258.419 692.844 255.86 700.89 256.006C705.942 256.126 710.892 257.769 715.73 260.927C721.288 264.565 724.102 268.861 724.162 273.808C725.389 273.243 726.915 272.978 728.734 273.004C732.654 273.089 736.077 274.87 739.002 278.327C740.769 280.381 742.184 282.53 743.265 284.772C744.551 282.358 746.327 281.22 748.6 281.374C750.873 281.494 752.829 282.983 754.476 285.85C756.029 288.504 756.672 291.054 756.406 293.502C757.933 293.203 760.412 293.622 763.852 294.752C767.291 295.881 768.964 297.747 768.87 300.341C760.618 300.281 749.561 300.101 735.691 299.801C721.854 299.536 704.75 299.519 684.395 299.759C664.065 300.024 647.999 300.075 636.196 299.895C624.393 299.716 613.945 299.553 604.852 299.399C603.36 296.746 603.986 294.923 606.739 293.939C609.493 292.929 611.311 292.629 612.212 293.048C613.053 293.434 613.482 293.63 613.516 293.63C613.636 293.63 613.722 293.613 613.782 293.588V293.493C613.902 291.944 614.202 290.601 614.682 289.471C615.583 287.237 617.359 286.15 620.018 286.201C621.785 286.227 623.2 286.689 624.281 287.588C624.547 285.714 625.062 284.07 625.808 282.667C627.721 279.089 631.066 277.343 635.853 277.437C636.453 277.403 637.036 277.437 637.603 277.523C637.457 276.598 637.38 275.511 637.38 274.253M577.317 298.774C577.111 298.569 577 298.235 577 297.79C577 296.806 577.883 296.241 579.642 296.087C581.409 295.941 582.284 296.506 582.284 297.79C582.284 298.149 582.207 298.432 582.061 298.637C581.675 299.117 580.868 299.356 579.642 299.356C578.415 299.356 577.695 299.159 577.309 298.774H577.317Z" fill="#EFF8FF"/>
<path opacity="0.4" d="M358.042 63.4445C357.824 63.6077 357.57 63.771 357.261 63.9524C357.225 63.5896 357.134 63.2449 357.007 62.9184C354.937 58.2744 352.286 55.9524 349.018 55.9524C345.059 55.9524 341.282 57.2404 337.668 59.8163C333.892 62.3923 331.985 65.3129 331.985 68.5782C331.985 70.1202 332.239 72.2789 332.766 75.0181C332.766 76.2154 332.257 77.3401 331.222 78.3742C330.187 79.4082 329.08 79.9161 327.863 79.9161C326.138 79.9161 324.939 79.5714 324.249 78.8821C323.559 78.0295 322.452 77.5941 320.89 77.5941C319.855 77.5941 317.967 78.7914 315.206 81.2041C312.283 83.6168 310.558 84.8141 310.049 84.8141C308.506 83.4354 306.273 82.7461 303.349 82.7461C300.589 82.7461 298.01 83.5987 295.614 85.322C293.198 86.864 292 88.4966 292 90.22V91C382.429 88.6417 458.876 87.6984 521.359 88.1701C521.523 87.5352 521.614 86.7732 521.614 85.8481C521.614 80.6962 518.944 78.1202 513.624 78.1202C510.192 78.2835 507.777 78.9002 506.397 79.9161H504.599C504.944 78.8821 505.035 78.0295 504.853 77.3401C504.508 75.9615 503.056 75.2721 500.459 75.2721C497.862 75.2721 495.901 75.6168 494.521 76.3061V73.2041C494.685 71.8254 494.176 71.1361 492.978 71.1361C492.633 71.1361 492.033 71.2993 491.18 71.644C491.017 71.6803 490.835 71.6803 490.672 71.644C490.835 71.2449 490.926 70.3742 490.926 69.068C490.926 61.1587 487.312 57.2041 480.085 57.2041C471.133 57.2041 466.158 60.2154 465.123 66.22C464.088 72.0612 462.98 74.9819 461.763 74.9819C460.728 74.9819 459.53 74.7279 458.15 74.2018C456.77 73.5125 456.007 73.1678 455.825 73.1678C455.317 73.1678 454.028 73.7664 451.958 74.9637C449.724 75.9977 448.253 76.5057 447.563 76.5057C446.365 76.5057 445.33 75.4717 444.458 73.4036C443.768 71.1723 442.388 70.0476 440.336 70.0476C438.448 70.0476 436.995 70.3016 435.942 70.8277C435.996 71.0272 435.996 71.1905 435.942 71.3356L435.161 71.8435C435.379 71.4626 435.633 71.1179 435.942 70.8095C438.357 65.2948 439.556 62.2835 439.556 61.7937C439.556 59.2177 439.392 57.4944 439.047 56.6417C438.012 54.229 435.615 53.0318 431.82 53.0318H431.039C430.858 47.2631 429.223 42.0204 426.136 37.3039C421.669 30.4286 414.951 27 406.017 27C397.591 27 390.364 29.4127 384.336 34.22C377.98 39.2086 374.784 45.6485 374.784 53.5578C374.784 56.8231 375.129 60.2517 375.819 63.8617H375.565C375.057 62.8277 374.53 61.9751 374.022 61.2857C372.823 60.0885 371.262 59.4898 369.373 59.4898C365.415 59.4898 361.638 60.7778 358.024 63.3538M591.015 79.1724C591.015 74.873 590.852 72.2064 590.507 71.1905C589.308 68.2698 586.385 66.8005 581.736 66.8005C574.164 66.8005 569.697 68.4331 568.317 71.6984C567.627 73.4218 567.718 75.6531 568.571 78.3923H565.993C563.759 77.5397 562.125 77.1043 561.09 77.1043C559.892 77.1043 558.766 77.9569 557.731 79.6803C556.877 81.4036 556.006 82.2562 555.152 82.2562C553.954 82.2562 552.664 81.5669 551.284 80.1882C549.904 78.6463 549.051 77.8662 548.706 77.8662C548.197 77.8662 547.072 78.2109 545.347 78.9002C543.458 79.5896 542.078 80.3696 541.225 81.2222C539.5 82.4195 538.646 83.7982 538.646 85.3401C538.574 86.6281 538.483 87.5714 538.392 88.1701C545.964 88.3696 563.16 88.2064 589.998 87.6621C590.688 85.6123 591.033 82.7642 591.033 79.1542M613.459 76.3243C611.389 76.3243 609.41 77.1043 607.521 78.6463C605.015 80.8231 603.799 83.7438 603.908 87.4082C612.006 87.1905 620.777 86.9365 630.219 86.6281C630.728 85.1769 631 84.1429 631 83.5261C631 80.424 629.366 78.8821 626.097 78.8821C621.449 79.7347 619.052 80.1701 618.87 80.1701C617.672 80.1701 616.637 79.5714 615.765 78.3742C615.075 76.9955 614.294 76.3061 613.441 76.3061L613.459 76.3243Z" fill="#EFF8FF"/>
<g opacity="0.5" filter="url(#filter0_f_6159_41519)">
<path d="M346.347 189.876C277.672 129.145 273.651 21.5048 337.367 -50.5441C401.082 -122.593 508.405 -131.767 577.08 -71.0358C645.755 -10.3042 649.776 97.3356 586.06 169.384C522.345 241.433 415.022 250.608 346.347 189.876Z" fill="#DAF0FF"/>
</g>
<path opacity="0.4" fill-rule="evenodd" clip-rule="evenodd" d="M420.554 263.138C420.554 263.138 422.77 260.832 422.65 259.186C422.649 259.178 422.648 259.17 422.648 259.162C422.261 258.041 421.391 256.701 420.806 255.801L420.806 255.8C420.514 255.352 420.294 255.012 420.239 254.863C420.215 254.797 420.226 254.667 420.274 254.485C420.187 254.343 420.127 254.235 420.103 254.17C419.913 253.653 421.983 249.131 426.852 246.434C431.72 243.736 441.006 240.074 441.006 240.074C441.006 240.074 440.905 240.413 440.725 240.937C442.107 240.359 443 240 443 240C443 240 441.571 244.899 439.918 246.316C439.127 247.014 437.985 247.544 436.925 248.035C436.221 248.362 435.553 248.672 435.048 249.003C435.007 248.515 435.025 248.122 435.083 247.787C433.992 248.291 432.997 248.762 432.6 249.347C431.927 250.336 431.479 258.633 431.697 261.66C431.721 261.853 431.749 262 431.783 262.095C432.116 263.029 433.193 264.711 433.718 265.504C434.696 265.425 436.096 265.183 437.369 264.962C438.801 264.715 440.071 264.495 440.4 264.566C440.854 264.665 441.382 265.645 441.466 266.597C441.492 266.809 441.498 267.02 441.476 267.222C441.499 267.684 441.413 268.131 441.16 268.459C440.597 269.19 439.644 270.283 438.899 270.928C439.082 270.945 439.23 270.967 439.325 270.994C439.35 271.001 439.375 271.008 439.399 271.015L439.472 271.036C439.933 271.167 440.228 271.251 439.832 271.378C439.484 271.489 439.219 271.494 439.126 271.492C439.29 271.501 439.946 271.552 439.961 271.777C439.98 271.957 439.799 271.973 439.59 271.991C439.474 272.001 439.349 272.011 439.245 272.052C438.954 272.164 436.949 271.982 436.114 271.703C435.676 271.568 434.789 271.172 433.984 270.813C433.533 270.612 433.109 270.423 432.803 270.297C432.283 270.392 431.585 270.588 430.544 270.958C429.358 271.379 427.469 271.781 425.592 272.048C425.131 272.288 424.652 272.598 424.325 272.978C423.613 273.816 419.701 278.737 418.342 281.452C418.195 281.762 418.084 282.039 418.02 282.274C417.539 284.04 417.392 287.112 417.412 290.095C417.586 289.847 417.756 289.592 417.919 289.335C417.925 290.379 417.943 291.445 417.984 292.438C418.132 296.031 416.105 300.312 415.854 299.982C415.818 299.935 415.762 299.806 415.688 299.614C415.518 299.897 415.389 300.027 415.337 299.959C415.246 299.839 415.024 299.198 414.726 298.34C414.208 296.844 413.461 294.689 412.779 293.482C411.707 291.583 409.893 280.642 410.005 278.608C410.014 278.463 410.03 278.322 410.052 278.184C410.267 276.286 411.691 275.021 414.033 273.461C415.447 272.52 416.321 271.594 416.805 270.983C416.581 270.868 416.378 270.758 416.203 270.659L416.211 270.661C415.738 270.404 415.427 270.211 415.377 270.175C415.347 270.123 415.152 270.109 414.899 270.091C414.487 270.061 413.92 270.021 413.648 269.785C413.305 270.181 412.94 270.563 412.788 270.722C412.755 270.756 412.732 270.78 412.721 270.792C412.688 270.828 412.648 270.859 412.609 270.889C412.509 270.966 412.412 271.041 412.415 271.207C412.419 271.439 412.142 271.514 412.083 270.904C412.032 270.372 413.085 269.301 413.488 268.9C413.487 268.867 413.49 268.832 413.496 268.796C413.496 268.796 413.325 268.295 413.997 267.288C413.994 267.262 413.991 267.236 413.989 267.21C414.178 266.923 414.462 266.579 414.843 266.179C415.616 265.4 416.925 264.834 418.225 264.421C418.249 264.43 418.274 264.44 418.299 264.451C418.706 264.325 419.11 264.215 419.494 264.121C419.431 264.286 419.376 264.482 419.396 264.664C420.187 264.463 420.898 264.325 421.378 264.237L420.7 264.062C420.7 264.062 420.973 263.777 421.324 263.334L420.554 263.138ZM433.901 270.231C434.511 270.527 435.093 270.804 435.428 270.83C435.691 270.844 436.123 270.849 436.607 270.855L436.607 270.855L436.608 270.855L436.885 270.858C436.501 270.777 436.084 270.673 435.69 270.575C435.119 270.432 434.596 270.301 434.294 270.271C434.161 270.256 434.033 270.241 433.901 270.231ZM423.162 263.8L424.291 264.087C423.78 264.076 423.308 264.074 422.906 264.082C422.988 263.997 423.074 263.903 423.162 263.8Z" fill="white"/>
</g>
<defs>
<filter id="filter0_f_6159_41519" x="-57.9092" y="-461.203" width="1039.25" height="1041.25" filterUnits="userSpaceOnUse" color-interpolation-filters="sRGB">
<feFlood flood-opacity="0" result="BackgroundImageFix"/>
<feBlend mode="normal" in="SourceGraphic" in2="BackgroundImageFix" result="shape"/>
<feGaussianBlur stdDeviation="175" result="effect1_foregroundBlur_6159_41519"/>
</filter>
<clipPath id="clip0_6159_41519">
<rect width="983" height="385" fill="white"/>
</clipPath>
</defs>
</svg>
