<svg width="1552" height="450" viewBox="0 0 1552 450" fill="none" xmlns="http://www.w3.org/2000/svg">
<g clip-path="url(#clip0_6159_40385)">
<g opacity="0.5" filter="url(#filter0_f_6159_40385)">
<path d="M1005.41 288.103C861.039 160.429 852.587 -65.859 986.534 -217.325C1120.48 -368.791 1346.1 -388.078 1490.48 -260.404C1634.85 -132.73 1643.3 93.5578 1509.35 245.024C1375.41 396.49 1149.79 415.777 1005.41 288.103Z" fill="#DAF0FF"/>
</g>
<g opacity="0.5" filter="url(#filter1_f_6159_40385)">
<path d="M-345.531 213.922C-480.635 94.4449 -491.01 -114.526 -368.706 -252.827C-246.401 -391.128 -37.7308 -406.388 97.3729 -286.911C232.477 -167.434 242.853 41.5366 120.548 179.838C-1.75632 318.139 -210.427 333.399 -345.531 213.922Z" fill="#DAF0FF"/>
</g>
<path opacity="0.4" d="M1021.1 86.8195C1020.79 87.0516 1020.42 87.2838 1019.98 87.5417C1019.93 87.0258 1019.8 86.5357 1019.62 86.0714C1016.67 79.4683 1012.89 76.1667 1008.24 76.1667C1002.6 76.1667 997.216 77.998 992.067 81.6607C986.686 85.3234 983.97 89.4762 983.97 94.119C983.97 96.3115 984.332 99.381 985.082 103.276C985.082 104.978 984.358 106.577 982.883 108.048C981.408 109.518 979.83 110.24 978.097 110.24C975.639 110.24 973.931 109.75 972.948 108.77C971.965 107.558 970.387 106.938 968.162 106.938C966.687 106.938 963.997 108.641 960.064 112.071C955.899 115.502 953.441 117.204 952.717 117.204C950.517 115.244 947.335 114.264 943.17 114.264C939.237 114.264 935.564 115.476 932.148 117.927C928.708 120.119 927 122.44 927 124.891V126C1055.84 122.647 1164.76 121.306 1253.79 121.976C1254.02 121.073 1254.15 119.99 1254.15 118.675C1254.15 111.349 1250.35 107.687 1242.76 107.687C1237.88 107.919 1234.43 108.796 1232.47 110.24H1229.91C1230.4 108.77 1230.53 107.558 1230.27 106.577C1229.78 104.617 1227.71 103.637 1224.01 103.637C1220.31 103.637 1217.51 104.127 1215.55 105.107V100.696C1215.78 98.7361 1215.06 97.756 1213.35 97.756C1212.86 97.756 1212 97.9881 1210.79 98.4782C1210.55 98.5298 1210.3 98.5298 1210.06 98.4782C1210.3 97.9107 1210.43 96.6726 1210.43 94.8155C1210.43 83.5695 1205.28 77.9465 1194.98 77.9465C1182.22 77.9465 1175.14 82.2282 1173.66 90.7659C1172.19 99.0715 1170.61 103.224 1168.88 103.224C1167.4 103.224 1165.69 102.863 1163.73 102.115C1161.76 101.135 1160.67 100.645 1160.42 100.645C1159.69 100.645 1157.85 101.496 1154.9 103.198C1151.72 104.669 1149.63 105.391 1148.64 105.391C1146.94 105.391 1145.46 103.921 1144.22 100.98C1143.24 97.8076 1141.27 96.2084 1138.35 96.2084C1135.66 96.2084 1133.59 96.5695 1132.09 97.3175C1132.16 97.6012 1132.16 97.8333 1132.09 98.0397L1130.97 98.7619C1131.28 98.2202 1131.65 97.7302 1132.09 97.2917C1135.53 89.4504 1137.23 85.1687 1137.23 84.4722C1137.23 80.8095 1137 78.3592 1136.51 77.1469C1135.03 73.7163 1131.62 72.0139 1126.21 72.0139H1125.1C1124.84 63.8115 1122.51 56.3572 1118.11 49.6508C1111.75 39.875 1102.18 35 1089.45 35C1077.44 35 1067.15 38.4306 1058.56 45.2659C1049.5 52.3592 1044.95 61.5159 1044.95 72.7619C1044.95 77.4048 1045.44 82.2798 1046.42 87.4127H1046.06C1045.34 85.9425 1044.59 84.7302 1043.86 83.75C1042.16 82.0476 1039.93 81.1964 1037.24 81.1964C1031.6 81.1964 1026.22 83.0278 1021.07 86.6905M1353.03 109.183C1353.03 103.069 1352.8 99.2778 1352.31 97.8333C1350.6 93.6806 1346.43 91.5913 1339.81 91.5913C1329.02 91.5913 1322.66 93.9127 1320.69 98.5556C1319.71 101.006 1319.84 104.179 1321.05 108.073H1317.38C1314.2 106.861 1311.87 106.242 1310.39 106.242C1308.69 106.242 1307.08 107.454 1305.61 109.905C1304.39 112.355 1303.15 113.567 1301.93 113.567C1300.23 113.567 1298.39 112.587 1296.42 110.627C1294.46 108.435 1293.24 107.325 1292.75 107.325C1292.02 107.325 1290.42 107.815 1287.96 108.796C1285.27 109.776 1283.31 110.885 1282.09 112.097C1279.63 113.8 1278.42 115.76 1278.42 117.952C1278.31 119.784 1278.18 121.125 1278.05 121.976C1288.84 122.26 1313.34 122.028 1351.58 121.254C1352.56 118.339 1353.06 114.29 1353.06 109.157M1385.01 105.133C1382.06 105.133 1379.24 106.242 1376.55 108.435C1372.98 111.53 1371.24 115.683 1371.4 120.893C1382.94 120.583 1395.43 120.222 1408.89 119.784C1409.61 117.72 1410 116.25 1410 115.373C1410 110.962 1407.67 108.77 1403.01 108.77C1396.39 109.982 1392.98 110.601 1392.72 110.601C1391.01 110.601 1389.54 109.75 1388.29 108.048C1387.31 106.087 1386.2 105.107 1384.98 105.107L1385.01 105.133Z" fill="white"/>
<path opacity="0.4" fill-rule="evenodd" clip-rule="evenodd" d="M997.769 381.94C997.769 381.94 1001.29 378.258 1001.1 375.629C1001.1 375.617 1001.1 375.604 1001.1 375.591C1000.48 373.802 999.099 371.663 998.169 370.225L998.169 370.224C997.706 369.509 997.356 368.967 997.269 368.728C997.23 368.623 997.248 368.416 997.324 368.125C997.185 367.899 997.09 367.727 997.053 367.622C996.75 366.796 1000.04 359.577 1007.77 355.271C1015.51 350.965 1030.26 345.118 1030.26 345.118C1030.26 345.118 1030.1 345.66 1029.82 346.496C1032.01 345.573 1033.43 345 1033.43 345C1033.43 345 1031.16 352.821 1028.53 355.083C1027.28 356.197 1025.46 357.043 1023.78 357.828C1022.66 358.35 1021.6 358.845 1020.8 359.373C1020.73 358.594 1020.76 357.967 1020.85 357.431C1019.12 358.236 1017.54 358.989 1016.91 359.922C1015.84 361.501 1015.13 374.748 1015.47 379.58C1015.51 379.887 1015.56 380.123 1015.61 380.274C1016.14 381.764 1017.85 384.451 1018.68 385.717C1020.24 385.59 1022.46 385.204 1024.48 384.852C1026.76 384.456 1028.78 384.105 1029.3 384.219C1030.02 384.376 1030.86 385.941 1030.99 387.461C1031.03 387.799 1031.04 388.137 1031.01 388.459C1031.05 389.197 1030.91 389.91 1030.51 390.434C1029.61 391.6 1028.1 393.346 1026.91 394.376C1027.21 394.403 1027.44 394.437 1027.59 394.481C1027.63 394.492 1027.67 394.504 1027.71 394.515L1027.82 394.548C1028.56 394.757 1029.03 394.892 1028.4 395.094C1027.84 395.271 1027.42 395.279 1027.27 395.275C1027.53 395.29 1028.58 395.371 1028.6 395.731C1028.63 396.019 1028.34 396.043 1028.01 396.072C1027.83 396.088 1027.63 396.105 1027.46 396.17C1027 396.349 1023.82 396.059 1022.49 395.613C1021.79 395.397 1020.38 394.765 1019.11 394.192C1018.39 393.872 1017.72 393.569 1017.23 393.369C1016.4 393.521 1015.3 393.833 1013.64 394.424C1011.76 395.096 1008.75 395.738 1005.77 396.163C1005.04 396.547 1004.28 397.041 1003.76 397.649C1002.63 398.985 996.413 406.843 994.255 411.177C994.021 411.672 993.846 412.114 993.744 412.488C992.979 415.309 992.745 420.213 992.777 424.975C993.054 424.579 993.324 424.172 993.583 423.762C993.592 425.428 993.62 427.131 993.686 428.716C993.92 434.452 990.701 441.286 990.302 440.759C990.245 440.684 990.155 440.478 990.038 440.172C989.768 440.623 989.563 440.832 989.481 440.722C989.336 440.531 988.983 439.508 988.51 438.138C987.687 435.75 986.5 432.31 985.417 430.383C983.713 427.35 980.831 409.884 981.009 406.637C981.024 406.405 981.049 406.18 981.084 405.96C981.426 402.93 983.688 400.909 987.409 398.42C989.656 396.917 991.044 395.438 991.814 394.464C991.457 394.28 991.134 394.105 990.857 393.947L990.869 393.949C990.117 393.539 989.623 393.23 989.543 393.174C989.496 393.09 989.187 393.068 988.784 393.039C988.131 392.992 987.23 392.927 986.797 392.55C986.252 393.183 985.673 393.792 985.431 394.046C985.379 394.101 985.342 394.14 985.325 394.158C985.272 394.216 985.209 394.265 985.146 394.314C984.988 394.436 984.833 394.556 984.838 394.821C984.844 395.191 984.405 395.311 984.311 394.337C984.23 393.487 985.902 391.778 986.543 391.137C986.542 391.085 986.547 391.03 986.556 390.971C986.556 390.971 986.284 390.172 987.352 388.564C987.347 388.523 987.343 388.481 987.339 388.44C987.639 387.982 988.091 387.433 988.695 386.793C989.924 385.55 992.003 384.647 994.068 383.987C994.107 384.001 994.146 384.017 994.186 384.035C994.832 383.834 995.475 383.659 996.086 383.508C995.985 383.772 995.897 384.085 995.93 384.375C997.186 384.054 998.315 383.835 999.078 383.694L998.001 383.414C998.001 383.414 998.435 382.959 998.993 382.252L997.769 381.94ZM1018.97 393.262C1019.94 393.736 1020.87 394.178 1021.4 394.22C1021.82 394.242 1022.5 394.25 1023.27 394.259L1023.27 394.259L1023.28 394.259L1023.71 394.264C1023.1 394.135 1022.44 393.968 1021.82 393.811C1020.91 393.583 1020.08 393.375 1019.6 393.327C1019.39 393.302 1019.18 393.278 1018.97 393.262ZM1001.91 382.996L1003.71 383.454C1002.89 383.437 1002.14 383.434 1001.51 383.446C1001.64 383.311 1001.77 383.161 1001.91 382.996Z" fill="white"/>
<path opacity="0.4" d="M1508.9 353.937C1528.96 352.462 1529.86 373.839 1529.86 373.853C1529.88 373.841 1531.1 373.125 1533.16 372.445C1533.16 372.422 1533.16 372.4 1533.16 372.377C1534.88 371.839 1537.08 371.342 1539.62 371.259C1542.01 371.163 1544.69 371.428 1547.51 372.377C1557.05 375.583 1557.41 384.692 1557.42 384.913C1557.52 384.91 1557.67 384.906 1557.88 384.901C1560.72 384.803 1576.18 384.393 1590.18 386.393C1605.27 388.404 1601.33 397.55 1601.11 398.028C1602.93 397.773 1622.8 394.96 1632.73 392.146C1634.36 391.662 1636.22 391.459 1638.16 391.477H1638.29C1648.79 391.572 1661.69 398.103 1652.79 401.588C1651.2 402.213 1643.44 402.819 1631.43 403.394C1631.39 403.396 1631.35 403.398 1631.31 403.4C1626.9 403.61 1621.92 403.816 1616.46 404.017C1616.19 404.027 1615.92 404.036 1615.65 404.046C1614.22 404.098 1612.76 404.149 1611.28 404.2C1610.71 404.22 1610.15 404.24 1609.58 404.259C1603.74 404.455 1597.46 404.645 1590.84 404.829C1588.31 404.9 1585.73 404.968 1583.11 405.036C1581.57 405.076 1580.02 405.117 1578.45 405.156C1576.94 405.194 1575.43 405.231 1573.9 405.268C1570.65 405.346 1567.35 405.424 1564 405.499C1563.16 405.518 1562.31 405.537 1561.45 405.556C1557.46 405.644 1553.41 405.732 1549.3 405.816C1548.63 405.829 1547.95 405.844 1547.27 405.858C1464.6 407.529 1363.97 408.232 1366.03 406.899C1384.18 395.399 1421.23 395.097 1421.28 395.097C1421.28 395.097 1426.74 377.836 1439.06 376.213C1451.37 374.591 1453.28 390.671 1453.28 390.671C1453.28 390.671 1456.07 384.327 1462.68 380.934C1469.28 377.541 1475.5 378.131 1475.5 378.131C1475.52 378.097 1488.85 355.263 1508.9 353.937Z" fill="white"/>
</g>
<defs>
<filter id="filter0_f_6159_40385" x="541.351" y="-694.846" width="1413.19" height="1417.39" filterUnits="userSpaceOnUse" color-interpolation-filters="sRGB">
<feFlood flood-opacity="0" result="BackgroundImageFix"/>
<feBlend mode="normal" in="SourceGraphic" in2="BackgroundImageFix" result="shape"/>
<feGaussianBlur stdDeviation="175" result="effect1_foregroundBlur_6159_40385"/>
</filter>
<filter id="filter1_f_6159_40385" x="-804.056" y="-717.42" width="1359.95" height="1361.85" filterUnits="userSpaceOnUse" color-interpolation-filters="sRGB">
<feFlood flood-opacity="0" result="BackgroundImageFix"/>
<feBlend mode="normal" in="SourceGraphic" in2="BackgroundImageFix" result="shape"/>
<feGaussianBlur stdDeviation="175" result="effect1_foregroundBlur_6159_40385"/>
</filter>
<clipPath id="clip0_6159_40385">
<rect width="1552" height="450" fill="white"/>
</clipPath>
</defs>
</svg>
