<svg width="1552" height="313" viewBox="0 0 1552 313" fill="none" xmlns="http://www.w3.org/2000/svg">
<mask id="mask0_6159_67336" style="mask-type:alpha" maskUnits="userSpaceOnUse" x="0" y="0" width="1552" height="313">
<rect y="0" width="1552" height="314" fill="url(#paint0_linear_6159_67336)"/>
</mask>
<g mask="url(#mask0_6159_67336)">
<g opacity="0.5" filter="url(#filter0_f_6159_67336)">
<path d="M1005.63 43.9145C870.524 -75.5624 860.148 -284.533 982.452 -422.834C1104.76 -561.135 1313.43 -576.395 1448.53 -456.918C1583.63 -337.441 1594.01 -128.471 1471.71 9.8304C1349.4 148.132 1140.73 163.392 1005.63 43.9145Z" fill="#DAF0FF"/>
</g>
<g opacity="0.3" filter="url(#filter1_f_6159_67336)">
<ellipse cx="178.04" cy="455.155" rx="307.179" ry="636.759" transform="rotate(-120 178.04 455.155)" fill="#DAF0FF"/>
</g>
<g opacity="0.9" filter="url(#filter2_f_6159_67336)">
<ellipse cx="1625.04" cy="333.155" rx="307.179" ry="636.759" transform="rotate(-120 1625.04 333.155)" fill="#DAF0FF"/>
</g>
<path opacity="0.1" d="M1100.67 154.088C1097.01 156.185 1395.57 152.97 1406.82 149.057C1418.08 145.143 1396.66 137.176 1385.54 140.111C1374.42 142.907 1351.56 138.713 1351.56 138.713C1351.56 138.713 1352.89 123.918 1336.35 121.961C1319.81 119.864 1305.04 126.833 1305.04 126.833C1305.04 126.833 1302.37 116.462 1292.07 113.387C1281.76 110.312 1267.47 118.351 1267.47 118.351C1267.47 118.351 1259.37 107.476 1237.95 108.874C1216.53 110.132 1217.55 126.833 1217.55 126.833C1217.55 126.833 1210.9 126.274 1203.85 129.488C1196.8 132.703 1193.82 138.713 1193.82 138.713C1193.82 138.713 1174.62 129.379 1161.46 130.917C1148.31 132.454 1143.57 145.702 1143.57 145.702C1143.57 145.702 1084.98 141.747 1100.67 154.088Z" fill="white"/>
<path d="M1152.62 275.889C1152.62 270.179 1152.37 266.638 1151.84 265.289C1150 261.41 1145.53 259.458 1138.4 259.458C1126.8 259.458 1119.96 261.626 1117.85 265.963C1116.79 268.252 1116.93 271.215 1118.23 274.853H1114.28C1110.86 273.721 1108.36 273.143 1106.77 273.143C1104.94 273.143 1103.21 274.275 1101.63 276.564C1100.32 278.853 1098.98 279.985 1097.68 279.985C1095.84 279.985 1093.87 279.07 1091.75 277.239C1089.64 275.191 1088.33 274.155 1087.8 274.155C1087.02 274.155 1085.3 274.613 1082.65 275.528C1079.76 276.444 1077.65 277.48 1076.34 278.612C1073.7 280.202 1072.39 282.033 1072.39 284.081C1072.28 285.792 1072.14 287.045 1072 287.84C1083.6 288.105 1109.94 287.888 1151.06 287.165C1152.12 284.442 1152.65 280.66 1152.65 275.865M1187 272.107C1183.83 272.107 1180.8 273.143 1177.91 275.191C1174.07 278.082 1172.2 281.961 1172.37 286.828C1184.78 286.539 1198.21 286.201 1212.68 285.792C1213.46 283.864 1213.88 282.491 1213.88 281.672C1213.88 277.552 1211.37 275.504 1206.36 275.504C1199.24 276.636 1195.57 277.215 1195.29 277.215C1193.46 277.215 1191.87 276.42 1190.54 274.829C1189.48 272.998 1188.28 272.083 1186.98 272.083L1187 272.107Z" fill="white"/>
<path d="M1520.82 284.153C1521.16 284.37 1521.55 284.586 1522.02 284.827C1522.07 284.346 1522.21 283.888 1522.41 283.454C1525.58 277.286 1529.64 274.202 1534.65 274.202C1540.71 274.202 1546.5 275.913 1552.04 279.334C1557.82 282.755 1560.74 286.634 1560.74 290.971C1560.74 293.019 1560.35 295.886 1559.55 299.524C1559.55 301.114 1560.33 302.608 1561.91 303.981C1563.5 305.355 1565.19 306.029 1567.06 306.029C1569.7 306.029 1571.54 305.571 1572.59 304.656C1573.65 303.524 1575.35 302.945 1577.74 302.945C1579.33 302.945 1582.22 304.535 1586.45 307.74C1590.93 310.944 1593.57 312.534 1594.35 312.534C1596.71 310.703 1600.13 309.788 1604.61 309.788C1608.84 309.788 1612.79 310.92 1616.46 313.209C1620.16 315.257 1622 317.425 1622 319.714V320.75C1483.46 317.618 1366.35 316.365 1270.62 316.991C1270.37 316.148 1270.23 315.136 1270.23 313.908C1270.23 307.065 1274.32 303.644 1282.47 303.644C1287.73 303.861 1291.43 304.68 1293.54 306.029H1296.3C1295.77 304.656 1295.63 303.523 1295.91 302.608C1296.44 300.777 1298.66 299.861 1302.64 299.861C1306.62 299.861 1309.62 300.319 1311.74 301.235V297.115C1311.49 295.284 1312.27 294.368 1314.1 294.368C1314.63 294.368 1315.55 294.585 1316.86 295.043C1317.11 295.091 1317.38 295.091 1317.63 295.043C1317.38 294.513 1317.25 293.356 1317.25 291.622C1317.25 281.117 1322.78 275.865 1333.85 275.865C1347.57 275.865 1355.19 279.864 1356.78 287.839C1358.36 295.597 1360.06 299.476 1361.92 299.476C1363.51 299.476 1365.34 299.139 1367.46 298.44C1369.57 297.524 1370.74 297.067 1371.02 297.067C1371.8 297.067 1373.77 297.862 1376.94 299.452C1380.37 300.825 1382.62 301.5 1383.68 301.5C1385.51 301.5 1387.1 300.126 1388.43 297.38C1389.49 294.416 1391.6 292.923 1394.75 292.923C1397.64 292.923 1399.87 293.26 1401.48 293.959C1401.4 294.224 1401.4 294.44 1401.48 294.633L1402.68 295.308C1402.34 294.802 1401.95 294.344 1401.48 293.934C1397.78 286.61 1395.94 282.611 1395.94 281.96C1395.94 278.539 1396.19 276.25 1396.72 275.118C1398.31 271.914 1401.98 270.323 1407.8 270.323H1408.99C1409.27 262.662 1411.77 255.699 1416.5 249.435C1423.35 240.304 1433.64 235.75 1447.33 235.75C1460.23 235.75 1471.31 238.954 1480.54 245.339C1490.28 251.965 1495.17 260.518 1495.17 271.022C1495.17 275.359 1494.65 279.912 1493.59 284.707H1493.98C1494.76 283.334 1495.56 282.201 1496.34 281.286C1498.18 279.696 1500.57 278.9 1503.46 278.9C1509.53 278.9 1515.31 280.611 1520.85 284.032" fill="#EFF8FF"/>
</g>
<defs>
<filter id="filter0_f_6159_67336" x="547.102" y="-887.427" width="1359.96" height="1361.85" filterUnits="userSpaceOnUse" color-interpolation-filters="sRGB">
<feFlood flood-opacity="0" result="BackgroundImageFix"/>
<feBlend mode="normal" in="SourceGraphic" in2="BackgroundImageFix" result="shape"/>
<feGaussianBlur stdDeviation="175" result="effect1_foregroundBlur_6159_67336"/>
</filter>
<filter id="filter1_f_6159_67336" x="-744.545" y="-309.747" width="1845.17" height="1529.8" filterUnits="userSpaceOnUse" color-interpolation-filters="sRGB">
<feFlood flood-opacity="0" result="BackgroundImageFix"/>
<feBlend mode="normal" in="SourceGraphic" in2="BackgroundImageFix" result="shape"/>
<feGaussianBlur stdDeviation="175" result="effect1_foregroundBlur_6159_67336"/>
</filter>
<filter id="filter2_f_6159_67336" x="702.455" y="-431.747" width="1845.17" height="1529.8" filterUnits="userSpaceOnUse" color-interpolation-filters="sRGB">
<feFlood flood-opacity="0" result="BackgroundImageFix"/>
<feBlend mode="normal" in="SourceGraphic" in2="BackgroundImageFix" result="shape"/>
<feGaussianBlur stdDeviation="175" result="effect1_foregroundBlur_6159_67336"/>
</filter>
<linearGradient id="paint0_linear_6159_67336" x1="0" y1="156.75" x2="1552" y2="156.75" gradientUnits="userSpaceOnUse">
<stop stop-color="#6AC6FF"/>
<stop offset="1" stop-color="#3BA8EC"/>
</linearGradient>
</defs>
</svg>
