<svg width="1552" height="208" viewBox="0 0 1552 208" fill="none" xmlns="http://www.w3.org/2000/svg">
<g clip-path="url(#clip0_6151_71026)">
<path opacity="0.2" d="M309.306 110.054C326.479 108.944 327.24 125.048 327.24 125.048C327.24 125.048 328.289 124.503 330.061 123.987C330.062 123.97 330.064 123.954 330.065 123.937C331.427 123.562 333.143 123.215 335.116 123.116C335.155 123.114 335.194 123.111 335.233 123.109C335.299 123.106 335.365 123.104 335.432 123.101C337.512 123.012 339.866 123.203 342.348 123.937C350.509 126.351 350.819 133.209 350.826 133.374C350.922 133.371 351.08 133.367 351.295 133.362C353.91 133.285 366.999 132.996 378.869 134.487C391.78 136.001 388.409 142.883 388.222 143.245C389.786 143.052 406.782 140.936 415.28 138.818C416.672 138.454 418.267 138.301 419.931 138.314H420.041C429.03 138.386 440.066 143.303 432.454 145.926C430.58 146.573 418.763 147.192 401.243 147.758C401.124 147.761 401.006 147.765 400.887 147.769C399.701 147.807 398.489 147.844 397.253 147.882C395.104 147.947 392.88 148.013 390.588 148.077C389.82 148.098 389.044 148.118 388.26 148.139C386.391 148.19 384.481 148.24 382.532 148.289C381.232 148.322 379.914 148.354 378.581 148.386C376.916 148.427 375.226 148.466 373.513 148.506C361.792 148.776 349.003 149.026 335.795 149.25C335.669 149.252 335.543 149.254 335.417 149.257C266.053 150.43 185.315 150.896 187.027 149.925C202.57 141.262 234.308 141.04 234.308 141.04C234.308 141.04 238.982 128.046 249.525 126.824C260.049 125.605 261.693 137.664 261.699 137.708C261.72 137.664 264.115 132.921 269.742 130.379C275.368 127.836 280.672 128.264 280.719 128.268C280.719 128.268 292.133 111.054 309.306 110.054Z" fill="white"/>
<g opacity="0.5" filter="url(#filter0_f_6151_71026)">
<path d="M1005.63 43.1645C870.524 -76.3124 860.148 -285.283 982.452 -423.584C1104.76 -561.885 1313.43 -577.145 1448.53 -457.668C1583.63 -338.191 1594.01 -129.221 1471.71 9.0804C1349.4 147.382 1140.73 162.642 1005.63 43.1645Z" fill="#DAF0FF"/>
</g>
<g opacity="0.45" filter="url(#filter1_f_6151_71026)">
<ellipse cx="98.0397" cy="368.405" rx="307.179" ry="636.759" transform="rotate(-120 98.0397 368.405)" fill="#DAF0FF"/>
</g>
<path opacity="0.4" d="M716.655 94.4055C715.876 95.9344 707.408 105.554 703.271 110.172C702.784 109.774 701.373 108.739 699.621 107.783C697.43 106.589 695.97 108.739 694.997 110.172C694.024 111.606 694.754 111.844 695.97 112.083C696.944 112.274 697.349 113.118 697.43 113.517C695.403 113.517 690.471 113.756 686.966 114.711C682.586 115.906 671.879 123.311 673.096 123.789C674.312 124.267 688.913 120.922 691.347 119.967C693.294 119.202 700.107 119.648 703.271 119.967L712.518 130C713.897 129.363 716.801 127.707 717.385 126.178C717.969 124.649 720.386 118.215 721.522 115.189C718.196 115.985 711.399 117.339 710.815 116.383C710.085 115.189 715.438 111.367 720.062 106.111C724.685 100.856 741.476 80.0721 740.99 79.3555C740.503 78.6388 740.26 78.8777 737.096 81.2666C733.933 83.6555 717.628 92.4944 716.655 94.4055Z" fill="white"/>
<path opacity="0.2" d="M654.407 178.009C656.383 173.636 662.309 169.991 665.765 167.561C669.222 165.131 673.42 164.645 680.086 163.916C682.611 163.64 684.277 163.135 685.339 162.602C686.03 161.994 686.597 161.436 687 161C686.957 161.384 686.521 162.01 685.339 162.602C683.211 164.477 679.911 166.827 676.63 167.561C672.284 168.533 671.033 169.424 670.951 169.748C671.527 170.639 671.938 172.907 668.975 174.85C666.012 176.794 663.461 174.688 662.556 173.393C660.827 175.417 657.074 179.856 655.889 181.411C653.296 184.813 649.63 185.646 647.242 186.791C649.147 185.127 652.894 181.36 654.407 178.009Z" fill="white"/>
<path opacity="0.5" d="M1455.42 75.8363C1455.42 76.9086 1454.77 77.5562 1453.47 77.7791L1452.37 77.5031H1441.47C1440.02 77.2483 1439.3 76.5582 1439.3 75.4541C1439.3 72.6408 1441.99 71.6216 1447.36 72.3966C1449.41 72.6939 1451.26 73.1929 1452.93 73.8935C1454.6 74.5942 1455.43 75.2418 1455.43 75.8363M1501.86 46.652C1501.86 43.0636 1502.44 40.0486 1503.59 37.6068C1505.88 32.7552 1510.16 30.3877 1516.44 30.5045C1520.89 30.6213 1525.15 32.1713 1529.23 35.1651C1531.64 36.9061 1533.44 38.8489 1534.62 40.9934C1537.15 38.626 1540.57 37.5007 1544.91 37.6068C1547.96 37.6387 1551.33 38.6791 1555.03 40.7174C1555.33 40.8979 1555.61 41.089 1555.86 41.2695C1556.53 38.5729 1557.64 35.9931 1559.2 33.5514C1563.54 27.0011 1570.69 23.8268 1580.67 24.0073C1586.94 24.1559 1593.08 26.1943 1599.08 30.1117C1605.98 34.6236 1609.47 39.953 1609.54 46.0893C1611.06 45.3886 1612.96 45.0595 1615.21 45.0914C1620.07 45.1975 1624.32 47.4057 1627.95 51.6947C1630.14 54.2427 1631.89 56.9074 1633.23 59.6888C1634.83 56.695 1637.03 55.2831 1639.85 55.4741C1642.67 55.6228 1645.1 57.47 1647.14 61.0265C1649.07 64.3176 1649.87 67.4813 1649.54 70.5175C1651.43 70.146 1654.5 70.6662 1658.77 72.0675C1663.04 73.4689 1665.11 75.7832 1665 79C1654.76 78.9257 1641.04 78.7027 1623.84 78.3312C1606.68 78.0021 1585.46 77.9808 1560.21 78.2781C1535 78.6072 1515.07 78.6709 1500.43 78.4479C1485.79 78.225 1472.83 78.0233 1461.55 77.8322C1459.7 74.5411 1460.47 72.2798 1463.89 71.059C1467.3 69.8062 1469.56 69.4347 1470.68 69.9549C1471.72 70.4326 1472.25 70.6768 1472.29 70.6768C1472.44 70.6768 1472.55 70.6555 1472.62 70.6237V70.5069C1472.77 68.5854 1473.15 66.9186 1473.74 65.5172C1474.86 62.7464 1477.06 61.3981 1480.36 61.4618C1482.55 61.4936 1484.31 62.0669 1485.65 63.1816C1485.98 60.8567 1486.62 58.8183 1487.54 57.0772C1489.91 52.6396 1494.06 50.4739 1500 50.5906C1500.75 50.5482 1501.47 50.5906 1502.17 50.6968C1501.99 49.5502 1501.89 48.202 1501.89 46.6414M1427.39 77.0572C1427.14 76.8024 1427 76.3884 1427 75.8363C1427 74.6154 1428.1 73.9148 1430.28 73.7237C1432.47 73.5432 1433.55 74.2439 1433.55 75.8363C1433.55 76.2822 1433.46 76.6326 1433.28 76.8874C1432.8 77.4819 1431.8 77.7791 1430.28 77.7791C1428.76 77.7791 1427.86 77.5349 1427.38 77.0572H1427.39Z" fill="#EFF8FF"/>
<path d="M1337.6 170.069C1337.23 170.348 1336.8 170.626 1336.27 170.935C1336.21 170.317 1336.06 169.73 1335.84 169.173C1332.31 161.264 1327.79 157.31 1322.22 157.31C1315.47 157.31 1309.03 159.503 1302.87 163.89C1296.43 168.278 1293.17 173.252 1293.17 178.813C1293.17 181.439 1293.61 185.116 1294.51 189.781C1294.51 191.82 1293.64 193.736 1291.87 195.497C1290.11 197.258 1288.22 198.123 1286.15 198.123C1283.21 198.123 1281.16 197.536 1279.99 196.362C1278.81 194.91 1276.92 194.168 1274.26 194.168C1272.49 194.168 1269.27 196.207 1264.57 200.316C1259.58 204.425 1256.64 206.465 1255.77 206.465C1253.14 204.117 1249.33 202.942 1244.35 202.942C1239.64 202.942 1235.25 204.395 1231.16 207.33C1227.04 209.956 1225 212.736 1225 215.672V217C1379.18 212.984 1509.53 211.377 1616.06 212.18C1616.34 211.099 1616.49 209.801 1616.49 208.226C1616.49 199.451 1611.94 195.064 1602.87 195.064C1597.02 195.342 1592.9 196.393 1590.55 198.123H1587.48C1588.07 196.362 1588.23 194.91 1587.92 193.736C1587.33 191.387 1584.85 190.213 1580.43 190.213C1576 190.213 1572.65 190.8 1570.3 191.975V186.691C1570.58 184.343 1569.71 183.169 1567.67 183.169C1567.08 183.169 1566.06 183.447 1564.6 184.034C1564.33 184.096 1564.02 184.096 1563.74 184.034C1564.02 183.355 1564.17 181.872 1564.17 179.647C1564.17 166.177 1558.01 159.441 1545.69 159.441C1530.42 159.441 1521.94 164.57 1520.18 174.797C1518.41 184.745 1516.52 189.719 1514.45 189.719C1512.68 189.719 1510.64 189.287 1508.29 188.391C1505.93 187.217 1504.63 186.63 1504.32 186.63C1503.46 186.63 1501.26 187.649 1497.73 189.688C1493.92 191.449 1491.41 192.314 1490.24 192.314C1488.19 192.314 1486.43 190.553 1484.94 187.031C1483.77 183.231 1481.41 181.316 1477.92 181.316C1474.7 181.316 1472.22 181.748 1470.42 182.644C1470.52 182.984 1470.52 183.262 1470.42 183.509L1469.09 184.374C1469.46 183.725 1469.9 183.138 1470.42 182.613C1474.54 173.221 1476.58 168.092 1476.58 167.258C1476.58 162.871 1476.31 159.936 1475.72 158.484C1473.95 154.374 1469.87 152.335 1463.4 152.335H1462.06C1461.75 142.511 1458.97 133.582 1453.7 125.549C1446.09 113.839 1434.63 108 1419.4 108C1405.03 108 1392.71 112.109 1382.43 120.297C1371.6 128.793 1366.15 139.761 1366.15 153.231C1366.15 158.793 1366.74 164.632 1367.91 170.78H1367.48C1366.61 169.019 1365.72 167.567 1364.85 166.393C1362.8 164.354 1360.14 163.334 1356.92 163.334C1350.17 163.334 1343.73 165.528 1337.57 169.915M1734.83 196.856C1734.83 189.534 1734.55 184.992 1733.96 183.262C1731.91 178.288 1726.93 175.785 1719 175.785C1706.09 175.785 1698.48 178.566 1696.12 184.127C1694.95 187.062 1695.1 190.862 1696.56 195.527H1692.16C1688.35 194.075 1685.57 193.334 1683.8 193.334C1681.76 193.334 1679.84 194.786 1678.07 197.721C1676.62 200.656 1675.13 202.108 1673.68 202.108C1671.63 202.108 1669.44 200.934 1667.08 198.586C1664.73 195.96 1663.28 194.632 1662.69 194.632C1661.82 194.632 1659.9 195.219 1656.96 196.393C1653.74 197.567 1651.39 198.895 1649.93 200.347C1646.99 202.386 1645.54 204.734 1645.54 207.361C1645.41 209.554 1645.26 211.161 1645.1 212.18C1658.01 212.52 1687.33 212.242 1733.09 211.315C1734.27 207.824 1734.86 202.973 1734.86 196.825M1773.09 192.005C1769.56 192.005 1766.19 193.334 1762.97 195.96C1758.7 199.668 1756.62 204.642 1756.81 210.883C1770.62 210.512 1785.57 210.079 1801.67 209.554C1802.54 207.083 1803 205.321 1803 204.271C1803 198.988 1800.21 196.362 1794.64 196.362C1786.71 197.814 1782.63 198.555 1782.32 198.555C1780.28 198.555 1778.51 197.536 1777.02 195.497C1775.85 193.149 1774.52 191.975 1773.06 191.975L1773.09 192.005Z" fill="#EFF8FF"/>
<path d="M-52.397 170.069C-52.7685 170.348 -53.2019 170.626 -53.7283 170.935C-53.7902 170.317 -53.945 169.73 -54.1617 169.173C-57.6912 161.264 -62.2114 157.31 -67.7843 157.31C-74.5337 157.31 -80.9734 159.503 -87.1346 163.89C-93.5743 168.278 -96.8252 173.252 -96.8252 178.813C-96.8252 181.439 -96.3917 185.116 -95.4939 189.781C-95.4939 191.82 -96.3608 193.736 -98.1255 195.497C-99.8902 197.258 -101.779 198.123 -103.853 198.123C-106.794 198.123 -108.838 197.536 -110.014 196.362C-111.191 194.91 -113.079 194.168 -115.742 194.168C-117.507 194.168 -120.727 196.207 -125.433 200.316C-130.417 204.425 -133.358 206.465 -134.225 206.465C-136.857 204.117 -140.665 202.942 -145.65 202.942C-150.356 202.942 -154.752 204.395 -158.839 207.33C-162.957 209.956 -165 212.736 -165 215.672V217C-10.8171 212.984 119.526 211.377 226.061 212.18C226.34 211.099 226.494 209.801 226.494 208.226C226.494 199.451 221.943 195.064 212.872 195.064C207.02 195.342 202.903 196.393 200.55 198.123H197.485C198.073 196.362 198.228 194.91 197.918 193.736C197.33 191.387 194.853 190.213 190.426 190.213C185.998 190.213 182.654 190.8 180.302 191.975V186.691C180.58 184.343 179.713 183.169 177.67 183.169C177.082 183.169 176.06 183.447 174.605 184.034C174.326 184.096 174.017 184.096 173.738 184.034C174.017 183.355 174.171 181.872 174.171 179.647C174.171 166.177 168.01 159.441 155.688 159.441C140.424 159.441 131.941 164.57 130.177 174.797C128.412 184.745 126.523 189.719 124.449 189.719C122.684 189.719 120.641 189.287 118.288 188.391C115.935 187.217 114.634 186.63 114.325 186.63C113.458 186.63 111.26 187.649 107.73 189.688C103.922 191.449 101.414 192.314 100.238 192.314C98.1945 192.314 96.4297 190.553 94.9436 187.031C93.7672 183.231 91.4142 181.316 87.9156 181.316C84.6957 181.316 82.2189 181.748 80.4232 182.644C80.5161 182.984 80.5161 183.262 80.4232 183.509L79.0919 184.374C79.4634 183.725 79.8969 183.138 80.4232 182.613C84.5409 173.221 86.5843 168.092 86.5843 167.258C86.5843 162.871 86.3057 159.936 85.7174 158.484C83.9527 154.374 79.8659 152.335 73.3952 152.335H72.0639C71.7543 142.511 68.9678 133.582 63.7046 125.549C56.0883 113.839 44.633 108 29.4004 108C15.0348 108 2.71257 112.109 -7.56628 120.297C-18.4024 128.793 -23.8515 139.761 -23.8515 153.231C-23.8515 158.793 -23.2632 164.632 -22.0867 170.78H-22.5202C-23.3871 169.019 -24.2849 167.567 -25.1518 166.393C-27.1952 164.354 -29.8578 163.334 -33.0777 163.334C-39.827 163.334 -46.2668 165.528 -52.4279 169.915M344.825 196.856C344.825 189.534 344.547 184.992 343.958 183.262C341.915 178.288 336.93 175.785 329.004 175.785C316.094 175.785 308.478 178.566 306.125 184.127C304.948 187.062 305.103 190.862 306.558 195.527H302.162C298.354 194.075 295.567 193.334 293.802 193.334C291.759 193.334 289.839 194.786 288.075 197.721C286.62 200.656 285.133 202.108 283.678 202.108C281.635 202.108 279.437 200.934 277.084 198.586C274.731 195.96 273.276 194.632 272.687 194.632C271.82 194.632 269.901 195.219 266.96 196.393C263.74 197.567 261.387 198.895 259.932 200.347C256.99 202.386 255.535 204.734 255.535 207.361C255.411 209.554 255.257 211.161 255.102 212.18C268.012 212.52 297.332 212.242 343.091 211.315C344.268 207.824 344.856 202.973 344.856 196.825M383.092 192.005C379.563 192.005 376.188 193.334 372.968 195.96C368.696 199.668 366.621 204.642 366.807 210.883C380.615 210.512 395.569 210.079 411.669 209.554C412.536 207.083 413 205.321 413 204.271C413 198.988 410.214 196.362 404.641 196.362C396.715 197.814 392.628 198.555 392.318 198.555C390.275 198.555 388.51 197.536 387.024 195.497C385.848 193.149 384.516 191.975 383.061 191.975L383.092 192.005Z" fill="#EFF8FF"/>
</g>
<defs>
<filter id="filter0_f_6151_71026" x="547.102" y="-888.177" width="1359.96" height="1361.85" filterUnits="userSpaceOnUse" color-interpolation-filters="sRGB">
<feFlood flood-opacity="0" result="BackgroundImageFix"/>
<feBlend mode="normal" in="SourceGraphic" in2="BackgroundImageFix" result="shape"/>
<feGaussianBlur stdDeviation="175" result="effect1_foregroundBlur_6151_71026"/>
</filter>
<filter id="filter1_f_6151_71026" x="-824.545" y="-396.497" width="1845.17" height="1529.8" filterUnits="userSpaceOnUse" color-interpolation-filters="sRGB">
<feFlood flood-opacity="0" result="BackgroundImageFix"/>
<feBlend mode="normal" in="SourceGraphic" in2="BackgroundImageFix" result="shape"/>
<feGaussianBlur stdDeviation="175" result="effect1_foregroundBlur_6151_71026"/>
</filter>
<clipPath id="clip0_6151_71026">
<rect width="1552" height="208" fill="white"/>
</clipPath>
</defs>
</svg>
