<svg width="1159" height="413" viewBox="0 0 1159 413" fill="none" xmlns="http://www.w3.org/2000/svg">
<g clip-path="url(#clip0_7928_61374)">
<path opacity="0.1" d="M1046.49 61.7893C1063.64 60.6803 1064.43 76.7355 1064.43 76.7815C1064.45 76.7712 1065.5 76.2332 1067.25 75.7219C1067.25 75.7049 1067.25 75.688 1067.25 75.6711C1068.61 75.2977 1070.32 74.9523 1072.28 74.8518C1072.33 74.849 1072.38 74.8455 1072.43 74.843C1072.5 74.8399 1072.57 74.8376 1072.64 74.8352C1074.71 74.7471 1077.06 74.9388 1079.54 75.6711C1087.7 78.0843 1088.01 84.9386 1088.01 85.1076C1088.09 85.1056 1088.21 85.1024 1088.37 85.0989C1090.68 85.0282 1104 84.7057 1116.06 86.2209C1128.96 87.7337 1125.6 94.6081 1125.41 94.9787C1126.98 94.7856 1143.97 92.6703 1152.47 90.553C1153.86 90.1886 1155.46 90.0349 1157.12 90.0481H1157.23C1166.22 90.1195 1177.25 95.0367 1169.64 97.6604C1168.28 98.1284 1161.71 98.5816 1151.52 99.0119C1151.4 99.0173 1151.27 99.0232 1151.15 99.0285C1147.48 99.1818 1143.36 99.3325 1138.86 99.4787C1138.4 99.4936 1137.94 99.5079 1137.47 99.5227C1136.51 99.5532 1135.54 99.5833 1134.54 99.6135C1132.37 99.6796 1130.12 99.7455 1127.8 99.8098C1127.03 99.8312 1126.25 99.8511 1125.47 99.8723C1123.31 99.9303 1121.11 99.9887 1118.85 100.045C1118.41 100.056 1117.98 100.068 1117.54 100.078C1115.12 100.138 1112.64 100.195 1110.12 100.253C1098.57 100.518 1086 100.764 1073.02 100.984C1072.87 100.986 1072.72 100.988 1072.56 100.99C1003.21 102.163 922.509 102.63 924.215 101.658C939.74 93.0062 971.422 92.7742 971.496 92.7737C971.496 92.7737 976.17 79.7807 986.713 78.5588C997.223 77.3411 998.877 89.3653 998.887 89.4416C998.908 89.3994 1001.3 84.6555 1006.93 82.1125C1012.58 79.5582 1017.91 80.0022 1017.91 80.0022C1017.94 79.9523 1029.35 62.7873 1046.49 61.7893Z" fill="white"/>
<g opacity="0.8" filter="url(#filter0_f_7928_61374)">
<path d="M979.462 -435.461C847.139 -639.841 574.186 -698.255 369.806 -565.932C165.425 -433.608 107.012 -160.656 239.335 43.7245C371.658 248.105 644.611 306.519 848.991 174.195C1053.37 41.8719 1111.79 -231.081 979.462 -435.461Z" fill="#0284D8"/>
</g>
<g opacity="0.4" filter="url(#filter1_f_7928_61374)">
<path d="M943.192 -411.978C823.838 -596.327 577.637 -649.016 393.288 -529.661C208.939 -410.307 156.25 -164.106 275.604 20.2432C394.959 204.592 641.159 257.281 825.509 137.927C1009.86 18.5721 1062.55 -227.628 943.192 -411.978Z" fill="#B0E0FF"/>
</g>
<path d="M914.354 -393.307C805.312 -561.73 580.382 -609.866 411.959 -500.824C243.537 -391.781 195.401 -166.851 304.443 1.57136C413.486 169.994 638.416 218.13 806.838 109.087C975.261 0.0446539 1023.4 -224.885 914.354 -393.307Z" fill="url(#paint0_radial_7928_61374)"/>
<path d="M809.548 9.81152C781.277 18.0928 741.098 -8.65936 719.807 -49.9411C698.515 -91.2227 704.173 -131.401 732.444 -139.683C760.715 -147.964 800.894 -121.212 822.186 -79.9301C843.478 -38.6484 837.819 1.53028 809.548 9.81152Z" fill="#A0D5FF"/>
<path d="M795.508 -107.003C754.68 -128.622 714.589 -123.549 705.932 -95.7381C701.381 -81.1191 706.464 -63.1717 718.156 -46.2687C702.502 -65.2329 695.022 -86.4439 700.254 -103.251C708.921 -131.094 749.049 -136.11 789.83 -114.516C809.221 -104.249 825.246 -89.7798 835.809 -74.4716C825.502 -86.9478 811.69 -98.4349 795.508 -107.003Z" fill="#3A99E4"/>
<path d="M728.743 16C730.204 11.2856 725.809 4.53356 718.899 0.87776C711.99 -2.77804 705.238 -1.92407 703.777 2.79037C702.316 7.50481 706.711 14.2568 713.621 17.9126C720.53 21.5684 727.282 20.7144 728.743 16Z" fill="#A0D5FF"/>
<path d="M720.425 2.23067C713.45 -1.46467 706.629 -0.610517 705.149 4.14369C704.38 6.61588 705.261 9.70381 707.242 12.5625C704.563 9.33427 703.306 5.71474 704.194 2.86222C705.674 -1.89199 712.494 -2.74615 719.47 0.949192C722.772 2.69832 725.518 5.18706 727.316 7.76413C725.539 5.6413 723.225 3.6771 720.435 2.19897L720.425 2.23067Z" fill="#3A99E4"/>
<path d="M455.809 51.692C458.721 42.2945 449.894 28.7347 436.121 21.4474C422.349 14.1602 408.789 15.8752 405.877 25.2727C402.965 34.6701 411.792 48.2299 425.565 55.5171C439.338 62.8044 452.898 61.0894 455.809 51.692Z" fill="#A0D5FF"/>
<path d="M439.222 24.1382C425.317 16.7721 411.619 18.4875 408.67 27.9642C407.121 32.9403 408.846 39.0598 412.846 44.8336C407.488 38.3771 404.974 31.138 406.749 25.433C409.699 15.9562 423.396 14.2408 437.301 21.6069C443.905 25.1051 449.361 30.0264 452.984 35.2686C449.486 31.0158 444.746 27.1015 439.258 24.1945L439.222 24.1382Z" fill="#3A99E4"/>
<path d="M794.556 85.6646C797.467 76.2671 788.64 62.7074 774.868 55.4201C761.095 48.1329 747.535 49.8478 744.623 59.2453C741.711 68.6427 750.538 82.2025 764.311 89.4898C778.084 96.777 791.644 95.062 794.556 85.6646Z" fill="#A0D5FF"/>
<path d="M777.969 58.1118C764.064 50.7457 750.366 52.4611 747.417 61.9378C745.868 66.9139 747.593 73.0334 751.593 78.8072C746.235 72.3507 743.721 65.1116 745.496 59.4066C748.446 49.9298 762.143 48.2145 776.048 55.5805C782.652 59.0788 788.108 64 791.731 69.2421C788.233 64.9894 783.493 61.0751 778.005 58.1681L777.969 58.1118Z" fill="#3A99E4"/>
<path d="M697.419 8.1778C692.713 23.3661 670.853 26.1309 648.593 14.3532C626.333 2.57544 612.103 -19.2849 616.809 -34.4732C621.515 -49.6615 643.375 -52.4264 665.635 -40.6486C687.895 -28.8709 702.125 -7.01053 697.419 8.1778Z" fill="#A0D5FF"/>
<path d="M670.6 -36.3347C648.137 -48.2348 626.039 -45.4676 621.274 -30.158C618.768 -22.1069 621.551 -12.2508 628.019 -2.91697C619.402 -13.3525 615.287 -25.0218 618.168 -34.2773C622.933 -49.587 645.031 -52.3542 667.494 -40.4541C678.191 -34.7874 686.987 -26.8417 692.811 -18.4021C687.15 -25.2781 679.53 -31.6042 670.6 -36.3347Z" fill="#3A99E4"/>
<path opacity="0.1" d="M595.58 40.9193C504.475 67.412 411.708 63.2523 328.339 34.5538C417.792 143.432 566.684 194.696 710.564 152.866C903.25 96.8714 1014.04 -104.726 958.004 -297.4C947.975 -331.922 933.188 -363.76 914.728 -392.53C918.496 -197.399 791.94 -16.2053 595.568 40.8788L595.58 40.9193Z" fill="#0D7CD8"/>
<path opacity="0.1" d="M643.249 95.2322C556.965 120.3 469.216 117.916 389.359 93.2012C477.834 160.476 595.902 186.45 710.811 153.008C900.568 97.8354 1010.79 -98.5287 960.571 -288.517C944.053 -112.983 822.814 42.9846 643.237 95.1918L643.249 95.2322Z" fill="#0D7CD8"/>
<path opacity="0.4" d="M252.643 92.4262C251.704 94.2549 241.492 105.76 236.503 111.284C235.916 110.808 234.214 109.57 232.101 108.427C229.46 106.998 227.7 109.57 226.526 111.284C225.352 112.999 226.232 113.285 227.7 113.57C228.873 113.799 229.362 114.808 229.46 115.285C227.015 115.285 221.068 115.57 216.842 116.713C211.56 118.142 198.648 127 200.115 127.571C201.583 128.142 219.19 124.142 222.124 122.999C224.472 122.085 232.688 122.618 236.503 122.999L247.654 135C249.317 134.238 252.819 132.257 253.523 130.428C254.227 128.6 257.142 120.904 258.512 117.285C254.501 118.237 246.304 119.856 245.6 118.713C244.72 117.285 251.175 112.713 256.751 106.427C262.326 100.141 282.574 75.2824 281.987 74.4252C281.401 73.568 281.107 73.8537 277.292 76.711C273.477 79.5683 253.816 90.1403 252.643 92.4262Z" fill="white"/>
<path opacity="0.2" d="M177.889 193.28C180.259 188.065 187.37 183.72 191.519 180.822C195.667 177.925 200.704 177.346 208.704 176.477C211.734 176.147 213.732 175.545 215.007 174.911C215.836 174.186 216.516 173.52 217 173C216.948 173.458 216.425 174.204 215.007 174.911C212.453 177.145 208.493 179.947 204.556 180.822C199.341 181.981 197.84 183.044 197.741 183.43C198.432 184.492 198.926 187.196 195.37 189.514C191.815 191.832 188.753 189.321 187.667 187.776C185.593 190.19 181.089 195.482 179.667 197.336C176.556 201.393 172.157 202.386 169.29 203.751C171.576 201.766 176.073 197.275 177.889 193.28Z" fill="white"/>
<path opacity="0.21" d="M320.124 260.336C320.124 261.409 319.475 262.056 318.177 262.279L317.071 262.003H306.175C304.728 261.748 304.005 261.058 304.005 259.954C304.005 257.141 306.697 256.122 312.07 256.897C314.113 257.194 315.964 257.693 317.635 258.394C319.305 259.094 320.135 259.742 320.135 260.336M366.568 231.152C366.568 227.564 367.143 224.549 368.292 222.107C370.59 217.255 374.867 214.888 381.145 215.004C385.592 215.121 389.859 216.671 393.934 219.665C396.349 221.406 398.148 223.349 399.329 225.493C401.85 223.126 405.276 222.001 409.617 222.107C412.66 222.139 416.033 223.179 419.736 225.217C420.034 225.398 420.311 225.589 420.566 225.769C421.236 223.073 422.343 220.493 423.907 218.051C428.248 211.501 435.398 208.327 445.378 208.507C451.645 208.656 457.785 210.694 463.786 214.612C470.68 219.124 474.17 224.453 474.245 230.589C475.766 229.889 477.66 229.56 479.916 229.591C484.778 229.698 489.024 231.906 492.652 236.195C494.844 238.743 496.599 241.407 497.94 244.189C499.536 241.195 501.738 239.783 504.558 239.974C507.378 240.123 509.804 241.97 511.846 245.527C513.772 248.818 514.57 251.981 514.24 255.018C516.134 254.646 519.209 255.166 523.476 256.568C527.743 257.969 529.817 260.283 529.7 263.5C519.465 263.426 505.75 263.203 488.545 262.831C471.383 262.502 450.166 262.481 424.918 262.778C399.701 263.107 379.772 263.171 365.132 262.948C350.491 262.725 337.532 262.523 326.253 262.332C324.402 259.041 325.178 256.78 328.594 255.559C332.009 254.306 334.265 253.935 335.382 254.455C336.425 254.933 336.957 255.177 337 255.177C337.148 255.177 337.255 255.156 337.329 255.124V255.007C337.478 253.085 337.851 251.419 338.447 250.017C339.564 247.246 341.766 245.898 345.065 245.962C347.256 245.994 349.012 246.567 350.353 247.682C350.683 245.357 351.321 243.318 352.247 241.577C354.619 237.14 358.769 234.974 364.706 235.091C365.451 235.048 366.174 235.091 366.877 235.197C366.696 234.05 366.6 232.702 366.6 231.141M292.099 261.557C291.843 261.302 291.705 260.888 291.705 260.336C291.705 259.115 292.801 258.415 294.982 258.224C297.174 258.043 298.259 258.744 298.259 260.336C298.259 260.782 298.164 261.133 297.983 261.387C297.504 261.982 296.504 262.279 294.982 262.279C293.461 262.279 292.567 262.035 292.088 261.557H292.099Z" fill="#EFF8FF"/>
<path d="M883.027 245.726C882.55 246.083 881.993 246.44 881.316 246.837C881.237 246.044 881.038 245.289 880.759 244.575C876.224 234.412 870.416 229.331 863.256 229.331C854.584 229.331 846.309 232.149 838.393 237.786C830.119 243.423 825.942 249.815 825.942 256.96C825.942 260.335 826.499 265.059 827.652 271.053C827.652 273.673 826.538 276.134 824.271 278.397C822.003 280.66 819.577 281.771 816.912 281.771C813.132 281.771 810.507 281.017 808.995 279.508C807.483 277.643 805.057 276.69 801.636 276.69C799.368 276.69 795.231 279.31 789.184 284.59C782.78 289.87 779.001 292.49 777.887 292.49C774.505 289.473 769.612 287.964 763.208 287.964C757.161 287.964 751.512 289.83 746.261 293.601C740.97 296.975 738.345 300.548 738.345 304.319V306.026C936.452 300.866 1103.93 298.801 1240.81 299.834C1241.17 298.444 1241.37 296.777 1241.37 294.752C1241.37 283.478 1235.52 277.841 1223.87 277.841C1216.35 278.198 1211.06 279.548 1208.03 281.771H1204.1C1204.85 279.508 1205.05 277.643 1204.65 276.134C1203.9 273.117 1200.72 271.609 1195.03 271.609C1189.34 271.609 1185.04 272.363 1182.02 273.871V267.083C1182.38 264.066 1181.26 262.558 1178.64 262.558C1177.88 262.558 1176.57 262.915 1174.7 263.669C1174.34 263.749 1173.94 263.749 1173.58 263.669C1173.94 262.796 1174.14 260.89 1174.14 258.032C1174.14 240.724 1166.23 232.07 1150.39 232.07C1130.78 232.07 1119.88 238.66 1117.61 251.8C1115.35 264.582 1112.92 270.974 1110.25 270.974C1107.99 270.974 1105.36 270.418 1102.34 269.267C1099.31 267.758 1097.64 267.004 1097.25 267.004C1096.13 267.004 1093.31 268.314 1088.77 270.934C1083.88 273.197 1080.66 274.308 1079.15 274.308C1076.52 274.308 1074.25 272.045 1072.34 267.52C1070.83 262.637 1067.81 260.176 1063.31 260.176C1059.18 260.176 1055.99 260.732 1053.69 261.883C1053.81 262.319 1053.81 262.677 1053.69 262.994L1051.98 264.106C1052.45 263.272 1053.01 262.518 1053.69 261.843C1058.98 249.775 1061.6 243.185 1061.6 242.113C1061.6 236.476 1061.24 232.705 1060.49 230.839C1058.22 225.56 1052.97 222.94 1044.66 222.94H1042.95C1042.55 210.316 1038.97 198.843 1032.2 188.522C1022.42 173.476 1007.7 165.974 988.127 165.974C969.669 165.974 953.837 171.253 940.629 181.773C926.706 192.69 919.705 206.783 919.705 224.091C919.705 231.236 920.461 238.739 921.972 246.639H921.415C920.301 244.376 919.148 242.51 918.034 241.002C915.408 238.382 911.987 237.072 907.85 237.072C899.178 237.072 890.904 239.89 882.987 245.527M1393.41 280.144C1393.41 270.735 1393.05 264.9 1392.3 262.677C1389.67 256.285 1383.27 253.07 1373.08 253.07C1356.5 253.07 1346.71 256.643 1343.69 263.788C1342.18 267.56 1342.37 272.442 1344.24 278.437H1338.59C1333.7 276.571 1330.12 275.618 1327.85 275.618C1325.23 275.618 1322.76 277.484 1320.49 281.255C1318.63 285.026 1316.72 286.892 1314.85 286.892C1312.22 286.892 1309.4 285.384 1306.37 282.367C1303.35 278.992 1301.48 277.285 1300.72 277.285C1299.61 277.285 1297.14 278.04 1293.36 279.548C1289.23 281.057 1286.2 282.764 1284.33 284.629C1280.55 287.249 1278.69 290.267 1278.69 293.641C1278.53 296.459 1278.33 298.524 1278.13 299.834C1294.72 300.27 1332.39 299.913 1391.19 298.722C1392.7 294.236 1393.45 288.004 1393.45 280.104M1442.58 273.911C1438.05 273.911 1433.71 275.618 1429.57 278.992C1424.08 283.756 1421.42 290.147 1421.66 298.166C1439.4 297.69 1458.61 297.134 1479.3 296.459C1480.41 293.284 1481.01 291.021 1481.01 289.671C1481.01 282.883 1477.43 279.508 1470.27 279.508C1460.09 281.374 1454.83 282.327 1454.44 282.327C1451.81 282.327 1449.54 281.017 1447.63 278.397C1446.12 275.38 1444.41 273.871 1442.54 273.871L1442.58 273.911Z" fill="#EFF8FF"/>
</g>
<defs>
<filter id="filter0_f_7928_61374" x="-85.1078" y="-890.374" width="1389.01" height="1389.01" filterUnits="userSpaceOnUse" color-interpolation-filters="sRGB">
<feFlood flood-opacity="0" result="BackgroundImageFix"/>
<feBlend mode="normal" in="SourceGraphic" in2="BackgroundImageFix" result="shape"/>
<feGaussianBlur stdDeviation="126.8" result="effect1_foregroundBlur_7928_61374"/>
</filter>
<filter id="filter1_f_7928_61374" x="-41.8949" y="-847.16" width="1302.59" height="1302.59" filterUnits="userSpaceOnUse" color-interpolation-filters="sRGB">
<feFlood flood-opacity="0" result="BackgroundImageFix"/>
<feBlend mode="normal" in="SourceGraphic" in2="BackgroundImageFix" result="shape"/>
<feGaussianBlur stdDeviation="126.8" result="effect1_foregroundBlur_7928_61374"/>
</filter>
<radialGradient id="paint0_radial_7928_61374" cx="0" cy="0" r="1" gradientUnits="userSpaceOnUse" gradientTransform="translate(609.399 -195.868) rotate(-32.9205) scale(363.291)">
<stop offset="0.798077" stop-color="#BAE2FF"/>
<stop offset="1" stop-color="#59B5FF"/>
</radialGradient>
<clipPath id="clip0_7928_61374">
<rect width="1159" height="413" fill="white"/>
</clipPath>
</defs>
</svg>
