<svg width="106" height="82" viewBox="0 0 106 82" fill="none" xmlns="http://www.w3.org/2000/svg">
<path d="M62.5375 37.3638C62.0754 37.0648 61.723 36.7934 61.4447 36.5376C61.4018 35.6755 61.2044 31.0477 61.7996 28.9782C62.3255 27.1493 71.2115 16.5103 76.1963 11.7404C77.397 10.6048 78.3608 9.82186 78.9103 9.60133C80.4045 9.00165 82.9611 9.06437 85.7274 9.13224C88.1931 9.19274 90.8255 9.25732 93.0202 8.86047C93.6244 8.74419 94.2884 8.54202 94.9867 8.2782C99.6824 6.56434 106 1.9107 106 1.9107C106 1.9107 98.8497 1.44314 90.4129 1.10701L90.4064 1.11719C84.0151 0.853992 76.8619 0.657001 71.5053 0.795728C59.7506 1.10902 50.8016 5.86136 49.6235 7.17146C49.5221 7.27339 49.4617 7.35775 49.4443 7.42153C49.373 7.66692 49.3899 8.3232 49.4124 9.19704C49.4697 11.4261 49.5635 15.0709 48.3231 16.9223C48.2144 17.0844 48.0851 17.2435 47.9381 17.3993C45.8879 19.5029 40.6534 20.99 39.8142 21.2183C39.1914 21.0349 38.5399 20.8588 37.8752 20.7019L37.8636 20.6868C35.2754 20.0832 32.5309 19.7532 30.5015 20.3856C29.4872 20.7288 28.6877 21.0682 28.1029 21.4038L28.0914 21.4328C25.9774 22.5902 25.7859 23.7504 25.782 23.7751C25.7385 23.836 25.7021 23.8969 25.6724 23.9577C25.6315 23.9704 25.5813 23.9856 25.523 24.0034C24.59 24.2868 21.5757 25.2024 21.1543 26.2968C20.6922 27.4969 21.2319 27.6498 21.439 27.2127C21.5872 26.8999 21.8228 26.8629 22.0621 26.8254C22.1572 26.8105 22.2529 26.7955 22.344 26.763C22.3724 26.7529 22.4338 26.7323 22.522 26.7027C23.0982 26.5095 24.8198 25.9323 25.9895 25.3729C26.1245 25.5367 26.2835 25.695 26.4541 25.8458C26.7854 26.144 27.1576 26.4152 27.4737 26.6453C27.8875 26.9467 28.2048 27.1778 28.2071 27.3076C28.2722 27.4538 28.7907 28.4673 29.6112 29.8198C28.8132 30.3006 26.0993 31.7252 21.5245 32.0316C15.9999 32.4017 12.4185 33.3328 10.387 36.8906C8.4556 40.3261 2.15326 60.3563 1.61178 66.2667C1.56988 66.5636 1.57172 66.8581 1.5752 67.0689C1.57531 67.085 1.57551 67.101 1.57579 67.1168C1.57652 67.1582 1.5771 67.2 1.57754 67.2421C1.59869 70.1783 0.92005 74.7853 0.446195 78.0022C0.18531 79.7732 -0.0135014 81.1229 0.000717503 81.5403C0.000455861 81.5912 0.00242036 81.6323 0.00677927 81.6631C0.129428 82.5277 7.38557 76.8174 10.3817 70.1001C11.1033 68.4787 11.9054 66.7733 12.7183 65.0933C13.2445 64.022 13.783 62.9548 14.3266 61.9122C16.4265 57.92 18.5942 54.3021 20.4302 52.2045C23.5364 48.6816 37.6017 42.3615 39.8411 41.4545C40.8127 41.0669 42.007 41.0187 43.0674 41.0795C46.7181 42.6971 50.6393 44.0737 53.2135 44.5739C56.444 45.2015 57.9097 45.7407 58.9144 46.3281C59.1078 46.6089 59.3106 46.9049 59.5177 47.2071C60.5468 48.7094 61.6816 50.366 62.2966 51.0733C63.4487 52.4611 66.66 54.8955 67.2524 54.9933C67.4642 55.0282 67.6843 55.1392 67.889 55.2425C68.2567 55.4279 68.5748 55.5884 68.7066 55.238C68.887 54.8081 67.8273 54.027 67.5599 53.8386C67.7151 53.9411 68.1656 54.2084 68.8523 54.3686C69.6345 54.551 69.2136 54.0871 68.5567 53.3632L68.4448 53.2398L68.3472 53.1317C68.2197 52.991 68.0101 52.8114 67.7417 52.6047C69.5963 52.2369 72.3568 51.1645 74.044 50.3759C74.349 50.2333 74.6233 50.0211 74.8672 49.758C76.3305 48.2501 76.7352 44.9255 76.1487 43.614L76.1801 43.6198C76.1446 43.5184 76.0883 43.4387 76.0376 43.3669C76.0075 43.3243 75.9794 43.2845 75.9587 43.2445C75.4781 42.7766 73.1063 41.8352 70.4334 40.7743C67.9399 39.7846 65.1842 38.6908 63.4577 37.7805C63.4598 37.8189 63.4625 37.8576 63.4657 37.8967C63.1122 37.7115 62.7993 37.5331 62.5375 37.3638Z" fill="#B9E3FE"/>
</svg>
