<svg width="119" height="245" viewBox="0 0 119 245" fill="none" xmlns="http://www.w3.org/2000/svg">
<path fill-rule="evenodd" clip-rule="evenodd" d="M37.3314 77.3286L36.4047 77.8594L34.0196 79.2333C33.3436 79.6333 32.4625 79.1211 32.4853 78.3267L32.6904 71.5602C23.8338 74.6406 4.73049 63.3936 0.719937 46.6886C-3.94385 27.2563 15.3417 18.5813 21.5171 18.8262C22.8691 18.8804 24.1756 19.0542 25.4441 19.3327C25.6567 18.1477 25.9454 16.9701 26.31 15.8074C32.303 -3.27156 53.3888 -1.11823 58.5919 2.18465C63.9013 5.56417 67.0915 10.7419 68.679 16.1588C78.713 13.9999 88.6254 19.6393 91.1472 23.0655C99.5101 34.4023 94.4817 50.3952 88.3064 56.6757C81.3942 63.7058 66.7497 67.7863 60.0123 66.0778L60.5288 71.6686C60.5516 71.9191 60.506 72.1714 60.3996 72.4013L60.2857 72.6125C60.187 72.7527 60.0654 72.878 59.9287 72.9808C59.7236 73.1303 59.4881 73.2275 59.2299 73.263C58.9792 73.2985 58.721 73.2686 58.4855 73.1789L56.0549 72.2406C55.2345 75.9192 53.647 87.3157 59.0552 107.341C59.473 107.047 59.8376 107.055 60.0578 107.318C60.6655 108.055 68.641 146.919 69.9019 147.962C74.8163 140.951 80.3081 138.73 85.4656 141.553C88.5722 143.246 90.2964 146.218 90.7446 149.514C90.7446 149.514 92.3625 154.837 93.3347 156.37C94.2994 157.899 96.2211 163.824 96.2211 163.824C96.2211 163.824 94.5045 162.861 92.9322 161.854C94.9298 165.619 103.764 173.583 103.764 173.583C103.764 173.583 100.733 172.202 97.1782 170.387C94.1779 168.858 90.7978 167.02 88.5342 165.447C89.1723 166.454 90.5091 167.66 91.8308 168.714C93.6462 170.159 95.454 171.323 95.454 171.323C95.454 171.323 86.9391 169.013 82.2678 165.198C89.1875 172.963 107.41 193.573 107.007 194.817C106.536 196.324 101.287 193.707 99.0088 191.264C96.73 188.806 98.3783 188.361 98.3783 188.361L80.7638 174.471C80.9537 175.109 81.4398 176.054 81.9411 177.024C82.8678 178.825 83.8401 180.709 83.0121 180.838L79.632 181.393C79.632 181.393 82.3589 191.799 94.0943 203.203C90.4712 207.059 89.5521 207.197 89.5521 207.197C89.5521 207.197 101.174 211.588 104.128 215.734C104.804 216.68 105.571 217.775 106.354 218.902L108.868 222.553C110.509 224.964 111.785 226.871 111.785 226.871C111.785 226.871 112.894 226.667 114.018 226.654C115.021 226.643 116.038 226.785 116.289 227.36C116.828 228.581 116.988 231.287 118.272 234.123C119.031 235.811 119.175 237.994 118.803 239.641C118.712 240.056 118.583 240.435 118.431 240.766C118.165 241.331 117.808 241.748 117.375 241.934C117.261 241.983 117.14 241.991 117.011 241.963C116.221 241.787 115.188 240.187 113.919 238.224C112.43 235.919 110.615 233.114 108.488 231.529C108.709 233.084 108.959 234.542 109.202 235.882L109.62 238.088C110.326 241.813 110.797 244.29 109.962 244.951C109.316 245.447 107.075 242.086 104.455 238.147C101.895 234.304 98.9708 229.91 96.7984 228.003C92.4081 224.164 85.063 218.418 85.063 218.418L84.1287 217.928L82.883 217.304C82.3133 217.024 81.6981 216.73 81.1208 216.472C80.7638 216.311 80.422 216.164 80.1106 216.042C78.3939 215.373 76.8216 213.435 75.6671 211.623C74.4517 209.717 73.6846 207.95 73.6846 207.95L68.2612 205.485C68.2612 205.485 51.7633 179.264 60.0578 160.383L63.5898 155.372C63.5898 155.372 58.7286 131.459 58.6146 124.246C58.5691 121.244 58.5691 119.3 58.5767 118.053C58.5919 116.305 58.6374 115.928 58.6374 115.928C58.6374 115.928 57.9614 115.799 57.3993 115.195C56.8448 114.599 56.4043 113.541 56.8372 111.692L56.9208 111.35L57.0195 110.985L57.2018 110.395L56.6853 109.406L37.3314 77.3286ZM41.904 62.5338C40.2481 65.6348 38.334 68.1601 36.4503 69.562L41.228 72.6256C41.3267 72.6873 41.4103 72.7602 41.4863 72.8406C41.585 72.9397 41.6685 73.0518 41.7293 73.1752C41.8508 73.3976 41.904 73.6462 41.904 73.8967C41.904 73.992 41.8888 74.0874 41.866 74.1789C41.8281 74.3304 41.7749 74.4743 41.6913 74.6089C41.5622 74.8257 41.3723 75.0051 41.152 75.1304L39.1316 76.2911L48.5275 91.8579C42.4357 76.7454 41.5318 67.6162 41.904 62.5338ZM53.366 71.205L54.08 71.4817C53.252 74.85 51.6342 85.0129 55.827 103.075C43.3472 77.5043 43.4004 65.1993 44.2739 60.545L46.4994 60.5543C46.7501 60.5524 47.0008 60.487 47.221 60.3655C47.3046 60.3207 47.3805 60.2683 47.4489 60.2104L47.6236 60.0534L47.7679 59.8552C47.8211 59.7711 47.8667 59.6814 47.9046 59.5879C47.9578 59.4477 47.9882 59.3001 47.9958 59.1505C48.011 58.9019 47.9578 58.6515 47.8515 58.4272L45.4284 53.599L45.5044 53.3672C46.2032 53.2738 46.9552 53.0981 47.7451 52.8476C48.33 52.6644 48.9377 52.4401 49.5529 52.1803C49.9783 54.5448 50.6315 56.7206 51.4822 58.5954C52.3178 60.4384 53.3356 61.9936 54.5053 63.1506C55.0067 63.6478 55.5384 64.0722 56.0929 64.4142L50.5556 68.4536C50.4036 68.5601 50.2821 68.7059 50.2138 68.8723L50.1606 69.0012L50.1454 69.1246C50.1302 69.2162 50.1302 69.3097 50.1454 69.4031C50.1682 69.5826 50.2441 69.7527 50.3581 69.8947C50.472 70.0349 50.6315 70.1433 50.7986 70.205L53.366 71.205Z" fill="white"/>
</svg>
