<svg width="24" height="24" xmlns="http://www.w3.org/2000/svg" viewBox="0 0 24 24"><path opacity="0.6" fill="#4599D8" d="M11.9,20.7c-0.5,0-1-0.2-1.4-0.6l-6.8-6.8C3.4,13,3.1,12.5,3.1,12c0-0.5,0.2-1,0.6-1.4l6.8-6.8c0.8-0.8,2.1-0.8,2.8,0l0,0l0,0l6.8,6.8c0.4,0.4,0.6,0.9,0.6,1.4c0,0.5-0.2,1-0.6,1.4l-6.8,6.8C12.9,20.5,12.4,20.7,11.9,20.7z M11.9,4.2c-0.3,0-0.5,0.1-0.7,0.3l-6.8,6.8c-0.2,0.2-0.3,0.4-0.3,0.7s0.1,0.5,0.3,0.7l6.8,6.8c0.4,0.4,1,0.4,1.4,0l6.8-6.8c0.2-0.2,0.3-0.4,0.3-0.7s-0.1-0.5-0.3-0.7l-6.8-6.8C12.4,4.3,12.2,4.2,11.9,4.2z"/><path fill="#4B78BB" d="M11.7,14.6c-0.3,0-0.5-0.1-0.7-0.3l-2.6-2.6c-0.4-0.4-0.4-1,0-1.4s1-0.4,1.4,0l1.9,1.9l7.4-7.4c0.4-0.4,1-0.4,1.4,0s0.4,1,0,1.4l-8.2,8.2C12.2,14.5,12,14.6,11.7,14.6z"/></svg>
