<svg wihdth="24" height="24" xmlns="http://www.w3.org/2000/svg" viewBox="0 0 24 24"><path fill="#4599D8" opacity="0.6" d="M12,20.8c-0.5,0-1-0.2-1.4-0.6l-6.8-6.8C3.5,13,3.2,12.5,3.2,12s0.2-1,0.6-1.4l6.8-6.8c0.8-0.8,2.1-0.8,2.8,0l6.8,6.8c0.4,0.4,0.6,0.9,0.6,1.4s-0.2,1-0.6,1.4l-6.8,6.8C13,20.5,12.5,20.8,12,20.8z M12,4.2c-0.3,0-0.5,0.1-0.7,0.3l-6.8,6.8c-0.2,0.2-0.3,0.4-0.3,0.7s0.1,0.5,0.3,0.7l6.8,6.8c0.4,0.4,1,0.4,1.4,0l6.8-6.8c0.2-0.2,0.3-0.4,0.3-0.7s-0.1-0.5-0.3-0.7l-6.8-6.8C12.5,4.4,12.3,4.2,12,4.2z"/><circle fill="#4B78BB" cx="12" cy="12" r="1.7"/></svg>
