<?xml version="1.0" encoding="utf-8"?>
<!-- Generator: Adobe Illustrator 19.2.1, SVG Export Plug-In . SVG Version: 6.00 Build 0)  -->
<svg version="1.1" id="Слой_1" xmlns="http://www.w3.org/2000/svg" xmlns:xlink="http://www.w3.org/1999/xlink" x="0px" y="0px"
	 viewBox="0 0 24 24" style="enable-background:new 0 0 24 24;" xml:space="preserve">
<style type="text/css">
	.st0{fill:#1E76E2;}
</style>
<path d="M19.7,17.6H4.3c-0.3,0-0.5-0.2-0.5-0.5s0.2-0.5,0.5-0.5h15.4c0.3,0,0.5,0.2,0.5,0.5S20,17.6,19.7,17.6z M19.7,12.5H4.3c-0.3,0-0.5-0.2-0.5-0.5s0.2-0.5,0.5-0.5h15.4c0.3,0,0.5,0.2,0.5,0.5S20,12.5,19.7,12.5z M19.7,7.4H4.3C4,7.4,3.8,7.1,3.8,6.9S4,6.4,4.3,6.4h15.4c0.3,0,0.5,0.2,0.5,0.5S20,7.4,19.7,7.4z"/>
</svg>
