<?xml version="1.0" encoding="utf-8"?>
<!-- Generator: Adobe Illustrator 19.2.1, SVG Export Plug-In . SVG Version: 6.00 Build 0)  -->
<svg version="1.1" id="Слой_1" xmlns="http://www.w3.org/2000/svg" xmlns:xlink="http://www.w3.org/1999/xlink" x="0px" y="0px"
	 viewBox="0 0 24 24" style="enable-background:new 0 0 24 24;" xml:space="preserve">
<style type="text/css">
	.st0{fill:#2D323E;}
</style>
<g>
	<path fill-rule="evenodd" clip-rule="evenodd" d="M15.1,8.9c0,1.7-1.4,3.1-3.1,3.1s-3.1-1.4-3.1-3.1c0-1.7,1.4-3.1,3.1-3.1S15.1,7.2,15.1,8.9z M14,8.9c0,1.1-0.9,2-2,2s-2-0.9-2-2c0-1.1,0.9-2,2-2S14,7.8,14,8.9z"/>
	<path fill-rule="evenodd" clip-rule="evenodd" d="M7.2,8.9c0,0.7-0.6,1.2-1.2,1.2c-0.7,0-1.2-0.6-1.2-1.2c0-0.7,0.6-1.2,1.2-1.2C6.6,7.7,7.2,8.2,7.2,8.9z"/>
	<path fill-rule="evenodd" clip-rule="evenodd" d="M18,10.2c0.7,0,1.2-0.6,1.2-1.2c0-0.7-0.6-1.2-1.2-1.2c-0.7,0-1.2,0.6-1.2,1.2C16.8,9.6,17.3,10.2,18,10.2z"/>
	<path fill-rule="evenodd" clip-rule="evenodd" d="M3.7,3.2c-1.1,0-2,0.9-2,2v7.5c0,1.1,0.9,2,2,2h16.6c1.1,0,2-0.9,2-2V5.2c0-1.1-0.9-2-2-2H3.7z M2.7,5.2c0-0.5,0.4-1,1-1h16.6c0.5,0,1,0.4,1,1v7.5c0,0.5-0.4,1-1,1H3.7c-0.5,0-1-0.4-1-1V5.2z"/>
	<path fill-rule="evenodd" clip-rule="evenodd" d="M2.6,16.7c-0.3,0-0.5,0.2-0.5,0.5c0,0.3,0.2,0.5,0.5,0.5h18.8c0.3,0,0.5-0.2,0.5-0.5c0-0.3-0.2-0.5-0.5-0.5H2.6z"/>
	<path fill-rule="evenodd" clip-rule="evenodd" d="M2.1,20.3c0-0.3,0.2-0.5,0.5-0.5h18.8c0.3,0,0.5,0.2,0.5,0.5c0,0.3-0.2,0.5-0.5,0.5H2.6C2.3,20.8,2.1,20.6,2.1,20.3z"/>
</g>
</svg>
