<?xml version="1.0" encoding="utf-8"?>
<!-- Generator: Adobe Illustrator 19.2.1, SVG Export Plug-In . SVG Version: 6.00 Build 0)  -->
<svg version="1.1" id="Слой_1" xmlns="http://www.w3.org/2000/svg" xmlns:xlink="http://www.w3.org/1999/xlink" x="0px" y="0px"
	 viewBox="0 0 24 24" style="enable-background:new 0 0 24 24;" xml:space="preserve">
<style type="text/css">
	.st0{fill:none;}
</style>
<g>
	<path d="M9.2,9.5c-0.8,0.8-0.8,2,0,2.8l2.8,2.8l0,0l0,0l2.8-2.8c0.8-0.8,0.8-2,0-2.8c-0.8-0.8-2-0.8-2.8,0l0,0l0,0C11.3,8.7,10,8.7,9.2,9.5z"/>
	<path d="M7.5,1.5C5.6,1.5,4,3.1,4,5v14c0,1.9,1.6,3.5,3.5,3.5h8.9c1.9,0,3.5-1.6,3.5-3.5V5c0-1.9-1.6-3.5-3.5-3.5H7.5z M5.1,5c0-1.4,1.1-2.5,2.5-2.5h8.9c1.4,0,2.5,1.1,2.5,2.5v14c0,1.4-1.1,2.5-2.5,2.5H7.5c-1.4,0-2.5-1.1-2.5-2.5V5z"/>
</g>
</svg>
