<svg width="35" height="24" viewBox="0 0 35 24" fill="none" xmlns="http://www.w3.org/2000/svg">
<path fill-rule="evenodd" clip-rule="evenodd" d="M28.75 16.75L27.5 14.25C27.5275 14.25 27.5525 14.25 27.5 14.25C31.31 14.1562 32.5613 12.1788 32.5613 9.875C32.541 8.71424 32.0728 7.60624 31.2547 6.78254C30.4366 5.95885 29.3318 5.4832 28.1713 5.455C22.635 5.5 24.1338 13.4763 23.75 11.75C23.0438 11.3625 22.635 10.0712 21.6425 9.825C18.9336 9.05865 16.0652 9.05865 13.3562 9.825C12.3637 10.075 11.9563 11.3625 11.2488 11.75C10.865 13.4763 12.3637 5.5 6.8275 5.455C5.66712 5.48352 4.56265 5.95931 3.74481 6.78297C2.92697 7.60663 2.45903 8.71445 2.43875 9.875C2.43875 12.1788 3.68875 14.1562 7.5 14.25C7.445 14.25 7.47125 14.25 7.5 14.25L6.25 16.75C4.54304 16.5661 2.96318 15.7613 1.81084 14.4887C0.658494 13.216 0.0140365 11.5643 0 9.8475C0.0136656 8.03889 0.736923 6.30796 2.01408 5.02729C3.29124 3.74662 5.02018 3.01862 6.82875 3C8.16242 3.01322 9.45957 3.43741 10.5434 4.21474C11.6272 4.99208 12.4449 6.08473 12.885 7.34375C12.9225 7.4325 12.9513 7.53125 12.985 7.625C14.2521 7.26612 15.5416 6.99176 16.845 6.80375C17.0616 6.76911 17.2806 6.75114 17.5 6.75C19.032 6.87933 20.5456 7.17268 22.015 7.625C22.0487 7.53125 22.0775 7.43125 22.115 7.34375C22.5551 6.08473 23.3728 4.99208 24.4566 4.21474C25.5404 3.43741 26.8376 3.01322 28.1713 3C29.9797 3.01895 31.7085 3.74705 32.9856 5.02765C34.2627 6.30824 34.986 8.03899 35 9.8475C34.986 11.5643 34.3415 13.216 33.1892 14.4887C32.0368 15.7613 30.457 16.5661 28.75 16.75V16.75ZM27.5 14.25C27.4725 14.25 27.44 14.25 27.5 14.25V14.25ZM7.5 14.25C7.56 14.25 7.5275 14.25 7.5 14.25V14.25ZM11.6475 14.25C12.0174 14.442 12.3025 14.7649 12.4474 15.1556C12.5923 15.5463 12.5865 15.977 12.4312 16.3638C12.2876 16.5561 12.0947 16.7062 11.873 16.7983C11.6513 16.8903 11.4088 16.9209 11.1712 16.8869C10.9335 16.8528 10.7094 16.7554 10.5224 16.6048C10.3355 16.4542 10.1925 16.256 10.1086 16.031C10.0247 15.8061 10.003 15.5627 10.0457 15.3264C10.0884 15.0902 10.194 14.8698 10.3513 14.6884C10.5087 14.5071 10.712 14.3715 10.9398 14.2959C11.1677 14.2203 11.4117 14.2074 11.6463 14.2587L11.6475 14.25ZM17.5 14.2437C18.875 14.2437 20 16.2063 20 18.625C20 21.0437 18.875 23 17.5 23C16.155 23 15.06 21.135 15 18.8063V18.4313C15.0563 16.105 16.1513 14.2437 17.5 14.2437ZM23.3575 14.26C23.7729 14.2882 24.1633 14.4685 24.4541 14.7665C24.7449 15.0644 24.9156 15.4591 24.9337 15.875C25.0698 16.0542 25.1583 16.2648 25.1911 16.4874C25.224 16.71 25.2 16.9372 25.1215 17.1481C25.043 17.3589 24.9125 17.5465 24.7421 17.6933C24.5717 17.8402 24.3669 17.9417 24.1468 17.9883C23.9267 18.0348 23.6984 18.0251 23.4832 17.9598C23.2679 17.8945 23.0725 17.7759 22.9154 17.615C22.7582 17.454 22.6442 17.256 22.584 17.0392C22.5239 16.8224 22.5195 16.5939 22.5712 16.375C22.4152 15.9881 22.4089 15.557 22.5535 15.1657C22.6982 14.7744 22.9835 14.451 23.3537 14.2587L23.3575 14.26Z"/>
</svg>
