<svg width="16" height="16" viewBox="0 0 16 16" fill="none" xmlns="http://www.w3.org/2000/svg">
<path d="M12.2861 2.92871C12.7406 2.92882 13.1767 3.10927 13.498 3.43066C13.8194 3.75208 13.9999 4.18805 14 4.64258V9.78613C13.9999 10.2406 13.8194 10.6767 13.498 10.998C13.1767 11.3194 12.7406 11.4999 12.2861 11.5H10.2119L8.74609 14.0713L8 13.6426L9.71387 10.6426H12.2861C12.5133 10.6425 12.731 10.5522 12.8916 10.3916C13.0522 10.231 13.1425 10.0133 13.1426 9.78613V4.64258C13.1425 4.41538 13.0522 4.19778 12.8916 4.03711C12.731 3.87646 12.5133 3.78624 12.2861 3.78613H3.71387C3.48669 3.78624 3.26905 3.87646 3.1084 4.03711C2.94776 4.19778 2.8575 4.41538 2.85742 4.64258V9.78613C2.85753 10.0133 2.94775 10.231 3.1084 10.3916C3.26905 10.5522 3.48669 10.6425 3.71387 10.6426H7.57129V11.5H3.71387C3.25936 11.4999 2.82335 11.3194 2.50195 10.998C2.18056 10.6767 2.00011 10.2406 2 9.78613V4.64258C2.00007 4.18805 2.18057 3.75208 2.50195 3.43066C2.82335 3.10927 3.25936 2.92882 3.71387 2.92871H12.2861Z" fill="#2A303E"/>
</svg>
