<svg width="24" height="24" viewBox="0 0 24 24" fill="none" xmlns="http://www.w3.org/2000/svg">
<path fill-rule="evenodd" clip-rule="evenodd" d="M6.95249 2.94277C7.62135 2.94277 8.22212 3.23434 8.63461 3.69732C8.91174 2.7674 9.77334 2.08939 10.7933 2.08939C11.8843 2.08939 12.7941 2.86507 13.0012 3.89501C13.4133 3.44112 14.008 3.15611 14.6693 3.15611C15.7 3.15611 16.5691 3.84855 16.8366 4.79363C17.2497 4.29304 17.8748 3.97395 18.5746 3.97395C19.8184 3.97395 20.8268 4.9823 20.8268 6.22615V9.77723C20.8268 10.094 20.7614 10.3954 20.6434 10.6688V12.9274L20.6104 14.0491C20.5494 16.1403 19.446 17.9976 17.7671 19.0746V21.9106C17.7671 22.2006 17.5321 22.4356 17.2421 22.4356C16.9522 22.4356 16.7171 22.2006 16.7171 21.9106V19.6138C16.3523 19.7588 15.9693 19.8707 15.5716 19.9454C15.2866 19.9989 15.0122 19.8113 14.9587 19.5263C14.9052 19.2413 15.0928 18.9669 15.3778 18.9134C17.7494 18.468 19.4905 16.4306 19.5609 14.0185L19.5934 12.9044V11.7863C19.2874 11.9418 18.9412 12.0294 18.5746 12.0294C17.5438 12.0294 16.6748 11.337 16.4073 10.3919C15.9942 10.8925 15.369 11.2116 14.6693 11.2116C14.2306 11.2116 13.8213 11.0862 13.4751 10.8693C13.1895 11.9292 12.2922 12.7383 11.1851 12.8946C12.0466 13.6252 12.5862 14.7146 12.5862 15.9181C12.5862 16.2081 12.3512 16.4431 12.0612 16.4431C11.7713 16.4431 11.5362 16.2081 11.5362 15.9181C11.5362 14.4409 10.4301 13.1976 8.96293 13.0257L8.04789 12.9185C7.77171 12.8861 7.56867 12.644 7.58488 12.3665C7.60108 12.0889 7.83092 11.8721 8.10898 11.8721H10.7933C11.7472 11.8721 12.5205 11.0988 12.5205 10.1449C12.5205 9.19096 11.7472 8.41766 10.7933 8.41766H6.46348C4.93585 8.41766 3.69746 9.65605 3.69746 11.1837V12.656C3.69746 13.1753 3.76161 13.6927 3.88844 14.1963C4.45743 16.4554 6.22551 18.2169 8.48677 18.7773L8.6673 18.8221C8.94873 18.8918 9.12033 19.1765 9.05057 19.458C8.98082 19.7394 8.69612 19.911 8.41469 19.8412L8.23416 19.7965C7.90117 19.714 7.57735 19.6091 7.26435 19.4836V21.9106C7.26435 22.2006 7.0293 22.4356 6.73936 22.4356C6.44941 22.4356 6.21436 22.2006 6.21436 21.9106V19.0525C6.21436 19.023 6.21679 18.994 6.22148 18.9658C4.57567 17.979 3.35298 16.3694 2.87024 14.4527C2.72229 13.8653 2.64746 13.2618 2.64746 12.656V11.1837C2.64746 9.71223 3.48029 8.43529 4.70029 7.79854V5.19497C4.70029 3.95111 5.70864 2.94277 6.95249 2.94277ZM11.9955 4.34158V7.32668H9.59111V4.34158C9.59111 3.67763 10.1294 3.13939 10.7933 3.13939C11.4573 3.13939 11.9955 3.67763 11.9955 4.34158ZM15.8715 8.95939V5.40831C15.8715 4.74435 15.3332 4.20611 14.6693 4.20611C14.0053 4.20611 13.4671 4.74435 13.4671 5.40831V8.95939C13.4671 9.62334 14.0053 10.1616 14.6693 10.1616C15.3332 10.1616 15.8715 9.62334 15.8715 8.95939ZM19.7768 6.22615V9.77723C19.7768 10.4412 19.2385 10.9794 18.5746 10.9794C17.9106 10.9794 17.3724 10.4412 17.3724 9.77723V6.22615C17.3724 5.5622 17.9106 5.02395 18.5746 5.02395C19.2385 5.02395 19.7768 5.5622 19.7768 6.22615ZM8.15469 7.32669V5.19497C8.15469 4.53101 7.61645 3.99277 6.95249 3.99277C6.28853 3.99277 5.75029 4.53101 5.75029 5.19497V7.32669H8.15469Z"/>
</svg>
