<?xml version="1.0" encoding="utf-8"?>
<!-- Generator: Adobe Illustrator 19.2.1, SVG Export Plug-In . SVG Version: 6.00 Build 0)  -->
<svg version="1.1" id="Слой_1" xmlns="http://www.w3.org/2000/svg" xmlns:xlink="http://www.w3.org/1999/xlink" x="0px" y="0px"
	 viewBox="0 0 16 16" style="enable-background:new 0 0 16 16;" xml:space="preserve">
<path d="M9,14H7c-0.3,0-0.5-0.1-0.7-0.3C6.1,13.5,6,13.3,6,13V9.2L2.3,5.5C2.1,5.3,2,5.1,2,4.8V3c0-0.3,0.1-0.5,0.3-0.7C2.5,2.1,2.7,2,3,2h10c0.3,0,0.5,0.1,0.7,0.3C13.9,2.5,14,2.7,14,3v1.8c0,0.3-0.1,0.5-0.3,0.7L10,9.2V13c0,0.3-0.1,0.5-0.3,0.7S9.3,14,9,14z M3,3v1.8l4,4V13h2V8.8l4-4V3H3z"/>
</svg>
