<svg width="25" height="25" viewBox="0 0 25 25" fill="none" xmlns="http://www.w3.org/2000/svg">
<path d="M15.0534 3.52051C13.5046 3.52051 12.2491 4.77606 12.2491 6.32485V8.39007C12.2491 8.66622 12.0252 8.89007 11.7491 8.89007H6.8432C4.81019 8.89007 3.16211 10.5382 3.16211 12.5712V16.4444C3.16211 18.3354 4.69505 19.8683 6.58602 19.8683H6.76751C8.55825 19.8683 10.0099 18.4167 10.0099 16.6259C10.0099 15.4511 10.9623 14.4988 12.1371 14.4988H12.1871C13.3619 14.4988 14.3143 15.4511 14.3143 16.6259C14.3143 18.4167 15.766 19.8683 17.5567 19.8683H17.7382C19.6292 19.8683 21.1621 18.3354 21.1621 16.4444V12.5712C21.1621 10.5382 19.514 8.89007 17.481 8.89007H14.2273C13.9512 8.89007 13.7273 8.66622 13.7273 8.39007C13.7273 8.11393 13.9512 7.89007 14.2273 7.89007H17.481C20.0663 7.89007 22.1621 9.98587 22.1621 12.5712V16.4444C22.1621 18.8877 20.1815 20.8683 17.7382 20.8683H17.5567C15.2137 20.8683 13.3143 18.9689 13.3143 16.6259C13.3143 16.0034 12.8096 15.4988 12.1871 15.4988H12.1371C11.5146 15.4988 11.0099 16.0034 11.0099 16.6259C11.0099 18.9689 9.11054 20.8683 6.76751 20.8683H6.58602C4.14276 20.8683 2.16211 18.8877 2.16211 16.4444V12.5712C2.16211 9.98587 4.25791 7.89007 6.8432 7.89007H11.2491V6.32485C11.2491 4.22377 12.9523 2.52051 15.0534 2.52051H16.2925C16.5687 2.52051 16.7925 2.74437 16.7925 3.02051C16.7925 3.29665 16.5687 3.52051 16.2925 3.52051H15.0534Z" fill="#2A303E"/>
<path d="M6.66064 12.0205C6.93679 12.0205 7.16064 12.2444 7.16064 12.5205V13.6727H8.31074C8.58688 13.6727 8.81074 13.8966 8.81074 14.1727C8.81074 14.4488 8.58688 14.6727 8.31074 14.6727H7.16064V15.8249C7.16064 16.101 6.93679 16.3249 6.66064 16.3249C6.3845 16.3249 6.16064 16.101 6.16064 15.8249V14.6727H5.01074C4.7346 14.6727 4.51074 14.4488 4.51074 14.1727C4.51074 13.8966 4.7346 13.6727 5.01074 13.6727H6.16064V12.5205C6.16064 12.2444 6.3845 12.0205 6.66064 12.0205Z" fill="#2A303E"/>
<path d="M17.577 14.7801C17.577 15.2363 17.2071 15.6062 16.7509 15.6062C16.2947 15.6062 15.9248 15.2363 15.9248 14.7801C15.9248 14.3239 16.2947 13.954 16.7509 13.954C17.2071 13.954 17.577 14.3239 17.577 14.7801Z" fill="#2A303E"/>
<path d="M18.8544 13.3466C19.3106 13.3466 19.6805 12.9767 19.6805 12.5205C19.6805 12.0643 19.3106 11.6944 18.8544 11.6944C18.3982 11.6944 18.0283 12.0643 18.0283 12.5205C18.0283 12.9767 18.3982 13.3466 18.8544 13.3466Z" fill="#2A303E"/>
</svg>
