<svg width="32" height="32" viewBox="0 0 32 32" fill="none" xmlns="http://www.w3.org/2000/svg">
<path d="M1.51856 12.3934L1.74523 12.7307C1.2919 12.7174 0.817229 12.6734 0.726562 12.4787C0.726562 12.4694 0.729229 12.4601 0.731896 12.4507C0.985229 12.3841 1.20256 12.3801 1.51856 12.3934ZM3.92656 13.4201L4.0359 13.7534L3.7799 13.7641L3.84123 13.4227C3.87056 13.4227 3.89723 13.4227 3.92656 13.4201ZM4.79856 15.8534C4.5719 16.0614 4.39723 16.2001 4.26256 16.5161C4.0759 16.3627 3.97856 16.0587 3.91856 15.7187C3.8519 15.3481 3.83056 14.9361 3.7799 14.6281L3.7959 14.4707L4.05856 14.4521L4.7279 15.7187L4.79856 15.8521V15.8534ZM4.4599 12.7307C4.49314 12.503 4.52737 12.2755 4.56256 12.0481L4.64923 12.0427C4.58523 12.2721 4.52123 12.5014 4.4599 12.7307ZM4.27723 9.63475L5.47723 9.96008C5.47527 9.97784 5.47349 9.99562 5.4719 10.0134C4.91323 10.4267 4.39723 10.6081 4.1199 11.3547L4.22523 9.69341L4.27723 9.63608V9.63475ZM5.39723 7.91475C5.3199 8.68808 5.42923 9.02942 5.5639 9.50941C5.77723 9.66142 5.86256 9.75342 5.79323 9.97875C5.43323 9.80008 5.0519 9.61341 4.4999 9.64275C4.48643 9.6273 4.4731 9.61175 4.4599 9.59608C4.61456 8.98675 4.9159 8.61208 5.14923 8.12941L5.39856 7.91341L5.39723 7.91475ZM7.12256 6.88542L7.17456 6.88141C7.00923 7.45208 6.94256 8.76808 6.65323 9.29075C5.96923 8.96675 5.98256 7.56275 6.7479 7.00808L7.12256 6.88542ZM6.48523 11.1121L7.06123 11.7374C6.83456 12.4334 6.40656 12.9574 6.22523 13.7641L5.88523 13.7374C5.59456 12.9254 6.32123 11.6027 6.44523 11.0107L6.97856 11.0721C7.04523 11.2387 7.10923 11.4054 7.17456 11.5734L6.48523 11.1121ZM8.06123 6.88008C8.00256 7.55608 8.1519 7.90675 8.1919 8.42941C7.85323 8.60275 7.51323 8.77341 7.17456 8.94541C7.23747 8.24568 7.40511 7.55935 7.6719 6.90942L8.06123 6.88008ZM8.4559 5.85342L8.5319 5.84808L8.41723 6.17741L8.1919 6.19208L8.36523 5.98808L8.4559 5.85342ZM8.5319 9.00675L7.51323 9.63341C7.53456 9.25475 8.01723 8.74408 8.42123 8.60275L8.51456 8.65341L8.5319 9.00675ZM9.2119 6.63608C9.14923 6.98542 9.0879 7.33342 9.0279 7.68275L8.83723 7.80275L8.7359 7.91341C8.5519 7.65475 8.50523 7.02008 8.54523 6.53742L9.2119 6.63608ZM9.88923 5.84942C9.88923 5.86275 9.88656 5.87341 9.88523 5.88408L9.62523 6.13341C9.4519 6.20008 9.43056 6.19742 9.2119 6.18942C9.2399 6.07608 9.2719 5.96275 9.30256 5.84942H9.88923ZM10.5692 4.47342L10.2652 5.16008L9.2119 5.08408L9.2159 5.02808C9.64923 4.82808 10.0292 4.59075 10.5679 4.47208L10.5692 4.47342ZM10.0199 6.26008L10.1319 6.19342L10.2292 6.53742L9.88923 6.47075L10.0199 6.25875V6.26008ZM10.9079 7.27742C10.5039 7.43475 9.94523 7.39075 9.62123 7.57075C9.59795 7.43292 9.5744 7.29515 9.55056 7.15741L9.76123 6.88141C10.1039 7.01475 10.4466 7.15075 10.7879 7.28542L10.9079 7.27742ZM10.0399 7.89608L9.57856 7.91341C9.5679 7.86541 9.5599 7.81742 9.55056 7.76808C9.87456 7.63608 10.4186 7.62408 10.9079 7.56942L10.3919 7.85341L10.0399 7.89608ZM11.2466 7.89608C10.8586 7.99341 10.4866 8.33608 10.2319 8.60275C10.1826 8.29075 10.7812 7.74142 11.0679 7.56942C11.1946 7.68275 11.2079 7.67075 11.2466 7.89608ZM11.9266 3.78542L11.9212 3.83875L11.5132 4.08542L10.9079 4.12942L10.9132 4.07608L11.9266 3.78542ZM11.3772 4.81742L11.2466 4.62408C11.5532 4.36675 12.2292 4.50808 12.6052 4.54675L11.3772 4.81742ZM14.4146 3.80408C14.9812 3.85075 15.4999 3.98408 15.8946 4.23075L15.9986 4.22408L15.9359 4.31208L15.3932 4.47208C15.0666 4.42675 14.7399 4.37875 14.4146 4.33208L12.2652 4.02675L12.2706 3.98275C12.9722 3.8161 13.695 3.75631 14.4146 3.80542V3.80408ZM16.6719 3.62275L16.5519 3.78542C16.2265 3.76214 15.9155 3.64237 15.6586 3.44142L16.6772 3.57075L16.6719 3.62275ZM18.4799 4.89475L18.7612 4.78808L19.0532 5.03875C19.0132 5.32542 18.7372 5.56008 18.5252 5.83875L18.3626 5.84942C17.9199 5.11608 17.3612 4.31475 16.3812 4.03208L16.3386 3.94542L16.7346 3.78542C17.3999 4.01742 17.9546 4.36942 18.5719 4.57208C18.6519 4.76542 18.6266 4.70008 18.4786 4.89475H18.4799ZM19.2986 6.52541L19.2212 6.44941L19.0532 6.46142L19.3332 6.19475L19.2986 6.52541ZM19.5986 10.3227C20.0572 10.7201 20.1746 11.2961 19.9839 12.0427C19.7866 11.6001 19.5906 11.1561 19.3919 10.7134C19.4586 10.6147 19.5212 10.5161 19.5866 10.4174C19.5906 10.3854 19.5932 10.3534 19.5986 10.3227ZM19.7319 7.22941L19.7266 7.29341L19.4852 7.56942L19.3919 7.38675C19.5372 7.12675 19.4319 7.26675 19.6226 7.24008L19.7319 7.22941ZM20.0146 7.22542L21.0892 7.62408C21.0879 7.66008 21.0839 7.69608 21.0799 7.73075C20.9892 7.79341 20.8986 7.85342 20.8079 7.91341L19.7319 7.51608L19.7412 7.40808L20.0146 7.22542ZM22.1079 8.60275L21.5119 8.20675L21.4292 8.04675C21.6879 7.88675 21.6506 7.89475 21.9239 7.94808C21.9839 8.16675 22.0466 8.38542 22.1079 8.60275ZM22.4466 8.47208L22.3266 8.60275C22.1826 8.52808 22.1572 8.43341 22.1079 8.25741L22.4186 8.39341L22.4466 8.47208ZM22.1932 7.48675L22.1079 7.49341C22.2012 7.40408 22.2946 7.31475 22.3906 7.22675C22.3239 7.31342 22.2572 7.40008 22.1932 7.48675ZM23.8052 9.21741L23.6386 9.29075C23.3356 9.12104 23.0329 8.95082 22.7306 8.78008C22.6357 8.65137 22.541 8.52248 22.4466 8.39341C22.9172 8.04675 22.9346 8.44941 23.3786 8.66941L23.8052 9.21741ZM24.1439 9.52141L23.8052 9.39741L24.0092 9.29075L24.1439 9.52141ZM23.7306 10.0761C23.8532 10.3227 23.8532 10.2534 24.1439 10.2161L23.6226 10.6667L23.1252 9.71741L23.1319 9.65875C23.4986 9.58008 23.6159 9.71208 23.9746 9.76541L24.1119 9.98675L23.7306 10.0761ZM23.8052 10.6934L24.4839 10.3227C24.3479 10.6294 24.1706 10.7867 23.9612 11.0107L23.8052 10.6934ZM25.1626 12.0067C24.9786 12.1654 24.8586 12.2161 24.5106 12.2454L24.7906 12.2761L24.7852 12.3254L23.8292 12.7307L23.8052 11.5041L24.4639 10.7241L24.5839 10.6667L25.1626 12.0067ZM24.8226 10.1241C26.6972 9.60141 26.3346 10.5961 25.4986 11.3547C25.2719 10.9454 25.0466 10.5347 24.8226 10.1241ZM26.5199 10.3227C25.8292 13.5681 25.6959 13.7454 23.2532 15.1401C23.2132 15.0747 23.1692 15.0107 23.1252 14.9467L23.2119 14.5841C24.8052 14.1307 25.7106 13.2961 25.6159 11.4067L26.4146 10.3801L26.5199 10.3227ZM26.6026 10.3227C26.5759 10.2107 26.5492 10.0987 26.5199 9.98675L26.7732 9.97875L26.6026 10.3227ZM22.4466 13.4787L22.4706 13.1201L22.4919 12.8134L22.7266 12.7347C22.7386 12.7347 22.7492 12.7321 22.7599 12.7307C22.8266 13.1374 22.7599 13.4374 22.6266 13.7641C22.5119 13.6907 22.4892 13.6601 22.4466 13.4787ZM21.0892 16.4894L21.0946 16.4294L21.5399 15.3641L21.6332 15.1401L22.4172 15.1934C22.4292 15.2521 22.4372 15.3094 22.4412 15.3641C22.4759 15.7694 22.3359 16.0934 22.1919 16.5161L21.0892 16.4894ZM21.4292 17.8707L21.4386 17.3374L21.4519 17.2041L22.0252 17.2467L22.1079 17.2401C21.9759 17.4574 21.8452 17.6747 21.7159 17.8934L21.4292 17.8707ZM21.0932 15.6441L21.1279 15.6267L21.3986 15.4867L21.4292 15.4841L21.3892 15.6267L21.2306 16.1721L21.0892 15.6867L21.0932 15.6441ZM20.5639 17.3574L20.4106 17.2041C20.5599 17.3081 20.4626 17.2067 20.5639 17.3574ZM19.7319 16.9481C19.9226 16.8281 20.1292 16.8654 20.4119 16.8681L20.3279 17.1441C20.0946 17.2374 20.0612 17.2027 19.7986 17.1747L19.7319 16.9481ZM20.1479 18.2361L20.4106 18.8574C20.2079 18.9947 20.0039 19.1307 19.8012 19.2694C19.6199 19.0201 19.8172 18.3227 20.1479 18.2361ZM19.4772 16.0761L19.3919 16.0827L19.5039 15.8281L19.4772 16.0761ZM20.4546 16.1721L20.4106 16.1441L20.5599 15.8294L20.6092 15.8281L20.7506 16.1587L20.4546 16.1721ZM22.8052 11.6987L22.7866 11.5827C22.8759 11.4734 22.9332 11.4054 23.0866 11.3561L23.1266 11.5587C23.0599 11.6027 22.9932 11.6454 22.9279 11.6907L22.8052 11.6987ZM22.7866 12.5387C22.7252 12.6201 22.6159 12.6654 22.5386 12.7307L22.4466 11.0107L22.7866 12.5387ZM22.1639 14.8454C22.3879 14.7201 22.4199 14.8361 22.4466 15.1387H21.7679L21.7799 15.0321L22.1639 14.8454ZM21.8306 13.8947L21.9839 13.7641L22.1079 13.9854L22.0506 14.1081L21.7679 14.0747L21.8306 13.8947ZM21.7679 14.8067L21.4146 15.1401L21.1839 15.1014L21.0906 15.1107C21.1439 15.0054 21.1999 14.9001 21.2546 14.7961L21.7679 14.8067ZM20.4879 14.6107C20.3466 14.5121 20.4479 14.5254 20.4212 14.4507L20.4879 14.6107ZM21.5572 13.0747L20.4106 12.4801C20.4639 11.6934 20.5599 10.7894 20.4826 9.97875C21.3666 10.2987 22.1599 11.7374 21.5572 13.0747ZM20.7506 13.0747C21.0319 13.2241 21.0172 13.3601 21.4079 13.4801C21.4759 13.7347 21.3719 13.8361 21.2092 14.1067L20.7932 14.0907C20.7079 13.6374 20.8012 13.3774 20.7506 13.0747ZM20.8279 15.3001C20.6852 15.2014 20.7879 15.2147 20.7612 15.1401L20.8279 15.3001ZM23.1252 11.9881L23.1292 11.9241L23.4359 11.6987C23.4892 12.0507 23.4692 12.6374 23.3892 13.0747C23.2079 12.9334 23.1746 12.3361 23.1252 11.9881ZM23.1252 13.0747C23.1946 12.9601 23.2639 12.8454 23.3306 12.7307L23.2106 13.0694L23.1252 13.0747ZM25.1052 12.0467L25.1626 12.0427C25.1786 13.3614 24.3652 13.6014 23.2959 14.0961L23.1252 14.1081L23.7919 12.7267L25.1052 12.0467ZM23.0919 9.47075C23.1026 9.50541 23.1146 9.53875 23.1239 9.57341L23.0399 9.63475L22.7852 9.29075L23.0919 9.47075ZM22.7852 10.0441L22.7946 9.98408C22.8194 9.98209 22.8443 9.98032 22.8692 9.97875L23.1252 10.3227C22.9279 10.2294 22.8959 10.2067 22.7852 10.0441ZM23.1239 10.9241L22.6666 11.3547L21.6839 9.92808L20.4092 8.82141L20.6892 8.60275C21.3066 8.86942 22.3866 9.37741 22.6039 10.0121C22.6746 10.2187 22.4306 10.3894 22.5959 10.5614C22.7932 10.7667 22.9906 10.6201 23.1252 10.9227L23.1239 10.9241ZM20.2599 13.0747L20.3639 13.1161L20.4092 14.1081L20.2506 14.0707C20.1012 13.9601 19.9972 13.4481 20.1332 13.2254L20.2599 13.0747ZM19.5079 14.8001L19.6172 14.7961L19.7306 15.0654L19.5572 15.1321L19.3906 15.1401C19.4306 15.0267 19.4706 14.9134 19.5079 14.8001ZM19.1986 20.3014L19.0519 19.7987C19.2612 19.7387 19.4692 19.6787 19.6786 19.6161L19.7319 19.6134C19.7292 19.6289 19.7269 19.6445 19.7252 19.6601L19.1986 20.3014ZM18.7119 18.9254C18.7746 18.7227 18.8186 18.6921 18.9319 18.5801L19.0252 18.6174L19.0519 18.7054L18.8426 18.9107L18.7119 18.9241V18.9254ZM18.8719 19.2694L18.7119 19.0934L19.0519 18.9254L18.9639 19.2627L18.8719 19.2694ZM18.5146 20.8294C18.4666 20.7921 18.4212 20.7534 18.3732 20.7134L18.4772 20.7067L19.0012 20.3014L19.0519 20.7147L18.6506 20.9894L18.5146 20.8294ZM18.5412 24.7707C17.7239 24.8054 17.2346 24.5974 16.5679 24.5387L15.8039 23.0281L15.6572 22.8761C16.9399 22.7241 17.7466 22.1054 18.6972 21.6774C19.0332 21.9974 19.7946 23.6267 19.1239 24.3481C18.9639 24.5947 18.7852 24.6201 18.5412 24.7707ZM15.0319 23.0734L15.3386 23.0534C15.8012 23.3641 16.1159 23.9201 16.3372 24.4307L14.9786 24.0374C15.0799 23.6934 15.1226 23.3441 15.0319 23.0734ZM14.0559 21.7747L15.5866 21.3334L17.9919 21.5681L18.0346 21.6894C17.3186 22.0121 16.5039 22.2841 15.6826 22.7001C14.7932 22.7707 14.5786 22.4387 13.9626 22.2201L14.0559 21.7747ZM13.9612 23.3961L13.9919 23.0974L14.5772 23.0534C14.6252 23.3134 14.6759 23.4587 14.6039 23.7414L13.9612 23.3947V23.3961ZM13.2812 23.9347L13.5092 23.8094C13.7892 23.6241 13.9986 23.8707 14.2999 23.9681L14.1799 24.0854L13.2812 23.9347ZM13.9412 23.3974C13.8673 23.3645 13.7935 23.3312 13.7199 23.2974L13.6212 23.0534L13.9612 23.0747L13.9412 23.3974ZM12.9426 23.3974L13.2826 23.6894C13.2826 23.8694 13.2666 23.8494 13.2252 24.0854L12.9426 23.3974ZM12.0626 22.1081C12.3812 22.0107 12.8052 22.0321 13.2826 22.0214L12.8386 22.3654L11.9252 22.2761L12.0626 22.1081ZM11.2466 4.86408C11.8772 4.26142 13.4586 4.44142 13.8546 4.82408L13.9612 4.81475C13.4346 5.30675 12.6186 5.36275 12.1172 5.84942C11.7239 5.58808 11.3986 5.42008 11.2466 4.86408ZM14.7132 5.84942L14.9799 6.15208C14.7426 6.16541 14.4932 6.18008 14.2439 6.20142C13.6826 6.24941 13.1279 6.33342 12.7399 6.53475L12.6892 6.53742C12.6612 6.49345 12.6332 6.44945 12.6052 6.40542C13.2421 6.07131 13.9453 5.88278 14.6639 5.85342L14.7132 5.84942ZM16.0359 4.12942C16.4746 4.56942 17.1292 4.83075 17.3559 5.50542C16.4359 5.07742 15.0199 5.08408 14.3026 4.40275C14.9346 4.53742 15.4732 4.48675 16.0359 4.12942ZM16.3386 6.53742L17.5972 6.71075L17.6959 6.70275L16.6866 7.56942C16.5266 7.25075 16.4892 6.81875 16.3386 6.53742ZM17.9559 8.00941L17.6959 7.96942L18.0346 7.91341L17.9546 8.00941H17.9559ZM17.6959 7.18675L18.0066 6.88141L18.0346 7.22542L17.8092 7.17608L17.6959 7.18675ZM18.3119 18.5734L18.1626 18.5801L18.0346 18.4601L18.1332 18.3307L18.3732 18.2374L18.3119 18.5734ZM18.0412 19.2027C18.0812 19.1547 18.1239 19.1067 18.1666 19.0587L18.1772 18.9254L18.3746 19.2387L18.0346 19.2694L18.0412 19.2027ZM17.9066 20.3014L17.6959 20.0481L18.3746 19.9574L18.0506 20.2907L17.9066 20.3014ZM18.0346 21.3334L17.3559 21.2521L17.8359 20.9894L18.0346 21.3334ZM17.5586 20.3627L17.6959 20.4934L17.2039 20.6187L16.6772 20.6454L17.4106 20.3014L17.5586 20.3627ZM15.6599 5.50542C16.0559 5.51608 16.4746 5.61608 16.6772 5.84942C16.4039 5.82275 15.9119 5.86675 15.7879 5.65608L15.6599 5.50542ZM16.0039 6.88141C16.1972 7.05075 16.2652 7.25075 16.2306 7.56942C15.9319 7.46675 16.0092 7.14008 16.0039 6.88141ZM16.3372 9.05075L16.3492 8.99208C17.0252 8.84542 17.1706 9.08008 16.8626 9.29075C16.5959 9.25342 16.4746 9.15341 16.3372 9.05075ZM17.2079 17.8921L17.3559 17.9294C17.3539 17.9454 17.3521 17.9614 17.3506 17.9774L17.0172 18.2361L17.1559 17.8961L17.2079 17.8921ZM17.0212 9.50008L17.2746 9.29075L17.3559 9.63475L17.0172 9.56008L17.0199 9.50008H17.0212ZM18.0346 18.7001L17.2146 18.9147L17.0172 18.9241C17.0172 18.9134 17.0199 18.9014 17.0226 18.8907C17.3292 18.8294 17.5266 18.7281 17.7079 18.5801L17.9959 18.6334L18.0346 18.7001ZM17.4492 17.8921L17.3559 17.7014L17.5892 17.5481L17.6959 17.6054L17.5626 17.8827L17.4492 17.8921ZM15.3199 20.2721L15.7239 19.9574L16.9746 20.0641L17.0172 20.1574L16.1719 20.6454C15.8586 20.5934 15.5879 20.4547 15.4252 20.2641L15.3199 20.2721ZM14.6919 20.3014L15.3186 20.6454L14.3012 20.4654C14.4319 20.4121 14.5612 20.3561 14.6919 20.3014ZM14.6412 21.0041C14.6398 21.0316 14.6384 21.0592 14.6372 21.0867L14.4439 21.1934L14.3012 21.2121L14.3066 21.1294C14.4546 20.9334 14.4292 20.9987 14.6399 21.0041H14.6412ZM13.0412 7.00008C13.0091 6.96557 12.9766 6.93135 12.9439 6.89741C13.2812 6.71341 13.8132 6.62542 14.3359 6.58408C14.7666 6.54808 15.1906 6.54408 15.4946 6.53742L15.6599 7.56942C15.2159 7.52141 14.7932 7.46275 14.3359 7.44275C13.9407 7.42316 13.5446 7.43744 13.1519 7.48541C13.1157 7.32347 13.0789 7.16169 13.0412 7.00008ZM13.5399 20.8067L13.6226 20.9534L13.5426 21.2614L12.6052 21.3334C12.7052 21.0267 12.8546 20.8787 13.0159 20.6454L13.5399 20.8067ZM12.3826 19.6134C11.9559 19.5894 11.3719 19.2774 11.2466 18.9254L12.6052 19.2707L12.3826 19.6134ZM12.8599 19.5947L12.6052 19.6134L12.6132 19.5307L12.8959 19.2694C12.8826 19.3774 12.8719 19.4854 12.8599 19.5947ZM11.9266 7.01208L12.3399 6.88141L12.6052 7.21475L12.3252 7.22542L11.9266 7.01208ZM11.9212 21.7854C11.8986 21.8601 11.8786 21.9361 11.8572 22.0121C11.8239 22.0134 11.7906 22.0174 11.7586 22.0214C11.7014 21.9067 11.6441 21.792 11.5866 21.6774L11.9266 21.7121L11.9212 21.7854ZM12.1092 20.3014L12.9012 20.4614L12.9439 20.5681L12.3292 21.3334L11.5866 21.2241L12.1092 20.3014ZM18.0346 9.51742L18.1879 9.29208L18.2439 9.29075L18.6706 9.39741L18.7132 9.45875L18.2372 9.63475C18.1698 9.59549 18.1022 9.55638 18.0346 9.51742ZM18.9532 8.40541L18.7132 8.25875C18.9572 8.34808 18.8172 8.24675 18.9532 8.40541ZM18.8759 9.97875L18.7132 9.84008L19.0532 9.63475L18.8759 9.97875ZM18.7132 12.3867L19.2412 12.5174C19.3839 12.5734 19.3799 12.5881 19.3919 12.7307C19.1652 12.6441 18.7866 12.5841 18.7132 12.3867ZM18.7666 11.4494L18.8386 11.3561L19.0532 11.6987L18.7132 11.6321L18.7666 11.4494ZM11.8906 22.7707L11.9266 22.8614L11.4692 23.0361L11.2466 23.0534L11.2519 23.0067L11.4079 22.7627C11.6239 22.6627 11.6292 22.7281 11.8906 22.7707ZM10.9079 5.50408C11.2039 5.72541 11.2812 5.99741 11.2346 6.88141C11.0399 6.63208 10.9212 6.10275 10.9079 5.50542V5.50408ZM11.1026 4.81742L11.0786 5.06675L10.9092 5.07875L11.1039 4.81742H11.1026ZM10.9079 5.16142C10.8986 5.24408 10.8919 5.32675 10.8812 5.40942L10.5679 5.35208L10.8266 5.16675L10.9066 5.16142H10.9079ZM10.9079 25.1187L11.0759 23.3667L12.2652 23.0534L11.0146 25.0547L10.9079 25.1187ZM10.9919 20.4094L11.1746 20.3014C11.3412 20.4987 11.1919 20.7827 11.0346 20.9894C10.9039 20.8667 10.8892 20.7894 10.9239 20.5107L10.9919 20.4094ZM9.88923 20.2414L10.2799 19.6134L10.9066 19.9814C10.6932 20.3174 10.4759 20.6534 10.2599 20.9894C10.0652 20.8161 9.94523 20.5614 9.88923 20.2427V20.2414ZM9.88923 22.9361L10.5159 22.3654L10.8106 22.3921L10.9079 22.5521C10.8812 22.7201 10.8572 22.8867 10.8332 23.0534L9.88923 22.9361ZM8.8719 22.4694L9.61856 22.0214L10.1866 22.1107L10.2292 22.1894L9.63056 22.7094C9.3319 22.6787 9.13323 22.5987 8.97723 22.4627L8.87056 22.4694H8.8719ZM8.7719 21.8041L9.04523 21.6774L9.16256 21.7027L9.21056 21.7587L8.4199 22.0214L8.19323 21.9414L8.7719 21.8041ZM7.85323 21.4814L8.05323 20.9974C8.4239 20.9494 8.5119 21.1321 8.79056 21.2481L8.87056 21.3707L8.4559 21.6547L8.11856 21.6774L7.85323 21.4814ZM7.17323 22.8934L7.6679 22.0214C7.9959 22.0214 8.0359 22.0481 8.17056 22.2214C8.23056 22.3227 8.17856 22.2681 8.0479 22.2907L8.01723 22.5907L8.5319 22.6707C8.43056 22.9227 8.41456 22.8894 8.26256 23.0494C7.7559 23.0761 7.52656 22.9801 7.17323 22.8934ZM6.60256 21.6774L7.46523 21.9374L7.51323 22.0401L6.9599 22.7094L6.1559 22.4454L6.60256 21.6774ZM3.27856 20.7467L3.28923 20.6441L3.77056 21.0147L3.8119 21.1134C2.81056 21.8867 4.34256 24.4067 6.08523 22.7734L6.83456 23.0747C6.54656 23.5881 6.0519 23.7907 5.53056 24.0814C4.2839 24.1854 2.5399 22.1494 3.27856 20.7467ZM4.44123 21.0987L4.4599 21.3321C4.36656 21.2614 4.27323 21.1934 4.18256 21.1227L4.1199 20.9881L4.44123 21.0987ZM6.1559 22.5601L5.5359 23.0401C4.31456 23.1681 3.8199 22.3227 3.7799 21.2841L4.01856 20.9961L4.12256 20.9881C4.73723 21.4721 5.28123 22.2107 6.1159 22.4547L6.1559 22.5601ZM4.97323 17.5467C4.86256 17.4667 4.8559 17.4267 4.7999 17.2907L5.0319 16.4081L5.30256 16.1707L5.47723 16.4267L4.97323 17.5467ZM4.7999 17.8441L5.33456 16.5787L5.4439 16.5147C5.69056 16.9494 6.0479 17.1467 6.1559 17.7374L5.35056 18.5787C5.10014 18.3922 4.90855 18.1377 4.79856 17.8454L4.7999 17.8441ZM5.81723 18.8974L6.49723 18.2347L6.83456 18.9241C6.4959 18.9134 6.15723 18.9054 5.81723 18.8974ZM7.51323 11.9441C7.1919 12.6307 6.7639 13.0974 6.5079 13.7627C6.3959 13.1587 7.07056 12.2907 7.2879 11.7574L7.3919 11.6974L7.51323 11.9441ZM7.51323 10.0507C8.01856 9.89475 8.35723 9.60942 8.71856 9.28941L8.8719 9.74808L8.44256 10.3214L7.51323 10.0507ZM9.21056 10.0867L9.02656 10.3214L8.8719 10.2947L8.87456 10.2574L9.1839 9.97741L9.21056 10.0867ZM8.9439 8.60408L8.99723 8.60141L9.21056 9.05075L9.13056 9.28941C8.8199 9.12675 8.8319 8.93341 8.9439 8.60408ZM8.8799 18.5787L9.19323 18.8041L8.8719 18.6627C8.8737 18.6347 8.87637 18.6067 8.8799 18.5787ZM8.87456 18.9241L9.21056 19.0694C9.20856 19.0827 9.20678 19.0961 9.20523 19.1094L8.48523 19.6121C8.27856 19.5187 8.25323 19.3334 8.1919 19.1321L8.19856 19.0894L8.87456 18.9241ZM7.87056 18.2347L8.19323 18.3654L8.0199 18.4654L7.85323 18.4841L7.87056 18.2347ZM7.85323 11.3547C8.26123 11.4694 8.1319 11.3921 8.14923 11.6974C7.96256 11.5881 7.94923 11.5374 7.85323 11.3547ZM7.85323 17.5001L7.88123 17.2027C8.0399 17.3134 8.09456 17.3787 8.19323 17.5467C8.07993 17.531 7.9666 17.5154 7.85323 17.5001ZM8.53323 13.2027C8.40523 13.3667 8.41056 13.3227 8.19323 13.4174L8.34123 13.0734L8.53323 13.2027ZM8.53323 11.8187L8.3199 12.0414C8.10656 11.9214 8.20656 11.9694 8.30256 11.7467L8.42923 11.6974L8.53323 11.8187ZM8.50523 11.2334L8.19323 11.0094C8.43323 11.1014 8.37723 11.0454 8.50523 11.2334ZM7.85323 17.5467L8.19323 17.8174C8.0199 17.8134 7.92656 17.7761 7.85323 17.5467ZM8.8719 17.5334L8.73323 17.5467L8.61456 17.3281L8.5319 17.2214L8.7159 17.2027C8.7679 17.3134 8.81856 17.4241 8.8719 17.5334ZM8.68523 11.1627L8.5319 11.0107C8.68123 11.1147 8.58256 11.0134 8.6839 11.1641L8.68523 11.1627ZM8.70523 16.8294L8.5319 16.4694L8.60523 16.1734L8.6479 16.1707L8.8719 16.8587C8.81636 16.8489 8.7608 16.8391 8.70523 16.8294ZM7.8159 20.8334L7.85323 20.8787L7.7319 21.3334C7.5891 21.2741 7.46335 21.1802 7.36603 21.0601C7.26871 20.9399 7.2029 20.7974 7.17456 20.6454L7.8159 20.8347V20.8334ZM6.83456 21.3334L7.17456 21.6347C6.95723 21.5387 6.9439 21.5427 6.83456 21.3334ZM7.42123 18.2827L7.46123 18.5801L7.17456 18.2361L7.42123 18.2827ZM7.08523 19.8921L6.83456 19.2694C7.1319 19.3827 7.3639 19.7227 7.51456 19.9574L7.08523 19.8921ZM7.3519 13.7667L7.4359 13.7641L7.1879 14.1081C7.1479 14.0227 7.19723 13.9414 7.33456 13.8414L7.3519 13.7667ZM7.17456 16.7241L7.10656 16.8601L6.9119 16.7094C6.88609 16.6548 6.86031 16.6001 6.83456 16.5454L7.10123 16.5161L7.17456 16.7241ZM4.79856 19.6134C5.47856 20.0561 6.63456 20.4667 6.83456 21.3334C6.02834 20.9308 5.33022 20.341 4.79856 19.6134ZM6.56256 19.2801L6.83456 19.6134L6.1559 19.2694L6.56256 19.2801ZM9.0479 20.3014L8.5319 19.7814L9.43456 18.9254L9.55056 19.8681L9.0479 20.3014ZM9.55056 20.8761L9.6399 20.6521L9.7599 20.6454L9.88923 20.9894L9.55056 20.8761ZM10.0079 19.6134L9.88923 19.2694L10.1359 19.3147L10.0079 19.6134ZM9.55056 8.02675L9.55323 7.99608C9.66523 7.96942 9.77723 7.94275 9.88923 7.91341L9.65456 8.25741L9.55056 8.02675ZM6.1279 15.1401L5.81723 14.4521C6.2159 14.5387 6.15056 14.8227 6.1279 15.1401ZM5.29723 15.4841C5.00656 15.2827 4.82123 14.8814 4.79856 14.4521C5.39456 14.5921 5.36123 14.8267 5.47856 15.3707L5.29723 15.4841ZM4.94656 13.6881C4.51323 13.2787 5.1439 11.6414 5.42123 11.2641C5.5679 11.0787 5.7519 11.0827 5.99456 11.0107L6.1559 11.0521C5.7479 11.7747 5.47323 12.7587 5.3759 13.7641L4.94656 13.6881ZM4.31323 19.2694L4.5199 19.6174L4.33456 20.0507L4.2279 20.1641C4.3799 20.1854 4.41456 20.0547 4.64123 19.8694C5.08123 20.5827 5.75323 21.2654 6.49456 21.6534L6.09056 22.3654L4.8639 21.5761C4.7239 21.3161 4.91723 21.0174 4.6919 20.8587C4.4879 20.7147 4.22523 20.9227 4.01723 20.8601L3.44123 20.3321C3.61056 19.9534 3.77323 19.5827 4.1079 19.3894L4.31323 19.2694ZM3.1399 15.4747C3.18617 15.1316 3.25251 14.7915 3.33856 14.4561L3.3839 14.4521L3.56123 15.4747L3.65456 16.0081C3.92123 16.7521 4.19056 17.4947 4.4599 18.2361C3.81456 17.8841 3.4159 17.0694 3.47323 15.9734C3.31856 16.3267 3.44656 16.8827 3.49723 17.1947C3.10123 16.8587 3.0519 16.1907 3.1399 15.4747ZM2.55056 15.8281C2.4889 15.6979 2.45011 15.5581 2.4359 15.4147C2.4169 15.2218 2.41869 15.0273 2.44123 14.8347L2.4999 14.7121L2.76256 14.4521L2.61456 15.4134L2.55056 15.8267V15.8281ZM26.1799 19.2681L25.5012 19.0067L26.1599 18.9254L26.1799 19.2681ZM8.2199 24.8681L8.39723 24.7747L8.1919 25.1174L8.21856 24.8694L8.2199 24.8681ZM3.10123 13.0761L2.8119 13.0494C2.4519 12.9307 2.11456 12.5107 2.0839 12.0441C2.63456 12.0934 2.82123 12.3547 3.09323 12.6734C3.0959 12.8067 3.0999 12.9414 3.10123 13.0761ZM3.06123 13.0481C3.10123 12.3054 2.53456 11.8414 1.79856 11.8614C1.9239 10.8187 2.83056 10.2854 3.63856 9.93475L3.79456 9.92275C3.6599 11.2321 3.76256 12.3601 3.27323 13.4934C2.9119 14.3281 1.63056 14.3121 1.6999 15.6001L1.70923 15.7067C1.8919 17.4187 3.75323 17.7667 4.01056 19.2721C1.25056 20.6761 4.61456 26.5761 6.79723 23.1107C7.18923 23.1667 7.53723 23.3441 8.0239 23.1734C8.25056 23.0481 8.29456 22.9467 8.38256 22.6854L9.16256 23.0894L9.20256 23.1881C8.4879 23.7427 7.9839 24.5041 7.2159 25.0241L7.28923 24.8134L7.08923 24.7774L6.97856 24.8374L6.87856 25.3041C7.31723 25.7521 8.64656 24.1321 9.0359 23.8147C8.8159 24.5841 8.2719 24.9801 7.96923 25.6841L8.06256 25.7801C8.6359 25.3694 9.33856 24.2067 9.44523 23.3227L10.3039 23.4654C9.2279 24.9201 6.4639 28.1201 5.01056 28.9747C5.2319 28.2801 5.5839 27.7494 5.76256 27.1787L5.65856 27.1867C5.62756 27.1546 5.59645 27.1226 5.56523 27.0907C5.2119 27.7867 4.62923 28.2761 4.52523 29.2147C4.58736 29.3078 4.66599 29.3887 4.75723 29.4534C6.48523 29.1654 9.37056 24.8227 10.7492 23.6361C10.3759 27.3827 8.3679 27.9667 6.62656 30.2361C8.20923 29.4467 9.16923 27.4334 10.5226 26.3161C10.3732 27.8801 10.0012 31.3774 9.06523 32.0001L9.2199 31.9881C10.2706 31.3347 10.3319 28.6481 10.6826 27.2747L10.8319 25.8307L12.3319 23.7241L12.4412 23.6641C12.6092 24.1907 13.3692 24.7627 14.1919 24.6094L14.7826 24.3614L16.2652 24.9161C16.4599 27.0494 16.3852 28.2454 15.0346 29.8694C16.4146 29.1641 16.9212 26.4467 16.4612 25.0041C19.6706 25.3761 19.5412 24.2934 18.9332 21.9561L19.4972 21.9654C19.3932 21.8094 19.1119 21.9254 18.8972 21.8054C18.7999 21.7427 18.8186 21.7547 18.7586 21.6614C19.5212 20.8014 21.3586 21.6561 20.9719 23.0841C21.4999 21.9001 20.3332 20.8467 19.2092 21.2707C19.6892 20.7014 20.2706 20.2334 20.5746 19.4801L20.6839 19.4214L23.3239 22.1947L23.4799 22.1827L23.5999 22.0201C22.7599 21.0254 21.9212 20.0294 21.0839 19.0334L21.3532 18.9107C21.4128 18.8493 21.4859 18.8027 21.5667 18.7747C21.6475 18.7467 21.7338 18.738 21.8186 18.7494C21.7741 18.7273 21.7296 18.7051 21.6852 18.6827C23.0332 18.8174 24.7559 19.9414 26.1626 19.5787C26.2919 19.3534 26.2986 19.2321 26.2199 19.0121C27.7186 19.0494 30.4146 18.5481 31.2732 17.8201C28.9666 18.3041 26.3692 18.4681 24.2519 18.1854L22.3759 17.9654L22.2706 17.9734L22.7759 17.0667C24.3226 17.0374 28.3786 16.9987 29.1986 16.0281L29.0172 15.7854L28.3106 15.6841C28.2492 15.7747 28.2399 15.8601 28.2306 15.9467L28.7906 16.0067C27.5746 16.3134 24.1879 16.9601 23.0826 16.5827C22.9666 16.4414 23.0519 15.9507 23.0572 15.5974C23.0592 15.5342 23.0565 15.4709 23.0492 15.4081C24.6386 14.9334 25.8186 13.8641 26.3026 12.2507C26.5786 11.3267 26.3959 10.1134 26.9932 9.53741C27.3746 9.57075 27.4519 9.73208 27.7319 9.84141C27.5839 9.63608 27.3719 9.52141 27.1066 9.42808L26.6092 9.77075C26.1546 9.94675 25.6786 9.48675 24.9066 9.84541C24.2799 9.30941 23.9266 8.46275 23.0799 8.13875L22.9932 7.99208L24.0199 6.99341C23.6839 7.27475 23.3412 7.60675 22.9986 7.94008L22.3106 7.63208L22.2706 7.53208C23.0546 6.97742 23.7506 6.77208 24.6426 6.94808C24.6839 7.03075 24.7279 7.11208 24.7706 7.19475C24.7292 7.26541 24.6919 7.28542 24.6559 7.30542L24.3559 7.22542C24.4852 7.30141 24.6199 7.32542 24.7546 7.34941L24.8679 7.23875L24.8852 7.08408C24.6906 6.91075 24.6306 6.78542 24.2479 6.77208L24.4306 6.50275C23.9932 6.80408 23.1052 6.88408 22.6706 7.14542L23.6759 6.35342L23.7959 6.19208L21.9359 7.30141C21.5386 7.27475 21.1159 7.08808 20.9012 6.86542C20.867 6.86805 20.8328 6.87072 20.7986 6.87341L23.0066 5.38008L22.9706 5.22942C22.1332 5.71742 21.2946 6.20541 20.4586 6.69475L19.6559 6.49742L19.7306 5.77608L25.4866 1.25608L25.5892 1.24808L25.5079 1.04942C25.2946 0.948082 24.4186 1.65875 24.0879 1.87075C22.8132 2.68808 21.6866 3.70542 20.4332 4.44408C20.9506 3.78675 21.8972 3.13208 22.0546 2.17475L21.8012 2.14275L21.4066 2.47875L21.8359 2.29208C21.5586 3.13608 20.3026 4.64275 19.5932 5.12008L19.5106 4.92142C19.9719 4.14542 20.4266 3.10142 20.2132 2.10542L19.8266 1.87875L19.4119 1.90942C19.6772 2.01475 19.8572 2.04008 20.0519 2.16942C20.1759 3.13475 19.7012 3.78808 19.4452 4.56942L19.3359 4.62808C19.1652 4.31208 19.1759 4.16008 18.8252 4.10275L18.7946 3.90008L19.0346 3.57475L19.1999 3.46008C19.2559 3.56675 19.2586 3.52808 19.2759 3.71075C19.325 3.63225 19.3522 3.542 19.3546 3.44942L19.1586 3.36142L18.6399 3.91075C18.2066 3.62142 17.7292 3.31742 17.1199 3.20408C17.4652 2.48808 18.5146 1.33742 17.9732 0.429416C17.3119 -0.674584 15.0546 0.597416 14.2279 1.47342C14.132 1.57109 14.0487 1.68039 13.9799 1.79875C14.0332 1.75608 14.1186 1.68942 14.2279 1.60675C15.0439 0.998749 17.2159 -0.457251 17.6866 0.706749C18.1799 1.35608 17.2346 2.60542 16.9772 3.11342C16.0972 3.02408 15.1772 2.94008 14.2306 2.95875C13.2342 2.96744 12.2448 3.12656 11.2959 3.43075C10.8159 3.58942 8.7679 4.81608 8.68923 4.80008L7.7559 3.89608L5.8039 2.91608L5.79323 3.01875L5.67856 3.12942L8.1799 5.24675L7.79856 5.48008C6.76923 4.70008 6.0599 4.22675 4.5279 3.82808L4.26923 3.84808C5.1639 4.46408 6.06523 5.02808 6.96523 5.59342L7.14523 5.83608C6.50256 6.10675 6.23056 6.66941 5.6879 7.01875C4.8399 6.61341 4.05456 6.24542 3.02656 5.93475L2.95456 6.14542L4.8799 7.38542L4.9839 7.37741L4.6519 7.60675C4.49856 8.12275 4.19856 8.72141 3.9479 9.44941C2.9879 10.2307 1.7439 10.1841 1.55056 11.7761C1.2439 11.8601 1.0279 11.8867 0.747896 12.0921L0.726562 12.2987C0.902562 12.5441 2.46123 13.2041 2.83323 13.2681L3.06256 13.0467L3.06123 13.0481ZM14.4479 2.04008L14.5906 2.06675L14.3999 2.04275C14.3666 2.04275 14.3332 2.04542 14.3012 2.04675C14.4519 1.76675 14.8946 1.69742 15.3199 1.72808L15.2906 1.93075L14.4586 1.97208L14.4479 2.04008ZM15.0426 2.40942L15.4426 2.27875C15.6159 1.99075 15.7146 1.68542 15.6266 1.40675C15.2146 1.32542 14.9772 1.42542 14.5919 1.58808C14.5218 1.70209 14.452 1.81632 14.3826 1.93075L14.3026 2.06408C14.3272 2.0927 14.3539 2.11944 14.3826 2.14408C14.5132 2.25075 14.6706 2.28808 14.9599 2.26408C15.0399 2.40008 14.9466 2.34008 14.8039 2.37742L15.0439 2.40942H15.0426ZM24.9132 5.50675L24.4839 5.58675L24.7479 5.56808L25.0506 5.69875L24.5919 6.53875C24.8279 6.26008 25.0626 6.06275 25.1626 5.64008L24.9132 5.50675ZM22.4466 18.9267C22.3399 18.7361 22.2239 18.6107 22.1079 18.5814C22.2106 18.6787 22.3292 18.7934 22.4466 18.9267ZM21.0892 23.0547L20.7506 23.2521L21.0106 23.2281L21.0906 23.0547H21.0892ZM22.4466 18.9267C22.7919 19.3161 23.0506 20.0627 22.9759 20.6467C23.3679 19.8001 22.9212 19.2721 22.4466 18.9267Z"/>
</svg>
