<?xml version="1.0" encoding="utf-8"?>
<!-- Generator: Adobe Illustrator 19.2.1, SVG Export Plug-In . SVG Version: 6.00 Build 0)  -->
<svg version="1.1" id="Слой_1" xmlns="http://www.w3.org/2000/svg" xmlns:xlink="http://www.w3.org/1999/xlink" x="0px" y="0px"
	 viewBox="0 0 24 24" style="enable-background:new 0 0 24 24;" xml:space="preserve">
<style type="text/css">
	.st0{fill:#2D323E;}
</style>
<g>
	<path d="M7.7,6c0,0.5-0.4,1-1,1c-0.5,0-1-0.4-1-1s0.4-1,1-1C7.3,5,7.7,5.5,7.7,6z"/>
	<path d="M9.7,7c0.5,0,1-0.4,1-1s-0.4-1-1-1c-0.5,0-1,0.4-1,1S9.2,7,9.7,7z"/>
	<path fill-rule="evenodd" clip-rule="evenodd" d="M21.4,5.6c0-1.7-1.3-3-3-3H5.6c-1.7,0-3,1.3-3,3v12.8c0,1.7,1.3,3,3,3h12.8c1.7,0,3-1.3,3-3V5.6z M20.3,9.3H3.7v9.1c0,1.1,0.9,2,1.9,2h12.8c1.1,0,2-0.9,2-1.9V9.3z M20.3,8.3H3.7V5.6c0-1.1,0.9-1.9,1.9-1.9h12.8c1.1,0,2,0.9,2,1.9V8.3z"/>
</g>
</svg>
