<svg xmlns="http://www.w3.org/2000/svg" viewBox="0 0 576 576"><path fill="#00A3FF" d="M309.2,67.3c-4.3-2-8.6-2.8-13.2-2.8c-7.5,0-14.9,2.6-20.8,7.7l-103,119.4H40c-17.7,0-32,14.3-32,32v128c0,17.7,14.3,32,32,32h132.2l102.1,120.3c5.9,5.1,13.3,7.7,20.8,7.7c4.5,0,8.9-0.9,13.2-2.8c11.3-5.2,18.8-16.7,18.8-29.2V96.4C327.1,83.9,320.5,72.5,309.2,67.3z M311.1,480.4c0,6.2-3.7,11.9-9.3,14.5c-1.2,1-3.5,1.5-6.7,1.5c-3.5,0-6.8-1.1-9.6-3.2L179.6,367.5H40c-8.8,0-16-7.2-16-16v-128c0-8.8,7.2-16,16-16h139.6L286.4,82.7c2.8-1.2,6.1-2.3,8.7-2.3c2.3,0,4.6,0.5,6.7,1.5c5.7,2.6,9.3,8.3,9.3,14.5L311.1,480.4L311.1,480.4z M499.3,287.5l66.3-66.3c3.1-3.1,3.1-8.2,0-11.3c-3.1-3.1-8.2-3.1-11.3,0L488,277.1l-66.3-66.3c-3.1-3.1-8.2-3.1-11.3,0s-3.1,8.2,0,11.3l66.3,66.3l-66.3,66.3c-3.1,3.1-3.1,8.2,0,11.3c3.1,3.1,8.2,3.1,11.3,0l66.3-66.4l66.3,66.3c3.1,3.1,8.2,3.1,11.3,0c3.1-3.1,3.1-8.2,0-11.3L499.3,287.5z"/></svg>
