<svg width="25" height="24" viewBox="0 0 25 24" xmlns="http://www.w3.org/2000/svg">
<path fill-rule="evenodd" clip-rule="evenodd" d="M9.23423 2.25C9.53444 2.24978 9.82793 2.33948 10.0765 2.50781C10.3252 2.67626 10.5176 2.91581 10.6288 3.19482L11.7684 6C11.8782 6.27266 11.9062 6.57185 11.8475 6.85986C11.7888 7.14779 11.6464 7.41218 11.4388 7.62012L9.84067 9.23291C10.0892 10.6513 10.7691 11.9589 11.786 12.9785C12.8028 13.9979 14.1082 14.6803 15.5257 14.9326L17.1532 13.3198C17.3641 13.1146 17.6316 12.9761 17.9207 12.9214C18.2102 12.8667 18.5106 12.898 18.7821 13.0122L21.6092 14.1445C21.8841 14.2592 22.1188 14.4542 22.2831 14.7026C22.4471 14.9509 22.5342 15.243 22.5321 15.5405V19.5C22.5321 20.0966 22.2946 20.6689 21.8729 21.0908C21.4511 21.5126 20.8786 21.7498 20.2821 21.75H20.1532C5.41683 20.9022 3.32469 8.46827 3.03208 4.67285C3.00943 4.37838 3.04436 4.08201 3.13608 3.80127C3.22789 3.52042 3.37444 3.25949 3.56674 3.03516C3.75896 2.81103 3.99337 2.62675 4.25669 2.49316C4.52007 2.35956 4.80744 2.28002 5.1019 2.25732C5.1613 2.25292 5.22208 2.25 5.28208 2.25H9.23423ZM5.28208 3.75C5.18359 3.74968 5.08462 3.76826 4.9935 3.80566C4.90255 3.84306 4.8201 3.89894 4.75034 3.96826C4.68054 4.03765 4.62423 4.12062 4.58628 4.21143C4.54858 4.30191 4.52953 4.39905 4.52915 4.49707C4.52915 4.51792 4.53048 4.53931 4.53208 4.56006C4.87711 9.00012 7.08928 19.5 20.2367 20.25C20.3349 20.2559 20.4337 20.2426 20.5267 20.2104C20.6196 20.1783 20.7051 20.1277 20.7787 20.0625C20.8523 19.9972 20.9128 19.9181 20.9559 19.8296C20.9989 19.7412 21.0246 19.645 21.0306 19.5469C21.0315 19.5314 21.0321 19.5154 21.0321 19.5V15.5405L18.2035 14.4082L16.0516 16.5454L15.6913 16.5C9.16636 15.6824 8.28208 9.15686 8.28208 9.08936L8.23667 8.73047L10.3665 6.57715L9.24155 3.75H5.28208Z"/>
<path d="M15.0321 6C16.0263 6.00113 16.979 6.39708 17.682 7.1001C18.385 7.80311 18.7809 8.75579 18.7821 9.75H17.2821C17.2814 9.15346 17.0447 8.581 16.6229 8.15918C16.2011 7.73737 15.6286 7.50066 15.0321 7.5V6Z"/>
<path d="M15.0321 3C16.8217 3.00199 18.5376 3.71356 19.8031 4.979C21.0685 6.24444 21.7801 7.9604 21.7821 9.75H20.2821C20.2805 8.35809 19.7268 7.02378 18.7425 6.03955C17.7583 5.05532 16.424 4.50155 15.0321 4.5V3Z"/>
</svg>
