<svg width="24" height="24" viewBox="0 0 24 24" fill="none" xmlns="http://www.w3.org/2000/svg">
<path fill-rule="evenodd" clip-rule="evenodd" d="M18.8573 4.42856H5.143C4.74851 4.42856 4.42871 4.74835 4.42871 5.14284V8.57141C4.42871 8.9659 4.74851 9.2857 5.143 9.2857H18.8573C19.2518 9.2857 19.5716 8.9659 19.5716 8.57141V5.14284C19.5716 4.74835 19.2518 4.42856 18.8573 4.42856ZM18.8573 14.7143H5.143C4.74851 14.7143 4.42871 15.0341 4.42871 15.4286V18.8571C4.42871 19.2516 4.74851 19.5714 5.143 19.5714H18.8573C19.2518 19.5714 19.5716 19.2516 19.5716 18.8571V15.4286C19.5716 15.0341 19.2518 14.7143 18.8573 14.7143ZM5.143 3.42856H18.8573C19.8041 3.42856 20.5716 4.19607 20.5716 5.14284V8.57141C20.5716 9.51819 19.8041 10.2857 18.8573 10.2857H5.143C4.19622 10.2857 3.42871 9.51819 3.42871 8.57141V5.14284C3.42871 4.19607 4.19622 3.42856 5.143 3.42856ZM5.143 13.7143H18.8573C19.8041 13.7143 20.5716 14.4818 20.5716 15.4286V18.8571C20.5716 19.8039 19.8041 20.5714 18.8573 20.5714H5.143C4.19622 20.5714 3.42871 19.8039 3.42871 18.8571V15.4286C3.42871 14.4818 4.19622 13.7143 5.143 13.7143Z"/>
</svg>
