<svg width="24" height="24" viewBox="0 0 24 24" fill="none" xmlns="http://www.w3.org/2000/svg">
<path fill-rule="evenodd" clip-rule="evenodd" d="M7.5 3H21C21.3975 3.00117 21.7783 3.15958 22.0594 3.44063C22.3404 3.72168 22.4988 4.10253 22.5 4.5V15C22.4988 15.3975 22.3404 15.7783 22.0594 16.0594C21.7783 16.3404 21.3975 16.4988 21 16.5H7.5C7.10253 16.4988 6.72168 16.3404 6.44063 16.0594C6.15958 15.7783 6.00117 15.3975 6 15V4.5C6.00117 4.10253 6.15958 3.72168 6.44063 3.44063C6.72168 3.15958 7.10253 3.00117 7.5 3ZM7.5 15H21V4.5H7.5V15Z"/>
<path d="M3 19.5H13.5V18H15V19.5C14.9988 19.8975 14.8404 20.2783 14.5594 20.5594C14.2783 20.8404 13.8975 20.9988 13.5 21H3C2.60253 20.9988 2.22168 20.8404 1.94063 20.5594C1.65958 20.2783 1.50117 19.8975 1.5 19.5V12C1.50117 11.6025 1.65958 11.2217 1.94063 10.9406C2.22168 10.6596 2.60253 10.5012 3 10.5H4.5V12H3V19.5Z"/>
</svg>
