<svg width="24" height="24" viewBox="0 0 24 24" fill="none" xmlns="http://www.w3.org/2000/svg">
<path d="M8.63138 14.2451C8.63138 14.865 8.12881 15.3676 7.50885 15.3676C6.8889 15.3676 6.38633 14.865 6.38633 14.2451C6.38633 13.6251 6.8889 13.1225 7.50885 13.1225C8.12881 13.1225 8.63138 13.6251 8.63138 14.2451Z"/>
<path d="M16.4898 15.3676C17.1098 15.3676 17.6123 14.865 17.6123 14.2451C17.6123 13.6251 17.1098 13.1225 16.4898 13.1225C15.8699 13.1225 15.3673 13.6251 15.3673 14.2451C15.3673 14.865 15.8699 15.3676 16.4898 15.3676Z"/>
<path fill-rule="evenodd" clip-rule="evenodd" d="M18.21 18.1376V19.2964C18.21 19.8963 18.6963 20.3827 19.2963 20.3827C19.8962 20.3827 20.3825 19.8963 20.3825 19.2964V10.7923L18.7943 6.02762C18.3145 4.58822 16.9675 3.61732 15.4502 3.61732H8.54951C7.03225 3.61732 5.68521 4.58821 5.20541 6.02762L3.61719 10.7923V19.2964C3.61719 19.8963 4.10352 20.3827 4.70345 20.3827C5.30338 20.3827 5.78971 19.8963 5.78971 19.2964V18.1376H18.21ZM8.54951 4.66732C7.4842 4.66732 6.53841 5.34901 6.20152 6.35966L4.87059 10.3525H19.1291L17.7982 6.35966C17.4613 5.34901 16.5155 4.66732 15.4502 4.66732H8.54951ZM19.3325 11.4025H4.66719V17.0876H19.3325V11.4025ZM19.3325 18.1376H19.26V19.2964C19.26 19.3164 19.2762 19.3327 19.2963 19.3327C19.3163 19.3327 19.3325 19.3164 19.3325 19.2964V18.1376ZM4.73971 18.1376H4.66719V19.2964C4.66719 19.3164 4.68342 19.3327 4.70345 19.3327C4.72348 19.3327 4.73971 19.3164 4.73971 19.2964V18.1376Z"/>
</svg>
