<?xml version="1.0" encoding="utf-8"?>
<!-- Generator: Adobe Illustrator 19.2.1, SVG Export Plug-In . SVG Version: 6.00 Build 0)  -->
<svg version="1.1" id="Слой_1" xmlns="http://www.w3.org/2000/svg" xmlns:xlink="http://www.w3.org/1999/xlink" x="0px" y="0px"
	 viewBox="0 0 24 24" style="enable-background:new 0 0 24 24;" xml:space="preserve">
<path d="M15,1.5c0.4,0,0.8,0.2,1.1,0.4c0.3,0.3,0.4,0.7,0.4,1.1v0.7h2.3c0.4,0,0.8,0.2,1.1,0.4c0.3,0.3,0.4,0.7,0.4,1.1V21c0,0.4-0.2,0.8-0.4,1.1c-0.3,0.3-0.7,0.4-1.1,0.4H5.3c-0.4,0-0.8-0.2-1.1-0.4c-0.3-0.3-0.4-0.7-0.4-1.1V5.2c0-0.4,0.2-0.8,0.4-1.1c0.3-0.3,0.7-0.4,1.1-0.4h2.3V3c0-0.4,0.2-0.8,0.4-1.1C8.2,1.7,8.6,1.5,9,1.5H15z M5.3,5.2V21h13.5V5.2h-2.3v2.3h-9V5.2H5.3z M11.3,18.8H7.5v-1.5h3.8V18.8z M13.5,15h-6v-1.5h6V15z M16.5,11.3h-9V9.8h9V11.3z M9,3v3h6V3H9z"/>
</svg>
