<?xml version="1.0" encoding="utf-8"?>
<!-- Generator: Adobe Illustrator 19.2.1, SVG Export Plug-In . SVG Version: 6.00 Build 0)  -->
<svg version="1.1" id="Слой_1" xmlns="http://www.w3.org/2000/svg" xmlns:xlink="http://www.w3.org/1999/xlink" x="0px" y="0px"
	 viewBox="0 0 24 24" style="enable-background:new 0 0 24 24;" xml:space="preserve">
<style type="text/css">
	.st0{fill:#2D323E;}
</style>
<path d="M12.1,21.3c-0.1,0-0.2,0-0.3-0.1c0,0-1.1-0.6-1.8-0.9c-3.8-1.6-6-4.3-6-7.3V3.2c0-0.3,0.2-0.5,0.5-0.5h14.8c0.3,0,0.5,0.2,0.5,0.5V13c0,2.9-2.1,5.6-5.8,7.2c-0.7,0.3-1.7,0.9-1.7,0.9C12.3,21.3,12.2,21.3,12.1,21.3z M5.1,3.8V13c0,2.6,2,4.9,5.2,6.2c0,0,0.1,0.1,0.1,0.1c0.5,0.2,1.2,0.6,1.6,0.9c0.4-0.2,1.1-0.6,1.6-0.9c1.6-0.7,5.2-2.7,5.2-6.3V3.8H5.1z"/>
</svg>
