<?xml version="1.0" encoding="utf-8"?>
<!-- Generator: Adobe Illustrator 19.2.1, SVG Export Plug-In . SVG Version: 6.00 Build 0)  -->
<svg version="1.1" id="Слой_1" xmlns="http://www.w3.org/2000/svg" xmlns:xlink="http://www.w3.org/1999/xlink" x="0px" y="0px"
	 viewBox="0 0 40 40" style="enable-background:new 0 0 40 40;" xml:space="preserve">
<style type="text/css">
	.st0{fill:none;}
</style>
<path d="M27.9,19.2c0.5,0.5,0.5,1.2,0,1.7l-2.3,2.3c-0.5,0.5-1.2,0.5-1.7,0c-0.5-0.5-0.5-1.2,0-1.7l1.5-1.5l-1.5-1.5c-0.5-0.5-0.5-1.2,0-1.7c0.5-0.5,1.2-0.5,1.7,0L27.9,19.2z M22.3,15.6L20,25c-0.2,0.6-0.8,1-1.4,0.9c-0.6-0.2-1-0.8-0.9-1.4L20,15c0.2-0.6,0.8-1,1.4-0.9C22.1,14.3,22.5,15,22.3,15.6z M16.1,21.5c0.5,0.5,0.5,1.2,0,1.7c-0.5,0.5-1.2,0.5-1.7,0l-2.3-2.3c-0.5-0.5-0.5-1.2,0-1.7l2.3-2.3c0.5-0.5,1.2-0.5,1.7,0c0.5,0.5,0.5,1.2,0,1.7L14.6,20L16.1,21.5z M35.3,14.3V5.9c0-0.6-0.5-1.2-1.2-1.2h-9.5c-0.6,0-1.2,0.5-1.2,1.2c0,1.9-1.6,3.5-3.5,3.5c-1.9,0-3.5-1.6-3.5-3.5c0-0.6-0.5-1.2-1.2-1.2H5.9c-0.6,0-1.2,0.5-1.2,1.2v8.3C2,14.8,0,17.2,0,20c0,2.8,2,5.2,4.7,5.7v8.3c0,0.6,0.5,1.2,1.2,1.2h9.5c0.6,0,1.2-0.5,1.2-1.2c0-1.9,1.6-3.5,3.5-3.5c1.9,0,3.5,1.6,3.5,3.5c0,0.6,0.5,1.2,1.2,1.2h9.5c0.6,0,1.2-0.5,1.2-1.2v-8.3C38,25.2,40,22.8,40,20C40,17.2,38,14.8,35.3,14.3z"/>
</svg>
