<svg width="40" height="40" viewBox="0 0 40 40" fill="none" xmlns="http://www.w3.org/2000/svg">
<path d="M36.4863 10.8262C37.0702 10.5468 37.7704 10.7941 38.0498 11.3779C39.344 14.0826 40 16.9835 40 20C40 25.3422 37.92 30.365 34.1426 34.1426C30.365 37.92 25.3422 40 20 40C15.7177 40 11.6417 38.6616 8.24707 36.1855L8.57227 38.6602C8.65672 39.3018 8.20512 39.8911 7.56348 39.9756C6.92195 40.0599 6.33346 39.6074 6.24902 38.9658L5.52441 33.4668C5.43996 32.8252 5.89254 32.2358 6.53418 32.1514L12.0332 31.4277C12.6748 31.3433 13.2642 31.7948 13.3486 32.4365C13.433 33.078 12.9813 33.6663 12.3398 33.751L9.41699 34.1357C12.4545 36.4198 16.1321 37.6562 20 37.6562C29.7357 37.6562 37.6562 29.7357 37.6562 20C37.6562 17.3363 37.0776 14.7752 35.9355 12.3887C35.6565 11.805 35.9028 11.1056 36.4863 10.8262Z"/>
<path fill-rule="evenodd" clip-rule="evenodd" d="M22.7344 7.89062C23.3814 7.89077 23.9062 8.4154 23.9062 9.0625V9.73926C23.9064 11.2925 25.5874 12.2629 26.9326 11.4863L27.5186 11.1484C28.0789 10.8248 28.7955 11.0169 29.1191 11.5771L31.8535 16.3135C32.1772 16.8739 31.9853 17.5905 31.4248 17.9141L30.8389 18.252C29.4936 19.0287 29.4936 20.9713 30.8389 21.748L31.4248 22.0859C31.9853 22.4095 32.1771 23.1261 31.8535 23.6865L29.1191 28.4229C28.7955 28.9831 28.0789 29.1751 27.5186 28.8516L26.9326 28.5137C25.5874 27.7372 23.9064 28.7075 23.9062 30.2607V30.9375C23.9062 31.5846 23.3814 32.1092 22.7344 32.1094H17.2656C16.6184 32.1094 16.0938 31.5847 16.0938 30.9375V30.2607C16.0936 28.7074 14.4117 27.737 13.0664 28.5137L12.4805 28.8516C11.9201 29.1751 11.2035 28.9832 10.8799 28.4229L8.14551 23.6865C7.8219 23.1261 8.01393 22.4096 8.57422 22.0859L9.16016 21.748C10.5055 20.9713 10.5055 19.0287 9.16016 18.252L8.57422 17.9141C8.01392 17.5904 7.82202 16.8739 8.14551 16.3135L10.8799 11.5771C11.2035 11.0168 11.92 10.825 12.4805 11.1484L13.0664 11.4863C14.4116 12.2629 16.0936 11.2925 16.0938 9.73926V9.0625C16.0938 8.41531 16.6184 7.89062 17.2656 7.89062H22.7344ZM20 15.5078C17.5191 15.5078 15.5078 17.5191 15.5078 20C15.5078 22.4809 17.5191 24.4922 20 24.4922C22.4808 24.492 24.4922 22.4808 24.4922 20C24.4922 17.5192 22.4808 15.508 20 15.5078Z"/>
<path d="M20 0C24.2823 0 28.3582 1.33836 31.7529 3.81445L31.4277 1.33984C31.3486 0.738328 31.7404 0.183512 32.3184 0.046875L32.4365 0.0244141C33.0781 -0.0599381 33.6665 0.392595 33.751 1.03418L34.4756 6.5332C34.56 7.17473 34.1083 7.76401 33.4668 7.84863L27.9668 8.57227C27.3252 8.65672 26.7358 8.2052 26.6514 7.56348C26.567 6.92204 27.0188 6.33371 27.6602 6.24902L30.583 5.86426C27.5454 3.5802 23.868 2.34375 20 2.34375C10.2643 2.34375 2.34375 10.2643 2.34375 20C2.34375 22.6636 2.92264 25.2241 4.06445 27.6104C4.34381 28.1941 4.09735 28.8944 3.51367 29.1738C2.92984 29.4532 2.22957 29.2059 1.9502 28.6221C0.655984 25.9175 0 23.0165 0 20C0 14.6578 2.08 9.635 5.85742 5.85742C9.635 2.07992 14.6578 4.95164e-07 20 0Z"/>
</svg>
