<?xml version="1.0" encoding="utf-8"?>
<!-- Generator: Adobe Illustrator 19.2.1, SVG Export Plug-In . SVG Version: 6.00 Build 0)  -->
<svg version="1.1" id="Слой_1" xmlns="http://www.w3.org/2000/svg" xmlns:xlink="http://www.w3.org/1999/xlink" x="0px" y="0px"
	 viewBox="0 0 40 40" style="enable-background:new 0 0 40 40;" xml:space="preserve">
<style type="text/css">
	.st0{fill:none;}
</style>
<g>
	<path d="M9.9,2.3v1.6C9.9,5.6,11.3,7,13,7h14c1.7,0,3.1-1.4,3.1-3.1V2.3h1.6c0.9,0,1.8,0.4,2.5,1c0.7,0.7,1,1.5,1,2.5l0,30.6c0,1.9-1.6,3.5-3.5,3.5H8.3c-0.9,0-1.8-0.4-2.5-1c-0.7-0.7-1-1.5-1-2.5l0-30.6c0-1.9,1.6-3.5,3.5-3.5H9.9z M17.1,28.3c-0.5-0.5-1.2-0.5-1.7,0L12.7,31l-0.6-0.6c-0.5-0.5-1.2-0.5-1.7,0c-0.5,0.5-0.5,1.2,0,1.7l1.5,1.5c0.2,0.2,0.5,0.3,0.8,0.3c0.3,0,0.6-0.1,0.8-0.3l3.5-3.5C17.5,29.5,17.5,28.7,17.1,28.3z M20.4,29.7c-0.6,0-1.2,0.5-1.2,1.2s0.5,1.2,1.2,1.2h8.3c0.6,0,1.2-0.5,1.2-1.2s-0.5-1.2-1.2-1.2H20.4z M17.1,20.5c-0.5-0.5-1.2-0.5-1.7,0l-2.7,2.7l-0.6-0.6c-0.5-0.5-1.2-0.5-1.7,0c-0.5,0.5-0.5,1.2,0,1.7l1.5,1.5c0.2,0.2,0.5,0.3,0.8,0.3c0.3,0,0.6-0.1,0.8-0.3l3.5-3.5C17.5,21.7,17.5,20.9,17.1,20.5z M20.4,21.9c-0.6,0-1.2,0.5-1.2,1.2s0.5,1.2,1.2,1.2h8.3c0.6,0,1.2-0.5,1.2-1.2s-0.5-1.2-1.2-1.2H20.4z M17.1,12c-0.5-0.5-1.2-0.5-1.7,0l-2.7,2.7l-0.6-0.6c-0.5-0.5-1.2-0.5-1.7,0c-0.5,0.5-0.5,1.2,0,1.7l1.5,1.5c0.2,0.2,0.5,0.3,0.8,0.3c0.3,0,0.6-0.1,0.8-0.3l3.5-3.5C17.5,13.2,17.5,12.5,17.1,12z M20.4,14.1c-0.6,0-1.2,0.5-1.2,1.2c0,0.6,0.5,1.2,1.2,1.2h8.3c0.6,0,1.2-0.5,1.2-1.2c0-0.6-0.5-1.2-1.2-1.2H20.4z"/>
	<path d="M27,0c0.4,0,0.8,0.3,0.8,0.8v3.1c0,0.4-0.3,0.8-0.8,0.8H13c-0.4,0-0.8-0.3-0.8-0.8V0.8C12.2,0.3,12.6,0,13,0H27z"/>
</g>
</svg>
