<?xml version="1.0" encoding="utf-8"?>
<!-- Generator: Adobe Illustrator 19.2.1, SVG Export Plug-In . SVG Version: 6.00 Build 0)  -->
<svg version="1.1" id="Слой_1" xmlns="http://www.w3.org/2000/svg" xmlns:xlink="http://www.w3.org/1999/xlink" x="0px" y="0px"
	 viewBox="0 0 40 40" style="enable-background:new 0 0 40 40;" xml:space="preserve">
<style type="text/css">
	.st0{fill:none;}
</style>
<g>
	<path d="M17.6,21.3c0.6,0,1.2,0.5,1.2,1.2v16.4c0,0.6-0.5,1.2-1.2,1.2H1.2C0.5,40,0,39.5,0,38.8V22.4c0-0.6,0.5-1.2,1.2-1.2H17.6z M13.7,27.5c-0.5-0.5-1.2-0.5-1.7,0l-3.9,3.9l-1.5-1.5c-0.5-0.5-1.2-0.5-1.7,0c-0.5,0.5-0.5,1.2,0,1.7l2.3,2.3c0.2,0.2,0.5,0.3,0.8,0.3c0.3,0,0.6-0.1,0.8-0.3l4.7-4.7C14.2,28.7,14.2,27.9,13.7,27.5z"/>
	<path d="M38.8,21.3c0.6,0,1.2,0.5,1.2,1.2v16.4c0,0.6-0.5,1.2-1.2,1.2H22.4c-0.6,0-1.2-0.5-1.2-1.2V22.4c0-0.6,0.5-1.2,1.2-1.2H38.8z M33.8,27.5c-0.5-0.5-1.2-0.5-1.7,0L30.6,29l-1.5-1.5c-0.5-0.5-1.2-0.5-1.7,0c-0.5,0.5-0.5,1.2,0,1.7l1.5,1.5l-1.5,1.5c-0.5,0.5-0.5,1.2,0,1.7c0.2,0.2,0.5,0.3,0.8,0.3c0.3,0,0.6-0.1,0.8-0.3l1.5-1.5l1.5,1.5c0.2,0.2,0.5,0.3,0.8,0.3c0.3,0,0.6-0.1,0.8-0.3c0.5-0.5,0.5-1.2,0-1.7l-1.5-1.5l1.5-1.5C34.3,28.7,34.3,27.9,33.8,27.5z"/>
	<path d="M17.6,0c0.6,0,1.2,0.5,1.2,1.2v16.4c0,0.6-0.5,1.2-1.2,1.2H1.2c-0.6,0-1.2-0.5-1.2-1.2V1.2C0,0.5,0.5,0,1.2,0H17.6z M12.5,6.2c-0.5-0.5-1.2-0.5-1.7,0L9.4,7.7L7.9,6.2c-0.5-0.5-1.2-0.5-1.7,0c-0.5,0.5-0.5,1.2,0,1.7l1.5,1.5l-1.5,1.5c-0.5,0.5-0.5,1.2,0,1.7c0.2,0.2,0.5,0.3,0.8,0.3s0.6-0.1,0.8-0.3L9.4,11l1.5,1.5c0.2,0.2,0.5,0.3,0.8,0.3c0.3,0,0.6-0.1,0.8-0.3c0.5-0.5,0.5-1.2,0-1.7L11,9.4l1.5-1.5C13,7.4,13,6.7,12.5,6.2z"/>
	<path d="M38.8,0C39.5,0,40,0.5,40,1.2v16.4c0,0.6-0.5,1.2-1.2,1.2H22.4c-0.6,0-1.2-0.5-1.2-1.2V1.2c0-0.6,0.5-1.2,1.2-1.2H38.8z M35,6.2c-0.5-0.5-1.2-0.5-1.7,0l-3.9,3.9l-1.5-1.5c-0.5-0.5-1.2-0.5-1.7,0c-0.5,0.5-0.5,1.2,0,1.7l2.3,2.3c0.2,0.2,0.5,0.3,0.8,0.3c0.3,0,0.6-0.1,0.8-0.3L35,7.9C35.4,7.4,35.4,6.7,35,6.2z"/>
</g>
</svg>
