<?xml version="1.0" encoding="utf-8"?>
<!-- Generator: Adobe Illustrator 19.2.1, SVG Export Plug-In . SVG Version: 6.00 Build 0)  -->
<svg version="1.1" id="Слой_1" xmlns="http://www.w3.org/2000/svg" xmlns:xlink="http://www.w3.org/1999/xlink" x="0px" y="0px"
	 viewBox="0 0 40 40" style="enable-background:new 0 0 40 40;" xml:space="preserve">
<style type="text/css">
	.st0{fill:#1E76E2;}
</style>
<path d="M30.7,38c-0.2,0-0.5-0.1-0.7-0.2l-10-5.3l-10,5.3c-0.5,0.3-1.1,0.2-1.6-0.1c-0.5-0.3-0.7-0.9-0.6-1.5l1.9-11.1l-8.1-7.9c-0.4-0.4-0.6-1-0.4-1.5s0.6-0.9,1.2-1L13.6,13l5-10.1C18.9,2.3,19.4,2,20,2c0,0,0,0,0,0c0.6,0,1.1,0.3,1.3,0.8v0l5,10.1l11.2,1.6c0.6,0.1,1,0.5,1.2,1c0.2,0.5,0,1.1-0.4,1.5l-8.1,7.9l1.9,11.1c0.1,0.6-0.1,1.1-0.6,1.5C31.3,37.9,31,38,30.7,38z M3.7,16.5l8.1,7.9L10,35.6l10-5.3l10,5.3l-1.9-11.2l8.1-7.9L25,14.8L20,4.7l-5,10.2L3.7,16.5z M19.6,3.7C19.6,3.7,19.6,3.7,19.6,3.7L19.6,3.7z"/>
</svg>
