<svg width="24" height="24" viewBox="0 0 24 24" fill="none" xmlns="http://www.w3.org/2000/svg">
<path fill-rule="evenodd" clip-rule="evenodd" d="M3.21529 3.39456C2.63539 3.39456 2.16529 3.86466 2.16529 4.44456V6.26632H1.93672C1.35682 6.26632 0.886719 6.73643 0.886719 7.31632V16.6104C0.886719 17.1903 1.35682 17.6604 1.93672 17.6604H2.03091L2.03076 17.6783V19.3255C2.03076 19.9054 2.50086 20.3755 3.08076 20.3755H7.44955C8.02945 20.3755 8.49955 19.9054 8.49955 19.3255V17.6783L8.4994 17.6604H8.59339C9.17329 17.6604 9.64339 17.1903 9.64339 16.6104V14.3387H14.3574V16.6104C14.3574 17.1903 14.8275 17.6604 15.4074 17.6604H15.5016L15.5015 17.6783V19.3255C15.5015 19.9054 15.9716 20.3755 16.5515 20.3755H20.9203C21.5002 20.3755 21.9703 19.9054 21.9703 19.3255V17.6783L21.9701 17.6604H22.0641C22.644 17.6604 23.1141 17.1903 23.1141 16.6104V7.31632C23.1141 6.73643 22.644 6.26632 22.0641 6.26632H21.8344V4.44456C21.8344 3.86466 21.3643 3.39456 20.7844 3.39456H16.686C16.1061 3.39456 15.636 3.86466 15.636 4.44456V6.26632H15.4074C14.8275 6.26632 14.3574 6.73643 14.3574 7.31632V8.62418H9.64339V7.31632C9.64339 6.73643 9.17329 6.26632 8.59339 6.26632H8.36367V4.44456C8.36367 3.86466 7.89357 3.39456 7.31367 3.39456H3.21529ZM14.3574 13.2887V9.67418H9.64339V13.2887H14.3574ZM3.21529 7.31632V4.44456H7.31367V7.31632H8.59339V16.6104H1.93672V7.31632H3.21529ZM16.686 7.31632V4.44456H20.7844V7.31632H22.0641V16.6104H15.4074V7.31632H16.686ZM3.08076 17.6783V19.3255H7.44955V17.6783H3.08076ZM16.5515 17.6783H20.9203V19.3255H16.5515V17.6783Z"/>
</svg>
