<?xml version="1.0" encoding="utf-8"?>
<!-- Generator: Adobe Illustrator 19.2.1, SVG Export Plug-In . SVG Version: 6.00 Build 0)  -->
<svg version="1.1" id="Слой_1" xmlns="http://www.w3.org/2000/svg" xmlns:xlink="http://www.w3.org/1999/xlink" x="0px" y="0px"
	 viewBox="0 0 24 24" style="enable-background:new 0 0 24 24;" xml:space="preserve">
<style type="text/css">
	.st0{fill:#2D323E;}
</style>
<path d="M12.1,2.2c0.2-0.1,0.4-0.1,0.6,0c0.9,0.7,2.4,2,3.7,3.7c1.3,1.7,2.5,3.7,2.7,5.9c0.3,2.7-0.5,5.6-2.3,7.6c-1.8,2-4.4,3-7.6,1.9c-2.6-0.9-4.1-3.2-4.4-5.8C4.5,13,5.3,10.2,7.4,8.3C7.6,8.1,7.8,8.1,8,8.2c0.2,0.1,0.3,0.3,0.3,0.5c0,0.8,0,1.6,0.2,2.3c0.1,0.6,0.3,1.1,0.7,1.5c2.9-2.1,3.4-6.1,2.7-9.6C11.9,2.6,12,2.4,12.1,2.2z M13.1,4c0.4,3.5-0.4,7.5-3.8,9.5c-0.2,0.1-0.4,0.1-0.6,0C8,12.8,7.6,12,7.4,11.1c-0.1-0.4-0.1-0.8-0.2-1.2c-1.2,1.6-1.6,3.6-1.4,5.5c0.3,2.2,1.6,4.2,3.7,4.9c2.8,1,5,0.1,6.5-1.6c1.5-1.7,2.3-4.3,2-6.8c-0.2-1.9-1.3-3.8-2.5-5.4C14.8,5.6,13.9,4.7,13.1,4z"/>
</svg>
