<svg width="16" height="16" viewBox="0 0 16 16" fill="none" xmlns="http://www.w3.org/2000/svg">
<path d="M4.64538 4.2041C5.75038 3.3336 7.14833 2.92238 8.5487 3.05566C9.94915 3.18903 11.245 3.85644 12.1659 4.91992L13.2909 3.79492L14.0008 4.5L12.7557 5.74512C13.4644 6.96032 13.6779 8.40217 13.3514 9.77051C13.0249 11.1387 12.1836 12.3285 11.0028 13.0928C9.82189 13.857 8.39156 14.1375 7.00963 13.875C5.62758 13.6124 4.39926 12.8269 3.58092 11.6826C2.76274 10.5385 2.41701 9.12304 2.6151 7.73047C2.8133 6.33777 3.54038 5.07465 4.64538 4.2041ZM9.72252 4.34277C8.90032 4.00222 7.99576 3.91333 7.12291 4.08691C6.25 4.26055 5.44756 4.68902 4.81823 5.31836C4.18907 5.94764 3.76039 6.74932 3.58678 7.62207C3.41319 8.49479 3.50224 9.39956 3.84264 10.2217C4.18324 11.0439 4.76082 11.7467 5.50084 12.2412C6.24086 12.7357 7.11084 13 8.00084 13C9.19422 12.9999 10.3386 12.5255 11.1825 11.6816C12.0263 10.8377 12.5008 9.6934 12.5008 8.5C12.5008 7.61 12.2365 6.74001 11.7421 6C11.2476 5.26 10.5448 4.68336 9.72252 4.34277ZM8.50084 10H7.50084V5.5H8.50084V10ZM9.50084 2H6.50084V1H9.50084V2Z"/>
</svg>
