<svg width="16" height="16" viewBox="0 0 16 16" fill="none" xmlns="http://www.w3.org/2000/svg">
<path fill-rule="evenodd" clip-rule="evenodd" d="M8.00078 5.6C9.32627 5.6 10.4008 4.52548 10.4008 3.2C10.4008 1.87452 9.32627 0.8 8.00078 0.8C6.6753 0.8 5.60078 1.87452 5.60078 3.2C5.60078 4.52548 6.6753 5.6 8.00078 5.6ZM10.4008 10.4L5.60078 10.4C3.39165 10.4 1.6008 12.1909 1.60079 14.4L14.4008 14.4C14.4008 12.1909 12.6099 10.4 10.4008 10.4ZM8.00078 6.4C9.76809 6.4 11.2008 4.96731 11.2008 3.2C11.2008 1.43269 9.76809 0 8.00078 0C6.23347 0 4.80078 1.43269 4.80078 3.2C4.80078 4.96731 6.23347 6.4 8.00078 6.4ZM5.60078 9.60001C2.94983 9.60001 0.800799 11.749 0.800785 14.4L0.800781 15.2H15.2008V14.4C15.2008 11.749 13.0517 9.6 10.4008 9.6L5.60078 9.60001Z"/>
</svg>
