<svg width="23" height="23" viewBox="0 0 23 23" fill="none" xmlns="http://www.w3.org/2000/svg">
<path d="M11.8379 0.623047C17.913 0.623047 22.8379 5.54791 22.8379 11.623C22.8379 17.6982 17.913 22.623 11.8379 22.623C5.76276 22.623 0.837891 17.6982 0.837891 11.623C0.837891 5.54791 5.76276 0.623047 11.8379 0.623047ZM11.9902 13.3691H12.8984V16.1943C12.8984 17.6319 13.687 18.6228 15.0928 18.623C15.9007 18.623 16.5167 18.1646 16.8838 17.458H16.9004L17.0449 18.4453H18.6709V17.4453H17.8799V17.4434H17.8779L17.8418 15.958V12.3311H15.7256V13.3691H16.7734V15.8301C16.7733 16.8898 15.9812 17.6396 15.1826 17.6396C14.3844 17.6394 13.9678 17.0737 13.9678 16.0146V12.3311H11.9902V13.3691ZM4.00488 18.459H5.0498V17.3906H4.00488V18.459ZM10.0459 12.3145C9.12747 12.312 8.4463 12.82 8.04102 13.5352H8.0293L7.96387 12.3311H6.09766V13.2773H7.09082V17.4443H6.09766V18.4453H10.708V17.4639H8.1416V14.9492C8.25778 14.0392 8.92544 13.2617 9.83594 13.2617H9.85156L9.83398 14.1924H10.8486V12.3145H10.0459ZM15.7725 4.62305C14.0317 4.62307 12.6162 6.07061 12.6162 7.85059C12.6162 9.62872 14.0311 11.0769 15.7725 11.0771C16.8594 11.0771 17.6779 10.6137 18.2812 9.80762L17.4756 9.17871C17.2764 9.44709 17.018 9.66413 16.7227 9.81348C16.4273 9.96277 16.1019 10.0401 15.7725 10.0391C14.593 10.0388 13.7383 9.05624 13.7383 7.85059C13.7384 6.64492 14.5795 5.60742 15.8066 5.60742C16.3521 5.60744 16.7379 5.7391 17.0742 5.95215V7.01172H18.0889V5.46582L17.8945 5.30957C17.3367 4.8608 16.4845 4.62305 15.7725 4.62305ZM5.65527 5.81348H6.71191L8.53125 11.0049H9.49805V11.0039L11.3945 5.81348H12.3809V4.77539H10.6182L9.08398 9.33008H9.06055L7.53418 4.77539H5.65527V5.81348Z"/>
</svg>
