<svg width="24" height="24" viewBox="0 0 24 24" fill="none" xmlns="http://www.w3.org/2000/svg">
<path d="M11.999 4C11.999 4 19.0965 4.00012 20.8643 4.47754C21.8446 4.74858 22.6189 5.52252 22.877 6.50293C23.3544 8.28358 23.3545 12 23.3545 12C23.3545 12 23.3542 15.7164 22.8896 17.4971C22.6186 18.4904 21.8574 19.2644 20.877 19.5225C19.0963 19.9999 11.999 20 11.999 20C11.9422 20 4.89537 19.998 3.13477 19.5225C2.15428 19.2515 1.38021 18.4775 1.12207 17.4971C0.644651 15.7164 0.644531 12 0.644531 12C0.644531 12 0.644859 8.28358 1.10938 6.50293C1.38043 5.50955 2.14154 4.73557 3.12207 4.47754C4.89566 4.00207 11.9422 4.00001 11.999 4ZM9.67676 15.3809L15.6123 12L9.67676 8.62012V15.3809Z" fill="white"/>
</svg>
