<svg width="360" height="1542" viewBox="0 0 360 1542" fill="none" xmlns="http://www.w3.org/2000/svg">
<g clip-path="url(#clip0_6159_69394)">
<g opacity="0.3">
<path opacity="0.5" d="M236.022 1069.9C233.43 1070.45 456.452 1068.56 464.626 1067.49C472.801 1066.42 456.33 1064.38 448.156 1065.17C439.982 1065.97 423.176 1066.79 423.176 1066.79C423.176 1066.79 426.287 1064.38 413.843 1063.89C401.398 1063.41 387.642 1063.65 387.642 1063.65C387.642 1063.65 386.941 1061.3 379.072 1060.54C371.202 1059.75 365.072 1060.97 365.072 1060.97C365.072 1060.97 363.181 1055.6 347.229 1056.02C331.277 1056.45 321.943 1062.22 321.943 1062.22C321.943 1062.22 316.941 1062.09 311.817 1062.98C306.693 1063.86 304.863 1065.48 304.863 1065.48C304.863 1065.48 302.423 1061.42 292.754 1061.88C283.085 1062.34 279.639 1066.7 279.639 1066.7C279.639 1066.7 249.839 1066.97 236.022 1069.9Z" fill="white"/>
<path opacity="0.5" d="M153.023 553.635C150.453 554.431 368.606 553.888 376.64 552.368C384.674 550.848 368.678 547.627 360.644 548.749C352.61 549.871 336.143 550.884 336.143 550.884C336.143 550.884 339.328 547.302 327.168 546.433C315.009 545.564 301.546 545.818 301.546 545.818C301.546 545.818 301.003 542.307 293.331 541.077C285.659 539.846 279.615 541.584 279.615 541.584C279.615 541.584 278.059 533.549 262.425 534.02C246.791 534.49 237.381 543.031 237.381 543.031C237.381 543.031 232.496 542.814 227.465 544.081C222.435 545.347 220.553 547.736 220.553 547.736C220.553 547.736 218.381 541.656 208.9 542.271C199.418 542.886 195.835 549.328 195.835 549.328C195.835 549.328 166.702 549.401 153.023 553.635Z" fill="white"/>
</g>
<g opacity="0.8" filter="url(#filter0_f_6159_69394)">
<path d="M493.958 1908.15C582.61 1734.75 513.913 1522.32 340.518 1433.67C167.124 1345.02 -45.306 1413.71 -133.958 1587.11C-222.61 1760.5 -153.913 1972.93 19.4813 2061.58C192.875 2150.24 405.306 2081.54 493.958 1908.15Z" fill="#0284D8"/>
</g>
<g opacity="0.4" filter="url(#filter1_f_6159_69394)">
<path d="M463.188 1892.41C543.151 1736.01 481.187 1544.4 324.787 1464.44C168.387 1384.48 -23.2231 1446.44 -103.186 1602.84C-183.15 1759.24 -121.185 1950.85 35.2145 2030.81C191.614 2110.78 383.225 2048.81 463.188 1892.41Z" fill="#B0E0FF"/>
</g>
<path d="M438.721 1879.9C511.776 1737.02 455.165 1561.96 312.278 1488.91C169.39 1415.85 -5.66595 1472.46 -78.7207 1615.35C-151.775 1758.24 -95.1647 1933.29 47.7229 2006.35C190.61 2079.4 365.666 2022.79 438.721 1879.9Z" fill="url(#paint0_radial_6159_69394)"/>
<path d="M122.393 1553.17C113.19 1532.51 122.922 1508.43 144.131 1499.37C165.339 1490.32 189.993 1499.72 199.196 1520.38C208.399 1541.04 198.667 1565.12 177.458 1574.18C156.25 1583.23 131.596 1573.83 122.393 1553.17Z" fill="#A0D5FF"/>
<path d="M198.498 1534.86C194.821 1513.1 174.022 1498.34 152.078 1501.84C140.54 1503.69 131.031 1510.23 125.061 1519.15C130.64 1508.13 141.23 1499.84 154.486 1497.72C176.464 1494.21 197.234 1509.02 200.905 1530.74C202.652 1541.08 200.185 1551.11 194.781 1559.2C198.457 1551.94 199.929 1543.54 198.469 1534.9L198.498 1534.86Z" fill="#3A99E4"/>
<path d="M103.715 1531.96C114 1530.3 120.981 1520.7 119.286 1510.55C117.591 1500.39 107.854 1493.49 97.569 1495.15C87.2839 1496.81 80.3029 1506.41 81.9982 1516.56C83.6934 1526.72 93.43 1533.62 103.715 1531.96Z" fill="#A0D5FF"/>
<path d="M118.261 1512.68C116.543 1502.52 106.803 1495.59 96.5354 1497.23C91.1442 1498.09 86.6873 1501.14 83.9025 1505.32C86.4864 1500.16 91.475 1496.29 97.656 1495.3C107.923 1493.66 117.664 1500.59 119.381 1510.76C120.197 1515.59 119.05 1520.27 116.516 1524.07C118.237 1520.68 118.91 1516.73 118.232 1512.72L118.261 1512.68Z" fill="#3A99E4"/>
<path opacity="0.1" d="M10.4555 1832.75C-44.3304 1780.24 -78.5483 1714.32 -92.0106 1645.09C-131.654 1750.6 -107.619 1874.23 -21.1033 1957.17C94.7421 2068.25 278.692 2064.36 389.744 1948.5C409.646 1927.74 425.786 1904.77 438.332 1880.47C304.676 1961.12 128.553 1945.92 10.4787 1832.73L10.4555 1832.75Z" fill="#0D7CD8"/>
<path d="M-40.9859 1521.7C-41.1786 1521.84 -41.403 1521.98 -41.6754 1522.14C-41.7027 1521.82 -41.7779 1521.51 -41.8851 1521.23C-43.6391 1517.14 -45.9303 1515.07 -48.7903 1515.03C-52.254 1514.99 -55.5748 1516.07 -58.7685 1518.27C-62.1051 1520.48 -63.8095 1523.01 -63.8498 1525.87C-63.8688 1527.22 -63.673 1529.11 -63.246 1531.51C-63.2607 1532.56 -63.7195 1533.54 -64.6379 1534.43C-65.5563 1535.32 -66.5318 1535.75 -67.5964 1535.74C-69.1058 1535.72 -70.1502 1535.4 -70.7455 1534.79C-71.3388 1534.04 -72.3026 1533.64 -73.6691 1533.62C-74.5747 1533.61 -76.2419 1534.63 -78.6868 1536.71C-81.2747 1538.78 -82.7989 1539.81 -83.2438 1539.8C-84.5773 1538.58 -86.5232 1537.95 -89.0813 1537.91C-91.4964 1537.88 -93.7631 1538.59 -95.8817 1540.07C-98.0139 1541.39 -99.0827 1542.8 -99.104 1544.31L-99.1136 1544.99C-19.9579 1544.05 46.9459 1544.16 101.614 1545.35C101.765 1544.79 101.853 1544.13 101.865 1543.32C101.928 1538.81 99.6244 1536.53 94.969 1536.46C91.964 1536.56 89.8432 1537.07 88.6231 1537.94L87.0501 1537.92C87.3647 1537.02 87.4547 1536.27 87.3043 1535.67C87.0194 1534.46 85.7568 1533.84 83.4847 1533.81C81.2126 1533.77 79.4923 1534.05 78.2763 1534.64L78.3145 1531.92C78.4745 1530.72 78.0382 1530.11 76.9895 1530.09C76.6876 1530.09 76.1612 1530.23 75.4102 1530.52C75.2668 1530.55 75.1079 1530.54 74.9653 1530.51C75.1132 1530.16 75.2034 1529.4 75.2195 1528.26C75.3171 1521.34 72.204 1517.84 65.8802 1517.75C58.047 1517.64 53.6563 1520.21 52.6766 1525.45C51.6989 1530.55 50.6936 1533.09 49.6291 1533.07C48.7234 1533.06 47.6779 1532.82 46.4768 1532.35C45.2778 1531.73 44.6147 1531.42 44.4558 1531.41C44.0109 1531.41 42.8754 1531.92 41.0493 1532.94C39.0822 1533.81 37.7889 1534.24 37.1852 1534.23C36.1365 1534.22 35.2436 1533.3 34.5064 1531.48C33.9302 1529.52 32.7365 1528.52 30.941 1528.49C29.2886 1528.47 28.0144 1528.67 27.0863 1529.12C27.1315 1529.3 27.1295 1529.44 27.0801 1529.57L26.3906 1530C26.5859 1529.67 26.8126 1529.37 27.0865 1529.11C29.2678 1524.31 30.3536 1521.69 30.3596 1521.26C30.3914 1519.01 30.2697 1517.5 29.9783 1516.75C29.1024 1514.62 27.0198 1513.55 23.6991 1513.5L23.0158 1513.49C22.9281 1508.44 21.5627 1503.83 18.9198 1499.67C15.096 1493.6 9.25937 1490.52 1.44204 1490.41C-5.9304 1490.3 -12.2839 1492.32 -17.6183 1496.46C-23.241 1500.74 -26.1169 1506.34 -26.2144 1513.26C-26.2547 1516.11 -25.9951 1519.12 -25.4358 1522.28L-25.6583 1522.28C-26.0904 1521.37 -26.5407 1520.62 -26.9771 1520.01C-28.011 1518.95 -29.37 1518.4 -31.0225 1518.38C-34.4862 1518.33 -37.807 1519.41 -41.0007 1521.62M162.674 1538.33C162.727 1534.57 162.617 1532.24 162.328 1531.35C161.315 1528.78 158.775 1527.45 154.708 1527.4C148.082 1527.3 144.153 1528.68 142.905 1531.52C142.28 1533.02 142.332 1534.97 143.045 1537.38L140.789 1537.34C138.845 1536.57 137.421 1536.17 136.515 1536.16C135.466 1536.14 134.471 1536.87 133.544 1538.37C132.776 1539.87 132.003 1540.6 131.256 1540.59C130.207 1540.58 129.088 1539.96 127.897 1538.73C126.708 1537.37 125.971 1536.67 125.669 1536.67C125.225 1536.66 124.235 1536.95 122.717 1537.53C121.056 1538.11 119.839 1538.78 119.082 1539.51C117.558 1540.54 116.794 1541.74 116.775 1543.09C116.695 1544.21 116.604 1545.04 116.517 1545.56C123.141 1545.83 138.189 1545.9 161.68 1545.75C162.309 1543.97 162.646 1541.48 162.691 1538.32M182.348 1536.12C180.537 1536.09 178.795 1536.75 177.124 1538.08C174.904 1539.95 173.804 1542.49 173.854 1545.7C180.943 1545.61 188.62 1545.49 196.887 1545.34C197.349 1544.08 197.6 1543.18 197.608 1542.64C197.646 1539.92 196.235 1538.55 193.375 1538.51C189.297 1539.2 187.195 1539.55 187.036 1539.55C185.987 1539.54 185.089 1539 184.341 1537.94C183.754 1536.73 183.079 1536.11 182.333 1536.1L182.348 1536.12Z" fill="#EFF8FF"/>
<path d="M445.839 1541.78C445.839 1542.87 446.502 1543.53 447.826 1543.76L448.955 1543.48H460.072C461.548 1543.22 462.287 1542.51 462.287 1541.39C462.287 1538.53 459.54 1537.49 454.058 1538.28C451.973 1538.58 450.084 1539.09 448.38 1539.8C446.675 1540.51 445.829 1541.17 445.829 1541.78M398.452 1512.06C398.452 1508.41 397.866 1505.34 396.693 1502.85C394.348 1497.91 389.984 1495.5 383.579 1495.62C379.041 1495.74 374.688 1497.32 370.53 1500.37C368.066 1502.14 366.231 1504.12 365.026 1506.3C362.453 1503.89 358.957 1502.75 354.528 1502.85C351.423 1502.89 347.982 1503.95 344.204 1506.02C343.9 1506.21 343.617 1506.4 343.357 1506.58C342.673 1503.84 341.544 1501.21 339.948 1498.73C335.519 1492.06 328.223 1488.82 318.04 1489.01C311.646 1489.16 305.382 1491.23 299.259 1495.22C292.224 1499.82 288.663 1505.24 288.587 1511.49C287.035 1510.78 285.102 1510.44 282.801 1510.47C277.84 1510.58 273.508 1512.83 269.806 1517.2C267.57 1519.79 265.778 1522.51 264.411 1525.34C262.782 1522.29 260.535 1520.85 257.658 1521.05C254.781 1521.2 252.306 1523.08 250.222 1526.7C248.257 1530.05 247.442 1533.27 247.779 1536.36C245.846 1535.98 242.709 1536.51 238.356 1537.94C234.002 1539.37 231.885 1541.72 232.005 1545C242.448 1544.92 256.442 1544.7 273.997 1544.32C291.508 1543.98 313.155 1543.96 338.917 1544.26C364.646 1544.6 384.98 1544.66 399.918 1544.44C414.856 1544.21 428.079 1544.01 439.586 1543.81C441.475 1540.46 440.683 1538.16 437.198 1536.91C433.713 1535.64 431.412 1535.26 430.272 1535.79C429.208 1536.28 428.665 1536.53 428.622 1536.53C428.47 1536.53 428.361 1536.5 428.285 1536.47V1536.35C428.133 1534.4 427.753 1532.7 427.145 1531.27C426.005 1528.45 423.758 1527.08 420.393 1527.14C418.156 1527.18 416.365 1527.76 414.997 1528.89C414.66 1526.53 414.009 1524.45 413.065 1522.68C410.644 1518.16 406.41 1515.96 400.352 1516.07C399.592 1516.03 398.854 1516.07 398.137 1516.18C398.322 1515.01 398.42 1513.64 398.42 1512.05M474.435 1543.02C474.695 1542.76 474.836 1542.34 474.836 1541.78C474.836 1540.54 473.718 1539.82 471.493 1539.63C469.256 1539.44 468.149 1540.16 468.149 1541.78C468.149 1542.23 468.247 1542.59 468.431 1542.85C468.92 1543.45 469.94 1543.76 471.493 1543.76C473.045 1543.76 473.957 1543.51 474.446 1543.02H474.435Z" fill="#EFF8FF"/>
<path opacity="0.3" d="M392.945 1293.05C409.886 1291.96 410.676 1307.8 410.68 1307.88C410.68 1307.88 411.717 1307.34 413.469 1306.83C413.47 1306.81 413.472 1306.8 413.473 1306.78C414.814 1306.41 416.502 1306.07 418.441 1305.97C418.489 1305.97 418.537 1305.97 418.586 1305.96C418.656 1305.96 418.726 1305.96 418.797 1305.95C420.849 1305.87 423.172 1306.06 425.62 1306.78C433.682 1309.17 433.996 1315.94 434.003 1316.11C434.101 1316.11 434.264 1316.11 434.487 1316.1C437.118 1316.02 450.026 1315.74 461.734 1317.21C474.499 1318.71 471.17 1325.51 470.984 1325.87C472.537 1325.68 489.339 1323.59 497.74 1321.5C499.117 1321.14 500.694 1320.99 502.34 1321H502.449C511.338 1321.07 522.251 1325.93 514.723 1328.53C512.875 1329.16 501.26 1329.78 484.029 1330.33C483.768 1330.34 483.506 1330.35 483.243 1330.36C482.148 1330.39 481.032 1330.43 479.894 1330.46C477.705 1330.53 475.439 1330.59 473.101 1330.66C472.537 1330.67 471.969 1330.69 471.397 1330.7C469.407 1330.76 467.367 1330.81 465.284 1330.86C464.405 1330.89 463.518 1330.91 462.624 1330.93C460.399 1330.99 458.129 1331.04 455.816 1331.09C452.606 1331.17 449.315 1331.24 445.959 1331.31C445.52 1331.32 445.081 1331.33 444.64 1331.34C372.216 1332.84 270.124 1333.57 272.026 1332.48C287.396 1323.91 318.782 1323.69 318.782 1323.69C318.801 1323.64 323.425 1310.84 333.829 1309.64C344.222 1308.43 345.857 1320.32 345.867 1320.4C345.879 1320.38 348.246 1315.67 353.821 1313.15C359.379 1310.64 364.618 1311.06 364.677 1311.06C364.71 1311.01 375.988 1294.04 392.945 1293.05Z" fill="white"/>
<path opacity="0.4" d="M244.204 1425.51C243.648 1426.63 237.594 1433.63 234.637 1436.99C234.289 1436.7 233.281 1435.95 232.028 1435.25C230.463 1434.39 229.419 1435.95 228.723 1436.99C228.028 1438.04 228.549 1438.21 229.419 1438.39C230.115 1438.53 230.405 1439.14 230.463 1439.43C229.013 1439.43 225.488 1439.6 222.983 1440.3C219.852 1441.17 212.199 1446.56 213.068 1446.91C213.938 1447.26 224.375 1444.82 226.114 1444.13C227.506 1443.57 232.376 1443.89 234.637 1444.13L241.247 1451.43C242.233 1450.97 244.309 1449.76 244.726 1448.65C245.144 1447.54 246.871 1442.85 247.683 1440.65C245.306 1441.23 240.447 1442.21 240.03 1441.52C239.508 1440.65 243.335 1437.86 246.639 1434.04C249.944 1430.21 261.946 1415.08 261.599 1414.56C261.251 1414.03 261.077 1414.21 258.815 1415.95C256.554 1417.69 244.9 1424.12 244.204 1425.51Z" fill="white"/>
<path opacity="0.2" d="M298.24 1400.46C299.664 1397.25 303.934 1394.58 306.425 1392.8C308.916 1391.02 311.941 1390.67 316.745 1390.14C318.565 1389.93 319.765 1389.56 320.531 1389.17C321.028 1388.73 321.437 1388.32 321.728 1388C321.696 1388.28 321.382 1388.74 320.531 1389.17C318.997 1390.55 316.619 1392.27 314.254 1392.8C311.123 1393.52 310.221 1394.17 310.162 1394.41C310.577 1395.06 310.874 1396.72 308.738 1398.14C306.603 1399.57 304.765 1398.02 304.112 1397.07C302.867 1398.56 300.162 1401.81 299.308 1402.95C297.44 1405.44 294.798 1406.05 293.077 1406.89C294.45 1405.67 297.15 1402.91 298.24 1400.46Z" fill="white"/>
<path opacity="0.4" fill-rule="evenodd" clip-rule="evenodd" d="M298.955 213.537C298.955 213.537 301.675 210.693 301.527 208.662C301.526 208.653 301.525 208.643 301.524 208.633C301.05 207.25 299.982 205.598 299.264 204.487L299.264 204.487C298.906 203.934 298.636 203.515 298.568 203.331C298.538 203.25 298.552 203.09 298.611 202.865C298.504 202.69 298.43 202.557 298.402 202.476C298.168 201.838 300.709 196.261 306.684 192.935C312.66 189.608 324.057 185.091 324.057 185.091C324.057 185.091 323.932 185.51 323.711 186.155C325.408 185.443 326.504 185 326.504 185C326.504 185 324.75 191.042 322.721 192.79C321.751 193.65 320.349 194.304 319.048 194.91C318.184 195.313 317.364 195.696 316.744 196.104C316.694 195.502 316.716 195.018 316.787 194.604C315.448 195.225 314.227 195.807 313.739 196.528C312.914 197.748 312.364 207.981 312.631 211.714C312.66 211.952 312.695 212.134 312.737 212.25C313.145 213.402 314.468 215.477 315.112 216.455C316.311 216.358 318.03 216.059 319.593 215.787C321.35 215.482 322.91 215.21 323.313 215.298C323.871 215.42 324.517 216.629 324.621 217.803C324.653 218.064 324.66 218.325 324.634 218.574C324.662 219.144 324.557 219.695 324.246 220.099C323.554 221.001 322.385 222.349 321.47 223.145C321.695 223.166 321.876 223.192 321.993 223.226C322.024 223.235 322.055 223.243 322.085 223.252L322.173 223.278C322.739 223.439 323.102 223.543 322.615 223.699C322.188 223.836 321.864 223.843 321.749 223.84C321.95 223.851 322.756 223.914 322.774 224.192C322.797 224.414 322.575 224.433 322.319 224.455C322.176 224.467 322.023 224.481 321.895 224.53C321.538 224.669 319.077 224.445 318.052 224.1C317.514 223.934 316.426 223.446 315.438 223.003C314.885 222.755 314.364 222.522 313.989 222.367C313.35 222.484 312.494 222.725 311.216 223.182C309.761 223.701 307.442 224.197 305.139 224.526C304.573 224.822 303.985 225.204 303.583 225.673C302.709 226.706 297.907 232.776 296.24 236.125C296.059 236.506 295.924 236.848 295.845 237.137C295.254 239.316 295.074 243.105 295.098 246.784C295.312 246.478 295.521 246.163 295.721 245.846C295.727 247.134 295.75 248.449 295.801 249.674C295.981 254.105 293.495 259.385 293.186 258.978C293.142 258.919 293.073 258.76 292.982 258.524C292.774 258.872 292.615 259.034 292.552 258.949C292.439 258.801 292.167 258.011 291.802 256.952C291.166 255.108 290.249 252.45 289.412 250.962C288.096 248.619 285.87 235.125 286.007 232.617C286.018 232.438 286.038 232.264 286.065 232.094C286.329 229.753 288.076 228.192 290.951 226.269C292.687 225.108 293.76 223.966 294.354 223.213C294.078 223.071 293.829 222.935 293.615 222.813L293.624 222.815C293.043 222.498 292.662 222.26 292.6 222.216C292.563 222.151 292.325 222.134 292.014 222.112C291.509 222.076 290.813 222.026 290.478 221.734C290.058 222.223 289.61 222.694 289.423 222.89C289.383 222.933 289.354 222.962 289.341 222.977C289.3 223.022 289.251 223.059 289.203 223.097C289.081 223.191 288.961 223.284 288.965 223.488C288.97 223.775 288.63 223.867 288.558 223.115C288.495 222.458 289.787 221.138 290.282 220.643C290.282 220.602 290.285 220.56 290.293 220.515C290.293 220.515 290.082 219.897 290.907 218.655C290.903 218.623 290.9 218.591 290.897 218.559C291.129 218.205 291.478 217.781 291.945 217.287C292.894 216.327 294.501 215.629 296.096 215.119C296.126 215.13 296.156 215.142 296.187 215.156C296.686 215.001 297.182 214.865 297.654 214.749C297.577 214.953 297.508 215.195 297.534 215.419C298.504 215.171 299.377 215.001 299.966 214.893L299.134 214.677C299.134 214.677 299.469 214.325 299.9 213.778L298.955 213.537ZM315.337 222.284C316.085 222.65 316.799 222.992 317.21 223.024C317.534 223.041 318.063 223.047 318.657 223.054L318.658 223.054L318.659 223.054L318.998 223.058C318.528 222.959 318.016 222.83 317.532 222.709C316.831 222.532 316.189 222.371 315.819 222.335C315.655 222.315 315.498 222.297 315.337 222.284ZM302.155 214.353L303.541 214.707C302.915 214.694 302.334 214.691 301.841 214.701C301.942 214.597 302.048 214.481 302.155 214.353Z" fill="white"/>
</g>
<defs>
<filter id="filter0_f_6159_69394" x="-426.288" y="1141.34" width="1212.58" height="1212.58" filterUnits="userSpaceOnUse" color-interpolation-filters="sRGB">
<feFlood flood-opacity="0" result="BackgroundImageFix"/>
<feBlend mode="normal" in="SourceGraphic" in2="BackgroundImageFix" result="shape"/>
<feGaussianBlur stdDeviation="126.8" result="effect1_foregroundBlur_6159_69394"/>
</filter>
<filter id="filter1_f_6159_69394" x="-391.721" y="1175.91" width="1143.44" height="1143.44" filterUnits="userSpaceOnUse" color-interpolation-filters="sRGB">
<feFlood flood-opacity="0" result="BackgroundImageFix"/>
<feBlend mode="normal" in="SourceGraphic" in2="BackgroundImageFix" result="shape"/>
<feGaussianBlur stdDeviation="126.8" result="effect1_foregroundBlur_6159_69394"/>
</filter>
<radialGradient id="paint0_radial_6159_69394" cx="0" cy="0" r="1" gradientUnits="userSpaceOnUse" gradientTransform="translate(180 1747.63) rotate(27.0795) scale(290.575)">
<stop offset="0.798077" stop-color="#BAE2FF"/>
<stop offset="1" stop-color="#59B5FF"/>
</radialGradient>
<clipPath id="clip0_6159_69394">
<rect width="360" height="1542" fill="white"/>
</clipPath>
</defs>
</svg>
