<svg width="460" height="75" viewBox="0 0 460 75" fill="none" xmlns="http://www.w3.org/2000/svg">
<path opacity="0.6" d="M226.656 0.101761C258.431 -1.95304 259.888 27.7907 259.892 27.8859C259.925 27.8689 261.865 26.8705 265.121 25.9221C265.123 25.8905 265.126 25.8587 265.128 25.8273C267.765 25.102 271.116 24.4296 274.977 24.2814C278.855 24.1052 283.252 24.4565 287.89 25.8283C303.02 30.3031 303.59 43.0195 303.601 43.3166C303.749 43.3127 303.975 43.3068 304.276 43.3C308.627 43.1675 333.26 42.5775 355.57 45.3801C379.506 48.1865 373.247 60.9499 372.906 61.6115C375.808 61.2542 407.3 57.3307 423.048 53.4064C425.628 52.7311 428.583 52.4474 431.668 52.4719H431.87C448.527 52.6042 468.981 61.716 454.875 66.5783C451.405 67.7742 429.555 68.9234 397.15 69.9699C396.788 69.9816 396.424 69.9934 396.058 70.0051C393.673 70.0814 391.233 70.1575 388.739 70.2326C388.108 70.2517 387.473 70.2703 386.835 70.2893C258.664 74.0957 -4.14438 76.3682 0.0496046 73.9875C28.8449 57.9395 87.634 57.5229 87.6707 57.5227C87.6707 57.5227 96.3323 33.4428 115.871 31.1789C135.409 28.9152 138.43 51.3488 138.43 51.3488C138.43 51.3488 142.862 42.4985 153.337 37.7648C163.785 33.043 173.632 33.8507 173.68 33.8547C173.68 33.8547 194.83 1.95418 226.656 0.101761Z" fill="white"/>
</svg>
