<svg width="484" height="92" viewBox="0 0 484 92" fill="none" xmlns="http://www.w3.org/2000/svg">
<path opacity="0.7" d="M94.1654 51.9579C93.8547 52.1907 93.4923 52.4234 93.0521 52.682C93.0003 52.1648 92.8709 51.6734 92.6896 51.2079C89.7381 44.587 85.958 41.2766 81.2976 41.2766C75.6534 41.2766 70.2681 43.1129 65.1158 46.7854C59.7305 50.4579 57.0119 54.6217 57.0119 59.277C57.0119 61.4753 57.3744 64.5529 58.1252 68.4582C58.1252 70.1651 57.4003 71.7686 55.9245 73.2428C54.4487 74.7169 52.8693 75.441 51.1347 75.441C48.675 75.441 46.9662 74.9497 45.9824 73.9669C44.9985 72.7514 43.4191 72.1306 41.1925 72.1306C39.7167 72.1306 37.0241 73.8376 33.0887 77.2773C28.9202 80.717 26.4606 82.424 25.7356 82.424C23.5349 80.4584 20.3503 79.4756 16.1819 79.4756C12.2464 79.4756 8.56991 80.6912 5.1523 83.1481C1.7088 85.3464 0 87.6741 0 90.131V91.2431C128.937 87.8809 237.938 86.5361 327.029 87.2085C327.262 86.3033 327.391 85.2171 327.391 83.8981C327.391 76.5531 323.585 72.8807 315.999 72.8807C311.106 73.1134 307.662 73.9927 305.695 75.441H303.131C303.623 73.9669 303.753 72.7513 303.494 71.7686C303.002 69.803 300.931 68.8202 297.228 68.8202C293.526 68.8202 290.73 69.3117 288.762 70.2944V65.8719C288.995 63.9064 288.27 62.9236 286.561 62.9236C286.069 62.9236 285.215 63.1563 283.998 63.6477C283.765 63.6995 283.506 63.6995 283.273 63.6477C283.506 63.0788 283.635 61.8374 283.635 59.9753C283.635 48.6992 278.483 43.0612 268.179 43.0612C255.414 43.0612 248.32 47.3544 246.844 55.9149C245.369 64.2426 243.789 68.4065 242.055 68.4065C240.579 68.4065 238.87 68.0444 236.902 67.2944C234.935 66.3116 233.847 65.8202 233.588 65.8202C232.863 65.8202 231.025 66.6737 228.073 68.3806C224.889 69.8547 222.792 70.5789 221.808 70.5789C220.099 70.5789 218.623 69.1047 217.381 66.1564C216.397 62.9753 214.429 61.3719 211.503 61.3719C208.811 61.3719 206.739 61.7339 205.238 62.4839C205.315 62.7684 205.315 63.0012 205.238 63.2081L204.124 63.9322C204.435 63.3891 204.798 62.8977 205.238 62.4581C208.681 54.5959 210.39 50.3027 210.39 49.6044C210.39 45.9319 210.157 43.475 209.665 42.2594C208.189 38.8197 204.772 37.1128 199.36 37.1128H198.247C197.988 28.8885 195.658 21.4142 191.257 14.6899C184.887 4.88804 175.308 0 162.569 0C150.556 0 140.251 3.43975 131.656 10.2933C122.594 17.4055 118.037 26.5867 118.037 37.8628C118.037 42.518 118.529 47.4061 119.513 52.5527H119.15C118.425 51.0786 117.674 49.863 116.949 48.8802C115.241 47.1733 113.014 46.3198 110.321 46.3198C104.677 46.3198 99.2918 48.1561 94.1395 51.8286M426.346 74.3807C426.346 68.2513 426.113 64.4495 425.622 63.0012C423.913 58.8373 419.744 56.7424 413.116 56.7424C402.32 56.7424 395.95 59.0701 393.983 63.7253C392.999 66.1823 393.128 69.3634 394.345 73.2686H390.669C387.484 72.0531 385.154 71.4324 383.678 71.4324C381.969 71.4324 380.364 72.6479 378.888 75.1049C377.671 77.5618 376.429 78.7773 375.212 78.7773C373.503 78.7773 371.665 77.7946 369.697 75.829C367.729 73.6307 366.512 72.5186 366.021 72.5186C365.296 72.5186 363.69 73.01 361.231 73.9928C358.538 74.9755 356.57 76.0876 355.353 77.3032C352.894 79.0101 351.677 80.9756 351.677 83.174C351.573 85.0102 351.444 86.3551 351.314 87.2085C362.111 87.493 386.63 87.2602 424.897 86.4844C425.88 83.5619 426.372 79.5015 426.372 74.3548M458.348 70.3203C455.396 70.3203 452.574 71.4324 449.881 73.6307C446.308 76.7342 444.574 80.8981 444.729 86.1223C456.276 85.8119 468.782 85.4499 482.245 85.0102C482.97 82.9412 483.358 81.467 483.358 80.5877C483.358 76.1652 481.028 73.9669 476.368 73.9669C469.74 75.1824 466.322 75.8032 466.063 75.8032C464.354 75.8032 462.879 74.9497 461.636 73.2428C460.652 71.2772 459.539 70.2944 458.322 70.2944L458.348 70.3203Z" fill="white"/>
</svg>
