<svg xmlns="http://www.w3.org/2000/svg" fill="none" viewBox="0 0 1232 664">
  <g clip-path="url(#a)">
    <path fill="#fff" d="M87.3 171c17.2-1 18 15 18 15s1-.5 2.8-1c1.3-.4 3-.8 5-.9H113.4c2.1 0 4.5.1 7 .8 8.1 2.4 8.4 9.3 8.4 9.5h.4c2.3-.1 15.6-.4 27.7 1 12.9 1.6 9.5 8.5 9.3 8.8 1.6-.1 18.6-2.3 27-4.4 1.5-.3 3-.5 4.7-.5h.1c9 0 20 5 12.5 7.6-1.4.5-8 1-18.2 1.4h-.3l-12.3.4h-1.4a2829.8 2829.8 0 0 1-9.7.4h-2.3l-6.6.2h-1.3a4128.7 4128.7 0 0 1-44.6 1h-.4c-69.4 1.1-150 1.6-148.4.6 15.6-8.6 47.2-8.9 47.3-8.9 0 0 4.7-13 15.2-14.2 10.5-1.2 12.2 10.8 12.2 11 0-.1 2.4-4.9 8-7.4 5.7-2.6 11-2.1 11-2.1S70.2 172 87.3 171Z" opacity=".9"/>
    <g filter="url(#b)" opacity=".5">
      <path fill="#DAF0FF" d="M845.6 43.2c-135-119.5-145.5-328.5-23.1-466.8 122.3-138.3 331-153.5 466-34C1423.6-338.3 1434-129.3 1311.7 9s-331 153.5-466 34Z"/>
    </g>
    <g filter="url(#c)" opacity=".6">
      <ellipse cx="-347.2" cy="757.8" fill="#DAF0FF" rx="442.8" ry="636.8" transform="rotate(-120 -347.2 757.8)"/>
    </g>
    <path fill="#EFF8FF" d="M1055.4 105.8c0 1.1-.6 1.8-2 2l-1-.3h-11c-1.4-.3-2.1-1-2.1-2 0-2.9 2.7-3.9 8-3.1 2.1.3 4 .8 5.6 1.5 1.7.7 2.5 1.3 2.5 2m46.5-29.2c0-3.6.5-6.7 1.7-9 2.3-5 6.6-7.3 12.8-7.2 4.5.1 8.8 1.7 12.8 4.7a18 18 0 0 1 5.4 5.8 14 14 0 0 1 10.3-3.4 21.8 21.8 0 0 1 11 3.7c.6-2.7 1.7-5.3 3.3-7.7 4.3-6.6 11.5-9.8 21.5-9.6 6.2.2 12.4 2.2 18.4 6.1 6.9 4.5 10.4 9.9 10.4 16 1.6-.7 3.5-1 5.7-1 4.9.1 9.1 2.3 12.8 6.6 2.1 2.5 3.9 5.2 5.2 8 1.6-3 3.8-4.4 6.6-4.2 2.9.1 5.3 2 7.3 5.5 2 3.3 2.8 6.5 2.4 9.5 2-.4 5 .2 9.3 1.6 4.2 1.4 6.3 3.7 6.2 6.9-10.2 0-24-.3-41.2-.7-17.1-.3-38.3-.3-63.6 0a2242.3 2242.3 0 0 1-98.7-.5c-1.8-3.3-1-5.5 2.4-6.7 3.4-1.3 5.7-1.7 6.8-1.1l1.6.7h.3v-.2c.2-2 .6-3.6 1.1-5 1.2-2.8 3.4-4.1 6.7-4 2.1 0 4 .6 5.3 1.7.3-2.3 1-4.4 1.8-6.1 2.4-4.5 6.6-6.6 12.5-6.5l2.2.1c-.2-1.1-.3-2.5-.3-4m-74.5 30.4c-.3-.3-.4-.7-.4-1.3 0-1.2 1.1-1.9 3.3-2 2.2-.3 3.3.4 3.3 2 0 .5-.1.8-.3 1-.5.7-1.5 1-3 1s-2.4-.3-3-.7Z" opacity=".3"/>
    <path fill="#EFF8FF" d="m1147.6 570-1.3 1c0-.7-.2-1.3-.5-1.8-3.5-8-8-11.9-13.6-11.9-6.7 0-13.2 2.2-19.3 6.6-6.5 4.4-9.7 9.4-9.7 15 0 2.5.4 6.2 1.3 10.9 0 2-.9 4-2.6 5.7a8 8 0 0 1-5.8 2.6c-2.9 0-5-.6-6.1-1.7-1.2-1.5-3-2.2-5.7-2.2-1.8 0-5 2-9.7 6.1-5 4.1-8 6.2-8.8 6.2-2.7-2.4-6.5-3.6-11.5-3.6-4.7 0-9 1.5-13.1 4.4-4.2 2.7-6.2 5.4-6.2 8.4v1.3c154.2-4 284.5-5.6 391-4.8.3-1.1.5-2.4.5-4 0-8.7-4.6-13.1-13.6-13.1-5.9.2-10 1.3-12.4 3h-3c.6-1.7.7-3.2.4-4.4-.6-2.3-3-3.5-7.5-3.5-4.4 0-7.8.6-10.1 1.8v-5.3c.3-2.4-.6-3.5-2.6-3.5-.6 0-1.6.2-3.1.8a2 2 0 0 1-.9 0c.3-.6.5-2.1.5-4.4 0-13.4-6.2-20.2-18.5-20.2-15.3 0-23.8 5.2-25.5 15.4-1.8 10-3.7 15-5.8 15-1.7 0-3.8-.5-6.1-1.4a21.8 21.8 0 0 0-4-1.8c-.8 0-3 1-6.6 3a24.6 24.6 0 0 1-7.5 2.7c-2 0-3.8-1.7-5.3-5.3-1.1-3.8-3.5-5.7-7-5.7a17 17 0 0 0-7.5 1.3v1l-1.3.8c.4-.7.8-1.3 1.3-1.8 4.1-9.4 6.2-14.5 6.2-15.3a28 28 0 0 0-.9-8.8c-1.8-4.1-5.8-6.2-12.3-6.2h-1.3c-.3-9.8-3.1-18.7-8.4-26.8a38.2 38.2 0 0 0-34.3-17.5 57.5 57.5 0 0 0-37 12.3 40 40 0 0 0-16.3 33c0 5.5.6 11.3 1.8 17.5h-.4c-.9-1.8-1.8-3.2-2.7-4.4-2-2-4.7-3-7.9-3-6.7 0-13.2 2.1-19.3 6.5m397.2 27c0-7.4-.3-12-.8-13.6-2-5-7-7.5-15-7.5-13 0-20.5 2.8-22.9 8.3-1.1 3-1 6.8.5 11.4h-4.4a27.1 27.1 0 0 0-8.4-2.2c-2 0-4 1.5-5.7 4.4-1.5 3-3 4.4-4.4 4.4-2 0-4.3-1.2-6.6-3.5-2.4-2.6-3.8-4-4.4-4-.9 0-2.8.6-5.7 1.8a19.5 19.5 0 0 0-7 4c-3 2-4.5 4.3-4.5 7 0 2.2-.2 3.8-.4 4.8 13 .3 42.2 0 88-.9a47 47 0 0 0 1.8-14.5m38.2-4.8c-3.5 0-7 1.3-10.1 4a18 18 0 0 0-6.2 14.9l44.9-1.3a19 19 0 0 0 1.3-5.3c0-5.3-2.8-8-8.4-8l-12.3 2.3c-2 0-3.8-1-5.3-3.1-1.2-2.4-2.5-3.5-4-3.5ZM-192.4 470l-1.3 1c0-.7-.2-1.3-.5-1.8-3.5-8-8-11.9-13.6-11.9-6.7 0-13.2 2.2-19.3 6.6-6.5 4.4-9.7 9.4-9.7 15 0 2.5.4 6.2 1.3 10.9 0 2-.9 4-2.6 5.7a8 8 0 0 1-5.8 2.6c-2.9 0-5-.6-6.1-1.7-1.2-1.5-3-2.2-5.7-2.2-1.8 0-5 2-9.7 6.1-5 4.1-8 6.2-8.8 6.2-2.7-2.4-6.5-3.6-11.4-3.6-4.8 0-9.2 1.5-13.2 4.4-4.2 2.7-6.2 5.4-6.2 8.4v1.3c154.2-4 284.5-5.6 391-4.8.3-1.1.5-2.4.5-4 0-8.7-4.6-13.1-13.6-13.1-5.9.2-10 1.3-12.4 3h-3c.6-1.7.7-3.2.4-4.4-.6-2.3-3-3.5-7.5-3.5-4.4 0-7.7.6-10.1 1.8v-5.3c.3-2.4-.6-3.5-2.6-3.5-.6 0-1.6.2-3.1.8a2 2 0 0 1-.9 0c.3-.6.5-2.1.5-4.4 0-13.4-6.2-20.2-18.5-20.2-15.3 0-23.8 5.2-25.5 15.4-1.8 10-3.7 15-5.8 15-1.7 0-3.8-.5-6.1-1.4a21.6 21.6 0 0 0-4-1.8c-.8 0-3 1-6.6 3a24.5 24.5 0 0 1-7.5 2.7c-2 0-3.8-1.7-5.3-5.3-1.1-3.8-3.5-5.7-7-5.7a17 17 0 0 0-7.5 1.3v1l-1.3.8c.4-.7.8-1.3 1.3-1.8 4.1-9.4 6.2-14.5 6.2-15.3a28 28 0 0 0-.9-8.8c-1.7-4.1-5.8-6.2-12.3-6.2h-1.3a50.9 50.9 0 0 0-8.4-26.8 38.2 38.2 0 0 0-34.3-17.5 57.5 57.5 0 0 0-37 12.3 40 40 0 0 0-16.3 33c0 5.5.6 11.3 1.8 17.5h-.4c-.9-1.8-1.8-3.2-2.7-4.4-2-2-4.7-3-7.9-3-6.7 0-13.2 2.1-19.3 6.5m397.2 27c0-7.4-.3-12-.8-13.6-2-5-7-7.5-15-7.5-13 0-20.5 2.8-22.9 8.3-1.2 3-1 6.8.5 11.4h-4.4a27.1 27.1 0 0 0-8.4-2.2c-2 0-4 1.5-5.7 4.4-1.5 3-3 4.4-4.4 4.4-2 0-4.3-1.2-6.6-3.5-2.4-2.6-3.8-4-4.4-4-.9 0-2.8.6-5.7 1.8a19.4 19.4 0 0 0-7 4c-3 2-4.5 4.3-4.5 7 0 2.2-.2 3.8-.4 4.8 13 .3 42.2 0 88-.9 1.2-3.5 1.8-8.3 1.8-14.5M243 492c-3.5 0-7 1.3-10.1 4a18 18 0 0 0-6.2 14.9l44.9-1.3c.8-2.5 1.3-4.3 1.3-5.3 0-5.3-2.8-8-8.4-8l-12.3 2.3c-2 0-3.8-1-5.3-3.1-1.2-2.4-2.5-3.5-4-3.5Z"/>
    <path fill="#B9E3FE" d="m1067.5 300 1-.8c.1-.9.3-5.5-.3-7.6-.5-1.8-9.4-12.5-14.4-17.2a12 12 0 0 0-2.7-2.2c-1.5-.6-4-.5-6.8-.4a38 38 0 0 1-7.3-.3l-2-.6c-4.7-1.7-11-6.4-11-6.4l15.6-.8c6.4-.2 13.5-.4 18.9-.3a40.5 40.5 0 0 1 22 6.6v1.8c0 2.3 0 5.9 1.2 7.7 0 .2.2.4.4.5 2 2.1 7.3 3.6 8 3.8l2-.5a15 15 0 0 1 7.4-.3l2.4 1c2.1 1.2 2.3 2.4 2.3 2.4l.1.2h.2c1 .3 4 1.2 4.3 2.3.5 1.2 0 1.4-.2 1-.2-.4-.4-.4-.7-.4l-.2-.1h-.2c-.6-.3-2.3-.8-3.5-1.4l-.5.5-1 .8-.7.6-1.4 2.5c.8.5 3.5 2 8 2.3 5.6.3 9.2 1.3 11.2 4.8a153.6 153.6 0 0 1 8.8 30.2v.2c0 3 .7 7.5 1.1 10.7l.5 3.6c-.1 1-7.4-4.8-10.4-11.5a180 180 0 0 0-4-8.2 55 55 0 0 0-6-9.7 87.9 87.9 0 0 0-19.4-10.7c-1-.4-2.2-.5-3.3-.4a54 54 0 0 1-10.1 3.5 18 18 0 0 0-5.7 1.8l-.6.8-2.8 3.9a19.7 19.7 0 0 1-5 4c-.2 0-.4 0-.6.2-.4.2-.7.3-.8 0-.2-.5.9-1.2 1.1-1.4l-1.3.5c-.7.2-.3-.3.3-1l.2-.1v-.1l.7-.6c-1.9-.3-4.7-1.4-6.3-2.2l-.9-.6c-1.4-1.5-1.8-4.8-1.3-6.2l.2-.2v-.1c.5-.5 2.9-1.4 5.6-2.5 2.5-1 5.2-2 7-3v.1l.9-.5Z" opacity=".4"/>
  </g>
  <defs>
    <filter id="b" width="1360" height="1361.8" x="387.1" y="-888.2" color-interpolation-filters="sRGB" filterUnits="userSpaceOnUse">
      <feFlood flood-opacity="0" result="BackgroundImageFix"/>
      <feBlend in="SourceGraphic" in2="BackgroundImageFix" result="shape"/>
      <feGaussianBlur result="effect1_foregroundBlur_6196_118033" stdDeviation="175"/>
    </filter>
    <filter id="c" width="1888.8" height="1696.8" x="-1291.5" y="-90.6" color-interpolation-filters="sRGB" filterUnits="userSpaceOnUse">
      <feFlood flood-opacity="0" result="BackgroundImageFix"/>
      <feBlend in="SourceGraphic" in2="BackgroundImageFix" result="shape"/>
      <feGaussianBlur result="effect1_foregroundBlur_6196_118033" stdDeviation="175"/>
    </filter>
    <clipPath id="a">
      <path fill="#fff" d="M0 0h1232v664H0z"/>
    </clipPath>
  </defs>
</svg>
