<svg width="1917" height="1361" viewBox="0 0 1917 1361" fill="none" xmlns="http://www.w3.org/2000/svg">
<g clip-path="url(#clip0_6159_66707)">
<g opacity="0.3" filter="url(#filter0_f_6159_66707)">
<ellipse cx="802.479" cy="372.11" rx="802.479" ry="372.11" transform="matrix(0.827871 -0.560919 -0.560919 -0.827871 -90.5527 2007.37)" fill="#00A3FF"/>
</g>
<g opacity="0.3" filter="url(#filter1_f_6159_66707)">
<ellipse cx="1809.25" cy="1270.07" rx="765.249" ry="372.11" transform="rotate(-145.881 1809.25 1270.07)" fill="#00A3FF"/>
</g>
<g filter="url(#filter2_f_6159_66707)">
<ellipse cx="1131" cy="1412.77" rx="643" ry="160" transform="rotate(180 1131 1412.77)" fill="#1E76E2"/>
</g>
<g opacity="0.3">
<path opacity="0.5" d="M-163.938 538.255C-171.038 540.455 431.762 538.955 453.962 534.755C476.162 530.555 431.962 521.655 409.762 524.755C387.562 527.855 342.062 530.655 342.062 530.655C342.062 530.655 350.862 520.755 317.262 518.355C283.662 515.955 246.462 516.655 246.462 516.655C246.462 516.655 244.962 506.955 223.762 503.555C202.562 500.155 185.862 504.955 185.862 504.955C185.862 504.955 181.562 482.755 138.362 484.055C95.1622 485.355 69.1623 508.955 69.1623 508.955C69.1623 508.955 55.6622 508.355 41.7622 511.855C27.8622 515.355 22.6623 521.955 22.6623 521.955C22.6623 521.955 16.6623 505.155 -9.53775 506.855C-35.7378 508.555 -45.6378 526.355 -45.6378 526.355C-45.6378 526.355 -126.138 526.555 -163.938 538.255Z" fill="white"/>
<path opacity="0.5" d="M1309.07 1137.58C1300.57 1139.38 2031.77 1133.18 2058.57 1129.68C2085.37 1126.18 2031.37 1119.48 2004.57 1122.08C1977.77 1124.68 1922.67 1127.38 1922.67 1127.38C1922.67 1127.38 1932.87 1119.48 1892.07 1117.88C1851.27 1116.28 1806.17 1117.08 1806.17 1117.08C1806.17 1117.08 1803.87 1109.38 1778.07 1106.88C1752.27 1104.28 1732.17 1108.28 1732.17 1108.28C1732.17 1108.28 1725.97 1090.68 1673.67 1092.08C1621.37 1093.48 1590.77 1112.38 1590.77 1112.38C1590.77 1112.38 1574.37 1111.98 1557.57 1114.88C1540.77 1117.78 1534.77 1123.08 1534.77 1123.08C1534.77 1123.08 1526.77 1109.78 1495.07 1111.28C1463.37 1112.78 1452.07 1127.08 1452.07 1127.08C1452.07 1127.08 1354.37 1127.98 1309.07 1137.58Z" fill="white"/>
</g>
<path opacity="0.3" fill-rule="evenodd" clip-rule="evenodd" d="M2159.87 1044.33C2143.16 1050.09 1699.61 1054.83 1705.05 1051.74C1733.85 1035.69 1792.67 1035.28 1792.67 1035.28C1792.67 1035.28 1801.33 1011.2 1820.87 1008.93C1840.41 1006.67 1843.43 1029.1 1843.43 1029.1C1843.43 1029.1 1847.86 1020.25 1858.34 1015.52C1868.81 1010.79 1878.68 1011.61 1878.68 1011.61C1878.68 1011.61 1899.83 979.708 1931.66 977.856C1963.48 975.798 1964.89 1005.64 1964.89 1005.64C1964.89 1005.64 1966.84 1004.63 1970.12 1003.67C1970.12 1003.64 1970.13 1003.61 1970.13 1003.58C1972.76 1002.86 1976.11 1002.18 1979.97 1002.04C1983.85 1001.86 1988.25 1002.21 1992.89 1003.58C2008.01 1008.05 2008.59 1020.75 2008.6 1021.07C2008.76 1021.07 2009 1021.06 2009.31 1021.05C2013.77 1020.92 2038.33 1020.34 2060.57 1023.13C2084.5 1025.94 2078.25 1038.7 2077.91 1039.37C2080.82 1039.01 2112.3 1035.08 2128.05 1031.16C2130.58 1030.5 2133.47 1030.21 2136.49 1030.22C2153.21 1030.22 2174.09 1039.43 2159.87 1044.33Z" fill="white"/>
<path opacity="0.4" d="M597.704 852.181C596.604 854.383 584.634 868.233 578.787 874.883C578.099 874.31 576.104 872.819 573.627 871.443C570.531 869.723 568.468 872.819 567.092 874.883C565.716 876.947 566.748 877.291 568.468 877.635C569.843 877.91 570.417 879.125 570.531 879.698C567.665 879.698 560.694 880.042 555.741 881.418C549.55 883.138 534.415 893.801 536.135 894.489C537.855 895.177 558.493 890.361 561.932 888.985C564.684 887.885 574.315 888.527 578.787 888.985L591.857 903.432C593.806 902.514 597.911 900.13 598.736 897.928C599.562 895.727 602.978 886.463 604.584 882.106C599.883 883.253 590.275 885.202 589.449 883.826C588.417 882.106 595.985 876.603 602.52 869.036C609.055 861.468 632.789 831.544 632.101 830.512C631.413 829.48 631.069 829.824 626.597 833.264C622.126 836.703 599.08 849.43 597.704 852.181Z" fill="white"/>
<path opacity="0.2" d="M704.556 802.63C707.37 796.296 715.815 791.019 720.741 787.5C725.667 783.981 731.648 783.278 741.148 782.222C744.746 781.822 747.12 781.091 748.633 780.32C749.617 779.44 750.425 778.632 751 778C750.938 778.556 750.317 779.463 748.633 780.32C745.601 783.034 740.898 786.437 736.222 787.5C730.03 788.907 728.247 790.198 728.13 790.667C728.951 791.957 729.537 795.241 725.315 798.056C721.093 800.87 717.457 797.821 716.167 795.944C713.704 798.877 708.356 805.304 706.667 807.556C702.972 812.481 697.748 813.688 694.345 815.346C697.059 812.935 702.399 807.481 704.556 802.63Z" fill="white"/>
<path opacity="0.4" fill-rule="evenodd" clip-rule="evenodd" d="M1762.77 527.94C1762.77 527.94 1766.29 524.258 1766.1 521.629C1766.1 521.617 1766.09 521.604 1766.09 521.591C1765.48 519.802 1764.1 517.663 1763.17 516.225L1763.17 516.224C1762.7 515.509 1762.35 514.967 1762.27 514.728C1762.23 514.623 1762.25 514.416 1762.32 514.125C1762.18 513.899 1762.09 513.727 1762.05 513.622C1761.75 512.796 1765.04 505.577 1772.77 501.271C1780.51 496.965 1795.26 491.118 1795.26 491.118C1795.26 491.118 1795.1 491.66 1794.81 492.496C1797.01 491.573 1798.43 491 1798.43 491C1798.43 491 1796.16 498.821 1793.53 501.083C1792.27 502.197 1790.46 503.043 1788.78 503.828C1787.66 504.35 1786.6 504.845 1785.79 505.373C1785.73 504.594 1785.76 503.967 1785.85 503.431C1784.12 504.236 1782.54 504.989 1781.9 505.922C1780.84 507.501 1780.12 520.748 1780.47 525.58C1780.51 525.887 1780.55 526.123 1780.61 526.274C1781.14 527.764 1782.85 530.451 1783.68 531.717C1785.23 531.59 1787.46 531.204 1789.48 530.852C1791.76 530.456 1793.78 530.105 1794.3 530.219C1795.02 530.376 1795.86 531.941 1795.99 533.461C1796.03 533.799 1796.04 534.137 1796.01 534.459C1796.04 535.197 1795.91 535.91 1795.51 536.434C1794.61 537.6 1793.1 539.346 1791.91 540.376C1792.2 540.403 1792.44 540.437 1792.59 540.481C1792.63 540.492 1792.67 540.504 1792.71 540.515L1792.82 540.548C1793.55 540.757 1794.02 540.892 1793.39 541.094C1792.84 541.271 1792.42 541.279 1792.27 541.275C1792.53 541.29 1793.58 541.371 1793.6 541.731C1793.63 542.019 1793.34 542.043 1793.01 542.072C1792.83 542.088 1792.63 542.105 1792.46 542.17C1792 542.349 1788.81 542.059 1787.49 541.613C1786.79 541.397 1785.38 540.765 1784.1 540.192C1783.39 539.872 1782.71 539.569 1782.23 539.369C1781.4 539.521 1780.29 539.833 1778.64 540.424C1776.75 541.096 1773.75 541.738 1770.77 542.163C1770.04 542.547 1769.28 543.041 1768.76 543.649C1767.63 544.985 1761.41 552.843 1759.25 557.177C1759.02 557.672 1758.84 558.114 1758.74 558.488C1757.98 561.309 1757.74 566.213 1757.77 570.975C1758.05 570.579 1758.32 570.172 1758.58 569.762C1758.59 571.428 1758.62 573.131 1758.68 574.716C1758.92 580.452 1755.7 587.286 1755.3 586.759C1755.24 586.684 1755.15 586.478 1755.04 586.172C1754.77 586.623 1754.56 586.832 1754.48 586.722C1754.33 586.531 1753.98 585.508 1753.51 584.138C1752.68 581.75 1751.5 578.31 1750.42 576.383C1748.71 573.35 1745.83 555.884 1746.01 552.637C1746.02 552.405 1746.05 552.18 1746.08 551.96C1746.42 548.93 1748.69 546.909 1752.41 544.42C1754.65 542.917 1756.04 541.438 1756.81 540.464C1756.45 540.28 1756.13 540.105 1755.85 539.947L1755.87 539.949C1755.12 539.539 1754.62 539.23 1754.54 539.174C1754.49 539.09 1754.19 539.068 1753.78 539.039C1753.13 538.992 1752.23 538.927 1751.8 538.55C1751.25 539.183 1750.67 539.792 1750.43 540.046C1750.38 540.101 1750.34 540.14 1750.32 540.158C1750.27 540.216 1750.21 540.265 1750.14 540.314C1749.99 540.436 1749.83 540.556 1749.84 540.821C1749.84 541.191 1749.4 541.311 1749.31 540.337C1749.23 539.487 1750.9 537.778 1751.54 537.137C1751.54 537.085 1751.54 537.03 1751.55 536.971C1751.55 536.971 1751.28 536.172 1752.35 534.564C1752.34 534.523 1752.34 534.481 1752.34 534.44C1752.64 533.982 1753.09 533.433 1753.69 532.793C1754.92 531.55 1757 530.647 1759.07 529.987C1759.11 530.001 1759.14 530.017 1759.18 530.035C1759.83 529.834 1760.47 529.659 1761.08 529.508C1760.98 529.772 1760.89 530.085 1760.93 530.375C1762.18 530.054 1763.31 529.835 1764.08 529.694L1763 529.414C1763 529.414 1763.43 528.959 1763.99 528.252L1762.77 527.94ZM1783.97 539.262C1784.94 539.736 1785.87 540.178 1786.4 540.22C1786.82 540.242 1787.5 540.25 1788.27 540.259L1788.27 540.259L1788.27 540.259L1788.71 540.264C1788.1 540.135 1787.44 539.968 1786.81 539.811C1785.91 539.583 1785.08 539.375 1784.6 539.327C1784.38 539.302 1784.18 539.278 1783.97 539.262ZM1766.91 528.996L1768.7 529.454C1767.89 529.437 1767.14 529.434 1766.5 529.446C1766.63 529.311 1766.77 529.161 1766.91 528.996Z" fill="white"/>
<g opacity="0.8" filter="url(#filter3_f_6159_66707)">
<path d="M1687.1 2147.87C1896.24 1738.82 1734.18 1237.67 1325.12 1028.53C916.062 819.388 414.914 981.452 205.774 1390.51C-3.36647 1799.57 158.698 2300.71 567.755 2509.85C976.812 2718.99 1477.96 2556.93 1687.1 2147.87Z" fill="#0284D8"/>
</g>
<g opacity="0.4" filter="url(#filter4_f_6159_66707)">
<path d="M1614.51 2110.76C1803.15 1741.79 1656.97 1289.76 1288 1101.12C919.038 912.477 467.007 1058.66 278.365 1427.62C89.722 1796.59 235.903 2248.62 604.868 2437.26C973.834 2625.9 1425.86 2479.72 1614.51 2110.76Z" fill="#B0E0FF"/>
</g>
<path d="M1556.79 2081.25C1729.13 1744.16 1595.58 1331.18 1258.5 1158.84C921.407 986.495 508.43 1120.05 336.085 1457.13C163.74 1794.22 297.292 2207.2 634.38 2379.54C971.468 2551.89 1384.45 2418.34 1556.79 2081.25Z" fill="url(#paint0_radial_6159_66707)"/>
<path d="M813.723 1312.65C795.007 1264.7 818.968 1207.52 867.242 1184.94C915.515 1162.36 969.821 1182.93 988.537 1230.88C1007.25 1278.83 983.292 1336.01 935.019 1358.59C886.745 1381.17 832.439 1360.6 813.723 1312.65Z" fill="#A0D5FF"/>
<path d="M987.38 1263.7C981.169 1213.8 934.946 1181.7 884.225 1191.89C857.555 1197.25 835.061 1213.28 820.446 1234.45C834.38 1208.47 859.533 1188.3 890.172 1182.14C940.972 1171.93 987.125 1204.13 993.326 1253.96C996.277 1277.66 989.589 1301.06 976.358 1320.27C985.537 1303.16 989.775 1283.6 987.31 1263.8L987.38 1263.7Z" fill="#3A99E4"/>
<path d="M764.419 1259.3C788.174 1254.49 805.151 1231.61 802.286 1208.27C799.42 1184.93 777.786 1169.87 754.031 1174.67C730.277 1179.48 713.3 1202.36 716.165 1225.71C719.03 1249.05 740.664 1264.11 764.419 1259.3Z" fill="#A0D5FF"/>
<path d="M799.527 1213.27C796.625 1189.95 774.98 1174.88 751.248 1179.65C738.787 1182.16 728.247 1189.63 721.427 1199.56C727.886 1187.39 739.731 1177.97 754.017 1175.1C777.748 1170.33 799.394 1185.4 802.296 1208.72C803.674 1219.79 800.561 1230.73 794.359 1239.73C798.654 1231.75 800.602 1222.56 799.457 1213.36L799.527 1213.27Z" fill="#3A99E4"/>
<path opacity="0.1" d="M546.46 1970.01C417.214 1846.13 336.49 1690.61 304.731 1527.3C211.206 1776.2 267.908 2067.87 472.009 2263.52C745.302 2525.57 1179.26 2516.41 1441.25 2243.06C1488.2 2194.1 1526.27 2139.9 1555.87 2082.59C1240.56 2272.85 825.066 2236.99 546.515 1969.95L546.46 1970.01Z" fill="#0D7CD8"/>
<path d="M2077.04 1365.67C2077.04 1367.82 2078.34 1369.11 2080.94 1369.56L2083.16 1369.01H2105C2107.9 1368.5 2109.35 1367.12 2109.35 1364.91C2109.35 1359.28 2103.95 1357.24 2093.18 1358.79C2089.09 1359.39 2085.38 1360.39 2082.03 1361.79C2078.68 1363.19 2077.02 1364.48 2077.02 1365.67M1983.96 1307.3C1983.96 1300.13 1982.81 1294.1 1980.5 1289.21C1975.9 1279.51 1967.33 1274.78 1954.74 1275.01C1945.83 1275.24 1937.28 1278.34 1929.11 1284.33C1924.27 1287.81 1920.67 1291.7 1918.3 1295.99C1913.25 1291.25 1906.38 1289 1897.68 1289.21C1891.58 1289.28 1884.82 1291.36 1877.4 1295.43C1876.8 1295.8 1876.25 1296.18 1875.74 1296.54C1874.39 1291.15 1872.18 1285.99 1869.04 1281.1C1860.34 1268 1846.01 1261.65 1826.01 1262.01C1813.45 1262.31 1801.14 1266.39 1789.12 1274.22C1775.3 1283.25 1768.3 1293.91 1768.15 1306.18C1765.1 1304.78 1761.31 1304.12 1756.79 1304.18C1747.04 1304.4 1738.53 1308.81 1731.26 1317.39C1726.87 1322.49 1723.35 1327.81 1720.66 1333.38C1717.46 1327.39 1713.05 1324.57 1707.4 1324.95C1701.75 1325.25 1696.89 1328.94 1692.79 1336.05C1688.93 1342.64 1687.33 1348.96 1687.99 1355.04C1684.2 1354.29 1678.04 1355.33 1669.48 1358.14C1660.93 1360.94 1656.77 1365.57 1657.01 1372C1677.52 1371.85 1705.01 1371.41 1739.49 1370.66C1773.89 1370 1816.41 1369.96 1867.01 1370.56C1917.55 1371.21 1957.5 1371.34 1986.84 1370.9C2016.18 1370.45 2042.15 1370.05 2064.76 1369.66C2068.47 1363.08 2066.91 1358.56 2060.07 1356.12C2053.22 1353.61 2048.7 1352.87 2046.46 1353.91C2044.37 1354.87 2043.31 1355.35 2043.22 1355.35C2042.92 1355.35 2042.71 1355.31 2042.56 1355.25V1355.01C2042.26 1351.17 2041.51 1347.84 2040.32 1345.03C2038.08 1339.49 2033.67 1336.8 2027.06 1336.92C2022.66 1336.99 2019.15 1338.13 2016.46 1340.36C2015.8 1335.71 2014.52 1331.64 2012.66 1328.15C2007.91 1319.28 1999.59 1314.95 1987.69 1315.18C1986.2 1315.1 1984.75 1315.18 1983.34 1315.39C1983.7 1313.1 1983.9 1310.4 1983.9 1307.28M2133.21 1368.11C2133.72 1367.6 2134 1366.78 2134 1365.67C2134 1363.23 2131.8 1361.83 2127.43 1361.45C2123.04 1361.09 2120.86 1362.49 2120.86 1365.67C2120.86 1366.56 2121.06 1367.27 2121.42 1367.77C2122.38 1368.96 2124.38 1369.56 2127.43 1369.56C2130.48 1369.56 2132.27 1369.07 2133.23 1368.11H2133.21Z" fill="#EFF8FF"/>
<path d="M43.7108 1327.28C43.3968 1327.51 43.0311 1327.74 42.5874 1327.99C42.5429 1327.47 42.4204 1326.98 42.2457 1326.51C39.3877 1319.85 35.6547 1316.48 30.9948 1316.42C25.3511 1316.34 19.9405 1318.1 14.7369 1321.7C9.30035 1325.29 6.52337 1329.42 6.45775 1334.07C6.42676 1336.27 6.74582 1339.36 7.44153 1343.27C7.41747 1344.98 6.66999 1346.57 5.17357 1348.02C3.67715 1349.48 2.08775 1350.18 0.353229 1350.15C-2.10617 1350.12 -3.80788 1349.6 -4.77778 1348.61C-5.74441 1347.38 -7.31485 1346.74 -9.54125 1346.7C-11.0169 1346.68 -13.7333 1348.35 -17.7169 1351.74C-21.9334 1355.12 -24.4168 1356.79 -25.1417 1356.78C-27.3145 1354.78 -30.4849 1353.75 -34.653 1353.7C-38.588 1353.64 -42.2813 1354.8 -45.7332 1357.21C-49.2073 1359.36 -50.9488 1361.67 -50.9834 1364.12L-50.9991 1365.23C77.9725 1363.69 186.982 1363.88 276.054 1365.81C276.3 1364.91 276.445 1363.82 276.463 1362.5C276.567 1355.16 272.813 1351.43 265.228 1351.33C260.331 1351.49 256.876 1352.32 254.888 1353.74L252.325 1353.71C252.838 1352.24 252.984 1351.03 252.739 1350.04C252.275 1348.07 250.218 1347.06 246.516 1347C242.814 1346.95 240.011 1347.4 238.029 1348.36L238.092 1343.94C238.352 1341.97 237.641 1340.98 235.933 1340.96C235.441 1340.95 234.583 1341.17 233.36 1341.64C233.126 1341.69 232.867 1341.69 232.635 1341.63C232.876 1341.07 233.023 1339.83 233.049 1337.97C233.208 1326.69 228.136 1320.98 217.832 1320.84C205.069 1320.66 197.915 1324.85 196.319 1333.39C194.726 1341.7 193.088 1345.84 191.353 1345.81C189.878 1345.79 188.174 1345.4 186.217 1344.63C184.264 1343.62 183.183 1343.11 182.924 1343.11C182.199 1343.1 180.349 1343.92 177.374 1345.59C174.169 1347.02 172.062 1347.71 171.078 1347.7C169.369 1347.67 167.915 1346.18 166.713 1343.21C165.775 1340.02 163.83 1338.39 160.904 1338.35C158.212 1338.31 156.136 1338.64 154.624 1339.37C154.697 1339.66 154.694 1339.89 154.613 1340.09L153.49 1340.8C153.808 1340.26 154.178 1339.78 154.624 1339.34C158.178 1331.53 159.947 1327.26 159.957 1326.57C160.009 1322.89 159.81 1320.43 159.336 1319.21C157.908 1315.75 154.515 1314 149.105 1313.92L147.991 1313.9C147.848 1305.68 145.624 1298.17 141.318 1291.38C135.087 1281.49 125.577 1276.47 112.84 1276.29C100.828 1276.12 90.476 1279.42 81.7845 1286.15C72.6233 1293.13 67.9375 1302.25 67.7785 1313.52C67.7129 1318.18 68.1359 1323.07 69.0471 1328.23L68.6847 1328.23C67.9806 1326.74 67.247 1325.52 66.5359 1324.52C64.8514 1322.79 62.637 1321.91 59.9446 1321.87C54.3009 1321.79 48.8902 1323.55 43.6867 1327.15M375.543 1354.38C375.629 1348.25 375.45 1344.45 374.978 1342.99C373.328 1338.81 369.19 1336.65 362.562 1336.56C351.767 1336.41 345.366 1338.65 343.332 1343.27C342.314 1345.72 342.399 1348.9 343.56 1352.82L339.884 1352.77C336.717 1351.51 334.396 1350.85 332.92 1350.83C331.212 1350.81 329.589 1352 328.079 1354.44C326.828 1356.88 325.568 1358.08 324.351 1358.06C322.643 1358.03 320.818 1357.03 318.879 1355.03C316.942 1352.81 315.741 1351.68 315.249 1351.67C314.524 1351.66 312.912 1352.13 310.439 1353.08C307.733 1354.02 305.749 1355.11 304.516 1356.3C302.032 1357.98 300.788 1359.93 300.757 1362.12C300.627 1363.96 300.479 1365.3 300.337 1366.15C311.129 1366.59 335.648 1366.7 373.922 1366.47C374.947 1363.56 375.496 1359.5 375.569 1354.36M407.598 1350.77C404.647 1350.73 401.809 1351.8 399.086 1353.97C395.469 1357.02 393.676 1361.16 393.758 1366.38C405.309 1366.24 417.818 1366.05 431.286 1365.8C432.04 1363.74 432.449 1362.27 432.461 1361.39C432.524 1356.97 430.225 1354.74 425.565 1354.67C418.92 1355.8 415.494 1356.37 415.235 1356.37C413.527 1356.34 412.063 1355.47 410.845 1353.74C409.889 1351.76 408.789 1350.77 407.573 1350.75L407.598 1350.77Z" fill="#EFF8FF"/>
</g>
<defs>
<filter id="filter0_f_6159_66707" x="-681.479" y="353.686" width="2093.1" height="1791" filterUnits="userSpaceOnUse" color-interpolation-filters="sRGB">
<feFlood flood-opacity="0" result="BackgroundImageFix"/>
<feBlend mode="normal" in="SourceGraphic" in2="BackgroundImageFix" result="shape"/>
<feGaussianBlur stdDeviation="175" result="effect1_foregroundBlur_6159_66707"/>
</filter>
<filter id="filter1_f_6159_66707" x="792.045" y="391.682" width="2034.41" height="1756.77" filterUnits="userSpaceOnUse" color-interpolation-filters="sRGB">
<feFlood flood-opacity="0" result="BackgroundImageFix"/>
<feBlend mode="normal" in="SourceGraphic" in2="BackgroundImageFix" result="shape"/>
<feGaussianBlur stdDeviation="175" result="effect1_foregroundBlur_6159_66707"/>
</filter>
<filter id="filter2_f_6159_66707" x="138" y="902.766" width="1986" height="1020" filterUnits="userSpaceOnUse" color-interpolation-filters="sRGB">
<feFlood flood-opacity="0" result="BackgroundImageFix"/>
<feBlend mode="normal" in="SourceGraphic" in2="BackgroundImageFix" result="shape"/>
<feGaussianBlur stdDeviation="175" result="effect1_foregroundBlur_6159_66707"/>
</filter>
<filter id="filter3_f_6159_66707" x="-139.194" y="683.56" width="2171.26" height="2171.26" filterUnits="userSpaceOnUse" color-interpolation-filters="sRGB">
<feFlood flood-opacity="0" result="BackgroundImageFix"/>
<feBlend mode="normal" in="SourceGraphic" in2="BackgroundImageFix" result="shape"/>
<feGaussianBlur stdDeviation="126.8" result="effect1_foregroundBlur_6159_66707"/>
</filter>
<filter id="filter4_f_6159_66707" x="-57.6488" y="765.107" width="2008.17" height="2008.17" filterUnits="userSpaceOnUse" color-interpolation-filters="sRGB">
<feFlood flood-opacity="0" result="BackgroundImageFix"/>
<feBlend mode="normal" in="SourceGraphic" in2="BackgroundImageFix" result="shape"/>
<feGaussianBlur stdDeviation="126.8" result="effect1_foregroundBlur_6159_66707"/>
</filter>
<radialGradient id="paint0_radial_6159_66707" cx="0" cy="0" r="1" gradientUnits="userSpaceOnUse" gradientTransform="translate(946.438 1769.19) rotate(27.0795) scale(685.5)">
<stop offset="0.798077" stop-color="#BAE2FF"/>
<stop offset="1" stop-color="#59B5FF"/>
</radialGradient>
<clipPath id="clip0_6159_66707">
<rect width="1920" height="1361" fill="white"/>
</clipPath>
</defs>
</svg>
