<svg xmlns="http://www.w3.org/2000/svg" fill="none" viewBox="0 0 1917 1361">
  <g clip-path="url(#a)">
    <g filter="url(#b)" opacity=".3">
      <ellipse cx="802.5" cy="372.1" fill="#00A3FF" rx="802.5" ry="372.1" transform="scale(1 -1) rotate(34.1 3225.4 -1151.2)"/>
    </g>
    <g filter="url(#c)" opacity=".3">
      <ellipse cx="1809.3" cy="1270.1" fill="#00A3FF" rx="765.2" ry="372.1" transform="rotate(-145.9 1809.3 1270)"/>
    </g>
    <g filter="url(#d)">
      <ellipse cx="1131" cy="1412.8" fill="#1E76E2" rx="643" ry="160" transform="rotate(180 1131 1412.8)"/>
    </g>
    <g fill="#fff" opacity=".3">
      <path d="M-164 538.3c-7 2.2 595.8.7 618-3.5 22.2-4.2-22-13.1-44.2-10-22.2 3-67.7 5.9-67.7 5.9s8.8-10-24.8-12.3c-33.6-2.4-70.8-1.7-70.8-1.7s-1.5-9.7-22.7-13.1c-21.2-3.4-38 1.4-38 1.4s-4.2-22.2-47.4-21c-43.2 1.4-69.2 25-69.2 25s-13.5-.6-27.4 2.9c-14 3.5-19.1 10-19.1 10s-6-16.7-32.2-15c-26.2 1.7-36.1 19.5-36.1 19.5s-80.5.2-118.3 11.9ZM1309 1137.6c-8.4 1.8 722.8-4.4 749.6-8 26.8-3.4-27.2-10.1-54-7.5-26.8 2.6-82 5.3-82 5.3s10.3-8-30.5-9.5c-40.8-1.6-86-.8-86-.8s-2.2-7.7-28-10.2c-25.8-2.6-46 1.4-46 1.4s-6.1-17.6-58.4-16.2c-52.3 1.4-83 20.3-83 20.3s-16.3-.4-33.1 2.5-22.8 8.2-22.8 8.2-8-13.3-39.7-11.8c-31.7 1.5-43 15.8-43 15.8s-97.7.9-143 10.5Z" opacity=".5"/>
    </g>
    <path fill="#fff" fill-rule="evenodd" d="M2159.9 1044.3c-16.7 5.8-460.3 10.5-454.9 7.4 28.8-16 87.7-16.4 87.7-16.4s8.6-24.1 28.2-26.4c19.5-2.2 22.5 20.2 22.5 20.2s4.5-8.8 15-13.6c10.4-4.7 20.3-3.9 20.3-3.9s21.1-31.9 53-33.7c31.8-2.1 33.2 27.7 33.2 27.7s2-1 5.2-2a43.2 43.2 0 0 1 22.8 0c15.1 4.4 15.7 17.1 15.7 17.5h.7c4.5-.2 29-.8 51.3 2 23.9 2.8 17.7 15.6 17.3 16.3 3-.4 34.4-4.3 50.2-8.2 2.5-.7 5.4-1 8.4-1 16.7 0 37.6 9.2 23.4 14.1Z" clip-rule="evenodd" opacity=".3"/>
    <path fill="#fff" d="M597.7 852.2c-1.1 2.2-13 16-19 22.7-.6-.6-2.6-2-5-3.5-3.2-1.7-5.2 1.4-6.6 3.5-1.4 2-.4 2.4 1.4 2.7 1.3.3 2 1.5 2 2.1a65 65 0 0 0-14.8 1.7c-6.2 1.7-21.3 12.4-19.6 13 1.8.8 22.4-4 25.8-5.4 2.8-1.1 12.4-.5 16.9 0l13 14.4c2-.9 6.1-3.3 7-5.5l5.8-15.8c-4.7 1.2-14.3 3.1-15.2 1.7-1-1.7 6.6-7.2 13.1-14.8 6.6-7.5 30.3-37.5 29.6-38.5-.7-1-1-.7-5.5 2.8-4.5 3.4-27.5 16.1-28.9 18.9Z" opacity=".4"/>
    <path fill="#fff" d="M704.6 802.6c2.8-6.3 11.2-11.6 16.1-15.1 5-3.5 11-4.2 20.4-5.3 3.6-.4 6-1.1 7.5-1.9l2.4-2.3c0 .6-.7 1.5-2.4 2.3-3 2.7-7.7 6.1-12.4 7.2-6.2 1.4-8 2.7-8 3.2.8 1.3 1.3 4.5-2.9 7.4-4.2 2.8-7.8-.3-9.1-2.2-2.5 3-7.8 9.4-9.5 11.7-3.7 4.9-9 6-12.4 7.7 2.8-2.4 8.1-7.8 10.3-12.7Z" opacity=".2"/>
    <path fill="#fff" fill-rule="evenodd" d="M1762.8 528s3.5-3.7 3.3-6.4c-.6-1.8-2-4-3-5.4-.4-.7-.8-1.2-.8-1.5v-.6l-.3-.5c-.3-.8 3-8 10.8-12.3 7.7-4.3 22.5-10.2 22.5-10.2l-.5 1.4 3.6-1.5s-2.2 7.8-4.9 10c-1.2 1.2-3 2-4.7 2.8-1.1.6-2.2 1-3 1.6a8 8 0 0 1 0-2c-1.7.8-3.3 1.6-3.9 2.5a78 78 0 0 0-1.3 20.4c.5 1.5 2.3 4.2 3 5.4 1.6-.1 3.9-.5 5.9-.8 2.3-.4 4.3-.8 4.8-.7.7.2 1.6 1.7 1.7 3.3v1a3 3 0 0 1-.5 2c-.9 1.1-2.4 2.8-3.6 3.9h.7l.1.1h.1c.8.3 1.2.4.6.6l-1.1.2c.2 0 1.3 0 1.3.4 0 .3-.3.3-.6.4h-.5c-.5.2-3.7 0-5-.5l-3.4-1.4-1.9-.8c-.8.1-2 .4-3.6 1-1.8.7-4.8 1.3-7.8 1.8-.8.3-1.5.8-2 1.4a101.6 101.6 0 0 0-10 14.9c-.8 2.8-1 7.7-1 12.5l.8-1.2v5c.3 5.7-2.9 12.5-3.3 12l-.3-.6c-.2.4-.4.6-.5.5-.2-.2-.5-1.2-1-2.6-.8-2.4-2-5.8-3-7.7a102.8 102.8 0 0 1-4.4-24.4c.3-3 2.6-5 6.3-7.6 2.3-1.5 3.6-3 4.4-4l-1-.5-1.3-.7-.7-.2c-.7 0-1.6 0-2-.5-.5.7-1.1 1.3-1.4 1.5a1.7 1.7 0 0 1-.3.3c-.1.1-.3.3-.3.5 0 .4-.4.5-.5-.5 0-.8 1.6-2.5 2.2-3.2v-.1s-.2-.8.8-2.4v-.2l1.4-1.6c1.2-1.3 3.3-2.2 5.4-2.8l2-.5-.2.9 3.2-.7-1.1-.3 1-1.1-1.2-.4Zm21.2 11.3c1 .4 1.9.9 2.4 1h2.3l-1.9-.5-2.2-.5h-.6Zm-17-10.3 1.7.5h-2.2l.4-.5Z" clip-rule="evenodd" opacity=".4"/>
    <g filter="url(#e)" opacity=".8">
      <path fill="#0284D8" d="M1687.1 2147.9a831.8 831.8 0 1 0-1481.3-757.4A831.8 831.8 0 0 0 1687 2148Z"/>
    </g>
    <g filter="url(#f)" opacity=".4">
      <path fill="#B0E0FF" d="M1614.5 2110.8a750.3 750.3 0 1 0-1336.1-683.2 750.3 750.3 0 0 0 1336.1 683.2Z"/>
    </g>
    <path fill="url(#g)" d="M1556.8 2081.3A685.5 685.5 0 1 0 336 1457a685.5 685.5 0 0 0 1220.7 624.2Z"/>
    <path fill="#A0D5FF" d="M813.7 1312.7c-18.7-48 5.3-105.2 53.5-127.8 48.3-22.5 102.6-2 121.3 46 18.8 48-5.2 105.1-53.5 127.7-48.3 22.6-102.6 2-121.3-46Z"/>
    <path fill="#3A99E4" d="M987.4 1263.7c-6.2-49.9-52.5-82-103.2-71.8a102.5 102.5 0 0 0-63.8 42.5c14-26 39.1-46.1 69.8-52.3 50.8-10.2 97 22 103.1 71.9 3 23.7-3.7 47-17 66.3a94.6 94.6 0 0 0 11-56.5v-.1Z"/>
    <path fill="#A0D5FF" d="M764.4 1259.3a47.6 47.6 0 0 0 37.9-51 39.5 39.5 0 0 0-48.3-33.6 47.6 47.6 0 0 0-37.8 51 39.5 39.5 0 0 0 48.2 33.6Z"/>
    <path fill="#3A99E4" d="M799.5 1213.3a39.6 39.6 0 0 0-48.3-33.6c-12.4 2.5-23 10-29.8 19.9A47.9 47.9 0 0 1 754 1175a39.6 39.6 0 0 1 48.3 33.6 45 45 0 0 1-8 31c4.4-8 6.3-17.1 5.2-26.3v-.1Z"/>
    <path fill="#EFF8FF" d="M2077 1365.7c0 2.1 1.3 3.4 4 3.9l2.2-.6h21.8c2.9-.5 4.3-1.9 4.3-4 0-5.7-5.4-7.8-16.1-6.2-4.1.6-7.8 1.6-11.2 3-3.3 1.4-5 2.7-5 3.9m-93-58.4c0-7.2-1.2-13.2-3.5-18-4.6-9.8-13.2-14.5-25.8-14.3-8.9.2-17.4 3.3-25.6 9.3a36 36 0 0 0-10.8 11.7c-5-4.8-12-7-20.6-6.8a44 44 0 0 0-22 7.3 51.6 51.6 0 0 0-6.7-15.4c-8.7-13.1-23-19.4-43-19a70 70 0 0 0-36.9 12.1c-13.8 9-20.8 19.7-21 32-3-1.4-6.8-2-11.3-2-9.8.2-18.3 4.6-25.5 13.2-4.4 5-8 10.4-10.6 16-3.2-6-7.7-8.8-13.3-8.5-5.7.3-10.5 4-14.6 11.1-3.9 6.6-5.5 13-4.8 19-3.8-.7-10 .3-18.5 3.1-8.6 2.8-12.7 7.5-12.5 13.9 20.5-.2 48-.6 82.5-1.3 34.4-.7 77-.7 127.5-.1a4566 4566 0 0 0 197.8-1c3.7-6.5 2.1-11-4.7-13.5-6.9-2.5-11.4-3.2-13.6-2.2-2.1 1-3.2 1.4-3.3 1.4h-.6v-.3a32 32 0 0 0-2.3-10c-2.2-5.5-6.6-8.2-13.2-8-4.4 0-8 1.1-10.6 3.4-.7-4.7-2-8.8-3.8-12.3-4.8-8.8-13.1-13.1-25-13-1.5 0-3 0-4.4.3.4-2.3.6-5 .6-8.1m149.3 60.8c.5-.5.8-1.3.8-2.4 0-2.5-2.2-3.9-6.6-4.3-4.4-.3-6.5 1-6.5 4.3 0 .9.2 1.6.5 2 1 1.3 3 1.9 6 1.9s4.9-.5 5.8-1.5ZM43.7 1327.3l-1.1.7c0-.5-.2-1-.4-1.5-2.8-6.7-6.5-10-11.2-10-5.6-.2-11 1.6-16.3 5.2-5.4 3.6-8.2 7.7-8.2 12.4 0 2.2.2 5.3 1 9.2 0 1.7-.8 3.3-2.3 4.7a6.6 6.6 0 0 1-4.8 2.2c-2.5 0-4.2-.6-5.2-1.6-1-1.2-2.5-1.9-4.7-1.9-1.5 0-4.2 1.6-8.2 5a27 27 0 0 1-7.4 5c-2.2-2-5.4-3-9.6-3-3.9 0-7.6 1.1-11 3.5-3.5 2.2-5.2 4.5-5.3 7v1c129-1.5 238-1.3 327 .6.3-.9.4-2 .5-3.3 0-7.3-3.7-11-11.3-11.2-4.9.2-8.3 1-10.3 2.4h-2.6c.5-1.5.7-2.7.4-3.7-.4-2-2.5-3-6.2-3s-6.5.4-8.5 1.4v-4.5c.4-2-.4-3-2-3-.6 0-1.4.3-2.6.7h-.8c.3-.5.4-1.8.4-3.6.2-11.3-4.9-17-15.2-17.2-12.7-.1-19.9 4-21.5 12.6-1.6 8.3-3.2 12.4-5 12.4-1.4 0-3.1-.4-5-1.2-2-1-3.1-1.5-3.4-1.5-.7 0-2.6.8-5.5 2.5a20.6 20.6 0 0 1-6.3 2.1c-1.7 0-3.2-1.5-4.4-4.5-1-3.2-2.9-4.8-5.8-4.9-2.7 0-4.8.3-6.3 1 .1.4 0 .6 0 .8l-1.1.7 1.1-1.5a99 99 0 0 0 5.4-12.7c0-3.7-.2-6.2-.7-7.4-1.4-3.5-4.8-5.2-10.2-5.3H148a42.6 42.6 0 0 0-6.7-22.5 32 32 0 0 0-28.5-15.1 48 48 0 0 0-31 9.9 33.5 33.5 0 0 0-14 27.3c0 4.7.3 9.6 1.2 14.7h-.3c-.7-1.5-1.5-2.7-2.2-3.7a9 9 0 0 0-6.6-2.6c-5.6-.1-11 1.6-16.2 5.3m331.8 27.2c.1-6.2 0-10-.5-11.4-1.7-4.2-5.8-6.3-12.4-6.4-10.8-.2-17.2 2-19.3 6.7-1 2.4-.9 5.6.3 9.5h-3.7c-3.2-1.3-5.5-2-7-2-1.7 0-3.3 1.2-4.8 3.6-1.3 2.5-2.5 3.7-3.7 3.7-1.8 0-3.6-1-5.5-3-2-2.3-3.2-3.4-3.7-3.4-.7 0-2.3.4-4.8 1.4-2.7 1-4.7 2-5.9 3.2-2.5 1.7-3.7 3.6-3.7 5.8l-.5 4c10.8.5 35.3.6 73.6.4 1-3 1.6-7 1.7-12.1m32-3.6c-3 0-5.8 1-8.5 3.2a15 15 0 0 0-5.3 12.4l37.5-.6a16 16 0 0 0 1.2-4.4c0-4.4-2.3-6.7-7-6.7l-10.3 1.7c-1.7 0-3.1-1-4.4-2.7-1-2-2-3-3.2-3Z"/>
  </g>
  <defs>
    <filter id="b" width="2093.1" height="1791" x="-681.5" y="353.7" color-interpolation-filters="sRGB" filterUnits="userSpaceOnUse">
      <feFlood flood-opacity="0" result="BackgroundImageFix"/>
      <feBlend in="SourceGraphic" in2="BackgroundImageFix" result="shape"/>
      <feGaussianBlur result="effect1_foregroundBlur_6159_66707" stdDeviation="175"/>
    </filter>
    <filter id="c" width="2034.4" height="1756.8" x="792" y="391.7" color-interpolation-filters="sRGB" filterUnits="userSpaceOnUse">
      <feFlood flood-opacity="0" result="BackgroundImageFix"/>
      <feBlend in="SourceGraphic" in2="BackgroundImageFix" result="shape"/>
      <feGaussianBlur result="effect1_foregroundBlur_6159_66707" stdDeviation="175"/>
    </filter>
    <filter id="d" width="1986" height="1020" x="138" y="902.8" color-interpolation-filters="sRGB" filterUnits="userSpaceOnUse">
      <feFlood flood-opacity="0" result="BackgroundImageFix"/>
      <feBlend in="SourceGraphic" in2="BackgroundImageFix" result="shape"/>
      <feGaussianBlur result="effect1_foregroundBlur_6159_66707" stdDeviation="175"/>
    </filter>
    <filter id="e" width="2171.3" height="2171.3" x="-139.2" y="683.6" color-interpolation-filters="sRGB" filterUnits="userSpaceOnUse">
      <feFlood flood-opacity="0" result="BackgroundImageFix"/>
      <feBlend in="SourceGraphic" in2="BackgroundImageFix" result="shape"/>
      <feGaussianBlur result="effect1_foregroundBlur_6159_66707" stdDeviation="126.8"/>
    </filter>
    <filter id="f" width="2008.2" height="2008.2" x="-57.6" y="765.1" color-interpolation-filters="sRGB" filterUnits="userSpaceOnUse">
      <feFlood flood-opacity="0" result="BackgroundImageFix"/>
      <feBlend in="SourceGraphic" in2="BackgroundImageFix" result="shape"/>
      <feGaussianBlur result="effect1_foregroundBlur_6159_66707" stdDeviation="126.8"/>
    </filter>
    <radialGradient id="g" cx="0" cy="0" r="1" gradientTransform="rotate(27.1 -3200.2 2849.7) scale(685.5)" gradientUnits="userSpaceOnUse">
      <stop offset=".8" stop-color="#BAE2FF"/>
      <stop offset="1" stop-color="#59B5FF"/>
    </radialGradient>
    <clipPath id="a">
      <path fill="#fff" d="M0 0h1920v1361H0z"/>
    </clipPath>
  </defs>
</svg>
