<svg xmlns="http://www.w3.org/2000/svg" fill="none" viewBox="0 0 360 1542">
  <g clip-path="url(#a)">
    <g fill="#fff" opacity=".3">
      <path d="M236 1069.9c-2.6.5 220.5-1.3 228.6-2.4 8.2-1-8.3-3.1-16.4-2.3-8.2.8-25 1.6-25 1.6s3-2.4-9.4-3c-12.4-.4-26.2-.1-26.2-.1s-.7-2.4-8.5-3.2c-7.9-.8-14 .5-14 .5s-2-5.4-17.9-5c-16 .5-25.3 6.2-25.3 6.2s-5-.1-10 .8c-5.2.9-7 2.5-7 2.5s-2.5-4-12.1-3.6c-9.7.4-13.2 4.8-13.2 4.8s-29.8.3-43.6 3.2ZM153 553.6c-2.5.8 215.6.3 223.6-1.2 8-1.6-8-4.8-16-3.7-8 1.2-24.5 2.2-24.5 2.2s3.2-3.6-9-4.5c-12-.8-25.6-.6-25.6-.6s-.5-3.5-8.2-4.7c-7.6-1.3-13.7.5-13.7.5s-1.5-8-17.2-7.6c-15.6.5-25 9-25 9s-4.9-.2-10 1c-5 1.3-6.8 3.7-6.8 3.7s-2.2-6-11.7-5.4c-9.5.6-13 7-13 7s-29.2.1-42.9 4.3Z" opacity=".5"/>
    </g>
    <g filter="url(#b)" opacity=".8">
      <path fill="#0284D8" d="M494 1908.2a352.6 352.6 0 1 0-628-321 352.6 352.6 0 0 0 628 321Z"/>
    </g>
    <g filter="url(#c)" opacity=".4">
      <path fill="#B0E0FF" d="M463.2 1892.4a318 318 0 1 0-566.4-289.6 318 318 0 0 0 566.4 289.6Z"/>
    </g>
    <path fill="url(#d)" d="M438.7 1879.9a290.6 290.6 0 1 0-517.4-264.5 290.6 290.6 0 0 0 517.4 264.5Z"/>
    <path fill="#A0D5FF" d="M122.4 1553.2a40.6 40.6 0 0 1 21.7-53.8c21.2-9 45.9.3 55.1 21a40.6 40.6 0 0 1-21.7 53.8c-21.3 9-45.9-.4-55.1-21Z"/>
    <path fill="#3A99E4" d="M198.5 1534.9a40.5 40.5 0 0 0-73.4-15.8 40.5 40.5 0 0 1 75.8 11.6 39.2 39.2 0 0 1-6.1 28.5 39 39 0 0 0 3.7-24.3Z"/>
    <path fill="#A0D5FF" d="M103.7 1532a18.7 18.7 0 0 0 15.6-21.5 19 19 0 0 0-37.3 6 19 19 0 0 0 21.7 15.5Z"/>
    <path fill="#3A99E4" d="M118.3 1512.7a19 19 0 0 0-34.4-7.4 19 19 0 0 1 35.5 5.4c.8 4.9-.4 9.6-2.9 13.4 1.7-3.4 2.4-7.4 1.7-11.4Z"/>
    <path fill="#EFF8FF" d="m-41 1521.7-.7.4c0-.3 0-.6-.2-.9-1.7-4-4-6.1-6.9-6.2a17 17 0 0 0-10 3.3c-3.3 2.2-5 4.7-5 7.6 0 1.3.1 3.2.6 5.6 0 1-.5 2-1.4 3-1 .8-2 1.3-3 1.2-1.5 0-2.6-.3-3.1-1-.6-.7-1.6-1-3-1-.9 0-2.5 1-5 3-2.6 2-4.1 3.1-4.5 3.1-1.4-1.2-3.3-1.8-5.9-1.9-2.4 0-4.7.7-6.8 2.2-2.1 1.3-3.2 2.7-3.2 4.2v.7c79.1-1 146-.8 200.7.3.2-.5.3-1.2.3-2 0-4.5-2.3-6.8-7-6.8-3 0-5 .6-6.3 1.4h-1.5a4 4 0 0 0 .2-2.2c-.3-1.2-1.5-1.9-3.8-1.9s-4 .3-5.2.8v-2.7c.2-1.2-.3-1.8-1.3-1.8l-1.6.4H75l.2-2.2c.1-7-3-10.5-9.3-10.5-7.9-.2-12.2 2.4-13.2 7.7-1 5-2 7.6-3 7.6s-2-.3-3.2-.8l-2-.9c-.5 0-1.6.5-3.5 1.5-2 1-3.2 1.3-3.8 1.3-1 0-2-.9-2.7-2.7-.6-2-1.8-3-3.6-3-1.6 0-2.9.2-3.8.6v.5l-.7.4.7-.9c2.2-4.8 3.3-7.4 3.3-7.8 0-2.3-.1-3.8-.4-4.5-.9-2.2-3-3.3-6.3-3.3H23c0-5-1.4-9.7-4-13.8-3.9-6.1-9.7-9.2-17.6-9.3-7.3-.1-13.7 2-19 6a20.5 20.5 0 0 0-8.6 16.9c0 2.8.2 5.8.8 9h-.3c-.4-1-.8-1.7-1.3-2.3-1-1-2.4-1.6-4-1.6-3.5 0-6.8 1-10 3.2m203.7 16.7c0-3.7 0-6-.4-7-1-2.5-3.5-3.8-7.6-3.9-6.6-.1-10.5 1.3-11.8 4.1-.6 1.5-.6 3.5.1 5.9h-2.2c-2-.8-3.4-1.2-4.3-1.2-1 0-2 .7-3 2.2-.7 1.5-1.5 2.2-2.2 2.2-1 0-2.2-.6-3.4-1.9-1.2-1.3-2-2-2.2-2-.5 0-1.5.3-3 .8a10 10 0 0 0-3.6 2c-1.5 1-2.3 2.2-2.3 3.6l-.3 2.5c6.6.2 21.7.3 45.2.2.6-1.8 1-4.3 1-7.5m19.6-2.2a8 8 0 0 0-5.2 2 9.2 9.2 0 0 0-3.2 7.6c7 0 14.7-.2 23-.4.4-1.2.7-2.1.7-2.7 0-2.7-1.4-4-4.2-4l-6.4 1c-1 0-2-.6-2.7-1.7-.5-1.2-1.2-1.8-2-1.8ZM445.8 1541.8c0 1 .7 1.7 2 2l1.2-.3h11c1.5-.3 2.3-1 2.3-2.1 0-2.9-2.8-4-8.2-3.1-2.1.3-4 .8-5.7 1.5-1.7.7-2.6 1.4-2.6 2m-47.3-29.7c0-3.7-.6-6.8-1.8-9.3-2.4-4.9-6.7-7.3-13.1-7.2-4.6.1-9 1.7-13 4.8a18.3 18.3 0 0 0-5.6 5.9c-2.5-2.4-6-3.5-10.5-3.5a22.5 22.5 0 0 0-11.1 3.8c-.7-2.8-1.9-5.4-3.5-7.9-4.4-6.6-11.7-9.9-21.9-9.7-6.4.2-12.6 2.2-18.7 6.2-7 4.6-10.6 10-10.7 16.3-1.6-.7-3.5-1-5.8-1-5 0-9.3 2.3-13 6.7-2.2 2.6-4 5.3-5.4 8.1-1.6-3-3.9-4.5-6.7-4.3-3 .2-5.4 2-7.5 5.7-2 3.3-2.8 6.6-2.4 9.7-2-.4-5 .1-9.4 1.5-4.4 1.5-6.5 3.8-6.4 7.1 10.4 0 24.4-.3 42-.7 17.5-.3 39.2-.3 65 0 25.6.3 46 .4 61 .1l39.6-.6c1.9-3.3 1-5.6-2.4-6.9-3.5-1.3-5.8-1.6-7-1.1l-1.6.7h-.3v-.2c-.2-1.9-.5-3.6-1.2-5-1.1-2.8-3.3-4.2-6.7-4.2-2.2 0-4 .7-5.4 1.8-.3-2.4-1-4.5-2-6.2-2.4-4.5-6.6-6.7-12.6-6.6H398c.2-1 .3-2.5.3-4m76 31c.3-.3.4-.8.4-1.3 0-1.3-1-2-3.3-2.2-2.2-.2-3.4.6-3.4 2.2 0 .4.1.8.3 1 .5.7 1.5 1 3 1 1.6 0 2.6-.3 3-.8Z"/>
    <path fill="#fff" d="M393 1293c16.9-1 17.7 14.8 17.7 14.9 0 0 1-.6 2.8-1v-.1c1.3-.4 3-.7 5-.8h.3c2-.1 4.4 0 6.8.8 8 2.4 8.4 9.1 8.4 9.3h.5c2.6 0 15.5-.4 27.2 1.1 12.8 1.5 9.5 8.3 9.3 8.7 1.5-.2 18.3-2.3 26.7-4.4 1.4-.4 3-.5 4.6-.5h.1c9 0 19.9 5 12.3 7.5a276.6 276.6 0 0 1-31.5 1.9H480l-6.8.3h-1.7a1002.7 1002.7 0 0 1-25.4.6h-1.4c-72.4 1.5-174.5 2.3-172.6 1.2 15.4-8.6 46.8-8.8 46.8-8.8s4.6-12.9 15-14c10.4-1.3 12 10.6 12 10.7 0 0 2.4-4.7 8-7.3 5.6-2.5 10.8-2 10.9-2 0 0 11.3-17 28.2-18Z" opacity=".3"/>
    <path fill="#fff" d="M244.2 1425.5c-.6 1.1-6.6 8.1-9.6 11.5l-2.6-1.8c-1.5-.8-2.6.8-3.3 1.8-.7 1-.2 1.2.7 1.4.7.1 1 .7 1 1-1.4 0-5 .2-7.4.9-3.1.9-10.8 6.3-10 6.6 1 .4 11.4-2 13.1-2.8 1.4-.5 6.3-.2 8.5 0l6.6 7.3c1-.4 3.1-1.6 3.5-2.8l3-8c-2.4.6-7.3 1.6-7.7 1-.5-1 3.3-3.7 6.6-7.6 3.3-3.8 15.3-19 15-19.4-.3-.6-.5-.4-2.8 1.4-2.2 1.7-13.9 8.1-14.6 9.5Z" opacity=".4"/>
    <path fill="#fff" d="M298.2 1400.5c1.5-3.3 5.7-6 8.2-7.7 2.5-1.8 5.5-2.1 10.3-2.7 1.9-.2 3-.5 3.8-1l1.2-1.1c0 .3-.3.7-1.2 1.2-1.5 1.3-3.9 3-6.2 3.6-3.2.7-4 1.4-4.1 1.6.4.7.7 2.3-1.5 3.7-2.1 1.5-4 0-4.6-1-1.2 1.5-4 4.7-4.8 5.9-1.9 2.4-4.5 3-6.2 3.9 1.3-1.2 4-4 5.1-6.4Z" opacity=".2"/>
    <path fill="#fff" fill-rule="evenodd" d="M299 213.5s2.7-2.8 2.5-4.8c-.4-1.4-1.5-3.1-2.2-4.2-.4-.6-.7-1-.7-1.2v-.4l-.2-.4c-.2-.7 2.3-6.2 8.3-9.6 6-3.3 17.4-7.8 17.4-7.8l-.4 1 2.8-1.1s-1.8 6-3.8 7.8c-1 .8-2.4 1.5-3.7 2.1l-2.3 1.2v-1.5c-1.3.6-2.5 1.2-3 2a60.1 60.1 0 0 0-1 15.7c.4 1.1 1.8 3.2 2.4 4.2l4.5-.7c1.8-.3 3.3-.6 3.7-.5.6.1 1.2 1.3 1.3 2.5v.8c0 .5 0 1-.4 1.5a24 24 0 0 1-2.7 3l.5.1h.2c.5.2.9.3.4.5l-.9.1c.3 0 1 .1 1 .4.1.2-.1.2-.4.3h-.4c-.4.2-2.8 0-3.8-.4l-2.7-1.1-1.4-.6c-.6 0-1.5.3-2.8.8-1.4.5-3.8 1-6 1.3-.6.3-1.2.7-1.6 1.2a78.3 78.3 0 0 0-7.8 11.4c-.5 2.2-.7 6-.7 9.7l.6-1 .1 3.9c.2 4.4-2.3 9.7-2.6 9.3l-.2-.5c-.2.4-.4.5-.4.4-.2-.1-.4-.9-.8-2-.6-1.8-1.6-4.4-2.4-6a79.8 79.8 0 0 1-3.3-18.8c.2-2.3 2-4 4.9-5.8 1.7-1.2 2.8-2.3 3.4-3l-.8-.5-1-.6h-.6c-.5-.1-1.2-.2-1.5-.5l-1 1.2h-.2l-.1.2-.2.4c0 .3-.4.4-.4-.4-.1-.6 1.2-2 1.7-2.5 0 0-.2-.7.6-2l1-1.3c1-1 2.6-1.7 4.2-2.2l1.6-.4-.2.7 2.5-.5-.9-.2.8-1-1-.2Zm16.3 8.8a7 7 0 0 0 2 .7h1.7l-1.5-.3a15 15 0 0 0-2.2-.4Zm-13.1-8 1.3.4h-1.7l.4-.3Z" clip-rule="evenodd" opacity=".4"/>
  </g>
  <defs>
    <filter id="b" width="1212.6" height="1212.6" x="-426.3" y="1141.3" color-interpolation-filters="sRGB" filterUnits="userSpaceOnUse">
      <feFlood flood-opacity="0" result="BackgroundImageFix"/>
      <feBlend in="SourceGraphic" in2="BackgroundImageFix" result="shape"/>
      <feGaussianBlur result="effect1_foregroundBlur_6159_69394" stdDeviation="126.8"/>
    </filter>
    <filter id="c" width="1143.4" height="1143.4" x="-391.7" y="1175.9" color-interpolation-filters="sRGB" filterUnits="userSpaceOnUse">
      <feFlood flood-opacity="0" result="BackgroundImageFix"/>
      <feBlend in="SourceGraphic" in2="BackgroundImageFix" result="shape"/>
      <feGaussianBlur result="effect1_foregroundBlur_6159_69394" stdDeviation="126.8"/>
    </filter>
    <radialGradient id="d" cx="0" cy="0" r="1" gradientTransform="rotate(27.1 -3538.6 1247.5) scale(290.575)" gradientUnits="userSpaceOnUse">
      <stop offset=".8" stop-color="#BAE2FF"/>
      <stop offset="1" stop-color="#59B5FF"/>
    </radialGradient>
    <clipPath id="a">
      <path fill="#fff" d="M0 0h360v1542H0z"/>
    </clipPath>
  </defs>
</svg>
