<svg width="40" height="40" viewBox="0 0 40 40" fill="none" xmlns="http://www.w3.org/2000/svg">
<circle cx="20" cy="20" r="20" fill="#80BDE8"/>
<path fill-rule="evenodd" clip-rule="evenodd" d="M20 17C21.6569 17 23 15.6569 23 14C23 12.3431 21.6569 11 20 11C18.3431 11 17 12.3431 17 14C17 15.6569 18.3431 17 20 17ZM23 23L17 23C14.2386 23 12 25.2386 12 28L28 28C28 25.2386 25.7614 23 23 23ZM20 18C22.2091 18 24 16.2091 24 14C24 11.7909 22.2091 10 20 10C17.7909 10 16 11.7909 16 14C16 16.2091 17.7909 18 20 18ZM17 22C13.6863 22 11 24.6863 11 28L11 29H29V28C29 24.6863 26.3137 22 23 22L17 22Z" fill="white"/>
</svg>
