<svg xmlns="http://www.w3.org/2000/svg" fill="none" viewBox="0 0 128 98">
  <path fill="#1E76E2" d="M121.6 58.2a25.5 25.5 0 0 1-1.8 6.6 32 32 0 0 1-5.5 8.7h-.3a.4.4 0 0 1 0-.7 29.3 29.3 0 0 0 7-16.1v-1.3c0-.3.2-.5.5-.5a24.8 24.8 0 0 1 .1 3.3Z"/>
  <path fill="#1E76E2" d="M114.6 73.4C105 84.8 87.2 91.3 68.2 91.3c-7.2 0-14.5-1-21.6-2.8a65.8 65.8 0 0 1-31.3-17.7 35.9 35.9 0 0 1-9.4-18 30.3 30.3 0 0 1-.4-6.8 26 26 0 0 1 .3-2l.1-.1H6.2c.3 0 .4.2.4.4L6.4 46C5.1 63.6 21.7 81 46.8 87.6c25.9 7 54.1.7 67.2-14.8.1-.1.4-.2.6 0 .1.1.2.4 0 .6Z"/>
  <path fill="#1E76E2" d="M121.6 56v-1c-1-8.7-5.9-17.1-14.3-24.2a74 74 0 0 0-39.8-16c-29.8-3-56 9.7-61.4 29L5.6 46l-.3 1.8-.1.8C4 59.1 9 69.7 19.3 78.4a74 74 0 0 0 48.8 16.3 69 69 0 0 0 36.5-9.6 33.7 33.7 0 0 0 17-25.2V56Zm-1.7 8.8C114.5 84 88.6 96.6 59.2 93.5a73 73 0 0 1-39.4-15.7 35.6 35.6 0 0 1-14-24.9 25.6 25.6 0 0 1 .2-5v-.4l.3-1.4c3.8-18 25.7-30.7 52.2-30.7a73 73 0 0 1 48.2 16.1c9.2 7.8 14.1 17.2 14 26.7v1.7a30.3 30.3 0 0 1-1 5Z"/>
  <path fill="#1E76E2" d="M126 53c-3.4-20.5-27.4-38.3-58.2-41.5C37.2 8.3 10 20.6 2.4 39.8a30 30 0 0 0-1.9 6.9v.1l-.1 1c-1.2 11.6 4.2 23 15.3 32.4A80 80 0 0 0 59 97.4c3.2.3 6.4.5 9.6.5C99 97.9 124 82.5 126.3 61a19.4 19.4 0 0 0 0-1c.2-2.3.1-4.7-.3-7ZM59 96.4a79.2 79.2 0 0 1-42.7-17C5.4 70.4 0 59.2 1.3 48v-1c3-20.6 27.3-35.1 57-35.1 3 0 6.2.1 9.4.5 34.3 3.5 60.2 25.3 57.7 48.5C123 84.1 93.2 100.1 59 96.5Z"/>
  <path fill="#EDF8FF" d="M67.7 12.4c-3.2-.4-6.4-.5-9.5-.5-29.6 0-54 14.5-56.8 35l-.2 1c-1.1 11.3 4.2 22.5 15 31.6 11 9.3 26.1 15.3 42.7 17 34.3 3.6 64.1-12.4 66.5-35.6C128 37.7 102 16 67.7 12.4Zm54 45.8-.1 1.4v.3l-.1.7c-1 10-7.3 18.5-17 24.5a69 69 0 0 1-36.4 9.6 74 74 0 0 1-48.7-16.3C9 69.7 4 59.1 5.1 48.5v-.9l.5-3.4v-.1l.1-.1.2-.1c5.5-19.4 31.7-32.1 61.5-29a74 74 0 0 1 39.8 15.9A37.1 37.1 0 0 1 121.6 56v2Z"/>
  <path fill="#1E76E2" d="M119.8 64.8c-5.2 19.1-31 31.7-60.5 28.6a73 73 0 0 1-39.4-15.7 35.6 35.6 0 0 1-14-24.9 35.9 35.9 0 0 0 9.4 18c7.4 8 18.5 14.3 31.3 17.7a84 84 0 0 0 21.6 2.8c19 0 36.8-6.5 46.4-18a32 32 0 0 0 5.2-8.4Z"/>
  <path fill="#EDF8FF" d="M106.8 31.4a73 73 0 0 0-39.4-15.7c-3-.3-6-.4-8.8-.4C32 15.3 10 28 6.4 46 5.1 63.6 21.8 81 46.8 87.6c25.9 7 54.1.7 67.2-14.8 3.7-4.4 6-9.5 6.8-14.7.1-9.5-4.8-18.9-14-26.7Z"/>
  <path fill="#1E76E2" d="M127.1 49.7v1c0 .2-.3.4-.5.4a.4.4 0 0 1-.4-.4v-.9c1.2-14.7-9-29.5-27-38.9a88 88 0 0 0-62-6.5C18 9.8 5 22.1 2.9 36.5v.5a23.8 23.8 0 0 0-.1.8c-.1.2-.3.3-.5.3a.4.4 0 0 1-.4-.5l.2-1.2C4 21.6 17.4 9.1 37 3.6 57.3-2 81.2.6 99.7 10.1c18.2 9.5 28.6 24.6 27.5 39.6Z"/>
  <path fill="#1E76E2" d="M2.8 36.5v.5l-.1.7v.1l-.2 1-.1 1-1 7.1a.4.4 0 0 1-.5.4.4.4 0 0 1-.4-.4v-.2l1.2-8v-.9l.1-.1.1-.9v-.3l.1-.1c0-.2.3-.3.5-.3s.3.2.3.4Z"/>
  <path fill="#1E76E2" d="M126.3 49.8a15.9 15.9 0 0 1-.1 1l-.2 2.1c-3.4-20.4-27.4-38.2-58.2-41.4C37.2 8.3 10 20.6 2.4 39.8l.3-2V37l.1-.4C5 22 18 9.7 37.3 4.3a88 88 0 0 1 62 6.5c17.9 9.4 28.1 24.2 27 39Z"/>
  <path fill="#1E76E2" d="M127.1 49.7v.2l-.7 10.2c0 .3-.3.4-.5.4a.4.4 0 0 1-.4-.5l.5-7 .2-2.3v-1.1c0-.2.3-.4.5-.4.3 0 .4.2.4.5Z"/>
</svg>
