<svg xmlns="http://www.w3.org/2000/svg" fill="none" viewBox="0 0 94 53">
  <path fill="#1E76E2" d="m87 11-.1.5h-.4a.5.5 0 0 1-.3-.2c-4.3-7-23.5-7.7-44-1.8C21.9 15.5 6 26.3 6 34.5c0 .2 0 .3-.2.4l-.3.1-.3-.1-.1-.2v-.2l.1-1.7v-.1c2-8.4 17.1-18.4 36.9-24 19.7-5.8 37.9-5.4 43.9.6v.1l1.1 1.4v.3Z"/>
  <path fill="#1E76E2" d="m5.2 33 .4 1.1.1.1a6 6 0 0 1-.5-1.3Zm0 0 .4 1.1.1.1a6 6 0 0 1-.5-1.3Zm0 0 .4 1.1.1.1a6 6 0 0 1-.5-1.3Zm0 0 .4 1.1.1.1a6 6 0 0 1-.5-1.3Zm0 0 .4 1.1.1.1a6 6 0 0 1-.5-1.3Zm0 0 .4 1.1.1.1a6 6 0 0 1-.5-1.3Zm0 0 .4 1.1.1.1a6 6 0 0 1-.5-1.3Zm0 0 .4 1.1.1.1a6 6 0 0 1-.5-1.3Zm0 0 .4 1.1.1.1a6 6 0 0 1-.5-1.3ZM87 9.4v-.1c-1.3-4.2-6.8-7-15.6-7.6a90 90 0 0 0-30.3 4C18.3 12.1 1.8 24.5 4.3 33.1l.6 1.5.2.2.2.4.8.9c3.2 3.1 9.7 4.7 18 4.7 7.6 0 16.6-1.3 26-4 20.6-6 36-16.7 37-25V11c0-.6 0-1.2-.2-1.7ZM49.9 36c-20.9 6-39.7 5.2-44-1.6l-.1-.2a6 6 0 0 1-.6-1.2v-.3c-2-8.1 14.1-19.8 36.1-26.1a95.3 95.3 0 0 1 30-4c8.1.7 13.3 3 14.6 6.8v.2c.2.5.3 1 .2 1.6 0 8-15.5 18.7-36.3 24.8ZM5.1 33l.4 1.1.1.1a6 6 0 0 1-.5-1.3Zm0 0 .4 1.1.1.1a6 6 0 0 1-.5-1.3Zm0 0 .4 1.1.1.1a6 6 0 0 1-.5-1.3Zm0 0 .4 1.1.1.1a6 6 0 0 1-.5-1.3Zm0 0 .4 1.1.1.1a6 6 0 0 1-.5-1.3Zm0 0 .4 1.1.1.1a6 6 0 0 1-.5-1.3Zm0 0 .4 1.1.1.1a6 6 0 0 1-.5-1.3Zm0 0 .4 1.1.1.1a6 6 0 0 1-.5-1.3Z"/>
  <path fill="#1E76E2" d="M90.3 8.5v-.1c-2.8-9.3-25-11-49.6-4C16 11.6-1.8 25 .9 34.2c.4 1.2 1 2.3 2 3.2 3.3 3.4 10.4 5.2 19.5 5.2 8.1 0 17.9-1.5 28-4.4a97.2 97.2 0 0 0 30-14c5.7-4.1 9-8.3 9.9-12 .3-1.3.3-2.5 0-3.7Zm-10.4 15a96.3 96.3 0 0 1-29.7 13.8c-24.1 7-45.8 5.5-48.4-3.3-2.5-8.8 15-21.7 39.1-28.6C51.2 2.4 61 .9 69.1.9c5.5 0 10.2.7 13.7 2s5.8 3.2 6.5 5.7v.1c1.2 4.2-2.2 9.4-9.4 14.8Z"/>
  <path fill="#C9EBFF" d="M89.3 8.7c-.7-2.6-3-4.5-6.5-5.8-3.5-1.3-8.2-2-13.7-2C61 1 51 2.4 40.9 5.4 17 12.4-.7 25.2 2 34c2.5 8.8 24.2 10.3 48.3 3.3A96.2 96.2 0 0 0 80 23.5c7.2-5.4 10.6-10.6 9.4-14.8Zm-2.2 2.4v.7c-1 8.4-16.4 19-37 25-9.4 2.8-18.4 4.1-26 4.1-8.3 0-14.8-1.6-18-4.7a6.9 6.9 0 0 1-1-1.3l-.1-.2-.7-1.5c-2.5-8.6 14-21 36.7-27.6a90 90 0 0 1 30.3-3.9c8.8.7 14.3 3.4 15.5 7.6l.3 1.8Z"/>
  <path fill="#1E76E2" d="M85.9 9.4c-6-6-24.2-6.5-44-.8-19.7 5.7-34.8 15.8-36.8 24-1.9-8 14.2-19.7 36.2-26a95.3 95.3 0 0 1 30-4c8.1.7 13.3 3 14.6 6.8Z"/>
  <path fill="#C9EBFF" d="M42.2 9.5C21.8 15.5 6 26.3 6 34.5c4.3 6.7 23.1 7.5 44 1.5C70.5 30 86 19.2 86.1 11.2c-4.3-6.8-23.5-7.6-44-1.7Z"/>
  <path fill="#1E76E2" d="M83 33.8a96.4 96.4 0 0 1-30 14 103.3 103.3 0 0 1-32.6 4C11 51.3 5 48.3 3.7 43.7c-.1-.3 0-.5.3-.6.2 0 .5 0 .6.3 2.5 8.9 24.2 10.4 48.2 3.5C76.8 39.8 94.4 27 92 18c0-.2 0-.5.3-.5.3-.1.6 0 .6.3 1.3 4.6-2.2 10.3-9.8 16Z"/>
  <path fill="#1E76E2" d="M92.5 18.4h-.1a.5.5 0 0 1-.5-.4l-1.6-5.8-1-3.5c0-.2.1-.5.4-.6.2 0 .5.1.5.4l2.6 9.3c.1.2 0 .5-.3.6Z"/>
  <path fill="#1E76E2" d="M52.8 46.8c-24 7-45.7 5.4-48.2-3.5v-.2l-.2-.3v-.2l-.1-.3-1.5-5c3.4 3.5 10.5 5.3 19.6 5.3 8.1 0 17.9-1.5 28-4.4a97.2 97.2 0 0 0 30-14c5.7-4.1 9-8.3 9.9-12l1.6 5.8c2.5 9-15 21.9-39 28.8Z"/>
  <path fill="#1E76E2" d="M4.2 43.9H4l-.3-.2v-.1L.9 34.2c0-.2.1-.5.4-.5.2-.1.5 0 .5.3l1 3.4 1.5 5 .2.7v.2c.1.3 0 .5-.3.6Z"/>
</svg>
