<svg width="80" height="80" viewBox="0 0 81 80" fill="none" xmlns="http://www.w3.org/2000/svg">
<path fill-rule="evenodd" clip-rule="evenodd" d="M29.2965 19.5535C30.3755 16.4206 33.8955 14.3473 37.1588 14.9227L53.9312 17.8797C54.106 17.9105 54.2789 17.9491 54.4488 17.9949L55.3199 18.2293L55.3756 18.0672L56.5699 19.1151C56.8438 19.3553 57.0912 19.6253 57.3053 19.9227L57.5084 20.2293L62.0289 27.6981L62.1392 27.8885C62.3838 28.3396 62.5497 28.8259 62.6402 29.3289L62.9127 30.8416L62.7633 30.8153L62.5855 31.4549L63.9508 34.0457L64.0611 34.2274C64.119 34.323 64.1711 34.4217 64.2203 34.5213L64.1978 34.5174L64.1138 38.5145L64.15 38.5213L56.3248 61.2469C55.4257 63.8576 52.4923 65.5856 49.773 65.1063L26.315 60.9695C24.8354 60.7086 23.7247 59.8472 23.1637 58.6961L23.148 58.6942L21.5562 55.4676C19.3541 54.4125 18.2611 52.0302 18.9869 49.5174L19.0797 49.2244L29.2965 19.5535ZM36.5777 15.8299C33.9324 15.4976 31.1519 17.198 30.2808 19.7274L20.065 49.3983L19.9879 49.6414C19.7012 50.6336 19.7559 51.6016 20.0865 52.4393L28.8316 38.491L33.2349 25.7039C34.134 23.0929 37.0672 21.365 39.7867 21.8445L46.6588 23.0565L53.9986 18.9119C53.8701 18.8784 53.7385 18.8495 53.6051 18.826L36.8326 15.868L36.5777 15.8299ZM55.7877 19.9022L61.5845 29.5565L61.6119 29.6092L61.6168 29.6102C61.5302 29.1294 61.3605 28.6697 61.107 28.2508L56.5865 20.783C56.375 20.4338 56.1101 20.1236 55.8043 19.8553L55.7877 19.9022Z" fill="#1E76E2"/>
<path d="M53.6051 18.826C53.7517 18.8519 53.8965 18.8833 54.0371 18.9213L52.3034 23.9564C51.2247 27.0894 52.9957 30.0958 56.2589 30.6714L61.5118 31.5976C61.4849 31.6947 61.4562 31.7918 61.4229 31.8885L53.3717 55.2707C52.4727 57.8816 49.5393 59.6094 46.8199 59.13L23.3614 54.9937C20.642 54.5142 19.166 52.0092 20.065 49.3983L30.2808 19.7274C31.1799 17.1164 34.1131 15.3885 36.8326 15.868L53.6051 18.826ZM28.7833 41.7746C28.2395 41.6789 27.6527 42.0244 27.4729 42.5464C27.2934 43.0684 27.5886 43.5696 28.1322 43.6656L42.6129 46.2189L42.7155 46.2321C43.2286 46.2713 43.7546 45.9365 43.9233 45.4471C44.0918 44.9575 43.8434 44.4863 43.3634 44.3503L43.264 44.3279L28.7833 41.7746ZM30.58 36.5567C30.0361 36.4608 29.4494 36.8063 29.2696 37.3285C29.0898 37.8507 29.385 38.3518 29.9288 38.4477L51.7456 42.2946L51.8482 42.3078C52.3612 42.3466 52.8874 42.0121 53.056 41.5227C53.2245 41.0333 52.9757 40.5622 52.4961 40.426L52.3967 40.4036L30.58 36.5567ZM32.3766 31.3388C31.8327 31.2429 31.2461 31.5885 31.0663 32.1106C30.8867 32.6327 31.1817 33.1339 31.7255 33.2298L53.5423 37.0767L53.6448 37.0899C54.1579 37.1289 54.684 36.7941 54.8526 36.3048C55.0212 35.8154 54.7725 35.3442 54.2928 35.2081L54.1934 35.1857L32.3766 31.3388ZM55.8043 19.8553C56.1101 20.1236 56.375 20.4338 56.5865 20.783L61.107 28.2508C61.3605 28.6697 61.5302 29.1294 61.6168 29.6102L56.91 28.7803C54.7346 28.3966 53.5539 26.3923 54.273 24.3037L55.8043 19.8553Z" fill="#EFF8FF"/>
</svg>
