<svg width="80" height="80" viewBox="0 0 80 80" fill="none" xmlns="http://www.w3.org/2000/svg">
<path fill-rule="evenodd" clip-rule="evenodd" d="M16.9995 35.6144C21.3697 24.2295 34.7747 15.6896 46.9399 16.5402C52.0804 16.8997 56.1764 18.8792 58.8637 21.9035L58.936 21.9357L60.4624 23.9055C67.3246 27.7644 70.1698 35.7558 66.7641 44.633L66.5415 45.1926C61.7966 56.7327 48.4308 65.2259 35.9477 64.6418L35.3442 64.6066C27.1929 64.0312 21.5541 59.4495 19.8344 53.0842C15.646 48.9559 14.3341 42.5582 16.9995 35.6144ZM63.0854 27.2883L62.0542 28.1457C62.074 28.2331 62.0934 28.3213 62.1118 28.4094L63.6635 38.3254L60.7036 45.0793L54.7797 51.9894L44.7524 57.341L37.5307 58.6389L31.2446 58.6398L23.6411 57.9465L22.7436 56.798C25.231 60.5384 29.5399 63.0908 35.146 63.6262L35.7036 63.673C47.8161 64.5275 60.9408 56.3201 65.5542 45.0998L65.767 44.5627C68.4029 37.6915 67.1227 31.3755 63.062 27.259L63.0854 27.2883Z" fill="#1E76E2"/>
<path d="M51.709 22.4564C63.7278 23.2754 70.1434 33.1551 65.767 44.5627C61.3573 56.0567 48.0083 64.5411 35.7036 63.673C23.6979 62.8259 17.3852 52.8825 21.7012 41.6176C26.1098 30.1113 39.4413 21.5988 51.709 22.4564ZM46.7053 29.3909C42.2681 29.7716 38.2477 31.5246 34.6165 34.6363C32.3609 36.5692 29.4274 40.6584 29.5207 41.7871C29.6178 41.6703 29.7141 41.5519 29.8107 41.4329C30.0209 41.1742 30.2334 40.9125 30.4605 40.6602L30.4612 40.6583C31.3254 39.6965 32.207 38.7436 33.3671 38.0343C34.0935 37.5909 34.8094 37.4474 35.4254 37.7513C36.1167 38.0928 36.2726 38.6921 35.9572 39.5139L32.1961 49.3119C31.7661 50.432 31.1783 50.7846 30.0217 50.6035L29.9926 50.5986C29.7871 50.5669 29.5785 50.5341 29.4162 50.4272C29.3583 50.3888 29.2829 50.3706 29.1897 50.4282C29.1459 50.4984 29.1696 50.5466 29.1943 50.5961C29.1995 50.6066 29.2044 50.6173 29.209 50.6281C29.7518 51.8721 30.5234 52.9565 31.5434 53.8788C33.2553 55.4262 35.4413 56.327 38.0711 56.6448C38.3848 56.6827 38.6479 56.6095 38.9499 56.4142C39.6875 55.9373 40.4276 55.4645 41.1675 54.9918C41.9427 54.4965 42.7181 54.0015 43.49 53.5018C43.7932 53.3057 43.9526 53.2731 44.0836 53.5424C44.282 53.9487 44.4945 54.3473 44.707 54.7459C44.8628 55.0382 45.019 55.3311 45.1693 55.6264C45.2595 55.804 45.3742 55.8705 45.6375 55.7696C45.8279 55.697 46.0204 55.6319 46.2127 55.5664C46.4824 55.4746 46.7524 55.3822 47.0164 55.2707C50.613 53.7514 53.6347 51.5445 55.9927 48.5597C56.2942 48.1783 56.5963 47.792 56.8252 47.3681C56.6799 47.3711 56.5829 47.4411 56.4889 47.5094C56.4625 47.5285 56.4363 47.5482 56.4093 47.5656C55.2141 48.3344 54.0083 49.0818 52.7054 49.6311C52.037 49.9126 51.3683 50.1102 50.7108 50.0374C50.0621 49.9659 49.7791 49.567 50.0051 48.9676C51.3047 45.5139 52.6072 42.0602 53.922 38.6075C54.1198 38.0881 54.3551 37.5718 54.6887 37.0687C56.0872 34.962 58.0686 33.3534 60.3094 31.959C60.3503 31.9335 60.3963 31.9141 60.4423 31.8943C60.5566 31.8451 60.6736 31.7946 60.7237 31.6537C60.712 31.6529 60.7003 31.6515 60.689 31.6503C60.6734 31.6488 60.658 31.647 60.6429 31.6453C60.5889 31.6388 60.5371 31.6323 60.4827 31.6378C58.2979 31.8562 56.136 32.4505 53.9991 33.4528C52.8146 34.0081 51.6845 34.6705 50.5968 35.4102C50.5843 35.4186 50.5715 35.4271 50.559 35.4356C50.3843 35.5557 50.2136 35.6727 50.0448 35.5167C49.5411 35.0523 48.8288 34.8913 48.0575 34.8198C48.0403 34.8182 48.0219 34.8157 48.004 34.8132C47.9143 34.8009 47.8189 34.788 47.743 34.8755C47.6659 34.9649 47.7224 35.0109 47.7763 35.0547C47.7962 35.0709 47.8156 35.0874 47.8279 35.1052C48.4162 35.9558 48.5391 36.9455 48.0957 38.1028C47.4879 39.6882 46.8793 41.2745 46.2706 42.8601C45.5396 44.764 44.8085 46.6682 44.079 48.572C44.0072 48.7589 43.8968 48.8983 43.6898 49.01C42.6473 49.5722 41.5818 50.0271 40.4675 50.217C39.1032 50.4496 37.969 49.5314 38.5369 48.1479C39.4641 45.8902 40.3216 43.626 41.1788 41.3619C41.5351 40.4207 41.8912 39.4794 42.2525 38.5386C42.6244 37.5698 42.9961 36.601 43.3757 35.6336C43.4705 35.3907 43.5209 35.2331 43.1235 35.3575C42.7502 35.4745 42.4355 35.3952 42.2131 35.1937C41.889 34.9001 41.9357 34.4628 42.0332 34.0259C42.4167 32.3118 43.7354 31.0897 45.4083 30.0725C45.6944 29.8991 45.9943 29.7498 46.294 29.5999C46.4315 29.5311 46.5691 29.462 46.7053 29.3909Z" fill="#EFF8FF"/>
</svg>
