<svg width="80" height="80" viewBox="0 0 81 80" fill="none" xmlns="http://www.w3.org/2000/svg">
<path d="M31.6718 21.4986L36.6757 22.2515L50.4511 27.8052L51.4559 28.5494L52.618 30.0718L61.4384 40.5288L62.9032 49.1324L62.1747 52.4605L60.8749 53.9195C58.6429 59.4957 52.0729 63.0088 46.2313 63.315C34.2639 63.9422 20.4561 55.6458 15.3915 44.7847C12.1968 37.9335 13.2453 31.6992 17.4579 27.8716L19.8622 25.4869L22.5468 24.0425L25.2313 22.5982L29.8319 21.5308L30.8895 21.4771L31.6718 21.4986Z" fill="#1E76E2"/>
<path d="M32.083 37.7937L32.3517 38.3527C33.6068 40.8958 35.0561 43.298 36.6101 45.471C33.74 46.3665 31.4716 47.6042 30.0009 49.0652L30.9229 49.774C32.3106 48.3954 34.4774 47.2076 37.2478 46.3416C41.7061 52.2906 46.9011 56.3236 50.8266 56.4704L50.8345 56.4872C39.1532 56.8552 25.8747 48.8765 20.7168 38.3894L32.083 37.7937Z" fill="#EFF8FF"/>
<path d="M64.0421 36.1188C68.6779 46.6345 63.2948 55.5919 51.8331 56.4349L51.8253 56.4181C55.4314 55.8781 56.7065 51.506 55.5366 45.384C58.963 45.9253 62.1078 46.8339 64.6842 48.0046L64.9169 47.2353C62.1862 45.9944 58.8989 45.0489 55.3504 44.4898C54.8522 42.261 54.0481 39.8251 52.9279 37.2743L52.6749 36.7146L64.0421 36.1188Z" fill="#EFF8FF"/>
<path d="M46.4365 44.8618C49.1744 44.7487 51.8898 44.8853 54.4662 45.2289C54.8016 46.9882 54.9309 48.591 54.853 49.9833C54.6676 53.294 53.3659 55.1539 51.3993 55.5047L46.4365 44.8618Z" fill="#EFF8FF"/>
<path d="M50.4003 55.5561C48.2086 55.4221 45.2775 53.7848 42.0883 50.6522C40.7464 49.3341 39.4094 47.7943 38.1269 46.0843C40.2672 45.4938 42.7284 45.0866 45.4378 44.9141L50.4003 55.5561Z" fill="#EFF8FF"/>
<path d="M51.6763 36.7669C52.8983 39.4591 53.7611 42.018 54.28 44.3346C51.6128 43.9782 48.8172 43.839 46.0138 43.9555L42.8768 37.2281L51.6763 36.7669Z" fill="#EFF8FF"/>
<path d="M41.8782 37.2804L45.0152 44.0078C42.2405 44.1837 39.7052 44.6016 37.4902 45.2137C35.8757 42.9547 34.3686 40.4297 33.0817 37.7414L41.8782 37.2804Z" fill="#EFF8FF"/>
<path d="M33.4979 17.1149C45.1798 16.745 58.4606 24.7247 63.6195 35.2125L52.2523 35.8083C50.8602 32.8988 49.2105 30.1632 47.432 27.7293C50.2901 26.8487 52.5595 25.6316 54.0477 24.1919L53.1305 23.4783C51.7226 24.8402 49.5487 26.0099 46.7828 26.862C42.3924 21.1315 37.343 17.2734 33.5057 17.1318L33.4979 17.1149Z" fill="#EFF8FF"/>
<path d="M32.5075 17.185C28.9843 17.7142 27.6867 21.9035 28.7226 27.8085C25.3134 27.2801 22.1786 26.3884 19.5984 25.2357L19.3755 26.009C22.1026 27.2274 25.3704 28.1538 28.8925 28.7C29.4146 31.1998 30.3374 33.9742 31.6604 36.8874L20.2942 37.4831C15.6597 26.9691 21.0407 18.012 32.4993 17.1673L32.5075 17.185Z" fill="#EFF8FF"/>
<path d="M29.9617 28.8525C32.5958 29.1982 35.3532 29.3322 38.1184 29.2175L41.4556 36.3741L32.659 36.8351C31.3638 33.9815 30.4679 31.2768 29.9617 28.8525Z" fill="#EFF8FF"/>
<path d="M46.5542 27.9829C48.2792 30.3434 49.8892 33.0106 51.2536 35.8606L42.4542 36.3218L39.117 29.1651C41.8554 28.9916 44.3599 28.5818 46.5542 27.9829Z" fill="#EFF8FF"/>
<path d="M37.6957 28.3111C35.0023 28.4223 32.3305 28.2915 29.7914 27.9601C29.513 26.3628 29.411 24.902 29.4828 23.6196C29.6681 20.3102 30.9683 18.4502 32.9335 18.0984L37.6957 28.3111Z" fill="#EFF8FF"/>
<path d="M33.9317 18.0451C36.1237 18.1779 39.0569 19.8169 42.2475 22.9507C43.4831 24.1644 44.7151 25.5662 45.904 27.1157C43.7872 27.6912 41.3613 28.0891 38.6944 28.2588L33.9317 18.0451Z" fill="#EFF8FF"/>
<path d="M33.4664 16.1153C39.5355 15.9231 45.9641 17.8962 51.5201 21.2344C52.0291 21.5403 52.5312 21.8585 53.0259 22.1875L53.6001 22.5772C58.254 25.7939 62.1781 30.0164 64.5171 34.7715L64.7496 35.2432L65.1353 36.1338C67.3649 41.4649 67.173 46.5225 64.8316 50.419C62.49 54.3154 58.1138 56.8587 52.3599 57.3926L52.3814 57.4385L51.3951 57.4688L51.2183 57.4825L51.2144 57.4747L50.8658 57.4864C44.797 57.6775 38.3692 55.7043 32.814 52.3663C27.259 49.0282 22.4996 44.2793 19.8199 38.8311L19.6646 38.5166L19.6578 38.5176L19.5845 38.3526L19.15 37.4698L19.1998 37.4668C17.272 32.8559 17.1569 28.4498 18.6763 24.8223C18.935 24.2654 19.1878 23.7117 19.5044 23.1846C21.845 19.2886 26.2193 16.7441 31.9712 16.209L33.4664 16.1153ZM20.7168 38.3894C25.8747 48.8765 39.1532 56.8552 50.8345 56.4872L50.8266 56.4704C46.9011 56.3236 41.7061 52.2906 37.2478 46.3416C34.4774 47.2076 32.3106 48.3954 30.9229 49.774L30.0009 49.0652C31.4716 47.6042 33.74 46.3665 36.6101 45.471C35.0561 43.298 33.6068 40.8958 32.3517 38.3527L32.083 37.7937L20.7168 38.3894ZM52.6749 36.7146L52.9279 37.2743C54.0481 39.8251 54.8522 42.261 55.3504 44.4898C58.8989 45.0489 62.1862 45.9944 64.9169 47.2353L64.6842 48.0046C62.1078 46.8339 58.963 45.9253 55.5366 45.384C56.7065 51.506 55.4314 55.8781 51.8253 56.4181L51.8331 56.4349C63.2948 55.5919 68.6779 46.6345 64.0421 36.1188L52.6749 36.7146ZM45.4378 44.9141C42.7284 45.0866 40.2672 45.4938 38.1269 46.0843C39.4094 47.7943 40.7464 49.3341 42.0883 50.6522C45.2775 53.7848 48.2086 55.4221 50.4003 55.5561L45.4378 44.9141ZM54.4662 45.2289C51.8898 44.8853 49.1744 44.7487 46.4365 44.8618L51.3993 55.5047C53.243 55.1758 54.5023 53.5206 54.8052 50.587L54.853 49.9833C54.9309 48.591 54.8016 46.9882 54.4662 45.2289ZM33.0817 37.7414C34.3686 40.4297 35.8757 42.9547 37.4902 45.2137C39.7052 44.6016 42.2405 44.1837 45.0152 44.0078L41.8782 37.2804L33.0817 37.7414ZM42.8768 37.2281L46.0138 43.9555C48.8172 43.839 51.6128 43.9782 54.28 44.3346C53.7611 42.018 52.8983 39.4591 51.6763 36.7669L42.8768 37.2281ZM32.4993 17.1673C21.0407 18.012 15.6597 26.9691 20.2942 37.4831L31.6604 36.8874C30.3374 33.9742 29.4146 31.1998 28.8925 28.7C25.3704 28.1538 22.1026 27.2274 19.3755 26.009L19.5984 25.2357C22.1786 26.3884 25.3134 27.2801 28.7226 27.8085C27.6867 21.9035 28.9843 17.7142 32.5075 17.185L32.4993 17.1673ZM29.9617 28.8525C30.4679 31.2768 31.3638 33.9815 32.659 36.8351L41.4556 36.3741L38.1184 29.2175C35.3532 29.3322 32.5958 29.1982 29.9617 28.8525ZM46.5542 27.9829C44.3599 28.5818 41.8554 28.9916 39.117 29.1651L42.4542 36.3218L51.2536 35.8606C49.8892 33.0106 48.2792 30.3434 46.5542 27.9829ZM33.4979 17.1149L33.5057 17.1318C37.343 17.2734 42.3924 21.1315 46.7828 26.862C49.5487 26.0099 51.7226 24.8402 53.1305 23.4783L54.0477 24.1919C52.5595 25.6316 50.2901 26.8487 47.432 27.7293C49.2105 30.1632 50.8602 32.8988 52.2523 35.8083L63.6195 35.2125C58.4606 24.7247 45.1798 16.745 33.4979 17.1149ZM32.9335 18.0984C30.9683 18.4502 29.6681 20.3102 29.4828 23.6196L29.4644 24.1084C29.4396 25.269 29.5477 26.5623 29.7914 27.9601C32.3305 28.2915 35.0023 28.4223 37.6957 28.3111L32.9335 18.0984ZM38.6944 28.2588C41.3613 28.0891 43.7872 27.6912 45.904 27.1157C44.7151 25.5662 43.4831 24.1644 42.2475 22.9507C39.0569 19.8169 36.1237 18.1779 33.9317 18.0451L38.6944 28.2588Z" fill="#1E76E2"/>
</svg>
