<svg width="210" height="57" viewBox="0 0 210 57" fill="none" xmlns="http://www.w3.org/2000/svg">
<rect y="0.376953" width="210" height="56" rx="8" fill="#EFF8FF"/>
<path d="M20.4474 18.7855C20.264 18.4139 19.734 18.4139 19.5506 18.7855L16.5865 24.792L9.96211 25.7495C9.55188 25.8088 9.38779 26.3128 9.68449 26.6022L14.479 31.2795L13.3455 37.8786C13.2753 38.287 13.7039 38.5986 14.0708 38.4059L19.999 35.292L25.9272 38.4059C26.2941 38.5986 26.7227 38.287 26.6525 37.8786L25.519 31.2795L30.3132 26.609C30.6101 26.3198 30.4464 25.8157 30.0363 25.756L23.4115 24.792L20.4474 18.7855Z" fill="#F8BF51"/>
<path d="M41.36 35.577C40.3333 35.577 39.4133 35.3503 38.6 34.897C37.8 34.4303 37.18 33.797 36.74 32.997L38.06 31.737C38.4333 32.3103 38.9133 32.7703 39.5 33.117C40.0867 33.4503 40.7133 33.617 41.38 33.617C41.9267 33.617 42.4133 33.5036 42.84 33.277C43.2667 33.037 43.6 32.7103 43.84 32.297C44.0933 31.8836 44.22 31.4036 44.22 30.857C44.22 30.3236 44.1 29.857 43.86 29.457C43.6333 29.0436 43.3133 28.7236 42.9 28.497C42.5 28.2703 42.0467 28.157 41.54 28.157C41.0333 28.157 40.5533 28.2703 40.1 28.497C39.66 28.7236 39.3067 29.0436 39.04 29.457H37.08L38.7 21.177H45.64V23.197H40.3L39.58 27.057C39.82 26.817 40.1267 26.6236 40.5 26.477C40.8867 26.3303 41.3267 26.257 41.82 26.257C42.7133 26.257 43.5067 26.4503 44.2 26.837C44.9067 27.2236 45.46 27.757 45.86 28.437C46.2733 29.117 46.48 29.9036 46.48 30.797C46.48 31.7436 46.2533 32.577 45.8 33.297C45.3467 34.0036 44.7333 34.5636 43.96 34.977C43.2 35.377 42.3333 35.577 41.36 35.577ZM48.4895 35.377V32.817H50.3095V35.377H48.4895ZM58.4873 35.577C57.4873 35.5503 56.6073 35.317 55.8473 34.877C55.0873 34.437 54.454 33.8636 53.9473 33.157C53.4407 32.437 53.054 31.6636 52.7873 30.837C52.534 29.997 52.4073 29.177 52.4073 28.377C52.4073 27.5236 52.5473 26.6703 52.8273 25.817C53.1073 24.9636 53.514 24.1903 54.0473 23.497C54.5807 22.7903 55.2207 22.2303 55.9673 21.817C56.714 21.3903 57.554 21.177 58.4873 21.177C59.4873 21.177 60.3607 21.4036 61.1073 21.857C61.8673 22.3103 62.5007 22.897 63.0073 23.617C63.514 24.337 63.894 25.117 64.1473 25.957C64.414 26.797 64.5473 27.6036 64.5473 28.377C64.5473 29.2436 64.4073 30.1036 64.1273 30.957C63.8473 31.797 63.4407 32.5636 62.9073 33.257C62.374 33.9503 61.734 34.5103 60.9873 34.937C60.254 35.3503 59.4207 35.5636 58.4873 35.577ZM54.6873 28.377C54.714 28.9903 54.8007 29.6036 54.9473 30.217C55.1073 30.817 55.3473 31.3703 55.6673 31.877C55.9873 32.3836 56.3807 32.7903 56.8473 33.097C57.314 33.4036 57.8607 33.557 58.4873 33.557C59.1407 33.557 59.7007 33.397 60.1673 33.077C60.6473 32.7436 61.0407 32.317 61.3473 31.797C61.654 31.2636 61.8807 30.697 62.0273 30.097C62.1873 29.497 62.2673 28.9236 62.2673 28.377C62.2673 27.7636 62.1807 27.157 62.0073 26.557C61.8473 25.9436 61.6073 25.3836 61.2873 24.877C60.9673 24.3703 60.574 23.9636 60.1073 23.657C59.6407 23.3503 59.1007 23.197 58.4873 23.197C57.834 23.197 57.2673 23.3636 56.7873 23.697C56.3073 24.017 55.914 24.4436 55.6073 24.977C55.3007 25.497 55.0673 26.057 54.9073 26.657C54.7607 27.257 54.6873 27.8303 54.6873 28.377Z" fill="#2A303E"/>
<mask id="mask0_7663_40080" style="mask-type:luminance" maskUnits="userSpaceOnUse" x="86" y="18" width="21" height="21">
<path fill-rule="evenodd" clip-rule="evenodd" d="M91.8563 18.5529L92.6977 18.5439L101.45 18.5475C101.582 18.5487 101.665 18.5505 101.747 18.5529C102.181 18.5642 102.619 18.5892 103.048 18.6661C103.478 18.7386 103.895 18.8744 104.285 19.0689C104.673 19.2644 105.03 19.5194 105.338 19.8251C105.646 20.1294 105.904 20.4805 106.102 20.8655C106.305 21.257 106.432 21.6581 106.51 22.0883C106.587 22.5126 106.613 22.9452 106.624 23.3742C106.63 23.5709 106.633 23.7675 106.633 23.9648L106.634 24.3158V32.0844C106.634 32.318 106.634 32.5522 106.633 32.7864C106.632 32.983 106.63 33.1796 106.624 33.3763C106.612 33.8053 106.587 34.2385 106.51 34.6622C106.436 35.088 106.299 35.5002 106.102 35.885C105.904 36.2701 105.646 36.6215 105.338 36.926C105.028 37.2316 104.673 37.4868 104.285 37.6822C103.895 37.8768 103.478 38.0125 103.048 38.085C102.619 38.1613 102.181 38.1863 101.747 38.1982L100.44 38.2084L92.1536 38.2036C92.0545 38.2025 91.9553 38.2005 91.8563 38.1976C91.4224 38.1869 90.9845 38.1613 90.5554 38.085C90.1258 38.0125 89.7094 37.8767 89.3195 37.6822C88.5393 37.2895 87.9028 36.6606 87.5009 35.885C87.3045 35.5001 87.1671 35.0879 87.0933 34.6622C87.0158 34.2385 86.9908 33.8053 86.9795 33.3769C86.9735 33.1802 86.9717 32.983 86.9705 32.7864L86.9688 32.4342V24.6667C86.9688 24.4331 86.9688 24.199 86.9705 23.9654C86.9717 23.7687 86.9741 23.5721 86.9795 23.3748C86.9914 22.9458 87.0164 22.5132 87.0933 22.0889C87.1671 21.6632 87.3045 21.251 87.5009 20.8661C87.9022 20.0903 88.5386 19.4613 89.3189 19.0689C89.709 18.8744 90.1256 18.7386 90.5554 18.6661C90.9845 18.5898 91.4224 18.5648 91.8563 18.5529Z" fill="white"/>
</mask>
<g mask="url(#mask0_7663_40080)">
<path d="M73.8594 7.81348H141.094V75.0484H73.8594V7.81348Z" fill="#19AA1E"/>
<path fill-rule="evenodd" clip-rule="evenodd" d="M73.8594 7.81348H141.094V29.8727L73.8594 19.3687V7.81348Z" fill="#FFB919"/>
<path fill-rule="evenodd" clip-rule="evenodd" d="M73.8594 18.041L97.3283 21.708C100.25 19.8582 103.725 18.8437 107.476 18.8437C112.671 18.8437 117.34 20.7892 120.738 24.2037C121.166 24.6355 121.569 25.0858 121.95 25.5543L141.094 28.545V31.2036L123.894 28.5144C125.181 30.9755 125.856 33.7108 125.86 36.4882C125.86 40.09 125.055 43.6817 123.389 47.2876L123.34 47.3976L122.631 48.9133H120.96C117.505 48.9133 115.215 49.9462 113.716 51.7776C112.54 53.2139 111.86 55.1533 111.632 57.268L111.624 57.3332L111.591 57.6714L111.577 57.8181L111.548 58.1053C111.461 59.0506 111.404 59.8512 111.373 60.5031L141.094 55.8582V58.5168L73.8594 69.0229V66.3643L103.613 61.7153L103.601 61.1184L103.597 60.9513L103.593 60.8637L103.589 60.7313C103.562 60.0081 103.495 59.0811 103.389 57.9566L103.369 57.7427L103.332 57.3739C103.12 55.2471 102.45 53.2852 101.274 51.8265C99.7934 49.9828 97.526 48.9337 94.0973 48.9133H92.3208L91.6139 47.3976C89.9148 43.755 89.0918 40.1267 89.0918 36.4882C89.0918 31.9126 90.9477 27.4877 94.2154 24.2037L94.5007 23.9246L73.8594 20.6976V18.041Z" fill="white"/>
<path fill-rule="evenodd" clip-rule="evenodd" d="M107.475 21.4697C116.862 21.4697 123.233 28.6938 123.233 36.4882C123.233 39.6174 122.55 42.8729 120.957 46.2873C111.722 46.2873 109.443 52.9002 109.011 57.0643L108.982 57.3393C108.838 58.8265 108.752 60.0183 108.73 60.9147L106.228 61.3058V61.2244C106.193 59.9004 106.103 58.5785 105.959 57.2619L105.953 57.1886C105.554 53.0347 103.323 46.2873 93.9944 46.2873C92.3993 42.8729 91.7168 39.6174 91.7168 36.4882C91.7168 28.6938 98.0893 21.4697 107.475 21.4697Z" fill="#0073FA"/>
</g>
<path fill-rule="evenodd" clip-rule="evenodd" d="M125.356 19.209C120.756 19.209 117.307 21.944 117.336 26.6939H121.611C121.552 24.7939 122.79 22.951 125.356 22.951C127.301 22.951 128.539 24.2176 128.539 25.8298C128.539 27.5 127.182 28.421 125.002 29.4578C122.142 30.8104 120.432 31.4437 117.336 32.4507V37.9207H133.256V34.1778H123.115C124.592 33.5762 126.031 32.9157 127.331 32.3069C130.78 30.6955 132.813 28.8815 132.813 25.629C132.813 21.7133 129.807 19.209 125.356 19.209ZM139.742 23.2387H147.997V19.4967H135.615V37.9207H139.742V23.2387ZM154.483 19.4967H150.355V37.9207H154.453L162.148 26.1465V37.9207H166.275V19.4967H162.148L154.483 31.2709V19.4967ZM187.001 31.0113H182.726C182.077 33.056 180.102 34.4665 177.773 34.4665C174.382 34.4665 172.171 31.6165 172.171 28.7087C172.171 25.8009 174.324 22.951 177.891 22.951C180.25 22.951 182.077 24.3624 182.726 26.4062H187.001C186.382 22.2896 183.051 19.209 177.773 19.209C171.936 19.209 168.044 23.2106 168.044 28.7087C168.044 34.2068 171.936 38.2084 177.773 38.2084C183.051 38.2084 186.382 35.1866 187.001 31.0113Z" fill="#262626"/>
</svg>
