<svg width="221" height="49" xmlns="http://www.w3.org/2000/svg" fill="none" viewBox="0 0 221 49">
  <path fill="#EFF8FF" d="M79.5 11.5c-1-2-1.8-4.2-2.8-6.3h-.2v17.1c0 .9-.2 1.1-1 1-1.9 0-1.6.3-1.6-1.5V2.9c0-.3-.3-.9.4-1h2.1c1.1-.2 1.6.3 2 1.3l4.5 10 .4.7 2.2-5 2.8-6.3c.2-.5.4-.7 1-.7h2.4c.8 0 .9.2.9 1v19.4c0 .8-.2 1.1-1 1.1-1.9 0-1.9 0-1.9-1.8V5.2c-.2.1-.3.2-.3.4 0 .7-.2 1.3-.5 2l-2.2 4.7c-.2.4-.3.8-.8 1-.3.4-.3.9-.5 1.3-.2.8-.3 1.6-.7 2.3-.4.6-1 .9-1.6.9-.7 0-1.2-.3-1.5-1l-2-4.3c-.2-.3-.1-.7-.1-1ZM143.6 21c.5.3 1.2-.3 1.4.4.2.4 0 1 0 1.5l.1 3.5c0 .7-.2.9-.8.8h-1.7c-.2-.9 0-1.8 0-2.7-.1-.3 0-.7-.2-1-.6-.3-1.1.2-1.7.2-1.2 0-2.5.2-3.7 0-2-.4-4.1-.2-6.2-.3-.1 0-.2 0-.2-.2v-14c0-2 0-2 2-2 .7 0 .8.3.8.9v12.2c0 .6.2.8.8.8h5.8c.6 0 .8-.2.8-.9V8.4c0-1 .3-1.3 1.2-1.2h1.6c.2.8.1 1.7 0 2.5 0 2.5.4 5 .4 7.6 0 1.2-.1 2.4-.4 3.6ZM109.7 23.3c-2.7.2-2.7.2-2.7-2.4 0-3 0-6.1-.2-9.3l-7.5 11.7c-2.6.1-2.6.1-2.6-2.3V8c0-.5.2-.7.8-.7 2 0 2-.1 2 1.8 0 3.3 0 6.5.2 9.8l7.4-11.6c.9-.4 1.7-.8 2.7-.1.2.3.2.6.2 1v13l-.3 2.1ZM147.1 31.5v16.3c-.1.2-.3.2-.5.3l-.7.1c-1.3.1-1.8-.3-1.8-1.6V37l-3.1 5c-.3.3-.5.6-1 .7a81.4 81.4 0 0 0-3.2 5.2h-2.4c-.3-.2-.1-.5-.1-.7v-15c0-.1-.2-.4.1-.6h2.6c.5.4.4 1 .4 1.4v10.2c-.2-.5 0-.9.1-1.2l3-4.7c.3-.3.5-.6 1-.7l.7-1.3c.2-.8.4-1.5 1.2-1.8l.7-1.2c.1-.3 0-.7.6-.7h2.4ZM151.8 21.1l-.7 1c-.4 1.3-1.4 1.3-2.6 1.3-.5 0-.7-.2-.7-.7V7.2h2.6l.2.1c.4.7.1 1.4.2 2V18l6.4-9.9c.3-.4.6-.9 1.2-1h2.2c.4.3.5.7.5 1.2v13.5c0 .5-.4 1-.4 1.6 0 .2-.2.3-.4.3-.6.2-1.3.2-2 0-.2 0-.5-.3-.4-.5.1-1-.6-2 0-3v-.6c-.1-.1-.3-.3-.2-.4.3-1.2-.1-2.4.2-3.5v-1.1l-.3-1.8c-.4.5-.6 1.2-1.3 1.3l-1.5 2.4c-.3.5-.3 1.2-1 1.5-.8 1-1.3 2.1-2 3.2ZM115.7 7.2c.5 0 .8.2.7.8v5c0 .6.2.8.8.8h6c.5 0 .7-.2.7-.8V8.2c0-.7 0-1 .8-1 2 0 2 0 2 1.9v13.4c0 .7-.2 1-1 .9h-1c-.6 0-.8-.2-.9-.7-.4-.3-.4-.7-.4-1.1v-3.9c0-1-.1-1.2-1.2-1.2h-4.1c-1.2 0-1.3.1-1.3 1.2v4.5c0 .5 0 .9-.3 1.2-1 .2-2 .7-3-.1a5 5 0 0 1-.3-2.4V8.7c0-1.5 0-1.6 1.5-1.6l1 .1ZM116 31.7l1.2.3c.5.3.7.6.6 1.2-.1.7.3 1.5-.2 2.2a8 8 0 0 0-3.3-1.7c-2.6-.7-4.9.5-5.7 3.2a9.2 9.2 0 0 0 0 5.7c1 2.8 3.5 3.9 6.5 2.8 1-.4 1.7-1 2.7-1.7v2.8c0 .3-.3.4-.6.6-1.6.8-3.4 1.2-5.2 1-.5.1-1 .4-1.4-.2-2-.4-3.2-1.5-4-3.1a10.5 10.5 0 0 1 0-10.1 7.1 7.1 0 0 1 7.3-3.5l1.8.3c.1 0 .3 0 .4.2ZM127.7 48.1c-1.5.1-2.9 0-4.2-.6a6.5 6.5 0 0 1-4-4.7c-.6-3.3-.6-6.3 1.6-9.1l1-1c2.9-2 6-1.8 9-.5.3.1.6.2.6.6v2.6c-.5 0-.6-.2-.9-.4-.8-.6-1.8-1-2.8-1.3-2.4-.6-4.6.5-5.5 2.8a9.2 9.2 0 0 0-.2 5.7c.8 3.1 3.6 4.4 6.7 3.1.8-.4 1.7-.9 2.6-1.6 0 1.2.1 2.2-.1 3.2-1.2.6-2.5.9-3.8 1.2ZM218.4 7.2h1.7c.7 0 .9.3.9 1v14.3c0 .7-.2 1-.9.9h-1.8l-.3-1.5.1-12c0-.9-.1-1.8.3-2.7ZM164.1 38V46.6c0 1-.2 1.3-1.2 1.2-.3.5-.8.4-1.3.3-.5-.2-.5-.8-.5-1.2V37l-3.9 5.8c-.2.4-.4.8-.9.9-.7.7-1.1 1.5-1.5 2.4 0 .9-.4 1.5-1.1 1.9-.8.3-1.7.3-2.5 0a.6.6 0 0 1-.3-.5c-.2-1-.5-2 .2-2.9V32.8c0-1.2 0-1.2 1.3-1.3h.6c.7 0 .9.2.9.9V43l.2.1 4.3-6.8.8-1.3c.5-1.3 1-2.6 2.3-3.5h2c.4 0 .6.2.6.5v6ZM57.1 33V2.2c.3-.6 1-.3 1.5-.5H60c.3.2.1.6.1.8v7.8l.2 9c-.2 9.3 0 18.6-.2 27.9 0 .2.1.4-.1.6H57c-.3-.2 0-.4 0-.6-.3-.9-.2-1.8 0-2.7v-4c-.3-.2-.3-.5-.4-1V35c0-.5.2-.9.4-1.3V33ZM87.7 30.6c-.1-.4-.3-.7-.7-1-.5-.9-1.3-1.6-2.2-2.3l-1.5-.6c0-.1-.1-.2-.2-.1l-1.5-.3c-2.5-.3-5.1 0-7.7-.2-.2.5 0 1 0 1.5-.2 3 0 6-.2 8.9-.2 2.7.1 5.5.1 8.2v2.4c0 .3 0 .6.4.6.8 0 1.7.1 2.5-.1v-7.2c0-.6.1-.8.7-.8h1c3 .2 5.7-.4 7.7-2.6.5 0 .7-.4 1-.7 1-1.8 1.2-3.7.6-5.7Zm-7.5 6.6h-2.8c-.5 0-.7 0-.7-.6v-7.2c0-.5.2-.7.7-.7h1.5c1 0 2.1 0 3.2.3 1.3.4 2 1.3 2.3 2.7.7 3.1-1 5.3-4.2 5.5ZM89 38.7v.2-.2ZM103.6 38.7a8 8 0 0 0-2.6-5.9 7.8 7.8 0 0 0-5.6-1.5 7.6 7.6 0 0 0-4.6 2.4l-.5.6a12 12 0 0 0-1.3 4.6c0 1.3 0 2.5.3 3.8a7.2 7.2 0 0 0 11.6 4 8 8 0 0 0 2.4-3.7c.3-1.5.4-2.9.3-4.3Zm-3.4 4.5c-.5 1.6-1.8 2.4-3.4 2.6a4 4 0 0 1-4-2.2 8 8 0 0 1-.9-4.1c0-1 .1-2 .4-3 .6-1.8 2.2-3 4-3a4 4 0 0 1 4.1 3c.7 2.2.6 4.5-.2 6.7ZM200.4 10.2a5 5 0 0 0-4-3.3 6 6 0 0 0-4.2.7l-1.7 1.1c-.3 0-.1-.4-.2-.6 0-.3.2-.6-.1-.8h-1.5c-.9-.1-1.2.2-1.2 1V22l.1 7.5c.9.2 1.7.2 2.6 0v-6.6c1.6.5 3 1.3 4.5 1 .6.1 1 0 1.5-.3.7-.3 1.5-.6 2-1 .5-.3.8-.6 1-1l.5-.6c2-3.4 2.2-7 .7-10.7Zm-2.5 8.5c-1 2.3-3.2 3.1-6 2.4-1.6-.5-1.6-.5-1.6-2.2v-7c0-.3 0-.7.3-.9 1.4-1 3-1.8 4.8-1.6 1 .1 1.9.7 2.3 1.7a9.5 9.5 0 0 1 .2 7.6ZM216.7 18.1c-.2-1.5-.4-3-2-3.6l-1.1-.6c-2-.4-4-.4-5.9-.4-.6 0-.7-.2-.7-.8V8.2c0-.8-.3-1-1-1h-1.8c-.2.2-.1.4-.1.6v15.5c.3.2.7 0 1 0l5.6.1c.6 0 1.1 0 1.7-.3.5-.4 1.3-.2 1.7-.7 1.8-.8 2.8-2.4 2.6-4.3Zm-3.2.5c0 1.4-1 2.4-2.5 2.5l-3.4.2c-.5 0-.8-.2-.7-.8v-4.1c0-.3 0-.7.5-.7 1.3.1 2.7-.1 4 .2 1.6.3 2.2 1.2 2.1 2.7ZM204.2 23.3ZM184.6 13.8c-.1-2.3-1-4.3-2.6-5.8-.1-.4-.4-.7-.8-.8l-.6-.4c-1.3-.5-2.6-.3-3.9 0-.5.3-.8.1-.8-.5V4.8c.1-.8-.4-1.6 0-2.6 0-.3-.3-.6-.6-.7-.7-.4-2-.2-2.5.4V7c0 .9-.4.6-.8.3-.3-.8-1-.6-1.5-.5-.8 0-1.5 0-2.2.2-.6 0-1.1 0-1.4.7-.8.5-1.5 1.3-2 2.1-.5.1-.7.6-.9 1-1.1 3.1-1.1 6.2.1 9.3a298.6 298.6 0 0 0 2 2.2c.1.8.8.9 1.4 1a3 3 0 0 0 1.9.3c.7.2 1.4.1 2 0 1-.1 1.5.4 1.2 1.2-.2.4-.2.8-.2 1.2 0 .8.2 1.6 0 2.5 0 .3 0 .8.4 1 .7.4 1.6.4 2.3 0 .7-.1.7-.7.7-1.3 0-1 .1-2.1-.3-3.2-.2-.7.5-1.6 1-1.5 1 .4 2 .3 3 .2l.8-.2a7 7 0 0 0 3.3-2.9c.2-.3.3-.7.3-1 .6-2 .9-4 .7-6ZM172.8 20c0 .5-.2.7-.6.9-2.2 1-4.2.2-5-2-1-2.3-1-4.7-.3-7 .8-2.2 3-3.2 5.1-2.4.6.2.9.5.8 1V20Zm8.3-1c-.9 2.1-3 2.8-5 2-.5-.3-.6-.6-.6-1v-9.4c0-.6.1-.8.7-1 2.5-1 4.3-.2 5.2 2.3.8 2.4.7 4.8-.3 7.2ZM43.5 20c.5-.6 1.2-1 1.2-1.9-.1-.5-.5-.4-1-.3h-1.1c.4-.5.9-.9 1.1-1.3.2-.4.5-1 .2-1.3-.3-.3-.8-.1-1.2 0h-.4c.8-1.2 1.5-2.4.7-3.9-.8-.1-1.2.5-1.6 1 .6-.7.7-1.5.6-2.3V8.7c0-.6-.5-1.2-1-1.2s-.6.6-.6 1L39 10.8c-.4 1-1 2-1.7 2.5-1 .7-1.3 2-2.2 2.5-1.2.5-1.9 1.4-2.7 2.1L31 19.5c-.6.8-.6 1.4.2 2.1.5.5.8 1 .2 1.8-.6.6-1.8.8-2.3.3-.4-.2-.3-.5 0-.7.3-.3.5-.6.5-1s.2-1.1-.7-.6c-.3.2-.5-.3-.8-.4-.2 0 0-.3.1-.4.1-.2.2-.4.1-.6-1.7 0-2.4-.9-1.9-2.4l.6-1.2c.5-1 1.9-1.5 3-1.2.6.1 1 .4 1 1.2.7-.3.5-.7.4-1.2 1.8.9 2.6.7 3-.7-1.4 1-2.5-.3-3.9-.4 1-.3 1.3-.4 2 0 .6.3.8 0 .9-.4.3-.9-.1-1.7-1.1-2-.5 0-.8-.3-1-.7l1-.2c1.7-.5 2-1.1 1.5-2.7-.2-.4-.3-.8 0-1.3.2.2.6.3.9.4.8.3 1.1 1 .7 1.6-.6 1-.7 1.8 0 2.7.3.3 0 .8 0 1.2 1-.3 1.2-.7.8-1.8.7-.2 1.4 0 2.1.2V10c-.1-.2-.3-.2-.5-.2-.8-.1-.6-.4-.2-.8.1-.6.5-1.3-.4-1.7-.3-.6-1-.4-1.6-.6a3 3 0 0 0-1-1.2c-.6-.1-2.3.6-2.5 1a1 1 0 0 0 0 .9l.3 1c.7 1.4.2 2.3-1.5 2.4-.1-.3 0-.5.2-.7.5-1 .3-2-.9-2.2-.4 0-.4-.3-.4-.7v-.7c.1-.4 0-.6-.4-.6-.5 0-.6.2-.6.6v.7c.2.5.1.7-.5.8-1.1.2-1.4.8-1 1.9.1.3.4.6.3 1-1-.4-1.9-1-2.7-1.6-.5-.4-.6-.9-.3-1.4.4-.7.7-1.3.8-2 .2-.9 0-1.5-.8-1.7-.5-.3-1-.7-1.6-.3l-.3-.1c.3-.5-.2-1 .3-1.6.2-.2.2-.6 0-1-.3-.2-.7-.4-1.1-.2-.3.2-.6.5-.4.8.4.6 0 1.4.4 2-1-.2-1.8.2-2.5.8-.5 1.1 0 2 .6 3 .2.5.5 1 0 1.4-.8.8-1.7 1.5-3 1.8l.5-1.2c.2-.7 0-1.3-.6-1.4-1-.3-1.1-.8-1-1.5.1-.3.2-.6-.2-.7-.3-.1-.6-.1-.8 0-.3.3-.3.6-.1.9.3.6 0 .9-.6 1.1-1 .3-1.2.7-.8 1.7l.2.8c0 .1.1.3 0 .4h-.3c-1.3-.3-1.8-1.2-1.2-2.4l.4-1c.2-.6 0-1-.5-1.3l-.7-.4c-.8-.6-1.4-.4-1.9.3a2 2 0 0 1-1.5 1C6.9 7.3 6.6 8.3 7 9c.6.8.6.8-.3 1-.5 0-.8.6-.5 1 0 .1.2.3.3.2.5-.6 1.3.2 2-.5-.8 1.4-.6 1.9.5 2.2-.3-.6-.2-1.2.2-1.7s.4-1 0-1.7C8.7 8 9 7.4 10.6 7c.3 0 .5 0 .4.4l-.1.7c-.5 1.8 0 2.5 1.8 2.9l.8.1c-.3.5-.7.6-1 .7-1 .3-1.5 1-1.3 1.8.1.5.3 1 1 .5.7-.4 1-.3 2 .1-1.4 0-2.5 1.4-4 .4.6 1.4 1.2 1.5 3.3.5-.2.5-.4 1 .2 1.3 0-.7.5-1 1.1-1.2.7-.2 2.4.3 2.8 1l.7 1.3a2 2 0 0 1-.2 2.2c-.5.5-1 .5-1.7.3l.1.6c0 .1.4.4.2.4-.4 0-.5.8-1 .4-.6-.5-.5.1-.6.4 0 .5.1 1 .5 1.2.3.2.4.4.1.7-.4.5-1.5.4-2.2-.1-.5-.5-.7-1-.2-1.7 1-1.4 1-2-.2-3-1.1-1-2-2.4-3.5-3-1-.5-1.5-1.8-2.4-2.7-1.3-1.4-2.1-3.2-3-4.8-.2-.3-.2-.8-.6-.7-.4 0-.7.4-.8 1-.4 1.2 0 2.3.6 3.4-.1 0 .2.4-.2.3a13 13 0 0 0-.6-.4c-.3-.3-.5-.7-.9-.6-.4.2-.4.7-.4 1.1v.3c0 .9.5 1.6 1.1 2.4-.6 0-1.3-.6-1.7 0-.4.4.2 1 .4 1.5 0 .1 0 .3.2.3.2.2.5.3.5.7H1c-.4 0-.8-.2-1 .2-.1.3.2.6.4 1 .4.5 1 .8 1.6 1.3l-1.2.1c-.7.1-.8.5-.4 1 .5.6 1 1 1.9 1.2l-.3.2c-.5.2-1.3.4-1.3 1 .1.7 1 .9 1.7 1l.5.2c-1.3.1-1 1.5-2 1.8v.5c.2.5.6.7.9 1 .3.3.8.5 1.2 1 1 1 1.4 2.3 2 3.5.9 2 1.6 4 2.2 6.2.3.5.2 1-.1 1.5-.4.6.2 1 .4 1.5.6.8 1.8 1.2 2.2 2.3.2.3.6.7 1 .6.5-.2.3-.8.3-1.2l-.2-.8c0-.3 0-.5.3-.8 1.5-1.1 3.2-1.9 5.2-1.6h.6c.6 0 .8-.3.5-.8L17 39c.6-.1 1.3-.2 1.5-1-1 0-1.3 0-1.5-.5 0-.5.1-1 .6-1.3.7-.4 1.7 0 2.2.8.6.9.5 1.4-.3 2-.5.3-1.1.6-.9 1.4l-.1.2c-1 .4-1.8 1.1-2.7 1.6-.4.3-.9.1-.8-.4 0-.6-.3-.4-.6-.3-.6.4-.8.9-.5 1.5.1.3.4.4 0 .7-.4.4-.6 1-.4 1.5.2.5.6 1 .6 1.5l.4-.2c.3 0 .4-.3.5-.5 0 .3.3.5.5.8.4.5 1 .5 1.5.3.7-.2 1.1 0 1.5.6.5.2.9.6 1.5.3h.2c.6-.3.9.3 1.3.6.6.4 1 .2 1.5-.2.2-.3.5-.8 1-.5.7.3 1.3 0 1.8-.4s1-.5 1.6-.4c.5.2 1 0 1.4-.4.4-.6.8-.6 1.3 0 0-.4.2-.6.4-.9.5-.7.7-1.5 0-2.1-.4-.3-.2-.5 0-.7.2-.6-.1-1.4-.8-1.6-.1 0-.3-.2-.4.2-.1.7-.6.9-1.2.4a8.6 8.6 0 0 0-2.5-1.5l-.3-.2h.3c.2-.7-.2-1-.7-1.3-1-.6-1-1.1-.5-2 .5-.9 1.3-1.1 2.2-.7.6.3.8 1.2.3 1.6-.3.3-.7 0-1 .3.2.8 1 .7 1.6.8l-.2.4c-.4 1-.4 1 .7 1 1.1.3 2.3.5 3.4.6 1 .2 2 .4 2.6 1 .8.7 1.4.5 2.1.2 1.8 0 3-.9 3.6-2.4 0-.5.8-.8.5-1.3-.3-.7-.5-1.4-1-2-.3-.6-1-1.2-1-2-.6-.9-1-1-1.8-.5l-.2.4c.2.3-.5.9.4 1l-.4.5c-1.2.4-1.7 1.3-2.1 2.4-.2.5-.2.8.1 1.2.5.6 0 .9-.4 1-1 .5-3.8-.6-4.4-1.6.5-.2 1 .1 1.4.2.2-.3-.3-.7 0-1 1 .3 1.2.3 2-.4-1-.1-1-.7-1-1.4.3-1.2-.1-2-1.3-2.4-.4-.2-.8-.4-1.4-.5-.4 0-.9-.1-.7-1 0-.6-.4-1.4-.2-2.1.1-.3.1-1 .5-.9.5.2 1.4.1 1.3 1.1v1.1c.1.7.7 1 1.2 1 .5-.1 1-.4 1-1.2v-1c.3.5.3 1 .5 1.4.2.7 1 1.3 1.6 1 .6-.1.7-.8.4-1.6v-.6l.6 1c.4.6.9.6 1.4.5.4 0 .5-.5.5-.9 0-.7.4-.5.9-.4.9.3 1.5 0 1.4-1 0-.6 0-.7.6-.6l1-.2v.2-.1c.6-.8.2-1.4-.4-2 .7.3 1.6 0 1.9-.4.3-.7-.3-1.1-.7-1.6 1 .2 1.5-.2 1.7-1.2-.2-.6-.7-.8-1.2-1a3 3 0 0 0 1.8-1.2l.2-.7c.1-.7-.5-.8-1-1ZM4.9 28.6c-.3.3-.6.6-.5 1.2-.4-1-.4-1 .5-1.2Zm10.8 2.9c0 .3-.6.6 0 1 .1.2-.5.5-.8.5-2 .5-3 1-2.7 3.2.1.6-.2 1-.8 1 .5.9 1.2.7 1.8.3.2.4 0 .8 0 1.1.4.2.6-.3 1-.2 0 0 .3-.2.4.1 0 .2 0 .4-.2.5-.9.5-1.8.9-2.9 1-.4 0-.8-.3-1-.6-.2-.7-.6-1-1.3-.8-.3 0-.5 0-.6-.2-.3-1.2-1-2.1-1.6-3.2l-2.4-4.7c1 .1 1.7 0 2.2-1 0 .6-.5 1-.2 1.4.1.3.1.8.7.9.5 0 1 0 1.3-.6l1-2c0 .8-.3 1.3-.6 1.8-.3.7 0 1.3.6 1.5.6.2 1.2 0 1.5-.8l.6-1.9c.2.5 0 .8 0 1.1-.2.6.3 1.3 1 1.3.5 0 1-.3 1.1-1v-.6c-.1-.8.2-1.2 1-1.4.4-.2.6-.1.7.2.2.7.3 1.4.2 2Zm11.6 12.8c.2 0 .3 0 .3.2 0 .4-.3.5-.6.6-.2 0-.3-.1-.3-.3 0-.4.5-.3.6-.5ZM26 42c.3.3.4.6.4 1 0 .1 0 .3-.3.3 0 0-.2 0-.2-.2-.4-.7-1-1.4-1.3-2.2l1.4 1.1ZM21.3 9.4c.6-.4 1.5-.4 2.1 0l2.7 1.5c-.6.2-1-.1-1.6 0 .1.5.7.6 1 .9-.1.2-.4 0-.6.1 0 .4.4.3.5.6-.6.6-1.4.9-2.5 1 1.3.2.9.8.5 1.3-.5 1-.8 2-1.1 3-.4-1.3-.8-2.5-1.5-3.6-.5-.8.6-.3.5-.8-.4 0-1-.1-1.4-.3-.5-.3-1-.6 0-1.2h-1.1c.5-.4 1-.5 1.4-1-.6-.2-1.1.2-1.8 0l2.9-1.5ZM17.6 45a.6.6 0 0 1-.6-.4c0-.2 0-.3.3-.3.2.2.6 0 .6.5 0 .2-.1.3-.3.2Zm1-1.8c0 .1-.2.2-.3.1l-.2-.3c0-.4 0-.7.4-1l1.8-1.5c-.6.9-1.3 1.7-1.7 2.7Zm2.2 3c-.6-.5-.6-1-.5-1.7.2-1.2.8-2.2 1-3.2l.6-1.8c-.1 2.3-1.3 4.4-1.1 6.7Zm3.1 0c0-2.3-1-4.4-1.2-6.7.2 2.3 2.3 4.2 1.2 6.7Zm3.9-17a16 16 0 0 1-4.8 8.4c-.5.5-.8.5-1.4 0-3.2-3-4.6-6.7-5.3-10.9-.2-.7-.2-1.5-.3-2.3v-.2c0-2.1 0-2.2 2.1-2.6 1.4-.3 2.7-.8 3.7-1.7.3-.2.5-.3.8 0 1.4 1.2 3.1 1.7 5 1.9.5 0 .7.3.8.8.4 2.3-.1 4.5-.6 6.7Z"/>
  <path fill="#EFF8FF" d="M26.4 23.8c-1 0-.7.7-.7 1.2v.4c0 .9-.4 1.3-1.4 1.4.5-.4.3-.7 0-.9-.2 0-.5-.1-.4-.4 0-.2.5-.3.1-.6-.2-.2-.4 0-.6.2-.2 0-.4 0-.5-.2.4-.3.8-.8 1.1-.8 1 0 1-.7 1.4-1.3-.6 0-1.5-.1-1.6.4-.1 1-1 1.1-1.5 1.3-.5.2-1.3-.4-1.5-.9-.3-1-1-.4-1.6-.6.3.5.3 1.3 1.2 1.3.4 0 1 .4 1.1.8-.2.2-.3.1-.5 0-.2 0-.3-.4-.6 0-.3.2 0 .3.2.4.2.3 0 .3-.2.4l-.5.5c-.2.2.5.4 0 .5-.4 0-.7-.1-.9-.4-.3-.6-.3-1.2-.2-1.8.1-.6-.1-.7-.6-.8-.5 0-.9.1-1 .7-.2 2.1 1 3.3 3.2 2.8.5-.1.9-.1 1.2.4L19.8 29l1.4 1c.5.2.4.4 0 .6-.2.2-.5.5-.7.5-1-.1-1 .7-1.4 1.4.7-.2 1.4 0 1.7-.4.9-1.6 2.2-1.9 3-.4.4.8 1 .5 1.5.6-.2-.4-.2-1.2-.7-1.2-.8 0-1.1-.5-1.6-.8.6-.5 1.5-.9 1.5-1.3 0-.6-1-.7-1.5-1.3.6-.5.6-.5 1.3-.3 1.9.4 2.8-.2 3-2.1 0-.8.1-1.5-.9-1.5Zm-4.3 2.7c.3 0 .4.1.6.3 0 .2-.2.3-.4.4-.2 0-.4-.2-.5-.3 0-.3.2-.3.3-.4Zm1.3 2.5c-1.4 1-1 1-2.4 0 1.1-1.1 1.3-1.1 2.4 0Z"/>
</svg>
