<svg width="210" height="57" viewBox="0 0 210 57" fill="none" xmlns="http://www.w3.org/2000/svg">
<rect y="0.376953" width="210" height="56" rx="8" fill="#EFF8FF"/>
<path d="M20.4474 18.7855C20.264 18.4139 19.734 18.4139 19.5506 18.7855L16.5865 24.792L9.96211 25.7495C9.55188 25.8088 9.38779 26.3128 9.68449 26.6022L14.479 31.2795L13.3455 37.8786C13.2753 38.287 13.7039 38.5986 14.0708 38.4059L19.999 35.292L25.9272 38.4059C26.2941 38.5986 26.7227 38.287 26.6525 37.8786L25.519 31.2795L30.3132 26.609C30.6101 26.3198 30.4464 25.8157 30.0363 25.756L23.4115 24.792L20.4474 18.7855Z" fill="#F8BF51"/>
<path d="M42.88 35.377V31.937H36.54V29.977L43.56 21.177H45.08V29.957H46.84V31.937H45.08V35.377H42.88ZM38.78 29.957H43.12V24.517L38.78 29.957ZM48.8411 35.377V32.817H50.6611V35.377H48.8411ZM62.9589 31.277C62.9589 32.1303 62.7256 32.877 62.2589 33.517C61.8056 34.157 61.1856 34.657 60.3989 35.017C59.6256 35.3636 58.7789 35.537 57.8589 35.537C56.9122 35.537 56.0589 35.3503 55.2989 34.977C54.5389 34.5903 53.9322 34.0703 53.4789 33.417C53.0256 32.7636 52.7989 32.017 52.7989 31.177C52.7989 30.617 52.9256 30.117 53.1789 29.677C53.4322 29.2236 53.7456 28.837 54.1189 28.517C54.4922 28.197 54.8722 27.9503 55.2589 27.777C54.8989 27.6036 54.5656 27.3836 54.2589 27.117C53.9656 26.837 53.7256 26.517 53.5389 26.157C53.3656 25.797 53.2789 25.4103 53.2789 24.997C53.2789 24.3836 53.4122 23.8436 53.6789 23.377C53.9589 22.897 54.3256 22.497 54.7789 22.177C55.2322 21.8436 55.7256 21.597 56.2589 21.437C56.8056 21.2636 57.3456 21.177 57.8789 21.177C58.4256 21.177 58.9656 21.2636 59.4989 21.437C60.0456 21.597 60.5456 21.837 60.9989 22.157C61.4656 22.477 61.8322 22.877 62.0989 23.357C62.3789 23.8236 62.5189 24.3636 62.5189 24.977C62.5189 25.3903 62.4256 25.7836 62.2389 26.157C62.0656 26.517 61.8189 26.837 61.4989 27.117C61.1922 27.397 60.8589 27.617 60.4989 27.777C60.9256 27.9636 61.3256 28.2236 61.6989 28.557C62.0856 28.8903 62.3922 29.2836 62.6189 29.737C62.8456 30.1903 62.9589 30.7036 62.9589 31.277ZM60.7389 31.137C60.7389 30.7503 60.6522 30.4036 60.4789 30.097C60.3189 29.7903 60.0989 29.537 59.8189 29.337C59.5389 29.1236 59.2322 28.9636 58.8989 28.857C58.5656 28.7503 58.2256 28.697 57.8789 28.697C57.3856 28.697 56.9256 28.797 56.4989 28.997C56.0722 29.197 55.7256 29.4836 55.4589 29.857C55.1922 30.217 55.0589 30.6436 55.0589 31.137C55.0589 31.5103 55.1389 31.8503 55.2989 32.157C55.4589 32.4503 55.6722 32.7036 55.9389 32.917C56.2189 33.1303 56.5256 33.2903 56.8589 33.397C57.2056 33.5036 57.5522 33.557 57.8989 33.557C58.3789 33.557 58.8322 33.457 59.2589 33.257C59.6989 33.0436 60.0522 32.757 60.3189 32.397C60.5989 32.0236 60.7389 31.6036 60.7389 31.137ZM55.4989 25.077C55.4989 25.4903 55.6189 25.8436 55.8589 26.137C56.0989 26.4303 56.4056 26.6503 56.7789 26.797C57.1522 26.9436 57.5189 27.017 57.8789 27.017C58.2522 27.017 58.6189 26.9436 58.9789 26.797C59.3522 26.637 59.6589 26.4103 59.8989 26.117C60.1522 25.8236 60.2789 25.4636 60.2789 25.037C60.2789 24.6503 60.1656 24.317 59.9389 24.037C59.7122 23.7436 59.4122 23.5236 59.0389 23.377C58.6789 23.217 58.2922 23.137 57.8789 23.137C57.4656 23.137 57.0722 23.217 56.6989 23.377C56.3389 23.537 56.0456 23.7636 55.8189 24.057C55.6056 24.337 55.4989 24.677 55.4989 25.077Z" fill="#2A303E"/>
<path d="M137.12 42.0365H133.747V38.1579H124.404V42.0365H121.032V35.1897H122.145C122.504 34.4702 122.797 33.6158 123.022 32.6264C123.246 31.6146 123.426 30.5465 123.561 29.4222C123.696 28.298 123.786 27.1512 123.831 25.982C123.876 24.8127 123.899 23.6997 123.899 22.6429V21.1926H135.332V35.1897H137.12V42.0365ZM98.5013 17.8873H96.68C94.9936 17.8873 93.7231 18.2695 92.8687 19.034C92.0142 19.7985 91.587 20.8103 91.587 22.0695C91.587 22.789 91.6657 23.4187 91.8231 23.9583C91.9805 24.4754 92.2054 24.9589 92.4977 25.4086C92.8125 25.8583 93.1947 26.2855 93.6445 26.6903C94.1166 27.0725 94.6675 27.4772 95.2971 27.9045L97.3545 29.2873L91.4184 38.1579H87L92.329 30.2317C91.5645 29.692 90.8787 29.1412 90.2716 28.579C89.687 28.0169 89.1923 27.421 88.7876 26.7915C88.3829 26.1618 88.0681 25.4873 87.8432 24.7678C87.6408 24.0258 87.5397 23.205 87.5397 22.3056C87.5397 21.1813 87.7308 20.1583 88.113 19.2364C88.5178 18.292 89.1024 17.4937 89.8669 16.8417C90.6314 16.1671 91.5758 15.6499 92.7 15.2902C93.8468 14.9079 95.1622 14.7168 96.6462 14.7168H102.582V38.1579H98.5013V17.8873ZM142.247 31.0074C142.314 32.5365 142.674 33.672 143.326 34.414C143.978 35.156 145.08 35.527 146.631 35.527C147.576 35.527 148.509 35.3696 149.431 35.0549C150.375 34.7176 151.151 34.3466 151.758 33.9418V37.0111C151.173 37.4158 150.431 37.7643 149.532 38.0566C148.632 38.3489 147.553 38.4951 146.294 38.4951C143.776 38.4951 141.831 37.7756 140.459 36.3365C139.11 34.8975 138.435 32.6939 138.435 29.7258C138.435 28.4441 138.57 27.2636 138.84 26.1843C139.132 25.1051 139.571 24.1719 140.155 23.385C140.74 22.5754 141.471 21.9571 142.348 21.5299C143.247 21.0802 144.293 20.8553 145.484 20.8553C146.451 20.8553 147.328 21.0014 148.115 21.2938C148.925 21.5861 149.611 22.0583 150.173 22.7104C150.735 23.3624 151.162 24.2056 151.454 25.2399C151.769 26.2518 151.927 27.4998 151.927 28.9837V31.0074H142.247ZM119.008 21.1926V38.1579H115.332V30.9737H109.632V38.1579H105.955V21.1926H109.632V28.0056H115.332V21.1926H119.008ZM158.638 29.6246V38.1579H154.962V21.1926H158.638V29.3885L164.575 21.1926H168.419L162.652 29.1524L169.162 38.1579H164.845L158.638 29.6246ZM177.02 38.4951C174.367 38.4951 172.399 37.7418 171.118 36.2353C169.859 34.7288 169.229 32.5477 169.229 29.692C169.229 28.4104 169.386 27.2299 169.701 26.1506C170.039 25.0488 170.522 24.1157 171.152 23.3512C171.804 22.5642 172.602 21.9571 173.547 21.5299C174.491 21.0802 175.593 20.8553 176.852 20.8553C177.819 20.8553 178.65 20.934 179.348 21.0914C180.044 21.2263 180.595 21.4175 181 21.6648V24.9027C180.618 24.6553 180.089 24.4192 179.415 24.1944C178.741 23.9696 178.032 23.8571 177.29 23.8571C175.918 23.8571 174.862 24.3406 174.119 25.3074C173.4 26.2518 173.041 27.6796 173.041 29.5909C173.041 31.4122 173.366 32.8512 174.018 33.9081C174.671 34.9649 175.75 35.4933 177.256 35.4933C178.066 35.4933 178.763 35.3921 179.348 35.1897C179.955 34.9649 180.505 34.6839 181 34.3466V37.4496C180.528 37.7868 179.966 38.0454 179.313 38.2253C178.684 38.4052 177.92 38.4951 177.02 38.4951ZM131.656 24.1606H127.136V24.8689C127.136 25.611 127.114 26.4429 127.069 27.3648C127.024 28.2867 126.945 29.2199 126.833 30.1643C126.72 31.1086 126.563 32.0193 126.361 32.8962C126.181 33.7731 125.945 34.5377 125.652 35.1897H131.656V24.1606ZM145.417 23.8233C144.383 23.8233 143.607 24.2056 143.09 24.9701C142.573 25.7122 142.292 26.8027 142.247 28.2418H148.183V27.8033C148.183 27.2412 148.138 26.724 148.048 26.2518C147.958 25.7571 147.801 25.3299 147.576 24.9701C147.373 24.6104 147.092 24.3293 146.732 24.1269C146.395 23.9246 145.957 23.8233 145.417 23.8233Z" fill="#F86049"/>
</svg>
