<svg width="241" height="67" viewBox="0 0 241 67" fill="none" xmlns="http://www.w3.org/2000/svg">
<path d="M47.7324 20.0068C49.7211 19.0323 51.6034 17.8705 53.5309 16.7851C58.6693 13.8935 63.7932 10.9775 68.923 8.07147C69.0861 7.97922 69.2566 7.89994 69.427 7.81201C69.6281 8.0167 69.5407 8.24157 69.5407 8.43905C69.548 11.1677 69.5319 13.8979 69.5582 16.6265C69.5625 17.1296 69.3877 17.3876 68.955 17.6312C66.5191 18.9949 64.1137 20.4104 61.6749 21.7697C60.6332 22.3491 60.489 22.5899 61.6327 23.2155C64.6732 24.8789 67.6657 26.626 70.661 28.3701C71.2598 28.719 71.7537 28.7031 72.3408 28.3629C75.4207 26.5741 78.5151 24.8112 81.6038 23.0382C82.3745 22.5956 82.3774 22.4054 81.5834 21.9484C79.0586 20.4969 76.5323 19.0511 74.0002 17.6125C73.6928 17.4381 73.4757 17.2853 73.4787 16.8658C73.4991 13.8734 73.4903 10.8809 73.4903 7.84372C74.0265 7.96048 74.4242 8.28337 74.8511 8.52554C81.4406 12.2719 88.0214 16.0341 94.6138 19.7776C95.0159 20.0068 95.1908 20.2388 95.1893 20.7203C95.1718 28.5258 95.1776 36.3299 95.1733 44.1354C95.1733 44.3372 95.2636 44.5693 95.0596 44.7394C94.6998 44.4107 94.8338 43.9783 94.8338 43.5891C94.8251 36.2881 94.828 28.9871 94.828 21.6846C94.828 20.2979 94.8528 20.4479 93.7397 21.085C87.7023 24.5474 81.6693 28.0199 75.629 31.4765C74.2887 32.2433 72.9921 33.088 71.5862 33.7425C71.2715 33.79 71.0325 33.6171 70.7805 33.4743C64.3833 29.8361 58.005 26.1661 51.6238 22.5019C50.5573 21.8893 49.4938 21.2709 48.4142 20.6799C48.1564 20.5387 47.9262 20.3715 47.7382 20.1495V20.0053L47.7324 20.0068Z" fill="#808181"/>
<path d="M47.7324 20.1509C49.4035 20.9595 50.9696 21.9484 52.5781 22.8652C57.3086 25.5578 62.0289 28.2706 66.7536 30.9734C68.3213 31.8714 69.8903 32.7665 71.4594 33.6631C71.7231 33.937 71.6823 34.2858 71.6838 34.6145C71.6925 43.0398 71.6838 51.4652 71.6925 59.8905C71.6925 60.1082 71.675 60.3201 71.6138 60.5291C71.5993 60.5723 71.5934 60.617 71.5978 60.6617H71.1607C69.6427 60.0159 68.2703 59.1078 66.8483 58.2934C61.4374 55.1971 56.028 52.098 50.6142 49.006C49.4603 48.3473 49.4778 48.1123 50.62 47.4651C52.68 46.2975 54.7634 45.1674 56.7826 43.9307C57.6306 43.4117 58.3372 43.4103 59.1938 43.9235C61.4097 45.2525 63.6694 46.5123 65.9203 47.7851C66.6968 48.2248 66.892 48.1167 66.8935 47.2258C66.8993 43.8024 66.8877 40.3803 66.9037 36.9569C66.9066 36.3097 66.6779 35.8859 66.0995 35.563C63.1449 33.9139 60.2253 32.2058 57.2824 30.5366C56.3791 30.0249 56.2217 30.1258 56.2188 31.1809C56.213 33.8145 56.1926 36.448 56.2319 39.0801C56.2436 39.8686 55.9916 40.3602 55.282 40.7522C53.0399 41.9919 50.8181 43.2661 48.5978 44.5433C48.3385 44.6918 48.0748 44.9267 47.7324 44.7148V20.1509Z" fill="#4D4D4D"/>
<path d="M71.6138 60.529C71.3675 60.3546 71.4579 60.0937 71.4564 59.8674C71.4535 51.1322 71.4564 42.3983 71.4593 33.6631C78.3577 29.6947 85.2576 25.7264 92.156 21.7581C93.0709 21.2319 93.9902 20.7101 95.029 20.1177V20.9681C95.029 28.605 95.029 36.2433 95.029 43.8802C95.029 44.167 95.045 44.4539 95.0537 44.7407C94.8498 45.0045 94.7041 44.735 94.5744 44.6629C92.1035 43.2704 89.6457 41.8578 87.1719 40.4711C86.831 40.2808 86.7159 40.0762 86.7188 39.6913C86.7363 36.7478 86.7305 33.8029 86.7276 30.8594C86.7276 29.9643 86.4945 29.8288 85.7107 30.2771C82.5856 32.0659 79.4664 33.8663 76.3326 35.6422C75.8577 35.9118 75.6464 36.2332 75.6494 36.781C75.6668 40.4192 75.6566 44.0575 75.6595 47.6943C75.6595 48.5361 75.8519 48.65 76.5759 48.2363C79.1415 46.7746 81.7086 45.3173 84.264 43.8384C84.6151 43.6351 84.8555 43.6193 85.2211 43.8326C87.7882 45.3332 90.3756 46.802 93.0578 48.3386C92.0496 48.9152 91.1303 49.4442 90.2096 49.9689C84.1591 53.414 78.1071 56.8576 72.0566 60.2999C71.911 60.382 71.7594 60.4541 71.6094 60.5305L71.6138 60.529Z" fill="#010101"/>
<path d="M129.163 30.4645C129.112 32.4869 129.245 34.9533 129.096 37.4167C128.82 42.0034 125.859 45.1242 121.215 45.7051C118.65 46.0251 116.097 46.0554 113.594 45.2929C110.104 44.2305 107.915 41.5436 107.692 37.9515C107.408 33.3849 107.635 28.8112 107.572 24.2403C107.562 23.5225 107.6 22.8032 107.561 22.0868C107.536 21.6241 107.715 21.5275 108.145 21.5333C109.867 21.5534 111.589 21.5664 113.309 21.5275C113.856 21.516 113.985 21.6587 113.984 22.1949C113.961 26.9344 113.972 31.6739 113.968 36.4149C113.968 37.0145 114.002 37.6142 114.157 38.1908C114.628 39.9292 115.789 40.8272 117.932 40.9151C120.208 41.0088 122.023 40.2924 122.607 37.878C122.741 37.3273 122.752 36.7392 122.753 36.167C122.763 31.5226 122.769 26.8782 122.746 22.2352C122.743 21.6716 122.889 21.5145 123.461 21.5289C125.109 21.5693 126.76 21.5679 128.407 21.5289C128.996 21.5145 129.19 21.65 129.181 22.267C129.143 24.8515 129.165 27.4375 129.165 30.4645H129.163Z" fill="#010101"/>
<path d="M137.75 29.8561C138.787 28.4896 139.89 27.5181 141.404 27.1361C145.48 26.1112 149.132 27.9318 149.757 32.3701C149.845 32.9899 149.883 33.6068 149.883 34.2281C149.883 37.8188 149.872 41.4109 149.894 45.0016C149.897 45.4715 149.773 45.5984 149.298 45.5883C147.724 45.558 146.146 45.5465 144.571 45.5926C143.988 45.6099 143.915 45.4081 143.918 44.9064C143.94 41.6992 143.93 38.4905 143.928 35.2833C143.928 34.9243 143.944 34.5596 143.889 34.2079C143.662 32.7549 142.923 31.9895 141.559 31.7502C140.311 31.5311 139.049 32.1337 138.391 33.2868C137.992 33.9859 137.824 34.7499 137.825 35.5528C137.828 38.6894 137.815 41.8246 137.841 44.9612C137.846 45.46 137.726 45.6012 137.211 45.5897C135.611 45.5537 134.01 45.5652 132.41 45.5854C132.012 45.5897 131.87 45.5018 131.871 45.0765C131.886 39.3309 131.886 33.5852 131.871 27.8395C131.871 27.3927 132.007 27.2702 132.448 27.2774C134.024 27.3004 135.601 27.3004 137.177 27.2774C137.611 27.2716 137.79 27.374 137.76 27.8338C137.721 28.4406 137.75 29.0518 137.75 29.8547V29.8561Z" fill="#010101"/>
<path d="M183.727 39.3537C184.648 35.3565 186.03 31.6491 187.155 27.8667C187.248 27.551 187.375 27.3478 187.792 27.355C189.584 27.3824 191.377 27.3665 193.267 27.3665C192.745 28.8916 192.245 30.3691 191.737 31.8437C190.105 36.5645 188.47 41.2838 186.834 46.0032C186.419 47.201 185.901 48.3456 185.139 49.3776C184.19 50.6605 182.873 51.3294 181.326 51.4461C179.758 51.5629 178.178 51.4894 176.603 51.524C176.231 51.5312 176.154 51.3712 176.15 51.0584C176.132 49.8389 176.112 48.618 176.069 47.3985C176.058 47.0627 176.195 47.0108 176.492 47.0108C177.338 47.0079 178.186 47.0713 179.028 46.8969C179.99 46.698 180.49 46.1286 180.49 45.1513C180.49 44.1783 180.152 43.2788 179.805 42.3909C177.944 37.624 176.077 32.8599 174.191 28.1031C173.967 27.5366 173.986 27.3305 174.696 27.3521C176.294 27.4011 177.895 27.3881 179.495 27.355C179.974 27.3449 180.165 27.5121 180.293 27.9431C181.374 31.5914 182.716 35.1634 183.558 38.8824C183.584 38.9948 183.636 39.1029 183.728 39.3552L183.727 39.3537Z" fill="#010101"/>
<path d="M163.331 37.1038C163.331 35.5961 163.317 34.0868 163.342 32.5791C163.347 32.1755 163.245 32.0241 162.824 32.0587C162.39 32.0933 161.95 32.0414 161.516 32.0731C161.072 32.1063 160.874 32.0097 160.89 31.5023C160.929 30.2583 160.916 29.0129 160.894 27.7675C160.888 27.397 160.983 27.2514 161.376 27.2803C161.81 27.312 162.252 27.2572 162.684 27.2947C163.181 27.3379 163.356 27.1866 163.344 26.6676C163.309 25.1599 163.347 23.6507 163.323 22.1429C163.315 21.6888 163.417 21.5159 163.921 21.5274C165.448 21.562 166.976 21.562 168.503 21.5274C169.01 21.5159 169.096 21.7004 169.089 22.1429C169.064 23.6752 169.096 25.2074 169.069 26.7397C169.06 27.1866 169.192 27.3177 169.64 27.2961C170.39 27.2601 171.143 27.3048 171.893 27.2788C172.293 27.2644 172.444 27.3668 172.434 27.792C172.406 29.036 172.4 30.2828 172.435 31.5268C172.449 31.9924 172.282 32.0904 171.854 32.0731C171.079 32.0429 170.303 32.0789 169.526 32.0573C169.188 32.0472 169.067 32.1308 169.07 32.4883C169.088 34.9056 169.07 37.3244 169.09 39.7417C169.098 40.6181 169.577 41.088 170.527 41.2451C170.67 41.2682 170.817 41.2639 170.961 41.2653C171.935 41.2807 172.422 41.7607 172.422 42.7053C172.422 43.4708 172.415 44.2376 172.425 45.003C172.43 45.2884 172.414 45.5119 172.045 45.5652C170.265 45.8232 168.487 45.9991 166.71 45.5623C164.781 45.0895 163.562 43.6538 163.411 41.692C163.385 41.3576 163.339 41.0246 163.336 40.6902C163.327 39.4938 163.333 38.2959 163.333 37.0995H163.33L163.331 37.1038Z" fill="#010101"/>
<path d="M158.797 36.419C158.797 39.2428 158.786 42.0681 158.807 44.8919C158.81 45.3489 158.703 45.5017 158.215 45.4916C156.616 45.4599 155.016 45.4656 153.416 45.4887C152.975 45.4959 152.836 45.3777 152.838 44.928C152.852 39.2313 152.852 33.5361 152.838 27.8394C152.838 27.3912 152.973 27.2715 153.415 27.2773C155.015 27.3018 156.616 27.3061 158.214 27.2744C158.7 27.2643 158.81 27.4157 158.807 27.874C158.786 30.7224 158.797 33.5707 158.797 36.4176V36.419Z" fill="#010101"/>
<path d="M155.85 24.8829C155.003 24.8829 154.157 24.8699 153.311 24.8886C152.971 24.8959 152.837 24.7978 152.841 24.4476C152.856 23.1589 152.86 21.8688 152.84 20.5787C152.834 20.1909 152.978 20.0943 153.347 20.0972C155.017 20.1116 156.685 20.1116 158.354 20.0972C158.698 20.0943 158.812 20.1909 158.806 20.5383C158.787 21.827 158.786 23.1171 158.806 24.4072C158.812 24.7805 158.703 24.9031 158.316 24.8901C157.495 24.8627 156.672 24.8814 155.85 24.8814V24.8829Z" fill="#010202"/>
</svg>
