<?xml version="1.0" encoding="utf-8"?>
<!-- Generator: Adobe Illustrator 19.2.1, SVG Export Plug-In . SVG Version: 6.00 Build 0)  -->
<svg version="1.1" id="Слой_1" xmlns="http://www.w3.org/2000/svg" xmlns:xlink="http://www.w3.org/1999/xlink" x="0px" y="0px"
	 viewBox="0 0 240 72" style="enable-background:new 0 0 240 72;" xml:space="preserve">
<style type="text/css">
	.st0{fill:#2D323E;}
	.st1{fill:#FFFFFF;filter:url(#Adobe_OpacityMaskFilter);}
	.st2{mask:url(#mask0_6151_71535_1_);}
	.st3{fill:#FFFFFF;filter:url(#Adobe_OpacityMaskFilter_1_);}
	.st4{mask:url(#mask1_6151_71535_1_);}
	.st5{fill:#FFFFFF;filter:url(#Adobe_OpacityMaskFilter_2_);}
	.st6{mask:url(#mask2_6151_71535_1_);}
</style>
<g>
	<path class="st0" d="M164.2,28l5.5-4h-18.4v24.3h18.4v-4h-13.2V38h11.2v-4h-11.2V28H164.2z"/>
	<path class="st0" d="M137.3,33.5h-6.4V28h10.2l5.5-4h-21v24.3h11c6.2,0,9.7-2.8,9.7-7.6C146.3,36,143.1,33.5,137.3,33.5z
		 M136.4,44.2h-5.5v-6.7h5.5c3.3,0,4.9,1.1,4.9,3.4C141.3,43.2,139.6,44.2,136.4,44.2z"/>
	<path class="st0" d="M184.6,24h-10.1v24.3h5.3v-6.9h4.8c6.4,0,10.4-3.4,10.4-8.7C195,27.3,191,24,184.6,24 M184.5,37.4h-4.7V28h4.7
		c3.4,0,5.2,1.7,5.2,4.7S187.9,37.4,184.5,37.4z"/>
	<path class="st0" d="M116.6,43c-1.4,0.8-3,1.1-4.5,1.1c-4.7,0-8.2-3.4-8.2-8s3.4-8,8.2-8c1.7,0,3.4,0.5,4.8,1.5l3.8-2.8l-0.2-0.2
		c-2.2-1.9-5.1-2.9-8.5-2.9c-3.7,0-7,1.2-9.3,3.5c-2.4,2.2-3.7,5.4-3.7,8.9s1.3,6.7,3.7,9c2.4,2.3,5.7,3.6,9.3,3.6
		c3.8,0,7.1-1.3,9.4-3.7l-3.4-2.5L116.6,43z"/>
	<defs>
		<filter id="Adobe_OpacityMaskFilter" filterUnits="userSpaceOnUse" x="45" y="14.9" width="42.4" height="42.1">
			<feColorMatrix  type="matrix" values="1 0 0 0 0  0 1 0 0 0  0 0 1 0 0  0 0 0 1 0"/>
		</filter>
	</defs>
	<mask maskUnits="userSpaceOnUse" x="45" y="14.9" width="42.4" height="42.1" id="mask0_6151_71535_1_">
		<path class="st1" d="M86.3,36c0-1.2-0.1-2.4-0.3-3.6l-4.3,3.2c0,0.1,0,0.3,0,0.4c0,3.4-1.2,6.8-3.3,9.5c-2.1,2.7-5.1,4.6-8.5,5.5
			c-3.4,0.8-6.9,0.5-10.1-0.9c-3.2-1.4-5.8-3.8-7.4-6.9c-1.6-3-2.2-6.5-1.5-9.9c0.6-3.4,2.3-6.5,4.9-8.8c2.6-2.3,5.9-3.7,9.3-3.9
			c3.5-0.2,6.9,0.7,9.7,2.7l3.9-2.9c-3.5-2.8-8-4.4-12.5-4.4c-4.6,0-9,1.5-12.6,4.3c-3.6,2.8-6.1,6.8-7.1,11.2
			c-1,4.4-0.5,9.1,1.4,13.1c2,4.1,5.3,7.4,9.4,9.4c4.1,2,8.8,2.5,13.2,1.5c4.4-1,8.4-3.5,11.3-7C84.7,45,86.3,40.6,86.3,36L86.3,36z
			"/>
	</mask>
	<g class="st2">
		<defs>
			<filter id="Adobe_OpacityMaskFilter_1_" filterUnits="userSpaceOnUse" x="45" y="14.9" width="42.4" height="42.1">
				<feColorMatrix  type="matrix" values="1 0 0 0 0  0 1 0 0 0  0 0 1 0 0  0 0 0 1 0"/>
			</filter>
		</defs>
		<mask maskUnits="userSpaceOnUse" x="45" y="14.9" width="42.4" height="42.1" id="mask1_6151_71535_1_">
			<path class="st3" d="M87.3,15H45.1v42h42.2V15z"/>
		</mask>
		<g class="st4">
			<defs>
				<filter id="Adobe_OpacityMaskFilter_2_" filterUnits="userSpaceOnUse" x="45" y="14.9" width="42.4" height="42.1">
					<feColorMatrix  type="matrix" values="1 0 0 0 0  0 1 0 0 0  0 0 1 0 0  0 0 0 1 0"/>
				</filter>
			</defs>
			<mask maskUnits="userSpaceOnUse" x="45" y="14.9" width="42.4" height="42.1" id="mask2_6151_71535_1_">
				<path class="st5" d="M87.3,15H45.1v42h42.2V15z"/>
			</mask>
			<g class="st6">
				<rect x="45" y="14.9" class="st0" width="42.4" height="42.1"/>
			</g>
		</g>
	</g>
	<path class="st0" d="M82.1,23.8c1,1.2,1.8,2.6,2.4,4L66.2,41.2l-7.7-4.8v-5.7l7.7,4.8L82.1,23.8z"/>
</g>
</svg>
