<svg width="187" height="29" viewBox="0 0 187 29" fill="none" xmlns="http://www.w3.org/2000/svg">
<path d="M162.852 24.8794V22.3741C156.079 22.3741 150.778 19.132 150.778 11.9109C150.778 4.54252 156.079 1.44778 162.852 1.44778H168.889C175.662 1.44778 180.963 4.68988 180.963 11.9109C180.963 19.2794 175.662 22.3741 168.889 22.3741V24.8794H162.852ZM168.889 18.3951C173.012 18.3951 174.632 15.5951 174.632 11.7636C174.632 7.93199 173.159 5.13199 168.889 5.13199V18.3951ZM162.852 5.13199C158.729 5.13199 157.109 7.93199 157.109 11.7636C157.109 15.4478 158.435 18.3951 162.852 18.3951V5.13199ZM108.372 1.30041C113.672 1.30041 119.12 3.51094 119.12 9.70041C119.12 15.8899 113.672 18.1004 108.372 18.1004H103.66V24.732H97.6228V5.13199L96.0032 1.30041H108.372ZM103.66 5.13199V14.2688H108.372C111.464 14.2688 112.789 12.6478 112.789 9.70041C112.789 6.60567 111.317 5.13199 108.372 5.13199H103.66ZM134.581 0.710938C142.385 0.710938 147.833 4.98462 147.833 13.0899C147.833 21.1951 142.238 25.4688 134.581 25.4688C126.777 25.4688 121.329 21.1951 121.329 13.0899C121.329 4.83725 126.924 0.710938 134.581 0.710938ZM134.581 4.39515C129.575 4.39515 127.661 8.52146 127.661 13.0899C127.661 17.6583 129.575 21.7846 134.581 21.7846C139.587 21.7846 141.502 17.5109 141.502 13.0899C141.502 8.52146 139.587 4.39515 134.581 4.39515ZM92.4693 24.8794H86.4323V5.13199H75.0945V24.8794H69.0575V1.30041H92.4693V24.8794ZM58.4559 5.13199V24.8794H52.4189V5.13199H44.026V1.30041H65.3764L66.9961 5.13199H58.4559ZM47.2654 24.8794H41.2284L39.7559 21.1951H31.6575L30.0378 17.3636H38.1362L33.5717 6.31094L26.0622 24.8794H20.0252L28.2709 4.54252L26.9457 1.30041H37.6945L47.2654 24.8794ZM14.5772 5.13199V24.8794H8.54016V5.13199H0V1.30041H21.3504L22.9701 5.13199H14.5772Z" fill="#2A303E"/>
</svg>
