<svg width="241" height="67" viewBox="0 0 241 67" fill="none" xmlns="http://www.w3.org/2000/svg">
<path d="M73.9975 33.9514C73.9975 41.6835 73.9975 49.4176 73.9975 57.1497C73.9975 58.7005 73.7124 58.9867 72.1142 58.9867C57.064 58.9867 42.0138 58.9867 26.9636 58.9827C26.3291 58.9827 25.6926 59.0007 25.0582 58.9667C24.231 58.9226 23.7652 58.4984 23.7853 57.632C23.7913 57.3978 23.7813 57.1657 23.7813 56.9316C23.7812 41.5654 23.7812 26.2013 23.7812 10.8351C23.7812 9.03815 23.984 8.85205 25.8131 8.85205C41.2308 8.85205 56.6484 8.85205 72.066 8.85205C73.7265 8.85205 73.9955 9.11619 73.9955 10.7511C73.9955 18.4832 73.9955 26.2173 73.9955 33.9494L73.9975 33.9514Z" fill="#F0DB4E"/>
<path d="M68.6644 40.0543C68.3291 40.0543 67.9938 40.0303 67.6625 40.0603C67.0943 40.1103 66.8112 39.9782 66.6385 39.3279C66.2591 37.8991 65.0845 37.2748 63.7233 37.0967C62.3198 36.9126 60.9425 37.0927 60.0209 38.3414C58.999 39.7241 59.5471 41.5811 61.2256 42.3295C62.2255 42.7737 63.3036 43.0439 64.3477 43.3881C65.2652 43.6902 66.1988 43.9484 67.1023 44.2905C72.194 46.2136 71.5716 52.2428 68.5178 54.512C65.3295 56.8792 59.9507 56.5651 57.2643 53.7296C56.3307 52.745 55.8689 51.5624 55.7324 50.2257C55.6741 49.6534 55.7826 49.3212 56.4572 49.4033C56.7864 49.4433 57.1278 49.4333 57.459 49.4033C58.6577 49.2992 59.5371 49.3352 59.9326 50.9121C60.3482 52.5669 62.4724 53.2373 64.6127 52.775C66.239 52.4249 67.1847 51.3083 67.1806 49.7895C67.1766 48.4568 66.3755 47.7284 65.2672 47.2441C64.0104 46.6958 62.6612 46.4277 61.3521 46.0335C60.0711 45.6493 58.7781 45.2771 57.7421 44.3786C55.0096 42.0073 55.2364 37.4869 58.1879 35.2878C60.8843 33.2787 65.6106 33.2807 68.2809 35.2998C69.592 36.2923 70.3569 37.603 70.622 39.2359C70.7324 39.9202 70.5356 40.1323 69.8731 40.0603C69.4755 40.0183 69.072 40.0523 68.6704 40.0523L68.6644 40.0543Z" fill="#333331"/>
<path d="M51.8469 42.5298C51.8469 45.0271 51.879 47.5244 51.8388 50.0218C51.7967 52.6532 50.6904 54.6422 48.1466 55.6547C45.7031 56.6273 42.6312 56.0209 40.8885 54.248C39.6878 53.0274 39.3345 51.5005 39.2763 49.8597C39.2622 49.4334 39.4188 49.2574 39.8545 49.2694C40.5893 49.2894 41.3262 49.3074 42.059 49.2634C42.6774 49.2273 42.8963 49.4014 42.9645 50.0718C43.1834 52.2509 44.5065 53.1814 46.44 52.6291C47.5623 52.307 48.1285 51.4825 48.1385 50.0037C48.1606 46.2738 48.1506 42.5458 48.1526 38.8158C48.1526 37.4831 48.1787 36.1504 48.1405 34.8197C48.1245 34.2314 48.263 33.9692 48.9115 34.0153C49.8411 34.0813 51.0418 33.7191 51.6381 34.1753C52.2806 34.6656 51.8248 35.9183 51.8429 36.8368C51.881 38.7338 51.8549 40.6328 51.8549 42.5298H51.8489H51.8469Z" fill="#343430"/>
<path d="M194.297 27.4631C199.024 24.8303 201.969 25.2364 204.967 28.804H204.972C207.098 30.9304 206.881 36.1296 204.409 38.7952C202.328 41.0375 198.726 42.0151 194.858 39.7073C194.646 41.0626 194.808 42.3856 194.762 43.6956C194.745 44.1566 194.763 44.6183 194.757 45.0794C194.735 47.2106 194.403 47.415 192.264 47.1253C191.365 47.0043 191.203 46.6764 191.208 45.8704C191.238 40.504 191.21 35.1372 191.233 29.7708C191.238 28.5237 191.069 27.2661 191.352 26.0266C191.812 26.0165 192.272 26.0099 192.732 25.9973C193.695 25.9696 194.807 25.7474 194.297 27.4631ZM209.027 22.4876C209.838 22.5002 210.837 22.2433 211.454 22.5305C211.739 22.6968 211.861 23.0292 212.015 23.6741C212.013 24.1654 211.901 24.7172 211.914 25.1858C211.929 25.8509 212.172 26.0394 212.806 26.0217C213.721 25.9965 214.639 26.0577 215.554 26.0803C215.539 28.5391 215.531 28.5668 213.026 28.5618C212.237 28.5593 211.907 28.723 211.942 29.5969C212.013 31.353 211.962 33.1147 211.962 34.8733C211.962 36.8164 212.956 37.8119 214.945 37.8606C215.15 37.8657 215.357 37.8942 215.561 37.9143V37.9192C215.862 38.4708 215.742 39.1028 215.868 39.6897C215.974 40.186 215.64 40.6176 215.122 40.6604C213.653 40.7839 212.142 41.131 210.799 40.1487C209.384 39.3073 208.916 37.9922 208.914 36.4329C208.909 34.1755 208.86 31.9178 208.878 29.6604C208.885 28.9098 208.749 28.5086 207.857 28.5588C206.507 28.6319 207.272 27.5612 207.138 27.012C207.01 26.4905 207.005 25.8537 207.889 26.0022C208.751 26.1483 208.949 25.7523 208.928 24.9612C208.906 24.14 208.757 23.3012 209.027 22.4876ZM165.229 25.8528C168.091 25.3994 170.671 26.0296 172.464 28.5715C172.582 28.7403 172.712 28.9043 172.836 29.0706C172.937 29.3804 173.012 29.7034 173.141 30.0032C173.482 30.7965 173.383 31.2247 172.37 31.1038C171.632 31.0182 170.883 31.031 170.14 30.9983C170.075 30.6305 169.956 30.2874 169.68 30.0178C169.246 29.1033 168.444 28.7001 167.507 28.5364C165.335 28.156 163.623 29.0533 162.921 30.9026C162.198 32.8049 162.426 36.5453 164.529 37.4094C166.685 38.6666 168.958 38.0827 169.984 35.9387C170.229 35.4248 170.515 35.1873 171.006 35.3284C171.789 35.5523 172.785 34.7216 173.382 35.8098C172.537 38.3141 170.934 40.0423 168.275 40.5764V40.5823C166.387 40.9627 164.549 40.6596 162.804 39.8333C159.68 37.5759 158.937 34.4668 159.768 30.9221C160.433 28.0828 162.345 26.3088 165.229 25.8528ZM128.091 30.1106C129.702 25.926 134.751 24.3818 138.419 26.9465C138.644 27.1053 138.81 27.4029 139.248 27.345C138.952 26.0198 139.7 25.8385 140.772 25.9846C141.27 26.0526 141.781 26.0199 142.284 26.0325C142.302 30.5093 142.324 34.9887 142.324 39.468C142.324 39.8207 142.599 40.4107 141.909 40.4485C141.634 40.4636 141.353 40.4814 141.073 40.4915C140.972 40.4839 140.872 40.4832 140.779 40.4983C140.352 40.5008 139.929 40.4786 139.525 40.3879C138.909 40.2491 139.566 39.3802 139.081 39.0149C136.136 41.0456 134.492 41.2145 130.943 39.8616V39.8587C127.796 37.3291 126.724 33.6654 128.091 30.1106ZM96.5514 30.968C97.7522 26.1786 103.162 24.1726 107.227 27.012C107.424 27.1505 107.614 27.2972 107.985 27.5667C107.707 26.1155 108.352 25.8127 109.466 25.9866C109.959 26.0647 110.472 26.0171 110.975 26.0247C111.001 30.5395 111.029 35.0548 111.042 39.5696C111.042 39.8946 111.248 40.4179 110.652 40.4456C109.858 40.4834 109.04 40.5386 108.271 40.385C107.601 40.2515 108.278 39.3875 107.756 38.9944L107.757 38.9973C105.452 41.0177 102.859 41.0831 100.119 40.1057C96.9059 37.9718 95.6213 34.679 96.5514 30.968ZM150.454 21.9983C153.098 21.8019 155.357 22.5176 156.95 24.7747C157.008 24.9661 157.064 25.1633 157.13 25.3547C157.771 27.2036 157.751 27.2336 155.805 27.2336C155.52 27.2336 155.234 27.2668 154.948 27.2844C153.988 27.3725 154.276 26.3045 153.748 25.9944C152.946 24.6339 151.633 24.6364 150.319 24.7825C149.227 24.906 148.424 25.4956 148.216 26.634C148.002 27.8155 148.449 28.6726 149.619 29.096C150.852 29.8241 152.273 30.0156 153.608 30.4514C155.044 30.92 156.247 31.6479 157.147 32.8596C158.99 37.6239 155.408 40.4635 152.134 40.6575L152.132 40.6624C150.549 40.7555 149.068 40.4507 147.625 39.8587C146.196 38.8635 145.132 37.6466 144.996 35.8049C144.958 35.2786 145.041 35.0116 145.637 35.0618C146.097 35.0996 146.563 35.0945 147.023 35.0618C147.716 35.0114 148.064 35.1552 148.317 35.9563C149.01 38.1557 152.551 38.7553 154.025 36.9768C154.692 36.1731 154.849 35.2604 154.205 34.3333C153.886 33.5602 153.174 33.308 152.468 33.0813C150.858 32.5623 149.235 32.0762 147.617 31.5774C145.377 29.9751 144.635 28.1789 145.256 25.8762C145.848 23.6868 147.842 22.1923 150.454 21.9983ZM90.2497 23.4143C90.232 22.3889 90.5508 22.0894 91.5114 22.2053C92.0925 22.2758 92.6863 22.2353 93.2751 22.2454C93.2953 26.5989 93.3408 30.9524 93.3307 35.3059L93.3239 35.6399C93.1847 39.0915 91.0116 40.9133 87.446 40.635C86.5411 40.5644 85.7548 40.1883 84.946 39.8557C83.6696 38.7749 82.8907 37.4522 82.8502 35.7366C82.8402 35.2203 82.9442 34.9485 83.528 34.9963C83.988 35.0341 84.4582 35.0388 84.9157 34.9934C85.583 34.9304 85.8385 35.1478 85.9547 35.8557C86.2051 37.3795 87.019 37.9843 88.3483 37.846C89.6425 37.7099 90.2596 36.9488 90.2672 35.3694C90.2849 31.3862 90.3154 27.3975 90.2497 23.4143ZM188.117 37.8411C188.129 40.8059 188.119 40.8059 185.055 40.3147C185.043 37.1454 185.032 33.9786 185.022 30.8118C184.845 29.5521 184.324 28.2893 185.022 27.0295V26.0295H188.041C188.066 29.9674 188.099 33.9032 188.117 37.8411ZM182.059 25.7327C182.909 25.6621 183.324 25.8985 183.256 26.7776C183.238 27.1932 183.185 27.6116 183.213 28.0247C183.25 28.5991 183.076 28.8111 182.449 28.8489C179.663 29.0177 178.756 29.9931 178.728 32.7795C178.705 35.0419 178.698 37.3043 178.736 39.5667C178.749 40.272 178.538 40.5714 177.815 40.4807C177.482 40.438 177.141 40.4355 176.807 40.4631C175.986 40.5337 175.659 40.2845 175.672 39.3626C175.73 34.9209 175.702 30.479 175.707 26.0374C176.339 26.0248 176.968 26.0115 177.6 25.9963C178.293 25.9787 179.061 25.8606 178.619 27.2512C179.855 26.4099 180.846 25.8361 182.059 25.7327ZM112.31 25.7932C113.678 26.4532 115.151 25.1329 116.013 26.7854C117.201 30.0531 118.387 33.3187 119.694 36.9114C119.985 36.0826 120.334 35.6615 120.303 35.0872C121.398 32.2075 122.498 29.3326 123.585 26.4504C123.686 26.1884 123.805 26.0042 124.103 26.0042C124.945 26.0042 125.787 25.9967 126.629 26.0169C126.934 26.022 126.874 26.2792 126.869 26.4807C125.365 30.2497 123.858 34.0159 122.356 37.7874V37.7903C121.591 39.7168 120.155 40.5797 118.048 40.3782C116.178 35.6241 114.307 30.8723 112.31 25.7932ZM138.191 29.9319C136.538 28.1129 133.658 27.9825 131.985 29.6428V29.6448C130.102 31.5117 130.208 35.1071 132.2 36.8606C132.774 37.5407 133.539 37.821 134.396 37.9016C136.176 38.0679 137.683 37.5278 138.557 35.928C139.588 34.041 139.642 32.1085 138.347 30.2669C138.297 30.1536 138.269 30.02 138.191 29.9319ZM201.823 29.8469C200.086 28.0329 197.222 28.0428 195.536 29.8215C193.653 31.8094 194.082 35.9965 196.155 37.0774C196.688 37.5964 197.346 37.8227 198.074 37.8958C199.917 38.0821 201.453 37.508 202.31 35.8352L202.313 35.8381C203.317 33.8857 203.352 31.9026 201.922 30.0686C201.889 29.9932 201.876 29.9024 201.823 29.8469ZM106.812 29.8391C105.566 28.5265 104.029 28.1984 102.342 28.6897C100.591 29.2012 99.6709 30.5223 99.4459 32.2581C99.1932 34.2029 99.4964 36.0069 101.324 37.1985L101.322 37.1956C101.802 37.6389 102.391 37.8184 103.025 37.8889C104.954 38.1031 106.588 37.4027 107.356 35.803C108.294 33.8454 108.377 31.8719 106.911 30.0579C106.878 29.9849 106.865 29.8945 106.812 29.8391ZM215.557 26.0628C215.67 26.2368 215.729 26.4234 215.761 26.6145C215.658 26.4558 215.583 26.2815 215.557 26.0774H215.562L215.557 26.0628ZM215.557 26.0628C215.556 26.0602 215.554 26.0575 215.552 26.0549H215.554L215.557 26.0628ZM186.519 20.6155C187.555 20.5426 188.112 21.1876 188.547 22.0012C189.1 22.8199 188.812 23.5481 188.182 24.1174C187.591 24.6515 186.888 25.0823 186.069 24.4426V24.4397C185.076 23.9257 184.502 23.1599 184.793 22.011C185.008 21.1596 185.624 20.6785 186.519 20.6155Z" fill="#020202"/>
</svg>
