<?xml version="1.0" encoding="utf-8"?>
<!-- Generator: Adobe Illustrator 19.2.1, SVG Export Plug-In . SVG Version: 6.00 Build 0)  -->
<svg version="1.1" id="Слой_1" xmlns="http://www.w3.org/2000/svg" xmlns:xlink="http://www.w3.org/1999/xlink" x="0px" y="0px"
	 viewBox="0 0 240 72" style="enable-background:new 0 0 240 72;" xml:space="preserve">
<style type="text/css">
	.st0{fill:#2D323E;}
</style>
<g>
	<path class="st0" d="M92.1,36.1c0,5.7-3,10.9-8,13.8L70,58L56,49.9c-4.9-2.8-8-8.1-8-13.8V14h44.1V36.1z M60.1,32.5
		c0.9-1.1,2.7-1.8,4.6-1.8h2.1v8c0,2.1-0.6,4-1.4,5h9.3c-0.9-1-1.4-2.9-1.4-5v-8h2.1c2,0,3.7,0.7,4.6,1.8v-6.9H60.1V32.5z"/>
	<path class="st0" d="M119.7,34.4c2.3,0.6,3.3,2.4,3.3,4.2c0,2.1-1.3,3.9-3.3,4.7c-1,0.4-2.2,0.5-3.8,0.5h-13.5V25.6h13.2
		c1.7,0,2.9,0.1,3.8,0.4c2.1,0.7,3.2,2.3,3.2,4.2C122.6,32.3,121.3,33.6,119.7,34.4z M115,32.8c0.5,0,1,0,1.2-0.2
		c0.7-0.3,1-0.8,1-1.4c0-0.6-0.3-1.1-1-1.4c-0.3-0.1-0.7-0.2-1.3-0.2h-7.2v3.1H115z M115.1,39.6c0.5,0,1,0,1.3-0.2
		c0.7-0.3,1-0.8,1-1.4c0-0.6-0.3-1.1-0.9-1.3c-0.3-0.1-0.7-0.2-1.3-0.2h-7.4v3.1H115.1z"/>
	<path class="st0" d="M130.6,41.1l-1,2.6h-6.3l7.4-18.1h8.1l7.4,18.1H140l-1.1-2.6H130.6z M132,37.1h5.7l-2.6-7.3h-0.4L132,37.1z"/>
	<path class="st0" d="M152.9,25.6l9.6,9.9v-9.9h5.3v18.1h-4.9l-9.8-10v10h-5.3V25.6H152.9z"/>
	<path class="st0" d="M176.5,36.9v6.9H171V25.6h5.5v6.8h1.5l6.7-6.8h6.9l-8.8,8.7l9.2,9.4h-7.4l-6.6-6.9H176.5z"/>
</g>
</svg>
