<svg xmlns="http://www.w3.org/2000/svg" fill="none" viewBox="0 0 328 520">
  <g clip-path="url(#a)">
    <g filter="url(#b)" opacity=".6">
      <ellipse cx="56.5" cy="52.7" fill="#DAF0FF" rx="181.6" ry="261.1" transform="rotate(-120 56.5 52.7)"/>
    </g>
    <path fill="#EFF8FF" d="M243.7 119c0 .9-.5 1.3-1.5 1.5l-.8-.2h-7.9c-1-.2-1.6-.7-1.6-1.5 0-2 2-2.8 5.9-2.2 1.5.2 2.8.6 4 1 1.3.6 1.9 1 1.9 1.5m33.7-21.2c0-2.6.4-4.8 1.3-6.6 1.6-3.5 4.8-5.3 9.3-5.2 3.2.1 6.3 1.2 9.3 3.4a13 13 0 0 1 4 4.2c1.8-1.7 4.3-2.5 7.4-2.4a15.9 15.9 0 0 1 8 2.6c.5-2 1.3-3.8 2.4-5.6 3.2-4.7 8.3-7 15.6-6.9 4.6.1 9 1.6 13.4 4.4 5 3.3 7.5 7.2 7.6 11.7 1-.6 2.5-.8 4.1-.8 3.5.1 6.6 1.7 9.3 4.8 1.6 1.9 2.8 3.8 3.8 5.8 1.2-2.1 2.8-3.2 4.8-3 2 0 3.8 1.4 5.3 4 1.4 2.4 2 4.7 1.8 7 1.3-.4 3.6 0 6.7 1 3 1 4.6 2.7 4.5 5-7.4 0-17.4-.1-30-.4-12.4-.3-27.8-.3-46.2 0a1630.8 1630.8 0 0 1-71.7-.4c-1.3-2.4-.8-4 1.7-4.9 2.5-1 4.1-1.2 5-.8l1.1.5h.3v-.1c0-1.4.3-2.6.8-3.6.8-2 2.4-3 4.8-3a6 6 0 0 1 3.8 1.3c.3-1.7.7-3.2 1.4-4.5 1.7-3.2 4.7-4.8 9-4.7l1.6.1-.2-3M223.3 120c-.2-.2-.3-.5-.3-1 0-.8.8-1.3 2.4-1.5 1.6 0 2.4.4 2.4 1.6l-.2.7c-.4.5-1.1.7-2.2.7s-1.8-.2-2.1-.5Z" opacity=".4"/>
  </g>
  <defs>
    <clipPath id="a">
      <path fill="#fff" d="M0 0h328v520H0z"/>
    </clipPath>
    <filter id="b" width="774.6" height="695.9" x="-330.8" y="-295.2" color-interpolation-filters="sRGB" filterUnits="userSpaceOnUse">
      <feFlood flood-opacity="0" result="BackgroundImageFix"/>
      <feBlend in="SourceGraphic" in2="BackgroundImageFix" result="shape"/>
      <feGaussianBlur result="effect1_foregroundBlur_6159_69369" stdDeviation="71.8"/>
    </filter>
  </defs>
</svg>
