<svg width="1920" height="1174" viewBox="0 0 1920 1174" fill="none" xmlns="http://www.w3.org/2000/svg">
<g opacity="0.3" filter="url(#filter0_f_7838_38531)">
<ellipse cx="802.479" cy="372.11" rx="802.479" ry="372.11" transform="matrix(0.827871 -0.560919 -0.560919 -0.827871 -262.553 1032.08)" fill="#00A3FF"/>
</g>
<g opacity="0.3" filter="url(#filter1_f_7838_38531)">
<ellipse cx="1637.25" cy="294.779" rx="765.249" ry="372.11" transform="rotate(-145.881 1637.25 294.779)" fill="#00A3FF"/>
</g>
<g filter="url(#filter2_f_7838_38531)">
<ellipse cx="959" cy="437.477" rx="643" ry="160" transform="rotate(180 959 437.477)" fill="#1E76E2"/>
</g>
<g opacity="0.8" filter="url(#filter3_f_7838_38531)">
<path d="M2251.43 -690.465C2001.75 -1076.11 1486.71 -1186.34 1101.06 -936.652C715.411 -686.969 605.189 -171.93 854.873 213.719C1104.56 599.369 1619.6 709.591 2005.24 459.907C2390.89 210.224 2501.12 -304.815 2251.43 -690.465Z" fill="#0284D8"/>
</g>
<g opacity="0.4" filter="url(#filter4_f_7838_38531)">
<path d="M2182.99 -646.155C1957.78 -994.007 1493.22 -1093.43 1145.37 -868.214C797.518 -643.002 698.099 -178.442 923.311 169.41C1148.52 517.262 1613.08 616.682 1960.94 391.469C2308.79 166.257 2408.21 -298.303 2182.99 -646.155Z" fill="#B0E0FF"/>
</g>
<path d="M2128.58 -610.925C1922.83 -928.724 1498.4 -1019.55 1180.6 -813.799C862.803 -608.044 771.973 -183.62 977.728 134.179C1183.48 451.978 1607.91 542.808 1925.71 337.053C2243.51 131.298 2334.34 -293.126 2128.58 -610.925Z" fill="url(#paint0_radial_7838_38531)"/>
<path d="M1913.28 118.028C1850.24 151.16 1774.43 129.065 1743.94 68.6766C1713.45 8.28808 1739.84 -67.5259 1802.87 -100.659C1865.91 -133.791 1941.72 -111.696 1972.21 -51.3073C2002.7 9.08129 1976.31 84.8952 1913.28 118.028Z" fill="#A0D5FF"/>
<path d="M1915.18 -102.775C1849.8 -126.22 1774.82 -89.5472 1747.68 -20.9906C1733.41 15.0465 1735.3 52.5919 1749.63 83.6196C1728.94 50.4003 1724.03 6.95145 1740.43 -34.4796C1767.6 -103.114 1842.63 -139.682 1907.94 -116.264C1938.99 -105.129 1962.2 -82.3448 1975.14 -54.2288C1961.5 -76.0775 1941.1 -93.4825 1915.18 -102.775Z" fill="#3A99E4"/>
<path d="M1123.36 25.9234C1107.44 66.3076 1063.51 87.8476 1025.23 74.0343C986.947 60.221 968.819 16.2852 984.736 -24.0989C1000.65 -64.4831 1044.59 -86.023 1082.87 -72.2097C1121.15 -58.3964 1139.28 -14.4607 1123.36 25.9234Z" fill="#A0D5FF"/>
<path d="M1087.49 -64.4924C1049.14 -78.2446 1005.18 -56.7818 989.245 -16.523C980.89 4.58363 982.009 26.6771 990.376 44.8532C978.254 25.4201 975.37 -0.16295 984.963 -24.3964C1000.9 -64.6553 1044.86 -86.118 1083.21 -72.3658C1101.45 -65.8236 1115.05 -52.4691 1122.64 -35.9978C1114.61 -48.7872 1102.68 -59.045 1087.49 -64.4924Z" fill="#3A99E4"/>
<path d="M1774.95 156.214C1779.58 144.445 1774.33 131.705 1763.17 127.679C1752.02 123.654 1739.28 129.9 1734.64 141.668C1730 153.437 1735.26 166.177 1746.41 170.203C1757.57 174.228 1770.31 167.982 1774.95 156.214Z" fill="#A0D5FF"/>
<path d="M1764.5 129.953C1753.33 125.947 1740.58 132.175 1735.94 143.901C1733.52 149.998 1733.86 156.457 1736.29 161.703C1732.74 156.056 1731.94 148.627 1734.73 141.592C1739.37 129.866 1752.12 123.638 1763.29 127.643C1768.58 129.539 1772.55 133.464 1774.77 138.185C1772.41 134.482 1769 131.477 1764.54 129.874L1764.5 129.953Z" fill="#3A99E4"/>
<path d="M1172.87 44.5029C1177.51 32.7343 1172.25 19.9939 1161.09 15.9684C1149.94 11.943 1137.2 18.1891 1132.56 29.9577C1127.92 41.7262 1133.18 54.4667 1144.33 58.4922C1155.49 62.5176 1168.23 56.2714 1172.87 44.5029Z" fill="#A0D5FF"/>
<path d="M1162.5 18.2741C1151.33 14.2685 1138.57 20.4964 1133.93 32.2225C1131.52 38.32 1131.85 44.7783 1134.28 50.0241C1130.74 44.3777 1129.93 36.9488 1132.72 29.9132C1137.36 18.1871 1150.12 11.9593 1161.29 15.9649C1166.57 17.8609 1170.55 21.7855 1172.76 26.5069C1170.4 22.8037 1167 19.7982 1162.53 18.1959L1162.5 18.2741Z" fill="#3A99E4"/>
<path d="M1256.54 218.371C1265.79 194.913 1255.23 169.326 1233 161.302C1210.76 153.278 1185.17 165.822 1175.93 189.281C1166.68 212.74 1177.24 238.326 1199.47 246.35C1221.71 254.374 1247.3 241.83 1256.54 218.371Z" fill="#A0D5FF"/>
<path d="M1235.76 165.803C1213.5 157.819 1187.88 170.326 1178.63 193.7C1173.77 205.973 1174.4 218.785 1179.3 229.381C1172.21 218.089 1170.6 203.231 1176.17 189.16C1185.43 165.786 1211.04 153.278 1233.31 161.263C1243.88 165.055 1251.79 172.799 1256.23 182.425C1251.61 174.967 1244.59 169.059 1235.81 165.908L1235.76 165.803Z" fill="#3A99E4"/>
<path d="M1895.73 282.476C1904.97 259.018 1894.42 233.431 1872.18 225.407C1849.94 217.383 1824.36 229.927 1815.11 253.386C1805.87 276.844 1816.42 302.431 1838.66 310.455C1860.9 318.479 1886.48 305.935 1895.73 282.476Z" fill="#A0D5FF"/>
<path d="M1874.95 229.909C1852.68 221.924 1827.07 234.431 1817.82 257.805C1812.96 270.079 1813.58 282.89 1818.49 293.487C1811.39 282.194 1809.79 267.336 1815.36 253.265C1824.61 229.891 1850.23 217.384 1872.49 225.368C1883.07 229.16 1890.97 236.905 1895.41 246.531C1890.8 239.073 1883.78 233.165 1874.99 230.014L1874.95 229.909Z" fill="#3A99E4"/>
<path d="M1708.26 129.887C1693.32 167.801 1652.07 188.024 1616.13 175.055C1580.19 162.087 1563.17 120.838 1578.12 82.924C1593.06 45.0097 1634.31 24.7871 1670.25 37.7556C1706.19 50.7241 1723.21 91.9728 1708.26 129.887Z" fill="#A0D5FF"/>
<path d="M1674.63 44.9671C1638.66 32.0697 1597.34 52.2455 1582.39 90.0023C1574.53 109.858 1575.55 130.487 1583.48 147.614C1572.09 129.336 1569.39 105.428 1578.43 82.6018C1593.38 44.845 1634.7 24.6692 1670.67 37.5667C1687.8 43.7083 1700.53 56.2198 1707.66 71.7203C1700.19 59.6671 1688.93 50.0941 1674.63 44.9671Z" fill="#3A99E4"/>
<path opacity="0.1" d="M1527.08 208.426C1355.17 258.416 1180.13 250.567 1022.82 196.415C1191.61 401.859 1472.55 498.591 1744.04 419.66C2107.63 314.003 2316.68 -66.3948 2210.94 -429.955C2192.02 -495.095 2164.12 -555.171 2129.28 -609.457C2136.39 -241.261 1897.59 100.637 1527.06 208.35L1527.08 208.426Z" fill="#0D7CD8"/>
<path opacity="0.1" d="M1617.03 310.911C1454.21 358.211 1288.64 353.714 1137.96 307.078C1304.9 434.021 1527.69 483.03 1744.51 419.929C2102.57 315.823 2310.55 -54.7004 2215.79 -413.193C2184.62 -81.9738 1955.85 212.324 1617 310.834L1617.03 310.911Z" fill="#0D7CD8"/>
<path opacity="0.5" d="M1452.07 589.579C1443.57 591.379 2174.77 585.179 2201.57 581.679C2228.37 578.179 2174.37 571.479 2147.57 574.079C2120.77 576.679 2065.67 579.379 2065.67 579.379C2065.67 579.379 2075.87 571.479 2035.07 569.879C1994.27 568.279 1949.17 569.079 1949.17 569.079C1949.17 569.079 1946.87 561.379 1921.07 558.879C1895.27 556.279 1875.17 560.279 1875.17 560.279C1875.17 560.279 1868.97 542.679 1816.67 544.079C1764.37 545.479 1733.77 564.379 1733.77 564.379C1733.77 564.379 1717.37 563.979 1700.57 566.879C1683.77 569.779 1677.77 575.079 1677.77 575.079C1677.77 575.079 1669.77 561.779 1638.07 563.279C1606.37 564.779 1595.07 579.079 1595.07 579.079C1595.07 579.079 1497.37 579.979 1452.07 589.579Z" fill="white"/>
<path opacity="0.1" d="M-172.52 266.081C-179.62 268.281 423.18 266.781 445.38 262.581C467.58 258.381 423.38 249.481 401.18 252.581C378.98 255.681 333.48 258.481 333.48 258.481C333.48 258.481 342.28 248.581 308.68 246.181C275.08 243.781 237.88 244.481 237.88 244.481C237.88 244.481 236.38 234.781 215.18 231.381C193.98 227.981 177.28 232.781 177.28 232.781C177.28 232.781 172.98 210.581 129.78 211.881C86.5802 213.181 60.5802 236.781 60.5802 236.781C60.5802 236.781 47.0802 236.181 33.1802 239.681C19.2802 243.181 14.0802 249.781 14.0802 249.781C14.0802 249.781 8.08022 232.981 -18.1198 234.681C-44.3198 236.381 -54.2198 254.181 -54.2198 254.181C-54.2198 254.181 -134.72 254.381 -172.52 266.081Z" fill="white"/>
<path d="M-63.0002 233.833C-31.2255 231.778 -29.7685 261.522 -29.7639 261.617C-29.731 261.6 -27.7917 260.602 -24.5354 259.653C-24.5336 259.622 -24.5302 259.59 -24.5285 259.559C-21.8917 258.833 -18.5398 258.161 -14.6789 258.013C-10.8016 257.836 -6.40393 258.188 -1.76584 259.56C13.3635 264.034 13.9338 276.751 13.9451 277.048C14.0926 277.044 14.3192 277.038 14.6199 277.031C18.9705 276.899 43.6042 276.309 65.9138 279.111C89.8494 281.918 83.5912 294.681 83.2498 295.343C86.1516 294.985 117.644 291.062 133.391 287.138C135.972 286.462 138.927 286.179 142.012 286.203H142.214C158.871 286.335 179.325 295.447 165.219 300.31C161.749 301.505 139.898 302.655 107.494 303.701C107.131 303.713 106.767 303.725 106.402 303.736C104.017 303.813 101.576 303.889 99.0828 303.964C98.4514 303.983 97.8167 304.002 97.1785 304.021C-30.9923 307.827 -293.801 310.099 -289.607 307.719C-260.811 291.671 -202.022 291.254 -201.986 291.254C-201.986 291.254 -193.324 267.174 -173.785 264.91C-154.247 262.646 -151.226 285.08 -151.226 285.08C-151.226 285.08 -146.794 276.23 -136.32 271.496C-125.871 266.774 -116.024 267.582 -115.976 267.586C-115.976 267.586 -94.8258 235.685 -63.0002 233.833Z" fill="#80BDE8"/>
<path d="M1509.71 351.975C1508.11 355.167 1490.75 375.253 1482.27 384.897C1481.28 384.066 1478.38 381.904 1474.79 379.909C1470.3 377.415 1467.31 381.904 1465.31 384.897C1463.32 387.89 1464.81 388.389 1467.31 388.888C1469.3 389.287 1470.14 391.049 1470.3 391.881C1466.14 391.881 1456.04 392.38 1448.85 394.375C1439.87 396.869 1417.92 412.333 1420.42 413.33C1422.91 414.328 1452.84 407.344 1457.83 405.349C1461.82 403.753 1475.79 404.684 1482.27 405.349L1501.23 426.3C1504.06 424.97 1510.01 421.511 1511.21 418.319C1512.4 415.126 1517.36 401.691 1519.69 395.372C1512.87 397.035 1498.93 399.862 1497.74 397.867C1496.24 395.372 1507.21 387.391 1516.69 376.417C1526.17 365.443 1560.59 322.045 1559.59 320.548C1558.59 319.052 1558.1 319.551 1551.61 324.539C1545.13 329.527 1511.7 347.984 1509.71 351.975Z" fill="white"/>
<path d="M1319.31 502.127C1323.39 492.942 1335.64 485.288 1342.78 480.185C1349.92 475.083 1358.6 474.062 1372.38 472.531C1377.59 471.951 1381.04 470.891 1383.23 469.773C1384.66 468.496 1385.83 467.325 1386.66 466.408C1386.57 467.214 1385.67 468.529 1383.23 469.773C1378.83 473.709 1372.01 478.644 1365.23 480.185C1356.25 482.226 1353.67 484.097 1353.5 484.778C1354.69 486.649 1355.54 491.411 1349.41 495.493C1343.29 499.575 1338.02 495.153 1336.15 492.432C1332.58 496.684 1324.82 506.005 1322.37 509.271C1317.01 516.414 1309.44 518.163 1304.5 520.569C1308.44 517.073 1316.18 509.163 1319.31 502.127Z" fill="white"/>
<path opacity="0.5" d="M80.9044 789.392C81.2149 789.619 81.5771 789.846 82.0169 790.098C82.0686 789.593 82.198 789.114 82.3791 788.66C85.3285 782.202 89.1057 778.973 93.7627 778.973C99.4027 778.973 104.784 780.764 109.933 784.346C115.314 787.928 118.03 791.99 118.03 796.531C118.03 798.675 117.668 801.677 116.918 805.486C116.918 807.151 117.642 808.715 119.117 810.153C120.592 811.591 122.17 812.297 123.903 812.297C126.361 812.297 128.069 811.818 129.052 810.859C130.035 809.674 131.613 809.068 133.838 809.068C135.313 809.068 138.003 810.733 141.936 814.089C146.101 817.444 148.559 819.109 149.283 819.109C151.483 817.191 154.665 816.233 158.83 816.233C162.763 816.233 166.436 817.418 169.852 819.815C173.292 821.959 175 824.23 175 826.626V827.711C46.1586 824.431 -62.7615 823.12 -151.786 823.776C-152.019 822.893 -152.148 821.833 -152.148 820.547C-152.148 813.382 -148.345 809.8 -140.765 809.8C-135.875 810.027 -132.434 810.885 -130.468 812.297H-127.907C-128.398 810.859 -128.528 809.674 -128.269 808.715C-127.777 806.798 -125.708 805.839 -122.008 805.839C-118.308 805.839 -115.514 806.319 -113.548 807.277V802.963C-113.781 801.046 -113.056 800.088 -111.349 800.088C-110.857 800.088 -110.003 800.315 -108.787 800.794C-108.555 800.844 -108.296 800.844 -108.063 800.794C-108.296 800.239 -108.425 799.028 -108.425 797.212C-108.425 786.213 -103.277 780.714 -92.9797 780.714C-80.225 780.714 -73.1361 784.901 -71.6614 793.251C-70.1867 801.374 -68.6085 805.436 -66.8751 805.436C-65.4004 805.436 -63.6929 805.083 -61.7267 804.351C-59.7604 803.392 -58.6738 802.913 -58.4151 802.913C-57.6907 802.913 -55.8538 803.746 -52.9044 805.41C-49.7222 806.848 -47.6265 807.555 -46.6434 807.555C-44.9359 807.555 -43.4612 806.117 -42.2193 803.241C-41.2362 800.138 -39.2699 798.574 -36.3464 798.574C-33.6558 798.574 -31.586 798.927 -30.0855 799.659C-30.1631 799.936 -30.1631 800.163 -30.0855 800.365L-28.973 801.071C-29.2834 800.542 -29.6457 800.062 -30.0855 799.634C-33.5264 791.965 -35.2339 787.777 -35.2339 787.096C-35.2339 783.514 -35.0011 781.117 -34.5096 779.931C-33.0349 776.576 -29.6198 774.911 -24.2126 774.911H-23.1001C-22.8414 766.889 -20.5129 759.599 -16.1147 753.04C-9.75026 743.479 -0.177719 738.711 12.5512 738.711C24.5557 738.711 34.8526 742.066 43.4421 748.751C52.4972 755.689 57.0506 764.644 57.0506 775.643C57.0506 780.184 56.5591 784.952 55.5759 789.972H55.9381C56.6626 788.534 57.4128 787.348 58.1372 786.39C59.8448 784.725 62.0697 783.892 64.7604 783.892C70.4005 783.892 75.7818 785.683 80.9303 789.265M-251.03 811.263C-251.03 805.284 -250.798 801.576 -250.306 800.163C-248.598 796.102 -244.433 794.058 -237.81 794.058C-227.021 794.058 -220.657 796.329 -218.691 800.87C-217.708 803.266 -217.837 806.369 -219.053 810.178H-215.379C-212.197 808.993 -209.868 808.387 -208.394 808.387C-206.686 808.387 -205.082 809.573 -203.607 811.969C-202.391 814.366 -201.15 815.552 -199.934 815.552C-198.226 815.552 -196.389 814.593 -194.423 812.676C-192.457 810.532 -191.241 809.447 -190.749 809.447C-190.025 809.447 -188.421 809.926 -185.963 810.885C-183.272 811.843 -181.306 812.928 -180.09 814.114C-177.632 815.779 -176.416 817.696 -176.416 819.84C-176.313 821.631 -176.183 822.943 -176.054 823.776C-186.843 824.053 -211.343 823.826 -249.582 823.069C-250.565 820.219 -251.056 816.258 -251.056 811.238M-283.008 807.302C-280.058 807.302 -277.238 808.387 -274.548 810.532C-270.977 813.559 -269.244 817.62 -269.399 822.716C-280.938 822.413 -293.434 822.06 -306.887 821.631C-307.612 819.613 -308 818.175 -308 817.318C-308 813.004 -305.672 810.859 -301.015 810.859C-294.391 812.045 -290.976 812.651 -290.718 812.651C-289.01 812.651 -287.535 811.818 -286.294 810.153C-285.31 808.236 -284.198 807.277 -282.982 807.277L-283.008 807.302Z" fill="#A9DAF5"/>
<path opacity="0.2" fill-rule="evenodd" clip-rule="evenodd" d="M992.559 711.149C992.559 711.149 996.711 708.196 997.018 705.579C997.019 705.566 997.021 705.554 997.022 705.541C996.757 703.668 995.802 701.307 995.16 699.72L995.16 699.719C994.84 698.929 994.598 698.331 994.558 698.08C994.54 697.969 994.596 697.769 994.725 697.498C994.632 697.249 994.571 697.062 994.555 696.953C994.413 696.085 999.004 689.615 1007.41 686.844C1015.82 684.073 1031.41 681.111 1031.41 681.111C1031.41 681.111 1031.15 681.613 1030.71 682.38C1033.04 681.888 1034.54 681.593 1034.54 681.593C1034.54 681.593 1030.84 688.846 1027.83 690.573C1026.39 691.429 1024.45 691.918 1022.65 692.372C1021.45 692.673 1020.31 692.959 1019.43 693.327C1019.51 692.549 1019.66 691.939 1019.85 691.43C1017.99 691.894 1016.3 692.335 1015.5 693.133C1014.16 694.482 1010.96 707.357 1010.39 712.168C1010.37 712.477 1010.37 712.717 1010.39 712.875C1010.63 714.439 1011.81 717.4 1012.39 718.8C1013.94 718.969 1016.19 719.008 1018.25 719.044C1020.55 719.084 1022.6 719.12 1023.09 719.33C1023.77 719.621 1024.3 721.315 1024.15 722.834C1024.12 723.173 1024.07 723.507 1023.97 723.817C1023.87 724.548 1023.6 725.223 1023.11 725.661C1022.01 726.638 1020.19 728.067 1018.84 728.855C1019.12 728.937 1019.34 729.015 1019.48 729.086C1019.52 729.105 1019.56 729.124 1019.59 729.142L1019.7 729.196C1020.38 729.54 1020.81 729.76 1020.16 729.84C1019.58 729.91 1019.17 729.839 1019.02 729.807C1019.27 729.87 1020.28 730.147 1020.24 730.505C1020.21 730.792 1019.93 730.763 1019.6 730.728C1019.41 730.709 1019.21 730.689 1019.04 730.721C1018.55 730.81 1015.48 729.924 1014.26 729.236C1013.62 728.893 1012.35 728.007 1011.2 727.203C1010.56 726.754 1009.96 726.33 1009.52 726.041C1008.68 726.034 1007.53 726.132 1005.79 726.4C1003.82 726.706 1000.75 726.77 997.739 726.626C996.947 726.865 996.107 727.207 995.482 727.706C994.118 728.805 986.533 735.35 983.597 739.2C983.274 739.641 983.018 740.043 982.848 740.391C981.565 743.017 980.411 747.789 979.544 752.471C979.892 752.135 980.233 751.786 980.565 751.432C980.259 753.07 979.967 754.748 979.733 756.317C978.881 761.995 974.432 768.1 974.139 767.507C974.097 767.422 974.048 767.203 973.99 766.88C973.64 767.272 973.4 767.438 973.339 767.315C973.233 767.1 973.079 766.029 972.873 764.594C972.514 762.094 971.997 758.492 971.297 756.395C970.196 753.096 970.658 735.399 971.444 732.244C971.502 732.02 971.569 731.803 971.646 731.593C972.552 728.682 975.154 727.124 979.278 725.381C981.768 724.328 983.41 723.138 984.349 722.326C984.034 722.078 983.75 721.845 983.507 721.638L983.519 721.642C982.858 721.098 982.431 720.702 982.363 720.631C982.332 720.54 982.033 720.46 981.643 720.355C981.01 720.186 980.138 719.953 979.784 719.501C979.13 720.019 978.445 720.509 978.16 720.713C978.098 720.757 978.055 720.788 978.035 720.803C977.971 720.85 977.9 720.886 977.83 720.922C977.652 721.012 977.477 721.1 977.431 721.361C977.368 721.726 976.914 721.761 977.005 720.787C977.085 719.937 979.051 718.574 979.8 718.065C979.809 718.014 979.824 717.96 979.845 717.905C979.845 717.905 979.728 717.068 981.079 715.691C981.082 715.649 981.086 715.608 981.091 715.567C981.472 715.173 982.019 714.719 982.733 714.205C984.173 713.216 986.386 712.721 988.539 712.462C988.574 712.483 988.61 712.506 988.645 712.531C989.318 712.455 989.982 712.405 990.61 712.371C990.461 712.612 990.316 712.903 990.294 713.194C991.588 713.115 992.738 713.113 993.513 713.118L992.509 712.641C992.509 712.641 993.021 712.275 993.702 711.686L992.559 711.149ZM1011.25 726.265C1012.11 726.913 1012.94 727.521 1013.45 727.662C1013.86 727.763 1014.53 727.9 1015.28 728.054L1015.28 728.054L1015.29 728.055L1015.72 728.142C1015.14 727.901 1014.52 727.613 1013.94 727.34C1013.09 726.945 1012.31 726.583 1011.85 726.447C1011.65 726.382 1011.45 726.32 1011.25 726.265ZM996.428 712.967L998.104 713.755C997.311 713.585 996.574 713.44 995.944 713.333C996.098 713.224 996.26 713.102 996.428 712.967Z" fill="white"/>
<path opacity="0.1" d="M1091.66 570.621C1123.43 568.566 1124.89 598.31 1124.89 598.405C1124.93 598.388 1126.86 597.39 1130.12 596.441C1130.12 596.41 1130.13 596.378 1130.13 596.347C1132.76 595.621 1136.12 594.949 1139.98 594.801C1143.85 594.624 1148.25 594.976 1152.89 596.347C1168.02 600.822 1168.59 613.539 1168.6 613.836C1168.75 613.832 1168.98 613.826 1169.28 613.819C1173.63 613.687 1198.26 613.097 1220.57 615.899C1244.51 618.706 1238.25 631.469 1237.91 632.131C1240.81 631.773 1272.3 627.85 1288.05 623.926C1290.63 623.25 1293.58 622.967 1296.67 622.991H1296.87C1313.53 623.123 1333.98 632.235 1319.87 637.097C1316.41 638.293 1294.55 639.443 1262.15 640.489C1261.79 640.501 1261.42 640.513 1261.06 640.524C1258.67 640.601 1256.23 640.677 1253.74 640.752C1253.11 640.771 1252.47 640.789 1251.83 640.808C1123.66 644.615 860.856 646.887 865.05 644.507C893.845 628.459 952.634 628.042 952.671 628.042C952.671 628.042 961.332 603.962 980.871 601.698C1000.41 599.434 1003.43 621.868 1003.43 621.868C1003.43 621.868 1007.86 613.018 1018.34 608.284C1028.79 603.562 1038.63 604.37 1038.68 604.374C1038.68 604.374 1059.83 572.473 1091.66 570.621Z" fill="white"/>
<defs>
<filter id="filter0_f_7838_38531" x="-853.479" y="-621.604" width="2093.1" height="1791" filterUnits="userSpaceOnUse" color-interpolation-filters="sRGB">
<feFlood flood-opacity="0" result="BackgroundImageFix"/>
<feBlend mode="normal" in="SourceGraphic" in2="BackgroundImageFix" result="shape"/>
<feGaussianBlur stdDeviation="175" result="effect1_foregroundBlur_7838_38531"/>
</filter>
<filter id="filter1_f_7838_38531" x="620.045" y="-583.608" width="2034.41" height="1756.77" filterUnits="userSpaceOnUse" color-interpolation-filters="sRGB">
<feFlood flood-opacity="0" result="BackgroundImageFix"/>
<feBlend mode="normal" in="SourceGraphic" in2="BackgroundImageFix" result="shape"/>
<feGaussianBlur stdDeviation="175" result="effect1_foregroundBlur_7838_38531"/>
</filter>
<filter id="filter2_f_7838_38531" x="-34" y="-72.5231" width="1986" height="1020" filterUnits="userSpaceOnUse" color-interpolation-filters="sRGB">
<feFlood flood-opacity="0" result="BackgroundImageFix"/>
<feBlend mode="normal" in="SourceGraphic" in2="BackgroundImageFix" result="shape"/>
<feGaussianBlur stdDeviation="175" result="effect1_foregroundBlur_7838_38531"/>
</filter>
<filter id="filter3_f_7838_38531" x="467.599" y="-1323.93" width="2171.11" height="2171.11" filterUnits="userSpaceOnUse" color-interpolation-filters="sRGB">
<feFlood flood-opacity="0" result="BackgroundImageFix"/>
<feBlend mode="normal" in="SourceGraphic" in2="BackgroundImageFix" result="shape"/>
<feGaussianBlur stdDeviation="126.8" result="effect1_foregroundBlur_7838_38531"/>
</filter>
<filter id="filter4_f_7838_38531" x="549.138" y="-1242.39" width="2008.03" height="2008.03" filterUnits="userSpaceOnUse" color-interpolation-filters="sRGB">
<feFlood flood-opacity="0" result="BackgroundImageFix"/>
<feBlend mode="normal" in="SourceGraphic" in2="BackgroundImageFix" result="shape"/>
<feGaussianBlur stdDeviation="126.8" result="effect1_foregroundBlur_7838_38531"/>
</filter>
<radialGradient id="paint0_radial_7838_38531" cx="0" cy="0" r="1" gradientUnits="userSpaceOnUse" gradientTransform="translate(1553.15 -238.373) rotate(-32.9205) scale(685.5)">
<stop offset="0.798077" stop-color="#BAE2FF"/>
<stop offset="1" stop-color="#59B5FF"/>
</radialGradient>
</defs>
</svg>
