<svg xmlns="http://www.w3.org/2000/svg" fill="none" viewBox="0 0 360 878">
  <g filter="url(#a)" opacity=".8">
    <path fill="#0284D8" d="M475.6-186a352.6 352.6 0 1 0-592 383.3 352.6 352.6 0 0 0 592-383.3Z"/>
  </g>
  <g filter="url(#b)" opacity=".4">
    <path fill="#B0E0FF" d="M446.6-167.2a318 318 0 1 0-534 345.7 318 318 0 0 0 534-345.7Z"/>
  </g>
  <path fill="url(#c)" d="M423.5-152.3A290.6 290.6 0 1 0-64.3 163.5a290.6 290.6 0 0 0 487.8-315.8Z"/>
  <path fill="#A0D5FF" d="M333.3 157.7A53.3 53.3 0 1 1 284.4 63a53.3 53.3 0 0 1 49 94.7Z"/>
  <path fill="#3A99E4" d="M332.5 64.2a55.7 55.7 0 0 0-69.1 76.5 55.7 55.7 0 0 1 65.8-82.3 53.7 53.7 0 0 1 29.6 26.8 53.6 53.6 0 0 0-26.3-21Z"/>
  <path fill="#A0D5FF" d="M-2 118.3a32.5 32.5 0 0 1-41.5 19.1A32 32 0 0 1-62 95.8a32.5 32.5 0 0 1 41.6-19.1 32 32 0 0 1 18.5 41.6Z"/>
  <path fill="#A0D5FF" d="M273.8 173a9.3 9.3 0 1 0-17.4-6.5 9.3 9.3 0 1 0 17.4 6.6Z"/>
  <path fill="#3A99E4" d="M269.1 162a9.5 9.5 0 0 0-11.8 13 9.5 9.5 0 0 1 11.2-14c2.4.8 4.1 2.5 5.1 4.5a9.2 9.2 0 0 0-4.5-3.6Z"/>
  <path fill="#A0D5FF" d="M18.6 125.7a9.3 9.3 0 1 0-17.4-6.5 9.3 9.3 0 1 0 17.4 6.5Z"/>
  <path fill="#3A99E4" d="M14 114.6a9.5 9.5 0 0 0-11.8 13 9.5 9.5 0 0 1 11.2-14c2.3.9 4 2.6 5 4.6a9.2 9.2 0 0 0-4.5-3.6Z"/>
  <path fill="#A0D5FF" d="M54.3 199.6a18.6 18.6 0 0 0-10.8-24.2 19 19 0 0 0-13.4 35.3 19 19 0 0 0 24.2-11.1Z"/>
  <path fill="#3A99E4" d="M44.9 177.3a19 19 0 0 0-23.6 26.1 19 19 0 0 1 22.5-28c4.6 1.7 8 5 10 9.1-2-3.2-5-5.7-8.9-7.1Z"/>
  <path fill="#A0D5FF" d="M325.2 226.8a18.6 18.6 0 0 0-10.7-24.2 19 19 0 0 0-13.5 35.3 19 19 0 0 0 24.2-11.1Z"/>
  <path fill="#3A99E4" d="M315.8 204.5a19 19 0 0 0-23.5 26.1 19 19 0 0 1 22.5-28c4.5 1.7 8 5 10 9.1-2-3.2-5.1-5.7-9-7.1Z"/>
  <path fill="#A0D5FF" d="M246 162.3a30.5 30.5 0 0 1-39 18 30 30 0 0 1-17.4-39 30.5 30.5 0 0 1 39-18 30 30 0 0 1 17.4 39Z"/>
  <path fill="#3A99E4" d="M230.8 126.3a30.7 30.7 0 0 0-38 42.2 30.7 30.7 0 0 1 36.3-45.3c7.3 2.8 13 8.1 16.2 14.7a29.4 29.4 0 0 0-14.5-11.6Z"/>
  <path fill="#A0D5FF" d="M392.3 28a30.5 30.5 0 0 1-39 18 30 30 0 0 1-17.4-39 30.5 30.5 0 0 1 39-18 30 30 0 0 1 17.4 39Z"/>
  <path fill="#3A99E4" d="M377-8a30.7 30.7 0 0 0-38 42.2 30.7 30.7 0 0 1 36.3-45.3c7.4 2.8 13 8.2 16.3 14.7A29.4 29.4 0 0 0 377-7.9Z"/>
  <path fill="#0D7CD8" d="M168.6 195a352.3 352.3 0 0 1-213.8-5 290.6 290.6 0 0 0 469-341.7c3 156.1-98.2 301-255.2 346.7Z" opacity=".1"/>
  <path fill="#0D7CD8" d="M206.7 238.5c-69 20-139.2 18.1-203-1.7A290.5 290.5 0 0 0 460.5-68.5a354.2 354.2 0 0 1-254 307h.1Z" opacity=".1"/>
  <rect width="100%" height="192" fill="url(#d)"/>
  <path fill="#fff" d="M68.9 121.8c-.5 1-5.8 7.1-8.4 10.1-.3-.3-1.2-1-2.3-1.5-1.4-.8-2.3.6-2.9 1.5-.6 1-.1 1 .6 1.2.6.1.9.7 1 1-1.3 0-4.4 0-6.6.7-2.8.8-9.5 5.5-8.7 5.8.7.3 9.9-1.8 11.4-2.5 1.2-.4 5.5-.2 7.5 0l5.8 6.5c.8-.5 2.7-1.5 3-2.5.4-1 2-5 2.6-7-2 .5-6.3 1.4-6.7.8-.4-.8 3-3.2 5.8-6.6 3-3.4 13.4-16.6 13.1-17-.3-.5-.4-.4-2.4 1.1-2 1.6-12.2 7.2-12.8 8.4Z" opacity=".4"/>
  <path fill="#fff" d="M10.7 167.7c1.2-2.8 5-5.1 7.2-6.7 2.1-1.5 4.8-1.9 9-2.3 1.6-.2 2.6-.5 3.3-.9l1-1c0 .3-.2.7-1 1a13.7 13.7 0 0 1-5.5 3.2c-2.7.6-3.5 1.2-3.6 1.4.4.6.7 2-1.2 3.3-1.9 1.2-3.5-.1-4-1l-4.3 5.2c-1.6 2.2-4 2.7-5.4 3.5a20 20 0 0 0 4.5-5.7Z" opacity=".2"/>
  <path fill="#fff" d="M-210 337.6c-3.3 1 280.7.3 291.1-1.7 10.5-2-10.3-6.2-20.8-4.7-10.4 1.5-31.9 2.8-31.9 2.8s4.2-4.7-11.7-5.8c-15.8-1.1-33.3-.8-33.3-.8s-.7-4.6-10.7-6.2c-10-1.6-17.9.7-17.9.7s-2-10.5-22.3-9.9c-20.4.6-32.7 11.8-32.7 11.8s-6.3-.3-12.9 1.3c-6.5 1.7-9 4.8-9 4.8s-2.8-8-15.1-7.1c-12.4.8-17 9.2-17 9.2s-38 0-55.8 5.6Z" opacity=".1"/>
  <path fill="#fff" d="M402.4 358.4c0 .5.4.9 1 1l.6-.2h5.6c.7 0 1-.4 1-1 0-1.4-1.3-2-4-1.6-1 .2-2 .4-2.9.8-.8.4-1.3.7-1.3 1m-23.8-14.9c0-1.8-.3-3.3-.9-4.6-1.1-2.4-3.3-3.6-6.5-3.6-2.3 0-4.5.9-6.6 2.4a9.2 9.2 0 0 0-2.8 3 7.2 7.2 0 0 0-5.2-1.8 11.2 11.2 0 0 0-5.7 1.9 13 13 0 0 0-1.7-4c-2.2-3.3-5.9-4.9-11-4.8a18 18 0 0 0-9.4 3.1c-3.5 2.3-5.3 5-5.4 8.1-.8-.3-1.7-.5-2.9-.5a8.6 8.6 0 0 0-6.5 3.4c-1.1 1.3-2 2.7-2.7 4-.8-1.5-2-2.2-3.4-2-1.5 0-2.7 1-3.7 2.8a7.8 7.8 0 0 0-1.3 4.8c-1-.2-2.5 0-4.7.8-2.2.7-3.3 1.9-3.2 3.5l21.1-.3c8.8-.2 19.7-.2 32.6 0a1158 1158 0 0 0 50.6-.3c1-1.7.5-2.8-1.2-3.4-1.8-.7-3-.9-3.5-.6l-.8.4h-.2v-.1a8 8 0 0 0-.6-2.6c-.5-1.4-1.7-2-3.4-2-1 0-2 .3-2.7.8a9.3 9.3 0 0 0-1-3c-1.1-2.3-3.3-3.4-6.3-3.4h-1.1l.1-2m38.2 15.5.2-.6c0-.6-.6-1-1.7-1-1.1-.2-1.7.2-1.7 1 0 .2 0 .4.2.5.2.3.7.5 1.5.5s1.3-.1 1.5-.4Z" opacity=".4"/>
  <defs>
    <filter id="a" width="1212.5" height="1212.5" x="-426.6" y="-600.6" color-interpolation-filters="sRGB" filterUnits="userSpaceOnUse">
      <feFlood flood-opacity="0" result="BackgroundImageFix"/>
      <feBlend in="SourceGraphic" in2="BackgroundImageFix" result="shape"/>
      <feGaussianBlur result="effect1_foregroundBlur_6171_61754" stdDeviation="126.8"/>
    </filter>
    <filter id="b" width="1143.4" height="1143.4" x="-392.1" y="-566.1" color-interpolation-filters="sRGB" filterUnits="userSpaceOnUse">
      <feFlood flood-opacity="0" result="BackgroundImageFix"/>
      <feBlend in="SourceGraphic" in2="BackgroundImageFix" result="shape"/>
      <feGaussianBlur result="effect1_foregroundBlur_6171_61754" stdDeviation="126.8"/>
    </filter>
    <radialGradient id="c" cx="0" cy="0" r="1" gradientTransform="rotate(-32.9 99.3 -301.2) scale(290.575)" gradientUnits="userSpaceOnUse">
      <stop offset=".8" stop-color="#BAE2FF"/>
      <stop offset="1" stop-color="#59B5FF"/>
    </radialGradient>
    <linearGradient id="d" x1="180" x2="180" y1="0" y2="192" gradientUnits="userSpaceOnUse">
      <stop stop-color="#227FC8" stop-opacity=".7"/>
      <stop offset="1" stop-color="#227FC8" stop-opacity="0"/>
    </linearGradient>
  </defs>
</svg>
