<svg width="360" height="878" viewBox="0 0 360 878" fill="none" xmlns="http://www.w3.org/2000/svg">
<g opacity="0.8" filter="url(#filter0_f_6171_61754)">
<path d="M475.62 -186.008C369.783 -349.48 151.464 -396.202 -12.0078 -290.364C-175.48 -184.526 -222.201 33.7926 -116.364 197.264C-10.526 360.736 207.793 407.458 371.265 301.62C534.736 195.783 581.458 -22.536 475.62 -186.008Z" fill="#0284D8"/>
</g>
<g opacity="0.4" filter="url(#filter1_f_6171_61754)">
<path d="M446.61 -167.226C351.146 -314.676 154.224 -356.818 6.77399 -261.354C-140.676 -165.889 -182.819 31.0323 -87.3541 178.482C8.11059 325.933 205.032 368.075 352.482 272.611C499.932 177.146 542.075 -19.7756 446.61 -167.226Z" fill="#B0E0FF"/>
</g>
<path d="M423.545 -152.292C336.328 -287.003 156.419 -325.505 21.7084 -238.288C-113.003 -151.071 -151.504 28.8373 -64.2874 163.548C22.9295 298.259 202.838 336.761 337.549 249.544C472.26 162.327 510.762 -17.581 423.545 -152.292Z" fill="url(#paint0_radial_6171_61754)"/>
<path d="M333.314 157.683C307.166 171.186 275.03 160.941 261.535 134.801C248.041 108.661 258.299 76.5243 284.447 63.0218C310.595 49.5194 342.731 59.7643 356.226 85.9044C369.72 112.044 359.463 144.181 333.314 157.683Z" fill="#A0D5FF"/>
<path d="M332.488 64.2211C304.13 53.6803 272.309 68.2836 261.401 96.7851C255.668 111.767 256.894 127.554 263.396 140.737C254.136 126.566 251.546 108.268 258.139 91.0434C269.059 62.5094 300.899 47.9506 329.225 58.4795C342.694 63.4858 352.921 73.3006 358.79 85.2454C352.691 75.9252 343.728 68.399 332.488 64.2211Z" fill="#3A99E4"/>
<path d="M-1.90532 118.287C-8.29356 135.059 -26.9174 143.628 -43.5028 137.427C-60.0882 131.226 -68.3546 112.602 -61.9663 95.8296C-55.5781 79.0573 -36.9543 70.4878 -20.3689 76.6891C-3.78351 82.8904 4.48291 101.514 -1.90532 118.287Z" fill="#A0D5FF"/>
<path d="M-18.1115 79.9881C-34.7457 73.8052 -53.4009 82.351 -59.806 99.0881C-63.1641 107.863 -62.4396 117.153 -58.6431 124.875C-64.067 116.585 -65.5885 105.811 -61.733 95.7361C-55.3279 78.9991 -36.6727 70.4533 -20.0385 76.6362C-12.1252 79.5776 -6.13621 85.3303 -2.68983 92.3281C-6.28342 86.8718 -11.5224 82.4373 -18.1115 79.9881Z" fill="#3A99E4"/>
<path d="M273.832 173.071C275.694 168.183 273.297 162.782 268.463 160.975C263.63 159.168 258.23 161.653 256.368 166.541C254.506 171.428 256.904 176.829 261.737 178.636C266.57 180.443 271.971 177.958 273.832 173.071Z" fill="#A0D5FF"/>
<path d="M269.115 161.946C264.27 160.146 258.857 162.625 256.991 167.5C256.021 170.035 256.236 172.751 257.339 174.98C255.752 172.571 255.326 169.442 256.445 166.518C258.311 161.643 263.724 159.163 268.568 160.964C270.862 161.816 272.613 163.507 273.616 165.513C272.561 163.933 271.065 162.634 269.127 161.914L269.115 161.946Z" fill="#3A99E4"/>
<path d="M18.6184 125.718C20.48 120.83 18.0829 115.429 13.2497 113.622C8.41641 111.815 3.01587 114.3 1.15425 119.188C-0.707366 124.075 1.68975 129.476 6.52299 131.283C11.3562 133.09 16.7568 130.605 18.6184 125.718Z" fill="#A0D5FF"/>
<path d="M13.9322 114.607C9.08731 112.806 3.67423 115.286 1.80869 120.161C0.838606 122.696 1.05375 125.412 2.15619 127.64C0.569266 125.232 0.143069 122.103 1.2624 119.178C3.12794 114.303 8.541 111.824 13.3859 113.625C15.6791 114.477 17.4303 116.167 18.4334 118.174C17.378 116.593 15.8826 115.295 13.9446 114.575L13.9322 114.607Z" fill="#3A99E4"/>
<path d="M54.2768 199.6C57.9876 189.858 53.1736 179.012 43.5393 175.41C33.905 171.807 23.0593 176.798 19.3485 186.541C15.6377 196.284 20.4517 207.129 30.086 210.732C39.7202 214.334 50.5659 209.343 54.2768 199.6Z" fill="#A0D5FF"/>
<path d="M44.8855 177.333C35.2281 173.744 24.3573 178.724 20.6386 188.441C18.686 193.543 19.0964 198.93 21.3212 203.432C18.1473 198.615 17.2949 192.358 19.5336 186.508C23.2522 176.791 34.1231 171.811 43.7805 175.401C48.367 177.105 51.8495 180.442 53.8632 184.531C51.797 181.35 48.7167 178.795 44.9054 177.378L44.8855 177.333Z" fill="#3A99E4"/>
<path d="M325.219 226.774C328.93 217.031 324.116 206.185 314.482 202.583C304.847 198.981 294.002 203.971 290.291 213.714C286.58 223.457 291.394 234.303 301.028 237.905C310.663 241.507 321.508 236.517 325.219 226.774Z" fill="#A0D5FF"/>
<path d="M315.828 204.507C306.171 200.917 295.3 205.897 291.581 215.615C289.628 220.717 290.039 226.104 292.264 230.606C289.09 225.788 288.237 219.532 290.476 213.682C294.195 203.965 305.065 198.985 314.723 202.574C319.309 204.279 322.792 207.615 324.806 211.705C322.739 208.524 319.659 205.968 315.848 204.552L315.828 204.507Z" fill="#3A99E4"/>
<path d="M245.987 162.317C239.99 178.064 222.505 186.109 206.934 180.287C191.363 174.465 183.602 156.98 189.599 141.234C195.597 125.487 213.082 117.442 228.653 123.264C244.224 129.086 251.985 146.571 245.987 162.317Z" fill="#A0D5FF"/>
<path d="M230.789 126.346C215.189 120.547 197.652 128.581 191.645 144.278C188.485 152.532 189.151 161.206 192.749 168.483C187.652 160.686 186.23 150.617 189.862 141.128C195.869 125.431 213.406 117.397 229.006 123.196C236.435 125.957 242.047 131.347 245.282 137.932C241.937 132.791 236.991 128.651 230.789 126.346Z" fill="#3A99E4"/>
<path d="M392.274 27.9919C386.277 43.7384 368.792 51.7838 353.221 45.9617C337.65 40.1397 329.889 22.6549 335.887 6.90836C341.884 -8.83817 359.369 -16.8835 374.94 -11.0615C390.511 -5.23944 398.272 12.2454 392.274 27.9919Z" fill="#A0D5FF"/>
<path d="M377.063 -7.94855C361.462 -13.7472 343.925 -5.71386 337.918 9.98306C334.759 18.2378 335.424 26.9116 339.022 34.1884C333.926 26.3918 332.503 16.3229 336.135 6.8332C342.142 -8.86372 359.679 -16.8971 375.28 -11.0984C382.709 -8.33714 388.32 -2.94759 391.556 3.6376C388.21 -1.50357 383.264 -5.64349 377.063 -7.94855Z" fill="#3A99E4"/>
<path opacity="0.1" d="M168.575 195.02C95.7054 216.21 21.507 212.883 -45.1756 189.929C26.3726 277.014 145.463 318.017 260.544 284.56C414.662 239.773 503.276 78.5272 458.457 -75.5813C450.435 -103.193 438.608 -128.659 423.843 -151.67C426.857 4.40336 325.632 149.33 168.565 194.988L168.575 195.02Z" fill="#0D7CD8"/>
<path opacity="0.1" d="M206.703 238.462C137.69 258.512 67.5049 256.606 3.63155 236.838C74.3974 290.647 168.834 311.422 260.742 284.674C412.518 240.544 500.678 83.4843 460.51 -68.4761C447.299 71.9234 350.327 196.672 206.694 238.43L206.703 238.462Z" fill="#0D7CD8"/>
<rect width="360" height="192" fill="url(#paint1_linear_6171_61754)"/>
<path opacity="0.4" d="M68.8748 121.832C68.3869 122.808 63.0811 128.947 60.4892 131.895C60.1842 131.641 59.2999 130.98 58.2022 130.37C56.83 129.608 55.9152 130.98 55.3053 131.895C54.6955 132.81 55.1529 132.962 55.9152 133.115C56.525 133.237 56.7792 133.775 56.83 134.03C55.5594 134.03 52.4695 134.182 50.274 134.792C47.5296 135.554 40.8211 140.281 41.5834 140.586C42.3457 140.89 51.4937 138.756 53.0183 138.146C54.2381 137.658 58.5071 137.943 60.4892 138.146L66.2829 144.55C67.1469 144.143 68.9663 143.086 69.3322 142.11C69.6981 141.134 71.2126 137.028 71.9241 135.097C69.8404 135.605 65.5815 136.469 65.2156 135.859C64.7582 135.097 68.1125 132.657 71.0093 129.303C73.9062 125.949 84.4263 112.684 84.1214 112.227C83.8165 111.769 83.664 111.922 81.6819 113.447C79.6999 114.971 69.4847 120.613 68.8748 121.832Z" fill="white"/>
<path opacity="0.2" d="M10.6789 167.726C11.9266 164.919 15.6697 162.579 17.8532 161.02C20.0367 159.46 22.6881 159.148 26.8991 158.68C28.4941 158.503 29.546 158.179 30.2171 157.837C30.6532 157.447 31.0114 157.089 31.2661 156.809C31.2387 157.055 30.9634 157.457 30.2171 157.837C28.8727 159.04 26.7882 160.549 24.7156 161.02C21.9706 161.644 21.1804 162.215 21.1284 162.423C21.4924 162.995 21.7523 164.451 19.8807 165.699C18.0092 166.946 16.3976 165.595 15.8257 164.763C14.7339 166.062 12.3633 168.911 11.6147 169.91C9.97707 172.093 7.66151 172.628 6.15282 173.363C7.35616 172.294 9.72307 169.877 10.6789 167.726Z" fill="white"/>
<path opacity="0.1" d="M-209.971 337.561C-213.316 338.598 70.6814 337.891 81.1404 335.912C91.5995 333.933 70.7756 329.74 60.3165 331.201C49.8575 332.661 28.421 333.981 28.421 333.981C28.421 333.981 32.567 329.316 16.737 328.186C0.907043 327.055 -16.619 327.385 -16.619 327.385C-16.619 327.385 -17.3257 322.815 -27.3136 321.213C-37.3016 319.611 -45.1695 321.873 -45.1695 321.873C-45.1695 321.873 -47.1953 311.413 -67.5481 312.026C-87.9009 312.638 -100.15 323.757 -100.15 323.757C-100.15 323.757 -106.511 323.474 -113.059 325.123C-119.608 326.772 -122.058 329.882 -122.058 329.882C-122.058 329.882 -124.885 321.967 -137.228 322.768C-149.572 323.569 -154.236 331.955 -154.236 331.955C-154.236 331.955 -192.162 332.049 -209.971 337.561Z" fill="white"/>
<path opacity="0.4" d="M402.432 358.389C402.432 358.935 402.765 359.265 403.43 359.378L403.997 359.238H409.582C410.324 359.108 410.695 358.757 410.695 358.195C410.695 356.763 409.315 356.244 406.561 356.638C405.514 356.79 404.565 357.044 403.708 357.4C402.852 357.757 402.427 358.087 402.427 358.389M378.625 343.532C378.625 341.705 378.33 340.17 377.741 338.927C376.563 336.457 374.371 335.252 371.153 335.311C368.873 335.371 366.686 336.16 364.597 337.684C363.359 338.57 362.437 339.559 361.832 340.651C360.539 339.446 358.783 338.873 356.558 338.927C354.998 338.943 353.269 339.473 351.371 340.511C351.218 340.603 351.076 340.7 350.945 340.792C350.602 339.419 350.034 338.106 349.233 336.863C347.007 333.528 343.342 331.912 338.226 332.004C335.014 332.079 331.867 333.117 328.791 335.111C325.256 337.408 323.467 340.122 323.429 343.245C322.649 342.889 321.678 342.721 320.522 342.737C318.03 342.791 315.853 343.916 313.994 346.099C312.87 347.396 311.97 348.753 311.283 350.169C310.465 348.645 309.336 347.926 307.89 348.023C306.445 348.099 305.202 349.039 304.154 350.85C303.167 352.525 302.758 354.136 302.927 355.682C301.956 355.492 300.38 355.757 298.193 356.471C296.006 357.184 294.942 358.362 295.002 360C300.249 359.962 307.28 359.849 316.099 359.66C324.896 359.492 335.772 359.481 348.714 359.632C361.641 359.8 371.856 359.832 379.361 359.719C386.866 359.605 393.509 359.503 399.29 359.405C400.24 357.73 399.841 356.579 398.091 355.957C396.34 355.32 395.184 355.13 394.611 355.395C394.076 355.638 393.804 355.763 393.782 355.763C393.705 355.763 393.651 355.752 393.613 355.736V355.676C393.536 354.698 393.346 353.849 393.04 353.136C392.467 351.725 391.338 351.039 389.648 351.071C388.524 351.088 387.624 351.38 386.937 351.947C386.768 350.763 386.441 349.726 385.966 348.839C384.75 346.58 382.623 345.478 379.579 345.537C379.198 345.515 378.827 345.537 378.467 345.591C378.559 345.007 378.608 344.321 378.608 343.527M416.798 359.011C416.929 358.881 417 358.67 417 358.389C417 357.768 416.438 357.411 415.32 357.314C414.197 357.222 413.64 357.579 413.64 358.389C413.64 358.616 413.689 358.795 413.782 358.924C414.028 359.227 414.54 359.378 415.32 359.378C416.1 359.378 416.558 359.254 416.804 359.011H416.798Z" fill="white"/>
<defs>
<filter id="filter0_f_6171_61754" x="-426.626" y="-600.626" width="1212.51" height="1212.51" filterUnits="userSpaceOnUse" color-interpolation-filters="sRGB">
<feFlood flood-opacity="0" result="BackgroundImageFix"/>
<feBlend mode="normal" in="SourceGraphic" in2="BackgroundImageFix" result="shape"/>
<feGaussianBlur stdDeviation="126.8" result="effect1_foregroundBlur_6171_61754"/>
</filter>
<filter id="filter1_f_6171_61754" x="-392.063" y="-566.063" width="1143.38" height="1143.38" filterUnits="userSpaceOnUse" color-interpolation-filters="sRGB">
<feFlood flood-opacity="0" result="BackgroundImageFix"/>
<feBlend mode="normal" in="SourceGraphic" in2="BackgroundImageFix" result="shape"/>
<feGaussianBlur stdDeviation="126.8" result="effect1_foregroundBlur_6171_61754"/>
</filter>
<radialGradient id="paint0_radial_6171_61754" cx="0" cy="0" r="1" gradientUnits="userSpaceOnUse" gradientTransform="translate(179.629 5.62817) rotate(-32.9205) scale(290.575)">
<stop offset="0.798077" stop-color="#BAE2FF"/>
<stop offset="1" stop-color="#59B5FF"/>
</radialGradient>
<linearGradient id="paint1_linear_6171_61754" x1="180" y1="0" x2="180" y2="192" gradientUnits="userSpaceOnUse">
<stop stop-color="#227FC8" stop-opacity="0.74"/>
<stop offset="1" stop-color="#227FC8" stop-opacity="0"/>
</linearGradient>
</defs>
</svg>
