<svg width="640" height="641" viewBox="0 0 640 641" fill="none" xmlns="http://www.w3.org/2000/svg">
<path d="M613.645 475.864V475.87C613.547 476.57 613.422 477.27 613.265 477.963C612.928 479.511 612.45 481.031 611.848 482.522V482.534C611.848 482.534 611.842 482.545 611.842 482.551C611.842 482.551 611.84 482.555 611.835 482.563C610.608 485.568 608.863 488.44 606.614 491.106C606.529 491.204 606.408 491.26 606.281 491.26C606.183 491.26 606.085 491.224 606.006 491.156C605.822 491.002 605.799 490.731 605.954 490.548C609.701 486.104 612.031 481.06 612.782 475.825C612.851 475.354 612.903 474.879 612.942 474.402L612.965 474.111V474.098C613.001 473.755 613.017 473.405 613.028 473.055C613.034 472.82 613.234 472.626 613.47 472.643C613.482 472.643 613.492 472.643 613.503 472.649C613.543 473.022 613.572 473.394 613.595 473.767C613.64 474.467 613.653 475.16 613.64 475.866L613.645 475.864Z" fill="#1E76E2"/>
<path d="M606.617 491.104C596.977 502.531 579.223 509.003 560.188 509.003C553.039 509.003 545.71 508.091 538.559 506.181C525.826 502.787 514.74 496.504 507.33 488.495C502.224 482.974 499.016 476.793 497.914 470.521V470.515C497.632 468.926 497.489 467.333 497.484 465.74V465.733C497.484 465.05 497.507 464.374 497.553 463.693C497.553 463.686 497.559 463.676 497.559 463.67V463.657C497.599 463.078 497.664 462.493 497.743 461.914C497.749 461.868 497.766 461.823 497.782 461.783C497.795 461.754 497.818 461.727 497.835 461.702L497.851 461.685C497.88 461.65 497.907 461.627 497.949 461.604C497.985 461.581 498.024 461.564 498.064 461.552C498.116 461.539 498.172 461.539 498.231 461.546C498.466 461.581 498.627 461.798 498.597 462.033C498.522 462.579 498.466 463.128 498.424 463.672C498.418 463.678 498.418 463.684 498.418 463.688V463.701C497.105 481.342 513.75 498.674 538.776 505.348C564.65 512.252 592.898 506.031 605.954 490.544C606.108 490.367 606.379 490.338 606.563 490.492C606.74 490.646 606.769 490.917 606.615 491.1L606.617 491.104Z" fill="#1E76E2"/>
<path d="M613.601 473.765C613.578 473.392 613.549 473.019 613.51 472.647C612.638 463.983 607.742 455.562 599.33 448.463C589.128 439.852 574.978 434.217 559.483 432.599C529.743 429.498 503.548 442.236 498.066 461.551C497.866 462.245 497.699 462.944 497.562 463.654V463.667C497.562 463.667 497.555 463.684 497.555 463.69C497.441 464.24 497.349 464.796 497.268 465.364V465.381C497.228 465.656 497.193 465.937 497.163 466.218C496.05 476.836 501.088 487.455 511.337 496.106C521.539 504.717 535.689 510.354 551.184 511.97C554.185 512.28 557.151 512.434 560.06 512.434C574.165 512.434 587.008 508.873 596.579 502.832C606.156 496.789 612.463 488.269 613.501 478.35C613.53 478.092 613.553 477.84 613.57 477.582L613.587 477.347C613.622 476.853 613.639 476.36 613.645 475.868V475.862C613.658 475.156 613.645 474.462 613.599 473.763L613.601 473.765ZM611.85 482.532C611.85 482.532 611.844 482.542 611.844 482.549C611.844 482.549 611.842 482.553 611.838 482.561C606.621 501.607 580.714 514.192 551.277 511.114C535.95 509.521 521.966 503.952 511.895 495.452C503.225 488.142 498.377 479.427 497.916 470.522V470.516C497.835 469.117 497.87 467.713 498.02 466.308C498.049 466.02 498.083 465.739 498.124 465.454C498.124 465.441 498.131 465.437 498.131 465.425L498.17 465.15C498.239 464.656 498.32 464.188 498.422 463.704V463.692C498.422 463.692 498.422 463.679 498.429 463.675C502.147 445.672 524.096 432.996 550.59 432.996C553.476 432.996 556.413 433.146 559.391 433.461C574.713 435.054 588.703 440.622 598.774 449.125C608.007 456.922 612.918 466.32 612.786 475.824C612.786 476.283 612.77 476.736 612.734 477.201L612.711 477.522V477.567C612.695 477.796 612.672 478.032 612.649 478.267C612.494 479.712 612.224 481.139 611.85 482.522V482.534V482.532Z" fill="#1E76E2"/>
<path d="M618.034 470.646V470.64C614.63 450.177 590.552 432.41 559.83 429.205C529.194 426.01 502.034 438.343 494.374 457.556L494.368 457.572C493.496 459.763 492.875 462.043 492.538 464.401L492.521 464.509C492.515 464.532 492.515 464.549 492.515 464.571C492.463 464.905 492.423 465.242 492.388 465.575C491.189 477.064 496.633 488.549 507.719 497.912C518.766 507.235 534.081 513.328 550.853 515.077C554.101 515.415 557.308 515.581 560.46 515.581C590.982 515.581 616.047 500.165 618.29 478.711C618.319 478.436 618.342 478.155 618.359 477.88C618.365 477.858 618.369 477.828 618.369 477.799C618.546 475.392 618.427 473.001 618.031 470.644L618.034 470.646ZM550.941 514.226C534.34 512.495 519.191 506.469 508.278 497.256C497.415 488.082 492.073 476.862 493.244 465.665C493.278 465.321 493.325 464.978 493.371 464.632C496.258 444.153 520.617 429.561 550.203 429.561C553.329 429.561 556.514 429.721 559.741 430.061C593.981 433.632 619.866 455.419 617.44 478.622C615.011 501.825 585.185 517.797 550.945 514.226H550.941Z" fill="#1E76E2"/>
<path d="M611.838 482.56C606.621 501.606 580.714 514.191 551.277 511.113C535.95 509.52 521.966 503.951 511.895 495.451C503.225 488.141 498.377 479.426 497.916 470.521C499.019 476.794 502.226 482.975 507.333 488.495C514.74 496.504 525.826 502.789 538.561 506.182C545.71 508.091 553.039 509.003 560.19 509.003C579.223 509.003 596.977 502.531 606.619 491.105C608.868 488.439 610.612 485.565 611.84 482.562L611.838 482.56Z" fill="#1E76E2"/>
<path d="M598.772 449.123C588.7 440.621 574.711 435.054 559.389 433.459C556.411 433.145 553.474 432.995 550.587 432.995C524.094 432.995 502.145 445.671 498.426 463.674C498.42 463.68 498.42 463.686 498.42 463.69V463.703C497.107 481.343 513.752 498.676 538.778 505.35C564.652 512.253 592.9 506.033 605.956 490.546C609.704 486.102 612.034 481.058 612.784 475.823C612.915 466.316 608.005 456.92 598.772 449.123Z" fill="#EDF8FF"/>
<path d="M619.136 467.372V467.384C619.13 467.459 619.123 467.538 619.119 467.62C619.096 467.878 619.073 468.142 619.044 468.405C619.021 468.623 618.838 468.788 618.619 468.788H618.573C618.377 468.765 618.236 468.615 618.194 468.438V468.432C618.188 468.392 618.181 468.35 618.188 468.311C618.217 468.059 618.24 467.801 618.256 467.542C619.438 452.819 609.15 437.969 591.217 428.619C572.907 419.079 549.18 416.601 529.289 422.157C509.991 427.547 496.914 439.775 494.836 454.252C494.836 454.269 494.83 454.288 494.83 454.304L494.772 454.717C494.743 454.946 494.713 455.181 494.69 455.416C494.684 455.462 494.674 455.508 494.651 455.554C494.582 455.714 494.409 455.822 494.222 455.799C493.986 455.777 493.815 455.564 493.838 455.329C493.878 454.927 493.93 454.527 493.988 454.131C493.988 454.119 493.994 454.115 493.994 454.108C496.122 439.3 509.437 426.807 529.06 421.326C549.15 415.718 573.117 418.219 591.613 427.857C609.757 437.318 620.214 452.372 619.134 467.372H619.136Z" fill="#1E76E2"/>
<path d="M494.84 454.255C494.84 454.272 494.833 454.291 494.833 454.307L494.794 454.599L494.777 454.72L494.669 455.459L494.656 455.557L494.65 455.58L494.529 456.434L494.375 457.558L494.369 457.575L493.37 464.632C493.341 464.851 493.158 465.005 492.945 465.005C492.922 465.005 492.905 465.005 492.882 464.999C492.67 464.97 492.516 464.786 492.516 464.574C492.516 464.551 492.516 464.534 492.522 464.511L492.539 464.403L493.668 456.388L493.789 455.534L493.806 455.413L493.927 454.559L493.979 454.187C493.979 454.17 493.985 454.153 493.991 454.135C493.991 454.122 493.998 454.118 493.998 454.112C494.066 453.916 494.262 453.791 494.469 453.824C494.687 453.853 494.842 454.037 494.842 454.253L494.84 454.255Z" fill="#1E76E2"/>
<path d="M618.258 467.545C618.241 467.803 618.218 468.061 618.189 468.313C618.183 468.353 618.189 468.394 618.195 468.434V468.44L618.035 470.641C614.631 450.179 590.554 432.412 559.831 429.207C529.195 426.012 502.035 438.344 494.375 457.557L494.656 455.556C494.679 455.51 494.692 455.464 494.696 455.419C494.719 455.183 494.748 454.948 494.777 454.719L494.836 454.307C494.836 454.29 494.842 454.273 494.842 454.255C496.92 439.777 509.997 427.549 529.295 422.16C549.183 416.604 572.912 419.082 591.223 428.621C609.156 437.972 619.444 452.822 618.262 467.545H618.258Z" fill="#1E76E2"/>
<path d="M619.136 467.372V467.412L619.119 467.618L618.373 477.801C618.373 477.83 618.367 477.857 618.363 477.882C618.311 478.065 618.144 478.203 617.95 478.203C617.938 478.203 617.927 478.197 617.915 478.197C617.679 478.18 617.502 477.974 617.519 477.739L618.036 470.646V470.639L618.196 468.438V468.432L618.259 467.543L618.275 467.347C618.292 467.112 618.505 466.945 618.74 466.951C618.959 466.968 619.13 467.151 619.136 467.37V467.372Z" fill="#1E76E2"/>
<path d="M528.088 562.793V562.8C528.088 562.965 528.006 563.116 527.854 563.203C527.735 563.272 527.595 563.286 527.476 563.254C527.368 563.215 527.274 563.146 527.21 563.038C527.192 563.006 527.171 562.981 527.153 562.949C522.928 556.09 503.694 555.327 483.248 561.239C462.815 567.145 446.895 578.046 446.89 586.129V586.255C446.89 586.399 446.826 586.532 446.72 586.608C446.638 586.683 446.537 586.727 446.425 586.727H446.418C446.285 586.727 446.172 586.676 446.083 586.587C446.083 586.587 446.071 586.58 446.071 586.573C446.032 586.523 446.003 586.465 445.977 586.408C445.97 586.39 445.964 586.369 445.952 586.344V586.33C445.945 586.305 445.945 586.28 445.945 586.255V586.241C445.931 585.666 445.996 585.079 446.129 584.488V584.481C446.136 584.444 446.147 584.412 446.154 584.38C448.081 576.059 463.228 566.033 482.987 560.323C502.746 554.612 520.854 555.029 526.861 561.054L526.937 561.129C527.366 561.572 527.733 562.044 528.029 562.543C528.072 562.619 528.093 562.701 528.093 562.784L528.088 562.793Z" fill="#1E76E2"/>
<path d="M446.217 584.661L446.552 585.809C446.628 585.827 446.692 585.866 446.747 585.916C446.527 585.52 446.343 585.103 446.217 584.661ZM446.217 584.661L446.552 585.809C446.628 585.827 446.692 585.866 446.747 585.916C446.527 585.52 446.343 585.103 446.217 584.661ZM446.217 584.661L446.552 585.809C446.628 585.827 446.692 585.866 446.747 585.916C446.527 585.52 446.343 585.103 446.217 584.661ZM446.217 584.661L446.552 585.809C446.628 585.827 446.692 585.866 446.747 585.916C446.527 585.52 446.343 585.103 446.217 584.661ZM446.217 584.661L446.552 585.809C446.628 585.827 446.692 585.866 446.747 585.916C446.527 585.52 446.343 585.103 446.217 584.661ZM446.217 584.661L446.552 585.809C446.628 585.827 446.692 585.866 446.747 585.916C446.527 585.52 446.343 585.103 446.217 584.661ZM446.217 584.661L446.552 585.809C446.628 585.827 446.692 585.866 446.747 585.916C446.527 585.52 446.343 585.103 446.217 584.661ZM446.217 584.661L446.552 585.809C446.628 585.827 446.692 585.866 446.747 585.916C446.527 585.52 446.343 585.103 446.217 584.661ZM446.217 584.661L446.552 585.809C446.628 585.827 446.692 585.866 446.747 585.916C446.527 585.52 446.343 585.103 446.217 584.661ZM527.853 561.084C527.853 561.084 527.853 561.078 527.847 561.071C527.847 561.052 527.84 561.032 527.835 561.013C526.603 556.767 521.103 554.074 512.346 553.424C503.745 552.793 492.986 554.187 482.043 557.354C459.298 563.947 442.823 576.305 445.311 584.913V584.926C445.463 585.438 445.671 585.916 445.949 586.377C445.949 586.391 445.96 586.402 445.974 586.416C445.999 586.473 446.031 586.531 446.068 586.581C446.068 586.588 446.08 586.595 446.08 586.595C446.155 586.721 446.238 586.84 446.332 586.961C446.559 587.282 446.825 587.592 447.121 587.883C450.265 591.006 456.777 592.626 465.13 592.626C472.662 592.626 481.692 591.309 491.103 588.582C511.713 582.607 527.172 571.901 528.051 563.541C528.076 563.296 528.09 563.048 528.09 562.803V562.796C528.09 562.21 528.014 561.641 527.856 561.087L527.853 561.084ZM490.837 587.672C470.018 593.703 451.155 592.908 446.887 586.139V586.132C446.873 586.118 446.862 586.1 446.855 586.081C446.823 586.038 446.791 585.988 446.765 585.937L446.747 585.919C446.527 585.522 446.343 585.105 446.217 584.663C446.192 584.574 446.167 584.486 446.148 584.393C444.229 576.299 460.3 564.646 482.305 558.273C491.436 555.624 500.433 554.221 508.112 554.221C509.553 554.221 510.936 554.271 512.273 554.372C520.445 554.973 525.61 557.349 526.853 561.066C526.879 561.135 526.904 561.21 526.922 561.282C527.081 561.825 527.156 562.379 527.149 562.954C527.085 570.941 511.603 581.654 490.835 587.674L490.837 587.672ZM446.217 584.661L446.552 585.809C446.628 585.827 446.692 585.866 446.747 585.916C446.527 585.52 446.343 585.103 446.217 584.661ZM446.217 584.661L446.552 585.809C446.628 585.827 446.692 585.866 446.747 585.916C446.527 585.52 446.343 585.103 446.217 584.661ZM446.217 584.661L446.552 585.809C446.628 585.827 446.692 585.866 446.747 585.916C446.527 585.52 446.343 585.103 446.217 584.661ZM446.217 584.661L446.552 585.809C446.628 585.827 446.692 585.866 446.747 585.916C446.527 585.52 446.343 585.103 446.217 584.661ZM446.217 584.661L446.552 585.809C446.628 585.827 446.692 585.866 446.747 585.916C446.527 585.52 446.343 585.103 446.217 584.661ZM446.217 584.661L446.552 585.809C446.628 585.827 446.692 585.866 446.747 585.916C446.527 585.52 446.343 585.103 446.217 584.661ZM446.217 584.661L446.552 585.809C446.628 585.827 446.692 585.866 446.747 585.916C446.527 585.52 446.343 585.103 446.217 584.661ZM446.217 584.661L446.552 585.809C446.628 585.827 446.692 585.866 446.747 585.916C446.527 585.52 446.343 585.103 446.217 584.661Z" fill="#1E76E2"/>
<path d="M531.257 560.215L531.243 560.171C531.236 560.146 531.229 560.114 531.224 560.089C528.523 550.789 506.3 549.029 481.687 556.158C457.072 563.288 439.246 576.65 441.937 585.949V585.963C442.278 587.125 442.921 588.172 443.831 589.094C447.21 592.501 454.269 594.273 463.357 594.273C471.508 594.273 481.29 592.847 491.476 589.893C503.323 586.46 513.974 581.515 521.47 575.956C527.096 571.785 530.461 567.621 531.296 563.881C531.58 562.607 531.573 561.376 531.257 560.215ZM520.899 575.199C513.493 580.688 502.947 585.585 491.208 588.986C467.1 595.971 445.402 594.493 442.845 585.7C440.294 576.898 457.836 564.053 481.944 557.068C492.192 554.096 502.006 552.659 510.093 552.659C515.568 552.659 520.254 553.314 523.759 554.609C527.256 555.902 529.58 557.827 530.314 560.357C530.321 560.382 530.328 560.4 530.332 560.425C531.481 564.589 528.142 569.839 520.899 575.202V575.199Z" fill="#1E76E2"/>
<path d="M530.334 560.423C530.327 560.398 530.32 560.379 530.315 560.354C529.584 557.824 527.258 555.899 523.76 554.607C520.256 553.314 515.57 552.657 510.095 552.657C502.005 552.657 492.193 554.096 481.946 557.066C457.837 564.051 440.294 576.895 442.846 585.697C445.404 594.493 467.101 595.968 491.209 588.984C502.948 585.583 513.494 580.688 520.9 575.197C528.143 569.835 531.483 564.585 530.334 560.421V560.423ZM528.086 562.802C528.086 563.047 528.072 563.294 528.047 563.54C527.169 571.899 511.712 582.606 491.099 588.58C481.691 591.305 472.661 592.625 465.126 592.625C456.773 592.625 450.262 591.002 447.117 587.881C446.821 587.59 446.555 587.281 446.328 586.96C446.234 586.841 446.151 586.719 446.076 586.593C446.076 586.593 446.064 586.587 446.064 586.58C446.025 586.529 445.996 586.472 445.97 586.415C445.957 586.401 445.945 586.389 445.945 586.376C445.668 585.915 445.459 585.436 445.307 584.925V584.911C442.819 576.306 459.294 563.945 482.04 557.352C492.982 554.185 503.742 552.79 512.343 553.422C521.102 554.073 526.602 556.766 527.831 561.012C527.838 561.03 527.843 561.051 527.843 561.069C527.843 561.069 527.845 561.074 527.85 561.083C528.008 561.638 528.084 562.206 528.084 562.793V562.799L528.086 562.802Z" fill="#C9EBFF"/>
<path d="M526.855 561.066C520.85 555.042 502.74 554.625 482.981 560.335C463.221 566.046 448.074 576.07 446.148 584.393C444.228 576.299 460.299 564.646 482.304 558.273C491.435 555.624 500.433 554.221 508.112 554.221C509.552 554.221 510.935 554.272 512.272 554.372C520.445 554.973 525.61 557.349 526.853 561.066H526.855Z" fill="#1E76E2"/>
<path d="M483.247 561.244C462.813 567.149 446.893 578.051 446.889 586.133V586.14C451.157 592.91 470.02 593.705 490.839 587.673C511.607 581.655 527.092 570.942 527.153 562.953C522.929 556.095 503.694 555.332 483.249 561.244H483.247Z" fill="#C9EBFF"/>
<path d="M524.024 585.488C516.535 591.059 505.902 596.011 494.081 599.425C484.218 602.276 474.5 603.784 466.163 603.784C464.502 603.784 462.899 603.72 461.358 603.601C451.982 602.87 446.057 599.941 444.674 595.36C444.667 595.335 444.656 595.309 444.649 595.284C444.573 595.032 444.718 594.766 444.97 594.698C445.216 594.622 445.482 594.766 445.557 595.018C448.14 603.896 469.787 605.459 493.813 598.513C517.845 591.567 535.389 578.665 532.919 569.756C532.843 569.504 532.994 569.245 533.246 569.176C533.499 569.107 533.758 569.251 533.827 569.504C535.116 574.146 531.629 579.818 524.019 585.485L524.024 585.488Z" fill="#1E76E2"/>
<path d="M533.505 570.093C533.461 570.1 533.415 570.106 533.379 570.106C533.17 570.106 532.982 569.967 532.925 569.76L531.296 563.88L530.337 560.422C530.269 560.17 530.413 559.911 530.665 559.842C530.911 559.774 531.177 559.918 531.246 560.17L531.259 560.214L533.835 569.506C533.904 569.758 533.759 570.017 533.507 570.093H533.505Z" fill="#1E76E2"/>
<path d="M493.817 598.517C469.789 605.463 448.144 603.897 445.561 595.022L445.511 594.839C445.479 594.719 445.454 594.593 445.428 594.472L445.396 594.282C445.383 594.188 445.339 594.105 445.277 594.041L443.832 589.089C447.211 592.497 454.27 594.268 463.358 594.268C471.509 594.268 481.291 592.843 491.477 589.889C503.324 586.456 513.975 581.511 521.471 575.951C527.097 571.78 530.462 567.616 531.296 563.876L532.925 569.757C535.393 578.664 517.851 591.568 493.819 598.514L493.817 598.517Z" fill="#1E76E2"/>
<path d="M445.24 595.609C445.197 595.62 445.151 595.627 445.107 595.627C445.057 595.627 445.006 595.62 444.956 595.602C444.862 595.57 444.779 595.508 444.715 595.426C444.701 595.407 444.69 595.382 444.676 595.361C444.669 595.336 444.658 595.311 444.651 595.286L441.935 585.961V585.947C441.871 585.702 442.018 585.443 442.256 585.372C442.508 585.297 442.774 585.441 442.843 585.693L443.83 589.087L445.275 594.039L445.508 594.834L445.559 595.018C445.628 595.27 445.49 595.529 445.238 595.604L445.24 595.609Z" fill="#1E76E2"/>
<path d="M118.195 79.814C118.195 79.8935 118.195 79.973 118.188 80.0453C118.195 80.2235 118.188 80.409 118.181 80.5897V80.5969C118.181 80.7294 118.181 80.8691 118.174 81.0016V81.0281C118.174 81.1076 118.154 81.1799 118.113 81.2473V81.2545C118.026 81.4063 117.858 81.5075 117.659 81.5123C117.385 81.4979 117.172 81.2738 117.172 81.0088V80.9944C117.184 80.6764 117.191 80.3584 117.184 80.0404C117.191 80.0212 117.192 79.9947 117.192 79.973C117.192 79.92 117.199 79.8742 117.192 79.8212C117.192 66.471 109.267 54.2674 96.2704 47.7681C82.8782 41.0641 66.5836 41.6591 53.7468 49.3195C41.6761 56.5294 34.7752 68.7306 35.3208 81.6111C35.3208 81.6376 35.328 81.6713 35.328 81.6978V81.7387C35.328 81.852 35.3353 81.9652 35.3426 82.0832L35.362 82.3891V82.4156C35.3959 82.9336 35.442 83.4563 35.5026 83.9814C35.5293 84.2537 35.3353 84.4994 35.0613 84.5259C35.0419 84.5331 35.0201 84.5331 35.0007 84.5331C34.8601 84.5331 34.7267 84.4729 34.6346 84.3669C34.5667 84.2946 34.5206 84.2007 34.5085 84.0874C34.4478 83.5695 34.4018 83.0588 34.3751 82.5409C34.3678 82.5144 34.3606 82.4807 34.3606 82.447L34.3411 82.129C34.3411 82.0495 34.3339 81.97 34.3339 81.8977C34.3339 81.8905 34.3266 81.8833 34.3266 81.8785V81.8592C34.3121 81.5412 34.2999 81.2232 34.2926 80.9101V80.8956C34.0914 71.2455 37.9517 62.0073 44.9593 54.925C45.0466 54.8311 45.1339 54.7323 45.2333 54.6408C47.5708 52.3258 50.2478 50.2445 53.2303 48.4667C66.3557 40.6353 83.0165 40.0234 96.7238 46.8816C100.288 48.6666 103.487 50.8732 106.251 53.4074L106.285 53.4411C106.326 53.4749 106.358 53.5134 106.399 53.5471C106.418 53.5616 106.433 53.5736 106.452 53.5929C113.683 60.3041 117.933 69.2918 118.174 78.9203V78.9275C118.188 79.2262 118.193 79.5177 118.193 79.8164L118.195 79.814Z" fill="#1E76E2"/>
<path d="M118.212 77.5329C117.933 67.4058 113.292 58.0014 105.15 51.0516C97.0171 44.1067 86.3698 40.4451 75.177 40.7583C63.972 41.057 53.5478 45.2823 45.803 52.6487C38.0509 60.0297 33.9337 69.6726 34.2125 79.7997C34.2271 80.2189 34.2392 80.6284 34.2731 81.0475V81.0813L34.3119 81.6907L34.3265 81.8569V81.8762C34.3265 81.8762 34.3337 81.8907 34.3337 81.8955C34.3459 82.1364 34.3725 82.3749 34.3992 82.6109V82.6254C34.4647 83.2108 34.5447 83.7889 34.632 84.3646C35.1267 87.4312 36.0311 90.4062 37.3187 93.2319C37.4763 93.5788 37.6387 93.9208 37.8085 94.2629C40.0199 98.7411 43.2061 102.819 47.2676 106.283C50.609 109.136 54.3795 111.434 58.4362 113.127C58.4362 113.127 58.4362 113.13 58.4386 113.13C58.7684 113.269 59.103 113.404 59.4376 113.532C64.5976 115.538 70.194 116.589 75.9602 116.589C76.3869 116.589 76.8137 116.584 77.2405 116.577C88.443 116.271 98.8696 112.046 106.614 104.677C113.144 98.4641 117.094 90.6447 118.011 82.2809C118.05 81.9364 118.084 81.5968 118.11 81.2523V81.2475C118.125 81.1126 118.137 80.9825 118.144 80.8476C118.152 80.7874 118.152 80.7344 118.152 80.6693V80.6621C118.171 80.4574 118.176 80.2526 118.186 80.0478C118.19 79.9732 118.19 79.8937 118.19 79.8166C118.195 79.778 118.198 79.7443 118.203 79.7106V79.6118L118.21 79.3974L118.217 79.1276V79.0939C118.222 78.8867 118.222 78.6892 118.222 78.4844C118.222 78.1641 118.217 77.8533 118.207 77.5353L118.212 77.5329ZM105.923 103.961C98.3677 111.157 88.1715 115.283 77.2187 115.582C70.9991 115.755 64.954 114.674 59.44 112.465C59.103 112.335 58.7684 112.195 58.4386 112.053C54.622 110.412 51.0794 108.225 47.9247 105.529C44.1202 102.282 41.1013 98.4906 38.9651 94.3352C38.9651 94.3352 38.9627 94.3352 38.9651 94.3327C38.7881 93.9955 38.6208 93.6534 38.4583 93.3138C36.7343 89.6739 35.6722 85.7787 35.3279 81.7389V81.7004C35.3279 81.6739 35.3206 81.6401 35.3206 81.6136C35.2673 81.0042 35.2357 80.3947 35.2163 79.7756C34.9593 70.6289 38.4074 61.8846 44.9616 54.9252C45.0489 54.8312 45.1362 54.7349 45.238 54.6409C45.6381 54.2097 46.0576 53.7858 46.4989 53.3738C54.0619 46.1712 64.2557 42.0471 75.2036 41.7532C75.6256 41.7387 76.0451 41.7339 76.4597 41.7339C86.9494 41.7339 96.8619 45.2895 104.498 51.8056C105.099 52.3235 105.693 52.8535 106.253 53.4051L106.287 53.4389C106.328 53.4726 106.362 53.5135 106.401 53.5449C106.42 53.5593 106.435 53.569 106.457 53.5906C109.5 56.556 111.944 59.9116 113.734 63.5323C115.884 67.89 117.077 72.6356 117.218 77.557C117.23 78.0773 117.23 78.5928 117.223 79.1011L117.218 79.3685L117.213 79.5925C117.208 79.6672 117.201 79.7395 117.196 79.8166C117.204 79.872 117.196 79.9178 117.196 79.9707C117.196 79.99 117.196 80.0165 117.191 80.0358C116.784 88.9633 112.839 97.38 105.928 103.959L105.923 103.961Z" fill="#1E76E2"/>
<path d="M121.653 77.4355C121.03 54.8253 100.15 36.9776 75.0947 37.657C62.978 37.9822 51.6906 42.5495 43.3177 50.523C34.9328 58.5086 30.4736 68.9392 30.7719 79.8902C30.7864 80.3888 30.8131 80.8851 30.847 81.3741V81.4078L30.8882 81.9594C30.927 82.4629 30.9828 82.9616 31.0483 83.4578V83.4626C31.1477 84.3178 31.2884 85.1657 31.4484 86.004C31.8703 88.16 32.4789 90.2485 33.2597 92.2696C33.2597 92.2696 33.2613 92.2745 33.2646 92.2841C33.3446 92.4913 33.4246 92.696 33.5095 92.9032C33.6501 93.2501 33.7931 93.5945 33.9435 93.9366H33.9459C38.4221 104.129 47.3138 112.271 58.4388 116.503C58.7685 116.629 59.1031 116.752 59.4378 116.87C64.5638 118.691 70.1384 119.69 75.9555 119.69C76.4162 119.69 76.8745 119.686 77.3303 119.671C97.4585 119.127 114.248 106.798 119.75 90.2437C119.75 90.2437 119.755 90.2389 119.755 90.2317C120.387 88.3286 120.87 86.3654 121.19 84.3587C121.217 84.2142 121.246 84.0697 121.258 83.9203V83.9155C121.282 83.7613 121.304 83.6168 121.323 83.465C121.418 82.7905 121.488 82.1064 121.544 81.4174V81.3572C121.59 80.8321 121.624 80.3093 121.639 79.7721L121.653 79.2952V79.2807C121.673 78.6713 121.673 78.0522 121.653 77.4379V77.4355ZM77.3061 118.671C70.9919 118.845 64.9445 117.814 59.4402 115.81C59.1031 115.687 58.771 115.562 58.4412 115.429H58.4388C47.9127 111.324 39.472 103.63 35.0783 94.0209C35.0759 94.0185 35.0759 94.0161 35.0759 94.0161C34.9183 93.674 34.7704 93.332 34.6249 92.9851C33.347 89.9523 32.4692 86.7412 32.0497 83.4C32.0497 83.3879 32.0473 83.3807 32.0449 83.3711C31.9843 82.8772 31.9309 82.381 31.8897 81.88L31.8509 81.3404C31.8169 80.8513 31.7903 80.3575 31.7757 79.8613C31.4896 69.1922 35.8276 59.0289 44.0112 51.2457C52.2046 43.4456 63.252 38.9698 75.1213 38.6518C75.5675 38.6374 76.0161 38.6301 76.4671 38.6301C100.359 38.6301 120.055 55.8082 120.649 77.462C120.664 78.0642 120.669 78.6592 120.649 79.2494V79.2711L120.635 79.8131C120.615 80.3045 120.596 80.7815 120.55 81.2657C120.543 81.3066 120.543 81.3476 120.543 81.3861C118.901 101.674 100.342 118.048 77.3061 118.671ZM120.543 81.3885C118.901 101.676 100.342 118.05 77.3061 118.674C70.9919 118.847 64.9445 117.816 59.4402 115.812C59.1031 115.689 58.771 115.564 58.4412 115.431H58.4388C47.9127 111.327 39.472 103.633 35.0783 94.0233C35.0759 94.0209 35.0759 94.0185 35.0759 94.0185C34.9183 93.6764 34.7704 93.3344 34.6249 92.9875C33.347 89.9547 32.4692 86.7436 32.0497 83.4024C32.0497 83.3903 32.0473 83.3831 32.0449 83.3735C31.9843 82.8797 31.9309 82.3834 31.8897 81.8824L31.977 83.2V83.2073L32.1176 85.2356L32.137 85.5054V85.5391C32.1782 86.1172 32.2316 86.6882 32.2971 87.2567C32.3189 87.4518 32.3431 87.6469 32.3771 87.842C32.4231 88.2202 32.4789 88.6033 32.5541 88.9815C32.6123 89.3597 32.6802 89.7354 32.7602 90.1088C32.8063 90.3594 32.8596 90.6123 32.9202 90.858C32.9663 91.082 33.0196 91.3085 33.0754 91.5277C33.1336 91.7734 33.1942 92.0263 33.2621 92.2696C33.2621 92.2696 33.2638 92.2745 33.267 92.2841C33.347 92.4913 33.427 92.696 33.5119 92.9032C33.6525 93.2501 33.7956 93.5945 33.9459 93.9366H33.9483C38.4245 104.129 47.3162 112.271 58.4412 116.503C58.771 116.629 59.1056 116.752 59.4402 116.87C64.5662 118.691 70.1408 119.69 75.9579 119.69C76.4186 119.69 76.8769 119.686 77.3328 119.671C97.461 119.127 114.25 106.798 119.752 90.2437C119.752 90.2437 119.757 90.2389 119.757 90.2317C119.81 89.9763 119.864 89.7258 119.912 89.4681C119.965 89.2079 120.012 88.9429 120.058 88.6852C120.152 88.16 120.225 87.6301 120.29 87.1001C120.317 86.9266 120.336 86.7484 120.351 86.5701C120.404 86.1124 120.45 85.6547 120.477 85.1922C120.492 85.0308 120.504 84.867 120.511 84.7008C120.53 84.4358 120.538 84.1636 120.552 83.8914V83.8673C120.557 83.742 120.557 83.6071 120.557 83.4771V83.4096L120.564 83.0097C120.572 82.4701 120.564 81.9305 120.543 81.3933V81.3885ZM120.543 81.3885C118.901 101.676 100.342 118.05 77.3061 118.674C70.9919 118.847 64.9445 117.816 59.4402 115.812C59.1031 115.689 58.771 115.564 58.4412 115.431H58.4388C47.9127 111.327 39.472 103.633 35.0783 94.0233C35.0759 94.0209 35.0759 94.0185 35.0759 94.0185C34.9183 93.6764 34.7704 93.3344 34.6249 92.9875C33.347 89.9547 32.4692 86.7436 32.0497 83.4024C32.0497 83.3903 32.0473 83.3831 32.0449 83.3735C31.9843 82.8797 31.9309 82.3834 31.8897 81.8824L31.977 83.2V83.2073L32.1176 85.2356L32.137 85.5054V85.5391C32.1782 86.1172 32.2316 86.6882 32.2971 87.2567C32.3189 87.4518 32.3431 87.6469 32.3771 87.842C32.4231 88.2202 32.4789 88.6033 32.5541 88.9815C32.6123 89.3597 32.6802 89.7354 32.7602 90.1088C32.8063 90.3594 32.8596 90.6123 32.9202 90.858C32.9663 91.082 33.0196 91.3085 33.0754 91.5277C33.1336 91.7734 33.1942 92.0263 33.2621 92.2696C33.2621 92.2696 33.2638 92.2745 33.267 92.2841C33.347 92.4913 33.427 92.696 33.5119 92.9032C33.6525 93.2501 33.7956 93.5945 33.9459 93.9366H33.9483C38.4245 104.129 47.3162 112.271 58.4412 116.503C58.771 116.629 59.1056 116.752 59.4402 116.87C64.5662 118.691 70.1408 119.69 75.9579 119.69C76.4186 119.69 76.8769 119.686 77.3328 119.671C97.461 119.127 114.25 106.798 119.752 90.2437C119.752 90.2437 119.757 90.2389 119.757 90.2317C119.81 89.9763 119.864 89.7258 119.912 89.4681C119.965 89.2079 120.012 88.9429 120.058 88.6852C120.152 88.16 120.225 87.6301 120.29 87.1001C120.317 86.9266 120.336 86.7484 120.351 86.5701C120.404 86.1124 120.45 85.6547 120.477 85.1922C120.492 85.0308 120.504 84.867 120.511 84.7008C120.53 84.4358 120.538 84.1636 120.552 83.8914V83.8673C120.557 83.742 120.557 83.6071 120.557 83.4771V83.4096L120.564 83.0097C120.572 82.4701 120.564 81.9305 120.543 81.3933V81.3885ZM120.543 81.3885C118.901 101.676 100.342 118.05 77.3061 118.674C70.9919 118.847 64.9445 117.816 59.4402 115.812C59.1031 115.689 58.771 115.564 58.4412 115.431H58.4388C47.9127 111.327 39.472 103.633 35.0783 94.0233C35.0759 94.0209 35.0759 94.0185 35.0759 94.0185C34.9183 93.6764 34.7704 93.3344 34.6249 92.9875C33.347 89.9547 32.4692 86.7436 32.0497 83.4024C32.0497 83.3903 32.0473 83.3831 32.0449 83.3735C31.9843 82.8797 31.9309 82.3834 31.8897 81.8824L31.977 83.2V83.2073L32.1176 85.2356L32.137 85.5054V85.5391C32.1782 86.1172 32.2316 86.6882 32.2971 87.2567C32.3189 87.4518 32.3431 87.6469 32.3771 87.842C32.4231 88.2202 32.4789 88.6033 32.5541 88.9815C32.6123 89.3597 32.6802 89.7354 32.7602 90.1088C32.8063 90.3594 32.8596 90.6123 32.9202 90.858C32.9663 91.082 33.0196 91.3085 33.0754 91.5277C33.1336 91.7734 33.1942 92.0263 33.2621 92.2696C33.2621 92.2696 33.2638 92.2745 33.267 92.2841C33.347 92.4913 33.427 92.696 33.5119 92.9032C33.6525 93.2501 33.7956 93.5945 33.9459 93.9366H33.9483C38.4245 104.129 47.3162 112.271 58.4412 116.503C58.771 116.629 59.1056 116.752 59.4402 116.87C64.5662 118.691 70.1408 119.69 75.9579 119.69C76.4186 119.69 76.8769 119.686 77.3328 119.671C97.461 119.127 114.25 106.798 119.752 90.2437C119.752 90.2437 119.757 90.2389 119.757 90.2317C119.81 89.9763 119.864 89.7258 119.912 89.4681C119.965 89.2079 120.012 88.9429 120.058 88.6852C120.152 88.16 120.225 87.6301 120.29 87.1001C120.317 86.9266 120.336 86.7484 120.351 86.5701C120.404 86.1124 120.45 85.6547 120.477 85.1922C120.492 85.0308 120.504 84.867 120.511 84.7008C120.53 84.4358 120.538 84.1636 120.552 83.8914V83.8673C120.557 83.742 120.557 83.6071 120.557 83.4771V83.4096L120.564 83.0097C120.572 82.4701 120.564 81.9305 120.543 81.3933V81.3885ZM120.543 81.3885C118.901 101.676 100.342 118.05 77.3061 118.674C70.9919 118.847 64.9445 117.816 59.4402 115.812C59.1031 115.689 58.771 115.564 58.4412 115.431H58.4388C47.9127 111.327 39.472 103.633 35.0783 94.0233C35.0759 94.0209 35.0759 94.0185 35.0759 94.0185C34.9183 93.6764 34.7704 93.3344 34.6249 92.9875C33.347 89.9547 32.4692 86.7436 32.0497 83.4024C32.0497 83.3903 32.0473 83.3831 32.0449 83.3735C31.9843 82.8797 31.9309 82.3834 31.8897 81.8824L31.977 83.2V83.2073L32.1176 85.2356L32.137 85.5054V85.5391C32.1782 86.1172 32.2316 86.6882 32.2971 87.2567C32.3189 87.4518 32.3431 87.6469 32.3771 87.842C32.4231 88.2202 32.4789 88.6033 32.5541 88.9815C32.6123 89.3597 32.6802 89.7354 32.7602 90.1088C32.8063 90.3594 32.8596 90.6123 32.9202 90.858C32.9663 91.082 33.0196 91.3085 33.0754 91.5277C33.1336 91.7734 33.1942 92.0263 33.2621 92.2696C33.2621 92.2696 33.2638 92.2745 33.267 92.2841C33.347 92.4913 33.427 92.696 33.5119 92.9032C33.6525 93.2501 33.7956 93.5945 33.9459 93.9366H33.9483C38.4245 104.129 47.3162 112.271 58.4412 116.503C58.771 116.629 59.1056 116.752 59.4402 116.87C64.5662 118.691 70.1408 119.69 75.9579 119.69C76.4186 119.69 76.8769 119.686 77.3328 119.671C97.461 119.127 114.25 106.798 119.752 90.2437C119.752 90.2437 119.757 90.2389 119.757 90.2317C119.81 89.9763 119.864 89.7258 119.912 89.4681C119.965 89.2079 120.012 88.9429 120.058 88.6852C120.152 88.16 120.225 87.6301 120.29 87.1001C120.317 86.9266 120.336 86.7484 120.351 86.5701C120.404 86.1124 120.45 85.6547 120.477 85.1922C120.492 85.0308 120.504 84.867 120.511 84.7008C120.53 84.4358 120.538 84.1636 120.552 83.8914V83.8673C120.557 83.742 120.557 83.6071 120.557 83.4771V83.4096L120.564 83.0097C120.572 82.4701 120.564 81.9305 120.543 81.3933V81.3885ZM120.543 81.3885C118.901 101.676 100.342 118.05 77.3061 118.674C70.9919 118.847 64.9445 117.816 59.4402 115.812C59.1031 115.689 58.771 115.564 58.4412 115.431H58.4388C47.9127 111.327 39.472 103.633 35.0783 94.0233C35.0759 94.0209 35.0759 94.0185 35.0759 94.0185C34.9183 93.6764 34.7704 93.3344 34.6249 92.9875C33.347 89.9547 32.4692 86.7436 32.0497 83.4024C32.0497 83.3903 32.0473 83.3831 32.0449 83.3735C31.9843 82.8797 31.9309 82.3834 31.8897 81.8824L31.977 83.2V83.2073L32.1176 85.2356L32.137 85.5054V85.5391C32.1782 86.1172 32.2316 86.6882 32.2971 87.2567C32.3189 87.4518 32.3431 87.6469 32.3771 87.842C32.4231 88.2202 32.4789 88.6033 32.5541 88.9815C32.6123 89.3597 32.6802 89.7354 32.7602 90.1088C32.8063 90.3594 32.8596 90.6123 32.9202 90.858C32.9663 91.082 33.0196 91.3085 33.0754 91.5277C33.1336 91.7734 33.1942 92.0263 33.2621 92.2696C33.2621 92.2696 33.2638 92.2745 33.267 92.2841C33.347 92.4913 33.427 92.696 33.5119 92.9032C33.6525 93.2501 33.7956 93.5945 33.9459 93.9366H33.9483C38.4245 104.129 47.3162 112.271 58.4412 116.503C58.771 116.629 59.1056 116.752 59.4402 116.87C64.5662 118.691 70.1408 119.69 75.9579 119.69C76.4186 119.69 76.8769 119.686 77.3328 119.671C97.461 119.127 114.25 106.798 119.752 90.2437C119.752 90.2437 119.757 90.2389 119.757 90.2317C119.81 89.9763 119.864 89.7258 119.912 89.4681C119.965 89.2079 120.012 88.9429 120.058 88.6852C120.152 88.16 120.225 87.6301 120.29 87.1001C120.317 86.9266 120.336 86.7484 120.351 86.5701C120.404 86.1124 120.45 85.6547 120.477 85.1922C120.492 85.0308 120.504 84.867 120.511 84.7008C120.53 84.4358 120.538 84.1636 120.552 83.8914V83.8673C120.557 83.742 120.557 83.6071 120.557 83.4771V83.4096L120.564 83.0097C120.572 82.4701 120.564 81.9305 120.543 81.3933V81.3885ZM120.543 81.3885C118.901 101.676 100.342 118.05 77.3061 118.674C70.9919 118.847 64.9445 117.816 59.4402 115.812C59.1031 115.689 58.771 115.564 58.4412 115.431H58.4388C47.9127 111.327 39.472 103.633 35.0783 94.0233C35.0759 94.0209 35.0759 94.0185 35.0759 94.0185C34.9183 93.6764 34.7704 93.3344 34.6249 92.9875C33.347 89.9547 32.4692 86.7436 32.0497 83.4024C32.0497 83.3903 32.0473 83.3831 32.0449 83.3735C31.9843 82.8797 31.9309 82.3834 31.8897 81.8824L31.977 83.2V83.2073L32.1176 85.2356L32.137 85.5054V85.5391C32.1782 86.1172 32.2316 86.6882 32.2971 87.2567C32.3189 87.4518 32.3431 87.6469 32.3771 87.842C32.4231 88.2202 32.4789 88.6033 32.5541 88.9815C32.6123 89.3597 32.6802 89.7354 32.7602 90.1088C32.8063 90.3594 32.8596 90.6123 32.9202 90.858C32.9663 91.082 33.0196 91.3085 33.0754 91.5277C33.1336 91.7734 33.1942 92.0263 33.2621 92.2696C33.2621 92.2696 33.2638 92.2745 33.267 92.2841C33.347 92.4913 33.427 92.696 33.5119 92.9032C33.6525 93.2501 33.7956 93.5945 33.9459 93.9366H33.9483C38.4245 104.129 47.3162 112.271 58.4412 116.503C58.771 116.629 59.1056 116.752 59.4402 116.87C64.5662 118.691 70.1408 119.69 75.9579 119.69C76.4186 119.69 76.8769 119.686 77.3328 119.671C97.461 119.127 114.25 106.798 119.752 90.2437C119.752 90.2437 119.757 90.2389 119.757 90.2317C119.81 89.9763 119.864 89.7258 119.912 89.4681C119.965 89.2079 120.012 88.9429 120.058 88.6852C120.152 88.16 120.225 87.6301 120.29 87.1001C120.317 86.9266 120.336 86.7484 120.351 86.5701C120.404 86.1124 120.45 85.6547 120.477 85.1922C120.492 85.0308 120.504 84.867 120.511 84.7008C120.53 84.4358 120.538 84.1636 120.552 83.8914V83.8673C120.557 83.742 120.557 83.6071 120.557 83.4771V83.4096L120.564 83.0097C120.572 82.4701 120.564 81.9305 120.543 81.3933V81.3885ZM120.543 81.3885C118.901 101.676 100.342 118.05 77.3061 118.674C70.9919 118.847 64.9445 117.816 59.4402 115.812C59.1031 115.689 58.771 115.564 58.4412 115.431H58.4388C47.9127 111.327 39.472 103.633 35.0783 94.0233C35.0759 94.0209 35.0759 94.0185 35.0759 94.0185C34.9183 93.6764 34.7704 93.3344 34.6249 92.9875C33.347 89.9547 32.4692 86.7436 32.0497 83.4024C32.0497 83.3903 32.0473 83.3831 32.0449 83.3735C31.9843 82.8797 31.9309 82.3834 31.8897 81.8824L31.977 83.2V83.2073L32.1176 85.2356L32.137 85.5054V85.5391C32.1782 86.1172 32.2316 86.6882 32.2971 87.2567C32.3189 87.4518 32.3431 87.6469 32.3771 87.842C32.4231 88.2202 32.4789 88.6033 32.5541 88.9815C32.6123 89.3597 32.6802 89.7354 32.7602 90.1088C32.8063 90.3594 32.8596 90.6123 32.9202 90.858C32.9663 91.082 33.0196 91.3085 33.0754 91.5277C33.1336 91.7734 33.1942 92.0263 33.2621 92.2696C33.2621 92.2696 33.2638 92.2745 33.267 92.2841C33.347 92.4913 33.427 92.696 33.5119 92.9032C33.6525 93.2501 33.7956 93.5945 33.9459 93.9366H33.9483C38.4245 104.129 47.3162 112.271 58.4412 116.503C58.771 116.629 59.1056 116.752 59.4402 116.87C64.5662 118.691 70.1408 119.69 75.9579 119.69C76.4186 119.69 76.8769 119.686 77.3328 119.671C97.461 119.127 114.25 106.798 119.752 90.2437C119.752 90.2437 119.757 90.2389 119.757 90.2317C119.81 89.9763 119.864 89.7258 119.912 89.4681C119.965 89.2079 120.012 88.9429 120.058 88.6852C120.152 88.16 120.225 87.6301 120.29 87.1001C120.317 86.9266 120.336 86.7484 120.351 86.5701C120.404 86.1124 120.45 85.6547 120.477 85.1922C120.492 85.0308 120.504 84.867 120.511 84.7008C120.53 84.4358 120.538 84.1636 120.552 83.8914V83.8673C120.557 83.742 120.557 83.6071 120.557 83.4771V83.4096L120.564 83.0097C120.572 82.4701 120.564 81.9305 120.543 81.3933V81.3885ZM120.543 81.3885C118.901 101.676 100.342 118.05 77.3061 118.674C70.9919 118.847 64.9445 117.816 59.4402 115.812C59.1031 115.689 58.771 115.564 58.4412 115.431H58.4388C47.9127 111.327 39.472 103.633 35.0783 94.0233C35.0759 94.0209 35.0759 94.0185 35.0759 94.0185C34.9183 93.6764 34.7704 93.3344 34.6249 92.9875C33.347 89.9547 32.4692 86.7436 32.0497 83.4024C32.0497 83.3903 32.0473 83.3831 32.0449 83.3735C31.9843 82.8797 31.9309 82.3834 31.8897 81.8824L31.977 83.2V83.2073L32.1176 85.2356L32.137 85.5054V85.5391C32.1782 86.1172 32.2316 86.6882 32.2971 87.2567C32.3189 87.4518 32.3431 87.6469 32.3771 87.842C32.4231 88.2202 32.4789 88.6033 32.5541 88.9815C32.6123 89.3597 32.6802 89.7354 32.7602 90.1088C32.8063 90.3594 32.8596 90.6123 32.9202 90.858C32.9663 91.082 33.0196 91.3085 33.0754 91.5277C33.1336 91.7734 33.1942 92.0263 33.2621 92.2696C33.2621 92.2696 33.2638 92.2745 33.267 92.2841C33.347 92.4913 33.427 92.696 33.5119 92.9032C33.6525 93.2501 33.7956 93.5945 33.9459 93.9366H33.9483C38.4245 104.129 47.3162 112.271 58.4412 116.503C58.771 116.629 59.1056 116.752 59.4402 116.87C64.5662 118.691 70.1408 119.69 75.9579 119.69C76.4186 119.69 76.8769 119.686 77.3328 119.671C97.461 119.127 114.25 106.798 119.752 90.2437C119.752 90.2437 119.757 90.2389 119.757 90.2317C119.81 89.9763 119.864 89.7258 119.912 89.4681C119.965 89.2079 120.012 88.9429 120.058 88.6852C120.152 88.16 120.225 87.6301 120.29 87.1001C120.317 86.9266 120.336 86.7484 120.351 86.5701C120.404 86.1124 120.45 85.6547 120.477 85.1922C120.492 85.0308 120.504 84.867 120.511 84.7008C120.53 84.4358 120.538 84.1636 120.552 83.8914V83.8673C120.557 83.742 120.557 83.6071 120.557 83.4771V83.4096L120.564 83.0097C120.572 82.4701 120.564 81.9305 120.543 81.3933V81.3885ZM120.543 81.3885C118.901 101.676 100.342 118.05 77.3061 118.674C70.9919 118.847 64.9445 117.816 59.4402 115.812C59.1031 115.689 58.771 115.564 58.4412 115.431H58.4388C47.9127 111.327 39.472 103.633 35.0783 94.0233C35.0759 94.0209 35.0759 94.0185 35.0759 94.0185C34.9183 93.6764 34.7704 93.3344 34.6249 92.9875C33.347 89.9547 32.4692 86.7436 32.0497 83.4024C32.0497 83.3903 32.0473 83.3831 32.0449 83.3735C31.9843 82.8797 31.9309 82.3834 31.8897 81.8824L31.977 83.2V83.2073L32.1176 85.2356L32.137 85.5054V85.5391C32.1782 86.1172 32.2316 86.6882 32.2971 87.2567C32.3189 87.4518 32.3431 87.6469 32.3771 87.842C32.4231 88.2202 32.4789 88.6033 32.5541 88.9815C32.6123 89.3597 32.6802 89.7354 32.7602 90.1088C32.8063 90.3594 32.8596 90.6123 32.9202 90.858C32.9663 91.082 33.0196 91.3085 33.0754 91.5277C33.1336 91.7734 33.1942 92.0263 33.2621 92.2696C33.2621 92.2696 33.2638 92.2745 33.267 92.2841C33.347 92.4913 33.427 92.696 33.5119 92.9032C33.6525 93.2501 33.7956 93.5945 33.9459 93.9366H33.9483C38.4245 104.129 47.3162 112.271 58.4412 116.503C58.771 116.629 59.1056 116.752 59.4402 116.87C64.5662 118.691 70.1408 119.69 75.9579 119.69C76.4186 119.69 76.8769 119.686 77.3328 119.671C97.461 119.127 114.25 106.798 119.752 90.2437C119.752 90.2437 119.757 90.2389 119.757 90.2317C119.81 89.9763 119.864 89.7258 119.912 89.4681C119.965 89.2079 120.012 88.9429 120.058 88.6852C120.152 88.16 120.225 87.6301 120.29 87.1001C120.317 86.9266 120.336 86.7484 120.351 86.5701C120.404 86.1124 120.45 85.6547 120.477 85.1922C120.492 85.0308 120.504 84.867 120.511 84.7008C120.53 84.4358 120.538 84.1636 120.552 83.8914V83.8673C120.557 83.742 120.557 83.6071 120.557 83.4771V83.4096L120.564 83.0097C120.572 82.4701 120.564 81.9305 120.543 81.3933V81.3885ZM120.543 81.3885C118.901 101.676 100.342 118.05 77.3061 118.674C70.9919 118.847 64.9445 117.816 59.4402 115.812C59.1031 115.689 58.771 115.564 58.4412 115.431H58.4388C47.9127 111.327 39.472 103.633 35.0783 94.0233C35.0759 94.0209 35.0759 94.0185 35.0759 94.0185C34.9183 93.6764 34.7704 93.3344 34.6249 92.9875C33.347 89.9547 32.4692 86.7436 32.0497 83.4024C32.0497 83.3903 32.0473 83.3831 32.0449 83.3735C31.9843 82.8797 31.9309 82.3834 31.8897 81.8824L31.977 83.2V83.2073L32.1176 85.2356L32.137 85.5054V85.5391C32.1782 86.1172 32.2316 86.6882 32.2971 87.2567C32.3189 87.4518 32.3431 87.6469 32.3771 87.842C32.4231 88.2202 32.4789 88.6033 32.5541 88.9815C32.6123 89.3597 32.6802 89.7354 32.7602 90.1088C32.8063 90.3594 32.8596 90.6123 32.9202 90.858C32.9663 91.082 33.0196 91.3085 33.0754 91.5277C33.1336 91.7734 33.1942 92.0263 33.2621 92.2696C33.2621 92.2696 33.2638 92.2745 33.267 92.2841C33.347 92.4913 33.427 92.696 33.5119 92.9032C33.6525 93.2501 33.7956 93.5945 33.9459 93.9366H33.9483C38.4245 104.129 47.3162 112.271 58.4412 116.503C58.771 116.629 59.1056 116.752 59.4402 116.87C64.5662 118.691 70.1408 119.69 75.9579 119.69C76.4186 119.69 76.8769 119.686 77.3328 119.671C97.461 119.127 114.25 106.798 119.752 90.2437C119.752 90.2437 119.757 90.2389 119.757 90.2317C119.81 89.9763 119.864 89.7258 119.912 89.4681C119.965 89.2079 120.012 88.9429 120.058 88.6852C120.152 88.16 120.225 87.6301 120.29 87.1001C120.317 86.9266 120.336 86.7484 120.351 86.5701C120.404 86.1124 120.45 85.6547 120.477 85.1922C120.492 85.0308 120.504 84.867 120.511 84.7008C120.53 84.4358 120.538 84.1636 120.552 83.8914V83.8673C120.557 83.742 120.557 83.6071 120.557 83.4771V83.4096L120.564 83.0097C120.572 82.4701 120.564 81.9305 120.543 81.3933V81.3885ZM120.543 81.3885C118.901 101.676 100.342 118.05 77.3061 118.674C70.9919 118.847 64.9445 117.816 59.4402 115.812C59.1031 115.689 58.771 115.564 58.4412 115.431H58.4388C47.9127 111.327 39.472 103.633 35.0783 94.0233C35.0759 94.0209 35.0759 94.0185 35.0759 94.0185C34.9183 93.6764 34.7704 93.3344 34.6249 92.9875C33.347 89.9547 32.4692 86.7436 32.0497 83.4024C32.0497 83.3903 32.0473 83.3831 32.0449 83.3735C31.9843 82.8797 31.9309 82.3834 31.8897 81.8824L31.977 83.2V83.2073L32.1176 85.2356L32.137 85.5054V85.5391C32.1782 86.1172 32.2316 86.6882 32.2971 87.2567C32.3189 87.4518 32.3431 87.6469 32.3771 87.842C32.4231 88.2202 32.4789 88.6033 32.5541 88.9815C32.6123 89.3597 32.6802 89.7354 32.7602 90.1088C32.8063 90.3594 32.8596 90.6123 32.9202 90.858C32.9663 91.082 33.0196 91.3085 33.0754 91.5277C33.1336 91.7734 33.1942 92.0263 33.2621 92.2696C33.2621 92.2696 33.2638 92.2745 33.267 92.2841C33.347 92.4913 33.427 92.696 33.5119 92.9032C33.6525 93.2501 33.7956 93.5945 33.9459 93.9366H33.9483C38.4245 104.129 47.3162 112.271 58.4412 116.503C58.771 116.629 59.1056 116.752 59.4402 116.87C64.5662 118.691 70.1408 119.69 75.9579 119.69C76.4186 119.69 76.8769 119.686 77.3328 119.671C97.461 119.127 114.25 106.798 119.752 90.2437C119.752 90.2437 119.757 90.2389 119.757 90.2317C119.81 89.9763 119.864 89.7258 119.912 89.4681C119.965 89.2079 120.012 88.9429 120.058 88.6852C120.152 88.16 120.225 87.6301 120.29 87.1001C120.317 86.9266 120.336 86.7484 120.351 86.5701C120.404 86.1124 120.45 85.6547 120.477 85.1922C120.492 85.0308 120.504 84.867 120.511 84.7008C120.53 84.4358 120.538 84.1636 120.552 83.8914V83.8673C120.557 83.742 120.557 83.6071 120.557 83.4771V83.4096L120.564 83.0097C120.572 82.4701 120.564 81.9305 120.543 81.3933V81.3885ZM120.543 81.3885C118.901 101.676 100.342 118.05 77.3061 118.674C70.9919 118.847 64.9445 117.816 59.4402 115.812C59.1031 115.689 58.771 115.564 58.4412 115.431H58.4388C47.9127 111.327 39.472 103.633 35.0783 94.0233C35.0759 94.0209 35.0759 94.0185 35.0759 94.0185C34.9183 93.6764 34.7704 93.3344 34.6249 92.9875C33.347 89.9547 32.4692 86.7436 32.0497 83.4024C32.0497 83.3903 32.0473 83.3831 32.0449 83.3735C31.9843 82.8797 31.9309 82.3834 31.8897 81.8824L31.977 83.2V83.2073L32.1176 85.2356L32.137 85.5054V85.5391C32.1782 86.1172 32.2316 86.6882 32.2971 87.2567C32.3189 87.4518 32.3431 87.6469 32.3771 87.842C32.4231 88.2202 32.4789 88.6033 32.5541 88.9815C32.6123 89.3597 32.6802 89.7354 32.7602 90.1088C32.8063 90.3594 32.8596 90.6123 32.9202 90.858C32.9663 91.082 33.0196 91.3085 33.0754 91.5277C33.1336 91.7734 33.1942 92.0263 33.2621 92.2696C33.2621 92.2696 33.2638 92.2745 33.267 92.2841C33.347 92.4913 33.427 92.696 33.5119 92.9032C33.6525 93.2501 33.7956 93.5945 33.9459 93.9366H33.9483C38.4245 104.129 47.3162 112.271 58.4412 116.503C58.771 116.629 59.1056 116.752 59.4402 116.87C64.5662 118.691 70.1408 119.69 75.9579 119.69C76.4186 119.69 76.8769 119.686 77.3328 119.671C97.461 119.127 114.25 106.798 119.752 90.2437C119.752 90.2437 119.757 90.2389 119.757 90.2317C119.81 89.9763 119.864 89.7258 119.912 89.4681C119.965 89.2079 120.012 88.9429 120.058 88.6852C120.152 88.16 120.225 87.6301 120.29 87.1001C120.317 86.9266 120.336 86.7484 120.351 86.5701C120.404 86.1124 120.45 85.6547 120.477 85.1922C120.492 85.0308 120.504 84.867 120.511 84.7008C120.53 84.4358 120.538 84.1636 120.552 83.8914V83.8673C120.557 83.742 120.557 83.6071 120.557 83.4771V83.4096L120.564 83.0097C120.572 82.4701 120.564 81.9305 120.543 81.3933V81.3885ZM120.543 81.3885C118.901 101.676 100.342 118.05 77.3061 118.674C70.9919 118.847 64.9445 117.816 59.4402 115.812C59.1031 115.689 58.771 115.564 58.4412 115.431H58.4388C47.9127 111.327 39.472 103.633 35.0783 94.0233C35.0759 94.0209 35.0759 94.0185 35.0759 94.0185C34.9183 93.6764 34.7704 93.3344 34.6249 92.9875C33.347 89.9547 32.4692 86.7436 32.0497 83.4024C32.0497 83.3903 32.0473 83.3831 32.0449 83.3735C31.9843 82.8797 31.9309 82.3834 31.8897 81.8824L31.977 83.2V83.2073L32.1176 85.2356L32.137 85.5054V85.5391C32.1782 86.1172 32.2316 86.6882 32.2971 87.2567C32.3189 87.4518 32.3431 87.6469 32.3771 87.842C32.4231 88.2202 32.4789 88.6033 32.5541 88.9815C32.6123 89.3597 32.6802 89.7354 32.7602 90.1088C32.8063 90.3594 32.8596 90.6123 32.9202 90.858C32.9663 91.082 33.0196 91.3085 33.0754 91.5277C33.1336 91.7734 33.1942 92.0263 33.2621 92.2696C33.2621 92.2696 33.2638 92.2745 33.267 92.2841C33.347 92.4913 33.427 92.696 33.5119 92.9032C33.6525 93.2501 33.7956 93.5945 33.9459 93.9366H33.9483C38.4245 104.129 47.3162 112.271 58.4412 116.503C58.771 116.629 59.1056 116.752 59.4402 116.87C64.5662 118.691 70.1408 119.69 75.9579 119.69C76.4186 119.69 76.8769 119.686 77.3328 119.671C97.461 119.127 114.25 106.798 119.752 90.2437C119.752 90.2437 119.757 90.2389 119.757 90.2317C119.81 89.9763 119.864 89.7258 119.912 89.4681C119.965 89.2079 120.012 88.9429 120.058 88.6852C120.152 88.16 120.225 87.6301 120.29 87.1001C120.317 86.9266 120.336 86.7484 120.351 86.5701C120.404 86.1124 120.45 85.6547 120.477 85.1922C120.492 85.0308 120.504 84.867 120.511 84.7008C120.53 84.4358 120.538 84.1636 120.552 83.8914V83.8673C120.557 83.742 120.557 83.6071 120.557 83.4771V83.4096L120.564 83.0097C120.572 82.4701 120.564 81.9305 120.543 81.3933V81.3885ZM120.543 81.3885C118.901 101.676 100.342 118.05 77.3061 118.674C70.9919 118.847 64.9445 117.816 59.4402 115.812C59.1031 115.689 58.771 115.564 58.4412 115.431H58.4388C47.9127 111.327 39.472 103.633 35.0783 94.0233C35.0759 94.0209 35.0759 94.0185 35.0759 94.0185C34.9183 93.6764 34.7704 93.3344 34.6249 92.9875C33.347 89.9547 32.4692 86.7436 32.0497 83.4024C32.0497 83.3903 32.0473 83.3831 32.0449 83.3735C31.9843 82.8797 31.9309 82.3834 31.8897 81.8824L31.977 83.2V83.2073L32.1176 85.2356L32.137 85.5054V85.5391C32.1782 86.1172 32.2316 86.6882 32.2971 87.2567C32.3189 87.4518 32.3431 87.6469 32.3771 87.842C32.4231 88.2202 32.4789 88.6033 32.5541 88.9815C32.6123 89.3597 32.6802 89.7354 32.7602 90.1088C32.8063 90.3594 32.8596 90.6123 32.9202 90.858C32.9663 91.082 33.0196 91.3085 33.0754 91.5277C33.1336 91.7734 33.1942 92.0263 33.2621 92.2696C33.2621 92.2696 33.2638 92.2745 33.267 92.2841C33.347 92.4913 33.427 92.696 33.5119 92.9032C33.6525 93.2501 33.7956 93.5945 33.9459 93.9366H33.9483C38.4245 104.129 47.3162 112.271 58.4412 116.503C58.771 116.629 59.1056 116.752 59.4402 116.87C64.5662 118.691 70.1408 119.69 75.9579 119.69C76.4186 119.69 76.8769 119.686 77.3328 119.671C97.461 119.127 114.25 106.798 119.752 90.2437C119.752 90.2437 119.757 90.2389 119.757 90.2317C119.81 89.9763 119.864 89.7258 119.912 89.4681C119.965 89.2079 120.012 88.9429 120.058 88.6852C120.152 88.16 120.225 87.6301 120.29 87.1001C120.317 86.9266 120.336 86.7484 120.351 86.5701C120.404 86.1124 120.45 85.6547 120.477 85.1922C120.492 85.0308 120.504 84.867 120.511 84.7008C120.53 84.4358 120.538 84.1636 120.552 83.8914V83.8673C120.557 83.742 120.557 83.6071 120.557 83.4771V83.4096L120.564 83.0097C120.572 82.4701 120.564 81.9305 120.543 81.3933V81.3885ZM120.543 81.3885C118.901 101.676 100.342 118.05 77.3061 118.674C70.9919 118.847 64.9445 117.816 59.4402 115.812C59.1031 115.689 58.771 115.564 58.4412 115.431H58.4388C47.9127 111.327 39.472 103.633 35.0783 94.0233C35.0759 94.0209 35.0759 94.0185 35.0759 94.0185C34.9183 93.6764 34.7704 93.3344 34.6249 92.9875C33.347 89.9547 32.4692 86.7436 32.0497 83.4024C32.0497 83.3903 32.0473 83.3831 32.0449 83.3735C31.9843 82.8797 31.9309 82.3834 31.8897 81.8824L31.977 83.2V83.2073L32.1176 85.2356L32.137 85.5054V85.5391C32.1782 86.1172 32.2316 86.6882 32.2971 87.2567C32.3189 87.4518 32.3431 87.6469 32.3771 87.842C32.4231 88.2202 32.4789 88.6033 32.5541 88.9815C32.6123 89.3597 32.6802 89.7354 32.7602 90.1088C32.8063 90.3594 32.8596 90.6123 32.9202 90.858C32.9663 91.082 33.0196 91.3085 33.0754 91.5277C33.1336 91.7734 33.1942 92.0263 33.2621 92.2696C33.2621 92.2696 33.2638 92.2745 33.267 92.2841C33.347 92.4913 33.427 92.696 33.5119 92.9032C33.6525 93.2501 33.7956 93.5945 33.9459 93.9366H33.9483C38.4245 104.129 47.3162 112.271 58.4412 116.503C58.771 116.629 59.1056 116.752 59.4402 116.87C64.5662 118.691 70.1408 119.69 75.9579 119.69C76.4186 119.69 76.8769 119.686 77.3328 119.671C97.461 119.127 114.25 106.798 119.752 90.2437C119.752 90.2437 119.757 90.2389 119.757 90.2317C119.81 89.9763 119.864 89.7258 119.912 89.4681C119.965 89.2079 120.012 88.9429 120.058 88.6852C120.152 88.16 120.225 87.6301 120.29 87.1001C120.317 86.9266 120.336 86.7484 120.351 86.5701C120.404 86.1124 120.45 85.6547 120.477 85.1922C120.492 85.0308 120.504 84.867 120.511 84.7008C120.53 84.4358 120.538 84.1636 120.552 83.8914V83.8673C120.557 83.742 120.557 83.6071 120.557 83.4771V83.4096L120.564 83.0097C120.572 82.4701 120.564 81.9305 120.543 81.3933V81.3885Z" fill="#1E76E2"/>
<path d="M120.651 77.4627C120.057 55.8089 100.362 38.6309 76.4685 38.6309C76.0175 38.6309 75.569 38.6381 75.1228 38.6525C63.2534 38.9705 52.2036 43.4463 44.0127 51.2464C35.829 59.0296 31.4886 69.1929 31.7772 79.862C31.7917 80.3606 31.8184 80.8521 31.8523 81.3411L31.8911 81.8807C31.9324 82.3817 31.9857 82.8755 32.0463 83.3718C32.0488 83.3838 32.0512 83.3911 32.0512 83.4007C32.4707 86.7419 33.3485 89.953 34.6263 92.9858C34.7718 93.3327 34.9197 93.6747 35.0773 94.0168C35.0773 94.0168 35.0773 94.0192 35.0798 94.0216C39.4735 103.633 47.9142 111.325 58.4402 115.43H58.4426C58.7724 115.56 59.107 115.687 59.4417 115.808C64.9484 117.812 70.9934 118.843 77.3075 118.672C100.343 118.048 118.905 101.675 120.544 81.3868C120.544 81.3483 120.544 81.3073 120.551 81.2664C120.597 80.7822 120.617 80.3076 120.636 79.8138L120.651 79.2718V79.2501C120.67 78.6599 120.665 78.0625 120.651 77.4627ZM118.216 79.0405V79.0743L118.209 79.3441L118.204 79.5585V79.6572L118.19 80.4473C118.19 80.4811 118.185 80.5076 118.175 80.5413V80.5461C118.175 80.681 118.175 80.8207 118.17 80.9508V80.9773C118.17 80.9966 118.17 81.0159 118.168 81.0351C118.165 81.1797 118.16 81.3218 118.151 81.4639C118.143 81.6253 118.134 81.7867 118.124 81.9457C118.117 82.0517 118.078 82.1505 118.01 82.23C117.094 90.5937 113.144 98.4131 106.614 104.626C98.8688 111.995 88.4422 116.22 77.2396 116.526C76.8129 116.531 76.3861 116.538 75.9593 116.538C70.1932 116.538 64.5943 115.488 59.4368 113.481C59.0998 113.353 58.7676 113.218 58.4378 113.079H58.4354C54.3787 111.383 50.6081 109.085 47.2668 106.232C43.2052 102.771 40.0191 98.6901 37.8076 94.2143C37.6379 93.8699 37.4754 93.5278 37.3178 93.1809C36.0303 90.3552 35.1258 87.3802 34.6312 84.3137C34.5633 84.239 34.5148 84.1475 34.5051 84.0342C34.4445 83.5163 34.3984 83.0056 34.3693 82.4901C34.3644 82.4636 34.3547 82.4299 34.3547 82.3962L34.3353 82.0758L34.3208 81.8252V81.806L34.3062 81.6398L34.2675 81.0303V80.9966C34.2335 80.5774 34.2214 80.1679 34.2068 79.7488C33.9256 69.6216 38.0453 59.9787 45.7973 52.5978C53.5421 45.2289 63.9663 41.0036 75.1713 40.7073C86.3641 40.3966 97.0138 44.0582 105.144 51.0007C113.287 57.9504 117.928 67.3549 118.207 77.482C118.214 77.7999 118.221 78.1107 118.221 78.4311C118.221 78.6358 118.221 78.8334 118.216 79.0405Z" fill="#EDF8FF"/>
<path d="M106.244 53.3524C103.48 50.8182 100.282 48.6116 96.7171 46.8266C83.0121 39.9684 66.3489 40.5803 53.2235 48.4117C50.2386 50.1895 47.5616 52.2708 45.2266 54.5858C45.6267 54.1546 46.0486 53.7306 46.4874 53.3187C54.0504 46.116 64.2442 41.9919 75.1922 41.7004C75.6116 41.686 76.0336 41.6812 76.4482 41.6812C86.9354 41.6812 96.8504 45.2367 104.486 51.7553C105.087 52.2732 105.682 52.8031 106.242 53.3524H106.244Z" fill="#1E76E2"/>
<path d="M117.19 79.7673C117.19 66.4195 109.268 54.2159 96.2685 47.7142C82.8788 41.0102 66.5842 41.6076 53.7449 49.2679C41.6767 56.4778 34.7757 68.6814 35.3189 81.5596C35.3189 81.5861 35.3262 81.6198 35.3262 81.6463V81.6848C35.6705 85.7246 36.7325 89.6198 38.4566 93.2597C38.619 93.6018 38.7864 93.9438 38.9634 94.2787C38.9609 94.2811 38.9634 94.2811 38.9634 94.2811C41.0996 98.4365 44.1185 102.228 47.923 105.475C51.0776 108.169 54.6202 110.358 58.4369 111.999C58.7666 112.141 59.1037 112.281 59.4383 112.411C64.9523 114.62 70.9973 115.701 77.2169 115.528C88.1697 115.229 98.366 111.103 105.922 103.907C112.832 97.3308 116.777 88.9116 117.185 79.9841C117.19 79.9648 117.19 79.9383 117.19 79.9191C117.19 79.8661 117.197 79.8203 117.19 79.7649V79.7673Z" fill="#EDF8FF"/>
<path d="M119.761 90.2925C115.755 108.735 97.4912 122.789 76.0875 122.789H75.8596C55.3192 122.69 37.9213 109.665 33.2754 92.3352C39.4295 108.345 56.3061 119.739 75.9663 119.739C76.427 119.739 76.8877 119.732 77.3412 119.72C97.4694 119.175 114.259 106.847 119.758 90.2925H119.761Z" fill="#1E76E2"/>
<path d="M121.555 83.9184V83.9449C121.189 94.7152 116.247 104.77 107.641 112.264C99.1036 119.698 87.9084 123.784 76.0923 123.784H75.8523C63.9417 123.723 52.7464 119.527 44.33 111.966C36.4494 104.891 31.8277 95.6161 31.1488 85.6432C31.1488 85.636 31.1439 85.6312 31.1439 85.6239L31.1173 85.2722V85.2457C31.0833 84.6676 31.0639 84.0919 31.0566 83.5137V83.5065C31.0566 83.2343 31.2773 83.0103 31.5513 83.0103H31.5586C31.738 83.0103 31.898 83.1042 31.9853 83.2487V83.256C32.0314 83.3282 32.0581 83.4077 32.0581 83.5017C32.0654 84.0991 32.0848 84.6965 32.1236 85.2867L32.1429 85.5589V85.5926C32.1842 86.1684 32.2375 86.7393 32.303 87.3102C32.3224 87.5029 32.349 87.7004 32.383 87.8931C32.4291 88.2713 32.4824 88.6568 32.5576 89.035C32.6182 89.4132 32.6837 89.7914 32.7637 90.1623C32.8097 90.4153 32.8631 90.6658 32.9237 90.9115C32.9698 91.138 33.0231 91.362 33.0765 91.5812C33.1371 91.8269 33.1977 92.0774 33.2632 92.3232C33.2632 92.3232 33.2656 92.328 33.2705 92.3376C37.9164 109.667 55.3143 122.692 75.8547 122.791H76.0826C97.4863 122.791 115.75 108.738 119.756 90.2948C119.756 90.2948 119.763 90.2876 119.763 90.2804C119.816 90.0274 119.87 89.7769 119.916 89.5167C119.969 89.259 120.015 88.9916 120.064 88.7338C120.158 88.2111 120.231 87.6787 120.296 87.1488C120.323 86.9753 120.342 86.7971 120.357 86.6188C120.41 86.1611 120.456 85.7034 120.483 85.2385C120.498 85.0795 120.51 84.9133 120.517 84.7471C120.536 84.4821 120.544 84.2099 120.558 83.9377V83.9112C120.558 83.8389 120.578 83.7715 120.612 83.7185C120.692 83.5523 120.871 83.439 121.072 83.4342C121.172 83.4342 121.259 83.4679 121.332 83.5137C121.412 83.5739 121.48 83.6462 121.511 83.7329V83.7402C121.538 83.8004 121.552 83.8606 121.552 83.9184H121.555Z" fill="#1E76E2"/>
</svg>
