<svg xmlns="http://www.w3.org/2000/svg" fill="none" viewBox="0 0 640 640">
  <path fill="#1E76E2" d="M613.6 475.2a25.4 25.4 0 0 1-1.8 6.6 32 32 0 0 1-5.5 8.7h-.3a.4.4 0 0 1 0-.7 29.3 29.3 0 0 0 7-16.1v-1.3c0-.3.2-.5.5-.5l.1 1.2v2Z"/>
  <path fill="#1E76E2" d="M606.6 490.4c-9.6 11.4-27.4 17.9-46.4 17.9-7.2 0-14.5-1-21.6-2.8a65.8 65.8 0 0 1-31.3-17.7 35.9 35.9 0 0 1-9.4-18 30.2 30.2 0 0 1-.4-6.8 26.4 26.4 0 0 1 .3-2l.1-.1H498.2c.3 0 .4.2.4.4l-.2 1.7c-1.3 17.6 15.4 35 40.4 41.6 25.9 7 54.1.7 67.2-14.8.1-.1.4-.2.6 0 .1.1.2.4 0 .6Z"/>
  <path fill="#1E76E2" d="M613.6 473v-1c-1-8.7-5.9-17.1-14.3-24.2a74 74 0 0 0-39.8-16c-29.8-3-56 9.7-61.4 29a22.2 22.2 0 0 0-.9 4.7c-1.1 10.6 3.9 21.2 14.1 29.9a74 74 0 0 0 48.8 16.3 69 69 0 0 0 36.5-9.6 33.7 33.7 0 0 0 17-25.2V473Zm-1.8 8.8c-5.2 19.1-31 31.7-60.5 28.6a73 73 0 0 1-39.4-15.7 35.6 35.6 0 0 1-14-24.9 25.6 25.6 0 0 1 .2-5v-.4l.3-1.4c3.7-18 25.7-30.7 52.2-30.7a73 73 0 0 1 48.2 16.1c9.2 7.8 14.1 17.2 14 26.7v1.7a25.2 25.2 0 0 1-1 5Z"/>
  <path fill="#1E76E2" d="M618 470c-3.4-20.5-27.4-38.3-58.2-41.5-30.6-3.2-57.8 9.1-65.4 28.3-.9 2.3-1.5 4.5-1.9 6.9v.1l-.1 1c-1.2 11.6 4.2 23 15.3 32.4a80 80 0 0 0 43.2 17.2c3.2.3 6.4.5 9.6.5 30.5 0 55.5-15.4 57.8-36.9a19.3 19.3 0 0 0 0-1c.2-2.3.1-4.7-.3-7Zm-67 43.5a79.2 79.2 0 0 1-42.7-17c-10.9-9.1-16.2-20.3-15-31.5v-1c3-20.6 27.3-35.1 56.9-35.1 3.1 0 6.3.1 9.5.5 34.3 3.5 60.2 25.3 57.7 48.5-2.4 23.2-32.2 39.2-66.5 35.6Z"/>
  <path fill="#1E76E2" d="M611.8 481.8c-5.2 19.1-31 31.7-60.5 28.6a73 73 0 0 1-39.4-15.7 35.6 35.6 0 0 1-14-24.9 35.9 35.9 0 0 0 9.4 18c7.4 8 18.5 14.3 31.3 17.7 7.1 1.9 14.4 2.8 21.6 2.8 19 0 36.8-6.5 46.4-18 2.3-2.6 4-5.4 5.2-8.4Z"/>
  <path fill="#EDF8FF" d="M598.8 448.4a73 73 0 0 0-39.4-15.7c-3-.3-6-.4-8.8-.4-26.5 0-48.5 12.7-52.2 30.7-1.3 17.6 15.4 35 40.4 41.6 25.9 7 54.1.7 67.2-14.8 3.7-4.4 6-9.5 6.8-14.7.1-9.5-4.8-18.9-14-26.7Z"/>
  <path fill="#1E76E2" d="M619.1 466.7v1c0 .2-.3.4-.5.4a.4.4 0 0 1-.4-.4v-.9c1.2-14.7-9-29.5-27-38.9a88 88 0 0 0-62-6.5c-19.2 5.4-32.3 17.7-34.4 32.1v.5l-.1.7v.1c-.1.2-.3.3-.5.3a.4.4 0 0 1-.4-.5l.2-1.2c2.1-14.8 15.4-27.3 35-32.8 20.1-5.6 44.1-3 62.6 6.5 18.2 9.5 28.6 24.6 27.5 39.6Z"/>
  <path fill="#1E76E2" d="M494.8 453.5v.5l-.1.7v.1l-.2 1-.1 1-1 7.1c0 .2-.2.4-.5.4a.4.4 0 0 1-.4-.4v-.2l1.2-8v-.9l.1-.1.1-.9v-.3l.1-.1c0-.2.3-.3.5-.3s.3.2.3.4Z"/>
  <path fill="#1E76E2" d="M618.3 466.8a15.9 15.9 0 0 1-.1 1l-.2 2.1c-3.4-20.4-27.4-38.2-58.2-41.4-30.6-3.2-57.8 9.1-65.4 28.3l.3-2v-.8l.1-.4c2.1-14.5 15.2-26.8 34.5-32.2a88 88 0 0 1 62 6.5c17.9 9.4 28.1 24.2 27 39Z"/>
  <path fill="#1E76E2" d="M619.1 466.7v.2l-.7 10.2c0 .3-.3.4-.4.4a.4.4 0 0 1-.5-.5l.5-7 .2-2.3v-1.1c0-.2.3-.4.5-.4.3 0 .4.2.4.5ZM528 562l-.1.5h-.4a.5.5 0 0 1-.3-.2c-4.3-7-23.5-7.7-44-1.8-20.4 6-36.3 16.8-36.3 25 0 .2 0 .3-.2.4l-.3.1-.3-.1-.1-.2v-.2l.1-1.7v-.1c2-8.4 17.1-18.4 36.9-24 19.7-5.8 37.9-5.4 43.9.6v.1l1.1 1.4v.3Z"/>
  <path fill="#1E76E2" d="m446.2 584 .4 1.1.1.1a6 6 0 0 1-.5-1.3Zm0 0 .4 1.1.1.1a6 6 0 0 1-.5-1.3Zm0 0 .4 1.1.1.1a6 6 0 0 1-.5-1.3Zm0 0 .4 1.1.1.1a6 6 0 0 1-.5-1.3Zm0 0 .4 1.1.1.1a6 6 0 0 1-.5-1.3Zm0 0 .4 1.1.1.1a6 6 0 0 1-.5-1.3Zm0 0 .4 1.1.1.1a6 6 0 0 1-.5-1.3Zm0 0 .4 1.1.1.1a6 6 0 0 1-.5-1.3Zm0 0 .4 1.1.1.1a6 6 0 0 1-.5-1.3Zm81.7-23.6v-.1c-1.3-4.2-6.8-7-15.6-7.6a90 90 0 0 0-30.3 4c-22.7 6.5-39.2 18.9-36.7 27.5a6.2 6.2 0 0 0 .8 1.7l.2.4.8.9c3.2 3 9.7 4.7 18 4.7 7.6 0 16.6-1.3 26-4 20.6-6 36-16.7 37-25v-.8c0-.6 0-1.2-.2-1.7Zm-37 26.6c-20.9 6-39.7 5.2-44-1.6l-.1-.2a6 6 0 0 1-.6-1.2v-.3c-2-8.1 14.1-19.8 36.1-26.1a95.3 95.3 0 0 1 30-4c8.1.7 13.3 3 14.6 6.8v.2c.2.5.3 1 .2 1.6 0 8-15.5 18.7-36.3 24.8Zm-44.7-3 .4 1.1.1.1a6 6 0 0 1-.5-1.3Zm0 0 .4 1.1.1.1a6 6 0 0 1-.5-1.3Zm0 0 .4 1.1.1.1a6 6 0 0 1-.5-1.3Zm0 0 .4 1.1.1.1a6 6 0 0 1-.5-1.3Zm0 0 .4 1.1.1.1a6 6 0 0 1-.5-1.3Zm0 0 .4 1.1.1.1a6 6 0 0 1-.5-1.3Zm0 0 .4 1.1.1.1a6 6 0 0 1-.5-1.3Zm0 0 .4 1.1.1.1a6 6 0 0 1-.5-1.3Z"/>
  <path fill="#1E76E2" d="M531.3 559.5v-.1c-2.8-9.3-25-11-49.6-4-24.6 7.2-42.5 20.5-39.8 29.8.4 1.2 1 2.3 2 3.2 3.3 3.4 10.4 5.2 19.5 5.2 8.1 0 17.9-1.5 28-4.4a97.2 97.2 0 0 0 30-14c5.7-4.1 9-8.3 9.9-12 .3-1.3.3-2.5 0-3.7Zm-10.4 15a96.3 96.3 0 0 1-29.7 13.8c-24.1 7-45.8 5.5-48.4-3.3-2.5-8.8 15-21.7 39.1-28.6 10.3-3 20.1-4.5 28.2-4.5 5.5 0 10.2.7 13.7 2s5.8 3.2 6.5 5.7v.1c1.2 4.2-2.2 9.4-9.4 14.8Z"/>
  <path fill="#C9EBFF" d="M530.3 559.7c-.7-2.6-3-4.5-6.5-5.8-3.5-1.3-8.2-2-13.7-2-8.1 0-18 1.5-28.2 4.5-24 7-41.6 19.8-39 28.6 2.5 8.8 24.2 10.3 48.3 3.3a96.2 96.2 0 0 0 29.7-13.8c7.2-5.4 10.6-10.6 9.4-14.8Zm-2.2 2.4v.7c-1 8.4-16.4 19.1-37 25-9.4 2.8-18.4 4.1-26 4.1-8.3 0-14.8-1.6-18-4.7a6.8 6.8 0 0 1-1-1.3l-.1-.2-.7-1.5c-2.5-8.6 14-21 36.7-27.6a90 90 0 0 1 30.3-3.9c8.8.7 14.3 3.4 15.5 7.6l.3 1.8Z"/>
  <path fill="#1E76E2" d="M526.9 560.4c-6-6-24.2-6.5-44-.8-19.7 5.7-34.8 15.8-36.8 24-1.9-8 14.2-19.7 36.2-26a95.3 95.3 0 0 1 30-4c8.1.7 13.3 3 14.6 6.8Z"/>
  <path fill="#C9EBFF" d="M483.2 560.5c-20.4 6-36.3 16.8-36.3 25 4.3 6.7 23.1 7.5 44 1.5 20.7-6 36.2-16.8 36.3-24.8-4.3-6.8-23.5-7.6-44-1.7Z"/>
  <path fill="#1E76E2" d="M524 584.8a96.4 96.4 0 0 1-30 14 103.3 103.3 0 0 1-32.6 4c-9.4-.6-15.3-3.6-16.7-8.2-.1-.3 0-.5.3-.6.2 0 .5 0 .6.3 2.5 8.9 24.2 10.4 48.2 3.5 24-7 41.6-19.8 39.1-28.8 0-.2 0-.5.3-.5.3-.1.6 0 .6.3 1.3 4.6-2.2 10.3-9.8 16Z"/>
  <path fill="#1E76E2" d="M533.5 569.4h-.1a.5.5 0 0 1-.5-.4l-1.6-5.8-1-3.5a.5.5 0 1 1 1-.2l2.5 9.3c.1.2 0 .5-.3.6Z"/>
  <path fill="#1E76E2" d="M493.8 597.8c-24 7-45.7 5.4-48.2-3.5v-.2l-.2-.3v-.2l-.1-.3-1.5-5c3.4 3.5 10.5 5.3 19.6 5.3 8.1 0 17.9-1.5 28-4.4a97.2 97.2 0 0 0 30-14c5.7-4.1 9-8.3 9.9-12l1.6 5.8c2.5 9-15 21.9-39 28.8Z"/>
  <path fill="#1E76E2" d="M445.2 594.9h-.2l-.3-.2v-.1l-2.8-9.4c0-.2.1-.5.4-.5.2-.1.5 0 .5.3l1 3.4 1.5 5 .2.7v.2c.1.3 0 .5-.3.6ZM118.2 79.1V80.5c-.2.2-.3.3-.5.3a.5.5 0 0 1-.5-.5V79c0-13.3-8-25.5-21-32a44.7 44.7 0 0 0-42.5 1.5A36 36 0 0 0 35.3 81v.8l.2 1.6c0 .2-.2.5-.4.5H35l-.4-.1v-.3a23.7 23.7 0 0 1-.2-1.7v-.5l-.1-1a35.8 35.8 0 0 1 10.7-26l.2-.3a45.7 45.7 0 0 1 61-1.2l.2.1a35.7 35.7 0 0 1 11.8 25.4v1-.1Z"/>
  <path fill="#1E76E2" d="M118.2 80.3v1l-.2.3-.4.2a.5.5 0 0 1-.5-.6v-.9l.2-.3.4-.2.4.2V80.3Z"/>
  <path fill="#1E76E2" d="M118.2 76.8a36 36 0 0 0-13-26.5 44 44 0 0 0-30-10.3 44.1 44.1 0 0 0-29.4 12 35.9 35.9 0 0 0-11.6 27v1.3l.1.7v.1l.1.8.2 1.8a34.7 34.7 0 0 0 3.2 9.9 42.2 42.2 0 0 0 21.6 19.3 45.6 45.6 0 0 0 47.2-9 36.3 36.3 0 0 0 11.5-23.4v-1.4l.1-.1v-2.2ZM106 103.3a44.5 44.5 0 0 1-58 1.6 37 37 0 0 1-9-11.3l-.4-1A33.6 33.6 0 0 1 35.3 81V79A34.6 34.6 0 0 1 45 54.2l.2-.3 1.3-1.2a43 43 0 0 1 30-11.7 43 43 0 0 1 29.8 11.7l.1.1a33.8 33.8 0 0 1 10.8 25.5v1c-.4 9-4.4 17.4-11.3 24Z"/>
  <path fill="#1E76E2" d="M121.7 76.7C121 54.1 100.2 36.3 75 37a47.7 47.7 0 0 0-31.8 13 38.9 38.9 0 0 0-12.5 30.8v.5l.2 1.5a35.3 35.3 0 0 0 3 10.5 43.2 43.2 0 0 0 25.4 23 49.3 49.3 0 0 0 18 2.8c20-.6 36.8-13 42.3-29.5.7-1.9 1.2-3.8 1.5-5.9v-.4l.1-.4.2-2v-.2l.1-1.5v-2.4ZM77.3 118a48.3 48.3 0 0 1-18.9-3.3 42.3 42.3 0 0 1-23.3-21.4l-.5-1A37.4 37.4 0 0 1 32 81.2v-.6a37 37 0 0 1 12.1-30 46.7 46.7 0 0 1 32.5-12.7c23.9 0 43.6 17.2 44.1 38.9v3.8c-1.7 20.4-20.3 36.7-43.3 37.4Zm43.2-37.3C119 101 100.3 117.3 77.3 118a48.3 48.3 0 0 1-18.9-3.3 42.3 42.3 0 0 1-23.3-21.4l-.5-1A37.4 37.4 0 0 1 32 81.2v1.3l.2 2v.3a39.5 39.5 0 0 0 1.4 7.4l.4 1a43.2 43.2 0 0 0 25.5 23 49.3 49.3 0 0 0 18 2.8c20-.6 36.8-13 42.4-29.5l.1-.7.2-.8a29.1 29.1 0 0 0 .4-4V80.7Zm0 0C119 101 100.3 117.3 77.3 118a48.3 48.3 0 0 1-18.9-3.3 42.3 42.3 0 0 1-23.3-21.4l-.5-1A37.4 37.4 0 0 1 32 81.2v1.3l.2 2v.3a39.5 39.5 0 0 0 1.4 7.4l.4 1a43.2 43.2 0 0 0 25.5 23 49.3 49.3 0 0 0 18 2.8c20-.6 36.8-13 42.4-29.5l.1-.7.2-.8a29.1 29.1 0 0 0 .4-4V80.7Zm0 0C119 101 100.3 117.3 77.3 118a48.3 48.3 0 0 1-18.9-3.3 42.3 42.3 0 0 1-23.3-21.4l-.5-1A37.4 37.4 0 0 1 32 81.2v1.3l.2 2v.3a39.5 39.5 0 0 0 1.4 7.4l.4 1a43.2 43.2 0 0 0 25.5 23 49.3 49.3 0 0 0 18 2.8c20-.6 36.8-13 42.4-29.5l.1-.7.2-.8a29.1 29.1 0 0 0 .4-4V80.7Zm0 0C119 101 100.3 117.3 77.3 118a48.3 48.3 0 0 1-18.9-3.3 42.3 42.3 0 0 1-23.3-21.4l-.5-1A37.4 37.4 0 0 1 32 81.2v1.3l.2 2v.3a39.5 39.5 0 0 0 1.4 7.4l.4 1a43.2 43.2 0 0 0 25.5 23 49.3 49.3 0 0 0 18 2.8c20-.6 36.8-13 42.4-29.5l.1-.7.2-.8a29.1 29.1 0 0 0 .4-4V80.7Zm0 0C119 101 100.3 117.3 77.3 118a48.3 48.3 0 0 1-18.9-3.3 42.3 42.3 0 0 1-23.3-21.4l-.5-1A37.4 37.4 0 0 1 32 81.2v1.3l.2 2v.3a39.5 39.5 0 0 0 1.4 7.4l.4 1a43.2 43.2 0 0 0 25.5 23 49.3 49.3 0 0 0 18 2.8c20-.6 36.8-13 42.4-29.5l.1-.7.2-.8a29.1 29.1 0 0 0 .4-4V80.7Zm0 0C119 101 100.3 117.3 77.3 118a48.3 48.3 0 0 1-18.9-3.3 42.3 42.3 0 0 1-23.3-21.4l-.5-1A37.4 37.4 0 0 1 32 81.2v1.3l.2 2v.3a39.5 39.5 0 0 0 1.4 7.4l.4 1a43.2 43.2 0 0 0 25.5 23 49.3 49.3 0 0 0 18 2.8c20-.6 36.8-13 42.4-29.5l.1-.7.2-.8a29.1 29.1 0 0 0 .4-4V80.7Zm0 0C119 101 100.3 117.3 77.3 118a48.3 48.3 0 0 1-18.9-3.3 42.3 42.3 0 0 1-23.3-21.4l-.5-1A37.4 37.4 0 0 1 32 81.2v1.3l.2 2v.3a39.5 39.5 0 0 0 1.4 7.4l.4 1a43.2 43.2 0 0 0 25.5 23 49.3 49.3 0 0 0 18 2.8c20-.6 36.8-13 42.4-29.5l.1-.7.2-.8a29.1 29.1 0 0 0 .4-4V80.7Zm0 0C119 101 100.3 117.3 77.3 118a48.3 48.3 0 0 1-18.9-3.3 42.3 42.3 0 0 1-23.3-21.4l-.5-1A37.4 37.4 0 0 1 32 81.2v1.3l.2 2v.3a39.5 39.5 0 0 0 1.4 7.4l.4 1a43.2 43.2 0 0 0 25.5 23 49.3 49.3 0 0 0 18 2.8c20-.6 36.8-13 42.4-29.5l.1-.7.2-.8a29.1 29.1 0 0 0 .4-4V80.7Zm0 0C119 101 100.3 117.3 77.3 118a48.3 48.3 0 0 1-18.9-3.3 42.3 42.3 0 0 1-23.3-21.4l-.5-1A37.4 37.4 0 0 1 32 81.2v1.3l.2 2v.3a39.5 39.5 0 0 0 1.4 7.4l.4 1a43.2 43.2 0 0 0 25.5 23 49.3 49.3 0 0 0 18 2.8c20-.6 36.8-13 42.4-29.5l.1-.7.2-.8a29.1 29.1 0 0 0 .4-4V80.7Zm0 0C119 101 100.3 117.3 77.3 118a48.3 48.3 0 0 1-18.9-3.3 42.3 42.3 0 0 1-23.3-21.4l-.5-1A37.4 37.4 0 0 1 32 81.2v1.3l.2 2v.3a39.5 39.5 0 0 0 1.4 7.4l.4 1a43.2 43.2 0 0 0 25.5 23 49.3 49.3 0 0 0 18 2.8c20-.6 36.8-13 42.4-29.5l.1-.7.2-.8a29.1 29.1 0 0 0 .4-4V80.7Zm0 0C119 101 100.3 117.3 77.3 118a48.3 48.3 0 0 1-18.9-3.3 42.3 42.3 0 0 1-23.3-21.4l-.5-1A37.4 37.4 0 0 1 32 81.2v1.3l.2 2v.3a39.5 39.5 0 0 0 1.4 7.4l.4 1a43.2 43.2 0 0 0 25.5 23 49.3 49.3 0 0 0 18 2.8c20-.6 36.8-13 42.4-29.5l.1-.7.2-.8a29.1 29.1 0 0 0 .4-4V80.7Zm0 0C119 101 100.3 117.3 77.3 118a48.3 48.3 0 0 1-18.9-3.3 42.3 42.3 0 0 1-23.3-21.4l-.5-1A37.4 37.4 0 0 1 32 81.2v1.3l.2 2v.3a39.5 39.5 0 0 0 1.4 7.4l.4 1a43.2 43.2 0 0 0 25.5 23 49.3 49.3 0 0 0 18 2.8c20-.6 36.8-13 42.4-29.5l.1-.7.2-.8a29.1 29.1 0 0 0 .4-4V80.7Zm0 0C119 101 100.3 117.3 77.3 118a48.3 48.3 0 0 1-18.9-3.3 42.3 42.3 0 0 1-23.3-21.4l-.5-1A37.4 37.4 0 0 1 32 81.2v1.3l.2 2v.3a39.5 39.5 0 0 0 1.4 7.4l.4 1a43.2 43.2 0 0 0 25.5 23 49.3 49.3 0 0 0 18 2.8c20-.6 36.8-13 42.4-29.5l.1-.7.2-.8a29.1 29.1 0 0 0 .4-4V80.7Zm0 0C119 101 100.3 117.3 77.3 118a48.3 48.3 0 0 1-18.9-3.3 42.3 42.3 0 0 1-23.3-21.4l-.5-1A37.4 37.4 0 0 1 32 81.2v1.3l.2 2v.3a39.5 39.5 0 0 0 1.4 7.4l.4 1a43.2 43.2 0 0 0 25.5 23 49.3 49.3 0 0 0 18 2.8c20-.6 36.8-13 42.4-29.5l.1-.7.2-.8a29.1 29.1 0 0 0 .4-4V80.7Zm0 0C119 101 100.3 117.3 77.3 118a48.3 48.3 0 0 1-18.9-3.3 42.3 42.3 0 0 1-23.3-21.4l-.5-1A37.4 37.4 0 0 1 32 81.2v1.3l.2 2v.3a39.5 39.5 0 0 0 1.4 7.4l.4 1a43.2 43.2 0 0 0 25.5 23 49.3 49.3 0 0 0 18 2.8c20-.6 36.8-13 42.4-29.5l.1-.7.2-.8a29.1 29.1 0 0 0 .4-4V80.7Z"/>
  <path fill="#EDF8FF" d="M120.7 76.8C120 55 100.4 37.9 76.5 37.9H75c-11.8.4-22.9 4.8-31 12.6a37.8 37.8 0 0 0-12.2 30.1v.6l.1 1.5a36.3 36.3 0 0 0 3 10.6 42.3 42.3 0 0 0 23.4 21.4l1 .4c5.5 2 11.6 3 18 2.9 23-.7 41.5-17 43.1-37.3v-.1l.1-1.5v-2.3Zm-2.5 1.5v2a10 10 0 0 1 0 1l-.2.2c-1 8.4-4.9 16.2-11.4 22.4a44.1 44.1 0 0 1-29.4 12H76a45.5 45.5 0 0 1-17.6-3.5c-4-1.7-7.8-4-11.1-6.9a37.9 37.9 0 0 1-12.8-22.2l-.1-1.5V80.9l-.1-.6V79A35.9 35.9 0 0 1 45.7 52 44 44 0 0 1 75.2 40a44 44 0 0 1 30 10.3 36 36 0 0 1 13 26.5v1.5Z"/>
  <path fill="#1E76E2" d="M106.2 52.6a45.7 45.7 0 0 0-59.8 0 43 43 0 0 1 30-11.6 43 43 0 0 1 29.8 11.6Z"/>
  <path fill="#EDF8FF" d="M117.2 79c0-13.3-8-25.5-21-32a44.7 44.7 0 0 0-42.5 1.6 36 36 0 0 0-18.4 32.2v.1A33.6 33.6 0 0 0 39 93.7a37 37 0 0 0 9 11.2 41.3 41.3 0 0 0 11.4 6.9 44.5 44.5 0 0 0 46.5-8.5c7-6.6 10.9-15 11.3-24v-.1Z"/>
  <path fill="#1E76E2" d="M119.8 89.6C115.8 108 97.5 122 76 122h-.2a43.6 43.6 0 0 1-42.6-30.5 45.1 45.1 0 0 0 44 27.4c20.2-.5 37-12.9 42.5-29.4Z"/>
  <path fill="#1E76E2" d="M121.6 83.2a39.2 39.2 0 0 1-14 28.4A47.9 47.9 0 0 1 76.1 123h-.2c-12 0-23.2-4.3-31.6-11.8a38.8 38.8 0 0 1-13.2-26.4v-2.1c0-.3.2-.5.5-.5.1 0 .3 0 .4.2v.3l.1 1.8v.2a40.4 40.4 0 0 0 1 6l.2.8a43.6 43.6 0 0 0 42.6 30.5h.2c21.4 0 39.7-14 43.7-32.5l.1-.8.2-.8a28.8 28.8 0 0 0 .4-4v-.8l.1-.2c0-.2.3-.3.5-.3l.2.1.2.2v.2Z"/>
</svg>
