<svg xmlns="http://www.w3.org/2000/svg" fill="none" viewBox="0 0 640 641">
  <rect width="96" height="96" fill="#1E76E2" rx="9.6" transform="matrix(.99 -.14 .326 .946 0 462)"/>
  <rect width="97" height="97" x="-.7" y="-.4" fill="#EDF8FF" stroke="#1E76E2" rx="10.1" transform="matrix(.99 -.14 .326 .946 3.9 455.4)"/>
  <path fill="#1E76E2" d="m54.8 457-.5-1.4.5 1.4Zm6.6 4 1.5-.1-1.5.2Zm6.4 18.6-1.5.3.4 1 1.2.2v-1.5Zm25.7 19.5 1.5-.2-1.5.2Zm-16 26 .6 1.4-.5-1.4Zm-31.4-19.3-1.5.2 1.5-.2ZM56.9 481l.8 1.3 1-.4-.3-1.1-1.5.2Zm-6.4-18.5-1.5.2 1.5-.2Zm3.4-5.4-.5-1.4.5 1.4Zm1-.2.4 1.5c2-.3 4 1 4.6 2.8l1.5-.2 1.5-.2a8.2 8.2 0 0 0-8.6-5.3l.5 1.4Zm6.5 4-1.5.3 6.4 18.6 1.5-.3 1.5-.2-6.4-18.5-1.5.2Zm6.4 18.6.1 1.5c10.6.9 20.7 8.2 24.1 18.2l1.5-.2 1.5-.2a32.4 32.4 0 0 0-27.3-20.7l.1 1.4Zm25.7 19.5-1.5.2c4 11.7-2.6 22.7-15 24.4l.6 1.4.5 1.4c13.9-2 21.5-14.3 16.9-27.6l-1.5.2Zm-16 26-.4-1.4a28.3 28.3 0 0 1-29.6-18.1l-1.4.2-1.5.2A32.1 32.1 0 0 0 78 526.5l-.5-1.4Zm-31.4-19.3 1.4-.2c-3.4-10.1 1-19.6 10.2-23.2l-.8-1.3-.8-1.3c-10.4 4-15.5 14.7-11.5 26.2l1.5-.2ZM56.9 481l1.5-.2-6.4-18.5-1.5.2-1.5.2 6.4 18.5 1.5-.2Zm-6.4-18.5 1.5-.2c-.6-1.8.4-3.5 2.3-3.8l-.4-1.4-.5-1.4a5.2 5.2 0 0 0-4.4 7l1.5-.2Zm3.4-5.4.4 1.4 1-.1-.5-1.5-.5-1.4-1 .2.6 1.4Z"/>
  <rect width="17.3" height="7.7" fill="#1E76E2" rx="2" transform="matrix(.99 -.14 .326 .946 48.3 465.8)"/>
  <path fill="#1E76E2" d="M86.5 493.7c1.4 1.8 2.4 3.8 3.2 6a16 16 0 0 1-13.4 21.7A25.4 25.4 0 0 1 50 505.2c-.8-2.1-1-4.2-1-6.2l37.6-5.3Z"/>
  <rect width="90.4" height="90.4" fill="#1E76E2" rx="9.6" transform="matrix(1 .017 -.292 .956 538.5 71.9)"/>
  <rect width="91.4" height="91.4" x="-.4" y="-.5" fill="#EDF8FF" stroke="#1E76E2" rx="10.1" transform="matrix(1 .017 -.292 .956 534.6 65.6)"/>
  <path fill="#1E76E2" d="m589 78.8-.4 1.2c-2.4 8 2.2 14.5 10.4 14.8h.4l-6.4 20.7c-2.4 8.1-10 15.2-18.8 17.8l-7 2a29 29 0 0 0-8.9 4.5l-1 .8-.5-.7a13.6 13.6 0 0 0-6.3-5l-5.6-2.1c-7.2-2.9-10.3-10.2-7.8-18.3l6.3-20.7a21.4 21.4 0 0 0 20-15.4l25.6.4Zm-24.2 4.7-.4 1.4-.2.3A19 19 0 0 1 548 97.5l-1.4.1-5 16.2v.4c-2.1 7.3 1 13.8 7.8 16l2.8.8c2.4.8 4.3 2.2 5.6 4l.8 1.2 1.4-1c2.5-2 5.3-3.2 8.2-4l3.1-.7c8-1.9 15.1-8.2 17.5-15.5l.1-.3 5.3-17.2-1.4-.1c-6.7-.5-10.6-5.8-9.2-12.3l.3-1.3-19-.3Zm15.5 3.1c-.9 6.9 3.2 12.4 10 13.5l-4.4 14.5-.2.6c-2 5.7-7.5 10.7-13.7 12.4l-.6.2-3.2.7c-3 .7-5.8 2-8.4 3.6a12.7 12.7 0 0 0-5.4-3.6l-.5-.2-2.8-.9c-5.5-1.8-8.2-7-6.6-13l.2-.5 4.1-13.6c7.7-1 15.2-6.7 18-14l13.5.3Z"/>
</svg>
