<svg xmlns="http://www.w3.org/2000/svg" fill="none" viewBox="0 0 640 640">
  <rect width="96" height="96" fill="#1E76E2" rx="9.6" transform="matrix(.99 -.14 .326 .946 0 90)"/>
  <rect width="97" height="97" x="-.7" y="-.4" fill="#EDF8FF" stroke="#1E76E2" rx="10.1" transform="matrix(.99 -.14 .326 .946 3.9 83.2)"/>
  <path fill="#1E76E2" d="m77 151.4-45.5-32.3L41 94.9l16.4-2.3 16.4-2.3L97.1 110l-20 41.5Z"/>
  <path stroke="#EDF8FF" stroke-width="2" d="m31.5 119 45.6 32.4m-45.6-32.3L41 94.9m-9.4 24.2 16.9-2.4m28.7 34.7L97 110m-20 41.5 4-39.3m-4 39.3-28.7-34.7m48.7-6.8L73.7 90.3M97.1 110l-16 2.2M41 94.9l7.5 21.8m-7.5-21.8 16.4-2.3m16.4-2.3 7.5 21.8m-7.5-21.8-16.4 2.3m23.9 19.5-32.8 4.6m32.8-4.6L57.3 92.6m-8.9 24.1 8.9-24"/>
  <rect width="90.4" height="90.4" fill="#1E76E2" rx="9.6" transform="matrix(1 .017 -.292 .956 532.1 469.6)"/>
  <rect width="91.4" height="91.4" x="-.4" y="-.5" fill="#EDF8FF" stroke="#1E76E2" rx="10.1" transform="matrix(1 .017 -.292 .956 528.3 463.3)"/>
  <path fill="#1E76E2" d="M580.8 511.7c3.6-4.3 5.8-9 6.6-13.8 1-6.5-.6-11.9-5-15.9-5.9-5.3-13.8-6.6-23.4-3.4a34.8 34.8 0 0 0-21.4 19c-2 4.6-2.6 9-1.7 13.2.3 1.8 0 3.4-1.4 5.2-2.1 2.9-2 6.2.4 7.8 1.7 1.3 4 1.3 6.5.3 1.5-.6 2.4 0 2 1.4l-1.1 4.8c-.1.6 0 1.1.2 1.5.5.6 1.3.7 2.1.7.5 0 .6 0 .8-.5l1.2-4c.2-.8 1-1.3 1.8-1.2.6 0 1 .6.7 1.3l-1.2 4c-.1.4 0 .5.3.5h1.8c.4 0 .6 0 .7-.5l1.2-4c.3-.7 1-1.3 1.8-1.2.7 0 1 .5.8 1.3l-1.2 4c-.2.4 0 .5.4.5h1.7c.4 0 .6-.1.7-.5l1.2-4c.2-.7 1-1.2 1.7-1.2s1 .5.9 1.3l-.6 2-.5 1.4c-.2.7 0 1 .8 1 1.4 0 2.6-.8 3.1-2.1l1.4-3.8.5-1.2c.4-.9 1.7-1.7 2.9-1 2 1.3 5.2 1 7.8-.8 2.6-1.8 4.2-4.6 3.8-7-.3-1.8.4-3.4 1.7-5Zm-33.8 1.8c-3.1.1-4.5-2-4.4-4 0-2.7 2.6-5 5.5-5l6.2.2c1.7 0 2.4 1.1 1.8 2.7a9.7 9.7 0 0 1-9.1 6.1Zm10.3 7h-3.6c-1.2 0-1.6-1-.9-2 .6-1 1.3-1.9 2-2.7.6-1 1.6-1.5 2.6-1.5 1.1 0 1.7.6 1.9 1.5l.2 2.7c.1 1.1-1 2.1-2.2 2Zm17.5-10a7.7 7.7 0 0 1-6 3.4c-2.7.1-4.7-.8-5.6-2.9a5.3 5.3 0 0 1-.1-3.8 3.4 3.4 0 0 1 3-2.3h6.4c2.9 0 4.4 2.6 2.3 5.6Z"/>
</svg>
