<svg width="1920" height="680" viewBox="0 0 1920 680" fill="none" xmlns="http://www.w3.org/2000/svg">
<g clip-path="url(#clip0_6159_40657)">
<rect y="-0.289215" width="1920" height="680" fill="url(#paint0_linear_6159_40657)"/>
<g opacity="0.3" filter="url(#filter0_f_6159_40657)">
<ellipse cx="802.479" cy="372.11" rx="802.479" ry="372.11" transform="matrix(0.827871 -0.560919 -0.560919 -0.827871 -262.551 655.602)" fill="#00A3FF"/>
</g>
<g opacity="0.3" filter="url(#filter1_f_6159_40657)">
<ellipse cx="1637.25" cy="-81.6998" rx="765.249" ry="372.11" transform="rotate(-145.881 1637.25 -81.6998)" fill="#00A3FF"/>
</g>
<g filter="url(#filter2_f_6159_40657)">
<ellipse cx="959" cy="60.9985" rx="643" ry="160" transform="rotate(180 959 60.9985)" fill="#1E76E2"/>
</g>
<g opacity="0.4" filter="url(#filter3_f_6159_40657)">
<path d="M2182.99 -645.867C1957.78 -993.719 1493.22 -1093.14 1145.37 -867.926C797.518 -642.714 698.099 -178.154 923.311 169.698C1148.52 517.55 1613.08 616.97 1960.94 391.757C2308.79 166.545 2408.21 -298.015 2182.99 -645.867Z" fill="#B0E0FF"/>
</g>
<path d="M2128.58 -610.636C1922.83 -928.435 1498.4 -1019.26 1180.6 -813.51C862.804 -607.755 771.974 -183.331 977.729 134.468C1183.48 452.267 1607.91 543.097 1925.71 337.342C2243.51 131.587 2334.34 -292.837 2128.58 -610.636Z" fill="url(#paint1_radial_6159_40657)"/>
<path d="M1908.86 114.2C1843.37 149.607 1767.56 131.197 1739.52 73.0825C1711.49 14.9675 1741.85 -60.8465 1807.34 -96.2527C1872.83 -131.659 1948.64 -113.25 1976.67 -55.1347C2004.71 2.98032 1974.35 78.7942 1908.86 114.2Z" fill="#A0D5FF"/>
<path d="M1917.25 -107.742C1854.06 -128.345 1779.2 -87.2318 1750.03 -16.0406C1734.69 21.3814 1735.14 59.5297 1748.02 90.4154C1728.98 57.6163 1725.81 13.6062 1743.43 -29.417C1772.64 -100.689 1847.53 -141.698 1910.65 -121.119C1940.67 -111.334 1962.56 -89.2897 1974.18 -61.2997C1961.64 -82.8711 1942.29 -99.5764 1917.25 -107.742Z" fill="#3A99E4"/>
<path d="M1121.15 23.2519C1104.01 65.2713 1060.07 89.4625 1023.02 77.2845C985.964 65.1064 969.823 21.1706 986.966 -20.8488C1004.11 -62.8681 1048.05 -87.0593 1085.1 -74.8812C1122.15 -62.7032 1138.29 -18.7675 1121.15 23.2519Z" fill="#A0D5FF"/>
<path d="M1088.7 -67.2869C1051.63 -79.3727 1007.75 -55.3083 990.618 -13.5027C981.639 8.41476 981.906 30.8628 989.424 48.9572C978.274 29.7706 976.407 3.85657 986.717 -21.308C1003.85 -63.1135 1047.73 -87.1779 1084.8 -75.0921C1102.43 -69.3425 1115.25 -56.421 1122.08 -40.0243C1114.69 -52.6488 1103.38 -62.4995 1088.7 -67.2869Z" fill="#3A99E4"/>
<path d="M1774.33 155.642C1779.32 143.397 1774.64 130.656 1763.84 127.107C1753.05 123.559 1740.31 130.573 1735.31 142.819C1730.31 155.064 1735 167.804 1745.79 171.353C1756.59 174.902 1769.33 167.887 1774.33 155.642Z" fill="#A0D5FF"/>
<path d="M1764.88 129.347C1754.08 125.827 1741.35 132.81 1736.36 144.986C1733.76 151.318 1733.85 157.88 1736.03 163.101C1732.77 157.528 1732.26 150.001 1735.26 142.695C1740.25 130.518 1752.98 123.535 1763.78 127.056C1768.89 128.722 1772.63 132.52 1774.62 137.219C1772.45 133.565 1769.23 130.674 1764.91 129.266L1764.88 129.347Z" fill="#3A99E4"/>
<path d="M1172.23 43.9311C1177.23 31.6861 1172.55 18.9456 1161.75 15.3967C1150.95 11.8479 1138.21 18.8628 1133.21 31.1078C1128.22 43.3529 1132.9 56.0934 1143.7 59.6423C1154.49 63.1912 1167.23 56.1762 1172.23 43.9311Z" fill="#A0D5FF"/>
<path d="M1162.85 17.6688C1152.06 14.1485 1139.32 21.1314 1134.33 33.3081C1131.74 39.64 1131.83 46.2015 1134.01 51.4231C1130.75 45.8495 1130.24 38.3226 1133.23 31.0166C1138.22 18.8399 1150.96 11.8571 1161.75 15.3773C1166.86 17.0436 1170.61 20.8421 1172.6 25.5404C1170.43 21.8866 1167.21 18.9957 1162.89 17.5876L1162.85 17.6688Z" fill="#3A99E4"/>
<path d="M1255.25 216.938C1265.21 192.53 1255.81 166.943 1234.29 159.869C1212.76 152.795 1187.18 166.883 1177.22 191.292C1167.26 215.7 1176.66 241.286 1198.18 248.361C1219.71 255.435 1245.29 241.347 1255.25 216.938Z" fill="#A0D5FF"/>
<path d="M1236.46 164.3C1214.94 157.283 1189.37 171.306 1179.42 195.579C1174.2 208.324 1174.34 221.342 1178.74 231.89C1172.22 220.743 1171.2 205.689 1177.19 191.077C1187.13 166.805 1212.71 152.781 1234.23 159.798C1244.45 163.131 1251.9 170.623 1255.89 180.206C1251.65 172.84 1244.99 167.174 1236.5 164.405L1236.46 164.3Z" fill="#3A99E4"/>
<path d="M1894.44 281.043C1904.4 256.635 1895 231.049 1873.47 223.974C1851.95 216.9 1826.36 230.988 1816.4 255.397C1806.45 279.805 1815.85 305.391 1837.37 312.466C1858.9 319.54 1884.48 305.452 1894.44 281.043Z" fill="#A0D5FF"/>
<path d="M1875.65 228.405C1854.13 221.388 1828.55 235.412 1818.61 259.684C1813.39 272.429 1813.52 285.447 1817.93 295.995C1811.4 284.848 1810.39 269.794 1816.38 255.182C1826.32 230.91 1851.89 216.887 1873.41 223.904C1883.63 227.236 1891.09 234.728 1895.08 244.311C1890.83 236.946 1884.18 231.279 1875.69 228.51L1875.65 228.405Z" fill="#3A99E4"/>
<path d="M1706.18 127.397C1690.09 166.846 1648.84 189.558 1614.05 178.124C1579.26 166.691 1564.11 125.442 1580.2 85.993C1596.3 46.5435 1637.55 23.8318 1672.33 35.2651C1707.12 46.6984 1722.28 87.947 1706.18 127.397Z" fill="#A0D5FF"/>
<path d="M1675.75 42.3641C1640.99 31.0296 1599.73 53.6509 1583.67 92.8581C1575.22 113.476 1575.45 134.437 1582.58 151.485C1572.1 133.439 1570.36 109.221 1580.07 85.5185C1596.13 46.3113 1637.38 23.6901 1672.15 35.0246C1688.7 40.422 1700.72 52.5277 1707.12 67.9588C1700.25 56.0562 1689.57 46.8698 1675.75 42.3641Z" fill="#3A99E4"/>
<path opacity="0.1" d="M1527.08 208.716C1355.17 258.705 1180.13 250.856 1022.82 196.704C1191.61 402.148 1472.56 498.88 1744.05 419.949C2107.63 314.293 2316.68 -66.1056 2210.95 -429.665C2192.02 -494.805 2164.12 -554.881 2129.29 -609.168C2136.4 -240.972 1897.6 100.926 1527.06 208.639L1527.08 208.716Z" fill="#0D7CD8"/>
<path opacity="0.1" d="M1617.03 311.2C1454.22 358.5 1288.64 354.003 1137.96 307.367C1304.9 434.31 1527.69 483.319 1744.51 420.218C2102.57 316.112 2310.55 -54.4113 2215.79 -412.903C2184.62 -81.6846 1955.85 212.613 1617 311.123L1617.03 311.2Z" fill="#0D7CD8"/>
<path opacity="0.2" d="M1452.07 589.868C1443.57 591.668 2174.77 585.468 2201.57 581.968C2228.37 578.468 2174.37 571.768 2147.57 574.368C2120.77 576.968 2065.67 579.668 2065.67 579.668C2065.67 579.668 2075.87 571.768 2035.07 570.168C1994.27 568.568 1949.17 569.368 1949.17 569.368C1949.17 569.368 1946.87 561.668 1921.07 559.168C1895.27 556.568 1875.17 560.569 1875.17 560.569C1875.17 560.569 1868.97 542.968 1816.67 544.368C1764.37 545.768 1733.77 564.668 1733.77 564.668C1733.77 564.668 1717.37 564.268 1700.57 567.168C1683.77 570.068 1677.77 575.368 1677.77 575.368C1677.77 575.368 1669.77 562.069 1638.07 563.569C1606.37 565.069 1595.07 579.368 1595.07 579.368C1595.07 579.368 1497.37 580.268 1452.07 589.868Z" fill="white"/>
<path opacity="0.1" d="M-172.52 266.371C-179.62 268.571 423.18 267.071 445.38 262.871C467.58 258.671 423.38 249.771 401.18 252.871C378.98 255.971 333.48 258.771 333.48 258.771C333.48 258.771 342.28 248.871 308.68 246.471C275.08 244.071 237.88 244.771 237.88 244.771C237.88 244.771 236.38 235.071 215.18 231.671C193.98 228.271 177.28 233.071 177.28 233.071C177.28 233.071 172.98 210.871 129.78 212.171C86.5802 213.471 60.5802 237.071 60.5802 237.071C60.5802 237.071 47.0802 236.471 33.1802 239.971C19.2802 243.471 14.0802 250.071 14.0802 250.071C14.0802 250.071 8.08022 233.271 -18.1198 234.971C-44.3198 236.671 -54.2198 254.471 -54.2198 254.471C-54.2198 254.471 -134.72 254.671 -172.52 266.371Z" fill="white"/>
<path d="M-63.0002 234.122C-31.2255 232.067 -29.7685 261.811 -29.7639 261.906C-29.731 261.889 -27.7921 260.891 -24.5363 259.943C-24.5345 259.911 -24.5312 259.879 -24.5295 259.848C-21.892 259.122 -18.5391 258.45 -14.677 258.302C-10.8002 258.126 -6.40317 258.477 -1.76584 259.849C13.3635 264.324 13.9338 277.04 13.9451 277.337C14.0934 277.333 14.3214 277.327 14.6238 277.32C18.9852 277.188 43.6108 276.599 65.9138 279.401C89.8494 282.207 83.5912 294.97 83.2498 295.632C86.1575 295.274 117.645 291.351 133.39 287.427C135.971 286.752 138.926 286.468 142.011 286.492H142.214C158.871 286.625 179.325 295.736 165.219 300.599C161.748 301.795 139.89 302.945 107.474 303.991C107.132 304.002 106.787 304.013 106.442 304.024C104.035 304.101 101.571 304.177 99.0535 304.253C98.4392 304.272 97.8217 304.29 97.201 304.309C-30.9616 308.116 -293.801 310.389 -289.607 308.008C-260.811 291.96 -202.022 291.543 -201.986 291.543C-201.986 291.543 -193.324 267.463 -173.785 265.199C-154.247 262.936 -151.226 285.369 -151.226 285.369C-151.226 285.369 -146.794 276.519 -136.32 271.785C-125.871 267.063 -116.024 267.871 -115.976 267.875C-115.976 267.875 -94.8258 235.975 -63.0002 234.122Z" fill="#80BDE8"/>
<path d="M1779.31 488.14C1783.39 478.956 1795.64 471.302 1802.78 466.199C1809.92 461.096 1818.6 460.076 1832.38 458.545C1837.59 457.965 1841.04 456.905 1843.23 455.787C1844.66 454.51 1845.83 453.338 1846.66 452.422C1846.57 453.228 1845.67 454.543 1843.23 455.787C1838.83 459.723 1832.01 464.658 1825.23 466.199C1816.25 468.24 1813.67 470.111 1813.5 470.791C1814.69 472.662 1815.54 477.425 1809.41 481.507C1803.29 485.589 1798.02 481.167 1796.15 478.445C1792.58 482.698 1784.82 492.018 1782.37 495.284C1777.01 502.428 1769.44 504.177 1764.5 506.582C1768.44 503.086 1776.18 495.177 1779.31 488.14Z" fill="white"/>
<path opacity="0.2" fill-rule="evenodd" clip-rule="evenodd" d="M112.559 518.86C112.559 518.86 116.711 515.907 117.018 513.29C117.019 513.277 117.021 513.265 117.022 513.252C116.757 511.379 115.802 509.018 115.16 507.431L115.16 507.43C114.84 506.64 114.598 506.042 114.558 505.791C114.54 505.68 114.596 505.48 114.725 505.209C114.632 504.96 114.571 504.773 114.555 504.664C114.413 503.796 119.004 497.326 127.412 494.555C135.819 491.784 151.41 488.822 151.41 488.822C151.41 488.822 151.149 489.324 150.711 490.091C153.042 489.599 154.543 489.304 154.543 489.304C154.543 489.304 150.839 496.557 147.834 498.283C146.39 499.14 144.448 499.629 142.647 500.083C141.45 500.384 140.314 500.67 139.427 501.038C139.51 500.26 139.656 499.65 139.847 499.141C137.994 499.605 136.299 500.046 135.503 500.844C134.156 502.193 130.961 515.068 130.389 519.879C130.369 520.188 130.369 520.428 130.393 520.586C130.631 522.15 131.806 525.111 132.386 526.511C133.935 526.68 136.193 526.719 138.246 526.755C140.554 526.795 142.603 526.831 143.094 527.041C143.773 527.332 144.301 529.026 144.146 530.544C144.123 530.884 144.068 531.218 143.974 531.528C143.871 532.259 143.603 532.934 143.109 533.372C142.01 534.349 140.195 535.778 138.837 536.566C139.118 536.648 139.342 536.726 139.482 536.797C139.519 536.816 139.556 536.834 139.592 536.853L139.699 536.907C140.378 537.251 140.814 537.471 140.158 537.551C139.582 537.621 139.167 537.55 139.022 537.518C139.275 537.581 140.284 537.858 140.239 538.216C140.214 538.503 139.928 538.474 139.597 538.439C139.412 538.42 139.214 538.4 139.04 538.432C138.552 538.521 135.478 537.635 134.259 536.947C133.616 536.604 132.351 535.718 131.203 534.914C130.561 534.465 129.955 534.041 129.516 533.752C128.676 533.745 127.529 533.843 125.793 534.111C123.816 534.417 120.747 534.481 117.739 534.337C116.947 534.576 116.107 534.918 115.482 535.417C114.118 536.516 106.533 543.061 103.597 546.911C103.274 547.352 103.018 547.754 102.848 548.102C101.565 550.728 100.411 555.5 99.5443 560.182C99.8916 559.846 100.233 559.497 100.565 559.143C100.259 560.781 99.9666 562.459 99.7326 564.028C98.8811 569.705 94.4317 575.811 94.1392 575.218C94.0971 575.132 94.0476 574.914 93.9905 574.591C93.6402 574.983 93.3998 575.149 93.3391 575.026C93.2327 574.811 93.079 573.74 92.8731 572.305C92.5144 569.805 91.9974 566.203 91.2974 564.106C90.1958 560.807 90.6576 543.11 91.4445 539.955C91.5021 539.731 91.5691 539.514 91.6455 539.304C92.5522 536.393 95.1544 534.835 99.278 533.092C101.768 532.039 103.41 530.849 104.349 530.037C104.034 529.789 103.75 529.556 103.507 529.349L103.519 529.353C102.858 528.809 102.431 528.413 102.363 528.342C102.332 528.251 102.033 528.171 101.643 528.066C101.01 527.897 100.138 527.664 99.7836 527.212C99.1295 527.73 98.4453 528.22 98.1601 528.424C98.0981 528.468 98.0549 528.499 98.035 528.514C97.9714 528.561 97.9003 528.597 97.8296 528.633C97.6518 528.723 97.4767 528.811 97.4312 529.072C97.3676 529.437 96.9136 529.472 97.0054 528.498C97.0855 527.648 99.0506 526.285 99.7999 525.776C99.8095 525.725 99.8243 525.671 99.8449 525.616C99.8449 525.616 99.7278 524.779 101.079 523.402C101.082 523.36 101.086 523.319 101.091 523.278C101.472 522.884 102.019 522.43 102.733 521.916C104.173 520.927 106.386 520.432 108.539 520.173C108.574 520.194 108.61 520.217 108.645 520.242C109.318 520.166 109.982 520.115 110.61 520.082C110.461 520.323 110.316 520.614 110.294 520.904C111.588 520.826 112.738 520.824 113.513 520.829L112.509 520.352C112.509 520.352 113.021 519.986 113.702 519.397L112.559 518.86ZM131.25 533.976C132.112 534.624 132.937 535.232 133.451 535.373C133.858 535.474 134.529 535.611 135.283 535.765L135.284 535.765L135.286 535.765L135.716 535.853C135.142 535.612 134.523 535.324 133.938 535.051C133.089 534.656 132.312 534.294 131.85 534.158C131.647 534.093 131.452 534.031 131.25 533.976ZM116.428 520.678L118.104 521.466C117.311 521.296 116.574 521.151 115.944 521.044C116.098 520.935 116.26 520.813 116.428 520.678Z" fill="white"/>
<path opacity="0.1" d="M1091.66 570.91C1123.43 568.855 1124.89 598.599 1124.89 598.694C1124.93 598.677 1126.86 597.679 1130.12 596.73C1130.12 596.699 1130.13 596.667 1130.13 596.636C1132.76 595.91 1136.12 595.238 1139.98 595.09C1143.86 594.914 1148.25 595.265 1152.89 596.637C1168.02 601.111 1168.59 613.828 1168.6 614.125C1168.75 614.121 1168.98 614.115 1169.28 614.108C1173.64 613.976 1198.27 613.387 1220.57 616.188C1244.51 618.995 1238.25 631.758 1237.91 632.42C1240.81 632.062 1272.3 628.139 1288.05 624.215C1290.63 623.539 1293.58 623.256 1296.67 623.28H1296.87C1313.53 623.413 1333.98 632.524 1319.87 637.387C1316.4 638.583 1294.55 639.733 1262.13 640.779C1261.79 640.79 1261.44 640.8 1261.1 640.811C1258.69 640.889 1256.23 640.965 1253.71 641.041C1253.1 641.059 1252.48 641.078 1251.86 641.097C1123.69 644.903 860.855 647.177 865.05 644.796C893.845 628.748 952.634 628.331 952.671 628.331C952.671 628.331 961.332 604.251 980.871 601.987C1000.41 599.724 1003.43 622.157 1003.43 622.157C1003.43 622.157 1007.86 613.307 1018.34 608.573C1028.79 603.851 1038.63 604.659 1038.68 604.663C1038.68 604.663 1059.83 572.763 1091.66 570.91Z" fill="white"/>
</g>
<defs>
<filter id="filter0_f_6159_40657" x="-853.478" y="-998.083" width="2093.1" height="1791" filterUnits="userSpaceOnUse" color-interpolation-filters="sRGB">
<feFlood flood-opacity="0" result="BackgroundImageFix"/>
<feBlend mode="normal" in="SourceGraphic" in2="BackgroundImageFix" result="shape"/>
<feGaussianBlur stdDeviation="175" result="effect1_foregroundBlur_6159_40657"/>
</filter>
<filter id="filter1_f_6159_40657" x="620.045" y="-960.086" width="2034.41" height="1756.77" filterUnits="userSpaceOnUse" color-interpolation-filters="sRGB">
<feFlood flood-opacity="0" result="BackgroundImageFix"/>
<feBlend mode="normal" in="SourceGraphic" in2="BackgroundImageFix" result="shape"/>
<feGaussianBlur stdDeviation="175" result="effect1_foregroundBlur_6159_40657"/>
</filter>
<filter id="filter2_f_6159_40657" x="-34" y="-449.002" width="1986" height="1020" filterUnits="userSpaceOnUse" color-interpolation-filters="sRGB">
<feFlood flood-opacity="0" result="BackgroundImageFix"/>
<feBlend mode="normal" in="SourceGraphic" in2="BackgroundImageFix" result="shape"/>
<feGaussianBlur stdDeviation="175" result="effect1_foregroundBlur_6159_40657"/>
</filter>
<filter id="filter3_f_6159_40657" x="549.138" y="-1242.1" width="2008.03" height="2008.03" filterUnits="userSpaceOnUse" color-interpolation-filters="sRGB">
<feFlood flood-opacity="0" result="BackgroundImageFix"/>
<feBlend mode="normal" in="SourceGraphic" in2="BackgroundImageFix" result="shape"/>
<feGaussianBlur stdDeviation="126.8" result="effect1_foregroundBlur_6159_40657"/>
</filter>
<linearGradient id="paint0_linear_6159_40657" x1="976.591" y1="-0.289215" x2="973.027" y2="680.024" gradientUnits="userSpaceOnUse">
<stop stop-color="#0045A2"/>
<stop offset="0.7" stop-color="#2FA5E6"/>
<stop offset="0.85" stop-color="#BCE2F9"/>
<stop offset="1" stop-color="#EFF8FF" stop-opacity="0"/>
</linearGradient>
<radialGradient id="paint1_radial_6159_40657" cx="0" cy="0" r="1" gradientUnits="userSpaceOnUse" gradientTransform="translate(1553.16 -238.084) rotate(-32.9205) scale(685.5)">
<stop offset="0.798077" stop-color="#BAE2FF"/>
<stop offset="1" stop-color="#59B5FF"/>
</radialGradient>
<clipPath id="clip0_6159_40657">
<rect width="1920" height="680" fill="white"/>
</clipPath>
</defs>
</svg>
