<svg xmlns="http://www.w3.org/2000/svg" fill="none" viewBox="0 0 63 54">
  <path fill="#9BE2F9" d="M37.6 48.9c12.5 0 22.7-9.7 22.7-21.6 0-12-10.2-21.6-22.7-21.6a22.2 22.2 0 0 0-22.7 21.6c0 12 10.1 21.6 22.7 21.6Zm24-21.8c0 .2.2.2.3.2 0-.4-.3-.2-.3-.2Zm-.8-3.4-.2-.4.2.4Z"/>
  <path fill="#9BE2F9" d="M60 20.5c-.3.4.4 1.1.4 1.7v.1l.3.2-.7-2Zm.2-2c-.1.2-.3-.2 0 .5h.1l-.1-.4Zm.1.4c.1.3 0-.3 0 0Zm-.8-1.4.4.3c0-.1-.1-.5 0-.4-.3-.4-.3-.3-.4 0Zm-.4-.3.1.2-.1-.2ZM59.6 17.8l-.4-.4s-.1.1.2.2l.2.2Zm0 .3c.1.2.2.5-.1.2l.4.5s0-.4-.2-.7Zm0 2.4v.3l.2.3-.1-.4-.1-.2Zm-1.3-5.7-.2.4.3.2c0-.2-.2-.5-.1-.6ZM58 15.2l-.3-.4c.2.4.3.4.4.4Zm.7 2.1.6.6-.7-.7v.1Zm-1.6-4h.3l-.5-.2.2.1Zm-.9-1.1c.3 0 0-.4.3-.3a3 3 0 0 0-1-.5c.3.2.5.4.7.8Zm-1-1 .4.2-.5-.2Zm2 2.9v-.5l-.1.3.1.2Zm-.1-.2Zm.1.2Zm1 2c-.3-.2-.7-.7-.6 0 .3 0 .2-.3.6 0Zm-1-1.6.2.4s0-.1.2 0l-.4-.4Zm-.3-.2.3.2-.1-.2h-.2ZM55.6 12c-.2 0-.4-.3-.6-.4l.6.7s.3 0 0-.3Zm.8 1Zm-3.5-3.4ZM55.6 12.3c0 .2.2.3.4.4l-.4-.4Zm-1.1-1.6.2.4-.2-.4Zm1.8 2.1ZM56.3 12.8l-.3-.1.3.2v-.1Zm-5-2.5h.4l.5.5c.5.2.8-.5.7-1.1-.1 0-.2.1-.7-.1l.4.5c0 .2.1.4-.1.3-.6-.3-.4-.4-.6-.7 0 .4-1-.2-1 .2l.5.3s-.3 0-.2.1Zm2.3 0 .2.2-.4-.7c-.3-.2-.4-.2-.5-.1l.8.7Zm1 .9c-.3 0-.8-.3-.7.1l.4.3.4.1c-.8-.7.3.1-.1-.5l.4.4a6 6 0 0 1-.3-.5s0 .1 0 0h-.1c-.2-.2 0 0 0 0h.1l-.9-.6.8.7Zm2.3 4.6Zm-.1-.4s.2 0 .3.3c0 .2-.1 0-.2 0 .2.2.4.4.3 0l-.2-1-.2.7Zm-1-2.1-.7-.6.1.5.1-.1c.3.3.3.2.4.2Zm-3-3.8.3-.1h-.6.3Zm-1-.7.3-.1h-.4l.2.1ZM19.3 37.7l.2.2-.2-.2Zm-.8-1.4ZM25 7.7c-.4 0-1 0-.8.2l.2.1.6-.3ZM15.4 23l-.1-.4v.4Zm1 .4-.3.4.2-.4ZM25.6 44h.4c-.4-.3-.3 0-.4 0ZM41 4.7l-.8-.3c.3.2.6.4.8.3ZM16.7 38.4s.2.1.2 0h-.2Zm22.5-34h1c-.3-.1-.7-.2-1 0Zm16 34.3Zm5.9-8.4v.5-.5ZM47.9 6.4c.2.1 0 0 0 0Zm.7 1.4h-.2a.2.2 0 0 1 .2 0Zm-11.8-2Zm11.4.9-.2-.2.2.2Zm0-.1h.2-.2ZM47.6 6.3l.4.2s-.1 0 0 0l-.4-.2ZM40.4 48c.3-.1.2 0 0 0ZM21.8 13.3Zm-.4.7c0-.5.2-.6.4-.7l-.7-.3.3 1Z"/>
  <path fill="#9BE2F9" d="m21.7 40.8-.2-.5c.7.2 1 .6.8 0-.3.3-.7 0-1-.5-.4-.4-.7-.8-1-.6l-.1-.3.2.1c-.2-.7-.8 0-1.2-.9-.1-.3-.2-.5 0-.4l-.5-.5c0-.2 0-.2.1 0l-.5-1c-.2 0-.5-.2-.6-.4 0-.2.1.1.2 0l-.5-.4c.1-.3.5 0 .7.4.2-.4 0-.5-.1-.6-.2-.1-.4-.4-.4-1l.3.5c.3-.5 0-.8 0-1.5 0 .2-.2 1.4-.6.9 0-.2 0-.4-.3-.7.2-.1.1-.4 0-.8h.3c-.2-.5-.3-.4-.6-.6 0-.5.2-.6.4-.8 0-.8-.4.6-.6-.3l-.1-.9c0-.3-.3-.6-.4-1 .1-.5.3 0 .3-.1l-.3-.4h.2c-.1-.4-.4 0-.5-.6-.2 0 0-.4 0-.7.2-.4.4-.8.2-1.1 0-.2.2 0 .3 0l-.2-.9-.2-.7.3-.7c-.3.5-.5-.2-.7-.8l-.4.4v-1c.1 0 .2 0 .3.2v-.1c.2-.3.4-.1.5.2l-.3.2c.2.3.4.5.6.5v-.3.1-.3h.4l-.1-.2.5-1-.1-.6-.1-.7.1-1.7c.2.4.4.2.7.4-.4.1-.2 1-.5 1.5.2-.3.3-.1.3 0l.1-1.3c.3.2.3-.1.6-.3-.6 0 0-1 .1-1.5.2 0 .3.2 0 .7.7-.3-.2-1 .5-1.4-.1.1-.2.2-.1.3 0-.4.6-1 .6-.8v.1l.4-.7.6-.8c.3-.5.5-1 .4-1.2l.4.5V12c.3.4 1.4.6 1 1.3.2 0 .4-.3.7-.7-.2.1-.7-.1-.6-.3.8 0 .5 0 1.3-.3-.2.1-.5-.5-.2-.8 0 .1.5.5.4.6l.2-.5.2-.5c-.2.2.2.4.5.4l.8-.6h-.4c.5-.2.6-.5.7-.8.1-.4.2-.7.7-1 0 .2.1.9.6.7 0-.2 0-.7.3-1.2.1-.4.4-1 .8-1.3l.3.1.6-.5a322.6 322.6 0 0 1-1.5 2.7c.5 0 .2.1.7-.1.3 0-.1.3-.3.4L29 9c-.1-.1 0-.3.3-.5l.4-.4c-.5.2-.9.6-1.3.9-.2-.3.4-1.4 1.4-1.6.3 0 0 .6 0 .8.2-.2.9-.6 1-.5l-.3.3c.3 0 .4-.2.6-.4.2-.1.4-.3.8-.2.2 0 .8.3.8.1-.5-.3-.9-1.5-.7-1.9h.7l1 .3c.4.3-.5.8-.1 1l.2-.2c.3 0 0 .3.5.2 0-.4 1-.2.2-.4h1.1c-.2-.3.5-.9 1-1l.2.2h.8l.6.2 1.3.1c0 .1.5.2.3.4.2 0 .3-.2.6-.1.6.4-.7 0-.3.4.1-.3.8-.2 1.3-.3 0-.3-1-.2-1.4-.1 0-.5.8-.8 2-.9.4 0 .5.1.5.2 0 0-.2.1 0 .1.7.3 1 .1 1.4 0 .4 0 .7-.1 1.3.3.4.4-.2.5-.1.8-.4 0-.6-.2-.8-.3l-.6-.3.5.3c-.3 0-.7 0-1-.2l.6.3.5.1.5.2 1.1.4.5.2.4.3c.3 0 .6 0 .5-.1l-.3-.1c-.3-.4.8 0 .4-.3h.9l.9.5v.4c0-.1-.4-.4-.6-.4.3 0 .7 1 1.3.7l-.4-.5 1 .2.4.2c.2 0 .3.2.4.3 0-.5 0 0-.3-.7.1.6-1.5-.9-1.2 0 0-.4-.2-.6-.4-.7L49 7l-.3-.3c0 .1.1.3-.4 0h-.2c.2.1.2.2.2.3-.3.1-1.1-.3-1.5-.3-.3-.2.2 0 0-.2h-.4c0-.2-.7-.7.1-.5l-.7-.3c-.3-.3-.9-.5-1.3-.5-.3-.2-.9 0-.5 0L42.9 5c-.5-.2-1-.2-1.7-.2-.6 0-1.2-.2-1.8-.4H38l-.1-.2c-.5 0-1.5-.2-1.7 0l-.6-.2h-.9l-1.7.4v.3c-.6 0-1.1.3-1.8.5l.1.3c-.5.3-1.6.3-2.5.6l.5-.2a2 2 0 0 0-1 .2l-.7.4c-.5.4-1 .8-1.6.8a1 1 0 0 1-.5.3l-.5.1h.4a5 5 0 0 0-.7.5l-.2-.2c-.4.1-.2.3 0 .4l-.2.3c-.5-.2-.6.6-1.1.4 0 .2-.3.4-.6.7-.2.3-.4.6-.3.8 0 0-.2 0 0 0-.3 0-.6.3-.8.5l-.3-.1-.2.8c-.4.2-.7.2-.5-.3-.5 1-.5.8-.8 1.7l-.2-.2c-.2.2-.3.8-.5.9-.8.2-2.1 2.7-3.2 4.3.4 0 .2.1 0 .3-.2.2-.4.5-.2.6-.2 0-.3.3-.4 0 0 .4-.2.7-.4 1l-.1.4v.5c-.2 0-.1-.2-.3-.2 0 .1.1.4 0 .4-.1.1-.1-.1-.1-.3-.3 1 .2 1.2.6 1.3l-.3.5c0 .2 0 .4.2.6-.2.1-.4.4-.3-.2-.1.3-.6 2-.2 2v.5l-.1 1.6V27c.4.3.1.6.2 1.1-.2.7-.1.8 0 1v1l.2-.2c.6 0-.2 1.2.2 2v-.4c.3.4-.4 1.3-.4 1.8l-.2-.3c0 1.2.4.1.7.9-.1.2-.5 0-.4.5l.6.9c.3.4.6.8.6 1.2 0-.2.1-.4.4 0l.3 1c0 .4.2.7.6.8v.2c.3.3 1 1.1 1.3 1.2-.3.4.2 1 .7 1.4.5.4 1 .8.7 1l1 1c.5.7 1 .8 1.3.8.1.2 0 .2 0 .2l.5.6.4.3 1.2.4v.3l.3.2.6.5a8.7 8.7 0 0 0 1.3.8l.5.2h-.2l1 .5 1.1.6c.7.3 1.3.6 1.7.2h1c-1.2-.4.3-.3-.1-.6.4 0 1 .6.5.5v-.1c-.4.4 1.3.6 1.3.8 2.4.5 4.8.8 7.1.6l-.3-.4h.8c.2 0 .3.2-.3.3.4.2 1-.3 1-.4 1.1 0-.4.5 0 .5l.4-.1c0-.2.2-.3.3-.3l.6-.3c.5 0 .3.2.5.2h.2l1-.3-.4-.2c.4-.2.9-.2.3-.4.4.2 1.3-.1 2.2-.4l1.8-.8 1.7-1c-.2 0-.5-.3 0-.6.2.4.5.3.9.1.3-.1.7-.4 1.1-.3-.3 0 0-.3.4-.6.3-.3.6-.6.1-.6.5-.3.2.2.7 0l.7-.7.4-.3.4-.4 1-.7c0-.2.2-.3.3-.5l.4-.4c0-.1-.3 0-.2-.4l.9-.3c.1-.3-.3-.6.3-.9-.1 0-.3.1-.2-.1l.7-1a35 35 0 0 0 1.2-2l.3-.5.2-.6.8-2.3c0-.3.2-.7.4-1l.5-1.2c-.3.4-.3 0-.2-.2-.1.2-.3 0-.4 0l.6-1.3c-.4-.3 0-1.4-.3-1.6v.4c-.4-.5-1 .8-1.5.6l.1.5-.3.6c-.2.4-.4.8-.1 1.4-.2.2-.2-.2-.3-.2.2.3.1.6 0 1.1h-.1a6 6 0 0 1-.6 1.7l-.5.8-.2.4-.3.5h.3l-.5.5c.2.5.5-1 .7-.4-.3 0-.6.7-.9 1.2-.3.5-.7 1-1 1-.3.5.3 0 0 .5h-.2l.1.3c-.2.2-.5.3-.6.2l.1-.3c-.4.3-.7 1-.9 1.2l.4-.4c-.7 1.3-2.3 2.4-3.2 3.6h.2c-.8 1-.8.5-1.8 1.3 0 .2-.4.4-.7.6.2-.3-.6 0-.3-.3-1 .8-.5.5-1 1.2h-.3c-.1.2-.1.3-.7.6.4-.3-.5 0 0-.5l-.9.2-.6.3c-.3.3-.6.4-1 .2-.4.7 1.2 0 1 .1.3.1-.4.6-.8.7-.3 0-.5 0-.8-.2a2 2 0 0 0-1.2 0l.2-.1c-.4 0-.7.4-1.2.2-.2.4-.6.1-.6.5l1-.2c-.6.2-1 .7-2 .6l.5-.3c-.3 0-.5.2-.8 0 0-.3 1.2-.2 1.7-.6-.3-.1-1 .5-.8 0-.2.3-.5.3-.8.3-.3 0-.6 0-1 .2v-.3l-.5.2.4-.3c-.6.3-1.1-.2-1.6 0l.6.1c0 .1-.2.2 0 .3-1.4.3-.7-.7-2.3-.6.2 0 .8.2.4.3-.1 0-.3 0-.4-.2l-.4-.2c-1 0 .1.3-.3.4-.4-.4-.6 0-1 0v-.2c-.6-.1-.7 0-.8 0 0 .2-.2.3-.7 0l.6-.2h-.6l.2-.3a2 2 0 0 1-1.4-.3c0 .2-.2.4-.7.3-.3-.3.2-.2-.5-.4.2-.1.5-.2.7.1l.3-.2c-.3-.3-1-.3-1.2-.4l.3.1h-1.2c0-.2 0-.2.2-.2-.2 0-.4 0-.7-.2.2-.1.3-.3.7-.2l-1-.2c0-.1-.4-.5-.2-.5-.4-.4-1.4-.3-2-.9h-.3l-.7-.7-.5-.4-.5-.2-.1-.6c-.6-.4.1.7-.8.1-.7-.4 0-.4-.1-.6-.4-.2-1.2-.4-1.4-1.1l.4.4ZM17.3 34c.1.1.4.3.3.5-.3 0-.3-.2-.3-.5Zm-1.1-12.2c0 .2 0 .3-.2.5 0-.2 0-.3.2-.5ZM45.3 5.7c-.3-.3-.2-.2 0 0Zm.8.3-.4-.1.4.1Zm-2.9 43.3H43c.4-.2.3-.1.2 0Z"/>
  <path fill="#9BE2F9" d="M16.2 23.4h-.1c0 .1 0 .1.1 0Zm9.4 20.5h.1ZM34 7.1l-.3-.1h.3Zm16.3.4-.5-.2.4.3s0-.2.1 0Zm2.7 3.9.2.1c-.2-.3-.4-.4-.2-.1Zm-2.7-3c-.1.3.2.4.6.6.2-.3-.2-.4-.6-.5Zm.6.6.3.2c.1-.1 0-.1-.3-.2Zm-3.7-2.7c.1.1.2-.2.3-.1.1-.1-.2-.1-.4-.1s-.4 0 .1.2Zm3 3v-.4l-.3.1.2.2Zm-2.4-1.5.5.3h.2l-.7-.3Zm.7.2.4.2-.4-.2Zm1 1-.2-.2-.3-.2.4.3Zm-7.5-3.2h-.6c0 .1 0 .2.3.2.2 0 .4 0 .3-.2ZM43.6 7c-.2-.1-.2-.2-.2-.3l-.1.3h.3Zm-1.8-.4c0 .1-.9.2-.1.3 0-.1.7 0 .1-.3Zm-9-.3h.1l-.1-.6v.6Zm-6.8 4c.7-.1 0-.3.6-.4.1-.2-.5 0-.4 0-.3.2-.5.3-.2.5ZM26.2 9.8l.1-.2-.1.2Zm35.4 18.8.1-.5-.2.3v.2Zm-.4-1h.4l-.3-.3-.1.4Zm-43.6 5.1c-.1.1-.1.2 0 .4v-.4Zm2.2 5.3v-.1l-.2.3.2-.2Zm3.4 3.4c0-.2-.3-.3-.4-.4.3.2.2.7.4.4Z"/>
  <path fill="#5EBFDE" d="M54.9 33.7Zm-.4 1.3v-.1a.1.1 0 0 1 0 .1Zm-.7-.5c-.6 1.5-1.2 3.2-2.1 4.5L50 41a6.5 6.5 0 0 1-1.6 1.2v.1h.1l-.2.2-.2.1-.2.2-.3.3-.3.2c-.2 0-.2 0-.3.2a.7.7 0 0 1-.4.4h-.1l-.6.4-.5.5a2 2 0 0 1-.5.3v.1l-.1.1s-.1 0 0-.1h-.2l-.3.1-.3.2-.6.3-.3.2-.9.2c-.2.2-.5.2-.8.3l-.5.2a1 1 0 0 1-.5.2h-.7l-.9.2-.3.1H38l-.2.1H37v.1h-3.7l-.1-.1-.5-.2h-.9l-.2-.1-.6-.1v.1h-.1v-.1h-.4v-.1h-.1l-.3-.1H30l-.1-.1a.2.2 0 0 0-.2 0l-.3-.2-.4-.1h-.1l-.6-.3H28l-.1-.1-.2-.1h-.2l-.3-.1-.4-.3h-.2L26 45h-.3l-.7-.5-.3-.1-.7-.5-.6-.4-.4-.3h-.2l-.6-.6-.1-.1-.8-.7-.5-.6V41l-.4-.3a6 6 0 0 1-.7-.8l-.5-.6-.2-.4v.1h-.1V39c0-.2-.2-.4-.3-.5l-.1-.2-.2-.3-.2-.3H18v-.2l-.5-.8-.1-.2-.3-.5-.1-.4v-.1l-.3-.7-.3-.5-.2-.6v-.1l-.1-.3-.2-.6-.2-.6v-.5l-.1-.3-.1-.5v-.5l-.1-.2V30l-.1-.2v-.1l-.1-.7v-2.3l.1-.3V25.3c.1 0 0 0 0 0V25l.1-.1v-.5l.1-.3V24l.1-.2a4.2 4.2 0 0 1 .2-.7v-.2l.1-.2.2-.6.1-.3v-.5l.1-.1.3-.5.1-.4.2-.4v-.1l.3-.5.3-.6v-.1l.4-.5v-.1l.4-.6.3-.3.2-.4v-.1h.1l.3-.4.2-.3.5-.5.1-.1 1-1.1.4-.3.2-.2v-.1l.4-.2.5-.5.4-.3.3-.2c.1-.2.4-.3.6-.4l.3-.2c.1-.2.3-.2.4-.3l.3-.2.3-.2.6-.3c.2-.1.5-.3.8-.3l.3-.2c.1-.2.3-.2.5-.3h.2l1-.5.4-.1.6-.2.8-.2.3-.1h.2l.6-.2.6-.1h.1l.3-.2h.5a1.2 1.2 0 0 0 .6-.1h.6l.5-.1h1V8h2.2l.3.1h.6l.2.1H39.8l.3.1H40.7l.4.1.4.1h.4c.2 0 .4.3.3.5v.4H41.9h.1l.1.1h.1l.3.1h.1l.1.1h.2v.1h.2l.1.1h.1l.2.1c.2.2.7.3.9.4l1.4.6a16 16 0 0 1 5.2 4.8 31.2 31.2 0 0 1 3.2 5.2l.5 1.2c.2.6.2 1.3.3 2l.5 2.3-.2 2.7v.5a12 12 0 0 1-.5 2l-.2.7-.5 1.3-.3.8Zm0 1.8h-.1V36v.2Zm-38.3-4.8v-.2.2Zm8.4-20a.1.1 0 0 1 0 .1v-.1Zm2.4-1.3Zm.7-.4Zm1-.4v.1h-.1Zm.5-.4h.1v.1Zm3-.8v.2h-.1v-.2Zm0 .2h.1ZM47.9 12h.1v.1Zm.3.2v.1-.1Zm1.8 1.6h.1v.1h-.1Zm3.5 4.9V18.3v.3Zm2 5.1v-.2.2Zm.2 6h.1V30v-.2Zm-.6-9-.3-.8a19.5 19.5 0 0 0-3-4.7 20.6 20.6 0 0 0-14.5-7.6A20.9 20.9 0 0 0 25 10.3a22.6 22.6 0 0 0-6.4 5.4l-.5.8c-.6.9-1.5 2.2-2 3.2a18.8 18.8 0 0 0-1.4 5.8c-.2 1.5-.2 3 0 4.5 0 1 .3 2 .6 3a20.1 20.1 0 0 0 1.7 3.6l.1.4a23.1 23.1 0 0 0 2.4 3.6l1.6 1.8 1.5 1.4a19 19 0 0 0 9.6 3.8 22.8 22.8 0 0 0 10.8-.9l2.5-1c1.4-.8 3-2 4.2-3l.4-.4 1.3-1.2c1.9-2.2 3.2-5 4-7.7l.1-.3a18 18 0 0 0 .6-3.1c.4-3.1 0-6.3-1-9.2Z"/>
  <path fill="#96C1DE" d="M18 37.7Zm37.8-12.1Zm-.1 4.5Zm-1.3-9.7Zm-.5-1v.1-.1Zm-.7-1.5v-.1.1Zm-2.4-3.3v.1s0 .1 0 0Zm-.3-.3Zm-5-3.8ZM36.4 8Zm-4.8.3Zm-.3 0v.1Zm0 .2ZM29 9Zm-5.2 2.3Zm-3 3h-.1ZM16 22v-.1.1Zm-.7 8.4v-.1ZM17 36v.1Zm2.6 4.1Zm9.3 6.2v-.1.1Zm2.6.8V47Zm2.8.2Zm1.7.1ZM48 43.2Zm0 0V43Zm.5-.2Zm2.5-2.5v-.1Zm2-2.9Zm2.4-6.7Zm.1-.1ZM19 16.6Z"/>
  <path fill="#5EBFDE" d="M35.4 19v-.1Zm0-.6v-.2h.1v.2Zm0 .6Zm0-.3Zm-.3.8Zm0-.1Zm0 .2H35Zm-.4 0Zm-.2 0Zm-.3 0Zm1.5-1V18l-.1-.1v-.1h-.1v-.1l-.1-.1h-.1c-.1-.1-.1-.1-.1 0v-.1H35V17.8h.1v.4l.1.2V18.8h-.1v.1l-.1.1v.1H35v.1h-.1v.1h-.2v.1h-.1v.1h-.2v.1h-.2v.1s-.1 0 0 0l-.1.1s0 .1.1 0v.1h.5l.1-.1h.1v-.1h.1l.1-.1h.1v-.1l.1-.1.1-.1V19l.1-.1v-.2l.1-.1v-.1ZM30 31.8s-.1 0 0 0v-.1.1Zm0 .1h-.1Zm-.1.7Zm-.1-1.6h-.1v-.2.2Zm0 .6Zm0 1v-.1Zm0 .2h-.1Zm-.5.1Zm-.2 0Zm-.3.3Zm1.3-1.5V31L30 31v-.2h-.1v-.2h-.1l-.1-.1v-.1h-.1v-.1h-.1l-.1-.1h-.2V30h-.4v.2h.1l.1.1.1.1h.1v.1l.1.1.1.2v.1l.1.1V32.2h-.1v.2l-.2.1v.1l-.1.1-.1.1-.1.1v.1h-.1v.1h-.1V33.5h.5l.1-.1.2-.1V33h.1l.1-.1v-.1h.1v-.2h.1v-.2h.1V32l.1-.1V31.7Z"/>
  <path fill="#96C1DE" d="M38.6 11.4v-.1.1Zm0 .6h-.1Zm-.2.1Zm0-.3Zm-.1.8Zm-.1-.2Zm0 .3s-.1 0 0 0Zm-.4 0Zm-.1 0v-.1Zm-.3 0Zm1.4-1.5v-.4h-.1v-.1h-.1v-.1h-.1V11.5l-.1.1v.2h-.1v.1l-.1.1H38v.1l-.1.1-.2.1v.1h-.2v.1h-.1l-.1.1-.1.1v.2h.6v-.1h.1l.1-.1h.1v-.1l.1-.1.1-.1.1-.1v-.1l.1-.1v-.2h.1v-.2l.1-.1v-.4Z"/>
  <path fill="#5EBFDE" d="M47 40.1Zm0-.3Zm-.6 0Zm0 0Zm2 .8v-.2h-.1v-.2L48 40l-.2-.2-.2-.1-.2-.1h-.1l-.1-.1H45.9v.1h-.1l-.1.1h-.1l-.1.1-.1.2h-.1v.1h-.1v.5c-.1 0 0 0 0 0-.1 0 0 0 0 .1v.2h.1l.1-.1.1-.1.1-.1h.1l.1-.1h.4c0-.1 0 0 0 0 .1 0 .1-.1.2 0h.1c.1 0 .2-.1.2 0 0-.1 0-.1 0 0l.2-.1H47.6v.1h.2v.1h.1v.1h.1v.2h.1l.2.1v-.1l.1-.1v-.2ZM29.5 26.8Zm-.2-.7Zm0 .3h-.1s0-.1 0 0Zm-.4-.2Zm-.2.2Zm1.2 0V26h-.1V26h-.1v-.1h-.2v-.1H29.1c0-.1 0 0 0 0h-.5v.1h-.1v.1l-.1.1v.6l.2.1.1.1h.1l.2.1h.5v-.1h.1v-.1l.1-.1v-.2h.1v-.1Zm23.5 3.5Zm-1-.1v.1h-.1c0-.1-.1-.2 0-.2Zm-.4-.4h-.1c-.1 0-.1 0 0-.1.1 0 .1 0 0 .1Zm-.2 1.3Zm0-.5h-.1Zm1.8-.4v-.4h-.1v-.2l-.2-.1-.1-.2H53v-.2h-.4l-.1-.1h-.8v.1h-.2v.1l-.2.1v.1l-.2.1v.2H51v.2l-.1.1v.7s.1 0 0 .1l.1.1.1.1.2.2.2.2.2.1h.1l.2.1h.6l.2-.1.2-.2.3-.2v-.1l.1-.1.1-.1V30l.1-.1v-.2Z"/>
  <path fill="#96C1DE" d="M50.8 19.8Zm-.7-.3Zm0-.3h-.2V19h.1Zm-.5.4Zm0 .3Zm1.4-.4v-.2h-.1V19h-.1V19h-.1v-.1h-.1v-.1H50.2l-.1-.1h-.5l-.1.1h-.1v.1h-.1l-.1.1v.1l-.1.1v.8h.1v.1h.1l.1.1.3.1H50.4l.1-.1h.2V20l.1-.1v-.1l.1-.1v-.2Z"/>
  <path fill="#5EBFDE" d="M35.5 16v-.1Zm-.1 0Zm-.3.3Zm0-.2V16Zm-.3-.3Zm.9.3v-.2l-.1-.1-.1-.1h-.1v-.1h-.5l-.1.1v.1h-.1v.5h.1l.1.1h.1c0 .1.1 0 .1 0v.1H35.5v-.1h.1v-.1h.1V16ZM41 41.9v-.2l-.1-.2v-.1h-.1v-.1l-.1-.1-.1-.1-.1-.1-.1-.1h-.1l-.1-.1h-.4s0-.1-.1 0H39l-.2.1v.1l-.1.2v.1H39.2l.2.1.5.1h.1l.1.1.1.1.1.1.1.1.1.1v.1h.1a1 1 0 0 1 .1.1H41V42h.1v-.1Zm-2.2-26.4V14.9l-.1-.1v-.1l-.2-.2-.1-.1h-.2v.2l.2.5-.2.6-.3.2-.2.1v.2h.2v.1h.4l.1-.1.1-.1.1-.1v-.1l.1-.1V15.4Zm-6.4 19.4Zm0 .2h-.1c-.1 0-.1 0 0 0V35Zm.3-.2v-.2h-.1l-.1-.2h-.1l-.1-.1H31.7v.1h-.1v.2l-.1.2V35.3h.1v.1l.1.1h.2v.1h.4l.1-.1.1-.1V35h.1v-.2ZM49.8 39Zm0 0v-.1h-.1Zm.2 0v-.1h-.1v-.1h-.1v-.1h-.4v.1h-.1v.4l.1.1h.5V39c.1 0 .1 0 0-.1Zm-6-1c.1 0 0 0 0 0Zm.8-.1V37.6l-.1-.1h-.1l-.1-.1H44l-.1.1-.1.2h-.1v.5h.1v.1h.1v.1h.6v-.1h.1v-.1l.1-.1v-.2Z"/>
  <path fill="#96C1DE" d="M43.5 42.4h.1v.1H44v-.1h.1v-.5h-.1v-.1h-.2c-.1-.1-.1 0-.2 0 0-.1 0 0 0 0H43.2v.1H43v.4h.3l.1.1Zm-20-1.4ZM35 46Zm-9-3.3ZM28 44Zm6.8 2Zm-3.6-.8ZM23.5 41Z"/>
  <path fill="#1E76E2" d="m25.2 39.2.3.3.4.1h.5a56 56 0 0 1-1.2-.4Zm.8.4h.3-.3Zm14 5.9-.2-.1H39l.1-.2H40c.1 0 .1.1 0 .2.1 0 0 0 0 0Zm-1.2-.5h-.1v-.1h.2l-.1.1Zm-2.3.3c-.6 0-1.1-.3-1.2-.7v-.4c.1.5.6.8 1.2.8.4 0 .7-.3.8-.6 0 .5-.3.8-.8.9Zm-.4.8h-.5l-.1.1H32.1l-.7-.1h-.1l-.2-.1H30.9l-.1-.1h-.5l-.1-.1H29.8v-.1H29.5l-.1-.1h-.2l-.2-.1h-.2v-.1H28.5v-.1H28.2v-.1H28V45H27.7V45h-.1l-.1-.1h-.2v-.1h-.2l-.1-.1H27l-.1-.1h-.1l-.1-.1h-.1l-.1-.1h-.1l-.1-.1H26v-.1H26l-.1-.1h-.1l-.1-.1h-.1l-.1-.1h-.1v-.1h-.1v-.1H25v-.1h-.2v-.1h-.1v-.1h-.1l-.1-.1h-.1l-.1-.1-.1-.1-.1-.1H24v-.1H24l-.1-.1-.1-.1-.2-.1-.1-.1-.1-.1h-.1v-.1h-.1v-.1H23L23 42h-.2v-.1h-.1v-.1h-.1v-.1h-.1v-.1h-.1v-.1l-.2-.1v-.1H22v-.1H22V41h-.1V41l-.2-.1v-.1l-.1-.1-.1-.1-.1-.1v-.1h-.1v-.1h-.1l-.1-.1V40H21V40l-.2-.1v-.1l-.1-.1-.1-.2-.1-.1h-.1v-.2h-.1V39H20v-.2H20v-.1l-.1-.1-.1-.1-.1-.2-.2-.4-.2-.2v-.1l-.1-.1v-.2H19V37H19v-.2h-.1v-.1l-.1-.1v-.1l-.1-.1v-.2l-.1-.2-.1-.1v-.2h-.1v-.2h-.1V35.2h-.1V35H18v-.3H18V34.4h-.1V34h-.1V33.7l-.1-.1v-.3l-.1-.1V33l-.1-.3.1.2v.2a1.1 1.1 0 0 1 .2.2l.1.3.1.2v.1l.1.1.1.2v.1h.1l.1.3.2.3v.1l.2.3.1.2.2.2H19.7v.1l-.1.1h-.4v.1l.1.1.1.2.1.1.2.3v.1l.1.1.1.2.1.1.2.3.3.3v.2h.1l.2.3h.1l.2.3.1.1.1.1.1.1v.1h.1l.2.2.1.2h.1v.2h.1l.2.2.2.2h.1l.1.2.3.2h-.1.1l.1.2h.1v.1h.2v.1l.2.2h.1l.2.2.2.2h.1l.2.2v.1h.1l.2.2h.2v.1h.1v.1h.1v.1h.1l.2.2.3.2h.1l.2.2h.1l.1.1.3.2.3.1.2.1v.1h.2l.2.1v.1h.2v.1h.3v.1h.2l.2.2h.1l.2.1.3.2H29.1l.2.2h.3l.2.2h.3l.1.1h.1l.1.1h.2l.1.1h.2l.4.2.4.1.6.2.7.1h.2l.1.1h.4l.3.1H34.4l.2.1h.4l.2.1h.6l.1.1H36.1ZM18.3 35.8l-.1.1h-.1v-.1h.2Zm-.4-.7h-.1.1Zm-.5-7-.2.2c-.2-.1-.3 0-.4 0v-.1h.2c0-.2.2-.2.3-.1h.1Zm-.2.7h-.1.2Zm0 3.3H17h.3Zm-.1.6Zm-.5-1.7h-.1.1ZM19 18.6c0-.7.7-1.2 1.3-1.1l.4.1h-.1c-.6 0-1.2.5-1.3 1.1-.1.5 0 1 .4 1.2-.6-.1-.9-.7-.7-1.3Zm1.7-2 .3.1h-.7.4Zm.4 1.9h-.2.1Zm1 .8.1.1v.1H22v-.1Zm.1-1.6h.2l-.1.1H22Zm.3-3c0-.1 0-.3.2-.4.4-.4 1-.6 1.4-.3l.3.3h-.1c-.4-.3-1-.2-1.4.2l-.2.2c-.1.3-.1.6 0 .8a.7.7 0 0 1-.2-.7Zm2 2.7c-.6 0-1 .3-1.2.9 0 .4 0 .7.3.9-.4-.1-.6-.6-.5-1 0-.6.6-1 1-1l.4.2Zm.2-1.4h.2c0-.1.1 0 .2 0a.2.2 0 0 1-.2.1h-.3Zm.7 1.7h.1H25.1h.2Zm.4-5.8.2-.2.2-.2.1-.1.2-.1.1-.1.2-.1V11h.1l.2-.1.1-.1h.1l.1-.1.2-.2h.1l.1-.1h.2v-.1h.2v-.1h.2V10h.2V10h.2l.2-.1h.1v-.1h.2l.1-.1H29.7v-.1h.4v-.1h.4v-.1h.3l.3-.1h.5l.2-.1h2.7l.1.1H34.8l.1.1H35.2 35v.1h-.6l-.3.1H33.5v.1h-.6l-.2.1H32.4v.1h-.5l-.2.1h-.2l-.3.1H31l-.2.1h-.2a1.8 1.8 0 0 1-.4.2H30l-.3.1h-.1l-.2.1h-.2l-.1.1H29l-.3.1-.1.1H28.3v.1H28l-.1.1H28l-.2.1-.2.1h-.1l-.3.1-.1.1-.2.1h-.1l-.2.1h-.1l-.3.2-.3.1-.3.2.2-.3Zm8-1.1h-.2l.1-.1h.1ZM32 11v.1l-.2.1v.1c.1 0 0 .1 0 .1s-.2.2-.3.1H31.1c0-.2 0-.3.2-.3l.2-.1c0-.1.2-.2.3-.1Zm-1 2h-.2v-.1H31Zm0 2h.3-.4.2Zm-.4-4H30.8l-.1.2-.2-.1Zm-.2.4h.4c-.2.2-.3.1-.4 0ZM27 17.7H28c-.2 0-.2 0-.3.2H27v-.2Zm.3-4.6H27a.3.3 0 0 1 .3 0Zm.8-1.5h.2l-.1.1Zm.2 6v.1h-.1Zm.3-1.1h.2l-.2.1h-.3.2v-.1h.1Zm.4 1.1H29l-.2.2h-.2v-.2h.5Zm-.3-6h.2-.1Zm.1 4H29.1l-.2.2h-.3v-.1l.2-.1Zm-.9.1h.4c0 .2 0 .2-.2.2h-.7v-.1h.5Zm0-1.5h.1-.2.1ZM26.1 13h.4s-.1.2-.2.1H26Zm-.5 4.7h.2s.1-.1.1 0c-.1.1-.2 0-.2 0h-.1Zm.4 1.8Zm-.6 0c.1 0 .2-.1.2 0h-.2Zm-.8 0 .2-.1h.3v.1h-.5ZM27.4 38h.2-.2ZM25 40.6h.8v.1c-.1.1-.2.2-.3.1H25v-.1h-.2c0-.1 0 0 .1 0Zm-1 .2h-.1Zm-4.3-15.5-.2-.1c0-.1 0-.1 0 0l.3-.1H20.4v.1s-.1.1-.2 0h-.5Zm-1.4 1.4h.2v.1h-.2Zm-1 .8c0-.1.4-.2.5-.1-.1 0-.2 0-.3.2l-.2-.1Zm-.1-.8c.1.1 0 0 0 .1h-.1v-.1Zm.8.2h-.1c0-.1 0 0 0 0Zm-1.1-2h.7l.2.1v.1l.1.1h-.7s0-.1-.2 0H17V25Zm-.5-.7.5-.2h.4v.1a.2.2 0 0 1-.2.1h-.7Zm1-.4h-.3c-.2.1-.2 0-.4 0v-.1h.7Zm.7-.8h.2l.4.1-.2.1h-.4V23Zm1 1.7h.5-.2l-.3.2h-.3s-.1-.1 0-.1h.3Zm-.1-.3h.5v.1h-.6v-.1Zm0-1.1h-.2v-.1h.2Zm1.5 11.5h.4c0-.1 0 0 .2 0H20.5Zm-.2-11.6H20h.2Zm1.7-1.7Zm.6-.2h-.3.6-.3Zm1.2.3h-.1a17.5 17.5 0 0 1-.4 0l.1-.1c0-.2 0-.2.2-.2l.2.2v.1Zm1-.3H24.5l-.1-.1s0-.1 0 0h.4Zm1.6.7h-.2a.3.3 0 0 1-.2 0l.2-.1h.2ZM25 31h.1v.2H25l-.1-.1Zm-.3 6.6v.2l-.1-.1v-.1Zm-.3-6.9h.2-.2Zm.1.5h-.1H24.7h-.2Zm.5-.5h-.2.2Zm.5.6h-.2c0-.1.1 0 .2 0Zm.3-6.2h-.4.4Zm-.2-1.8h.2l.2.1v.1h-1v-.1H25.6Zm.3-.7-.2.1v-.1h.2Zm-.2-.6h-.2v-.1H25.9Zm-.7 4.5h.5-.1c-.6.1-1 .8-.9 1.5.1.5.4.9.8 1-.5 0-1-.4-1.1-1-.2-.7.2-1.4.8-1.5Zm-.5-1.4H24.8l-.2.1h-.1v-.1Zm-.2 4.5v.1H24l.3-.1Zm-2.5 8h.1c.1 0 .2.2.4.1 0 .1.1 0 .2 0h.5v.1c-.1.1-.1 0-.2 0l-.2.1h-.8v-.2Zm-.8-4.5h.2-.2Zm0-7.6h.1-.1Zm-.3-.3.1-.1H21.1c0 .1-.1.2-.2.1 0 0 0 .1-.1 0h-.1Zm.8 3.2c0 .2-.2.2-.3.1 0-.1.1-.2.2-.1h.1Zm2-6h-.2l-.2.1h-.2l.1-.1h.4Zm0 13.3h.1v.1h-.1Zm-.2.2h.2-.2Zm-.8 0-.2-.2h.9l-.1.2h-.2c-.1-.1-.3 0-.4 0Zm-.4 1v-.2h.2l-.2.1Zm1.5-6.4-.2.1a.2.2 0 0 1-.2 0l.1-.2.3.1Zm-.6-6v-.1h.1v.1H23Zm.1 2.8h.2v.2H22.7l.2-.1s0-.1.2 0Zm-1 5.4Zm0-.8.4-.2c-.6.4-.7 1.2-.3 1.8.2.4.6.7 1 .7-.4.2-1 0-1.4-.6-.4-.6-.2-1.4.3-1.7Zm-.4-4.3h.1-.1Zm.1 2h.2l-.2.1h-.2.2Zm2-6.3a.2.2 0 0 1-.2 0l.1-.2.2.1-.2.1Zm-1.1.6h.4a1 1 0 0 0-.9.6h.2c0-.1.1 0 .2 0-.1 0-.2.1-.2 0h-.1l-.3.6v.2c0 .5.3.8.6 1-.5 0-1-.5-1-1 0-.8.5-1.4 1-1.4Zm1.4 15h-.3l.1-.1s0-.1 0 0h.2ZM19.9 20H20.2 19.9Zm-.5 0h.2-.2Zm0 1.8.2-.3c.1-.2.3-.3.6-.3H20.5c-.5 0-.8.4-.9.8v.2c0 .3.1.6.3.8h.1-.1c-.4-.1-.6-.4-.6-.8l.1-.4Zm-1.8 10.2h.5-.5ZM19 31h-.1v-.2a.2.2 0 0 1 .2 0v.1Zm.6-.1h-.1v-.1h.1Zm-.8-2c-.2-.6.1-1.2.6-1.4h.5-.1a1 1 0 0 0-.6.6c-.1.3-.2.6 0 .9 0 .4.3.7.7.8-.5 0-1-.3-1.1-.8Zm6.5 10.3.3.3.4.1h.6c-.3.3-.8.3-1.3 0-.2 0-.3-.3-.4-.5l-.1-.4a.8.8 0 0 1 .2-.6l.2-.1-.1.1v.6c0 .2 0 .4.2.5Zm4-.1Zm-2.6 1v.1h-.2l.1-.1h.1Zm1 2.6H27.3h.3Zm.4-2h-.2.2Zm1.2 1.5c.4.2.7.1 1-.1-.2.4-.7.6-1.2.4-.5-.2-.9-.7-.8-1.2l.2-.3c-.1.5.2 1 .8 1.2Zm1.7.3h-.4.4Zm1.3 1.6H32Zm.6-1.9c.4 0 .7-.2.8-.4 0 .4-.4.7-.9.7s-1-.4-1-.8v-.4.1c.1.4.6.8 1 .8Zm-.6-1.6h.3a.2.2 0 0 0 .2 0h.3H32.4c0 .1-.1 0-.2 0Zm1.6 2.6-.1.1h-.2l.1-.1h.2Zm0-2.4h-.2l-.4-.2h.7v.1h-.2Zm1.3 2.5h-.4l-.2.1h-.1v-.2h.7Zm13.4-1H45.6l-.2.1c-.2 0-.3.2-.4.3l-.2.3-.1.3-.4.6-.4.2a.4.4 0 0 1-.3 0c-.2-.1-.3-.2-.3-.4v-.3l-.4-.2h-.2l-.2.2a1 1 0 0 0-.3.4l-.2.3h-.2l-.2-.2a2 2 0 0 1-.3-.2l-.1-.1-.5-.1h-.6l-.5.1c-.2 0-.4.2-.7.1h-.3l-.3.1H38l-.3-.2c-.2-.1-.2-.3-.3-.4v-.1l-.1-.4-.1-.3v-.1L37 42l-.2-.2-.2-.2a.7.7 0 0 0-.6-.2h-.2l-.4-.3v-.7l.1-.2c.1 0 0-.1 0-.2l.1-.1v-.3l-.2-.2a1 1 0 0 0-.2-.4l-.2-.2-.4-.3-.5-.1h-.3a.6.6 0 0 0-.5.2l-.5.5-.1.1-.3.2h-.2l-.2-.1a.9.9 0 0 1-.4-.6v-.2l-.2-.2a1 1 0 0 0-.5-.4H30.6l-.4-.1-.1.1a1.7 1.7 0 0 1-.5.3h-.1l-.4.2h-.8l-.2-.1a1.7 1.7 0 0 1-.7-.5l-.2-.2v-.1l-.1-.4v-.9l.2-.4.2-.1.1-.2h.2v-.1h.1V35l-.5-.4s0-.2-.2-.2l-.3-.3c0-.2 0-.3-.2-.5v-.3c0-.1 0-.3.2-.4.1-.4.1-.4.4-.6l.3-.5V30l-.2-.3-.2-.5-.2-.3-.2-.4v-.3l-.2-.3v-.6l.1-.4v-.2l.1-.2.2-.4.5-.6.2-.3.2-.4.2-.4v-.7l-.3-.8s0-.2-.2-.3a2 2 0 0 1-.3-.5V22l-.2-.5-.3-.6V20.7l.3-.4c.1 0 .3 0 .4-.2h.1l.5.3h.1l.5.4c.2 0 .3.2.5.3l.3.2h.6l.2-.1V21l.2-.2.2-.4V20l.1-.2-.1-.3-.6-.5v-.2l-.2-.2-.1-.2-.1-.3V18c.2-.3.2-.3.5-.4h.4a2.7 2.7 0 0 0 1-.3l.2-.2.3-.4v-.2l.2-.3V15.6l.1-.2V15c-.3 0-.5-.2-.7-.3h-.2l-.1-.2-.1-.2-.1-.1a1.6 1.6 0 0 1 0-1.6 1.7 1.7 0 0 1 1.6-1l.2.1h.2l.1.1.2.1.3.3h.2l.2-.2.2-.2.2-.5V11l.4-.4.5-.2h.3l.3-.1.8-.5.2-.2h.1c.3-.2.5-.3.8-.3l.3-.1h.4l.8-.1H41.3c0 .2.1.1.2.1l.2.1h.4l.1-.4c.1-.2-.1-.5-.3-.5H41l-.4-.1H40.1l-.3-.1H38.7v-.1H37.7l-.3-.1H34l-.5.1c-.3.1-.5.2-.7.1h-.4l-.4.2H32l-.6.2h-.6l-.1.1-.4.1-.8.2-.6.2-.3.1-1 .4-.3.1-.5.3-.3.2c-.3 0-.6.2-.8.4l-.6.2-.3.2-.3.2-.4.3-.3.2-.6.5-.3.1-.4.3-.5.5-.3.2-.1.1-.2.2-.3.3-1 1-.2.2-.5.6-.2.3-.3.3v.1l-.3.4-.3.4-.3.5-.1.1-.3.5v.2a2 2 0 0 0-.4.5l-.2.5v.2c-.2 0-.3.2-.3.3l-.1.4-.2.5-.1.2c0 .1-.1.3 0 .4l-.2.3-.2.6v.2l-.1.2-.1.3a4.3 4.3 0 0 0-.1.7v.2l-.1.3v.5l-.1.2v1.1l-.2.3v3c.1 0 0 .1 0 .2l.1.2v.1l.1.2v.5c.2.2.2.4.2.5a3.9 3.9 0 0 1 0 .4v.2l.1.2.2.6.2.6v.4l.3.6c0 .2.2.3.3.5l.2.7.2.6.3.5v.1l.5.8.1.1v.1h.1c0 .2.1.2.2.3l.2.4h.1l.3.6.3.4.5.6.7.8.3.3.1.1.5.6.8.7v.1l.7.5.2.2.4.2.6.4.7.5.3.2.7.4h.3l.6.4h.2l.4.3.3.1h.2l.2.1h.1l.3.1c.1.2.4.2.6.3h.1l.4.2h.3l.2.1.2.1h.3v.1h.5l.1.1h.6l.2.1h.1l.3.1h.5l.5.2H34s.1.1.2 0l.5.1h1.7a1.1 1.1 0 0 1 .4 0H38l.1-.1h.4l.4-.1.9-.2h.2l.2-.1h.2l.6-.1.5-.2.8-.3.9-.3.3-.1.6-.4.3-.2h.3l.1-.1.7-.4.5-.4.6-.4a.7.7 0 0 0 .5-.5l.2-.2h.1l.3-.2.3-.3.2-.2h.2l.2-.2v-.1ZM26 39.6h.3-.3Z"/>
  <path fill="#96C1DE" d="M23.8 41.3ZM23.8 41.3ZM23.8 41.3ZM23.8 41.3Zm7.3-1H31Zm-5 .3Zm-1.5 0Zm-1.7-.2ZM19 33.6Zm-1-1.2Zm7.8 5.4Zm-5.1-8Zm0 4Zm1.3-9.7Zm.6-2Zm1.2 8.7Zm-.6-6.5Zm.3 3.7Zm-.7 2.7Zm-1.3-3.8Zm2.5-5v.1Zm2-2.3h.1Zm-4.6.5Zm5.7 18H27h.1Zm-.1-1.4Zm-5.2-16.6Zm.9-.3Zm5-7.3h.1Zm1.4 4.7h.1Zm-4.5 26.3ZM23.8 41.3ZM23.8 41.3ZM23.8 41.3Zm-4-4.5v.1ZM23.8 41.3Zm2.9 2Zm3.6 1.6Z"/>
  <path fill="#5EBFDE" d="M44.8 15.7h-.2.2Zm-.4-.4c0 .1-.1 0-.1 0h.3-.2Zm0 .7h.1Zm0 .2Zm0-.5Zm.1 1H44.1l.1-.1h.2Zm-.7.7h-.1.1Zm0-1.5h-.2.1Zm-.4-.8a.1.1 0 0 1 0-.1h.4l-.1.1H43.4Zm0 2.3H43v-.2h.3a.2.2 0 0 1 .2 0v.1Zm0 .1Zm-.2.1Zm-.4-2a.1.1 0 0 1 .1-.1H43.2c.1 0 0 0 0 0 0 .1 0 0 0 0s0 .1 0 0l-.1.1a.2.2 0 0 1-.3 0Zm0 1.7Zm-.1-.6v-.1h.1v.1h-.1Zm-.1.2H42.3a.3.3 0 0 1 .3 0ZM42 16l.3-.1v.1H42Zm1.2.8h.1-.1Zm1-.6h-.1Zm.9 0V15.7H45a1.7 1.7 0 0 0-.4-.7l-.2-.2h-.1l-.2-.2H44l-.5-.1h-.7l-.3.1a1.4 1.4 0 0 0-.4.3l-.2.3-.2.2-.2.4v1a2 2 0 0 0 .5.7l.2.2.3.1.1.1h.3l.2.1h.8l.3-.2a2 2 0 0 0 .6-.4v-.1l.1-.2.1-.1v-.2l.1-.1v-.4Z"/>
  <path fill="#96C1DE" d="M34 12.8Zm-.2.1Zm-.4 0v-.1Zm0 1.2h-.2c0 .1 0 .1 0 0H33 33.4Zm-.4-.3Zm0 .8h-.1.1Zm-.2-2.2h.2-.2Zm0 .6h-.2.1Zm-.2.7v-.1.1Zm.6-.8c0 .1 0 .2-.1.1 0 0-.1.1-.1 0l.2-.1Zm-1 1.9v-.1Zm-.1-.6V14Zm-.1-.6h-.1.2-.1Zm2.5-.2v-.2l-.1-.2v-.2l-.2-.2-.2-.2h-.1l-.1-.1h-.1l-.4-.2h-.8a1.5 1.5 0 0 0-.6.4l-.2.1v.2l-.2.3v.2c-.1 0 0 0 0 0h-.1V14l.1.2.1.2.2.3h.1l.3.2a5.5 5.5 0 0 0 .2.1h.2l.2.1h.7l.3-.2.3-.2v-.1l.2-.2.1-.3V14l.1-.2V13.4Zm-6.1 24v-.1h.2-.1c0 .1 0 0-.1 0ZM28 36v.1H28Zm.2-.3Zm.1.7h.1c0-.1 0-.1.2 0h.4-.7Zm.2-.8Zm.1.2Zm.2-.6h.1v.1h-.1Zm.5 1Zm.2.4Zm-.7 0v.1Zm-.3.2Zm-.2 0Zm1.3.4-.2.1h-.2a.1.1 0 0 0-.2 0H29l.1-.1H29.4a.2.2 0 0 0 .1 0h.2Zm-.5-1.5h.7l-.1.1h-.4a.1.1 0 0 1-.2 0c-.1.1-.2 0-.2 0h.2Zm0-.3Zm1.4 1.1v-.4a4 4 0 0 0-.3-.4l-.1-.2-.2-.2-.4-.2H29c0-.1 0 0 0 0H28.3l-.2.1-.2.2-.3.2-.1.3-.1.3v1l.4.4.2.2.3.1H28.7v.1H29.7l.1-.1h.1l.2-.1v-.1l.2-.2.3-.4V36.6Z"/>
  <path fill="#5EBFDE" d="M41 16v.4l-.2-.2V15.6l-.1-.2v-.5l.1-.1.2-.4a2.5 2.5 0 0 1 .8-.8l.2-.1h.2l.2-.1H42.7v-.1h1l.2.1a1.6 1.6 0 0 1 .5.3l.2.2.3.3v.2l.1.1c-.2 0-.3-.2-.5-.3l-.2-.1-.4-.2H42.4l-.2.2-.6.4-.2.2-.2.3v.3l-.1.2V15.8c-.1 0 0 .1 0 .2Z"/>
  <path fill="#96C1DE" d="M36.4 34.2H36h.2Zm-.2 0Zm.9.3v-.1l-.1-.1v-.1l-.1-.1a.1.1 0 0 0-.1-.1h-.1l-.1-.1h-.2l-.2-.1h-.4l-.1.1-.2.2V34.4c.2 0 .2.1.3.2l.1.1.1.2v.1h.1v.2h.5V35a.4.4 0 0 1 .1 0l.2-.2.1-.2v-.2Z"/>
  <path fill="#5EBFDE" d="M50.1 25.7h.2l.1.1.2.1v.6l-.2.2H50l-.2-.1v-.1l-.1-.1V26c.1-.2.2-.2.3-.2h.1Z"/>
  <path fill="#004F8D" d="M57.5 26.9c0-.4-.2-.2-.2-.2 0 .2.1.1.2.2Zm-.6-3.4-.2-.4.1.4h.1Zm-.4-1.3.2.2a16.7 16.7 0 0 0-.6-1.9c0 .3.4 1 .4 1.6Zm-.5-3v-.4c-.1.2-.3-.3 0 .4Zm0 0c.2.2 0-.3 0 0Zm-.4-1c0-.2-.1-.5 0-.4-.3-.4-.3-.3-.2 0l.2.3Zm-.5-.7.1.1-.1-.1Zm.2.3.2.3-.3-.5.1.2Zm.2.7.3.4-.2-.6c0 .2.1.5-.1.2Zm.4 2v.2l.2.3-.1-.4v-.2Zm-1.7-5.1v.2l.1.3-.1-.5Zm0 .2-.4-.4.3.4Zm1.1 2.5-.5-.8v.2c.3.2.4.4.5.6Zm-2-4-.4-.4.2.2.2.2Zm-1-1.1c.2 0 0-.3.1-.2l-.7-.6.6.8Zm-1-1 .4.2-.3-.2Zm2 2.4v.2-.4.2Zm0 0-.3-.3.3.3Zm0 .2Zm.8 1.6c.1.1 0-.2.3.2-.2-.3-.6-.7-.3-.2Zm-.3-1-.4-.3.3.4s0-.1 0 0Zm-.5-.5.1.2v-.2h-.1Zm-1.4-2-.5-.5.5.6s.2.1 0-.1Zm.7.8Zm-3.2-3.1Zm2.5 2.5.4.3a15 15 0 0 1-.4-.3Zm-1.1-1.4.2.3-.2-.3Zm1.7 2c0-.1 0-.1 0 0Z"/>
  <path fill="#004F8D" d="m52.5 13.4-.2-.2.2.3ZM48 10.1l.5.2s-.2 0 0 0c0 0 .5.3.8.7.5.3.4-.2.2-.6l-.5-.2c.1.1.8.8.4.6l-.4-.4-.2-.2c.1.2-.8-.4-.8-.1Zm2.2 1h.2l-.5-.5-.4-.2.8.7Zm.9.7c-.2 0-.6-.3-.5 0l.7.4c-.7-.7.2.2-.2-.4l.3.4a9 9 0 0 1-.3-.4c-.2-.2 0 0 0 0l-.7-.6.7.6Zm2.6 4Zm-.2-.8Zm.3.8-.3-.8v.5s.2 0 .3.3c0 .2 0 0 0 0 0 .1.2.4 0 0ZM52 13.4c.3.3.3.2.4.2l-.6-.6.2.4Zm-2.4-3.1L49 10l.3.2h.2Zm-1-.7-.2-.1.2.2v-.1ZM23 8.9h.1l.5-.3c-.3.1-.7.2-.6.3Zm-8.8 13.8v-.3.3Zm24.2-17-.8-.2c.4 0 .7.2.8.1ZM15.9 37.1l.2.1-.2-.1ZM36.8 5.4H37.6h-.8Zm15.8 32.8Zm4.4-8.1ZM44.8 7.4c.2.1 0 0 0 0Zm.7.9h.1-.1ZM34.5 6Zm10.6 1.6-.3-.1.3.1Zm0 0h.2-.2ZM44.8 7.4h-.3.3ZM38 47.2c.3 0 .2 0 0 0Z"/>
  <path fill="#004F8D" d="M57.1 28.1v-.7.4c-.1-.2-.2 0-.3.2l-.2.3v-1.1l.1-.1v-2.7l-.2-.9V23h-.2l-.2-.8-.1-.4-.2-.4c-.2-.2-.2-.5-.4-1l-.1-.5a7.4 7.4 0 0 0 0-.2l-.3-.8-.4-.7-.4-.7-.3-.6-.3-.5-.1-.4v.3c0-.2-.2-.4-.4-.6v-.1c-.1-.3-.1-.2-.1 0l-.3-.3c0-.3-.5-.6-.5-.9l-.5-.5a2 2 0 0 0-.6-.5l-.6-.6v-.2l-.6-.3c-.2-.3-.3-.5 0-.3l-.4-.3-.3-.1-.6-.4h.1c-.2-.3-.7-.4-.8-.6l-.6-.5-1-.7-2.5-1.4c0 .2-.1.1-.3 0-.2-.1-.5-.3-.6-.2 0 0-.3-.2 0-.2l-1-.3-.8-.2h.1s-.3 0-.3-.2h.2-.5a1 1 0 0 0-.3 0 .4.4 0 0 0-.3.2l-.5-.2h-.4c-.2 0-.3-.1-.1-.1h.4H38.8l-.3-.2h-.6 1l-.5-.2h-.8l.5-.2H39.4c.8.1.3.2.4.2l.9.1h.5l1.2.4c.4.2 0 .2 0 .3l-.8-.2-.6-.3.5.2c-.2 0-.6 0-.8-.2l.5.2.5.2.5.1.5.2.5.2 1 .5c.1 0 .5.1.4 0l-.4-.1c-.2-.3.7.1.3-.1a8.3 8.3 0 0 1 1.2.4l.4.3v.2l-.5-.4c.3.1.9.7 1.2.7l-.3-.3a19.5 19.5 0 0 1 1.5.8c-.1-.3 0-.1-.4-.5.3.4-1.3-.9-1-.3a2 2 0 0 0-.4-.5l-.6-.4-.3-.1H45c.2 0 .2.1.3.2l-.7-.3-.7-.2c-.2-.1.2 0 0 0a6 6 0 0 0-.4-.2s-.7-.4 0-.2l-.6-.3-1.2-.4-.5-.1-.5-.1-.6-.1c-.5-.2-1-.2-1.6-.3a13 13 0 0 1-1.7-.2h-1.3v-.1h-3l-.9.1-.7.1v.2c-.3 0-.5 0-.8.2h-.4l-.5.2v.1l-1 .3-.6.2a6.8 6.8 0 0 0-.2 0c-.3 0-.5.2-.8.3-.3 0-.5.2-.7.4l-.8.4-.7.3-.5.3-.7.5H23c-.3 0-.2.1 0 .1a2 2 0 0 0-.3.3c-.3 0-.6.4-1 .5l-.5.5-.4.6-.7.6H20l-.2.3-.1.3c-.4.2-.6.3-.3 0l-.4.4-.2.2-.4.7v-.1l-.6.8a4 4 0 0 0-.5.6l-.8 1-1.4 2.6c.2-.1 0 0 0 .3-.2.2-.4.4-.3.5 0 0-.2.3-.1 0l-.4 1a2 2 0 0 0-.2.8c0 .1 0-.2-.1-.1v.4-.3l-.2.5v.3a.4.4 0 0 0 .2.3l-.1.5v.5c-.1.1-.2.4-.1-.2l-.1.4-.1.3v.4c-.1.4-.1.8 0 .8l-.1.5v1.5-.2V29.4h.2v.6l.2 1.2v-.3 1.5l-.1-.2c.1 1 .2 0 .4.8 0 .2-.2-.1 0 .4l.3.9.5 1.2c0-.2 0-.4.2 0s.5 1.4.9 1.7v.1l.5.8.5.5.2.6.6.6.6.6c.1.2.2.3.1.4l.5.5.4.4a4.1 4.1 0 0 0 1.1.9c.2.1 0 0 0 0l1 1 1 .4v.2c.2.1 1.4 1.1 2.5 1.6H25l2 1c.6.2 1.2.4 1.5.3l1 .1c-1.2-.3.1 0-.3-.3l.6.3c.2 0 .2 0 0 0h-.1c-.3.2 1.3.4 1.3.5 2.2.4 4.5.6 6.7.4l-.3-.1.8-.1-.3.1c.3.1.9-.1.9-.2 1-.1-.4.3 0 .2h.4-.1l.4-.2.6-.2h.6l1-.3h-.5c.4-.2.9-.2.4-.2l2-.6 1-.5c.4 0 .6-.2.7-.2a5.5 5.5 0 0 1 .7-.5l.9-.5c-.2 0-.4 0 .2-.3 0 .2.2 0 .5-.1l1-.5c-.2 0 .1-.2.5-.5.3-.3.5-.5.2-.4.4-.3 0 0 .4-.1.9-.9 2-1.8 3-3 0 0-.2.1 0-.2l.6-.5c.1-.2 0-.3.3-.7 0 0-.1.1 0 0 .9-1.2 1.5-2.6 2-4 .6-1.4 1-2.8 1.4-4.2-.1.4 0 .1 0-.2 0 .2-.1 0-.2 0l.3-1.2v-.8ZM42.5 6.6c-.4-.2-.3 0 0 0Zm8.6 6.7s-.1 0 0 0ZM40.4 7.5l-.4-.1.4.1ZM30 6.3h1.5c.4 0-.5.4-.2.4l.3-.1c.2 0 0 .1.4 0 0-.2 1-.1.2-.2h1.2c-.2-.1.5-.4 1-.5l.1.1h1.9l.7.2s.5 0 .3.1h.6c.5.2-.4 0-.3.1h-.9a9.8 9.8 0 0 0-1.4 0h.2-2.9v.2l-.6.1a7.4 7.4 0 0 0-1.1.1h.3a2 2 0 0 1-.8 0H30v-.1c-.1-.2-.1-.3 0-.4Zm-1.4 2h-.3l-.3.2c.1-.2.3-.2.6-.2Zm-.9-.8a6 6 0 0 1-.7.3l.7-.3Zm-.9.4c.1 0 .1 0 0 .1l-.3.1.3-.2Zm-.6-.3h.2l.6-.4-.9.8-.4.4a2 2 0 0 0-.8.5v-.1a4 4 0 0 1 1.3-1.2Zm-1.9 1.3v.3l-.2.2a3 3 0 0 0-.6.4h-.1c.2-.2.3-.5 1-.9ZM22 10.7v.1a9.7 9.7 0 0 1-.4.4l.4-.5Zm-.7.4.1.1-.3.3.2-.4Zm-.9 1Zm.4-1.1Zm-.6 1.2h.2-.2Zm-.6 0c0 .2.3.2.4.3l-.2.2-.1.3h-.3v.2l-.3.3.5-1.3Zm-.8 1.4.1.1-.1.2v-.3Zm-.5 1-.2.3.1-.2.1-.2Zm-4 9.5v-.3a13.6 13.6 0 0 0 0 .3Zm.3-1.7Zm.3-.8.1-.3v-.2c.2-.5 0 .4.3 0 0 .3-.2.5-.3.7 0 .1-.1.1 0-.1v-.1Zm.2-1v-.1Zm.4-2 .1.2-.1.3-.3.6v-.3l.3-.8Zm-.8 3c0 .2 0 .3-.2.5 0-.1 0-.3.2-.5Zm0 1-.2.2v-.2h.1Zm-.3.2v.2-.2Zm-.3-.5v.1-.1c.2-.3.3-.2.3 0l-.2.4.2.4v.5c-.2.1-.2-.4-.2-.9l-.2.4v-.8Zm3.3 15.3.3.3c-.2 0-.3-.1-.3-.3Zm23.1 10h-.1c.3-.1.2 0 .1 0Zm11.3-8.3.1-.1.2-.2-.3.3Zm.2-.3v-.2l-.3.4s0-.2 0 0l-.6.8c-.2.1-.1.2 0 .3l-2.3 2.2h.2l-.5.4-.3.2-1 .6c0 .2-.4.4-.6.5.2-.2-.6.2-.3 0l-.7.5-.4.4H45c-.2.2-.2.3-.8.5.2 0 .2-.1 0 0l.5-.4h-.1l-.3.3c-.1 0-.2 0 0-.1a15.7 15.7 0 0 0-1.4.6l-1 .2c-.2.2 0 .1.4 0l.4-.1c.2 0 0 0-.1.2l-.7.2h-.8.5l-.8.1h-.3l-.3.1h.2-.6l-.3.2h-.3c-.3.2-.7 0-.7.3l1-.2-.9.3-1 .1.4-.2c-.2 0-.5.2-.7.1l.6-.2h.6l.5-.2-.7.1h-.2l-.7.2H36h.4c-.6 0-1-.2-1.6-.1h.6c0 .1-.1.2.1.2h-1L34 47c-.2 0-.5-.2-.4-.3h-.5l-.6-.1c-.4-.1-.8-.3-1.3-.2-.2-.1.2 0 0-.1l-1-.2h.1l-1-.2-.7-.3a11 11 0 0 1-.8-.3l-1-.5.1.2-.5-.3c-.4 0 .9.4.5.4l-.5-.3-.8-.4-.7-.4-.4-.4c-.4-.3 0 .2-.4 0v-.2H24l-.4-.4.3.1-.7-.4-.5-.4.4.4c-1.2-.8-2.5-2.1-3.5-3L19 39l-.6-.9-.5-.6c.2.2-.2-.6 0-.3l-.5-.6-.4-.4V36l-.5-.7c.3.4 0-.4.3 0l-.3-.7-.3-.6c-.2-.3-.3-.6-.2-.9-.2-.2-.2 0-.1.3l.1.5-.1-.1a3 3 0 0 1-.3-.9v-.8l-.1-.3v-.3.2l-.1-.6-.1-.3v-.3c-.2-.2-.1-.5-.3-.6l.2.9-.3-.8-.2-1 .2.5c0-.3-.1-.5 0-.8l.1.7v.5l.2.4v-.5c-.1-.2-.1-.3 0-.2-.2-.2-.2-.4-.2-.7 0-.3 0-.6-.2-1l.2.1-.1-.5.1.4c-.1-.6 0-1 0-1.6v.6s-.1-.1-.2.1c0-1.3.3-.8.4-2.2 0 .3-.2.7-.2.4l.2-.8c.1-1-.1.1-.1-.3.2-.3 0-.5 0-.9h.1l.1-.5v-.8l.1.5.1-.6.1.2a3.7 3.7 0 0 1 .4-1.3c-.2.1-.2-.1 0-.6l.2-.4-.1.6v.2l.4-1-.1.2.1-.5.2-.5v.1l.2-.6s.2.1 0 .5l.4-.9.3-.3.4-.8c.2-.3.3-.7.6-1l.1-.2.3-.3.3-.4.7-.9.4-.2c.5-.5-.5.3.1-.5.5-.5.3 0 .6-.2 0-.2.2-.4.4-.6.2-.2.4-.5.7-.6l-.4.4.4-.3c-.3.5-.7.8-.3.6 0-.2.3-.5.7-.8l.6-.5.2-.3.3-.1-.2.1c.7-.3.3-.5 1-.9.3-.1.6-.2.4 0l.5-.4c.2-.1.2 0 0 0l1-.5.4-.4c.3 0 0 .1 0 .1.2 0 .3-.2.5-.3.1 0 .1.1 0 .2l-.5.2.6-.1c.1-.1.4-.3 1-.4l-.6.2h.6l.8-.2c-.1 0-1.2.1-.7-.1l.7-.3.8-.1V8l.6-.3h.7c.8 0-.6 0 .4-.2a6.3 6.3 0 0 0 .8-.1l1-.2h.5c.1 0 0 0 0 0 .4 0 .1-.1.6-.2h1.8c.2.1 0 .2 0 .2H38l.6.1c-.5-.2.2-.2.7-.2l-.4-.2h.9c0 .1 0 .2-.2.2h.2c.3.1.1.1-.1.2l-.3-.2-.4.2h.3-.1.3l.1.3c.4 0 .8.2 1.1.3H42l.7.2.8.2c-.4 0-.2.2-.2.3l-.7-.3h-.4l-.5-.2.2.1 1.1.3.5.3c-.1-.1.1 0 .4 0l.9.4s-.2.1-.7-.2c.5.5.9.2 1.4.6l-.3-.1.6.3.2.2h-.1l.7.4.8.5 1 .6h-.3l1.7.7c-.2 0 0 .7-.7.2l.7.7v-.3c.3.5.3.3.6 1-.1-.3.3-.3.5 0 0 0-.2.2-.3.1l.8.5c-.2-.1-.2.1-.2.3l.3.3.4.5-.2-.3c.6.8.9.6 1.4 1.4-.1 0-.4 0-.2.4.2.1 1 .6 1.6 1.3v.2l.3.6-.8-.8-.9-.9.3.6c0 .2-.3-.2-.4-.3l.6 1.1.3.4.3.4-.7-1.2s.2 0 .5.3a3.8 3.8 0 0 1 .6 1c0 .3-.4 0-.4 0l.2.5.2.4-.2-.3.3.6.2.7v.7c.1-.4.7-.6.8-.4v1.4c0 .4-.3-.4-.4-.1l.1.2v.4c.2 0 .1 1 .2.2v1c.2-.1.5.6.5 1v.8l-.1.6v.6l-.1.6s-.2.5-.2.3v.5c-.2.5 0-.6-.2-.2v1.1l.2-.5V29l.3.5a4 4 0 0 1 0 1.2v.1c-.1.6-.2.2-.2.4l-.2.8v.4a13.2 13.2 0 0 1-.4 1l-.1.3s0-.2-.2-.1l.3-.8.2-.5-.2.5.2-.9-.2.6-.1.4-.2.5-.2.4-.2.5-.4.9c0 .2-.2.5 0 .4l.1-.3c.2-.3-.2.6 0 .2v.1l-.1.5a19.3 19.3 0 0 1-.6 1h-.1l.4-.5-.7.9c-.2.3 0 .2 0 .2l-.1.2h-.1v.2l-.3.3-.2.1.2-.3a4 4 0 0 0-.6.8Zm2.7-3.9-.1.1v-.1ZM46.9 8.5Z"/>
  <path fill="#004F8D" d="m46.8 8.5-.3-.2c.2 0 .2.2.3.2Zm3.2 3.2c-.2-.3-.4-.4-.1-.2l.1.2Zm-2.4-2.3-.5-.3.5.4Zm.1.1.3.2-.3-.2Zm-3.6-2.3c.1.1.1 0 .2 0 .2 0-1-.3-.2 0Zm2.8 2 .2.3v-.2H47Zm-2-1.1.5.3h.1l-.6-.3Zm1 .5-.4-.2.4.2Zm.6.5-.1-.1-.3-.2.4.3Zm-7.4-2.8h.3l-.6-.1h.3Zm-8.4 0v.2h.1v-.2ZM57.3 28v-.5.5Zm0-1-.1-.3v.4h.1ZM41.1 46.4h.4l.2-.2a7 7 0 0 1-.3 0l-.3.2Zm5.1-2.3ZM46.6 44l-.3.1c-.2.1 0 0 0 0-.2 0-.4.3 0 .1l.7-.3h-.4Zm.4-.1Zm1.7-1.4-.2.3.5-.5-.3.2ZM25 10l-.2.2.2-.2Zm1.4-.7Zm26.9 6.1v.2l.2.4-.2-.6ZM39.7 7.1h-.4.4Zm-1 .2.3.1-.4-.1Zm-20 8.5-.1.3c.2-.4 0-.3 0-.3Zm5.2 27.3c.1 0 0 0 0 0Zm29.9-6.5v-.1ZM56 26.2Zm-41 3.3c0 .2 0 .1 0 0Zm34-17.1h.1Zm-.5-.4c.3 0 .4.2.6.4V12h-.6ZM15.2 24.8ZM39.1 7.4c-.1 0-.1 0 0 0Zm-20.5 8.3v.1Zm36.7 7.7v-.2.2Zm-5 17.3h.1l.1-.1-.1.1Zm2.5-3-.2.3h.2v-.2ZM54 36l-.3.4v.2l.3-.6Zm-.5 1 .2-.4-.2.3Zm-.3.1-.3.4.2-.1.1-.3Zm2.6-6.3v-.5.5ZM55 32v.3l.1-.2h-.1Zm.3-1.3s0-.8 0 0c0 0-.1.5 0 0Zm.4-8-.3-.2v.2h.3Zm-3.3-6.3c-.2-.3-.3-.5-.4-.3.4.6.3 0 .5.6.1.1-.2-.4 0-.3ZM52.5 16.4l.2.1-.2-.1Zm-23-8.2h.3-.4Zm-5 2.1h.1-.2.2Zm-3.5 3 .4-.4c-.3.3-.6.4-.4.4Zm31 27c.1-.3-.1-.2 0-.2-.2.1 0 .2 0 .2Zm1.7-2.9.2-.5-.2.4v.1Zm.6-1.2v.2a17.7 17.7 0 0 0 .8-1.7c-.3.1-.4 1-.7 1.4h-.1Zm1.6-2.6.1-.3-.1.3Zm0 0c0 .3.2-.2 0 0Zm.4-1c0-.1.2-.5.2-.3 0-.5 0-.4-.1-.2l-.1.5Zm0-.9v.2-.2Zm0 .4v.3-.5.2Zm-.3.6-.1.6.2-.7c0 .3-.2.5-.1.1Zm-1 1.8-.2.2v.3l.1-.3.1-.2Zm2-5-.2.2v.3l.2-.4Zm-.2.2v-.5.5Zm-.7 2.7.1-1v.2l-.1.8Zm1.2-4.4-.1-.4v.4Zm0-1.4c0 .2 0-.3.1 0l-.1-1v1Zm-.1-1.3Zm-.2 3v.2l.1-.4-.1.2Zm0 0v-.4.4Zm0 .2Zm-.6 1.6.1.3c0-.3 0-.8-.1-.3Zm.4-.9v-.5.5Zm0-.7v.2-.2Zm.3-2.4v-.7.9-.2Zm0 1Zm-.4-4.3Zm.3 3.5v.5a8 8 0 0 1 0-.5Zm0-1.8v.4c0-.1.1-.3 0-.4Zm0 2.5h.1Zm0 0v-.2.3ZM56 21.7l.1.5s0-.2 0 0c0 0 .3.5.2 1 .2.4.4 0 .5-.4l-.2-.4v.7l-.2-.6v-.3c0 .3-.3-.7-.4-.5Zm1 2v.3-.7c0-.4-.1-.4-.2-.4l.2 1v-.1Z"/>
  <path fill="#004F8D" d="M57 24.9c-.1-.2-.2-.6-.3-.3 0 .5.1.4.2.7-.1-1 0 .3 0-.4l.1.5v-.5c0-.3 0 0 0 0l-.1-1v1Zm-.7 4.7c0-.1 0-.1 0 0Zm.4-.8Zm-.3.8c0-.3.2-.6.3-.8l-.3.4v.4c0 .1 0 0-.1 0 0 0 0 .4.1 0Zm.2-3h.1v.4-.7.4Zm.3-3.8-.2-.4v.3l.2.1Zm-.2-1c0-.2-.1-.3-.2-.3v.2h.2ZM37.8 5.1l.1.1.6.1-.7-.2Zm-15.8 5 .2-.2-.2.2Zm29.6 2.2-.5-.6.5.6Zm-37.8 9.8v.2-.2Zm36.7-11 .1.1.5.5a2 2 0 0 0-.6-.6Zm-9.8 34.6Zm8.7-3.4.3-.2-.3.2Zm5.8-24.7c.1.2 0 0 0 0Zm0 1.1Zm-6.8-8.6Zm7 7.9Zm0-.1v.2-.2Zm-.2-.3v-.2.3ZM23.7 43.6c.3.1.2 0 0 0Z"/>
  <path fill="#004F8D" d="m50.8 41 .4-.5-.2.3c0-.3-.1-.2-.4-.1l-.3.1a11 11 0 0 1 .7-.8h.2a19 19 0 0 1 1.3-1.5l.5-.6.4-.7.4-.6h-.1l.3-.8.2-.3.2-.5h-.1l.4-.9.2-.5a7.7 7.7 0 0 0 .1-.2l.4-.7.1-.8.2-.8.2-.7.1-.5a2.5 2.5 0 0 0 0-.1v-.7l.2-.1c0-.3 0-.3-.1-.2v-.3c.2-.2 0-.7.2-1v-.7L56 26v-1c0-.2 0-.4-.2-.6 0-.4.1-.5.2-.2v-.5l-.2-.3-.2-.7h.1c0-.2-.3-.6-.2-.8 0-.2 0-.5-.2-.8l-.3-1.2-1-2.6c0 .2 0 0-.2-.2l-.2-.5s-.1-.3 0 0l-.5-1a2 2 0 0 0-.5-.6c0-.1.2 0 .2 0l-.2-.3.2.2-.3-.4-.3-.2a.4.4 0 0 0-.3 0 2 2 0 0 0-.3-.5l-.4-.2v-.2l.3.2s.4.5.1 0l-.3-.2-.1-.1-.2-.3-.2-.2-.2-.2c.2 0 .5.4.8.7l-.4-.5-.6-.5.6.1.4.3.5.5c.6.6.2.4.3.5l.5.6.4.4c.2.2.4.3.7.9.1.5-.2.1-.3.3a4 4 0 0 1-.3-.7l-.4-.5.3.4c-.2-.1-.4-.4-.5-.7l.3.5.2.4c0 .2.2.3.3.5l.2.4.3.5.4.9c.1.2.3.5.3.3l-.2-.3c0-.4.4.5.3.1a7.8 7.8 0 0 1 .6 1l.2.5-.1.2-.2-.6c.1.2.2 1 .4 1.3v-.5l.4.7.2.9v-.6c0 .4-.4-1.5-.4-.9l-.1-.6-.2-.8s0 .3-.2-.2V18v.3l-.4-.6-.3-.6a5.4 5.4 0 0 0-.2-.4s-.3-.8.1-.2l-.3-.5c-.1-.4-.4-.9-.6-1.1l-.3-.4a11 11 0 0 0-.3-.4l-.4-.4c-.2-.4-.6-.8-1-1.2l-1-1.3a19.6 19.6 0 0 1-1-.8v-.1l-.7-.6-.6-.4-.3-.4a4 4 0 0 0-.3-.2l-.4-.2-.7-.5c-.3 0-.5-.2-.7-.3-.3 0-.5-.2-.8-.3l-.4-.2-.4-.1-1-.3-.6-.3a12 12 0 0 0-.2 0l-.8-.4L41 6l-.8-.1-.8-.2-.5-.1-.4-.2.3.1H38l-.1-.2c-.3 0-.3 0-.2.2h-.3c-.2-.2-.8 0-1-.2h-.9l-.7.2H34l-.1-.1-.3.1-.4.1c-.4 0-.6 0-.2-.2l-.5.2H32l-.8.3v-.1l-.9.2-.8.1c-.4 0-.8.2-1.3.4l-2.7 1-.2.1-.6.3s-.3.1 0 0l-1 .5a2 2 0 0 0-.7.5c-.1 0 0-.2 0-.2l-.3.2.2-.2a3 3 0 0 0-.5.3l-.1.3v.3l-.5.3c-.2.1-.3.2-.3.4-.2 0-.4.1 0-.2l-.4.2-.2.2-.3.2-.6.7-.3.3-.5.6c-.2 0-.3.2-.5.5l.1-.1c0 .3-.3.4-.6.8a4.2 4.2 0 0 0-.6.7l-.2.2-.4.5h.1c.1.1 0 .3-.3.6l-.7.9.2-.2c0 .2-.2.4-.5.6l-.5.6V17c-.5.9.1.2-.2.9 0 .1 0-.2-.3.2l-.3 1c0 .4-.2.8-.4 1.2.1-.2.2-.3.2 0-.2.6-.6 1.4-.5 2h-.1l-.1.9v.7l-.2.6V26.3l-.1.3V27.9a3.8 3.8 0 0 0 .3 1.3c0 .2 0 0 0 0l.1 1.3.4 1v.2c0 .2.2 1.7.8 2.7h-.1l.9 1.9c.2.6.6 1.1.9 1.2l.5.7c-.6-1 .3 0 0-.4l.4.6c0 .2 0 .2-.1 0-.3-.1.7 1 .6 1.2 1.4 1.7 3 3.2 4.8 4.4l-.1-.3.6.4c.2.2.2.3-.3 0l.8.4c1 .6-.4 0-.1.1l.3.2h.4l.5.3c.4.2.2.2.3.3h.2l.9.5-.3-.3c.4.1.8.4.4 0 .3.3 1 .6 1.9.9l1.1.3.7.2a6.4 6.4 0 0 1 .9 0l1 .2c-.2 0-.3-.2.3 0l.5.2 1 .2h.7c.4 0 .8-.1.4-.2.5 0 0 .1.4.2 1.3-.2 2.8 0 4.2-.4 0 0-.2-.1.1-.2h.8c.3 0 .2-.3.8-.3 0 0-.2 0 0 0 1.4-.4 2.8-1 4.2-1.7 1.3-.7 2.5-1.6 3.8-2.4-.4.2-.2 0 0-.2 0 .1 0 0 0 0l1-.8.5-.6ZM54 15.6c-.1-.3 0-.2 0 0Zm2 10.5s0-.1 0 0ZM52 15l-.3-.4.3.4Zm-7-7.5.5.4.6.5c.2.3-.7 0-.5.3h.4c.1.2-.2.1.3.3.1 0 .8.6.2 0l1 .7c-.2-.2.6 0 1 .3v.1l.6.5.4.4a30.9 30.9 0 0 1 .9.8c0 .1.3.5.1.4l.4.3c.3.5-.3-.2-.3 0l-.3-.3-.3-.3-.5-.5-.5-.5v.2c-.2 0-.4-.3-.8-.7l-.4-.4-.3-.1-.2-.2-.5-.3c0 .2-.3 0-.5-.2l-.6-.5-.4-.2.2.2-.5-.4-.4-.4c0-.2.2-.4.3-.4Zm-2.4.6h-.3l-.3-.1c.2-.1.3 0 .6.1Zm-.2-1.1-.7-.2.7.2Zm-.9-.2H41h.4Zm-.3-.7.2.1.7.2H40.2a2 2 0 0 0-.9 0v-.1h.1a4 4 0 0 1 1.7-.2Zm-2.3-.1s-.2.1-.1.2h-1.1l-.1-.1c.4 0 .6-.2 1.3-.1ZM36 6c-.1 0-.1 0 0 .1h-.6l.6-.1Zm-.8 0h-.4.4Zm-1.3 0Zm1-.5s-.1 0 0 0Zm-1.2.5h.1-.2Zm-.5-.3c-.1 0 0 .2 0 .4H33l-.3.1-.2-.1-.1.2h-.4l1.2-.6Zm-1.5.5v.1h-.3.3Zm-1 .4-.4.2H30l.3-.2h.2ZM21 11.3l.3-.2-.4.3.1-.1Zm1.5-1Zm.7-.5.3-.1.2-.2c.4-.2-.3.4 0 .2l-.5.3c-.2 0-.2 0 0-.1Zm.9-.7Zm1.6-1.2c-.1.1-.1.2 0 .2a6.3 6.3 0 0 0-1 .4l.2-.1.8-.5ZM23 9.7l-.4.3.4-.3Zm-.6.6-.3.2.1-.2h.2Zm-.3.1-.2.2.2-.2Zm0-.6c.1 0 .1 0 0 .2l.1-.1c.3-.2.2 0 .1.2a8 8 0 0 1-.3 0l-.1.5-.5.4.5-.8-.4.2.6-.6Zm-7.7 13.7s.1 0 0 .4v-.4Zm10.9 21.9-.1-.1c.3.1.2 0 0 0Zm14 .8h.1l.3-.1-.4.1Zm.3-.1.2-.2-.5.1s.1 0 0 0l-1 .2c-.2 0-.3.1-.2.2l-3.2.3h.1a3.9 3.9 0 0 1-1 0h-2c.4 0-.5-.3-.1-.3H30.4l-1-.2h.7-.5c-.1-.1-.2-.2.1-.1l-.8-.3-.6-.2c-.4 0-.7-.2-1-.4-.2 0 0 .2.3.3l.4.2h-.2l-.7-.2c-.2 0-.3-.2-.5-.4l-.1-.1.4.2-.6-.3a4.8 4.8 0 0 0-.6-.4l.2.1-.5-.3H25l-.3-.3c-.3 0-.5-.3-.7-.2l.9.5-.8-.3-1-.6.5.2-.6-.4.6.2.5.3.4.2-.5-.3c-.2 0-.3-.1-.1-.1l-.7-.3-.8-.5.1-.1a2 2 0 0 1-.5-.3l.4.1c-.5-.2-.8-.7-1.2-1l.4.4s-.2 0 0 .2c-.5-.3-.6-.5-.7-.7l-.1-.3-.1-.5-.4-.3c0-.2-.2-.3-.3-.5l-.9-1c0-.1.2.1.1 0-.2 0-.4-.3-.6-.7l-.5-.8-.4-.6-.4-.8-.4-1v.2l-.3-.5c-.3-.3.4.8.1.6l-.1-.6-.3-.7-.3-.8v-.5c-.2-.5-.1.2-.3-.3v-.1l-.1-.1v-.6l.1.3c0-.2 0-.5-.2-.8a4 4 0 0 1-.1-.5v.5c-.4-1.4-.4-3.1-.6-4.5v.1a3.9 3.9 0 0 1 0-1l.1-1v-.8c0 .3.2-.5.2-.2 0-.5.1-.7 0-.8v-.5l.1-.1.1-1c0 .6.3-.2.2.3l.3-.8.2-.5c0-.4.1-.7.4-.9 0-.3-.2 0-.3.2l-.2.4v-.2l.2-.6.1-.2.3-.3a2.5 2.5 0 0 0 .4-.6l.2-.3-.1.2.2-.5.2-.2c0-.1 0-.2.2-.3 0-.3.3-.5.1-.6l-.4.7.3-.7.6-.9-.2.5.4-.6s0 .3-.3.6l-.2.4-.2.4.3-.4.1-.2.3-.6c.2-.2.4-.4.5-.8l.1.1.3-.4-.1.3c.2-.4.7-.7 1-1.1l-.4.4s0-.2-.2 0c.8-1 .7-.4 1.7-1.4-.2.1-.6.4-.4.1l.7-.4c.7-.7-.2 0 0-.3.4-.2.4-.4.7-.7h.1c.2 0 .3-.1.4-.3l.1-.1s0-.2.5-.4l-.3.4.4-.4v.2a3.6 3.6 0 0 1 1.1-.8c-.1 0 0-.2.4-.4.3-.1-.1.2.5-.2 0 .1-.2.3-.5.4l-.1.1c.3 0 .8-.4 1-.5l-.3.1.5-.3.4-.3c.2 0 0 0 0 .2l.5-.4c0 .1 0 .2-.3.4l.8-.4c.1 0 .6-.1.4 0l1-.4 1-.4h.2l.5-.2h.5a7.9 7.9 0 0 0 1-.3l.5.1c.7 0-.6-.1.4-.3.8-.1.3.1.6.2l.7-.2h1-.6.5c-.6.2-1 .2-.6.3l1-.2H37.2 37c.7.2.6-.2 1.4 0 .3 0 .5.2.3.2h.7c.2 0 .1 0 0 0l1 .2h.6c.2.2-.2 0-.1.1l.6.1h-.7c.2.2.3.2.5.2s.5 0 1 .3l-.5-.1.5.3.7.4c-.1-.1-1-.7-.4-.6l.6.3.7.3-.1.2h.7c.4.3.4.5.5.6.6.4-.4-.4.4 0l.4.2.4.3.9.4c.3.3-.2 0 0 .2l.3.1c.1 0 0 0 0 0l.6.3.5.4.8.8h-.1l1.2 1 .4.5c-.2-.5.2 0 .7.3l-.2-.4.6.6h-.2.1c.2.3 0 .3-.2.1l-.1-.3c-.2 0-.4-.1-.4 0l.2.1H51l.2.2v.2l.6 1a28 28 0 0 0 .9.8l.4.5.5.7c-.3-.2-.2 0-.4 0l-.3-.5-.2-.4-.3-.4c.2.3 0 .3 0 .2l.7 1 .1.5c0-.2.2 0 .3.2l.5.9c-.1 0-.2 0-.4-.6 0 .6.5.6.6 1.3l-.1-.3.2.6v.3-.1l.2.8.3.8.4 1.1H55l.9 1.4c-.2 0-.5.5-.7-.2v.9c.1-.2.3-.4.3-.2l-.2 1c0-.1.3 0 .3.4h-.3l.3.8c0-.2-.2 0-.3.2V28.2 28c-.1 1 .3 1 .1 2 0-.2-.2-.4-.4 0 .1.3.5 1.2.3 2l-.1.2-.1.7-.1-1.1v-1.2c-.2.3-.2 0-.3.6v-.5l-.4 1.2v1l.3-1.4v.5a3 3 0 0 1-.2 1.2c-.1.2-.2-.2-.2-.2l-.1.5-.2.4v-.4l-.1.6c0 .3-.2.5-.4.7 0 .2-1.1 2.2-1 2.3.3-.2 1.5-1.8 1.5-1.5a27 27 0 0 0-.9 1c-.3.3 0-.5-.3-.4v.3l-.3.3c0 .2-.6.8 0 .3l-.7.8c.2 0 0 .6-.2 1h-.2l-.5.6-.4.4-.4.4-.4.4c-.1 0-.5.3-.4.1l-.3.4c-.5.3.4-.4 0-.2l-.7.8s.3 0 .5-.3l.5-.6-.2.6a3.8 3.8 0 0 1-.8.9c-.5.5-.3 0-.4.2l-.7.5-.3.3-.2.1-.7.5-.3.1v-.2l.6-.4.6-.3-.5.3.7-.5c-.1 0-.3 0-.5.2l-.4.3-.4.2-.5.3-.5.2c-.2.2-.5.3-.9.4-.1.1-.4.3-.2.3l.3-.2c.3 0-.6.4-.2.3l-.5.3a7.4 7.4 0 0 1-1 .3H42s.5 0 .7-.2l-1.1.3-.2.1-.2.2h-.1l-.5.1h-.2l.3-.2-.8.2h-.2Zm4.6-1.3h-.1.1Zm11.8-25Z"/>
  <path fill="#004F8D" d="M56 19.8h.1l-.2-.4.2.4Zm.4 4.4V24v.2ZM56 21c.2 0 0-.3-.1-.6l.1.6Zm0 0 .1.4V21ZM55 17.2c0 .2.1 0 .1.1.2.2-.6-.8-.1 0Zm.7 3.3v.3l.1-.1-.1-.2Zm-.7-2.1.1.5h.1l-.2-.5Zm.4 1c0-.1 0-.3-.2-.4l.2.4Zm.1.7V20l-.1-.4.1.5Zm-3.7-6.7.2.2-.3-.5.1.3Zm-6.3-5.2-.2.1h.1l.1-.1ZM51 41l.3-.3-.2.2-.1.1Zm.6-.7.1-.3-.3.3h.2Zm-25 4.5.3.1.2.1-.2-.2h-.3Zm5.4 1.4s.1 0 0 0Zm.4 0c-.1 0-.2.1-.4 0-.2 0 0 0 0 0-.1 0-.5 0 0 .1l.8.2-.4-.2Zm.4.3Zm2.1 0-.4.1h.8-.4Zm3.7-39.4h-.2.2Zm1.6.4Zm16.1 21.3h-.1v.6l.1-.6Zm-4.7-14.6-.2-.2.2.2Zm-1-.5.3.3-.2-.3ZM30 7.8l-.3.1c.4-.1.2-.1.3-.2ZM15.8 31.6Zm26.9 13.6Zm8.6-6.4ZM18 15.8c-.1.2 0 .1 0 0Zm37 8.3Zm0-.7.1.7.3-.2-.5-.5Zm-33.7-11ZM51 14.1c-.1-.1-.1 0 0 0ZM30 7.7Zm22.5 29 .2-.6s0 .3-.2.5Zm-15.1 9.7h.2-.2Zm3.7-.8h-.3l.2.2.1-.2Zm2.2-.7-.5.2h-.1l.6-.2Zm-1 .4.4-.1-.4.1Zm-.3 0-.5.2h.1l.4-.2Zm6-3.1.5-.4-.3.2-.1.2Zm-1.3.5-.2.2h.2v-.2Zm1-.7c.1-.1.6-.6.1-.2 0 0-.4.4 0 .2Zm5.8-6-.2-.2v.1l.2.1Zm1.6-6.7v-.4c-.2.6 0 .1-.1.7l.1-.3Zm0 0v.2-.2Zm-12-20.6.3.2-.3-.2Zm-5-1.4-.1-.1v.1Zm-4.7 0h.6-.6Z"/>
  <path fill="#004F8D" d="M29 12.8a.2.2 0 0 0 0 .3h2a.3.3 0 0 0 .3 0 .3.3 0 0 0 0-.4l-.6-1c1.6-.3 4.3-2.2 5.1-4.2.8-1.7.5-5.4-2.1-7-1.2-.7-5.8-1.2-7.1 3-1.2 3.5 1.2 7.7 3.2 8l-.8 1.3Z"/>
  <path fill="#004F8D" d="M31.9 14.9a.2.2 0 0 0 0 .3l.6.3 1.2.4a.3.3 0 0 0 .3 0 .3.3 0 0 0 .1-.3l-.1-1.2c1.5.3 4.7-.5 6.2-2 1.4-1.4 2.5-5 .7-7.4-.8-1-5-3.1-7.8.3-2.4 3-1.7 7.6 0 8.7L32 15Z"/>
  <path fill="#004F8D" d="M28 17c0 .2.1.3.3.2l.5-.3 1-.6h.1a.3.3 0 0 0 0-.5l-1.1-.7c1.2-.9 2.5-3.9 2.2-6-.2-1.9-2.4-4.9-5.5-5-1.4 0-5.6 1.8-4.6 6 .9 3.7 5.1 6.1 7 5.5V17Z"/>
  <path fill="#004F8D" d="M33.8 24.5c-.1 0-.2-.1-.5-.7l-4.5-7.3.4-.2 2.3 3.7c-2.4-5.7-1.3-7.5-1.2-7.6l.4.3s-1.4 2.4 2.8 10.5l.2.4.3.5c.1.3 0 .4-.1.4h-.1Z"/>
  <path fill="#004F8D" d="M33.6 24.3c-1.9-6.1-.9-9-.8-9l.4.1s-1 2.8.8 8.8l-.4.1Z"/>
  <path fill="#004F8D" d="m46.8 51-.4-1.6c-.1-.2-1 0-1 0l-1.7-2.5c-.6-.9-3.2-1.8-3.2-1.8s.2 0 1-1c-2.6-2.4-3.2-4.7-3.2-4.7h.8c.2-.1-.4-1-.5-1.5l3.9 3s-.4.2.1.7c.5.5 1.7 1 1.8.8 0-.3-4-4.8-5.5-6.5 1 .9 3 1.4 3 1.4s-1.5-1-1.7-1.5c-.1-.4.2-1.3.4-1.8l.1-.3c.3-1.1 0-2.4-1-3-1.2-.5-2.4 0-3.5 1.5-.3-.3-2-8.7-2.2-8.9-.1-.1-.5.2-.7 1-.2.8.4 1 .4 1V27c0 1.6 1 6.8 1 6.8l-.7 1c-1.8 4.2 1.8 9.9 1.8 9.9l1.2.5s.6 1.5 1.4 1.8l1.1.5 2.6 2c1 1 2.6 4 3 3.8.2-.3-.2-1.4-.4-3 1 .7 1.6 2.5 2 2.3.3-.1.4-1 .1-1.7ZM5.5 34.4c0-.6.5-1.1 1.1-1.1l.6.1c.2-.3.4-.5.7-.6.4-.2.7-.2 1 0 .3-.6.6-1 1-1.3a2.6 2.6 0 0 1 1.9-.4 4.5 4.5 0 0 1 4.5-3.9c1 0 2 .3 2.8 1 .8.5 1.4 1.4 1.6 2.3A3 3 0 0 1 25 33c.2 0 .5.2.7.5a1.2 1.2 0 0 1 .2 1c2.3.2 4 .4 4 .8 0 .3-2.4.6-5.5.6h-.8a3 3 0 0 1-2.9.2c-.1.3-.3.5-.6.7a1.7 1.7 0 0 1-2.3-.7c-.8.2-1.6.3-2.3 0a1.6 1.6 0 0 1-1.3.7 1.7 1.7 0 0 1-1.5-.9 2.6 2.6 0 0 1-2.8-.2 17.5 17.5 0 0 1-1.2.1l-3 .1c-3.1 0-5.6-.3-5.6-.6 0-.4 2.5-.7 5.5-.7Zm54-13.6a.6.6 0 0 0-.3-.4.7.7 0 0 0-.4-.2h-.4a.9.9 0 0 0-.4-.3 1 1 0 0 0-.6 0c-.1-.3-.3-.6-.5-.7a1.5 1.5 0 0 0-1.1-.3c-.1-.6-.4-1.1-.8-1.6a2.7 2.7 0 0 0-4.5 1.3 1.8 1.8 0 0 0-2.1.6c-.2.2-.3.5-.3.7a.8.8 0 0 0-.5.4.7.7 0 0 0 0 .5c-1.4 0-2.4.2-2.4.4 0 .3 1.4.4 3.2.4h.5a1.8 1.8 0 0 0 1.7.2c.1.2.5.4.8.4.4 0 .7-.2.9-.5.4.2 1 .2 1.4 0a1 1 0 0 0 1.5 0 1.5 1.5 0 0 0 1.7-.2h.6l2 .1c1.7 0 3.1-.1 3.1-.4 0-.2-1.4-.4-3.2-.4Z"/>
  <path fill="#004F8D" d="m40.8 32.7.4 2.3c.2.8 2.4 2.7 2.4 2.7s-3.8-1.7-3.9-2.3c0-.6 1-2.7 1-2.7Z"/>
  <path fill="#004F8D" d="m40.8 32.5.5 1.5c.3.3.7 1.6.7 1.6l-1.3-.8-.1-2 .2-.3Z"/>
  <path fill="#004F8D" d="m40.4 31.5.7 1.2c0 .4.6.9.6.9s-.6 0-1-.2l-.3-2Z"/>
</svg>
